<?xml version="1.0" encoding="utf-8"?>
<!-- Generator: Adobe Illustrator 24.0.0, SVG Export Plug-In . SVG Version: 6.00 Build 0)  -->
<svg version="1.1" xmlns="http://www.w3.org/2000/svg" xmlns:xlink="http://www.w3.org/1999/xlink" x="0px" y="0px"
	 viewBox="0 0 256 256" style="enable-background:new 0 0 256 256;" xml:space="preserve">
<style type="text/css">
	.st0{fill:#3A70BF;}
	.st1{fill:#EDF4FC;}
	.st2{fill:#C7D7E5;}
	.st3{fill:#F9D0B4;}
	.st4{fill:#5B5D60;}
	.st5{fill:#5290DB;}
	.st6{fill:#70D6F9;}
	.st7{fill:#F5C84C;}
	.st8{fill:#FC657E;}
	.st9{fill:#87D147;}
	.st10{fill:#FCDD86;}
	.st11{fill:#9BE5F9;}
	.st12{fill:#B2E26D;}
	.st13{fill:#754E34;}
	.st14{fill:#FCA265;}
	.st15{fill:#818182;}
	.st16{fill:#F94EED;}
	.st17{fill:#FFC197;}
	.st18{fill:#3CAADC;}
	.st19{fill:#DAE6F1;}
	.st20{fill:#57AF12;}
	.st21{fill:#EF4460;}
	.st22{fill:#FFF0CA;}
	.st23{fill:#F98FA6;}
	.st24{fill:#EDB311;}
	.st25{fill:#FC8C48;}
	.st26{fill:#FCB9CB;}
	.st27{fill:#96BC71;}
	.st28{fill:#78A352;}
	.st29{fill:#B8DD90;}
	.st30{fill:#6FAFEF;}
	.st31{fill:#29589F;}
	.st32{fill:#414344;}
	.st33{fill:#9B6B4B;}
	.st34{fill:#73B1EF;}
</style>
<g id="Layer_1">
</g>
<g id="Layer_2">
</g>
<g id="Layer_3">
</g>
<g id="Layer_4">
</g>
<g id="Layer_5">
</g>
<g id="Layer_6">
</g>
<g id="Layer_7">
</g>
<g id="Layer_8">
</g>
<g id="Layer_9">
</g>
<g id="Layer_10">
</g>
<g id="Layer_11">
</g>
<g id="Layer_12">
</g>
<g id="Layer_13">
</g>
<g id="Layer_14">
</g>
<g id="Layer_15">
</g>
<g id="Layer_16">
</g>
<g id="Layer_17">
</g>
<g id="Layer_18">
</g>
<g id="Layer_19">
</g>
<g id="Layer_20">
</g>
<g id="Layer_21">
</g>
<g id="Layer_22">
</g>
<g id="Layer_23">
</g>
<g id="Layer_24">
</g>
<g id="Layer_25">
</g>
<g id="Layer_26">
</g>
<g id="Layer_27">
</g>
<g id="Layer_28">
</g>
<g id="Layer_29">
</g>
<g id="Layer_30">
</g>
<g id="Layer_31">
</g>
<g id="Layer_32">
</g>
<g id="Layer_33">
</g>
<g id="Layer_34">
</g>
<g id="Layer_35">
</g>
<g id="Layer_36">
</g>
<g id="Layer_37">
</g>
<g id="Layer_38">
</g>
<g id="Layer_39">
</g>
<g id="Layer_40">
</g>
<g id="Layer_41">
</g>
<g id="Layer_42">
</g>
<g id="Layer_43">
</g>
<g id="Layer_44">
</g>
<g id="Layer_45">
</g>
<g id="Layer_46">
</g>
<g id="Layer_47">
</g>
<g id="Layer_48">
</g>
<g id="Layer_49">
</g>
<g id="Layer_50">
</g>
<g id="Layer_51">
</g>
<g id="Layer_52">
</g>
<g id="Layer_53">
</g>
<g id="Layer_54">
</g>
<g id="Layer_55">
</g>
<g id="Layer_56">
</g>
<g id="Layer_57">
</g>
<g id="Layer_58">
</g>
<g id="Layer_59">
</g>
<g id="Layer_60">
</g>
<g id="Layer_61">
</g>
<g id="Layer_62">
</g>
<g id="Layer_63">
	<g>
		<g>
			<g>
				<path class="st3" d="M159.899,57.412c-2.433-2.552-6.39-2.787-9.164-0.61c-4.386,3.443-11.975,7.698-22.693,7.698
					c-10.745,0-18.374-4.276-22.778-7.723c-2.771-2.169-6.72-1.926-9.149,0.621l-0.013,0.013c-3.413,3.579-5.316,8.334-5.316,13.279
					v31.233c0,20.468,16.747,37.215,37.215,37.215h0c20.468,0,37.215-16.747,37.215-37.215V70.691
					C165.215,65.746,163.311,60.99,159.899,57.412z"/>
			</g>
		</g>
		<g>
			<g>
				<path class="st3" d="M167.603,73.561c-0.813,0-1.609,0.069-2.388,0.189c0,3.96,0,22.286,0,28.173
					c0,0.839-0.038,1.67-0.094,2.496c0.81,0.13,1.635,0.217,2.482,0.217c8.581,0,15.537-6.956,15.537-15.537
					S176.184,73.561,167.603,73.561z"/>
			</g>
		</g>
		<g>
			<g>
				<path class="st3" d="M90.785,101.923c0-3.856,0-20.507,0-28.173c-0.779-0.121-1.575-0.189-2.388-0.189
					c-8.581,0-15.538,6.957-15.538,15.538s6.956,15.537,15.538,15.537c0.847,0,1.672-0.086,2.482-0.217v-0.001
					C90.823,103.593,90.785,102.762,90.785,101.923z"/>
			</g>
		</g>
		<g>
			<g>
				<path class="st10" d="M165.076,41.816c-1.246,0-2.327-0.961-2.344-2.207c-0.285-20.737-23.966-24.633-47.549-20.56
					c-19.994,3.453-34.608,20.791-34.608,41.081v15.559c2.299-1.344,4.966-2.128,7.821-2.128c0.813,0,1.609,0.068,2.388,0.189
					v-3.059c0-4.945,1.904-9.7,5.316-13.279l0.013-0.013c2.429-2.547,6.377-2.79,9.149-0.621c4.404,3.447,12.034,7.723,22.778,7.723
					c10.719,0,18.308-4.255,22.693-7.698c2.774-2.177,6.73-1.943,9.164,0.61c3.413,3.579,5.316,8.334,5.316,13.279v3.059
					c0.779-0.121,1.575-0.189,2.388-0.189c2.89,0,5.586,0.803,7.903,2.178c0-4.342,0-8.802,0-12.775
					C175.507,44.395,168.801,41.816,165.076,41.816z"/>
			</g>
		</g>
		<g>
			<g>
				<path class="st5" d="M152.684,150.113c-1.665,4.941-6.048,14.137-17.048,22.387c0,0,11.111,0.694,17.13,8.449
					c1.562,2.013,4.665,1.733,5.712-0.591c3.089-6.853,7.741-17.746,8.893-23.608c0.253-1.288-0.333-2.592-1.473-3.243l-8.817-5.038
					C155.424,147.521,153.293,148.304,152.684,150.113z"/>
			</g>
		</g>
		<g>
			<g>
				<path class="st0" d="M135.636,172.5l-3,18l16.463-13.097C143.094,172.969,135.636,172.5,135.636,172.5z"/>
			</g>
		</g>
		<g>
			<g>
				<path class="st5" d="M103.316,150.113c1.665,4.941,6.048,14.137,17.048,22.387c0,0-11.111,0.694-17.13,8.449
					c-1.562,2.013-4.665,1.733-5.712-0.591c-3.089-6.853-7.741-17.746-8.893-23.608c-0.253-1.288,0.333-2.592,1.473-3.243
					l8.817-5.038C100.576,147.521,102.707,148.304,103.316,150.113z"/>
			</g>
		</g>
		<g>
			<g>
				<path class="st0" d="M120.364,172.5l3,18l-16.463-13.097C112.906,172.969,120.364,172.5,120.364,172.5z"/>
			</g>
		</g>
		<g>
			<g>
				<path class="st3" d="M120.364,172.5l3,18l0,0c2.357,5.048,3.903,10.416,4.636,15.91c0.733-5.494,2.279-10.862,4.636-15.91l0,0
					l3-18c9.558-7.169,14.117-15.048,16.241-20.233c-4.134-2.241-6.732-6.566-6.732-11.295v-6.057
					c-5.14,2.69-10.97,4.223-17.145,4.223h0c-6.174,0-12.005-1.532-17.145-4.223v6.057c0,4.729-2.599,9.054-6.732,11.295
					C106.247,157.452,110.805,165.331,120.364,172.5z"/>
			</g>
		</g>
		<g>
			<g>
				<path class="st5" d="M205.483,217.5H179.5v14h25.983c1.666,0,3.017-1.351,3.017-3.017v-7.966
					C208.5,218.851,207.149,217.5,205.483,217.5z"/>
			</g>
		</g>
		<g>
			<g>
				<path class="st5" d="M47.455,220.517v7.966c0,1.666,1.351,3.017,3.017,3.017h25.983v-14H50.472
					C48.806,217.5,47.455,218.851,47.455,220.517z"/>
			</g>
		</g>
		<g>
			<g>
				<path class="st3" d="M205.483,231.5H179.5v22h23.049c2.344,0,4.207-1.969,4.076-4.31l-1.027-17.702
					C205.56,231.49,205.523,231.5,205.483,231.5z"/>
			</g>
		</g>
		<g>
			<g>
				<path class="st3" d="M76.455,231.5H50.472c-0.024,0-0.047-0.007-0.071-0.007l-1.026,17.698c-0.13,2.34,1.732,4.31,4.076,4.31
					h23.004V231.5z"/>
			</g>
		</g>
		<g>
			<g>
				<path class="st31" d="M179.5,217.5h25.288l-2.277-39.261c-0.357-6.417-4.846-11.856-11.078-13.425l-24.511-6.169
					c-1.618,6.099-5.661,15.54-8.444,21.714c-1.047,2.323-4.15,2.604-5.712,0.591c-1.087-1.401-2.342-2.569-3.666-3.546
					L132.636,190.5c-3.383,7.245-5.136,15.144-5.136,23.14v39.86h52C179.5,241.275,179.5,227.934,179.5,217.5z"/>
			</g>
		</g>
		<g>
			<g>
				<path class="st31" d="M123.364,190.5l-16.463-13.097c-1.324,0.978-2.579,2.145-3.666,3.546
					c-1.562,2.013-4.665,1.733-5.712-0.591c-2.783-6.174-6.826-15.614-8.444-21.714l-24.511,6.169
					c-6.233,1.569-10.721,7.008-11.078,13.425L51.212,217.5h25.243c0,7.885,0,28.416,0,36H127.5v-39.86
					c0-2.425,0.181-4.838,0.5-7.23C127.267,200.916,125.721,195.548,123.364,190.5z"/>
			</g>
		</g>
		<g>
			<g>
				<path d="M127.957,208.618c-1.229,0-2.3-0.905-2.473-2.156c-0.709-5.109-2.145-10.038-4.268-14.65
					c-0.577-1.254-0.028-2.738,1.226-3.315c1.255-0.579,2.739-0.029,3.316,1.226c2.328,5.057,3.902,10.458,4.678,16.053
					c0.189,1.368-0.766,2.63-2.133,2.82C128.187,208.61,128.071,208.618,127.957,208.618z"/>
			</g>
		</g>
		<g>
			<g>
				<path class="st15" d="M119.063,78.169c-7.101-1.508-12.459-1.474-16.49-0.648c-9.712,1.989-14.024,13.768-7.363,21.046
					c2.681,2.93,6.924,4.833,13.631,3.218c12.102-2.914,14.111-12.921,14.233-18.632C123.124,80.747,121.429,78.671,119.063,78.169z
					"/>
			</g>
		</g>
		<g>
			<g>
				<path class="st15" d="M136.937,78.169c7.101-1.508,12.459-1.474,16.49-0.648c9.712,1.989,14.024,13.768,7.363,21.046
					c-2.681,2.93-6.924,4.833-13.631,3.218c-12.102-2.914-14.111-12.921-14.233-18.632
					C132.876,80.747,134.571,78.671,136.937,78.169z"/>
			</g>
		</g>
		<g>
			<g>
				<path d="M179.5,255.04c-1.381,0-2.5-1.119-2.5-2.5v-56.645c0-1.381,1.119-2.5,2.5-2.5s2.5,1.119,2.5,2.5v56.645
					C182,253.921,180.881,255.04,179.5,255.04z"/>
			</g>
		</g>
		<g>
			<g>
				<path d="M76.455,255.04c-1.381,0-2.5-1.119-2.5-2.5v-56.645c0-1.381,1.119-2.5,2.5-2.5s2.5,1.119,2.5,2.5v56.645
					C78.955,253.921,77.836,255.04,76.455,255.04z"/>
			</g>
		</g>
		<g>
			<g>
				<path d="M128,118.573c-4.777,0-9.262-1.95-11.999-5.216c-0.887-1.058-0.748-2.635,0.31-3.521
					c1.059-0.888,2.635-0.748,3.522,0.311c1.798,2.146,4.852,3.427,8.167,3.427s6.368-1.281,8.167-3.428
					c0.888-1.059,2.465-1.195,3.522-0.31c1.058,0.887,1.196,2.464,0.31,3.521C137.262,116.624,132.776,118.573,128,118.573z"/>
			</g>
		</g>
		<g>
			<g>
				<path d="M128,141.639c-21.899,0-39.715-17.816-39.715-39.716V70.69c0-5.613,2.133-10.942,6.007-15.004
					c3.326-3.488,8.7-3.861,12.511-0.878c4.192,3.28,11.279,7.191,21.238,7.191c9.938,0,16.986-3.896,21.149-7.165
					c3.818-2.993,9.199-2.627,12.517,0.852l0,0c3.874,4.062,6.008,9.39,6.008,15.004v31.232
					C167.715,123.822,149.898,141.639,128,141.639z M101.011,57.803c-1.134,0-2.254,0.446-3.088,1.321
					c-2.996,3.141-4.638,7.244-4.638,11.566v31.232c0,19.143,15.573,34.716,34.715,34.716s34.715-15.573,34.715-34.716V70.69
					c0-4.323-1.643-8.426-4.625-11.553c-0.001,0-0.001,0-0.001-0.001c-1.532-1.606-4.031-1.766-5.812-0.368
					C147.495,62.523,139.407,67,128.041,67c-11.383,0-19.508-4.488-24.319-8.254C102.914,58.114,101.958,57.803,101.011,57.803z"/>
			</g>
		</g>
		<g>
			<g>
				<path d="M167.604,107.136c-0.596,0-1.194-0.034-1.832-0.105c-1.372-0.151-2.361-1.388-2.209-2.76
					c0.151-1.373,1.38-2.362,2.76-2.209c0.453,0.05,0.872,0.074,1.281,0.074c7.188,0,13.037-5.849,13.037-13.037
					c0-7.189-5.849-13.038-13.037-13.038c-0.288,0-0.573,0.011-0.856,0.029c-1.363,0.09-2.568-0.949-2.66-2.328
					c-0.092-1.378,0.95-2.569,2.328-2.66c0.393-0.026,0.789-0.041,1.188-0.041c9.945,0,18.037,8.092,18.037,18.038
					C185.641,99.044,177.549,107.136,167.604,107.136z"/>
			</g>
		</g>
		<g>
			<g>
				<path d="M88.397,107.136c-9.946,0-18.038-8.092-18.038-18.037c0-10.579,9.167-19.103,19.965-17.932
					c1.373,0.15,2.363,1.385,2.213,2.758c-0.151,1.372-1.387,2.359-2.757,2.213c-0.466-0.051-0.932-0.077-1.383-0.077
					c-7.189,0-13.038,5.849-13.038,13.038c0,7.188,5.849,13.037,13.038,13.037c0.456,0,0.932-0.031,1.456-0.095
					c1.385-0.173,2.618,0.809,2.784,2.179c0.167,1.371-0.808,2.617-2.179,2.784C89.731,107.093,89.057,107.136,88.397,107.136z"/>
			</g>
		</g>
		<g>
			<g>
				<path d="M175.507,77.438c-1.381,0-2.5-1.119-2.5-2.5V62.963c0-11.851-2.891-18.647-7.931-18.647
					c-2.637,0-4.81-2.097-4.844-4.674c-0.076-5.59-2.07-10.049-5.927-13.251c-7.323-6.082-21.427-7.86-38.697-4.879
					c-18.851,3.255-32.533,19.496-32.533,38.617v14.684c0,1.381-1.119,2.5-2.5,2.5s-2.5-1.119-2.5-2.5V60.129
					c0-21.561,15.427-39.874,36.683-43.545c18.71-3.232,34.29-1.059,42.742,5.96c4.972,4.129,7.571,9.771,7.728,16.772
					c4.845,0.064,12.779,3.285,12.779,23.646v11.975C178.007,76.318,176.888,77.438,175.507,77.438z"/>
			</g>
		</g>
		<g>
			<g>
				<path d="M120.287,80.838c-0.426,0-0.858-0.108-1.253-0.338c-1.194-0.694-1.6-2.224-0.906-3.418
					c1.028-1.771,2.938-2.87,4.983-2.87h9.779c1.977,0,3.793,0.996,4.857,2.664c0.743,1.163,0.401,2.709-0.763,3.452
					c-1.162,0.741-2.71,0.4-3.452-0.763c-0.142-0.222-0.382-0.354-0.643-0.354h-9.779c-0.407,0-0.608,0.292-0.66,0.382
					C121.987,80.393,121.148,80.838,120.287,80.838z"/>
			</g>
		</g>
		<g>
			<g>
				<path d="M131.803,88.99h-7.605c-1.381,0-2.5-1.119-2.5-2.5s1.119-2.5,2.5-2.5h7.605c1.381,0,2.5,1.119,2.5,2.5
					S133.184,88.99,131.803,88.99z"/>
			</g>
		</g>
		<g>
			<g>
				<path d="M155.469,184.797c-1.818,0-3.529-0.835-4.678-2.314c-5.266-6.785-15.211-7.481-15.312-7.487
					c-1.045-0.065-1.938-0.775-2.239-1.779c-0.3-1.003,0.058-2.087,0.896-2.716c10.526-7.895,14.654-16.662,16.179-21.185
					c0-0.001,0-0.001,0-0.001c0.527-1.563,1.718-2.798,3.267-3.387c1.563-0.593,3.29-0.458,4.74,0.37l8.817,5.038
					c2.067,1.182,3.146,3.551,2.686,5.896c-1.165,5.927-5.574,16.406-9.067,24.154c-0.842,1.869-2.555,3.128-4.58,3.369
					C155.939,184.783,155.703,184.797,155.469,184.797z M141.355,171.026c4.098,1.134,9.589,3.499,13.385,8.39
					c0.305,0.392,0.695,0.391,0.846,0.374c0.284-0.034,0.49-0.188,0.612-0.459c4.786-10.614,7.883-18.805,8.72-23.063
					c0.048-0.241-0.055-0.473-0.26-0.59l-8.817-5.038c-0.202-0.114-0.391-0.072-0.483-0.038c-0.104,0.04-0.242,0.126-0.305,0.31l0,0
					C153.567,155.318,149.9,163.3,141.355,171.026z"/>
			</g>
		</g>
		<g>
			<g>
				<path d="M132.636,193c-0.437,0-0.875-0.114-1.268-0.346c-0.893-0.524-1.368-1.545-1.198-2.565l3-18
					c0.227-1.362,1.512-2.282,2.877-2.055c1.361,0.227,2.282,1.515,2.055,2.877l-1.93,11.581l10.962-8.721
					c1.081-0.86,2.655-0.68,3.513,0.399c0.86,1.081,0.681,2.653-0.399,3.513l-16.055,12.772
					C133.739,192.816,133.188,193,132.636,193z"/>
			</g>
		</g>
		<g>
			<g>
				<path d="M100.531,184.797c-0.234,0-0.47-0.014-0.708-0.042c-2.025-0.24-3.738-1.5-4.581-3.369
					c-3.494-7.751-7.904-18.233-9.067-24.153c-0.46-2.346,0.619-4.715,2.685-5.896l8.818-5.038c1.451-0.828,3.178-0.964,4.742-0.369
					c1.548,0.589,2.738,1.823,3.265,3.387l0,0c1.524,4.522,5.653,13.29,16.179,21.185c0.838,0.629,1.195,1.713,0.895,2.716
					c-0.3,1.004-1.194,1.714-2.239,1.779c-0.095,0.007-10.079,0.747-15.31,7.487C104.061,183.962,102.35,184.797,100.531,184.797z
					 M100.437,150.563c-0.083,0-0.179,0.019-0.278,0.076l-8.818,5.038c-0.205,0.117-0.307,0.349-0.26,0.591
					c0.836,4.254,3.933,12.444,8.72,23.063c0.122,0.271,0.328,0.425,0.612,0.459c0.154,0.018,0.542,0.018,0.846-0.374
					c3.795-4.891,9.287-7.256,13.384-8.39c-8.545-7.727-12.212-15.708-13.697-20.115l0,0c-0.062-0.184-0.199-0.27-0.304-0.31
					C100.595,150.584,100.523,150.563,100.437,150.563z"/>
			</g>
		</g>
		<g>
			<g>
				<path d="M123.364,193c-0.554,0-1.104-0.184-1.557-0.544l-15.74-12.522c-1.08-0.859-1.259-2.432-0.4-3.513
					c0.86-1.08,2.433-1.259,3.513-0.399l10.647,8.471l-1.93-11.581c-0.227-1.362,0.693-2.65,2.055-2.877
					c1.362-0.231,2.65,0.693,2.877,2.055l3,18c0.17,1.021-0.306,2.041-1.198,2.565C124.239,192.886,123.8,193,123.364,193z"/>
			</g>
		</g>
		<g>
			<g>
				<path d="M104.66,154.461c-0.846,0-1.671-0.429-2.141-1.205c-0.715-1.181-0.337-2.719,0.844-3.434
					c3.08-1.864,4.993-5.256,4.993-8.851V135.5c0-1.381,1.119-2.5,2.5-2.5s2.5,1.119,2.5,2.5v5.472
					c0,5.333-2.836,10.363-7.403,13.128C105.547,154.345,105.101,154.461,104.66,154.461z"/>
			</g>
		</g>
		<g>
			<g>
				<path d="M151.53,154.573c-0.428,0-0.86-0.109-1.256-0.34c-4.706-2.74-7.63-7.822-7.63-13.262v-5.139c0-1.381,1.119-2.5,2.5-2.5
					s2.5,1.119,2.5,2.5v5.139c0,3.667,1.972,7.093,5.146,8.941c1.193,0.694,1.598,2.225,0.902,3.418
					C153.229,154.129,152.391,154.573,151.53,154.573z"/>
			</g>
		</g>
		<g>
			<g>
				<path d="M205.483,234H179.5c-1.381,0-2.5-1.119-2.5-2.5v-14c0-1.381,1.119-2.5,2.5-2.5h25.983c3.042,0,5.517,2.475,5.517,5.517
					v7.966C211,231.524,208.525,234,205.483,234z M182,229h23.483c0.285,0,0.517-0.232,0.517-0.518v-7.966
					c0-0.285-0.231-0.517-0.517-0.517H182V229z"/>
			</g>
		</g>
		<g>
			<g>
				<path d="M76.455,234H50.472c-3.042,0-5.517-2.476-5.517-5.518v-7.966c0-3.042,2.475-5.517,5.517-5.517h25.983
					c1.381,0,2.5,1.119,2.5,2.5v14C78.955,232.881,77.836,234,76.455,234z M50.472,220c-0.285,0-0.517,0.231-0.517,0.517v7.966
					c0,0.285,0.232,0.518,0.517,0.518h23.483v-9H50.472z"/>
			</g>
		</g>
		<g>
			<g>
				<path d="M202.549,256H179.5c-1.381,0-2.5-1.119-2.5-2.5s1.119-2.5,2.5-2.5h23.049c0.439,0,0.849-0.176,1.15-0.495
					s0.454-0.736,0.43-1.175l-1.006-17.341c-0.08-1.378,0.973-2.561,2.352-2.641c1.367-0.082,2.561,0.974,2.641,2.352l1.006,17.346
					c0.101,1.804-0.552,3.586-1.789,4.895C206.094,255.249,204.351,256,202.549,256z"/>
			</g>
		</g>
		<g>
			<g>
				<path d="M76.455,256H53.451c-1.802,0-3.545-0.751-4.783-2.06s-1.89-3.091-1.79-4.889l0.98-16.898
					c0.08-1.379,1.264-2.424,2.641-2.352c1.378,0.08,2.431,1.263,2.351,2.641l-0.98,16.893c-0.024,0.434,0.129,0.851,0.431,1.17
					c0.302,0.319,0.71,0.495,1.15,0.495h23.004c1.381,0,2.5,1.119,2.5,2.5S77.836,256,76.455,256z"/>
			</g>
		</g>
		<g>
			<g>
				<path d="M204.785,220c-1.314,0-2.417-1.026-2.494-2.355l-2.276-39.262c-0.298-5.359-3.992-9.835-9.192-11.144l-24.155-6.08
					c-1.339-0.338-2.151-1.696-1.814-3.035c0.338-1.339,1.696-2.147,3.035-1.814l24.155,6.08c7.333,1.846,12.543,8.159,12.964,15.71
					l2.276,39.256c0.08,1.378-0.973,2.561-2.352,2.641C204.883,219.999,204.834,220,204.785,220z"/>
			</g>
		</g>
		<g>
			<g>
				<path d="M179.5,256h-52c-1.381,0-2.5-1.119-2.5-2.5v-39.86c0-8.306,1.857-16.673,5.37-24.197
					c0.584-1.25,2.072-1.791,3.323-1.208c1.251,0.585,1.792,2.072,1.208,3.323c-3.207,6.867-4.901,14.503-4.901,22.082V251h49.5
					c1.381,0,2.5,1.119,2.5,2.5S180.881,256,179.5,256z"/>
			</g>
		</g>
		<g>
			<g>
				<path d="M127.5,256H76.455c-1.381,0-2.5-1.119-2.5-2.5s1.119-2.5,2.5-2.5H127.5c1.381,0,2.5,1.119,2.5,2.5
					S128.881,256,127.5,256z"/>
			</g>
		</g>
		<g>
			<g>
				<path d="M51.215,220c-0.049,0-0.098-0.001-0.147-0.004c-1.378-0.08-2.431-1.263-2.351-2.641l2.277-39.261
					c0.42-7.546,5.63-13.859,12.964-15.705l24.002-6.042c1.338-0.332,2.697,0.476,3.035,1.814c0.337,1.339-0.475,2.697-1.814,3.035
					l-24.003,6.042c-5.2,1.308-8.895,5.785-9.193,11.139l-2.277,39.267C53.631,218.974,52.529,220,51.215,220z"/>
			</g>
		</g>
		<g>
			<g>
				<path class="st7" d="M203.822,28.33c-4.498-0.838-8.043-4.31-8.898-8.716c-0.043-0.221-0.352-0.221-0.395,0
					c-0.855,4.406-4.4,7.879-8.898,8.716c-0.226,0.042-0.226,0.345,0,0.387c4.498,0.838,8.043,4.31,8.898,8.717
					c0.043,0.221,0.352,0.221,0.395,0c0.855-4.406,4.4-7.879,8.898-8.717C204.047,28.675,204.047,28.373,203.822,28.33z"/>
			</g>
		</g>
		<g>
			<g>
				<path class="st9" d="M202.515,112.101c-2.862-0.533-5.118-2.743-5.663-5.547c-0.027-0.141-0.224-0.141-0.251,0
					c-0.544,2.804-2.8,5.014-5.663,5.547c-0.144,0.027-0.144,0.219,0,0.246c2.862,0.533,5.118,2.743,5.663,5.547
					c0.027,0.141,0.224,0.141,0.251,0c0.544-2.804,2.8-5.014,5.663-5.547C202.658,112.32,202.658,112.128,202.515,112.101z"/>
			</g>
		</g>
		<g>
			<g>
				<path class="st6" d="M63.246,120.75h2.33v-2.33c0-1.744,1.413-3.157,3.157-3.157c1.744,0,3.157,1.413,3.157,3.157v2.33h2.329
					c1.744,0,3.157,1.413,3.157,3.157s-1.413,3.157-3.157,3.157h-2.329v2.33c0,1.744-1.413,3.157-3.157,3.157
					c-1.744,0-3.157-1.413-3.157-3.157v-2.33h-2.33c-1.744,0-3.157-1.413-3.157-3.157S61.502,120.75,63.246,120.75z"/>
			</g>
		</g>
		<g>
			<g>
				<circle class="st7" cx="53.755" cy="152.825" r="3.377"/>
			</g>
		</g>
		<g>
			<g>
				<circle class="st8" cx="177.755" cy="3.377" r="3.377"/>
			</g>
		</g>
		<g>
			<g>
				<path d="M104.248,104.871c-5.363,0-8.808-2.35-10.883-4.617c-3.631-3.968-4.793-9.433-3.11-14.618
					c1.747-5.382,6.275-9.43,11.816-10.564c4.878-1,10.77-0.778,17.511,0.652l0,0c3.547,0.753,6.067,3.899,5.991,7.483
					c-0.234,10.937-6.119,18.594-16.147,21.009C107.529,104.673,105.807,104.871,104.248,104.871z M108.583,79.454
					c-1.991,0-3.831,0.172-5.509,0.516c-3.838,0.786-6.853,3.481-8.063,7.21c-1.137,3.503-0.393,7.038,2.042,9.699
					c2.61,2.854,6.273,3.662,11.201,2.476c9.946-2.395,12.188-10.161,12.319-16.255c0.025-1.185-0.828-2.23-2.03-2.485l0,0
					C114.903,79.842,111.573,79.454,108.583,79.454z"/>
			</g>
		</g>
		<g>
			<g>
				<path d="M151.752,104.871c-1.56,0-3.28-0.198-5.177-0.655c-10.028-2.415-15.914-10.072-16.147-21.009
					c-0.076-3.584,2.443-6.731,5.991-7.483c6.738-1.43,12.63-1.651,17.51-0.652c5.542,1.135,10.069,5.183,11.816,10.564
					c1.684,5.187,0.521,10.651-3.111,14.618C160.56,102.521,157.114,104.871,151.752,104.871z M147.417,79.454
					c-2.99,0-6.32,0.388-9.96,1.16h-0.001c-1.201,0.255-2.055,1.301-2.03,2.486c0.131,6.093,2.374,13.859,12.319,16.254
					c4.928,1.188,8.591,0.378,11.2-2.476c2.437-2.661,3.181-6.196,2.044-9.699c-1.21-3.729-4.225-6.424-8.063-7.21
					C151.247,79.626,149.407,79.454,147.417,79.454z M136.937,78.169h0.01H136.937z"/>
			</g>
		</g>
	</g>
</g>
<g id="Layer_64">
</g>
<g id="Layer_65">
</g>
<g id="Layer_66">
</g>
<g id="Layer_67">
</g>
<g id="Layer_68">
</g>
<g id="Layer_69">
</g>
<g id="Layer_70">
</g>
<g id="Layer_71">
</g>
<g id="Layer_72">
</g>
<g id="Layer_73">
</g>
<g id="Layer_74">
</g>
<g id="Layer_75">
</g>
<g id="Layer_76">
</g>
<g id="Layer_77">
</g>
<g id="Layer_78">
</g>
<g id="Layer_79">
</g>
<g id="Layer_80">
</g>
</svg>
