<?xml version="1.0" encoding="utf-8"?>
<!-- Generator: Adobe Illustrator 24.0.0, SVG Export Plug-In . SVG Version: 6.00 Build 0)  -->
<svg version="1.1" xmlns="http://www.w3.org/2000/svg" xmlns:xlink="http://www.w3.org/1999/xlink" x="0px" y="0px"
	 viewBox="0 0 256 256" style="enable-background:new 0 0 256 256;" xml:space="preserve">
<style type="text/css">
	.st0{fill:#3A70BF;}
	.st1{fill:#EDF4FC;}
	.st2{fill:#C7D7E5;}
	.st3{fill:#F9D0B4;}
	.st4{fill:#5B5D60;}
	.st5{fill:#5290DB;}
	.st6{fill:#70D6F9;}
	.st7{fill:#F5C84C;}
	.st8{fill:#FC657E;}
	.st9{fill:#87D147;}
	.st10{fill:#FCDD86;}
	.st11{fill:#9BE5F9;}
	.st12{fill:#B2E26D;}
	.st13{fill:#754E34;}
	.st14{fill:#FCA265;}
	.st15{fill:#818182;}
	.st16{fill:#F94EED;}
	.st17{fill:#FFC197;}
	.st18{fill:#3CAADC;}
	.st19{fill:#DAE6F1;}
	.st20{fill:#57AF12;}
	.st21{fill:#EF4460;}
	.st22{fill:#FFF0CA;}
	.st23{fill:#F98FA6;}
	.st24{fill:#EDB311;}
	.st25{fill:#FC8C48;}
	.st26{fill:#FCB9CB;}
	.st27{fill:#96BC71;}
	.st28{fill:#78A352;}
	.st29{fill:#B8DD90;}
	.st30{fill:#6FAFEF;}
	.st31{fill:#29589F;}
	.st32{fill:#414344;}
	.st33{fill:#9B6B4B;}
	.st34{fill:#73B1EF;}
</style>
<g id="Layer_1">
</g>
<g id="Layer_2">
</g>
<g id="Layer_3">
</g>
<g id="Layer_4">
</g>
<g id="Layer_5">
</g>
<g id="Layer_6">
</g>
<g id="Layer_7">
</g>
<g id="Layer_8">
</g>
<g id="Layer_9">
</g>
<g id="Layer_10">
</g>
<g id="Layer_11">
</g>
<g id="Layer_12">
</g>
<g id="Layer_13">
</g>
<g id="Layer_14">
</g>
<g id="Layer_15">
</g>
<g id="Layer_16">
</g>
<g id="Layer_17">
</g>
<g id="Layer_18">
</g>
<g id="Layer_19">
</g>
<g id="Layer_20">
</g>
<g id="Layer_21">
</g>
<g id="Layer_22">
</g>
<g id="Layer_23">
</g>
<g id="Layer_24">
</g>
<g id="Layer_25">
</g>
<g id="Layer_26">
</g>
<g id="Layer_27">
</g>
<g id="Layer_28">
</g>
<g id="Layer_29">
</g>
<g id="Layer_30">
</g>
<g id="Layer_31">
</g>
<g id="Layer_32">
</g>
<g id="Layer_33">
</g>
<g id="Layer_34">
</g>
<g id="Layer_35">
</g>
<g id="Layer_36">
</g>
<g id="Layer_37">
</g>
<g id="Layer_38">
</g>
<g id="Layer_39">
</g>
<g id="Layer_40">
</g>
<g id="Layer_41">
</g>
<g id="Layer_42">
</g>
<g id="Layer_43">
</g>
<g id="Layer_44">
</g>
<g id="Layer_45">
</g>
<g id="Layer_46">
</g>
<g id="Layer_47">
</g>
<g id="Layer_48">
</g>
<g id="Layer_49">
</g>
<g id="Layer_50">
</g>
<g id="Layer_51">
</g>
<g id="Layer_52">
</g>
<g id="Layer_53">
</g>
<g id="Layer_54">
</g>
<g id="Layer_55">
</g>
<g id="Layer_56">
</g>
<g id="Layer_57">
</g>
<g id="Layer_58">
</g>
<g id="Layer_59">
</g>
<g id="Layer_60">
</g>
<g id="Layer_61">
</g>
<g id="Layer_62">
</g>
<g id="Layer_63">
</g>
<g id="Layer_64">
	<g>
		<g>
			<g>
				<path class="st3" d="M175,95.5c0.416,0,0.822,0.043,1.215,0.123c2.028-2.494,3.247-5.672,3.247-9.137
					c0-8.009-6.492-14.501-14.501-14.501c-0.759,0-1.502,0.064-2.229,0.177c0,3.696,0,20.799,0,26.293l0,0v0
					c0,0.783-0.036,1.558-0.088,2.329c0.756,0.122,1.526,0.202,2.316,0.202c1.443,0,2.833-0.218,4.148-0.61
					C169.635,97.601,172.071,95.5,175,95.5z"/>
			</g>
		</g>
		<g>
			<g>
				<path class="st3" d="M144.613,60.642c-5.29,6.174-24.047,24.906-51.344,17.13v20.684c0,19.102,15.629,34.732,34.732,34.732l0,0
					c19.102,0,34.732-15.629,34.732-34.732v-28.06c0-1.276-0.893-2.358-2.136-2.646c-3.515-0.814-7.782-2.85-12.673-7.294
					C146.955,59.577,145.463,59.649,144.613,60.642z"/>
			</g>
		</g>
		<g>
			<g>
				<path class="st3" d="M93.268,77.771c-2.385-0.679-4.834-1.559-7.346-2.668c-1.62-0.715-3.511-0.386-4.803,0.825
					c-2.817,2.642-4.581,6.39-4.581,10.557c0,3.465,1.219,6.643,3.247,9.137C80.178,95.543,80.584,95.5,81,95.5
					c2.929,0,5.365,2.101,5.891,4.877c1.315,0.392,2.706,0.61,4.148,0.61c0.79,0,1.56-0.081,2.316-0.202
					c-0.052-0.771-0.088-1.546-0.088-2.329V77.771z"/>
			</g>
		</g>
		<g>
			<g>
				<g>
					<path class="st10" d="M81.12,75.929c1.291-1.211,3.183-1.54,4.803-0.825c2.512,1.109,4.961,1.988,7.346,2.668
						c27.297,7.776,46.055-10.956,51.344-17.13c0.85-0.992,2.342-1.065,3.309-0.186c4.892,4.445,9.159,6.48,12.673,7.294
						c1.243,0.288,2.136,1.37,2.136,2.646v1.766c0.727-0.113,1.47-0.177,2.229-0.177c4.012,0,7.643,1.63,10.268,4.263v-8.494
						c0-25.976-21.253-47.229-47.229-47.229c-25.976,0-47.229,21.253-47.229,47.229v8.535C80.889,76.171,80.998,76.043,81.12,75.929
						z"/>
				</g>
			</g>
		</g>
		<g>
			<g>
				<path class="st3" d="M200.078,173.902c-0.347-6.223-4.699-11.497-10.743-13.019l-24.833-6.269
					c-2.075-0.523-4.089-1.263-6.009-2.209l-8.587-4.234c-3.298-1.626-5.386-4.984-5.386-8.66v-10.533
					c-4.92,2.682-10.551,4.208-16.52,4.208c-5.97,0-11.6-1.526-16.52-4.208v10.533c0,3.677-2.088,7.034-5.386,8.66l-8.587,4.234
					c-1.919,0.946-3.933,1.687-6.009,2.209l-24.833,6.269c-6.044,1.521-10.396,6.796-10.743,13.019l-2.744,75.418
					c-0.127,2.269,1.68,4.179,3.953,4.179h21.99c1.478,0,2.677-1.198,2.677-2.677v-47.143l3.883,12.439
					c2.539,8.133,3.83,16.604,3.83,25.124v9.58c0,1.478,1.198,2.677,2.677,2.677c10.261,0,61.413,0,71.626,0
					c1.478,0,2.677-1.198,2.677-2.677v-9.58c0-8.52,1.291-16.991,3.83-25.124l3.883-12.439v47.143c0,1.478,1.198,2.677,2.677,2.677
					h21.99c2.273,0,4.079-1.91,3.953-4.179L200.078,173.902z"/>
			</g>
		</g>
		<g>
			<g>
				<path class="st10" d="M170.675,121.5c2.141-5.352,3.128-10.05,3.437-14.073c-2.891-0.43-5.112-2.916-5.112-5.927
					c0-0.388,0.04-0.767,0.11-1.135c-1.315,0.397-2.705,0.621-4.15,0.621c-0.79,0-1.56-0.081-2.316-0.202
					c-0.816,12.152-7.945,22.646-18.124,28.194v10.533c0,3.677,2.088,7.034,5.386,8.66l8.587,4.234
					c1.919,0.946,3.933,1.687,6.009,2.209l17.511,4.42C183.561,142.809,166.02,133.137,170.675,121.5z"/>
			</g>
		</g>
		<g>
			<g>
				<path class="st10" d="M93.356,100.785c-0.756,0.122-1.526,0.202-2.316,0.202c-1.445,0-2.835-0.225-4.15-0.621
					c0.07,0.368,0.11,0.746,0.11,1.135c0,3.011-2.22,5.497-5.111,5.927c0.309,4.023,1.296,8.721,3.437,14.073
					c4.655,11.637-12.887,21.309-11.338,37.536l17.511-4.42c2.075-0.522,4.089-1.263,6.009-2.209l8.587-4.234
					c3.298-1.626,5.386-4.984,5.386-8.66v-10.533C101.301,123.431,94.171,112.937,93.356,100.785z"/>
			</g>
		</g>
		<g>
			<g>
				<circle class="st19" cx="175" cy="101.5" r="6"/>
			</g>
		</g>
		<g>
			<g>
				<circle class="st19" cx="81" cy="101.5" r="6"/>
			</g>
		</g>
		<g>
			<g>
				<path class="st26" d="M89.51,241.243v9.58c0,1.479,1.198,2.677,2.677,2.677c10.261,0,61.413,0,71.626,0
					c1.478,0,2.677-1.198,2.677-2.677v-9.58c0-8.52,1.291-16.991,3.83-25.124l3.883-12.439c0,0-22.078-33.004-43.228-11.573
					c-1.63,1.651-4.319,1.651-5.949,0c-21.15-21.431-43.228,11.573-43.228,11.573l3.883,12.439
					C88.219,224.252,89.51,232.723,89.51,241.243z"/>
			</g>
		</g>
		<g>
			<g>
				<path class="st23" d="M89.361,236.5c0.089,1.579,0.149,3.16,0.149,4.743v9.58c0,1.479,1.198,2.677,2.677,2.677
					c10.261,0,61.413,0,71.626,0c1.478,0,2.677-1.198,2.677-2.677v-9.58c0-1.584,0.06-3.165,0.149-4.743H89.361z"/>
			</g>
		</g>
		<g>
			<g>
				<path d="M164.961,103.486c-0.629,0-1.267-0.041-1.951-0.125c-1.371-0.169-2.345-1.416-2.177-2.786
					c0.169-1.371,1.42-2.34,2.786-2.177c0.48,0.06,0.919,0.088,1.342,0.088c1.01,0,2.025-0.131,3.017-0.389
					c1.338-0.347,2.701,0.456,3.049,1.791c0.347,1.337-0.455,2.701-1.791,3.049C167.833,103.302,166.395,103.486,164.961,103.486z"
					/>
			</g>
		</g>
		<g>
			<g>
				<path d="M176.511,97.744c-0.527,0-1.059-0.166-1.511-0.509c-1.099-0.836-1.313-2.404-0.479-3.504
					c1.596-2.1,2.439-4.605,2.439-7.245c0-7.036-6.074-12.709-13.278-11.93c-1.378,0.16-2.608-0.836-2.76-2.209
					c-0.152-1.372,0.837-2.608,2.209-2.76c0.611-0.068,1.227-0.103,1.829-0.103c9.374,0,17,7.627,17,17.001
					c0,3.741-1.195,7.292-3.457,10.271C178.012,97.403,177.266,97.744,176.511,97.744z"/>
			</g>
		</g>
		<g>
			<g>
				<path d="M128,135.687c-20.529,0-37.231-16.702-37.231-37.231V77.771c0-0.784,0.368-1.522,0.994-1.995s1.44-0.625,2.19-0.409
					c25.922,7.385,43.876-10.649,48.761-16.353l0,0c0.85-0.991,2.035-1.581,3.337-1.662c1.278-0.079,2.589,0.377,3.554,1.255
					c3.95,3.589,7.839,5.846,11.556,6.707c2.397,0.556,4.071,2.646,4.071,5.081v28.06C165.231,118.984,148.529,135.687,128,135.687z
					 M95.769,80.979v17.477c0,17.772,14.459,32.231,32.231,32.231s32.231-14.459,32.231-32.231v-28.06c0-0.113-0.101-0.187-0.2-0.21
					c-4.515-1.046-9.109-3.656-13.657-7.759C141.017,68.626,122.58,86.861,95.769,80.979z"/>
			</g>
		</g>
		<g>
			<g>
				<path d="M91.039,103.486c-1.451,0-2.904-0.188-4.318-0.561c-1.336-0.352-2.133-1.719-1.782-3.054
					c0.352-1.336,1.723-2.13,3.054-1.782c1,0.263,2.024,0.396,3.047,0.396c0.423,0,0.861-0.028,1.34-0.088
					c1.372-0.165,2.618,0.806,2.787,2.176s-0.806,2.618-2.176,2.787C92.307,103.445,91.668,103.486,91.039,103.486z"/>
			</g>
		</g>
		<g>
			<g>
				<path d="M79.445,97.686c-0.759,0-1.509-0.344-2-0.998c-2.229-2.964-3.406-6.491-3.406-10.201c0-4.668,1.957-9.181,5.37-12.381
					c2.03-1.904,4.984-2.409,7.522-1.289c2.328,1.028,4.69,1.887,7.021,2.551c1.328,0.378,2.098,1.762,1.72,3.089
					c-0.379,1.328-1.763,2.101-3.089,1.72c-2.554-0.728-5.135-1.665-7.672-2.785c-0.698-0.311-1.518-0.168-2.083,0.362
					c-2.444,2.292-3.79,5.394-3.79,8.733c0,2.617,0.831,5.106,2.402,7.197c0.83,1.104,0.607,2.671-0.496,3.5
					C80.495,97.522,79.968,97.686,79.445,97.686z"/>
			</g>
		</g>
		<g>
			<g>
				<g>
					<path d="M80.771,78.031c-1.381,0-2.5-1.119-2.5-2.5v-7.776c0-27.42,22.309-49.729,49.729-49.729s49.729,22.309,49.729,49.729
						v7.703c0,1.381-1.119,2.5-2.5,2.5s-2.5-1.119-2.5-2.5v-7.703c0-24.663-20.065-44.729-44.729-44.729
						S83.271,43.092,83.271,67.755v7.776C83.271,76.912,82.152,78.031,80.771,78.031z"/>
				</g>
			</g>
		</g>
		<g>
			<g>
				<path d="M198.869,256H176.88c-2.854,0-5.177-2.322-5.177-5.177v-30.476c-1.802,6.815-2.713,13.828-2.713,20.896v9.58
					c0,2.854-2.322,5.177-5.177,5.177H92.187c-2.854,0-5.177-2.322-5.177-5.177v-9.58c0-7.067-0.911-14.08-2.713-20.896v30.476
					c0,2.854-2.322,5.177-5.177,5.177H57.131c-1.768,0-3.479-0.736-4.693-2.021c-1.215-1.284-1.854-3.033-1.756-4.798l2.742-75.369
					c0.413-7.404,5.488-13.554,12.631-15.353l24.832-6.268c1.902-0.479,3.758-1.161,5.516-2.027l8.586-4.234
					c2.462-1.214,3.991-3.673,3.991-6.418v-9.811c0-1.381,1.119-2.5,2.5-2.5s2.5,1.119,2.5,2.5v9.811
					c0,4.663-2.598,8.841-6.78,10.902l-8.586,4.234c-2.074,1.022-4.262,1.827-6.504,2.392l-24.832,6.268
					c-5.012,1.262-8.571,5.575-8.859,10.734l-2.742,75.369c-0.032,0.595,0.233,0.962,0.395,1.132
					c0.161,0.171,0.514,0.457,1.061,0.457H79.12c0.098,0,0.177-0.079,0.177-0.177v-47.143c0-1.235,0.902-2.285,2.123-2.472
					c1.222-0.19,2.396,0.547,2.764,1.727l3.883,12.438c2.616,8.382,3.943,17.086,3.943,25.869v9.58c0,0.098,0.079,0.177,0.177,0.177
					h71.627c0.098,0,0.177-0.079,0.177-0.177v-9.58c0-8.783,1.327-17.487,3.943-25.869l3.883-12.438
					c0.368-1.179,1.543-1.913,2.764-1.727s2.123,1.236,2.123,2.472v47.143c0,0.098,0.079,0.177,0.177,0.177h21.989
					c0.547,0,0.899-0.286,1.061-0.457c0.161-0.17,0.427-0.537,0.396-1.083l-2.746-75.467c-0.286-5.11-3.846-9.424-8.855-10.685
					l-24.836-6.27c-2.24-0.563-4.428-1.368-6.502-2.391l-8.586-4.234c-4.183-2.062-6.78-6.239-6.78-10.902v-9.811
					c0-1.381,1.119-2.5,2.5-2.5s2.5,1.119,2.5,2.5v9.811c0,2.745,1.529,5.204,3.991,6.418l8.586,4.234
					c1.758,0.866,3.613,1.548,5.514,2.026l24.836,6.27c7.141,1.798,12.216,7.947,12.627,15.303l2.746,75.467
					c0.097,1.716-0.543,3.465-1.758,4.749C202.348,255.264,200.637,256,198.869,256z"/>
			</g>
		</g>
		<g>
			<g>
				<path d="M182.078,160.688c-0.047,0-0.094-0.001-0.142-0.004c-1.378-0.077-2.434-1.257-2.356-2.636
					c0.385-6.889-3.098-12.58-6.465-18.084c-3.721-6.083-7.569-12.374-4.762-19.394c1.786-4.464,2.874-8.825,3.235-12.961
					c0.119-1.376,1.349-2.401,2.707-2.273c1.376,0.119,2.394,1.332,2.273,2.707c-0.402,4.625-1.605,9.465-3.573,14.385
					c-1.786,4.465,0.503,8.581,4.385,14.927c3.592,5.871,7.663,12.525,7.191,20.973
					C184.498,159.659,183.396,160.688,182.078,160.688z"/>
			</g>
		</g>
		<g>
			<g>
				<path d="M73.941,161.018c-1.3,0-2.397-1.006-2.491-2.322c-0.613-8.619,3.521-15.377,7.169-21.34
					c3.883-6.346,6.171-10.462,4.385-14.927c-1.947-4.866-3.145-9.654-3.56-14.231c-0.124-1.375,0.89-2.591,2.265-2.716
					c1.376-0.123,2.591,0.89,2.716,2.265c0.371,4.094,1.455,8.409,3.222,12.825c2.808,7.02-1.04,13.311-4.762,19.394
					c-3.415,5.582-6.946,11.354-6.446,18.375c0.098,1.378-0.939,2.573-2.316,2.672C74.062,161.016,74.001,161.018,73.941,161.018z"
					/>
			</g>
		</g>
		<g>
			<g>
				<path d="M128,117.757c-4.775,0-9.261-1.949-11.999-5.214c-0.887-1.059-0.748-2.635,0.31-3.522
					c1.058-0.887,2.634-0.75,3.522,0.31c1.799,2.146,4.852,3.427,8.167,3.427s6.368-1.281,8.167-3.427
					c0.889-1.059,2.465-1.195,3.522-0.31c1.058,0.888,1.196,2.464,0.31,3.522C137.261,115.808,132.775,117.757,128,117.757z"/>
			</g>
		</g>
		<g>
			<g>
				<circle cx="143.111" cy="90.5" r="4.5"/>
			</g>
		</g>
		<g>
			<g>
				<circle cx="112.889" cy="90.5" r="4.5"/>
			</g>
		</g>
		<g>
			<g>
				<path d="M175,110c-4.687,0-8.5-3.813-8.5-8.5s3.813-8.5,8.5-8.5s8.5,3.813,8.5,8.5S179.687,110,175,110z M175,98
					c-1.93,0-3.5,1.57-3.5,3.5s1.57,3.5,3.5,3.5s3.5-1.57,3.5-3.5S176.93,98,175,98z"/>
			</g>
		</g>
		<g>
			<g>
				<path d="M81,110c-4.687,0-8.5-3.813-8.5-8.5S76.313,93,81,93s8.5,3.813,8.5,8.5S85.687,110,81,110z M81,98
					c-1.93,0-3.5,1.57-3.5,3.5s1.57,3.5,3.5,3.5s3.5-1.57,3.5-3.5S82.93,98,81,98z"/>
			</g>
		</g>
		<g>
			<g>
				<path d="M81.795,206.181c-0.479,0-0.961-0.137-1.388-0.422c-1.148-0.768-1.456-2.32-0.688-3.468
					c0.501-0.749,12.445-18.356,27.895-19.822c6.928-0.661,13.382,1.995,19.191,7.883c0.629,0.637,1.762,0.637,2.391,0
					c5.811-5.889,12.269-8.542,19.191-7.883c15.449,1.466,27.394,19.073,27.895,19.822c0.768,1.146,0.459,2.697-0.688,3.466
					c-1.146,0.767-2.699,0.46-3.468-0.685c-0.109-0.164-11.144-16.396-24.224-17.627c-5.354-0.51-10.449,1.655-15.148,6.418
					c-1.262,1.278-2.95,1.982-4.754,1.982s-3.492-0.704-4.754-1.982c-4.704-4.767-9.813-6.926-15.16-6.417
					c-13.112,1.244-24.102,17.461-24.211,17.624C83.393,205.791,82.601,206.181,81.795,206.181z"/>
			</g>
		</g>
		<g>
			<g>
				<path d="M128,175.813c-13.032,0-24.295-10.704-26.78-25.453c-0.229-1.361,0.688-2.65,2.05-2.88
					c1.366-0.233,2.651,0.688,2.88,2.05c2.079,12.332,11.269,21.283,21.851,21.283c10.6,0,19.792-8.969,21.856-21.326
					c0.228-1.362,1.511-2.283,2.878-2.054c1.361,0.228,2.281,1.516,2.054,2.878C152.319,165.088,141.054,175.813,128,175.813z"/>
			</g>
		</g>
		<g>
			<g>
				<path d="M165.75,239H90.22c-1.381,0-2.5-1.119-2.5-2.5s1.119-2.5,2.5-2.5h75.53c1.381,0,2.5,1.119,2.5,2.5
					S167.131,239,165.75,239z"/>
			</g>
		</g>
		<g>
			<g>
				<path class="st7" d="M63.822,125.33c-4.498-0.838-8.043-4.31-8.898-8.716c-0.043-0.221-0.352-0.221-0.395,0
					c-0.855,4.406-4.4,7.879-8.898,8.716c-0.226,0.042-0.226,0.345,0,0.387c4.498,0.838,8.043,4.31,8.898,8.717
					c0.043,0.221,0.352,0.221,0.395,0c0.855-4.406,4.4-7.879,8.898-8.717C64.047,125.675,64.047,125.373,63.822,125.33z"/>
			</g>
		</g>
		<g>
			<g>
				<path class="st8" d="M201.515,112.101c-2.862-0.533-5.118-2.743-5.663-5.547c-0.027-0.141-0.224-0.141-0.251,0
					c-0.544,2.804-2.8,5.014-5.663,5.547c-0.144,0.027-0.144,0.219,0,0.246c2.862,0.533,5.118,2.743,5.663,5.547
					c0.027,0.141,0.224,0.141,0.251,0c0.544-2.804,2.8-5.014,5.663-5.547C201.658,112.32,201.658,112.128,201.515,112.101z"/>
			</g>
		</g>
		<g>
			<g>
				<path class="st6" d="M184.246,25.75h2.33v-2.33c0-1.744,1.413-3.157,3.157-3.157s3.157,1.413,3.157,3.157v2.33h2.329
					c1.744,0,3.157,1.413,3.157,3.157s-1.413,3.157-3.157,3.157h-2.329v2.33c0,1.744-1.413,3.157-3.157,3.157
					s-3.157-1.413-3.157-3.157v-2.33h-2.33c-1.744,0-3.157-1.413-3.157-3.157S182.502,25.75,184.246,25.75z"/>
			</g>
		</g>
		<g>
			<g>
				<circle class="st9" cx="42.755" cy="154.825" r="3.377"/>
			</g>
		</g>
		<g>
			<g>
				<circle class="st7" cx="176.755" cy="3.377" r="3.377"/>
			</g>
		</g>
	</g>
</g>
<g id="Layer_65">
</g>
<g id="Layer_66">
</g>
<g id="Layer_67">
</g>
<g id="Layer_68">
</g>
<g id="Layer_69">
</g>
<g id="Layer_70">
</g>
<g id="Layer_71">
</g>
<g id="Layer_72">
</g>
<g id="Layer_73">
</g>
<g id="Layer_74">
</g>
<g id="Layer_75">
</g>
<g id="Layer_76">
</g>
<g id="Layer_77">
</g>
<g id="Layer_78">
</g>
<g id="Layer_79">
</g>
<g id="Layer_80">
</g>
</svg>
