<?xml version="1.0" encoding="utf-8"?>
<!-- Generator: Adobe Illustrator 24.0.0, SVG Export Plug-In . SVG Version: 6.00 Build 0)  -->
<svg version="1.1" xmlns="http://www.w3.org/2000/svg" xmlns:xlink="http://www.w3.org/1999/xlink" x="0px" y="0px"
	 viewBox="0 0 256 256" style="enable-background:new 0 0 256 256;" xml:space="preserve">
<style type="text/css">
	.st0{fill:#3A70BF;}
	.st1{fill:#EDF4FC;}
	.st2{fill:#C7D7E5;}
	.st3{fill:#F9D0B4;}
	.st4{fill:#5B5D60;}
	.st5{fill:#5290DB;}
	.st6{fill:#70D6F9;}
	.st7{fill:#F5C84C;}
	.st8{fill:#FC657E;}
	.st9{fill:#87D147;}
	.st10{fill:#FCDD86;}
	.st11{fill:#9BE5F9;}
	.st12{fill:#B2E26D;}
	.st13{fill:#754E34;}
	.st14{fill:#FCA265;}
	.st15{fill:#818182;}
	.st16{fill:#F94EED;}
	.st17{fill:#FFC197;}
	.st18{fill:#3CAADC;}
	.st19{fill:#DAE6F1;}
	.st20{fill:#57AF12;}
	.st21{fill:#EF4460;}
	.st22{fill:#FFF0CA;}
	.st23{fill:#F98FA6;}
	.st24{fill:#EDB311;}
	.st25{fill:#FC8C48;}
	.st26{fill:#FCB9CB;}
	.st27{fill:#96BC71;}
	.st28{fill:#78A352;}
	.st29{fill:#B8DD90;}
	.st30{fill:#6FAFEF;}
	.st31{fill:#29589F;}
	.st32{fill:#414344;}
	.st33{fill:#9B6B4B;}
	.st34{fill:#73B1EF;}
</style>
<g id="Layer_1">
</g>
<g id="Layer_2">
</g>
<g id="Layer_3">
</g>
<g id="Layer_4">
</g>
<g id="Layer_5">
</g>
<g id="Layer_6">
</g>
<g id="Layer_7">
</g>
<g id="Layer_8">
</g>
<g id="Layer_9">
</g>
<g id="Layer_10">
</g>
<g id="Layer_11">
</g>
<g id="Layer_12">
</g>
<g id="Layer_13">
</g>
<g id="Layer_14">
</g>
<g id="Layer_15">
</g>
<g id="Layer_16">
</g>
<g id="Layer_17">
</g>
<g id="Layer_18">
</g>
<g id="Layer_19">
</g>
<g id="Layer_20">
</g>
<g id="Layer_21">
</g>
<g id="Layer_22">
</g>
<g id="Layer_23">
</g>
<g id="Layer_24">
</g>
<g id="Layer_25">
</g>
<g id="Layer_26">
</g>
<g id="Layer_27">
</g>
<g id="Layer_28">
</g>
<g id="Layer_29">
</g>
<g id="Layer_30">
</g>
<g id="Layer_31">
</g>
<g id="Layer_32">
</g>
<g id="Layer_33">
</g>
<g id="Layer_34">
</g>
<g id="Layer_35">
</g>
<g id="Layer_36">
</g>
<g id="Layer_37">
</g>
<g id="Layer_38">
</g>
<g id="Layer_39">
</g>
<g id="Layer_40">
</g>
<g id="Layer_41">
</g>
<g id="Layer_42">
</g>
<g id="Layer_43">
</g>
<g id="Layer_44">
</g>
<g id="Layer_45">
</g>
<g id="Layer_46">
</g>
<g id="Layer_47">
</g>
<g id="Layer_48">
</g>
<g id="Layer_49">
</g>
<g id="Layer_50">
</g>
<g id="Layer_51">
</g>
<g id="Layer_52">
</g>
<g id="Layer_53">
</g>
<g id="Layer_54">
</g>
<g id="Layer_55">
</g>
<g id="Layer_56">
	<g>
		<g>
			<g>
				<path class="st3" d="M151.151,78.5h-14.268c0,6.639,0,16.122,0,19.955l0,0v0c0,0.783-0.036,1.558-0.088,2.329
					c0.756,0.122,1.526,0.202,2.316,0.202c8.009,0,14.501-6.492,14.501-14.501c0-2.954-0.888-5.698-2.404-7.989
					C151.189,78.497,151.17,78.5,151.151,78.5z"/>
			</g>
		</g>
		<g>
			<g>
				<path class="st13" d="M85.631,139.512v-10.533c-10.179-5.548-17.308-16.042-18.124-28.194c-0.756,0.122-1.526,0.202-2.316,0.202
					c-3.897,0-7.427-1.545-10.032-4.046c-1.508,8.692-4.54,20.198-10.64,31.327c-1.112,2.029-0.572,4.566,1.303,5.922
					c4.92,3.557,16.083,9.666,36.93,12.174C84.556,144.579,85.631,142.133,85.631,139.512z"/>
			</g>
		</g>
		<g>
			<g>
				<path class="st13" d="M139.677,141.091c0-3.625,2.966-6.591,6.591-6.591h11.768c0.147-0.103,0.307-0.211,0.445-0.31
					c1.875-1.356,2.415-3.893,1.303-5.922c-6.1-11.129-9.132-22.635-10.64-31.327c-2.606,2.501-6.136,4.046-10.032,4.046
					c-0.79,0-1.56-0.081-2.316-0.202c-0.816,12.152-7.945,22.646-18.124,28.194v10.533c0,2.621,1.076,5.067,2.88,6.853
					c7.14-0.859,13.119-2.145,18.126-3.602V141.091z"/>
			</g>
		</g>
		<g>
			<g>
				<g>
					<path class="st3" d="M67.42,78.5v19.955c0,19.102,15.629,34.732,34.732,34.732s34.732-15.629,34.732-34.732V78.5H67.42z"/>
				</g>
			</g>
		</g>
		<g>
			<g>
				<path class="st3" d="M67.42,78.5H53.151c-0.012,0-0.023-0.002-0.035-0.002c-1.524,2.29-2.426,5.029-2.426,7.988
					c0,8.009,6.492,14.501,14.501,14.501c0.79,0,1.56-0.081,2.316-0.202c-0.052-0.771-0.088-1.546-0.088-2.329V78.5z"/>
			</g>
		</g>
		<g>
			<g>
				<path class="st4" d="M139.677,246.909v-92.035l-1.024-0.259c-2.075-0.522-4.089-1.263-6.009-2.209l-8.587-4.234
					c-3.298-1.626-5.386-4.984-5.386-8.66v-10.533c-4.92,2.682-10.551,4.208-16.52,4.208c-5.97,0-11.6-1.526-16.52-4.208v10.533
					c0,3.677-2.088,7.034-5.386,8.66l-8.587,4.234c-1.919,0.946-3.933,1.687-6.009,2.209l-24.833,6.269
					c-6.044,1.521-10.396,6.796-10.743,13.019l-2.744,75.418c-0.127,2.269,1.68,4.179,3.953,4.179h21.99
					c1.478,0,2.677-1.198,2.677-2.677v-47.143l3.883,12.439c2.539,8.133,3.83,16.604,3.83,25.124v9.58
					c0,1.479,1.198,2.677,2.677,2.677c11.078,0,60.416,0,71.626,0c1.478,0,2.677-1.198,2.677-2.677v-0.508
					C140.034,249.319,139.677,248.155,139.677,246.909z"/>
			</g>
		</g>
		<g>
			<g>
				<path class="st3" d="M124.057,148.172c-3.298-1.626-5.386-4.984-5.386-8.66v-10.533c-4.92,2.682-10.551,4.208-16.52,4.208
					c-5.97,0-11.6-1.526-16.52-4.208v10.533c0,3.677-2.088,7.034-5.386,8.66l-2.016,0.994c0.152,0.182,0.305,0.362,0.461,0.54
					c5.724,6.553,14.129,10.712,23.46,10.712c9.585,0,18.193-4.388,23.921-11.252L124.057,148.172z"/>
			</g>
		</g>
		<g>
			<g>
				<path class="st1" d="M132.644,152.406l-6.571-3.24c-5.283,6.331-13.018,10.546-21.707,11.164
					c3.374,6.042,8.214,11.236,11.373,14.283c1.856,1.79,4.735,2.052,6.839,0.562c8.903-6.301,13.195-14.397,15.27-20.786
					C136.057,153.886,134.313,153.229,132.644,152.406z"/>
			</g>
		</g>
		<g>
			<g>
				<path class="st1" d="M78.23,149.166l-6.571,3.24c-1.669,0.823-3.413,1.48-5.204,1.984c2.075,6.389,6.367,14.484,15.27,20.786
					c2.105,1.49,4.983,1.228,6.839-0.562c3.159-3.047,7.999-8.241,11.373-14.283C91.247,159.712,83.513,155.497,78.23,149.166z"/>
			</g>
		</g>
		<g>
			<g>
				<path class="st19" d="M117.651,175.791c-0.696-0.256-1.354-0.638-1.913-1.178c-3.159-3.047-7.999-8.241-11.373-14.283
					c-0.732,0.052-1.469,0.088-2.214,0.088c-0.745,0-1.482-0.036-2.214-0.088c-3.374,6.042-8.214,11.236-11.373,14.283
					c-0.559,0.54-1.217,0.922-1.913,1.178V253.5c10.694,0,20.302,0,31,0V175.791z"/>
			</g>
		</g>
		<g>
			<g>
				<path d="M139.112,103.486c-0.513,0-1.027-0.026-1.574-0.082c-1.374-0.139-2.375-1.365-2.236-2.738s1.367-2.373,2.739-2.236
					c0.352,0.035,0.709,0.057,1.071,0.057c6.617,0,12-5.383,12-12c0-2.219-0.614-4.39-1.776-6.275
					c-0.724-1.176-0.358-2.716,0.817-3.44c1.176-0.721,2.716-0.357,3.439,0.817c1.648,2.676,2.519,5.753,2.519,8.898
					C156.112,95.86,148.486,103.486,139.112,103.486z"/>
			</g>
		</g>
		<g>
			<g>
				<path d="M81.913,148.761c-0.104,0-0.21-0.006-0.317-0.02c-21.007-2.659-32.349-8.989-37.239-12.526
					c-2.876-2.079-3.75-6.013-2.03-9.148c4.751-8.669,8.296-19.004,10.252-29.891c0.244-1.358,1.546-2.258,2.902-2.019
					c1.359,0.244,2.263,1.544,2.019,2.903c-2.079,11.574-5.709,22.142-10.788,31.408c-0.51,0.931-0.263,2.089,0.575,2.694
					c4.504,3.258,15.032,9.098,34.938,11.617c1.37,0.174,2.34,1.425,2.166,2.794C84.23,147.838,83.154,148.761,81.913,148.761z"/>
			</g>
		</g>
		<g>
			<g>
				<path d="M158.483,136.689c-0.775,0-1.539-0.359-2.028-1.035c-0.809-1.119-0.558-2.682,0.561-3.491
					c0.838-0.605,1.085-1.764,0.575-2.694c-5.05-9.212-8.668-19.717-10.754-31.22c-0.246-1.358,0.655-2.66,2.014-2.906
					c1.36-0.247,2.66,0.655,2.906,2.014c1.99,10.974,5.428,20.969,10.219,29.71c1.719,3.136,0.846,7.069-2.03,9.149
					C159.503,136.535,158.991,136.689,158.483,136.689z"/>
			</g>
		</g>
		<g>
			<g>
				<path d="M122.368,148.763c-1.241,0-2.317-0.923-2.478-2.187c-0.173-1.369,0.797-2.62,2.167-2.794
					c5.882-0.744,11.417-1.85,16.453-3.285c1.327-0.377,2.711,0.391,3.09,1.719c0.378,1.328-0.391,2.711-1.719,3.09
					c-5.278,1.505-11.063,2.661-17.196,3.438C122.579,148.757,122.473,148.763,122.368,148.763z"/>
			</g>
		</g>
		<g>
			<g>
				<path d="M102.151,117.757c-4.776,0-9.262-1.949-11.999-5.214c-0.887-1.059-0.748-2.636,0.31-3.522
					c1.059-0.887,2.635-0.748,3.522,0.31c1.798,2.146,4.852,3.427,8.167,3.427c3.315,0,6.368-1.281,8.167-3.427
					c0.886-1.058,2.463-1.197,3.522-0.31c1.058,0.888,1.196,2.464,0.309,3.522C111.413,115.808,106.927,117.757,102.151,117.757z"/>
			</g>
		</g>
		<g>
			<g>
				<circle cx="117.262" cy="90.5" r="4.5"/>
			</g>
		</g>
		<g>
			<g>
				<circle cx="87.041" cy="90.5" r="4.5"/>
			</g>
		</g>
		<g>
			<g>
				<g>
					<path d="M102.151,135.688c-20.53,0-37.232-16.702-37.232-37.232v-19.08c0-1.381,1.119-2.5,2.5-2.5s2.5,1.119,2.5,2.5v19.08
						c0,17.773,14.459,32.232,32.232,32.232c17.772,0,32.231-14.459,32.231-32.232V79.406c0-1.381,1.119-2.5,2.5-2.5
						s2.5,1.119,2.5,2.5v19.049C139.383,118.985,122.681,135.688,102.151,135.688z"/>
				</g>
			</g>
		</g>
		<g>
			<g>
				<path d="M65.191,103.486c-9.374,0-17-7.626-17-17c0-3.073,0.844-6.094,2.44-8.735c0.714-1.181,2.251-1.559,3.433-0.847
					c1.182,0.715,1.56,2.251,0.846,3.433c-1.125,1.861-1.72,3.987-1.72,6.149c0,6.617,5.383,12,12,12
					c0.392,0,0.794-0.024,1.229-0.074c1.374-0.154,2.611,0.83,2.767,2.201c0.156,1.372-0.829,2.61-2.201,2.768
					C66.362,103.452,65.774,103.486,65.191,103.486z"/>
			</g>
		</g>
		<g>
			<g>
				<path d="M139.197,157.253c-0.203,0-0.408-0.025-0.613-0.077l-0.542-0.137c-2.242-0.564-4.43-1.368-6.503-2.391l-8.587-4.234
					c-4.182-2.062-6.78-6.239-6.78-10.902v-9.637c0-1.381,1.119-2.5,2.5-2.5s2.5,1.119,2.5,2.5v9.637
					c0,2.745,1.529,5.204,3.991,6.418l8.587,4.234c1.757,0.866,3.612,1.548,5.514,2.026l0.543,0.138
					c1.339,0.338,2.15,1.696,1.813,3.035C141.333,156.497,140.315,157.253,139.197,157.253z"/>
			</g>
		</g>
		<g>
			<g>
				<path d="M137.964,256H66.338c-2.854,0-5.177-2.322-5.177-5.177v-9.58c0-7.066-0.912-14.079-2.713-20.896v30.476
					c0,2.854-2.322,5.177-5.176,5.177h-21.99c-1.768,0-3.478-0.736-4.693-2.021c-1.214-1.284-1.855-3.033-1.756-4.798l2.742-75.37
					c0.412-7.403,5.487-13.554,12.631-15.353l24.832-6.268c1.903-0.479,3.758-1.161,5.515-2.027l8.587-4.234
					c2.462-1.214,3.991-3.673,3.991-6.418v-9.98c0-1.381,1.119-2.5,2.5-2.5s2.5,1.119,2.5,2.5v9.98c0,4.663-2.598,8.841-6.78,10.902
					l-8.587,4.234c-2.073,1.022-4.261,1.826-6.504,2.392l-24.832,6.268c-5.012,1.262-8.571,5.575-8.859,10.733l-2.742,75.37
					c-0.033,0.595,0.233,0.962,0.395,1.133c0.161,0.17,0.513,0.456,1.06,0.456h21.99c0.097,0,0.176-0.079,0.176-0.177v-47.143
					c0-1.235,0.902-2.285,2.123-2.472c1.219-0.191,2.395,0.547,2.763,1.727l3.883,12.438c2.617,8.383,3.944,17.087,3.944,25.869
					v9.58c0,0.098,0.079,0.177,0.177,0.177h71.626c0.098,0,0.177-0.079,0.177-0.177c0-1.381,1.119-2.5,2.5-2.5s2.5,1.119,2.5,2.5
					C143.141,253.678,140.819,256,137.964,256z"/>
			</g>
		</g>
		<g>
			<g>
				<path class="st10" d="M151.151,67.5h-98c-3.038,0-5.5,2.462-5.5,5.5c0,3.038,2.462,5.5,5.5,5.5h98c3.038,0,5.5-2.462,5.5-5.5
					C156.651,69.962,154.189,67.5,151.151,67.5z"/>
			</g>
		</g>
		<g>
			<g>
				<g>
					<path class="st7" d="M118.651,67.5V22.854c0-4.594-3.759-8.354-8.354-8.354H94.005c-4.594,0-8.354,3.759-8.354,8.354V67.5
						H118.651z"/>
				</g>
			</g>
		</g>
		<g>
			<g>
				<path class="st24" d="M85.797,21.335C68.248,27.83,55.651,44.765,55.651,64.5v3h30V22.854
					C85.651,22.334,85.706,21.828,85.797,21.335z"/>
			</g>
		</g>
		<g>
			<g>
				<path class="st24" d="M118.57,21.756c0.048,0.36,0.081,0.724,0.081,1.097V67.5h29v-3v0
					C147.651,45.168,135.559,28.534,118.57,21.756z"/>
			</g>
		</g>
		<g>
			<g>
				<path d="M151.151,81h-98c-4.411,0-8-3.589-8-8s3.589-8,8-8h98c4.411,0,8,3.589,8,8S155.563,81,151.151,81z M53.151,70
					c-1.654,0-3,1.346-3,3s1.346,3,3,3h98c1.654,0,3-1.346,3-3s-1.346-3-3-3H53.151z"/>
			</g>
		</g>
		<g>
			<g>
				<g>
					<path d="M118.651,69.375c-1.381,0-2.5-1.119-2.5-2.5V22.854c0-3.228-2.626-5.854-5.854-5.854H94.005
						c-3.228,0-5.854,2.626-5.854,5.854v44.021c0,1.381-1.119,2.5-2.5,2.5s-2.5-1.119-2.5-2.5V22.854
						C83.151,16.869,88.02,12,94.005,12h16.293c5.985,0,10.854,4.869,10.854,10.854v44.021
						C121.151,68.256,120.032,69.375,118.651,69.375z"/>
				</g>
			</g>
		</g>
		<g>
			<g>
				<path d="M55.651,69.375c-1.381,0-2.5-1.119-2.5-2.5V64.5c0-19.909,12.538-38.11,31.198-45.291
					c1.291-0.499,2.736,0.146,3.231,1.436c0.496,1.288-0.146,2.734-1.435,3.23C69.401,30.318,58.151,46.645,58.151,64.5v2.375
					C58.151,68.256,57.032,69.375,55.651,69.375z"/>
			</g>
		</g>
		<g>
			<g>
				<path d="M147.651,69.375c-1.381,0-2.5-1.119-2.5-2.5V64.5c0-17.626-10.583-33.405-26.962-40.199
					c-1.275-0.529-1.88-1.992-1.351-3.268c0.529-1.275,1.99-1.882,3.267-1.352c18.252,7.571,30.046,25.163,30.046,44.818v2.375
					C150.151,68.256,149.032,69.375,147.651,69.375z"/>
			</g>
		</g>
		<g>
			<g>
				<path d="M102.151,60.251c-1.381,0-2.5-1.119-2.5-2.5V23.984c0-1.381,1.119-2.5,2.5-2.5s2.5,1.119,2.5,2.5v33.767
					C104.651,59.132,103.532,60.251,102.151,60.251z"/>
			</g>
		</g>
		<g>
			<g>
				<path d="M102.151,247.677c-1.381,0-2.5-1.119-2.5-2.5v-72.535c0-1.381,1.119-2.5,2.5-2.5s2.5,1.119,2.5,2.5v72.535
					C104.651,246.558,103.532,247.677,102.151,247.677z"/>
			</g>
		</g>
		<g>
			<g>
				<path d="M102.151,162.918c-9.666,0-18.89-4.201-25.308-11.527c-0.91-1.039-0.806-2.618,0.233-3.528
					c1.039-0.909,2.618-0.806,3.528,0.233c5.469,6.242,13.322,9.822,21.547,9.822c8.245,0,16.112-3.595,21.583-9.862
					c0.909-1.04,2.487-1.146,3.527-0.24c1.04,0.908,1.147,2.487,0.239,3.527C121.08,158.699,111.841,162.918,102.151,162.918z"/>
			</g>
		</g>
		<g>
			<g>
				<path d="M84.783,178.644c-1.573,0-3.148-0.47-4.502-1.427c-7.319-5.181-12.78-12.39-15.793-20.848
					c-0.463-1.301,0.215-2.73,1.516-3.193c1.3-0.468,2.73,0.215,3.194,1.516c2.705,7.591,7.405,13.796,13.972,18.443
					c1.111,0.787,2.65,0.652,3.66-0.321c3.095-2.984,7.448-7.688,10.609-13.147c0.693-1.193,2.222-1.603,3.417-0.91
					c1.195,0.691,1.603,2.221,0.911,3.416c-3.452,5.96-8.14,11.034-11.466,14.241C88.771,177.888,86.778,178.644,84.783,178.644z"/>
			</g>
		</g>
		<g>
			<g>
				<path d="M117.651,254.75c-1.381,0-2.5-1.119-2.5-2.5v-75.625c0-1.381,1.119-2.5,2.5-2.5s2.5,1.119,2.5,2.5v75.625
					C120.151,253.631,119.032,254.75,117.651,254.75z"/>
			</g>
		</g>
		<g>
			<g>
				<path d="M86.651,255.188c-1.381,0-2.5-1.119-2.5-2.5v-75.813c0-1.381,1.119-2.5,2.5-2.5s2.5,1.119,2.5,2.5v75.813
					C89.151,254.069,88.032,255.188,86.651,255.188z"/>
			</g>
		</g>
		<g>
			<g>
				<path class="st7" d="M40.822,104.33c-4.498-0.838-8.043-4.31-8.898-8.716c-0.043-0.221-0.352-0.221-0.395,0
					c-0.855,4.406-4.4,7.879-8.898,8.716c-0.226,0.042-0.226,0.345,0,0.387c4.498,0.838,8.043,4.31,8.898,8.717
					c0.043,0.221,0.352,0.221,0.395,0c0.855-4.406,4.4-7.879,8.898-8.717C41.047,104.675,41.047,104.373,40.822,104.33z"/>
			</g>
		</g>
		<g>
			<g>
				<path class="st8" d="M187.515,112.101c-2.862-0.533-5.118-2.743-5.663-5.547c-0.027-0.141-0.224-0.141-0.251,0
					c-0.544,2.804-2.8,5.014-5.663,5.547c-0.144,0.027-0.144,0.219,0,0.246c2.862,0.533,5.118,2.743,5.663,5.547
					c0.027,0.141,0.224,0.141,0.251,0c0.544-2.804,2.8-5.014,5.663-5.547C187.658,112.32,187.658,112.128,187.515,112.101z"/>
			</g>
		</g>
		<g>
			<g>
				<path class="st6" d="M154.246,25.75h2.33v-2.33c0-1.744,1.413-3.157,3.157-3.157s3.157,1.413,3.157,3.157v2.33h2.329
					c1.744,0,3.157,1.413,3.157,3.157s-1.413,3.157-3.157,3.157h-2.329v2.33c0,1.744-1.413,3.157-3.157,3.157
					s-3.157-1.413-3.157-3.157v-2.33h-2.33c-1.744,0-3.157-1.413-3.157-3.157S152.502,25.75,154.246,25.75z"/>
			</g>
		</g>
		<g>
			<g>
				<circle class="st9" cx="20.755" cy="140.825" r="3.377"/>
			</g>
		</g>
		<g>
			<g>
				<circle class="st7" cx="134.755" cy="3.377" r="3.377"/>
			</g>
		</g>
		<g>
			<g>
				<path class="st11" d="M222.086,134.5h-75.818c-3.625,0-6.591,2.966-6.591,6.591v105.818c0,3.625,2.966,6.591,6.591,6.591h75.818
					c3.625,0,6.591-2.966,6.591-6.591V141.091C228.677,137.466,225.711,134.5,222.086,134.5z"/>
			</g>
		</g>
		<g>
			<g>
				<path d="M222.086,256h-75.818c-5.013,0-9.091-4.078-9.091-9.092V141.091c0-5.013,4.078-9.091,9.091-9.091h75.818
					c5.013,0,9.091,4.078,9.091,9.091v105.817C231.177,251.922,227.099,256,222.086,256z M146.268,137
					c-2.256,0-4.091,1.835-4.091,4.091v105.817c0,2.256,1.835,4.092,4.091,4.092h75.818c2.256,0,4.091-1.836,4.091-4.092V141.091
					c0-2.256-1.835-4.091-4.091-4.091H146.268z"/>
			</g>
		</g>
		<g>
			<g>
				<path d="M203.215,198.287c-0.64,0-1.28-0.244-1.768-0.732l-23.596-23.596l-23.596,23.596c-0.976,0.977-2.56,0.977-3.535,0
					c-0.977-0.977-0.977-2.559,0-3.535l25.363-25.363c0.976-0.977,2.56-0.977,3.535,0l25.364,25.363
					c0.977,0.977,0.977,2.559,0,3.535C204.495,198.043,203.854,198.287,203.215,198.287z"/>
			</g>
		</g>
		<g>
			<g>
				<path d="M201.603,196.833H154.1c-1.381,0-2.5-1.119-2.5-2.5s1.119-2.5,2.5-2.5h47.503c1.381,0,2.5,1.119,2.5,2.5
					S202.984,196.833,201.603,196.833z"/>
			</g>
		</g>
		<g>
			<g>
				<path d="M200.283,219.947h-44.864c-1.381,0-2.5-1.119-2.5-2.5s1.119-2.5,2.5-2.5h44.864c1.381,0,2.5,1.119,2.5,2.5
					S201.664,219.947,200.283,219.947z"/>
			</g>
		</g>
		<g>
			<g>
				<path d="M154.842,242.092c-1.381,0-2.5-1.119-2.5-2.5v-44.976c0-1.381,1.119-2.5,2.5-2.5s2.5,1.119,2.5,2.5v44.976
					C157.342,240.973,156.223,242.092,154.842,242.092z"/>
			</g>
		</g>
		<g>
			<g>
				<path d="M202.462,242.576H153.24c-1.381,0-2.5-1.119-2.5-2.5s1.119-2.5,2.5-2.5h49.222c1.381,0,2.5,1.119,2.5,2.5
					S203.843,242.576,202.462,242.576z"/>
			</g>
		</g>
		<g>
			<g>
				<path d="M200.86,242.092c-1.381,0-2.5-1.119-2.5-2.5v-45.017c0-1.381,1.119-2.5,2.5-2.5s2.5,1.119,2.5,2.5v45.017
					C203.36,240.973,202.241,242.092,200.86,242.092z"/>
			</g>
		</g>
		<g>
			<g>
				<path d="M176.397,219.074c-1.381,0-2.5-1.119-2.5-2.5v-11.113h-6.633v11.113c0,1.381-1.119,2.5-2.5,2.5s-2.5-1.119-2.5-2.5
					v-13.613c0-1.381,1.119-2.5,2.5-2.5h11.633c1.381,0,2.5,1.119,2.5,2.5v13.613C178.897,217.955,177.778,219.074,176.397,219.074z
					"/>
			</g>
		</g>
		<g>
			<g>
				<path d="M190.939,242.092c-1.381,0-2.5-1.119-2.5-2.5v-11.889h-6.633v11.889c0,1.381-1.119,2.5-2.5,2.5s-2.5-1.119-2.5-2.5
					v-14.389c0-1.381,1.119-2.5,2.5-2.5h11.633c1.381,0,2.5,1.119,2.5,2.5v14.389C193.439,240.973,192.32,242.092,190.939,242.092z"
					/>
			</g>
		</g>
		<g>
			<g>
				<path d="M200.651,163h-46c-1.381,0-2.5-1.119-2.5-2.5s1.119-2.5,2.5-2.5h46c1.381,0,2.5,1.119,2.5,2.5S202.032,163,200.651,163z
					"/>
			</g>
		</g>
		<g>
			<g>
				<path d="M214.651,241.029c-1.381,0-2.5-1.119-2.5-2.5v-68.059c0-1.381,1.119-2.5,2.5-2.5s2.5,1.119,2.5,2.5v68.059
					C217.151,239.91,216.032,241.029,214.651,241.029z"/>
			</g>
		</g>
		<g>
			<g>
				<path d="M153.651,166c-1.381,0-2.5-1.119-2.5-2.5v-6c0-1.381,1.119-2.5,2.5-2.5s2.5,1.119,2.5,2.5v6
					C156.151,164.881,155.032,166,153.651,166z"/>
			</g>
		</g>
		<g>
			<g>
				<path d="M201.651,166c-1.381,0-2.5-1.119-2.5-2.5v-6c0-1.381,1.119-2.5,2.5-2.5s2.5,1.119,2.5,2.5v6
					C204.151,164.881,203.032,166,201.651,166z"/>
			</g>
		</g>
		<g>
			<g>
				<path d="M217.651,172h-6c-1.381,0-2.5-1.119-2.5-2.5s1.119-2.5,2.5-2.5h6c1.381,0,2.5,1.119,2.5,2.5S219.032,172,217.651,172z"
					/>
			</g>
		</g>
		<g>
			<g>
				<path d="M217.651,149h-6c-1.381,0-2.5-1.119-2.5-2.5s1.119-2.5,2.5-2.5h6c1.381,0,2.5,1.119,2.5,2.5S219.032,149,217.651,149z"
					/>
			</g>
		</g>
		<g>
			<g>
				<path d="M217.651,242h-6c-1.381,0-2.5-1.119-2.5-2.5s1.119-2.5,2.5-2.5h6c1.381,0,2.5,1.119,2.5,2.5S219.032,242,217.651,242z"
					/>
			</g>
		</g>
		<g>
			<g>
				<path d="M119.52,178.644c-1.996,0-3.987-0.756-5.517-2.23c-3.29-3.172-7.935-8.192-11.382-14.097
					c-0.696-1.192-0.293-2.724,0.899-3.42c1.193-0.696,2.724-0.293,3.419,0.898c3.158,5.41,7.472,10.065,10.534,13.019
					c1.008,0.974,2.547,1.109,3.66,0.321c6.755-4.781,11.529-11.197,14.188-19.069c0.442-1.309,1.86-2.013,3.169-1.568
					c1.308,0.441,2.01,1.86,1.568,3.168c-2.963,8.77-8.508,16.222-16.037,21.551C122.668,178.174,121.093,178.644,119.52,178.644z"
					/>
			</g>
		</g>
	</g>
</g>
<g id="Layer_57">
</g>
<g id="Layer_58">
</g>
<g id="Layer_59">
</g>
<g id="Layer_60">
</g>
<g id="Layer_61">
</g>
<g id="Layer_62">
</g>
<g id="Layer_63">
</g>
<g id="Layer_64">
</g>
<g id="Layer_65">
</g>
<g id="Layer_66">
</g>
<g id="Layer_67">
</g>
<g id="Layer_68">
</g>
<g id="Layer_69">
</g>
<g id="Layer_70">
</g>
<g id="Layer_71">
</g>
<g id="Layer_72">
</g>
<g id="Layer_73">
</g>
<g id="Layer_74">
</g>
<g id="Layer_75">
</g>
<g id="Layer_76">
</g>
<g id="Layer_77">
</g>
<g id="Layer_78">
</g>
<g id="Layer_79">
</g>
<g id="Layer_80">
</g>
</svg>
