<?xml version="1.0" encoding="utf-8"?>
<!-- Generator: Adobe Illustrator 24.0.0, SVG Export Plug-In . SVG Version: 6.00 Build 0)  -->
<svg version="1.1" xmlns="http://www.w3.org/2000/svg" xmlns:xlink="http://www.w3.org/1999/xlink" x="0px" y="0px"
	 viewBox="0 0 256 256" style="enable-background:new 0 0 256 256;" xml:space="preserve">
<style type="text/css">
	.st0{fill:#3A70BF;}
	.st1{fill:#EDF4FC;}
	.st2{fill:#C7D7E5;}
	.st3{fill:#F9D0B4;}
	.st4{fill:#5B5D60;}
	.st5{fill:#5290DB;}
	.st6{fill:#70D6F9;}
	.st7{fill:#F5C84C;}
	.st8{fill:#FC657E;}
	.st9{fill:#87D147;}
	.st10{fill:#FCDD86;}
	.st11{fill:#9BE5F9;}
	.st12{fill:#B2E26D;}
	.st13{fill:#754E34;}
	.st14{fill:#FCA265;}
	.st15{fill:#818182;}
	.st16{fill:#F94EED;}
	.st17{fill:#FFC197;}
	.st18{fill:#3CAADC;}
	.st19{fill:#DAE6F1;}
	.st20{fill:#57AF12;}
	.st21{fill:#EF4460;}
	.st22{fill:#FFF0CA;}
	.st23{fill:#F98FA6;}
	.st24{fill:#EDB311;}
	.st25{fill:#FC8C48;}
	.st26{fill:#FCB9CB;}
	.st27{fill:#96BC71;}
	.st28{fill:#78A352;}
	.st29{fill:#B8DD90;}
	.st30{fill:#6FAFEF;}
	.st31{fill:#29589F;}
	.st32{fill:#414344;}
	.st33{fill:#9B6B4B;}
	.st34{fill:#73B1EF;}
</style>
<g id="Layer_1">
</g>
<g id="Layer_2">
</g>
<g id="Layer_3">
</g>
<g id="Layer_4">
</g>
<g id="Layer_5">
</g>
<g id="Layer_6">
</g>
<g id="Layer_7">
</g>
<g id="Layer_8">
</g>
<g id="Layer_9">
</g>
<g id="Layer_10">
</g>
<g id="Layer_11">
</g>
<g id="Layer_12">
</g>
<g id="Layer_13">
</g>
<g id="Layer_14">
</g>
<g id="Layer_15">
</g>
<g id="Layer_16">
</g>
<g id="Layer_17">
</g>
<g id="Layer_18">
</g>
<g id="Layer_19">
</g>
<g id="Layer_20">
</g>
<g id="Layer_21">
</g>
<g id="Layer_22">
</g>
<g id="Layer_23">
</g>
<g id="Layer_24">
</g>
<g id="Layer_25">
</g>
<g id="Layer_26">
</g>
<g id="Layer_27">
</g>
<g id="Layer_28">
</g>
<g id="Layer_29">
</g>
<g id="Layer_30">
</g>
<g id="Layer_31">
</g>
<g id="Layer_32">
</g>
<g id="Layer_33">
</g>
<g id="Layer_34">
</g>
<g id="Layer_35">
</g>
<g id="Layer_36">
</g>
<g id="Layer_37">
</g>
<g id="Layer_38">
</g>
<g id="Layer_39">
</g>
<g id="Layer_40">
</g>
<g id="Layer_41">
</g>
<g id="Layer_42">
</g>
<g id="Layer_43">
</g>
<g id="Layer_44">
</g>
<g id="Layer_45">
</g>
<g id="Layer_46">
</g>
<g id="Layer_47">
</g>
<g id="Layer_48">
</g>
<g id="Layer_49">
</g>
<g id="Layer_50">
</g>
<g id="Layer_51">
</g>
<g id="Layer_52">
</g>
<g id="Layer_53">
</g>
<g id="Layer_54">
</g>
<g id="Layer_55">
	<g>
		<g>
			<g>
				<path class="st11" d="M232.935,134.5h-75.818c-3.625,0-6.591,2.966-6.591,6.591v105.818c0,3.625,2.966,6.591,6.591,6.591h75.818
					c3.625,0,6.591-2.966,6.591-6.591V141.091C239.526,137.466,236.56,134.5,232.935,134.5z"/>
			</g>
		</g>
		<g>
			<g>
				<path class="st4" d="M24.488,247.747l4.847-67.923c0.455-6.642,4.6-12.466,10.726-15.073l33.676-14.33
					c1.751-0.745,3.754,0.255,4.209,2.103L103.526,253.5H29.845C26.728,253.5,24.266,250.856,24.488,247.747z"/>
			</g>
		</g>
		<g>
			<g>
				<g>
					<path class="st3" d="M65.77,78.5v23.423c0,20.468,16.747,37.215,37.215,37.215l0,0c20.468,0,37.215-16.747,37.215-37.215V78.5
						H65.77z"/>
				</g>
			</g>
		</g>
		<g>
			<g>
				<path class="st3" d="M153.79,78.348c-0.406,0.096-0.828,0.152-1.264,0.152H140.2c0,7.053,0,18.903,0,23.423
					c0,0.839-0.038,1.67-0.094,2.496c0.81,0.13,1.635,0.217,2.482,0.217c8.581,0,15.537-6.957,15.537-15.538
					C158.125,84.923,156.469,81.14,153.79,78.348z"/>
			</g>
		</g>
		<g>
			<g>
				<path class="st3" d="M65.77,78.5H54.526c-0.744,0-1.452-0.149-2.1-0.417c-2.829,2.814-4.582,6.709-4.582,11.015
					c0,8.581,6.957,15.538,15.538,15.538c0.847,0,1.672-0.086,2.482-0.217v0c-0.055-0.826-0.094-1.656-0.094-2.495
					C65.77,98.744,65.77,86.868,65.77,78.5z"/>
			</g>
		</g>
		<g>
			<g>
				<path class="st3" d="M99.317,162.422c0.417,0.438,0.603,1.01,0.573,1.573c1.022,0.086,2.051,0.143,3.094,0.143h0
					c1.411,0,2.796-0.104,4.167-0.26v0c0,0.001,0,0.003,0,0.004c0-0.526,0.194-1.052,0.583-1.461l14.525-15.27
					c-1.021-1.86-1.589-3.976-1.589-6.18v-6.335c-5.268,2.868-11.296,4.501-17.686,4.501h0c-5.959,0-11.597-1.427-16.604-3.945
					v5.778c0,2.204-0.568,4.32-1.589,6.18L99.317,162.422z"/>
			</g>
		</g>
		<g>
			<g>
				<path class="st4" d="M150.526,246.909v-89.163l-17.211-7.324c-1.751-0.745-3.754,0.255-4.209,2.103L103.526,253.5h53.591
					C153.492,253.5,150.526,250.534,150.526,246.909z"/>
			</g>
		</g>
		<g>
			<g>
				<path class="st15" d="M51.981,199.673c0-7.154-2.962-13.988-8.183-18.879l-11.005-10.31c-1.985,2.671-3.222,5.893-3.458,9.34
					l-4.847,67.923c-0.222,3.109,2.24,5.753,5.357,5.753h22.136V199.673z"/>
			</g>
		</g>
		<g>
			<g>
				<path class="st15" d="M77.946,152.525c-0.456-1.848-2.458-2.849-4.209-2.103l-7.211,3.069v40.542
					c0,0.859,0.593,1.605,1.43,1.798l9.42,2.174c1.12,0.259,1.734,1.468,1.281,2.525l-4.271,9.965
					c-0.547,1.277-0.525,2.726,0.061,3.986L92.596,253.5h10.93L77.946,152.525z"/>
			</g>
		</g>
		<g>
			<g>
				<path class="st15" d="M114.456,253.5l18.149-39.021c0.586-1.26,0.608-2.709,0.061-3.986l-4.271-9.965
					c-0.453-1.057,0.161-2.266,1.281-2.525l9.42-2.174c0.837-0.193,1.43-0.939,1.43-1.798V153.49l-7.211-3.069
					c-1.751-0.745-3.754,0.255-4.209,2.103L103.526,253.5H114.456z"/>
			</g>
		</g>
		<g>
			<g>
				<path class="st1" d="M77.946,152.525l3.533,13.948l6.271,7.591c0.879,1.064,2.495,1.109,3.431,0.094l8.157-8.837
					c0.758-0.821,0.748-2.089-0.022-2.899L83.63,145.931c-0.702-0.738-1.866-0.779-2.619-0.092l-4.983,4.55
					C76.941,150.732,77.691,151.487,77.946,152.525z"/>
			</g>
		</g>
		<g>
			<g>
				<path class="st1" d="M115.87,174.158c0.936,1.014,2.552,0.97,3.431-0.094l6.271-7.591l3.533-13.948
					c0.256-1.038,1.005-1.792,1.918-2.136l-4.983-4.55c-0.753-0.687-1.917-0.646-2.619,0.092l-15.687,16.492
					c-0.77,0.81-0.78,2.078-0.022,2.899L115.87,174.158z"/>
			</g>
		</g>
		<g>
			<g>
				<g>
					<path class="st2" d="M119.301,174.063c-0.879,1.064-2.495,1.109-3.431,0.094l-4.373-4.737c-1.76,2.513-4.67,4.161-7.971,4.161
						s-6.211-1.647-7.971-4.161l-4.373,4.737c-0.936,1.014-2.552,0.97-3.431-0.094l-6.271-7.591l22.046,87.028l22.046-87.028
						L119.301,174.063z"/>
				</g>
			</g>
		</g>
		<g>
			<g>
				<path class="st6" d="M103.4,253.001l0.382-0.509l9.356-36.934l-4.591-43.383c-1.467,0.886-3.181,1.406-5.021,1.406
					s-3.553-0.519-5.021-1.406l-4.591,43.383L103.4,253.001z"/>
			</g>
		</g>
		<g>
			<g>
				<g>
					<path class="st6" d="M107.713,165.321c-0.376-0.408-0.562-0.926-0.561-1.443v0c-1.371,0.155-2.756,0.26-4.167,0.26h0
						c-1.043,0-2.072-0.058-3.094-0.143c-0.025,0.478-0.203,0.949-0.551,1.326l-3.784,4.1c1.76,2.513,4.67,4.161,7.971,4.161
						s6.211-1.647,7.971-4.161L107.713,165.321z"/>
				</g>
			</g>
		</g>
		<g>
			<g>
				<path d="M103.525,118.573c-4.776,0-9.262-1.95-11.998-5.216c-0.887-1.059-0.748-2.635,0.311-3.521
					c1.058-0.887,2.636-0.747,3.521,0.311c1.798,2.146,4.851,3.427,8.166,3.427c3.316,0,6.369-1.281,8.167-3.427
					c0.887-1.058,2.464-1.197,3.521-0.311c1.059,0.887,1.197,2.463,0.311,3.521C112.788,116.623,108.303,118.573,103.525,118.573z"
					/>
			</g>
		</g>
		<g>
			<g>
				<circle cx="120.315" cy="90.816" r="5"/>
			</g>
		</g>
		<g>
			<g>
				<circle cx="86.736" cy="90.816" r="5"/>
			</g>
		</g>
		<g>
			<g>
				<path d="M103.525,256H29.845c-2.177,0-4.275-0.914-5.759-2.507c-1.484-1.593-2.246-3.752-2.092-5.924l0,0l4.847-67.923
					c0.523-7.613,5.214-14.204,12.241-17.195l33.677-14.331c1.51-0.642,3.218-0.59,4.687,0.144c1.469,0.734,2.536,2.069,2.929,3.663
					l25.575,100.959c0.189,0.748,0.022,1.541-0.451,2.149C105.024,255.645,104.297,256,103.525,256z M26.982,247.925
					c-0.058,0.804,0.213,1.571,0.763,2.161c0.549,0.59,1.294,0.914,2.1,0.914h70.469l-24.791-97.861
					c-0.058-0.234-0.201-0.347-0.313-0.402c-0.111-0.057-0.289-0.103-0.494-0.015l-33.677,14.331
					c-5.287,2.25-8.816,7.209-9.21,12.942L26.982,247.925z"/>
			</g>
		</g>
		<g>
			<g>
				<g>
					<path d="M102.984,141.639c-21.898,0-39.715-17.816-39.715-39.715V79.042c0-1.381,1.119-2.5,2.5-2.5s2.5,1.119,2.5,2.5v22.882
						c0,19.142,15.573,34.715,34.715,34.715s34.715-15.573,34.715-34.715V79.125c0-1.381,1.119-2.5,2.5-2.5s2.5,1.119,2.5,2.5
						v22.799C142.699,123.822,124.883,141.639,102.984,141.639z"/>
				</g>
			</g>
		</g>
		<g>
			<g>
				<path d="M142.588,107.136c-0.571,0-1.149-0.032-1.767-0.099c-1.373-0.146-2.367-1.378-2.22-2.751
					c0.146-1.374,1.379-2.365,2.751-2.22c0.439,0.047,0.844,0.069,1.235,0.069c7.188,0,13.037-5.849,13.037-13.038
					c0-3.122-1.13-6.146-3.181-8.516c-0.904-1.044-0.791-2.623,0.253-3.526c1.043-0.906,2.622-0.79,3.526,0.253
					c2.839,3.278,4.401,7.465,4.401,11.789C160.625,99.044,152.533,107.136,142.588,107.136z"/>
			</g>
		</g>
		<g>
			<g>
				<path d="M63.382,107.136c-9.946,0-18.038-8.092-18.038-18.038c0-4.582,1.723-8.952,4.851-12.305
					c0.942-1.008,2.523-1.063,3.534-0.122c1.009,0.942,1.063,2.524,0.122,3.534c-2.262,2.423-3.507,5.581-3.507,8.893
					c0,7.189,5.849,13.038,13.038,13.038c0.331,0,0.657-0.017,0.981-0.045c1.374-0.124,2.589,0.894,2.711,2.27
					c0.122,1.375-0.895,2.589-2.27,2.711C64.336,107.113,63.861,107.136,63.382,107.136z"/>
			</g>
		</g>
		<g>
			<g>
				<path d="M122.024,149.201c-0.918,0-1.802-0.508-2.239-1.386c-1.056-2.119-1.614-4.485-1.614-6.844v-5.159
					c0-1.381,1.119-2.5,2.5-2.5s2.5,1.119,2.5,2.5v5.159c0,1.588,0.377,3.184,1.089,4.613c0.616,1.236,0.113,2.737-1.122,3.353
					C122.779,149.116,122.399,149.201,122.024,149.201z"/>
			</g>
		</g>
		<g>
			<g>
				<path d="M102.984,166.639c-0.894,0-1.851-0.04-2.927-0.122c-1.376-0.106-2.407-1.308-2.302-2.685s1.301-2.41,2.685-2.302
					c0.947,0.073,1.779,0.108,2.544,0.108c1.076,0,2.242-0.068,3.564-0.209c1.368-0.136,2.604,0.851,2.75,2.223
					c0.146,1.373-0.85,2.604-2.223,2.75C105.577,166.562,104.238,166.639,102.984,166.639z"/>
			</g>
		</g>
		<g>
			<g>
				<path d="M84.973,149.309c-0.383,0-0.771-0.089-1.134-0.274c-1.23-0.627-1.719-2.133-1.091-3.362
					c0.741-1.453,1.133-3.079,1.133-4.7v-4.847c0-1.381,1.119-2.5,2.5-2.5s2.5,1.119,2.5,2.5v4.847c0,2.408-0.581,4.818-1.68,6.972
					C86.76,148.81,85.883,149.309,84.973,149.309z"/>
			</g>
		</g>
		<g>
			<g>
				<path d="M51.981,255.063c-1.381,0-2.5-1.119-2.5-2.5v-52.89c0-6.437-2.694-12.652-7.393-17.054l-10.369-9.715
					c-1.008-0.943-1.06-2.526-0.115-3.533c0.944-1.006,2.524-1.061,3.533-0.115l10.369,9.715c5.703,5.343,8.975,12.889,8.975,20.702
					v52.89C54.481,253.943,53.362,255.063,51.981,255.063z"/>
			</g>
		</g>
		<g>
			<g>
				<path d="M92.368,255.508c-0.942,0-1.845-0.536-2.269-1.446l-17.92-38.527c-0.884-1.901-0.918-4.097-0.092-6.025l3.962-9.245
					l-8.656-1.998c-1.983-0.458-3.368-2.199-3.368-4.233v-39.907c0-1.381,1.119-2.5,2.5-2.5s2.5,1.119,2.5,2.5v39.386l8.913,2.058
					c1.258,0.29,2.313,1.117,2.897,2.268c0.584,1.151,0.627,2.491,0.118,3.678l-4.271,9.964c-0.267,0.623-0.256,1.334,0.029,1.947
					l17.92,38.527c0.582,1.252,0.04,2.739-1.212,3.321C93.079,255.433,92.721,255.508,92.368,255.508z"/>
			</g>
		</g>
		<g>
			<g>
				<path d="M114.687,255.502c-0.353,0-0.711-0.075-1.053-0.234c-1.252-0.582-1.794-2.069-1.212-3.321l17.917-38.521
					c0.285-0.613,0.296-1.324,0.029-1.947l-4.271-9.965c-0.509-1.186-0.466-2.525,0.118-3.677c0.584-1.15,1.64-1.978,2.897-2.268
					l8.912-2.057V154.5c0-1.381,1.119-2.5,2.5-2.5s2.5,1.119,2.5,2.5v39.532c0,2.035-1.385,3.775-3.367,4.233l-8.656,1.998
					l3.962,9.245c0.826,1.929,0.792,4.124-0.092,6.025l-17.917,38.521C116.531,254.966,115.629,255.502,114.687,255.502z"/>
			</g>
		</g>
		<g>
			<g>
				<path d="M89.508,177.391c-0.044,0-0.088,0-0.132-0.001c-1.379-0.038-2.674-0.671-3.553-1.734l-6.188-7.488
					c-0.879-1.064-0.729-2.641,0.335-3.521c1.064-0.879,2.639-0.73,3.521,0.335l6.025,7.294l7.744-8.389L82.243,148.1l-4.124,3.766
					c-1.021,0.932-2.602,0.857-3.532-0.161c-0.931-1.02-0.858-2.601,0.161-3.532l4.578-4.18c1.741-1.592,4.484-1.497,6.115,0.214
					l15.688,16.493c1.673,1.758,1.694,4.533,0.047,6.317l-8.157,8.837C92.113,176.835,90.84,177.391,89.508,177.391z"/>
			</g>
		</g>
		<g>
			<g>
				<path d="M117.544,177.391c-1.332,0-2.604-0.555-3.511-1.536l-8.157-8.838c-1.647-1.784-1.626-4.56,0.048-6.318l15.686-16.49
					c1.631-1.713,4.375-1.809,6.117-0.214l4.616,4.213c1.02,0.932,1.092,2.513,0.161,3.532c-0.931,1.019-2.512,1.092-3.532,0.161
					l-4.163-3.801l-15.018,15.787l7.743,8.39l5.931-7.179c0.881-1.066,2.456-1.214,3.52-0.336c1.064,0.88,1.215,2.455,0.336,3.52
					l-6.092,7.374c-0.878,1.063-2.173,1.695-3.552,1.733C117.633,177.391,117.588,177.391,117.544,177.391z"/>
			</g>
		</g>
		<g>
			<g>
				<g>
					<path d="M103.525,256L103.525,256c-1.145,0-2.143-0.777-2.424-1.886l-22.046-87.027c-0.287-1.134,0.25-2.315,1.293-2.844
						c1.045-0.531,2.313-0.265,3.059,0.637l6.109,7.396l4.201-4.55c0.513-0.556,1.244-0.852,2.005-0.799
						c0.755,0.051,1.446,0.44,1.88,1.06c1.356,1.938,3.571,3.095,5.923,3.095c2.353,0,4.567-1.157,5.924-3.095
						c0.434-0.619,1.125-1.009,1.88-1.06c0.768-0.052,1.492,0.243,2.005,0.799l4.2,4.551l6.11-7.396
						c0.745-0.9,2.014-1.167,3.059-0.637c1.043,0.528,1.58,1.71,1.293,2.844l-22.047,87.027C105.668,255.223,104.67,256,103.525,256
						z M86.568,176.38l16.957,66.939l16.958-66.939c-0.797,0.622-1.778,0.98-2.807,1.009c-1.386,0.066-2.707-0.521-3.644-1.534
						l-2.531-2.741c-2.196,1.892-5.021,2.968-7.977,2.968s-5.779-1.076-7.977-2.969l-2.53,2.741
						c-0.936,1.014-2.258,1.573-3.643,1.536C88.347,177.36,87.365,177.002,86.568,176.38z"/>
				</g>
			</g>
		</g>
		<g>
			<g>
				<path d="M113.108,217.814c-1.263,0-2.348-0.953-2.483-2.237l-4.487-42.406c-0.146-1.373,0.851-2.604,2.224-2.749
					c1.371-0.132,2.604,0.851,2.749,2.224l4.487,42.406c0.146,1.373-0.851,2.604-2.224,2.749
					C113.285,217.81,113.196,217.814,113.108,217.814z"/>
			</g>
		</g>
		<g>
			<g>
				<path d="M93.941,217.826c-0.088,0-0.177-0.005-0.266-0.014c-1.373-0.146-2.369-1.376-2.224-2.749l4.479-42.317
					c0.146-1.373,1.392-2.358,2.749-2.224c1.373,0.146,2.369,1.376,2.224,2.749l-4.479,42.317
					C96.289,216.873,95.204,217.826,93.941,217.826z"/>
			</g>
		</g>
		<g>
			<g>
				<g>
					<path d="M103.525,176.081c-3.653,0-7.087-1.619-9.422-4.441c-0.88-1.064-0.73-2.641,0.333-3.521
						c1.064-0.879,2.639-0.731,3.521,0.333c1.381,1.671,3.411,2.629,5.568,2.629c2.149,0,4.174-0.952,5.555-2.611
						c0.883-1.063,2.461-1.205,3.521-0.323c1.062,0.883,1.206,2.459,0.323,3.521C110.59,174.473,107.164,176.081,103.525,176.081z"
						/>
				</g>
			</g>
		</g>
		<g>
			<g>
				<path class="st10" d="M152.526,67.5h-98c-3.038,0-5.5,2.462-5.5,5.5c0,3.038,2.462,5.5,5.5,5.5h98c3.038,0,5.5-2.462,5.5-5.5
					C158.026,69.962,155.563,67.5,152.526,67.5z"/>
			</g>
		</g>
		<g>
			<g>
				<g>
					<path class="st7" d="M120.026,67.5V22.854c0-4.594-3.759-8.354-8.354-8.354H95.379c-4.594,0-8.354,3.759-8.354,8.354V67.5
						H120.026z"/>
				</g>
			</g>
		</g>
		<g>
			<g>
				<path class="st24" d="M87.172,21.335C69.622,27.83,57.026,44.765,57.026,64.5v3h30V22.854
					C87.026,22.334,87.08,21.828,87.172,21.335z"/>
			</g>
		</g>
		<g>
			<g>
				<path class="st24" d="M119.945,21.756c0.048,0.36,0.081,0.724,0.081,1.097V67.5h29v-3v0
					C149.026,45.168,136.934,28.534,119.945,21.756z"/>
			</g>
		</g>
		<g>
			<g>
				<path d="M152.525,81h-98c-4.411,0-8-3.589-8-8s3.589-8,8-8h98c4.411,0,8,3.589,8,8S156.937,81,152.525,81z M54.525,70
					c-1.654,0-3,1.346-3,3s1.346,3,3,3h98c1.654,0,3-1.346,3-3s-1.346-3-3-3H54.525z"/>
			</g>
		</g>
		<g>
			<g>
				<g>
					<path d="M120.025,69c-1.381,0-2.5-1.119-2.5-2.5V22.854c0-3.228-2.626-5.854-5.854-5.854H95.379
						c-3.228,0-5.854,2.626-5.854,5.854V66.5c0,1.381-1.119,2.5-2.5,2.5s-2.5-1.119-2.5-2.5V22.854
						C84.525,16.869,89.395,12,95.379,12h16.293c5.984,0,10.854,4.869,10.854,10.854V66.5C122.525,67.881,121.406,69,120.025,69z"/>
				</g>
			</g>
		</g>
		<g>
			<g>
				<path d="M57.025,69.281c-1.381,0-2.5-1.119-2.5-2.5V64.5c0-19.882,12.515-38.073,31.141-45.269
					c1.289-0.498,2.735,0.144,3.232,1.432c0.497,1.287-0.144,2.735-1.432,3.232C70.754,30.352,59.525,46.669,59.525,64.5v2.281
					C59.525,68.162,58.406,69.281,57.025,69.281z"/>
			</g>
		</g>
		<g>
			<g>
				<path d="M149.025,69c-1.381,0-2.5-1.119-2.5-2.5v-2c0-17.579-10.544-33.342-26.863-40.158c-1.273-0.532-1.875-1.996-1.343-3.271
					c0.531-1.274,1.993-1.877,3.271-1.343c18.185,7.596,29.936,25.169,29.936,44.771v2C151.525,67.881,150.406,69,149.025,69z"/>
			</g>
		</g>
		<g>
			<g>
				<path d="M103.525,60.251c-1.381,0-2.5-1.119-2.5-2.5V23.984c0-1.381,1.119-2.5,2.5-2.5s2.5,1.119,2.5,2.5v33.767
					C106.025,59.132,104.906,60.251,103.525,60.251z"/>
			</g>
		</g>
		<g>
			<g>
				<path d="M232.935,256h-75.817c-5.014,0-9.092-4.078-9.092-9.092V141.091c0-5.013,4.078-9.091,9.092-9.091h75.817
					c5.013,0,9.091,4.078,9.091,9.091v105.817C242.025,251.922,237.947,256,232.935,256z M157.117,137
					c-2.256,0-4.092,1.835-4.092,4.091v105.817c0,2.256,1.836,4.092,4.092,4.092h75.817c2.256,0,4.091-1.836,4.091-4.092V141.091
					c0-2.256-1.835-4.091-4.091-4.091H157.117z"/>
			</g>
		</g>
		<g>
			<g>
				<path class="st7" d="M175.822,28.33c-4.498-0.838-8.043-4.31-8.898-8.716c-0.043-0.221-0.352-0.221-0.395,0
					c-0.855,4.406-4.4,7.879-8.898,8.716c-0.226,0.042-0.226,0.345,0,0.387c4.498,0.838,8.043,4.31,8.898,8.717
					c0.043,0.221,0.352,0.221,0.395,0c0.855-4.406,4.4-7.879,8.898-8.717C176.047,28.675,176.047,28.373,175.822,28.33z"/>
			</g>
		</g>
		<g>
			<g>
				<path class="st9" d="M187.515,112.101c-2.862-0.533-5.118-2.743-5.663-5.547c-0.027-0.141-0.224-0.141-0.251,0
					c-0.544,2.804-2.8,5.014-5.663,5.547c-0.144,0.027-0.144,0.219,0,0.246c2.862,0.533,5.118,2.743,5.663,5.547
					c0.027,0.141,0.224,0.141,0.251,0c0.544-2.804,2.8-5.014,5.663-5.547C187.658,112.32,187.658,112.128,187.515,112.101z"/>
			</g>
		</g>
		<g>
			<g>
				<path class="st6" d="M35.246,120.75h2.33v-2.33c0-1.744,1.413-3.157,3.157-3.157c1.744,0,3.157,1.413,3.157,3.157v2.33h2.329
					c1.744,0,3.157,1.413,3.157,3.157s-1.413,3.157-3.157,3.157h-2.329v2.33c0,1.744-1.413,3.157-3.157,3.157
					c-1.744,0-3.157-1.413-3.157-3.157v-2.33h-2.33c-1.744,0-3.157-1.413-3.157-3.157S33.502,120.75,35.246,120.75z"/>
			</g>
		</g>
		<g>
			<g>
				<circle class="st7" cx="25.755" cy="152.825" r="3.377"/>
			</g>
		</g>
		<g>
			<g>
				<circle class="st8" cx="149.755" cy="3.377" r="3.377"/>
			</g>
		</g>
		<g>
			<g>
				<path d="M163.336,198.287c-0.64,0-1.279-0.244-1.768-0.732c-0.977-0.977-0.977-2.559,0-3.535l25.364-25.363
					c0.977-0.977,2.559-0.977,3.535,0l25.363,25.363c0.977,0.977,0.977,2.559,0,3.535s-2.559,0.977-3.535,0L188.7,173.959
					l-23.597,23.596C164.615,198.043,163.976,198.287,163.336,198.287z"/>
			</g>
		</g>
		<g>
			<g>
				<path d="M212.451,196.833h-47.503c-1.381,0-2.5-1.119-2.5-2.5s1.119-2.5,2.5-2.5h47.503c1.381,0,2.5,1.119,2.5,2.5
					S213.832,196.833,212.451,196.833z"/>
			</g>
		</g>
		<g>
			<g>
				<path d="M211.132,219.947h-44.864c-1.381,0-2.5-1.119-2.5-2.5s1.119-2.5,2.5-2.5h44.864c1.381,0,2.5,1.119,2.5,2.5
					S212.513,219.947,211.132,219.947z"/>
			</g>
		</g>
		<g>
			<g>
				<path d="M165.69,242.092c-1.381,0-2.5-1.119-2.5-2.5v-44.976c0-1.381,1.119-2.5,2.5-2.5s2.5,1.119,2.5,2.5v44.976
					C168.19,240.973,167.071,242.092,165.69,242.092z"/>
			</g>
		</g>
		<g>
			<g>
				<path d="M213.312,242.576h-49.223c-1.381,0-2.5-1.119-2.5-2.5s1.119-2.5,2.5-2.5h49.223c1.381,0,2.5,1.119,2.5,2.5
					S214.692,242.576,213.312,242.576z"/>
			</g>
		</g>
		<g>
			<g>
				<path d="M211.709,242.092c-1.381,0-2.5-1.119-2.5-2.5v-45.017c0-1.381,1.119-2.5,2.5-2.5s2.5,1.119,2.5,2.5v45.017
					C214.209,240.973,213.09,242.092,211.709,242.092z"/>
			</g>
		</g>
		<g>
			<g>
				<path d="M187.246,219.074c-1.381,0-2.5-1.119-2.5-2.5v-11.113h-6.634v11.113c0,1.381-1.119,2.5-2.5,2.5s-2.5-1.119-2.5-2.5
					v-13.613c0-1.381,1.119-2.5,2.5-2.5h11.634c1.381,0,2.5,1.119,2.5,2.5v13.613C189.746,217.955,188.627,219.074,187.246,219.074z
					"/>
			</g>
		</g>
		<g>
			<g>
				<path d="M201.787,242.092c-1.381,0-2.5-1.119-2.5-2.5v-11.889h-6.633v11.889c0,1.381-1.119,2.5-2.5,2.5s-2.5-1.119-2.5-2.5
					v-14.389c0-1.381,1.119-2.5,2.5-2.5h11.633c1.381,0,2.5,1.119,2.5,2.5v14.389C204.287,240.973,203.168,242.092,201.787,242.092z
					"/>
			</g>
		</g>
		<g>
			<g>
				<path d="M211.5,163h-46c-1.381,0-2.5-1.119-2.5-2.5s1.119-2.5,2.5-2.5h46c1.381,0,2.5,1.119,2.5,2.5S212.881,163,211.5,163z"/>
			</g>
		</g>
		<g>
			<g>
				<path d="M225.5,241.029c-1.381,0-2.5-1.119-2.5-2.5v-68.059c0-1.381,1.119-2.5,2.5-2.5s2.5,1.119,2.5,2.5v68.059
					C228,239.91,226.881,241.029,225.5,241.029z"/>
			</g>
		</g>
		<g>
			<g>
				<path d="M164.5,166c-1.381,0-2.5-1.119-2.5-2.5v-6c0-1.381,1.119-2.5,2.5-2.5s2.5,1.119,2.5,2.5v6
					C167,164.881,165.881,166,164.5,166z"/>
			</g>
		</g>
		<g>
			<g>
				<path d="M212.5,166c-1.381,0-2.5-1.119-2.5-2.5v-6c0-1.381,1.119-2.5,2.5-2.5s2.5,1.119,2.5,2.5v6
					C215,164.881,213.881,166,212.5,166z"/>
			</g>
		</g>
		<g>
			<g>
				<path d="M228.5,172h-6c-1.381,0-2.5-1.119-2.5-2.5s1.119-2.5,2.5-2.5h6c1.381,0,2.5,1.119,2.5,2.5S229.881,172,228.5,172z"/>
			</g>
		</g>
		<g>
			<g>
				<path d="M228.5,149h-6c-1.381,0-2.5-1.119-2.5-2.5s1.119-2.5,2.5-2.5h6c1.381,0,2.5,1.119,2.5,2.5S229.881,149,228.5,149z"/>
			</g>
		</g>
		<g>
			<g>
				<path d="M228.5,242h-6c-1.381,0-2.5-1.119-2.5-2.5s1.119-2.5,2.5-2.5h6c1.381,0,2.5,1.119,2.5,2.5S229.881,242,228.5,242z"/>
			</g>
		</g>
		<g>
			<g>
				<path d="M157.117,256h-53.592c-0.771,0-1.499-0.355-1.973-0.965c-0.474-0.608-0.641-1.401-0.451-2.149l25.58-100.976
					c0.389-1.577,1.456-2.912,2.925-3.646c1.469-0.733,3.176-0.785,4.688-0.142l16.647,7.083c1.271,0.541,1.862,2.009,1.322,3.279
					c-0.542,1.271-2.012,1.86-3.279,1.322l-16.648-7.084c-0.21-0.091-0.385-0.042-0.495,0.015c-0.11,0.055-0.254,0.167-0.308,0.385
					L106.737,251h50.38c1.381,0,2.5,1.119,2.5,2.5S158.498,256,157.117,256z"/>
			</g>
		</g>
	</g>
</g>
<g id="Layer_56">
</g>
<g id="Layer_57">
</g>
<g id="Layer_58">
</g>
<g id="Layer_59">
</g>
<g id="Layer_60">
</g>
<g id="Layer_61">
</g>
<g id="Layer_62">
</g>
<g id="Layer_63">
</g>
<g id="Layer_64">
</g>
<g id="Layer_65">
</g>
<g id="Layer_66">
</g>
<g id="Layer_67">
</g>
<g id="Layer_68">
</g>
<g id="Layer_69">
</g>
<g id="Layer_70">
</g>
<g id="Layer_71">
</g>
<g id="Layer_72">
</g>
<g id="Layer_73">
</g>
<g id="Layer_74">
</g>
<g id="Layer_75">
</g>
<g id="Layer_76">
</g>
<g id="Layer_77">
</g>
<g id="Layer_78">
</g>
<g id="Layer_79">
</g>
<g id="Layer_80">
</g>
</svg>
