<?xml version="1.0" encoding="utf-8"?>
<!-- Generator: Adobe Illustrator 24.0.0, SVG Export Plug-In . SVG Version: 6.00 Build 0)  -->
<svg version="1.1" xmlns="http://www.w3.org/2000/svg" xmlns:xlink="http://www.w3.org/1999/xlink" x="0px" y="0px"
	 viewBox="0 0 256 256" style="enable-background:new 0 0 256 256;" xml:space="preserve">
<style type="text/css">
	.st0{fill:#3A70BF;}
	.st1{fill:#EDF4FC;}
	.st2{fill:#C7D7E5;}
	.st3{fill:#F9D0B4;}
	.st4{fill:#5B5D60;}
	.st5{fill:#5290DB;}
	.st6{fill:#70D6F9;}
	.st7{fill:#F5C84C;}
	.st8{fill:#FC657E;}
	.st9{fill:#87D147;}
	.st10{fill:#FCDD86;}
	.st11{fill:#9BE5F9;}
	.st12{fill:#B2E26D;}
	.st13{fill:#754E34;}
	.st14{fill:#FCA265;}
	.st15{fill:#818182;}
	.st16{fill:#F94EED;}
	.st17{fill:#FFC197;}
	.st18{fill:#3CAADC;}
	.st19{fill:#DAE6F1;}
	.st20{fill:#57AF12;}
	.st21{fill:#EF4460;}
	.st22{fill:#FFF0CA;}
	.st23{fill:#F98FA6;}
	.st24{fill:#EDB311;}
	.st25{fill:#FC8C48;}
	.st26{fill:#FCB9CB;}
	.st27{fill:#96BC71;}
	.st28{fill:#78A352;}
	.st29{fill:#B8DD90;}
	.st30{fill:#6FAFEF;}
	.st31{fill:#29589F;}
	.st32{fill:#414344;}
	.st33{fill:#9B6B4B;}
	.st34{fill:#73B1EF;}
</style>
<g id="Layer_1">
</g>
<g id="Layer_2">
</g>
<g id="Layer_3">
</g>
<g id="Layer_4">
</g>
<g id="Layer_5">
</g>
<g id="Layer_6">
</g>
<g id="Layer_7">
</g>
<g id="Layer_8">
</g>
<g id="Layer_9">
</g>
<g id="Layer_10">
</g>
<g id="Layer_11">
</g>
<g id="Layer_12">
</g>
<g id="Layer_13">
</g>
<g id="Layer_14">
</g>
<g id="Layer_15">
</g>
<g id="Layer_16">
</g>
<g id="Layer_17">
</g>
<g id="Layer_18">
</g>
<g id="Layer_19">
</g>
<g id="Layer_20">
</g>
<g id="Layer_21">
</g>
<g id="Layer_22">
</g>
<g id="Layer_23">
</g>
<g id="Layer_24">
</g>
<g id="Layer_25">
</g>
<g id="Layer_26">
</g>
<g id="Layer_27">
</g>
<g id="Layer_28">
</g>
<g id="Layer_29">
</g>
<g id="Layer_30">
</g>
<g id="Layer_31">
</g>
<g id="Layer_32">
</g>
<g id="Layer_33">
</g>
<g id="Layer_34">
</g>
<g id="Layer_35">
</g>
<g id="Layer_36">
</g>
<g id="Layer_37">
</g>
<g id="Layer_38">
</g>
<g id="Layer_39">
</g>
<g id="Layer_40">
</g>
<g id="Layer_41">
</g>
<g id="Layer_42">
</g>
<g id="Layer_43">
</g>
<g id="Layer_44">
</g>
<g id="Layer_45">
</g>
<g id="Layer_46">
</g>
<g id="Layer_47">
</g>
<g id="Layer_48">
</g>
<g id="Layer_49">
</g>
<g id="Layer_50">
</g>
<g id="Layer_51">
</g>
<g id="Layer_52">
</g>
<g id="Layer_53">
</g>
<g id="Layer_54">
	<g>
		<g>
			<g>
				<path class="st27" d="M200.078,173.902c-0.347-6.223-4.699-11.497-10.743-13.019l-24.833-6.269
					c-0.361-0.091-0.718-0.197-1.075-0.301c-0.249,2.406-1.735,4.633-4.136,5.694c-10.133,4.478-21.158,6.82-32.291,6.82
					c-11.133,0-22.158-2.342-32.291-6.82c-2.228-0.985-3.664-2.975-4.059-5.178l-23.985,6.054
					c-6.044,1.521-10.396,6.796-10.743,13.019l-2.744,75.418c-0.127,2.269,1.68,4.179,3.953,4.179h21.99
					c1.478,0,2.677-1.198,2.677-2.677v-47.143l3.883,12.439c2.539,8.133,3.83,16.604,3.83,25.124v9.58
					c0,1.479,1.198,2.677,2.677,2.677h30.345h10.936h30.345c1.478,0,2.677-1.198,2.677-2.677v-9.58c0-8.52,1.291-16.991,3.83-25.124
					l3.883-12.439v47.143c0,1.479,1.198,2.677,2.677,2.677h21.99c2.273,0,4.079-1.91,3.953-4.179L200.078,173.902z"/>
			</g>
		</g>
		<g>
			<g>
				<path class="st10" d="M185.633,128.268c-6.1-11.129-9.132-22.635-10.64-31.327c-2.605,2.501-6.135,4.046-10.032,4.046
					c-0.79,0-1.56-0.081-2.316-0.202c-0.816,12.152-7.945,22.646-18.124,28.194v10.533c0,0.627,0.065,1.244,0.184,1.844
					c1.617-0.526,3.214-1.112,4.779-1.78c3.264-1.395,7.052-0.098,8.795,2.994l1.005,1.784c13.362-2.962,21.162-7.355,25.047-10.164
					C186.205,132.834,186.745,130.297,185.633,128.268z"/>
			</g>
		</g>
		<g>
			<g>
				<path class="st10" d="M95.723,142.57c1.743-3.092,5.531-4.389,8.794-2.994c2.162,0.924,4.384,1.696,6.641,2.346
					c0.203-0.777,0.322-1.583,0.322-2.41v-10.533c-10.179-5.548-17.308-16.042-18.124-28.194c-0.756,0.122-1.526,0.202-2.316,0.202
					c-3.897,0-7.427-1.545-10.032-4.046c-1.508,8.693-4.54,20.198-10.64,31.327c-1.112,2.029-0.572,4.566,1.303,5.922
					c3.711,2.683,10.981,6.817,23.273,9.763L95.723,142.57z"/>
			</g>
		</g>
		<g>
			<g>
				<path class="st3" d="M164.96,71.985c-0.759,0-1.502,0.064-2.229,0.177c0,3.696,0,20.799,0,26.293v0v0
					c0,0.783-0.036,1.558-0.088,2.329c0.756,0.122,1.526,0.202,2.316,0.202c8.009,0,14.501-6.492,14.501-14.501
					C179.461,78.477,172.969,71.985,164.96,71.985z"/>
			</g>
		</g>
		<g>
			<g>
				<path class="st3" d="M144.613,60.642c-5.29,6.174-24.047,24.906-51.344,17.13v20.684c0,19.102,15.629,34.732,34.732,34.732l0,0
					c19.102,0,34.732-15.629,34.732-34.732v-28.06c0-1.276-0.893-2.358-2.136-2.646c-3.515-0.814-7.782-2.85-12.673-7.294
					C146.955,59.577,145.463,59.649,144.613,60.642z"/>
			</g>
		</g>
		<g>
			<g>
				<path class="st3" d="M93.268,77.771c-2.385-0.679-4.834-1.559-7.346-2.668c-1.619-0.715-3.511-0.386-4.803,0.825
					c-2.817,2.641-4.581,6.39-4.581,10.557c0,8.008,6.492,14.501,14.501,14.501c0.79,0,1.56-0.08,2.316-0.202
					c-0.052-0.771-0.088-1.546-0.088-2.329V77.771z"/>
			</g>
		</g>
		<g>
			<g>
				<path class="st15" d="M162.568,150.183l-4.291-7.613c-1.743-3.092-5.531-4.389-8.794-2.994
					c-7.076,3.024-14.742,4.603-22.482,4.603c-7.74,0-15.406-1.579-22.482-4.603c-3.264-1.395-7.052-0.098-8.794,2.994l-4.291,7.613
					c-2.028,3.598-0.501,8.155,3.277,9.825c10.133,4.478,21.158,6.82,32.291,6.82c11.133,0,22.158-2.342,32.291-6.82
					C163.069,158.338,164.596,153.781,162.568,150.183z"/>
			</g>
		</g>
		<g>
			<g>
				<path class="st4" d="M94.709,160.008c-0.073-0.032-0.138-0.075-0.209-0.11v57.996c0,1.991,1.614,3.605,3.605,3.605h16.789
					c1.991,0,3.605-1.614,3.605-3.605v-51.526C110.291,165.487,102.253,163.342,94.709,160.008z"/>
			</g>
		</g>
		<g>
			<g>
				<path class="st3" d="M127,144.179c6.035,0,12.019-0.972,17.719-2.828c-0.117-0.601-0.199-1.212-0.199-1.839v-10.533
					c-4.92,2.682-10.551,4.208-16.52,4.208c-5.97,0-11.6-1.526-16.52-4.208v10.533c0,0.826-0.12,1.632-0.321,2.41
					C116.29,143.4,121.624,144.179,127,144.179z"/>
			</g>
		</g>
		<g>
			<g>
				<path class="st33" d="M168.676,35.154c-8.893-16.099-29.643-21.361-51.702-16.151s-38.263,19.2-39.013,37.576
					c-0.148,3.615,3.186,6.384,6.707,5.553l80.494-19.011C168.683,42.29,170.426,38.322,168.676,35.154z"/>
			</g>
		</g>
		<g>
			<g>
				<path class="st13" d="M116.974,19.004c2.483-0.586,4.948-1.034,7.382-1.354c0.279-1.211,0.301-2.501-0.004-3.793
					c-1.062-4.495-5.567-7.279-10.062-6.217c-4.495,1.062-7.279,5.567-6.217,10.062c0.305,1.292,0.901,2.435,1.693,3.394
					C112.086,20.293,114.491,19.59,116.974,19.004z"/>
			</g>
		</g>
		<g>
			<g>
				<path class="st10" d="M167.48,41.935c-0.639,0.555-1.42,0.974-2.318,1.186L84.668,62.132c-1.24,0.293-2.454,0.132-3.503-0.348
					c-0.25,1.958-0.393,3.948-0.393,5.971v8.535c0.118-0.119,0.226-0.246,0.348-0.361c1.291-1.211,3.183-1.54,4.803-0.825
					c2.512,1.109,4.961,1.988,7.346,2.668c27.297,7.776,46.055-10.956,51.344-17.13c0.85-0.993,2.342-1.065,3.309-0.186
					c4.892,4.445,9.159,6.48,12.673,7.294c1.243,0.288,2.136,1.37,2.136,2.646v1.767c0.727-0.113,1.47-0.177,2.229-0.177
					c4.012,0,7.643,1.63,10.268,4.263v-8.494C175.229,58.242,172.369,49.369,167.48,41.935z"/>
			</g>
		</g>
		<g>
			<g>
				<path d="M159.699,146.761c-1.143,0-2.174-0.789-2.437-1.95c-0.305-1.347,0.541-2.686,1.888-2.989
					c13.105-2.961,20.483-7.322,23.715-9.658c0.838-0.605,1.085-1.764,0.575-2.694c-5.038-9.191-8.652-19.671-10.741-31.146
					c-0.247-1.358,0.654-2.659,2.013-2.907c1.352-0.248,2.66,0.653,2.907,2.013c1.992,10.945,5.426,20.916,10.206,29.638
					c1.718,3.137,0.845,7.07-2.03,9.149c-4.326,3.127-12.269,7.483-25.543,10.482C160.066,146.74,159.881,146.761,159.699,146.761z"
					/>
			</g>
		</g>
		<g>
			<g>
				<path d="M94.364,146.313c-0.197,0-0.398-0.024-0.599-0.073c-12.142-2.985-19.514-7.099-23.56-10.023
					c-2.877-2.08-3.75-6.014-2.031-9.149c6.055-11.045,8.943-22.499,10.301-30.164c0.241-1.359,1.528-2.271,2.898-2.025
					c1.359,0.241,2.266,1.538,2.025,2.898c-2.07,11.685-5.717,22.349-10.84,31.694c-0.51,0.93-0.262,2.088,0.576,2.693
					c3.686,2.665,10.464,6.428,21.823,9.221c1.341,0.33,2.161,1.684,1.831,3.024C96.51,145.549,95.488,146.313,94.364,146.313z"/>
			</g>
		</g>
		<g>
			<g>
				<path d="M128,117.757c-4.775,0-9.261-1.949-11.999-5.214c-0.887-1.059-0.748-2.635,0.31-3.522
					c1.058-0.887,2.634-0.749,3.522,0.31c1.799,2.146,4.852,3.427,8.167,3.427s6.368-1.281,8.167-3.427
					c0.889-1.059,2.465-1.195,3.522-0.31c1.058,0.888,1.196,2.464,0.31,3.522C137.261,115.808,132.775,117.757,128,117.757z"/>
			</g>
		</g>
		<g>
			<g>
				<path d="M164.961,103.486c-0.594,0-1.191-0.036-1.827-0.109c-1.371-0.159-2.354-1.399-2.195-2.771
					c0.159-1.371,1.38-2.359,2.771-2.195c0.442,0.051,0.852,0.076,1.251,0.076c6.617,0,12-5.383,12-12s-5.383-12.001-12-12.001
					c-0.359,0-0.715,0.018-1.065,0.05c-1.389,0.14-2.592-0.887-2.718-2.261c-0.126-1.375,0.886-2.592,2.261-2.718
					c0.514-0.048,1.025-0.071,1.522-0.071c9.374,0,17,7.627,17,17.001S174.335,103.486,164.961,103.486z"/>
			</g>
		</g>
		<g>
			<g>
				<path d="M128,135.687c-20.529,0-37.231-16.702-37.231-37.231V77.771c0-0.784,0.368-1.522,0.994-1.995s1.44-0.624,2.19-0.409
					c25.922,7.386,43.876-10.649,48.761-16.353l0,0c0.85-0.991,2.035-1.581,3.337-1.662c1.278-0.08,2.589,0.377,3.554,1.255
					c3.95,3.589,7.839,5.846,11.556,6.707c2.397,0.556,4.071,2.646,4.071,5.081v28.06C165.231,118.984,148.529,135.687,128,135.687z
					 M95.769,80.979v17.477c0,17.772,14.459,32.231,32.231,32.231s32.231-14.459,32.231-32.231v-28.06c0-0.113-0.101-0.187-0.2-0.21
					c-4.515-1.046-9.109-3.656-13.657-7.759C141.017,68.626,122.58,86.86,95.769,80.979z"/>
			</g>
		</g>
		<g>
			<g>
				<path d="M91.039,103.486c-9.374,0-17-7.626-17-17c0-4.668,1.957-9.181,5.37-12.381c2.03-1.904,4.984-2.408,7.522-1.289
					c2.326,1.027,4.688,1.886,7.022,2.551c1.327,0.379,2.097,1.762,1.719,3.09c-0.379,1.327-1.757,2.1-3.09,1.719
					c-2.555-0.729-5.136-1.665-7.671-2.785c-0.698-0.311-1.518-0.168-2.083,0.362c-2.444,2.292-3.79,5.394-3.79,8.733
					c0,6.617,5.383,12,12,12c0.445,0,0.91-0.032,1.423-0.098c1.383-0.178,2.622,0.792,2.798,2.161s-0.792,2.622-2.161,2.798
					C92.373,103.441,91.699,103.486,91.039,103.486z"/>
			</g>
		</g>
		<g>
			<g>
				<circle cx="145.29" cy="90.816" r="4"/>
			</g>
		</g>
		<g>
			<g>
				<circle cx="111.71" cy="90.816" r="4"/>
			</g>
		</g>
		<g>
			<g>
				<path d="M131.892,91.172h-7.783c-1.381,0-2.5-1.119-2.5-2.5s1.119-2.5,2.5-2.5h7.783c1.381,0,2.5,1.119,2.5,2.5
					S133.272,91.172,131.892,91.172z"/>
			</g>
		</g>
		<g>
			<g>
				<path d="M151.767,106.182h-8.617c-7.05,0-12.785-5.735-12.785-12.784v-5.961c0-5.296,4.309-9.604,9.604-9.604h14.979
					c5.295,0,9.604,4.309,9.604,9.604v5.961C164.552,100.446,158.816,106.182,151.767,106.182z M139.969,82.832
					c-2.539,0-4.604,2.065-4.604,4.604v5.961c0,4.292,3.492,7.784,7.785,7.784h8.617c4.293,0,7.785-3.492,7.785-7.784v-5.961
					c0-2.539-2.065-4.604-4.604-4.604H139.969z"/>
			</g>
		</g>
		<g>
			<g>
				<path d="M112.851,106.182h-8.617c-7.05,0-12.785-5.735-12.785-12.784v-5.961c0-5.296,4.309-9.604,9.604-9.604h14.979
					c5.296,0,9.604,4.309,9.604,9.604v5.961C125.636,100.446,119.9,106.182,112.851,106.182z M101.052,82.832
					c-2.538,0-4.604,2.065-4.604,4.604v5.961c0,4.292,3.492,7.784,7.785,7.784h8.617c4.293,0,7.785-3.492,7.785-7.784v-5.961
					c0-2.539-2.065-4.604-4.604-4.604H101.052z"/>
			</g>
		</g>
		<g>
			<g>
				<path d="M127,169.328c-11.375,0-22.891-2.433-33.302-7.034c-2.449-1.082-4.337-3.159-5.181-5.698
					c-0.842-2.532-0.573-5.316,0.736-7.641l4.291-7.613c2.377-4.215,7.513-5.963,11.955-4.064c6.835,2.921,14.069,4.401,21.5,4.401
					s14.665-1.48,21.5-4.401c4.44-1.898,9.579-0.15,11.955,4.064l4.291,7.613l0,0c1.31,2.324,1.578,5.108,0.736,7.641
					c-0.844,2.539-2.731,4.616-5.181,5.698C149.891,166.896,138.375,169.328,127,169.328z M101.79,141.517
					c-1.566,0-3.073,0.832-3.89,2.28l-4.291,7.613c-0.627,1.113-0.75,2.395-0.347,3.609c0.405,1.221,1.278,2.181,2.457,2.702
					c9.779,4.322,20.596,6.606,31.28,6.606s21.501-2.284,31.28-6.606c1.179-0.521,2.052-1.481,2.457-2.702
					c0.403-1.214,0.28-2.496-0.347-3.609l-4.291-7.613c-1.121-1.987-3.541-2.815-5.635-1.922c-7.46,3.188-15.354,4.804-23.465,4.804
					s-16.005-1.616-23.465-4.804C102.967,141.632,102.374,141.517,101.79,141.517z"/>
			</g>
		</g>
		<g>
			<g>
				<path d="M114.895,224H98.105c-3.366,0-6.105-2.739-6.105-6.105v-57.207c0-1.381,1.119-2.5,2.5-2.5s2.5,1.119,2.5,2.5v57.207
					c0,0.609,0.496,1.105,1.105,1.105h16.789c0.609,0,1.105-0.496,1.105-1.105V167.25c0-1.381,1.119-2.5,2.5-2.5s2.5,1.119,2.5,2.5
					v50.645C121,221.261,118.261,224,114.895,224z"/>
			</g>
		</g>
		<g>
			<g>
				<path d="M144.591,143.088c-1.238,0-2.313-0.919-2.477-2.179c-0.063-0.488-0.094-0.945-0.094-1.397v-9.845
					c0-1.381,1.119-2.5,2.5-2.5s2.5,1.119,2.5,2.5v9.845c0,0.235,0.018,0.482,0.053,0.755c0.177,1.369-0.789,2.623-2.158,2.801
					C144.806,143.081,144.697,143.088,144.591,143.088z"/>
			</g>
		</g>
		<g>
			<g>
				<path d="M111.297,143.833c-0.162,0-0.326-0.016-0.491-0.048c-1.354-0.27-2.233-1.586-1.964-2.94
					c0.092-0.458,0.138-0.906,0.138-1.333v-9.762c0-1.381,1.119-2.5,2.5-2.5s2.5,1.119,2.5,2.5v9.762c0,0.753-0.078,1.53-0.233,2.31
					C113.509,143.011,112.465,143.833,111.297,143.833z"/>
			</g>
		</g>
		<g>
			<g>
				<path d="M198.869,256H176.88c-2.854,0-5.177-2.322-5.177-5.177v-30.476c-1.802,6.815-2.713,13.828-2.713,20.896v9.58
					c0,2.854-2.322,5.177-5.177,5.177H92.187c-2.854,0-5.177-2.322-5.177-5.177v-9.58c0-7.067-0.911-14.08-2.713-20.896v30.476
					c0,2.854-2.322,5.177-5.177,5.177H57.131c-1.768,0-3.479-0.736-4.693-2.021c-1.215-1.284-1.854-3.033-1.756-4.798l2.742-75.369
					c0.413-7.404,5.488-13.554,12.631-15.353l23.442-5.917c1.338-0.338,2.697,0.473,3.036,1.812
					c0.338,1.339-0.474,2.698-1.812,3.036l-23.444,5.918c-5.012,1.262-8.571,5.575-8.859,10.734l-2.742,75.369
					c-0.032,0.595,0.233,0.962,0.395,1.132c0.161,0.171,0.514,0.457,1.061,0.457H79.12c0.098,0,0.177-0.079,0.177-0.177v-47.143
					c0-1.235,0.902-2.285,2.123-2.472c1.222-0.192,2.396,0.547,2.764,1.727l3.883,12.438c2.616,8.382,3.943,17.086,3.943,25.869
					v9.58c0,0.098,0.079,0.177,0.177,0.177h71.627c0.098,0,0.177-0.079,0.177-0.177v-9.58c0-8.783,1.327-17.487,3.943-25.869
					l3.883-12.438c0.368-1.179,1.543-1.914,2.764-1.727c1.221,0.187,2.123,1.236,2.123,2.472v47.143
					c0,0.098,0.079,0.177,0.177,0.177h21.989c0.547,0,0.899-0.286,1.061-0.457c0.161-0.17,0.427-0.537,0.396-1.083l-2.746-75.467
					c-0.286-5.11-3.846-9.424-8.855-10.685l-24.836-6.27c-1.338-0.338-2.149-1.697-1.812-3.036c0.339-1.338,1.698-2.148,3.036-1.812
					l24.834,6.269c7.141,1.798,12.216,7.947,12.627,15.303l2.746,75.467c0.097,1.716-0.543,3.465-1.758,4.749
					C202.348,255.264,200.637,256,198.869,256z"/>
			</g>
		</g>
		<g>
			<g>
				<path d="M83.394,64.782c-1.821,0-3.59-0.628-5.037-1.822c-1.941-1.603-2.996-3.965-2.894-6.481
					c0.769-18.834,16.454-34.126,40.937-39.907c24.477-5.784,45.351,0.875,54.465,17.374l0,0c1.219,2.206,1.332,4.791,0.312,7.094
					c-1.017,2.293-2.999,3.939-5.439,4.516L85.242,64.565C84.627,64.711,84.008,64.782,83.394,64.782z M133.156,19.524
					c-4.923,0-10.161,0.626-15.608,1.912c-22.204,5.244-36.416,18.75-37.089,35.245c-0.038,0.941,0.355,1.823,1.08,2.422
					c0.719,0.593,1.648,0.813,2.555,0.596l80.494-19.011c0.904-0.214,1.64-0.824,2.017-1.676c0.381-0.859,0.339-1.825-0.117-2.649
					l0,0C160.463,25.457,148.304,19.524,133.156,19.524z"/>
			</g>
		</g>
		<g>
			<g>
				<path d="M109.369,23.073c-0.785,0-1.559-0.369-2.046-1.061c-0.799-1.134-1.365-2.391-1.684-3.734
					c-1.377-5.832,2.246-11.695,8.076-13.071c2.821-0.671,5.737-0.194,8.207,1.331c2.468,1.525,4.195,3.921,4.861,6.745
					c0.324,1.368,0.376,2.772,0.155,4.173c-0.216,1.364-1.492,2.289-2.86,2.079c-1.363-0.216-2.294-1.496-2.079-2.86
					c0.119-0.754,0.092-1.509-0.081-2.242c-0.36-1.525-1.292-2.818-2.625-3.642c-1.331-0.822-2.905-1.077-4.43-0.719
					c-3.146,0.743-5.102,3.908-4.358,7.056c0.17,0.719,0.475,1.395,0.905,2.006c0.795,1.128,0.524,2.688-0.604,3.483
					C110.369,22.925,109.867,23.073,109.369,23.073z"/>
			</g>
		</g>
		<g>
			<g>
				<path d="M80.771,78.208c-1.381,0-2.5-1.119-2.5-2.5v-7.953c0-1.794,0.109-3.663,0.324-5.554
					c0.156-1.372,1.391-2.356,2.768-2.201c1.372,0.157,2.357,1.396,2.201,2.768c-0.194,1.703-0.293,3.382-0.293,4.987v7.953
					C83.271,77.089,82.152,78.208,80.771,78.208z"/>
			</g>
		</g>
		<g>
			<g>
				<path d="M175.229,78.094c-1.381,0-2.5-1.119-2.5-2.5v-7.839c0-8.563-2.467-16.91-7.134-24.136
					c-0.75-1.16-0.417-2.707,0.743-3.456c1.159-0.75,2.709-0.416,3.456,0.743c5.191,8.036,7.935,17.32,7.935,26.849v7.839
					C177.729,76.975,176.609,78.094,175.229,78.094z"/>
			</g>
		</g>
		<g>
			<g>
				<path class="st7" d="M61.822,125.33c-4.498-0.838-8.043-4.31-8.898-8.716c-0.043-0.221-0.352-0.221-0.395,0
					c-0.855,4.406-4.4,7.879-8.898,8.716c-0.226,0.042-0.226,0.345,0,0.387c4.498,0.838,8.043,4.31,8.898,8.717
					c0.043,0.221,0.352,0.221,0.395,0c0.855-4.406,4.4-7.879,8.898-8.717C62.047,125.675,62.047,125.373,61.822,125.33z"/>
			</g>
		</g>
		<g>
			<g>
				<path class="st8" d="M199.515,112.101c-2.862-0.533-5.118-2.743-5.663-5.547c-0.027-0.141-0.224-0.141-0.251,0
					c-0.544,2.804-2.8,5.014-5.663,5.547c-0.144,0.027-0.144,0.219,0,0.246c2.862,0.533,5.118,2.743,5.663,5.547
					c0.027,0.141,0.224,0.141,0.251,0c0.544-2.804,2.8-5.014,5.663-5.547C199.658,112.32,199.658,112.128,199.515,112.101z"/>
			</g>
		</g>
		<g>
			<g>
				<path class="st6" d="M182.246,25.75h2.33v-2.33c0-1.744,1.413-3.157,3.157-3.157s3.157,1.413,3.157,3.157v2.33h2.329
					c1.744,0,3.157,1.413,3.157,3.157s-1.413,3.157-3.157,3.157h-2.329v2.33c0,1.744-1.413,3.157-3.157,3.157
					s-3.157-1.413-3.157-3.157v-2.33h-2.33c-1.744,0-3.157-1.413-3.157-3.157S180.502,25.75,182.246,25.75z"/>
			</g>
		</g>
		<g>
			<g>
				<circle class="st9" cx="40.755" cy="154.825" r="3.377"/>
			</g>
		</g>
		<g>
			<g>
				<circle class="st7" cx="174.755" cy="3.377" r="3.377"/>
			</g>
		</g>
	</g>
</g>
<g id="Layer_55">
</g>
<g id="Layer_56">
</g>
<g id="Layer_57">
</g>
<g id="Layer_58">
</g>
<g id="Layer_59">
</g>
<g id="Layer_60">
</g>
<g id="Layer_61">
</g>
<g id="Layer_62">
</g>
<g id="Layer_63">
</g>
<g id="Layer_64">
</g>
<g id="Layer_65">
</g>
<g id="Layer_66">
</g>
<g id="Layer_67">
</g>
<g id="Layer_68">
</g>
<g id="Layer_69">
</g>
<g id="Layer_70">
</g>
<g id="Layer_71">
</g>
<g id="Layer_72">
</g>
<g id="Layer_73">
</g>
<g id="Layer_74">
</g>
<g id="Layer_75">
</g>
<g id="Layer_76">
</g>
<g id="Layer_77">
</g>
<g id="Layer_78">
</g>
<g id="Layer_79">
</g>
<g id="Layer_80">
</g>
</svg>
