<?xml version="1.0" encoding="utf-8"?>
<!-- Generator: Adobe Illustrator 24.0.0, SVG Export Plug-In . SVG Version: 6.00 Build 0)  -->
<svg version="1.1" xmlns="http://www.w3.org/2000/svg" xmlns:xlink="http://www.w3.org/1999/xlink" x="0px" y="0px"
	 viewBox="0 0 256 256" style="enable-background:new 0 0 256 256;" xml:space="preserve">
<style type="text/css">
	.st0{fill:#3A70BF;}
	.st1{fill:#EDF4FC;}
	.st2{fill:#C7D7E5;}
	.st3{fill:#F9D0B4;}
	.st4{fill:#5B5D60;}
	.st5{fill:#5290DB;}
	.st6{fill:#70D6F9;}
	.st7{fill:#F5C84C;}
	.st8{fill:#FC657E;}
	.st9{fill:#87D147;}
	.st10{fill:#FCDD86;}
	.st11{fill:#9BE5F9;}
	.st12{fill:#B2E26D;}
	.st13{fill:#754E34;}
	.st14{fill:#FCA265;}
	.st15{fill:#818182;}
	.st16{fill:#F94EED;}
	.st17{fill:#FFC197;}
	.st18{fill:#3CAADC;}
	.st19{fill:#DAE6F1;}
	.st20{fill:#57AF12;}
	.st21{fill:#EF4460;}
	.st22{fill:#FFF0CA;}
	.st23{fill:#F98FA6;}
	.st24{fill:#EDB311;}
	.st25{fill:#FC8C48;}
	.st26{fill:#FCB9CB;}
	.st27{fill:#96BC71;}
	.st28{fill:#78A352;}
	.st29{fill:#B8DD90;}
	.st30{fill:#6FAFEF;}
	.st31{fill:#29589F;}
	.st32{fill:#414344;}
	.st33{fill:#9B6B4B;}
	.st34{fill:#73B1EF;}
</style>
<g id="Layer_1">
</g>
<g id="Layer_2">
</g>
<g id="Layer_3">
</g>
<g id="Layer_4">
</g>
<g id="Layer_5">
</g>
<g id="Layer_6">
</g>
<g id="Layer_7">
</g>
<g id="Layer_8">
</g>
<g id="Layer_9">
</g>
<g id="Layer_10">
</g>
<g id="Layer_11">
</g>
<g id="Layer_12">
</g>
<g id="Layer_13">
</g>
<g id="Layer_14">
</g>
<g id="Layer_15">
</g>
<g id="Layer_16">
</g>
<g id="Layer_17">
</g>
<g id="Layer_18">
</g>
<g id="Layer_19">
</g>
<g id="Layer_20">
</g>
<g id="Layer_21">
</g>
<g id="Layer_22">
</g>
<g id="Layer_23">
</g>
<g id="Layer_24">
</g>
<g id="Layer_25">
</g>
<g id="Layer_26">
</g>
<g id="Layer_27">
</g>
<g id="Layer_28">
</g>
<g id="Layer_29">
</g>
<g id="Layer_30">
</g>
<g id="Layer_31">
</g>
<g id="Layer_32">
</g>
<g id="Layer_33">
</g>
<g id="Layer_34">
</g>
<g id="Layer_35">
</g>
<g id="Layer_36">
</g>
<g id="Layer_37">
</g>
<g id="Layer_38">
</g>
<g id="Layer_39">
</g>
<g id="Layer_40">
</g>
<g id="Layer_41">
</g>
<g id="Layer_42">
</g>
<g id="Layer_43">
</g>
<g id="Layer_44">
</g>
<g id="Layer_45">
</g>
<g id="Layer_46">
</g>
<g id="Layer_47">
</g>
<g id="Layer_48">
</g>
<g id="Layer_49">
</g>
<g id="Layer_50">
</g>
<g id="Layer_51">
</g>
<g id="Layer_52">
</g>
<g id="Layer_53">
	<g>
		<g>
			<g>
				<path class="st27" d="M202.511,178.239c-0.357-6.417-4.846-11.856-11.078-13.425c-4.277-0.887-13.707-4.314-28.034-4.314
					c-0.303,2.334-1.769,4.474-4.108,5.508c-10.133,4.478-21.158,6.82-32.291,6.82c-11.133,0-22.158-2.342-32.291-6.82
					c-2.339-1.034-3.807-3.174-4.111-5.508c-12.306,0-19.963,3.013-26.03,4.314c-6.233,1.569-10.721,7.008-11.078,13.425
					l-4.115,70.951c-0.13,2.34,1.732,4.31,4.076,4.31h149.098c2.344,0,4.207-1.969,4.076-4.31L202.511,178.239z"/>
			</g>
		</g>
		<g>
			<g>
				<path class="st15" d="M162.568,156.183l-4.291-7.613c-1.743-3.092-5.531-4.389-8.794-2.994
					c-7.076,3.024-14.742,4.603-22.482,4.603c-7.74,0-15.406-1.579-22.482-4.603c-3.264-1.395-7.052-0.098-8.794,2.994l-4.291,7.613
					c-2.028,3.598-0.501,8.155,3.277,9.825c10.133,4.478,21.158,6.82,32.291,6.82c11.133,0,22.158-2.342,32.291-6.82
					C163.069,164.338,164.596,159.781,162.568,156.183z"/>
			</g>
		</g>
		<g>
			<g>
				<path class="st4" d="M94.709,166.008c-0.073-0.032-0.138-0.075-0.209-0.11v57.996c0,1.991,1.614,3.605,3.605,3.605h16.789
					c1.991,0,3.605-1.614,3.605-3.605v-51.526C110.291,171.487,102.253,169.342,94.709,166.008z"/>
			</g>
		</g>
		<g>
			<g>
				<path class="st3" d="M167.603,73.561c-0.813,0-1.609,0.069-2.388,0.189c0,3.96,0,22.286,0,28.173
					c0,0.839-0.038,1.67-0.094,2.496c0.81,0.13,1.635,0.217,2.482,0.217c8.581,0,15.537-6.956,15.537-15.537
					S176.184,73.561,167.603,73.561z"/>
			</g>
		</g>
		<g>
			<g>
				<path class="st3" d="M90.785,101.923c0-3.856,0-20.507,0-28.173c-0.779-0.121-1.575-0.189-2.388-0.189
					c-8.581,0-15.538,6.957-15.538,15.538s6.956,15.537,15.538,15.537c0.847,0,1.672-0.086,2.482-0.217v-0.001
					C90.823,103.593,90.785,102.762,90.785,101.923z"/>
			</g>
		</g>
		<g>
			<g>
				<path class="st33" d="M167.41,58.841C155.604,56.797,142.206,56.5,128,56.5s-27.604,0.297-39.41,2.341
					c-1.04,0.18-1.799,1.094-1.8,2.15c0,0.003,0,0.006,0,0.009c0,9.665,18.45,17.5,41.21,17.5s41.21-7.835,41.21-17.5
					c0-0.003,0-0.006,0-0.009C169.208,59.935,168.45,59.021,167.41,58.841z"/>
			</g>
		</g>
		<g>
			<g>
				<path class="st3" d="M145.145,134.915c-5.14,2.69-10.97,4.223-17.145,4.223h0c-6.174,0-12.005-1.532-17.145-4.223v6.057
					c0,2.269-0.604,4.443-1.682,6.342c5.732,1.879,11.754,2.865,17.827,2.865c6.672,0,13.287-1.18,19.518-3.44
					c-0.883-1.758-1.373-3.724-1.373-5.767V134.915z"/>
			</g>
		</g>
		<g>
			<g>
				<g>
					<path class="st3" d="M128,78.5c-16.418,0-30.59-4.078-37.215-9.978v33.401c0,20.468,16.747,37.215,37.215,37.215h0
						c20.468,0,37.215-16.747,37.215-37.215V68.522C158.59,74.422,144.418,78.5,128,78.5z"/>
				</g>
			</g>
		</g>
		<g>
			<g>
				<path class="st13" d="M169.867,33.875C153.484,18.402,128,18.402,128,18.402s-25.484,0-41.867,15.473
					c-8.664,8.183-8.673,16.62-6.759,22.754c1.233,3.951,4.424,6.818,8.247,7.883C87.077,63.377,86.79,62.203,86.79,61
					c0-0.003,0-0.006,0-0.009c0.001-1.056,0.76-1.97,1.8-2.15C100.396,56.797,113.794,56.5,128,56.5s27.604,0.297,39.41,2.341
					c1.04,0.18,1.799,1.094,1.8,2.15c0,0.003,0,0.006,0,0.009c0,1.203-0.287,2.377-0.831,3.512c3.823-1.065,7.014-3.933,8.247-7.883
					C178.54,50.495,178.531,42.057,169.867,33.875z"/>
			</g>
		</g>
		<g>
			<g>
				<path class="st13" d="M128,18.402c0,0,3.441,0.003,8.597,0.768c0.262-0.844,0.403-1.74,0.403-2.67c0-4.971-4.029-9-9-9
					s-9,4.029-9,9c0,0.93,0.141,1.826,0.403,2.67C124.559,18.405,128,18.402,128,18.402z"/>
			</g>
		</g>
		<g>
			<g>
				<path class="st10" d="M168.379,64.512c-0.674,1.406-1.748,2.75-3.164,4.011c0,0,0,0,0,0l0,5.228
					c0.779-0.121,1.575-0.189,2.388-0.189c2.724,0,5.282,0.706,7.508,1.937V59.712C173.509,62.054,171.113,63.75,168.379,64.512z"/>
			</g>
		</g>
		<g>
			<g>
				<path class="st10" d="M90.785,73.75v-5.228c0,0,0,0,0.001,0c-1.416-1.261-2.49-2.605-3.164-4.011
					c-2.734-0.761-5.13-2.457-6.732-4.8v15.786c2.226-1.232,4.784-1.937,7.508-1.937C89.21,73.561,90.006,73.629,90.785,73.75z"/>
			</g>
		</g>
		<g>
			<g>
				<path class="st10" d="M152.036,113.011c-3.057-0.654-7.307-2.291-11.338-6.323c-4.835-4.835-9.904-2.539-11.86,0.117
					c-0.409,0.555-1.266,0.555-1.675,0c-1.956-2.656-7.025-4.952-11.86-0.117c-4.032,4.032-8.281,5.67-11.338,6.323
					c-1.585,0.339-1.996,2.403-0.65,3.305c10.942,7.331,19.919,2.279,23.272-0.23c0.841-0.63,1.986-0.63,2.827,0
					c3.353,2.509,12.33,7.561,23.272,0.23C154.032,115.414,153.62,113.349,152.036,113.011z"/>
			</g>
		</g>
		<g>
			<g>
				<path d="M179.545,255.04c-1.381,0-2.5-1.119-2.5-2.5v-56.645c0-1.381,1.119-2.5,2.5-2.5s2.5,1.119,2.5,2.5v56.645
					C182.045,253.921,180.926,255.04,179.545,255.04z"/>
			</g>
		</g>
		<g>
			<g>
				<path d="M76.455,255.04c-1.381,0-2.5-1.119-2.5-2.5v-56.645c0-1.381,1.119-2.5,2.5-2.5s2.5,1.119,2.5,2.5v56.645
					C78.955,253.921,77.836,255.04,76.455,255.04z"/>
			</g>
		</g>
		<g>
			<g>
				<path d="M202.549,256H53.451c-1.802,0-3.545-0.751-4.783-2.06s-1.89-3.091-1.79-4.889l4.115-70.957
					c0.42-7.546,5.63-13.859,12.964-15.705c1.445-0.312,2.939-0.706,4.521-1.124c5.308-1.401,11.914-3.146,21.178-3.26
					c0.01,0,0.021,0,0.031,0c1.367,0,2.482,1.1,2.5,2.47c0.017,1.381-1.089,2.514-2.47,2.53c-8.646,0.105-14.92,1.763-19.961,3.095
					c-1.64,0.433-3.189,0.842-4.664,1.158c-5.114,1.288-8.808,5.766-9.106,11.119l-4.115,70.957
					c-0.024,0.434,0.129,0.851,0.431,1.17c0.302,0.319,0.71,0.495,1.15,0.495h149.098c0.439,0,0.849-0.176,1.15-0.495
					s0.454-0.736,0.43-1.175l-4.114-70.947c-0.298-5.343-3.97-9.809-9.146-11.132c-0.912-0.191-2.007-0.479-3.27-0.813
					c-4.77-1.254-12.751-3.354-23.536-3.436c-1.38-0.011-2.491-1.139-2.48-2.52c0.011-1.374,1.128-2.48,2.5-2.48
					c0.006,0,0.013,0,0.02,0c11.411,0.087,19.772,2.286,24.769,3.601c1.221,0.321,2.275,0.599,3.069,0.763
					c0.034,0.008,0.068,0.016,0.103,0.023c7.333,1.846,12.543,8.159,12.964,15.71l4.114,70.946c0.101,1.804-0.552,3.586-1.789,4.895
					C206.094,255.249,204.351,256,202.549,256z"/>
			</g>
		</g>
		<g>
			<g>
				<path d="M127,175.328c-11.375,0-22.891-2.433-33.302-7.034c-2.449-1.082-4.338-3.16-5.181-5.699
					c-0.841-2.531-0.572-5.316,0.737-7.64l4.291-7.613c2.375-4.215,7.515-5.962,11.955-4.064c6.835,2.921,14.069,4.401,21.5,4.401
					s14.665-1.48,21.5-4.401c4.442-1.898,9.578-0.15,11.955,4.064l4.291,7.613l0,0c1.31,2.324,1.578,5.108,0.736,7.641
					c-0.844,2.539-2.731,4.616-5.181,5.698C149.891,172.896,138.375,175.328,127,175.328z M101.79,147.517
					c-1.566,0-3.072,0.831-3.889,2.28l-4.291,7.613c-0.627,1.113-0.751,2.396-0.348,3.608c0.405,1.222,1.278,2.182,2.458,2.703
					c9.779,4.322,20.596,6.606,31.28,6.606s21.501-2.284,31.28-6.606c1.179-0.521,2.052-1.481,2.457-2.702
					c0.403-1.214,0.28-2.496-0.347-3.609l-4.291-7.613c-1.121-1.987-3.542-2.816-5.635-1.922c-7.46,3.188-15.354,4.804-23.465,4.804
					c-8.109,0-16.004-1.616-23.465-4.804C102.967,147.632,102.374,147.517,101.79,147.517z"/>
			</g>
		</g>
		<g>
			<g>
				<path d="M114.895,230H98.105c-3.367,0-6.105-2.739-6.105-6.105v-57.187c0-1.381,1.119-2.5,2.5-2.5s2.5,1.119,2.5,2.5v57.187
					c0,0.609,0.496,1.105,1.105,1.105h16.789c0.609,0,1.105-0.496,1.105-1.105v-50.603c0-1.381,1.119-2.5,2.5-2.5s2.5,1.119,2.5,2.5
					v50.603C121,227.261,118.261,230,114.895,230z"/>
			</g>
		</g>
		<g>
			<g>
				<circle cx="145.005" cy="90.813" r="5.064"/>
			</g>
		</g>
		<g>
			<g>
				<circle cx="110.995" cy="90.813" r="5.064"/>
			</g>
		</g>
		<g>
			<g>
				<path d="M153.803,106.175h-9.356c-7.535,0-13.665-6.131-13.665-13.666v-6.472c0-5.631,4.581-10.212,10.212-10.212h16.263
					c5.631,0,10.212,4.581,10.212,10.212v6.472C167.468,100.044,161.338,106.175,153.803,106.175z M140.993,80.825
					c-2.874,0-5.212,2.338-5.212,5.212v6.472c0,4.778,3.887,8.666,8.665,8.666h9.356c4.778,0,8.665-3.888,8.665-8.666v-6.472
					c0-2.874-2.338-5.212-5.212-5.212H140.993z"/>
			</g>
		</g>
		<g>
			<g>
				<path d="M111.553,106.175h-9.355c-7.535,0-13.666-6.131-13.666-13.666v-6.472c0-5.631,4.581-10.212,10.212-10.212h16.263
					c5.631,0,10.212,4.581,10.212,10.212v6.472C125.219,100.044,119.088,106.175,111.553,106.175z M98.744,80.825
					c-2.874,0-5.212,2.338-5.212,5.212v6.472c0,4.778,3.887,8.666,8.666,8.666h9.355c4.778,0,8.666-3.888,8.666-8.666v-6.472
					c0-2.874-2.338-5.212-5.212-5.212H98.744z"/>
			</g>
		</g>
		<g>
			<g>
				<path d="M132.225,89.879h-8.45c-1.381,0-2.5-1.119-2.5-2.5s1.119-2.5,2.5-2.5h8.45c1.381,0,2.5,1.119,2.5,2.5
					S133.605,89.879,132.225,89.879z"/>
			</g>
		</g>
		<g>
			<g>
				<path d="M131.277,128.439h-6.555c-1.381,0-2.5-1.119-2.5-2.5s1.119-2.5,2.5-2.5h6.555c1.381,0,2.5,1.119,2.5,2.5
					S132.658,128.439,131.277,128.439z"/>
			</g>
		</g>
		<g>
			<g>
				<path d="M167.604,107.136c-0.505,0-1.029-0.026-1.558-0.077c-1.374-0.133-2.38-1.355-2.247-2.729
					c0.133-1.375,1.359-2.38,2.729-2.247c0.354,0.034,0.712,0.054,1.075,0.054c7.188,0,13.037-5.849,13.037-13.037
					c0-7.189-5.849-13.038-13.037-13.038c-0.422,0-0.862,0.023-1.31,0.069c-1.386,0.141-2.602-0.859-2.742-2.232
					c-0.141-1.374,0.859-2.602,2.232-2.742c0.615-0.063,1.228-0.095,1.819-0.095c9.945,0,18.037,8.092,18.037,18.038
					C185.641,99.044,177.549,107.136,167.604,107.136z"/>
			</g>
		</g>
		<g>
			<g>
				<path d="M88.397,107.136c-9.946,0-18.038-8.092-18.038-18.037c0-9.946,8.092-18.038,18.038-18.038
					c0.494,0,0.983,0.021,1.466,0.063c1.375,0.117,2.396,1.327,2.279,2.703c-0.117,1.376-1.336,2.389-2.703,2.279
					c-0.344-0.029-0.691-0.045-1.042-0.045c-7.189,0-13.038,5.849-13.038,13.038c0,7.188,5.849,13.037,13.038,13.037
					c0.346,0,0.688-0.018,1.025-0.049c1.38-0.142,2.592,0.886,2.719,2.26c0.127,1.375-0.885,2.593-2.26,2.719
					C89.376,107.112,88.876,107.136,88.397,107.136z"/>
			</g>
		</g>
		<g>
			<g>
				<path d="M128,81c-24.51,0-43.709-8.785-43.709-20c0.002-2.294,1.63-4.233,3.872-4.622C99.56,54.404,112.331,54,128,54
					s28.439,0.404,39.837,2.378h0.001c2.239,0.389,3.868,2.327,3.872,4.608C171.71,72.215,152.511,81,128,81z M89.298,61.256
					C89.684,68.288,105.469,76,128,76c22.538,0,38.327-7.717,38.703-14.744C155.727,59.386,143.28,59,128,59
					S100.274,59.386,89.298,61.256z M166.98,61.304c0.001,0,0.001,0,0.002,0C166.981,61.304,166.981,61.304,166.98,61.304z"/>
			</g>
		</g>
		<g>
			<g>
				<path d="M146.204,148.565c-0.967,0-1.887-0.564-2.296-1.509c-0.838-1.938-1.264-3.985-1.264-6.085v-5.389
					c0-1.381,1.119-2.5,2.5-2.5s2.5,1.119,2.5,2.5v5.389c0,1.412,0.287,2.792,0.854,4.101c0.548,1.267-0.035,2.738-1.303,3.287
					C146.872,148.499,146.535,148.565,146.204,148.565z"/>
			</g>
		</g>
		<g>
			<g>
				<path d="M109.441,149.316c-0.383,0-0.771-0.089-1.136-0.275c-1.229-0.628-1.716-2.134-1.088-3.363
					c0.745-1.457,1.138-3.084,1.138-4.706v-5.305c0-1.381,1.119-2.5,2.5-2.5s2.5,1.119,2.5,2.5v5.305
					c0,2.41-0.583,4.824-1.686,6.981C111.227,148.818,110.35,149.316,109.441,149.316z"/>
			</g>
		</g>
		<g>
			<g>
				<g>
					<path d="M128,141.639c-21.899,0-39.715-17.816-39.715-39.715V69.167c0-1.381,1.119-2.5,2.5-2.5s2.5,1.119,2.5,2.5v32.757
						c0,19.142,15.573,34.715,34.715,34.715s34.715-15.573,34.715-34.715V69c0-1.381,1.119-2.5,2.5-2.5s2.5,1.119,2.5,2.5v32.924
						C167.715,123.822,149.898,141.639,128,141.639z"/>
				</g>
			</g>
		</g>
		<g>
			<g>
				<path d="M87.299,66.918c-0.244,0-0.492-0.036-0.737-0.112c-4.592-1.415-8.171-4.941-9.573-9.432
					c-2.013-6.449-2.357-16.076,7.428-25.316C101.327,16.086,126.919,15.902,128,15.902s26.673,0.184,43.584,16.155
					c9.785,9.24,9.44,18.867,7.429,25.315c-1.398,4.478-4.963,7.998-9.535,9.42c-1.317,0.411-2.72-0.326-3.129-1.645
					c-0.41-1.318,0.326-2.72,1.645-3.129c3.003-0.935,5.338-3.229,6.246-6.136c2.31-7.401,0.261-14.195-6.089-20.191
					c-15.48-14.621-39.905-14.79-40.15-14.79c-0.244,0-24.708,0.206-40.15,14.79c-6.35,5.996-8.398,12.79-6.088,20.191
					c0.911,2.917,3.256,5.214,6.273,6.145c1.319,0.406,2.06,1.806,1.653,3.125C89.356,66.228,88.367,66.918,87.299,66.918z"/>
			</g>
		</g>
		<g>
			<g>
				<path d="M136.802,20.903c-0.175,0-0.352-0.019-0.528-0.057c-1.35-0.29-2.209-1.62-1.919-2.97
					c0.097-0.448,0.146-0.912,0.146-1.377c0-3.584-2.916-6.5-6.5-6.5s-6.5,2.916-6.5,6.5c0,0.406,0.038,0.813,0.112,1.208
					c0.254,1.357-0.641,2.663-1.998,2.917c-1.357,0.255-2.663-0.64-2.917-1.997c-0.13-0.698-0.197-1.414-0.197-2.128
					c0-6.341,5.159-11.5,11.5-11.5c6.341,0,11.5,5.159,11.5,11.5c0,0.817-0.087,1.635-0.257,2.428
					C138.991,20.101,137.954,20.903,136.802,20.903z"/>
			</g>
		</g>
		<g>
			<g>
				<path d="M175.111,77.5c-1.381,0-2.5-1.119-2.5-2.5V60.344c0-1.381,1.119-2.5,2.5-2.5s2.5,1.119,2.5,2.5V75
					C177.611,76.381,176.492,77.5,175.111,77.5z"/>
			</g>
		</g>
		<g>
			<g>
				<path d="M80.889,77.5c-1.381,0-2.5-1.119-2.5-2.5V60.021c0-1.381,1.119-2.5,2.5-2.5s2.5,1.119,2.5,2.5V75
					C83.389,76.381,82.27,77.5,80.889,77.5z"/>
			</g>
		</g>
		<g>
			<g>
				<path class="st7" d="M203.822,28.33c-4.498-0.838-8.043-4.31-8.898-8.716c-0.043-0.221-0.352-0.221-0.395,0
					c-0.855,4.406-4.4,7.879-8.898,8.716c-0.226,0.042-0.226,0.345,0,0.387c4.498,0.838,8.043,4.31,8.898,8.717
					c0.043,0.221,0.352,0.221,0.395,0c0.855-4.406,4.4-7.879,8.898-8.717C204.047,28.675,204.047,28.373,203.822,28.33z"/>
			</g>
		</g>
		<g>
			<g>
				<path class="st9" d="M202.515,112.101c-2.862-0.533-5.118-2.743-5.663-5.547c-0.027-0.141-0.224-0.141-0.251,0
					c-0.544,2.804-2.8,5.014-5.663,5.547c-0.144,0.027-0.144,0.219,0,0.246c2.862,0.533,5.118,2.743,5.663,5.547
					c0.027,0.141,0.224,0.141,0.251,0c0.544-2.804,2.8-5.014,5.663-5.547C202.658,112.32,202.658,112.128,202.515,112.101z"/>
			</g>
		</g>
		<g>
			<g>
				<path class="st6" d="M63.246,120.75h2.33v-2.33c0-1.744,1.413-3.157,3.157-3.157c1.744,0,3.157,1.413,3.157,3.157v2.33h2.329
					c1.744,0,3.157,1.413,3.157,3.157s-1.413,3.157-3.157,3.157h-2.329v2.33c0,1.744-1.413,3.157-3.157,3.157
					c-1.744,0-3.157-1.413-3.157-3.157v-2.33h-2.33c-1.744,0-3.157-1.413-3.157-3.157S61.502,120.75,63.246,120.75z"/>
			</g>
		</g>
		<g>
			<g>
				<circle class="st7" cx="53.755" cy="152.825" r="3.377"/>
			</g>
		</g>
		<g>
			<g>
				<circle class="st8" cx="177.755" cy="3.377" r="3.377"/>
			</g>
		</g>
		<g>
			<g>
				<path d="M141.12,122.656c-6.078,0-10.765-2.76-13.121-4.506c-3.844,2.85-13.902,8.401-26.077,0.243
					c-1.446-0.97-2.167-2.697-1.839-4.403c0.33-1.715,1.647-3.059,3.358-3.424c2.58-0.552,6.426-1.979,10.093-5.646
					c3.204-3.203,6.399-3.682,8.508-3.526c2.183,0.165,4.342,1.135,5.958,2.621c1.615-1.486,3.775-2.456,5.958-2.621
					c2.115-0.156,5.304,0.323,8.507,3.526c3.668,3.668,7.514,5.095,10.094,5.646c0,0,0,0,0.001,0c1.71,0.365,3.028,1.71,3.357,3.424
					c0.327,1.706-0.395,3.435-1.84,4.403C149.361,121.553,144.963,122.656,141.12,122.656z M128,113.106
					c1.021,0,2.041,0.326,2.912,0.979c3.461,2.59,10.408,6.015,19.057,0.983c-3.121-0.895-7.183-2.756-11.039-6.613
					c-1.494-1.494-3.042-2.197-4.595-2.075c-1.626,0.123-2.894,1.104-3.484,1.907c-0.66,0.897-1.727,1.434-2.851,1.434
					s-2.19-0.536-2.851-1.435c-0.591-0.802-1.858-1.783-3.483-1.906c-1.549-0.121-3.1,0.581-4.595,2.075
					c-3.856,3.857-7.917,5.719-11.039,6.614c8.65,5.028,15.597,1.606,19.057-0.984C125.959,113.433,126.979,113.106,128,113.106z"/>
			</g>
		</g>
	</g>
</g>
<g id="Layer_54">
</g>
<g id="Layer_55">
</g>
<g id="Layer_56">
</g>
<g id="Layer_57">
</g>
<g id="Layer_58">
</g>
<g id="Layer_59">
</g>
<g id="Layer_60">
</g>
<g id="Layer_61">
</g>
<g id="Layer_62">
</g>
<g id="Layer_63">
</g>
<g id="Layer_64">
</g>
<g id="Layer_65">
</g>
<g id="Layer_66">
</g>
<g id="Layer_67">
</g>
<g id="Layer_68">
</g>
<g id="Layer_69">
</g>
<g id="Layer_70">
</g>
<g id="Layer_71">
</g>
<g id="Layer_72">
</g>
<g id="Layer_73">
</g>
<g id="Layer_74">
</g>
<g id="Layer_75">
</g>
<g id="Layer_76">
</g>
<g id="Layer_77">
</g>
<g id="Layer_78">
</g>
<g id="Layer_79">
</g>
<g id="Layer_80">
</g>
</svg>
