<?xml version="1.0" encoding="utf-8"?>
<!-- Generator: Adobe Illustrator 24.0.0, SVG Export Plug-In . SVG Version: 6.00 Build 0)  -->
<svg version="1.1" xmlns="http://www.w3.org/2000/svg" xmlns:xlink="http://www.w3.org/1999/xlink" x="0px" y="0px"
	 viewBox="0 0 256 256" style="enable-background:new 0 0 256 256;" xml:space="preserve">
<style type="text/css">
	.st0{fill:#3A70BF;}
	.st1{fill:#EDF4FC;}
	.st2{fill:#C7D7E5;}
	.st3{fill:#F9D0B4;}
	.st4{fill:#5B5D60;}
	.st5{fill:#5290DB;}
	.st6{fill:#70D6F9;}
	.st7{fill:#F5C84C;}
	.st8{fill:#FC657E;}
	.st9{fill:#87D147;}
	.st10{fill:#FCDD86;}
	.st11{fill:#9BE5F9;}
	.st12{fill:#B2E26D;}
	.st13{fill:#754E34;}
	.st14{fill:#FCA265;}
	.st15{fill:#818182;}
	.st16{fill:#F94EED;}
	.st17{fill:#FFC197;}
	.st18{fill:#3CAADC;}
	.st19{fill:#DAE6F1;}
	.st20{fill:#57AF12;}
	.st21{fill:#EF4460;}
	.st22{fill:#FFF0CA;}
	.st23{fill:#F98FA6;}
	.st24{fill:#EDB311;}
	.st25{fill:#FC8C48;}
	.st26{fill:#FCB9CB;}
	.st27{fill:#96BC71;}
	.st28{fill:#78A352;}
	.st29{fill:#B8DD90;}
	.st30{fill:#6FAFEF;}
	.st31{fill:#29589F;}
	.st32{fill:#414344;}
	.st33{fill:#9B6B4B;}
	.st34{fill:#73B1EF;}
</style>
<g id="Layer_1">
</g>
<g id="Layer_2">
</g>
<g id="Layer_3">
</g>
<g id="Layer_4">
</g>
<g id="Layer_5">
</g>
<g id="Layer_6">
</g>
<g id="Layer_7">
</g>
<g id="Layer_8">
</g>
<g id="Layer_9">
</g>
<g id="Layer_10">
</g>
<g id="Layer_11">
</g>
<g id="Layer_12">
</g>
<g id="Layer_13">
</g>
<g id="Layer_14">
</g>
<g id="Layer_15">
</g>
<g id="Layer_16">
</g>
<g id="Layer_17">
</g>
<g id="Layer_18">
</g>
<g id="Layer_19">
</g>
<g id="Layer_20">
</g>
<g id="Layer_21">
</g>
<g id="Layer_22">
</g>
<g id="Layer_23">
</g>
<g id="Layer_24">
</g>
<g id="Layer_25">
</g>
<g id="Layer_26">
</g>
<g id="Layer_27">
</g>
<g id="Layer_28">
</g>
<g id="Layer_29">
</g>
<g id="Layer_30">
</g>
<g id="Layer_31">
</g>
<g id="Layer_32">
</g>
<g id="Layer_33">
</g>
<g id="Layer_34">
</g>
<g id="Layer_35">
</g>
<g id="Layer_36">
</g>
<g id="Layer_37">
	<g>
		<g>
			<g>
				<path class="st3" d="M109.598,56.772c-13.593,17.094-33.644,14.681-40.386,13.27c-1.225-0.256-2.401,0.667-2.402,1.919
					c0,0.008,0,0.017,0,0.025v29.936c0,20.468,16.747,37.215,37.215,37.215h0c20.468,0,37.215-16.747,37.215-37.215V68.772
					c0-0.194-0.002-0.388-0.006-0.582c-0.021-1.055-0.866-1.925-1.921-1.956c-15.46-0.453-23.606-6.581-26.736-9.649
					C111.722,55.747,110.343,55.836,109.598,56.772z"/>
			</g>
		</g>
		<g>
			<g>
				<g>
					<path class="st13" d="M64.422,73.561c0.813,0,1.609,0.069,2.388,0.189v-1.763c0-0.008,0-0.017,0-0.025
						c0.001-1.252,1.177-2.175,2.402-1.919c6.742,1.411,26.794,3.823,40.386-13.27c0.745-0.937,2.124-1.025,2.978-0.187
						c3.13,3.068,11.276,9.196,26.736,9.649c1.055,0.031,1.9,0.901,1.921,1.956c0.004,0.194,0.006,0.388,0.006,0.582v4.978
						c0.779-0.121,1.575-0.189,2.388-0.189c4.188,0,7.982,1.665,10.777,4.36V49.973c0-11.692-9.566-21.258-21.258-21.258
						c-3.966,0-7.673,1.121-10.859,3.031c-3.722-6.211-10.502-10.405-18.23-10.405H93.141c-21.127,0-38.413,17.286-38.413,38.413
						v17.212C57.386,74.84,60.752,73.561,64.422,73.561z"/>
				</g>
			</g>
		</g>
		<g>
			<g>
				<path class="st3" d="M143.628,73.561c-0.813,0-1.609,0.069-2.388,0.189c0,3.96,0,22.286,0,28.173
					c0,0.839-0.038,1.67-0.094,2.496c0.81,0.13,1.635,0.217,2.482,0.217c8.581,0,15.537-6.956,15.537-15.537
					S152.209,73.561,143.628,73.561z"/>
			</g>
		</g>
		<g>
			<g>
				<path class="st3" d="M66.81,101.923c0-3.856,0-20.507,0-28.173c-0.779-0.121-1.575-0.189-2.388-0.189
					c-8.581,0-15.538,6.957-15.538,15.538s6.956,15.537,15.538,15.537c0.847,0,1.672-0.086,2.482-0.217v-0.001
					C66.848,103.593,66.81,102.762,66.81,101.923z"/>
			</g>
		</g>
		<g>
			<g>
				<path class="st1" d="M135.214,154.265l-8.134-7.427c-0.753-0.687-1.917-0.646-2.619,0.092l-15.687,16.491
					c-0.77,0.81-0.78,2.078-0.022,2.899l8.157,8.837c0.936,1.014,2.552,0.97,3.431-0.094l15.054-18.223
					C136.031,156.071,135.951,154.938,135.214,154.265z"/>
			</g>
		</g>
		<g>
			<g>
				<path class="st1" d="M73.918,154.265l8.134-7.427c0.753-0.687,1.917-0.646,2.619,0.092l15.687,16.491
					c0.77,0.81,0.78,2.078,0.022,2.899l-8.157,8.837c-0.936,1.014-2.552,0.97-3.431-0.094L73.737,156.84
					C73.101,156.071,73.181,154.938,73.918,154.265z"/>
			</g>
		</g>
		<g>
			<g>
				<g>
					<path class="st25" d="M129.958,250.431v-24.665c0-1.695,1.374-3.068,3.069-3.068h1.382v-44.589
						c0-2.703,2.212-4.915,4.915-4.915h9.84v-13.121l-10.067-2.534l-3.296-1.625c-0.047,0.33-0.179,0.651-0.406,0.925
						l-15.054,18.224c-0.879,1.064-2.495,1.109-3.431,0.094l-8.157-8.837c-0.223-0.242-0.372-0.525-0.462-0.821h-7.449
						c-0.09,0.296-0.239,0.579-0.462,0.821l-8.157,8.837c-0.936,1.014-2.552,0.97-3.431-0.094L73.737,156.84
						c-0.227-0.275-0.358-0.596-0.406-0.925l-3.296,1.625l-28.902,7.275c-6.233,1.569-10.721,7.008-11.078,13.425l-4.115,70.951
						c-0.13,2.34,1.732,4.31,4.076,4.31h103.01C131.332,253.5,129.958,252.126,129.958,250.431z"/>
				</g>
			</g>
		</g>
		<g>
			<g>
				<path class="st3" d="M87.421,140.972c0,2.453-0.699,4.8-1.948,6.803l14.884,15.648c0.543,0.571,0.7,1.368,0.484,2.078h7.449
					c-0.216-0.709-0.059-1.507,0.484-2.078l14.884-15.648c-1.249-2.003-1.948-4.349-1.948-6.803v-6.335
					c-5.268,2.868-11.296,4.501-17.686,4.501h0c-5.959,0-11.597-1.427-16.604-3.945V140.972z"/>
			</g>
		</g>
		<g>
			<g>
				<path class="st5" d="M226.997,222.698h-93.97c-1.695,0-3.069,1.374-3.069,3.068v24.665c0,1.695,1.374,3.069,3.069,3.069h93.97
					c1.695,0,3.069-1.374,3.069-3.069v-24.665C230.066,224.071,228.692,222.698,226.997,222.698z"/>
			</g>
		</g>
		<g>
			<g>
				<path class="st8" d="M221.215,157.413v-12.442c0-2.193-1.778-3.971-3.971-3.971h-31.92c-2.193,0-3.971,1.778-3.971,3.971v12.442
					c0,2.193,1.778,3.971,3.971,3.971h31.92C219.437,161.384,221.215,159.606,221.215,157.413z"/>
			</g>
		</g>
		<g>
			<g>
				<g>
					<rect x="191.739" y="161.384" class="st5" width="18.899" height="11.81"/>
				</g>
			</g>
		</g>
		<g>
			<g>
				<path class="st5" d="M220.701,173.194h-51.493v10.834h-20.045v-10.834h-9.84c-2.703,0-4.915,2.212-4.915,4.915v44.589h91.207
					v-44.589C225.616,175.406,223.404,173.194,220.701,173.194z"/>
			</g>
		</g>
		<g>
			<g>
				<path class="st1" d="M87.122,217.373H69.01c-1.963,0-3.554-1.591-3.554-3.554v-10.756c0-1.963,1.591-3.554,3.554-3.554h18.112
					c1.963,0,3.554,1.591,3.554,3.554v10.756C90.675,215.782,89.084,217.373,87.122,217.373z"/>
			</g>
		</g>
		<g>
			<g>
				<path class="st30" d="M158.777,222.698v6.068c0,2.991,2.425,5.416,5.416,5.416h31.638c2.991,0,5.416-2.425,5.416-5.416v-6.068
					H158.777z"/>
			</g>
		</g>
		<g>
			<g>
				<path class="st1" d="M167.256,151.359h-16.141c-1.078,0-1.952,0.874-1.952,1.952v30.717h20.045v-30.717
					C169.208,152.233,168.334,151.359,167.256,151.359z"/>
			</g>
		</g>
		<g>
			<g>
				<path class="st6" d="M212.174,183.264h-21.97c-1.561,0-2.827,1.266-2.827,2.827v13.807c0,1.561,1.266,2.827,2.827,2.827h21.97
					c1.561,0,2.827-1.266,2.827-2.827v-13.807C215.001,184.53,213.735,183.264,212.174,183.264z"/>
			</g>
		</g>
		<g>
			<g>
				<path d="M104.025,141.638c-21.899,0-39.715-17.816-39.715-39.715V71.987c0.001-1.371,0.603-2.628,1.65-3.479
					c1.06-0.859,2.432-1.192,3.764-0.912c7.237,1.514,25.418,3.339,37.917-12.38v0c0.796-1,1.982-1.619,3.253-1.698
					c1.276-0.078,2.521,0.389,3.432,1.281c2.593,2.542,10.226,8.501,25.06,8.936c2.391,0.071,4.3,2.006,4.348,4.406
					c0.004,0.209,0.006,0.42,0.006,0.632v33.151C143.74,123.822,125.924,141.638,104.025,141.638z M69.31,72.613v29.311
					c0,19.142,15.573,34.715,34.715,34.715c19.142,0,34.715-15.573,34.715-34.715V68.772c0-0.019,0-0.038,0-0.056
					c-15.154-0.563-23.626-6.308-27.522-9.97C97.031,76.144,76.297,73.963,69.31,72.613z M111.554,58.329
					c0,0.001,0,0.001-0.001,0.002C111.553,58.33,111.554,58.33,111.554,58.329L111.554,58.329z"/>
			</g>
		</g>
		<g>
			<g>
				<g>
					<path d="M154.404,79.813c-1.381,0-2.5-1.119-2.5-2.5v-27.34c0-10.343-8.415-18.758-18.758-18.758
						c-3.344,0-6.655,0.925-9.574,2.675c-0.569,0.341-1.251,0.441-1.893,0.281c-0.644-0.161-1.196-0.571-1.537-1.14
						c-3.396-5.668-9.56-9.19-16.086-9.19H93.141c-19.803,0-35.913,16.111-35.913,35.914V76.22c0,1.381-1.119,2.5-2.5,2.5
						s-2.5-1.119-2.5-2.5V59.755c0-22.56,18.354-40.914,40.913-40.914h10.916c7.481,0,14.582,3.641,19.048,9.638
						c3.15-1.487,6.58-2.264,10.042-2.264c13.1,0,23.758,10.658,23.758,23.758v27.34C156.904,78.694,155.785,79.813,154.404,79.813z
						"/>
				</g>
			</g>
		</g>
		<g>
			<g>
				<path d="M53.021,255.04c-1.381,0-2.5-1.119-2.5-2.5v-56.644c0-1.381,1.119-2.5,2.5-2.5s2.5,1.119,2.5,2.5v56.644
					C55.521,253.92,54.402,255.04,53.021,255.04z"/>
			</g>
		</g>
		<g>
			<g>
				<path d="M143.628,107.136c-0.542,0-1.087-0.029-1.666-0.087c-1.374-0.14-2.374-1.367-2.234-2.741
					c0.14-1.374,1.355-2.379,2.741-2.234c0.408,0.042,0.787,0.062,1.159,0.062c7.189,0,13.038-5.849,13.038-13.038
					s-5.849-13.038-13.038-13.038c-0.408,0-0.828,0.021-1.247,0.063c-1.371,0.14-2.599-0.864-2.736-2.238
					c-0.138-1.374,0.864-2.599,2.238-2.736c0.583-0.059,1.17-0.088,1.745-0.088c9.946,0,18.038,8.092,18.038,18.038
					S153.574,107.136,143.628,107.136z"/>
			</g>
		</g>
		<g>
			<g>
				<path d="M64.422,107.136c-9.946,0-18.038-8.092-18.038-18.038s8.092-18.038,18.038-18.038c0.614,0,1.248,0.034,1.882,0.102
					c1.373,0.146,2.367,1.378,2.221,2.751c-0.146,1.373-1.367,2.37-2.751,2.221c-0.459-0.049-0.914-0.074-1.352-0.074
					c-7.189,0-13.038,5.849-13.038,13.038s5.849,13.038,13.038,13.038c0.33,0,0.656-0.016,0.979-0.044
					c1.383-0.121,2.589,0.896,2.709,2.271c0.121,1.375-0.896,2.588-2.271,2.709C65.371,107.113,64.899,107.136,64.422,107.136z"/>
			</g>
		</g>
		<g>
			<g>
				<path d="M104.566,118.573c-4.776,0-9.262-1.95-11.999-5.215c-0.887-1.058-0.748-2.635,0.31-3.522
					c1.059-0.887,2.636-0.747,3.522,0.31c1.798,2.146,4.852,3.427,8.167,3.427s6.369-1.281,8.167-3.426
					c0.887-1.058,2.463-1.197,3.522-0.31c1.058,0.887,1.197,2.464,0.31,3.522C113.828,116.624,109.342,118.573,104.566,118.573z"/>
			</g>
		</g>
		<g>
			<g>
				<circle cx="121.355" cy="90.816" r="5"/>
			</g>
		</g>
		<g>
			<g>
				<circle cx="87.776" cy="90.816" r="5"/>
			</g>
		</g>
		<g>
			<g>
				<path d="M118.584,178.391c-1.333,0-2.606-0.556-3.512-1.538l-8.157-8.836c-1.646-1.784-1.625-4.559,0.047-6.318l15.688-16.492
					c1.627-1.711,4.372-1.808,6.116-0.216l8.134,7.427h0c1.723,1.574,1.908,4.215,0.421,6.014l-15.053,18.223
					c-0.879,1.064-2.174,1.696-3.554,1.733C118.671,178.391,118.627,178.391,118.584,178.391z M110.831,164.887l7.744,8.389
					l14.512-17.568l-7.238-6.609L110.831,164.887z M133.526,156.109c0.001,0,0.001,0.001,0.002,0.002L133.526,156.109z"/>
			</g>
		</g>
		<g>
			<g>
				<path d="M90.548,178.391c-0.044,0-0.087,0-0.131-0.002c-1.379-0.038-2.674-0.669-3.553-1.733L71.81,158.432
					c-1.486-1.798-1.301-4.439,0.422-6.013c0,0,0,0,0,0l8.134-7.427c1.744-1.593,4.489-1.496,6.116,0.216l15.687,16.491
					c1.673,1.76,1.693,4.535,0.047,6.318l-8.157,8.836C93.153,177.835,91.879,178.391,90.548,178.391z M76.044,155.708
					l14.512,17.568l7.744-8.39l-15.018-15.788L76.044,155.708z M75.604,156.111c0-0.001,0.001-0.001,0.002-0.002L75.604,156.111
					L75.604,156.111z"/>
			</g>
		</g>
		<g>
			<g>
				<g>
					<path d="M148.289,162.353c-0.202,0-0.407-0.024-0.612-0.076l-9.19-2.313c-0.171-0.043-0.337-0.104-0.495-0.182l-2.722-1.342
						c-1.238-0.61-1.748-2.109-1.137-3.348c0.61-1.239,2.109-1.748,3.348-1.137l2.484,1.224l8.933,2.249
						c1.339,0.337,2.151,1.695,1.814,3.035C150.426,161.597,149.407,162.353,148.289,162.353z"/>
				</g>
			</g>
			<g>
				<g>
					<path d="M133.027,256H30.017c-1.802,0-3.545-0.75-4.783-2.06c-1.238-1.309-1.89-3.09-1.79-4.889l4.115-70.957
						c0.42-7.545,5.63-13.859,12.964-15.705l28.644-7.21l2.533-1.248c1.239-0.612,2.737-0.102,3.348,1.137
						c0.611,1.238,0.102,2.737-1.137,3.348l-2.771,1.366c-0.158,0.078-0.324,0.139-0.495,0.182l-28.901,7.274
						c-5.2,1.309-8.895,5.786-9.193,11.14l-4.115,70.957c-0.024,0.433,0.129,0.851,0.431,1.17c0.302,0.319,0.711,0.495,1.15,0.495
						h103.01c1.381,0,2.5,1.119,2.5,2.5S134.408,256,133.027,256z"/>
				</g>
			</g>
		</g>
		<g>
			<g>
				<path d="M123.385,149.812c-0.871,0-1.717-0.456-2.177-1.268c-1.307-2.305-1.997-4.923-1.997-7.572v-5.409
					c0-1.381,1.119-2.5,2.5-2.5s2.5,1.119,2.5,2.5v5.409c0,1.786,0.466,3.552,1.347,5.106c0.681,1.201,0.259,2.727-0.942,3.408
					C124.227,149.707,123.803,149.812,123.385,149.812z"/>
			</g>
		</g>
		<g>
			<g>
				<path d="M107.833,168h-6.645c-1.381,0-2.5-1.119-2.5-2.5s1.119-2.5,2.5-2.5h6.645c1.381,0,2.5,1.119,2.5,2.5
					S109.214,168,107.833,168z"/>
			</g>
		</g>
		<g>
			<g>
				<path d="M85.802,149.713c-0.411,0-0.827-0.102-1.211-0.315c-1.207-0.67-1.642-2.192-0.972-3.399
					c0.852-1.534,1.302-3.272,1.302-5.027v-5.181c0-1.381,1.119-2.5,2.5-2.5s2.5,1.119,2.5,2.5v5.181
					c0,2.603-0.668,5.18-1.931,7.455C87.533,149.25,86.681,149.713,85.802,149.713z"/>
			</g>
		</g>
		<g>
			<g>
				<path d="M104.566,182.703c-1.381,0-2.5-1.119-2.5-2.5v-1.35c0-1.381,1.119-2.5,2.5-2.5s2.5,1.119,2.5,2.5v1.35
					C107.066,181.583,105.947,182.703,104.566,182.703z"/>
			</g>
		</g>
		<g>
			<g>
				<path d="M104.566,194.703c-1.381,0-2.5-1.119-2.5-2.5v-1.35c0-1.381,1.119-2.5,2.5-2.5s2.5,1.119,2.5,2.5v1.35
					C107.066,193.583,105.947,194.703,104.566,194.703z"/>
			</g>
		</g>
		<g>
			<g>
				<path d="M104.566,206.703c-1.381,0-2.5-1.119-2.5-2.5v-1.35c0-1.381,1.119-2.5,2.5-2.5s2.5,1.119,2.5,2.5v1.35
					C107.066,205.583,105.947,206.703,104.566,206.703z"/>
			</g>
		</g>
		<g>
			<g>
				<path d="M226.998,256h-93.971c-3.07,0-5.568-2.498-5.568-5.568v-24.666c0-3.07,2.498-5.568,5.568-5.568h93.971
					c3.07,0,5.568,2.498,5.568,5.568v24.666C232.566,253.502,230.068,256,226.998,256z M133.027,225.198
					c-0.313,0-0.568,0.255-0.568,0.568v24.666c0,0.313,0.255,0.568,0.568,0.568h93.971c0.313,0,0.568-0.255,0.568-0.568v-24.666
					c0-0.313-0.255-0.568-0.568-0.568H133.027z"/>
			</g>
		</g>
		<g>
			<g>
				<path d="M217.244,163.884h-31.919c-3.568,0-6.471-2.903-6.471-6.471v-12.442c0-3.568,2.903-6.471,6.471-6.471h31.919
					c3.568,0,6.471,2.903,6.471,6.471v12.442C223.715,160.981,220.812,163.884,217.244,163.884z M185.325,143.5
					c-0.811,0-1.471,0.66-1.471,1.471v12.442c0,0.811,0.66,1.471,1.471,1.471h31.919c0.811,0,1.471-0.66,1.471-1.471v-12.442
					c0-0.811-0.66-1.471-1.471-1.471H185.325z"/>
			</g>
		</g>
		<g>
			<g>
				<g>
					<path d="M210.638,174.688c-1.381,0-2.5-1.119-2.5-2.5v-9.625c0-1.381,1.119-2.5,2.5-2.5s2.5,1.119,2.5,2.5v9.625
						C213.138,173.569,212.019,174.688,210.638,174.688z"/>
				</g>
			</g>
			<g>
				<g>
					<path d="M191.739,174.688c-1.381,0-2.5-1.119-2.5-2.5v-9.814c0-1.381,1.119-2.5,2.5-2.5s2.5,1.119,2.5,2.5v9.814
						C194.239,173.569,193.12,174.688,191.739,174.688z"/>
				</g>
			</g>
		</g>
		<g>
			<g>
				<path d="M211.089,153.692h-19.801c-1.381,0-2.5-1.119-2.5-2.5s1.119-2.5,2.5-2.5h19.801c1.381,0,2.5,1.119,2.5,2.5
					S212.47,153.692,211.089,153.692z"/>
			</g>
		</g>
		<g>
			<g>
				<path d="M172.02,186.528h-25.669c-1.381,0-2.5-1.119-2.5-2.5s1.119-2.5,2.5-2.5h25.669c1.381,0,2.5,1.119,2.5,2.5
					S173.401,186.528,172.02,186.528z"/>
			</g>
		</g>
		<g>
			<g>
				<path d="M225.616,224.458c-1.381,0-2.5-1.119-2.5-2.5v-43.849c0-1.332-1.083-2.415-2.415-2.415h-50.66
					c-1.381,0-2.5-1.119-2.5-2.5s1.119-2.5,2.5-2.5h50.66c4.088,0,7.415,3.326,7.415,7.415v43.849
					C228.116,223.338,226.997,224.458,225.616,224.458z"/>
			</g>
		</g>
		<g>
			<g>
				<path d="M134.409,224.5c-1.381,0-2.5-1.119-2.5-2.5v-43.891c0-4.089,3.326-7.415,7.415-7.415h9.146c1.381,0,2.5,1.119,2.5,2.5
					s-1.119,2.5-2.5,2.5h-9.146c-1.332,0-2.415,1.083-2.415,2.415V222C136.909,223.38,135.79,224.5,134.409,224.5z"/>
			</g>
		</g>
		<g>
			<g>
				<path d="M149.485,196.356h-3.3c-1.381,0-2.5-1.119-2.5-2.5s1.119-2.5,2.5-2.5h3.3c1.381,0,2.5,1.119,2.5,2.5
					S150.866,196.356,149.485,196.356z"/>
			</g>
		</g>
		<g>
			<g>
				<path d="M161.586,196.356h-3.3c-1.381,0-2.5-1.119-2.5-2.5s1.119-2.5,2.5-2.5h3.3c1.381,0,2.5,1.119,2.5,2.5
					S162.967,196.356,161.586,196.356z"/>
			</g>
		</g>
		<g>
			<g>
				<path d="M173.687,196.356h-3.3c-1.381,0-2.5-1.119-2.5-2.5s1.119-2.5,2.5-2.5h3.3c1.381,0,2.5,1.119,2.5,2.5
					S175.067,196.356,173.687,196.356z"/>
			</g>
		</g>
		<g>
			<g>
				<path d="M149.485,205.396h-3.3c-1.381,0-2.5-1.119-2.5-2.5s1.119-2.5,2.5-2.5h3.3c1.381,0,2.5,1.119,2.5,2.5
					S150.866,205.396,149.485,205.396z"/>
			</g>
		</g>
		<g>
			<g>
				<path d="M161.586,205.396h-3.3c-1.381,0-2.5-1.119-2.5-2.5s1.119-2.5,2.5-2.5h3.3c1.381,0,2.5,1.119,2.5,2.5
					S162.967,205.396,161.586,205.396z"/>
			</g>
		</g>
		<g>
			<g>
				<path d="M173.687,205.396h-3.3c-1.381,0-2.5-1.119-2.5-2.5s1.119-2.5,2.5-2.5h3.3c1.381,0,2.5,1.119,2.5,2.5
					S175.067,205.396,173.687,205.396z"/>
			</g>
		</g>
		<g>
			<g>
				<path d="M149.485,214.436h-3.3c-1.381,0-2.5-1.119-2.5-2.5s1.119-2.5,2.5-2.5h3.3c1.381,0,2.5,1.119,2.5,2.5
					S150.866,214.436,149.485,214.436z"/>
			</g>
		</g>
		<g>
			<g>
				<path d="M161.586,214.436h-3.3c-1.381,0-2.5-1.119-2.5-2.5s1.119-2.5,2.5-2.5h3.3c1.381,0,2.5,1.119,2.5,2.5
					S162.967,214.436,161.586,214.436z"/>
			</g>
		</g>
		<g>
			<g>
				<path d="M173.687,214.436h-3.3c-1.381,0-2.5-1.119-2.5-2.5s1.119-2.5,2.5-2.5h3.3c1.381,0,2.5,1.119,2.5,2.5
					S175.067,214.436,173.687,214.436z"/>
			</g>
		</g>
		<g>
			<g>
				<path d="M78.066,206.142c-1.381,0-2.5-1.119-2.5-2.5v-9.015c0-1.381,1.119-2.5,2.5-2.5s2.5,1.119,2.5,2.5v9.015
					C80.566,205.022,79.447,206.142,78.066,206.142z"/>
			</g>
		</g>
		<g>
			<g>
				<path class="st8" d="M183.822,28.33c-4.498-0.838-8.043-4.31-8.898-8.716c-0.043-0.221-0.352-0.221-0.395,0
					c-0.855,4.406-4.4,7.879-8.898,8.716c-0.226,0.042-0.226,0.345,0,0.387c4.498,0.838,8.043,4.31,8.898,8.717
					c0.043,0.221,0.352,0.221,0.395,0c0.855-4.406,4.4-7.879,8.898-8.717C184.047,28.675,184.047,28.373,183.822,28.33z"/>
			</g>
		</g>
		<g>
			<g>
				<path class="st7" d="M187.515,113.101c-2.862-0.533-5.118-2.743-5.663-5.547c-0.027-0.141-0.224-0.141-0.251,0
					c-0.544,2.804-2.8,5.014-5.663,5.547c-0.144,0.027-0.144,0.219,0,0.246c2.862,0.533,5.118,2.743,5.663,5.547
					c0.027,0.141,0.224,0.141,0.251,0c0.544-2.804,2.8-5.014,5.663-5.547C187.658,113.32,187.658,113.128,187.515,113.101z"/>
			</g>
		</g>
		<g>
			<g>
				<circle class="st8" cx="25.755" cy="154.825" r="3.377"/>
			</g>
		</g>
		<g>
			<g>
				<circle class="st9" cx="160.755" cy="3.377" r="3.377"/>
			</g>
		</g>
		<g>
			<g>
				<path class="st6" d="M32.246,122.75h2.33v-2.33c0-1.744,1.413-3.157,3.157-3.157c1.744,0,3.157,1.413,3.157,3.157v2.33h2.329
					c1.744,0,3.157,1.413,3.157,3.157s-1.413,3.157-3.157,3.157h-2.329v2.33c0,1.744-1.413,3.157-3.157,3.157
					c-1.744,0-3.157-1.413-3.157-3.157v-2.33h-2.33c-1.744,0-3.157-1.413-3.157-3.157S30.502,122.75,32.246,122.75z"/>
			</g>
		</g>
		<g>
			<g>
				<path d="M87.122,219.873H69.01c-3.338,0-6.053-2.716-6.053-6.054v-10.756c0-3.338,2.715-6.053,6.053-6.053h18.112
					c3.338,0,6.054,2.715,6.054,6.053v10.756C93.175,217.157,90.459,219.873,87.122,219.873z M69.01,202.01
					c-0.581,0-1.053,0.473-1.053,1.053v10.756c0,0.581,0.473,1.054,1.053,1.054h18.112c0.581,0,1.054-0.473,1.054-1.054v-10.756
					c0-0.581-0.473-1.053-1.054-1.053H69.01z"/>
			</g>
		</g>
		<g>
			<g>
				<path d="M195.831,236.682h-31.638c-4.365,0-7.916-3.551-7.916-7.916v-4.954c0-1.381,1.119-2.5,2.5-2.5s2.5,1.119,2.5,2.5v4.954
					c0,1.608,1.308,2.916,2.916,2.916h31.638c1.608,0,2.916-1.308,2.916-2.916v-5.474c0-1.381,1.119-2.5,2.5-2.5s2.5,1.119,2.5,2.5
					v5.474C203.747,233.131,200.196,236.682,195.831,236.682z"/>
			</g>
		</g>
		<g>
			<g>
				<path d="M169.208,185.667c-1.381,0-2.5-1.119-2.5-2.5v-29.309h-15.045v29.017c0,1.381-1.119,2.5-2.5,2.5s-2.5-1.119-2.5-2.5
					v-29.564c0-2.455,1.997-4.452,4.452-4.452h16.141c2.455,0,4.452,1.997,4.452,4.452v29.856
					C171.708,184.548,170.589,185.667,169.208,185.667z"/>
			</g>
		</g>
		<g>
			<g>
				<path d="M212.174,205.227h-21.97c-2.938,0-5.327-2.39-5.327-5.327v-13.808c0-2.938,2.39-5.328,5.327-5.328h21.97
					c2.938,0,5.327,2.39,5.327,5.328v13.808C217.501,202.837,215.111,205.227,212.174,205.227z M190.204,185.764
					c-0.18,0-0.327,0.147-0.327,0.328v13.808c0,0.18,0.147,0.327,0.327,0.327h21.97c0.18,0,0.327-0.147,0.327-0.327v-13.808
					c0-0.181-0.147-0.328-0.327-0.328H190.204z"/>
			</g>
		</g>
	</g>
</g>
<g id="Layer_38">
</g>
<g id="Layer_39">
</g>
<g id="Layer_40">
</g>
<g id="Layer_41">
</g>
<g id="Layer_42">
</g>
<g id="Layer_43">
</g>
<g id="Layer_44">
</g>
<g id="Layer_45">
</g>
<g id="Layer_46">
</g>
<g id="Layer_47">
</g>
<g id="Layer_48">
</g>
<g id="Layer_49">
</g>
<g id="Layer_50">
</g>
<g id="Layer_51">
</g>
<g id="Layer_52">
</g>
<g id="Layer_53">
</g>
<g id="Layer_54">
</g>
<g id="Layer_55">
</g>
<g id="Layer_56">
</g>
<g id="Layer_57">
</g>
<g id="Layer_58">
</g>
<g id="Layer_59">
</g>
<g id="Layer_60">
</g>
<g id="Layer_61">
</g>
<g id="Layer_62">
</g>
<g id="Layer_63">
</g>
<g id="Layer_64">
</g>
<g id="Layer_65">
</g>
<g id="Layer_66">
</g>
<g id="Layer_67">
</g>
<g id="Layer_68">
</g>
<g id="Layer_69">
</g>
<g id="Layer_70">
</g>
<g id="Layer_71">
</g>
<g id="Layer_72">
</g>
<g id="Layer_73">
</g>
<g id="Layer_74">
</g>
<g id="Layer_75">
</g>
<g id="Layer_76">
</g>
<g id="Layer_77">
</g>
<g id="Layer_78">
</g>
<g id="Layer_79">
</g>
<g id="Layer_80">
</g>
</svg>
