<?xml version="1.0" encoding="utf-8"?>
<!-- Generator: Adobe Illustrator 24.0.0, SVG Export Plug-In . SVG Version: 6.00 Build 0)  -->
<svg version="1.1" xmlns="http://www.w3.org/2000/svg" xmlns:xlink="http://www.w3.org/1999/xlink" x="0px" y="0px"
	 viewBox="0 0 256 256" style="enable-background:new 0 0 256 256;" xml:space="preserve">
<style type="text/css">
	.st0{fill:#3A70BF;}
	.st1{fill:#EDF4FC;}
	.st2{fill:#C7D7E5;}
	.st3{fill:#F9D0B4;}
	.st4{fill:#5B5D60;}
	.st5{fill:#5290DB;}
	.st6{fill:#70D6F9;}
	.st7{fill:#F5C84C;}
	.st8{fill:#FC657E;}
	.st9{fill:#87D147;}
	.st10{fill:#FCDD86;}
	.st11{fill:#9BE5F9;}
	.st12{fill:#B2E26D;}
	.st13{fill:#754E34;}
	.st14{fill:#FCA265;}
	.st15{fill:#818182;}
	.st16{fill:#F94EED;}
	.st17{fill:#FFC197;}
	.st18{fill:#3CAADC;}
	.st19{fill:#DAE6F1;}
	.st20{fill:#57AF12;}
	.st21{fill:#EF4460;}
	.st22{fill:#FFF0CA;}
	.st23{fill:#F98FA6;}
	.st24{fill:#EDB311;}
	.st25{fill:#FC8C48;}
	.st26{fill:#FCB9CB;}
	.st27{fill:#96BC71;}
	.st28{fill:#78A352;}
	.st29{fill:#B8DD90;}
	.st30{fill:#6FAFEF;}
	.st31{fill:#29589F;}
	.st32{fill:#414344;}
	.st33{fill:#9B6B4B;}
	.st34{fill:#73B1EF;}
</style>
<g id="Layer_1">
</g>
<g id="Layer_2">
</g>
<g id="Layer_3">
</g>
<g id="Layer_4">
</g>
<g id="Layer_5">
</g>
<g id="Layer_6">
</g>
<g id="Layer_7">
</g>
<g id="Layer_8">
</g>
<g id="Layer_9">
</g>
<g id="Layer_10">
</g>
<g id="Layer_11">
</g>
<g id="Layer_12">
</g>
<g id="Layer_13">
</g>
<g id="Layer_14">
</g>
<g id="Layer_15">
</g>
<g id="Layer_16">
</g>
<g id="Layer_17">
</g>
<g id="Layer_18">
</g>
<g id="Layer_19">
</g>
<g id="Layer_20">
</g>
<g id="Layer_21">
</g>
<g id="Layer_22">
</g>
<g id="Layer_23">
</g>
<g id="Layer_24">
</g>
<g id="Layer_25">
</g>
<g id="Layer_26">
</g>
<g id="Layer_27">
</g>
<g id="Layer_28">
</g>
<g id="Layer_29">
</g>
<g id="Layer_30">
</g>
<g id="Layer_31">
</g>
<g id="Layer_32">
</g>
<g id="Layer_33">
</g>
<g id="Layer_34">
</g>
<g id="Layer_35">
</g>
<g id="Layer_36">
</g>
<g id="Layer_37">
</g>
<g id="Layer_38">
	<g>
		<g>
			<g>
				<path class="st5" d="M225.096,222.698h-93.97c-1.695,0-3.069,1.374-3.069,3.068v24.665c0,1.695,1.374,3.069,3.069,3.069h93.97
					c1.695,0,3.069-1.374,3.069-3.069v-24.665C228.164,224.071,226.79,222.698,225.096,222.698z"/>
			</g>
		</g>
		<g>
			<g>
				<path class="st8" d="M219.314,157.413v-12.442c0-2.193-1.778-3.971-3.971-3.971h-31.92c-2.193,0-3.971,1.778-3.971,3.971v12.442
					c0,2.193,1.778,3.971,3.971,3.971h31.92C217.536,161.384,219.314,159.606,219.314,157.413z"/>
			</g>
		</g>
		<g>
			<g>
				<g>
					<rect x="189.837" y="161.384" class="st5" width="18.899" height="11.81"/>
				</g>
			</g>
		</g>
		<g>
			<g>
				<path class="st5" d="M218.799,173.194h-51.493v10.834h-20.045v-10.834h-9.84c-2.703,0-4.915,2.212-4.915,4.915v44.589h91.207
					v-44.589C223.714,175.406,221.502,173.194,218.799,173.194z"/>
			</g>
		</g>
		<g>
			<g>
				<path class="st1" d="M165.354,151.359h-16.141c-1.078,0-1.952,0.874-1.952,1.952v30.717h20.045v-30.717
					C167.306,152.233,166.432,151.359,165.354,151.359z"/>
			</g>
		</g>
		<g>
			<g>
				<path class="st30" d="M156.876,222.698v6.068c0,2.991,2.425,5.416,5.416,5.416h31.638c2.991,0,5.416-2.425,5.416-5.416v-6.068
					H156.876z"/>
			</g>
		</g>
		<g>
			<g>
				<path class="st6" d="M210.272,183.264h-21.97c-1.561,0-2.827,1.266-2.827,2.827v13.807c0,1.561,1.266,2.827,2.827,2.827h21.97
					c1.561,0,2.827-1.266,2.827-2.827v-13.807C213.099,184.53,211.833,183.264,210.272,183.264z"/>
			</g>
		</g>
		<g>
			<g>
				<path class="st3" d="M139.625,71.985c-0.759,0-1.502,0.064-2.229,0.177c0,3.696,0,20.799,0,26.293v0v0
					c0,0.783-0.036,1.558-0.088,2.329c0.756,0.122,1.526,0.202,2.316,0.202c8.009,0,14.501-6.492,14.501-14.501
					C154.125,78.477,147.633,71.985,139.625,71.985z"/>
			</g>
		</g>
		<g>
			<g>
				<path class="st3" d="M119.277,60.642c-5.29,6.174-24.047,24.906-51.344,17.13v20.684c0,19.102,15.629,34.732,34.732,34.732l0,0
					c19.102,0,34.732-15.629,34.732-34.732v-28.06c0-1.276-0.893-2.358-2.136-2.646c-3.515-0.814-7.782-2.85-12.673-7.294
					C121.619,59.577,120.127,59.649,119.277,60.642z"/>
			</g>
		</g>
		<g>
			<g>
				<path class="st3" d="M67.933,77.771c-2.385-0.679-4.834-1.559-7.346-2.668c-1.619-0.715-3.511-0.386-4.803,0.825
					c-2.817,2.641-4.581,6.39-4.581,10.557c0,8.008,6.492,14.501,14.501,14.501c0.79,0,1.56-0.08,2.316-0.202
					c-0.052-0.771-0.088-1.546-0.088-2.329V77.771z"/>
			</g>
		</g>
		<g>
			<g>
				<g>
					<path class="st13" d="M55.784,75.929c1.291-1.211,3.183-1.54,4.803-0.825c2.512,1.109,4.961,1.988,7.346,2.668
						c27.297,7.776,46.055-10.956,51.344-17.13c0.85-0.992,2.342-1.065,3.309-0.186c4.892,4.445,9.159,6.48,12.673,7.294
						c1.243,0.288,2.136,1.37,2.136,2.646v1.766c0.727-0.113,1.47-0.177,2.229-0.177c4.012,0,7.643,1.63,10.268,4.263v-8.494
						c0-25.976-21.253-47.229-47.229-47.229c-25.976,0-47.229,21.253-47.229,47.229v8.535
						C55.553,76.171,55.662,76.043,55.784,75.929z"/>
				</g>
			</g>
		</g>
		<g>
			<g>
				<path class="st13" d="M133.912,152.754c1.691,0.777,3.447,1.406,5.253,1.861l8.096,2.044v-3.348
					c0-1.078,0.874-1.952,1.952-1.952h6.81c-3.085-11.859-14.556-20.182-10.685-29.859c4.1-10.251,3.995-18.131,2.92-23.384
					c-2.414,1.795-5.395,2.871-8.634,2.871c-0.79,0-1.56-0.081-2.316-0.202c-0.816,12.152-7.945,22.646-18.124,28.194v10.533
					c0,2.163,0.738,4.205,2.005,5.86l1.37-1.441c0.702-0.739,1.866-0.779,2.619-0.092l8.134,7.427
					C133.744,151.659,133.943,152.21,133.912,152.754z"/>
			</g>
		</g>
		<g>
			<g>
				<path class="st13" d="M72.016,151.265l8.134-7.427c0.753-0.687,1.917-0.646,2.619,0.092l1.37,1.441
					c1.267-1.655,2.005-3.696,2.005-5.86v-10.533c-10.179-5.548-17.308-16.042-18.124-28.194c-0.756,0.122-1.526,0.202-2.316,0.202
					c-3.239,0-6.22-1.075-8.634-2.87c-1.075,5.253-1.18,13.133,2.92,23.384c4.655,11.637-12.887,21.309-11.338,37.536l17.511-4.42
					c1.806-0.455,3.562-1.084,5.253-1.861C71.385,152.21,71.585,151.659,72.016,151.265z"/>
			</g>
		</g>
		<g>
			<g>
				<g>
					<path class="st25" d="M128.057,250.431v-24.665c0-1.695,1.374-3.068,3.069-3.068h1.382v-44.589
						c0-2.703,2.212-4.915,4.915-4.915h9.84v-16.535l-8.096-2.044c-1.806-0.455-3.562-1.084-5.253-1.861
						c-0.022,0.385-0.155,0.767-0.419,1.086l-15.054,18.224c-0.879,1.064-2.495,1.109-3.431,0.094l-8.157-8.837
						c-0.468-0.508-0.642-1.186-0.526-1.821h-7.323c0.116,0.635-0.057,1.313-0.526,1.821l-8.157,8.837
						c-0.936,1.014-2.552,0.97-3.431-0.094L71.835,153.84c-0.264-0.319-0.397-0.701-0.419-1.086
						c-1.691,0.777-3.447,1.406-5.253,1.861l-24.833,6.269c-6.044,1.521-10.396,6.796-10.743,13.019l-2.744,75.418
						c-0.127,2.269,1.68,4.179,3.953,4.179h21.99c1.478,0,2.677-1.198,2.677-2.677v-47.143l3.883,12.439
						c2.539,8.133,3.83,16.604,3.83,25.124v9.58c0,1.478,1.198,2.677,2.677,2.677h30.345h10.936h22.993
						C129.431,253.5,128.057,252.126,128.057,250.431z"/>
				</g>
			</g>
		</g>
		<g>
			<g>
				<path class="st3" d="M102.664,133.187c-5.97,0-11.6-1.526-16.52-4.208v10.533c0,2.163-0.738,4.205-2.005,5.86l14.317,15.051
					c0.294,0.309,0.475,0.685,0.547,1.078h7.323c0.072-0.393,0.253-0.769,0.547-1.078l14.317-15.051
					c-1.267-1.655-2.005-3.696-2.005-5.86v-10.533C114.264,131.661,108.634,133.187,102.664,133.187z"/>
			</g>
		</g>
		<g>
			<g>
				<path class="st1" d="M89.22,211.373H71.108c-1.963,0-3.554-1.591-3.554-3.554v-10.756c0-1.963,1.591-3.554,3.554-3.554H89.22
					c1.963,0,3.554,1.591,3.554,3.554v10.756C92.774,209.782,91.183,211.373,89.22,211.373z"/>
			</g>
		</g>
		<g>
			<g>
				<path class="st1" d="M133.313,151.265l-8.134-7.427c-0.753-0.687-1.917-0.646-2.619,0.092l-15.687,16.491
					c-0.77,0.81-0.78,2.078-0.022,2.899l8.157,8.837c0.936,1.014,2.552,0.97,3.431-0.094l15.054-18.223
					C134.129,153.071,134.049,151.938,133.313,151.265z"/>
			</g>
		</g>
		<g>
			<g>
				<path class="st1" d="M72.016,151.265l8.134-7.427c0.753-0.687,1.917-0.646,2.619,0.092l15.687,16.491
					c0.77,0.81,0.78,2.078,0.022,2.899l-8.157,8.837c-0.936,1.014-2.552,0.97-3.431-0.094L71.835,153.84
					C71.199,153.071,71.279,151.938,72.016,151.265z"/>
			</g>
		</g>
		<g>
			<g>
				<path d="M102.664,117.757c-4.776,0-9.262-1.95-11.999-5.215c-0.887-1.058-0.748-2.635,0.31-3.522
					c1.06-0.887,2.635-0.747,3.522,0.31c1.798,2.146,4.852,3.427,8.167,3.427c3.315,0,6.369-1.281,8.167-3.427
					c0.887-1.058,2.463-1.197,3.522-0.31c1.058,0.887,1.197,2.464,0.31,3.522C111.926,115.808,107.44,117.757,102.664,117.757z"/>
			</g>
		</g>
		<g>
			<g>
				<circle cx="117.775" cy="90.5" r="4.5"/>
			</g>
		</g>
		<g>
			<g>
				<circle cx="87.554" cy="90.5" r="4.5"/>
			</g>
		</g>
		<g>
			<g>
				<path d="M102.664,177.703c-1.381,0-2.5-1.119-2.5-2.5v-1.35c0-1.381,1.119-2.5,2.5-2.5s2.5,1.119,2.5,2.5v1.35
					C105.164,176.583,104.045,177.703,102.664,177.703z"/>
			</g>
		</g>
		<g>
			<g>
				<path d="M102.664,189.703c-1.381,0-2.5-1.119-2.5-2.5v-1.35c0-1.381,1.119-2.5,2.5-2.5s2.5,1.119,2.5,2.5v1.35
					C105.164,188.583,104.045,189.703,102.664,189.703z"/>
			</g>
		</g>
		<g>
			<g>
				<path d="M102.664,201.703c-1.381,0-2.5-1.119-2.5-2.5v-1.35c0-1.381,1.119-2.5,2.5-2.5s2.5,1.119,2.5,2.5v1.35
					C105.164,200.583,104.045,201.703,102.664,201.703z"/>
			</g>
		</g>
		<g>
			<g>
				<path d="M225.096,256h-93.971c-3.07,0-5.568-2.498-5.568-5.568v-24.666c0-3.07,2.498-5.568,5.568-5.568h93.971
					c3.07,0,5.568,2.498,5.568,5.568v24.666C230.664,253.502,228.166,256,225.096,256z M131.125,225.198
					c-0.313,0-0.568,0.255-0.568,0.568v24.666c0,0.313,0.255,0.568,0.568,0.568h93.971c0.313,0,0.568-0.255,0.568-0.568v-24.666
					c0-0.313-0.255-0.568-0.568-0.568H131.125z"/>
			</g>
		</g>
		<g>
			<g>
				<path d="M215.343,163.884h-31.92c-3.568,0-6.471-2.903-6.471-6.471v-12.442c0-3.568,2.902-6.471,6.471-6.471h31.92
					c3.568,0,6.471,2.903,6.471,6.471v12.442C221.813,160.981,218.911,163.884,215.343,163.884z M183.423,143.5
					c-0.811,0-1.471,0.66-1.471,1.471v12.442c0,0.811,0.66,1.471,1.471,1.471h31.92c0.811,0,1.471-0.66,1.471-1.471v-12.442
					c0-0.811-0.66-1.471-1.471-1.471H183.423z"/>
			</g>
		</g>
		<g>
			<g>
				<g>
					<path d="M208.736,174.688c-1.381,0-2.5-1.119-2.5-2.5v-9.75c0-1.381,1.119-2.5,2.5-2.5s2.5,1.119,2.5,2.5v9.75
						C211.236,173.569,210.117,174.688,208.736,174.688z"/>
				</g>
			</g>
			<g>
				<g>
					<path d="M189.838,174.688c-1.381,0-2.5-1.119-2.5-2.5v-9.938c0-1.381,1.119-2.5,2.5-2.5s2.5,1.119,2.5,2.5v9.938
						C192.338,173.568,191.219,174.688,189.838,174.688z"/>
				</g>
			</g>
		</g>
		<g>
			<g>
				<path d="M209.187,153.692h-19.801c-1.381,0-2.5-1.119-2.5-2.5s1.119-2.5,2.5-2.5h19.801c1.381,0,2.5,1.119,2.5,2.5
					S210.568,153.692,209.187,153.692z"/>
			</g>
		</g>
		<g>
			<g>
				<path d="M170.118,186.528h-25.669c-1.381,0-2.5-1.119-2.5-2.5s1.119-2.5,2.5-2.5h25.669c1.381,0,2.5,1.119,2.5,2.5
					S171.499,186.528,170.118,186.528z"/>
			</g>
		</g>
		<g>
			<g>
				<path d="M223.714,224.542c-1.381,0-2.5-1.119-2.5-2.5v-43.933c0-1.332-1.083-2.415-2.415-2.415h-50.673
					c-1.381,0-2.5-1.119-2.5-2.5s1.119-2.5,2.5-2.5h50.673c4.089,0,7.415,3.326,7.415,7.415v43.933
					C226.214,223.422,225.095,224.542,223.714,224.542z"/>
			</g>
		</g>
		<g>
			<g>
				<path d="M132.507,224.406c-1.381,0-2.5-1.119-2.5-2.5v-43.797c0-4.089,3.326-7.415,7.415-7.415h8.828c1.381,0,2.5,1.119,2.5,2.5
					s-1.119,2.5-2.5,2.5h-8.828c-1.332,0-2.415,1.083-2.415,2.415v43.797C135.007,223.287,133.888,224.406,132.507,224.406z"/>
			</g>
		</g>
		<g>
			<g>
				<path d="M147.583,196.356h-3.3c-1.381,0-2.5-1.119-2.5-2.5s1.119-2.5,2.5-2.5h3.3c1.381,0,2.5,1.119,2.5,2.5
					S148.964,196.356,147.583,196.356z"/>
			</g>
		</g>
		<g>
			<g>
				<path d="M159.685,196.356h-3.301c-1.381,0-2.5-1.119-2.5-2.5s1.119-2.5,2.5-2.5h3.301c1.381,0,2.5,1.119,2.5,2.5
					S161.065,196.356,159.685,196.356z"/>
			</g>
		</g>
		<g>
			<g>
				<path d="M171.785,196.356h-3.301c-1.381,0-2.5-1.119-2.5-2.5s1.119-2.5,2.5-2.5h3.301c1.381,0,2.5,1.119,2.5,2.5
					S173.166,196.356,171.785,196.356z"/>
			</g>
		</g>
		<g>
			<g>
				<path d="M147.583,205.396h-3.3c-1.381,0-2.5-1.119-2.5-2.5s1.119-2.5,2.5-2.5h3.3c1.381,0,2.5,1.119,2.5,2.5
					S148.964,205.396,147.583,205.396z"/>
			</g>
		</g>
		<g>
			<g>
				<path d="M159.685,205.396h-3.301c-1.381,0-2.5-1.119-2.5-2.5s1.119-2.5,2.5-2.5h3.301c1.381,0,2.5,1.119,2.5,2.5
					S161.065,205.396,159.685,205.396z"/>
			</g>
		</g>
		<g>
			<g>
				<path d="M171.785,205.396h-3.301c-1.381,0-2.5-1.119-2.5-2.5s1.119-2.5,2.5-2.5h3.301c1.381,0,2.5,1.119,2.5,2.5
					S173.166,205.396,171.785,205.396z"/>
			</g>
		</g>
		<g>
			<g>
				<path d="M147.583,214.436h-3.3c-1.381,0-2.5-1.119-2.5-2.5s1.119-2.5,2.5-2.5h3.3c1.381,0,2.5,1.119,2.5,2.5
					S148.964,214.436,147.583,214.436z"/>
			</g>
		</g>
		<g>
			<g>
				<path d="M159.685,214.436h-3.301c-1.381,0-2.5-1.119-2.5-2.5s1.119-2.5,2.5-2.5h3.301c1.381,0,2.5,1.119,2.5,2.5
					S161.065,214.436,159.685,214.436z"/>
			</g>
		</g>
		<g>
			<g>
				<path d="M171.785,214.436h-3.301c-1.381,0-2.5-1.119-2.5-2.5s1.119-2.5,2.5-2.5h3.301c1.381,0,2.5,1.119,2.5,2.5
					S173.166,214.436,171.785,214.436z"/>
			</g>
		</g>
		<g>
			<g>
				<path d="M80.164,200.142c-1.381,0-2.5-1.119-2.5-2.5v-9.015c0-1.381,1.119-2.5,2.5-2.5s2.5,1.119,2.5,2.5v9.015
					C82.664,199.022,81.545,200.142,80.164,200.142z"/>
			</g>
		</g>
		<g>
			<g>
				<path class="st7" d="M46.822,125.33c-4.498-0.838-8.043-4.31-8.898-8.716c-0.043-0.221-0.352-0.221-0.395,0
					c-0.855,4.406-4.4,7.879-8.898,8.716c-0.226,0.042-0.226,0.345,0,0.387c4.498,0.838,8.043,4.31,8.898,8.717
					c0.043,0.221,0.352,0.221,0.395,0c0.855-4.406,4.4-7.879,8.898-8.717C47.047,125.675,47.047,125.373,46.822,125.33z"/>
			</g>
		</g>
		<g>
			<g>
				<path class="st9" d="M177.515,113.101c-2.862-0.533-5.118-2.743-5.663-5.547c-0.027-0.141-0.224-0.141-0.251,0
					c-0.544,2.804-2.8,5.014-5.663,5.547c-0.144,0.027-0.144,0.219,0,0.246c2.862,0.533,5.118,2.743,5.663,5.547
					c0.027,0.141,0.224,0.141,0.251,0c0.544-2.804,2.8-5.014,5.663-5.547C177.658,113.32,177.658,113.128,177.515,113.101z"/>
			</g>
		</g>
		<g>
			<g>
				<path class="st6" d="M158.246,25.75h2.33v-2.33c0-1.744,1.413-3.157,3.157-3.157s3.157,1.413,3.157,3.157v2.33h2.329
					c1.744,0,3.157,1.413,3.157,3.157s-1.413,3.157-3.157,3.157h-2.329v2.33c0,1.744-1.413,3.157-3.157,3.157
					s-3.157-1.413-3.157-3.157v-2.33h-2.33c-1.744,0-3.157-1.413-3.157-3.157S156.502,25.75,158.246,25.75z"/>
			</g>
		</g>
		<g>
			<g>
				<circle class="st6" cx="25.755" cy="154.825" r="3.377"/>
			</g>
		</g>
		<g>
			<g>
				<circle class="st8" cx="150.755" cy="3.377" r="3.377"/>
			</g>
		</g>
		<g>
			<g>
				<path d="M167.307,185.833c-1.381,0-2.5-1.119-2.5-2.5v-29.474h-15.045V183c0,1.381-1.119,2.5-2.5,2.5s-2.5-1.119-2.5-2.5
					v-29.688c0-2.455,1.997-4.452,4.452-4.452h16.141c2.455,0,4.452,1.997,4.452,4.452v30.021
					C169.807,184.713,168.687,185.833,167.307,185.833z"/>
			</g>
		</g>
		<g>
			<g>
				<path d="M193.93,236.682h-31.638c-4.365,0-7.916-3.551-7.916-7.916v-5.308c0-1.381,1.119-2.5,2.5-2.5s2.5,1.119,2.5,2.5v5.308
					c0,1.608,1.309,2.916,2.916,2.916h31.638c1.607,0,2.916-1.308,2.916-2.916v-4.953c0-1.381,1.119-2.5,2.5-2.5s2.5,1.119,2.5,2.5
					v4.953C201.846,233.131,198.295,236.682,193.93,236.682z"/>
			</g>
		</g>
		<g>
			<g>
				<path d="M210.272,205.227h-21.971c-2.938,0-5.327-2.39-5.327-5.327v-13.808c0-2.938,2.39-5.328,5.327-5.328h21.971
					c2.938,0,5.327,2.39,5.327,5.328v13.808C215.6,202.837,213.21,205.227,210.272,205.227z M188.302,185.764
					c-0.181,0-0.327,0.147-0.327,0.328v13.808c0,0.18,0.146,0.327,0.327,0.327h21.971c0.181,0,0.327-0.147,0.327-0.327v-13.808
					c0-0.181-0.146-0.328-0.327-0.328H188.302z"/>
			</g>
		</g>
		<g>
			<g>
				<path d="M139.625,103.487c-0.848,0-1.735-0.077-2.714-0.234c-1.274-0.205-2.184-1.347-2.097-2.636
					c0.056-0.826,0.081-1.513,0.081-2.162V72.162c0-1.233,0.898-2.282,2.117-2.471c0.883-0.137,1.762-0.206,2.612-0.206
					c9.374,0,17,7.626,17,17C156.625,95.86,148.999,103.487,139.625,103.487z M139.896,74.488v23.967c0,0.01,0,0.019,0,0.029
					c6.492-0.145,11.729-5.471,11.729-11.998S146.388,74.633,139.896,74.488z"/>
			</g>
		</g>
		<g>
			<g>
				<path d="M102.664,135.687c-20.529,0-37.231-16.702-37.231-37.232V77.771c0-0.784,0.368-1.523,0.994-1.995
					c0.626-0.473,1.438-0.625,2.191-0.409c25.919,7.383,43.875-10.649,48.761-16.352l0,0c0.849-0.991,2.033-1.581,3.333-1.663
					c1.295-0.077,2.59,0.375,3.556,1.253c3.952,3.59,7.84,5.848,11.557,6.709c2.397,0.556,4.071,2.645,4.071,5.081v28.06
					C139.896,118.985,123.193,135.687,102.664,135.687z M70.433,80.979v17.476c0,17.773,14.459,32.232,32.231,32.232
					s32.231-14.459,32.231-32.232v-28.06c0-0.113-0.101-0.187-0.2-0.21c-4.515-1.046-9.109-3.656-13.656-7.759
					C115.682,68.626,97.251,86.861,70.433,80.979z M121.175,62.268C121.175,62.269,121.175,62.269,121.175,62.268L121.175,62.268z"
					/>
			</g>
		</g>
		<g>
			<g>
				<path d="M65.704,103.487c-9.374,0-17-7.626-17-17.001c0-4.667,1.958-9.18,5.371-12.381c2.031-1.904,4.983-2.409,7.523-1.288
					c2.331,1.029,4.693,1.888,7.02,2.55c1.074,0.306,1.815,1.287,1.815,2.404v20.684c0,0.644,0.026,1.331,0.082,2.162
					c0.086,1.289-0.823,2.431-2.098,2.636C67.438,103.41,66.551,103.487,65.704,103.487z M58.81,77.229
					c-0.478,0-0.95,0.18-1.316,0.523c-2.444,2.292-3.791,5.394-3.791,8.733c0,6.527,5.237,11.854,11.729,11.998
					c0-0.01,0-0.019,0-0.029v-18.83c-1.954-0.629-3.916-1.377-5.855-2.234C59.331,77.282,59.069,77.229,58.81,77.229z"/>
			</g>
		</g>
		<g>
			<g>
				<g>
					<path d="M80.879,82.131c-4.277,0-8.828-0.587-13.632-1.956c-2.548-0.726-5.129-1.663-7.67-2.785
						c-0.7-0.31-1.516-0.169-2.08,0.358l-0.287,0.3c-0.712,0.72-1.79,0.938-2.727,0.551c-0.937-0.386-1.548-1.298-1.548-2.312
						v-8.535c0-27.421,22.308-49.729,49.729-49.729c27.42,0,49.729,22.308,49.729,49.729v8.494c0,1.012-0.61,1.924-1.545,2.311
						c-0.936,0.386-2.012,0.171-2.726-0.546c-2.268-2.275-5.285-3.528-8.497-3.528c-0.595,0-1.216,0.049-1.847,0.147
						c-0.72,0.11-1.456-0.098-2.01-0.572c-0.554-0.475-0.873-1.168-0.873-1.898v-1.767c0-0.113-0.101-0.187-0.2-0.21
						c-4.515-1.046-9.109-3.656-13.656-7.759C116.409,67.784,102.012,82.13,80.879,82.131z M58.808,72.228
						c0.942,0,1.891,0.193,2.789,0.589c2.331,1.029,4.693,1.888,7.02,2.55c25.919,7.383,43.875-10.649,48.761-16.352
						c0.849-0.991,2.033-1.581,3.333-1.663c1.291-0.08,2.591,0.376,3.556,1.253c3.952,3.59,7.84,5.848,11.557,6.709
						c2.093,0.485,3.635,2.139,3.992,4.172c2.679,0.029,5.258,0.674,7.576,1.868v-3.6c0-24.664-20.065-44.729-44.729-44.729
						S57.936,43.091,57.936,67.755v4.528C58.225,72.246,58.516,72.228,58.808,72.228z"/>
				</g>
			</g>
		</g>
		<g>
			<g>
				<path d="M155.849,153.222c-1.086,0-2.086-0.713-2.401-1.809c-1.18-4.097-3.463-7.832-5.671-11.444
					c-3.72-6.085-7.566-12.378-4.759-19.397c3.061-7.652,4.051-14.768,2.944-21.151c-0.236-1.36,0.676-2.655,2.036-2.891
					c1.354-0.234,2.654,0.676,2.89,2.036c1.268,7.309,0.182,15.337-3.228,23.862c-1.786,4.467,0.501,8.584,4.382,14.933
					c2.27,3.714,4.844,7.923,6.21,12.668c0.382,1.327-0.384,2.712-1.711,3.094C156.311,153.19,156.077,153.222,155.849,153.222z"/>
			</g>
		</g>
		<g>
			<g>
				<path d="M48.582,160.619c-1.321,0-2.424-1.035-2.495-2.369c-0.441-8.41,3.616-15.042,7.196-20.894
					c3.883-6.346,6.171-10.462,4.385-14.927c-3.388-8.471-4.481-16.455-3.25-23.73c0.231-1.361,1.523-2.274,2.882-2.048
					c1.361,0.23,2.278,1.521,2.048,2.882c-1.075,6.356-0.078,13.435,2.963,21.039c2.808,7.02-1.041,13.31-4.763,19.393
					c-3.357,5.487-6.828,11.161-6.468,18.022c0.072,1.379-0.987,2.556-2.366,2.628C48.67,160.618,48.626,160.619,48.582,160.619z"/>
			</g>
		</g>
		<g>
			<g>
				<g>
					<path d="M146.58,158.987c-0.203,0-0.408-0.025-0.614-0.077l-7.412-1.871c-1.692-0.426-3.389-1.007-5.041-1.726
						c-1.267-0.551-1.847-2.024-1.295-3.29c0.551-1.265,2.026-1.843,3.289-1.295c1.403,0.61,2.839,1.103,4.27,1.462l7.414,1.872
						c1.338,0.338,2.149,1.697,1.812,3.036C148.716,158.231,147.698,158.987,146.58,158.987z"/>
				</g>
			</g>
			<g>
				<g>
					<path d="M131.125,256H66.851c-2.854,0-5.177-2.322-5.177-5.177v-9.58c0-7.066-0.912-14.078-2.713-20.895v30.475
						c0,2.854-2.322,5.177-5.177,5.177h-21.99c-1.768,0-3.478-0.736-4.693-2.021c-1.214-1.284-1.854-3.033-1.756-4.797l2.742-75.37
						c0.412-7.403,5.487-13.554,12.631-15.352l24.832-6.268c1.389-0.35,2.786-0.825,4.152-1.412c1.267-0.544,2.739,0.041,3.284,1.31
						c0.545,1.269-0.042,2.739-1.31,3.284c-1.609,0.691-3.258,1.252-4.903,1.666l-24.833,6.268
						c-5.012,1.262-8.571,5.575-8.859,10.734l-2.742,75.37c-0.033,0.594,0.233,0.961,0.395,1.132c0.161,0.17,0.513,0.457,1.06,0.457
						h21.99c0.098,0,0.177-0.079,0.177-0.177v-47.143c0-1.235,0.902-2.285,2.123-2.472c1.22-0.185,2.396,0.548,2.763,1.727
						l3.883,12.439c2.617,8.384,3.944,17.087,3.944,25.869v9.58c0,0.098,0.079,0.177,0.177,0.177h64.274c1.381,0,2.5,1.119,2.5,2.5
						S132.506,256,131.125,256z"/>
				</g>
			</g>
		</g>
		<g>
			<g>
				<path d="M120.897,147.466c-0.795,0-1.577-0.378-2.062-1.082c-1.407-2.044-2.151-4.421-2.151-6.873v-9.762
					c0-1.381,1.119-2.5,2.5-2.5s2.5,1.119,2.5,2.5v9.762c0,1.435,0.439,2.831,1.27,4.037c0.783,1.137,0.496,2.694-0.641,3.477
					C121.88,147.324,121.386,147.466,120.897,147.466z"/>
			</g>
		</g>
		<g>
			<g>
				<path d="M105.813,164h-6.407c-1.381,0-2.5-1.119-2.5-2.5s1.119-2.5,2.5-2.5h6.407c1.381,0,2.5,1.119,2.5,2.5
					S107.194,164,105.813,164z"/>
			</g>
		</g>
		<g>
			<g>
				<path d="M84.329,147.613c-0.503,0-1.012-0.151-1.453-0.467c-1.123-0.803-1.382-2.365-0.579-3.488
					c0.881-1.232,1.347-2.666,1.347-4.147v-9.761c0-1.381,1.119-2.5,2.5-2.5s2.5,1.119,2.5,2.5v9.761
					c0,2.531-0.789,4.971-2.28,7.056C85.876,147.25,85.108,147.613,84.329,147.613z"/>
			</g>
		</g>
		<g>
			<g>
				<path d="M89.22,213.873H71.108c-3.338,0-6.054-2.716-6.054-6.054v-10.756c0-3.338,2.716-6.053,6.054-6.053H89.22
					c3.338,0,6.054,2.715,6.054,6.053v10.756C95.274,211.157,92.558,213.873,89.22,213.873z M71.108,196.01
					c-0.581,0-1.054,0.473-1.054,1.053v10.756c0,0.581,0.473,1.054,1.054,1.054H89.22c0.581,0,1.054-0.473,1.054-1.054v-10.756
					c0-0.581-0.473-1.053-1.054-1.053H71.108z"/>
			</g>
		</g>
		<g>
			<g>
				<path d="M116.682,175.391c-1.332,0-2.605-0.556-3.511-1.538l-8.157-8.836c-1.646-1.784-1.625-4.559,0.046-6.318l15.688-16.492
					c1.629-1.711,4.374-1.808,6.116-0.215l8.134,7.427c1.724,1.573,1.909,4.215,0.422,6.014l-15.053,18.223
					c-0.879,1.064-2.174,1.696-3.553,1.733C116.77,175.391,116.726,175.391,116.682,175.391z M108.929,161.887l7.744,8.39
					l14.512-17.568l-7.238-6.609L108.929,161.887z M131.626,153.111C131.627,153.111,131.627,153.111,131.626,153.111
					L131.626,153.111L131.626,153.111z"/>
			</g>
		</g>
		<g>
			<g>
				<path d="M88.646,175.391c-0.043,0-0.087,0-0.131-0.002c-1.379-0.038-2.675-0.67-3.553-1.734l-15.054-18.223
					c-1.486-1.798-1.301-4.439,0.423-6.013l8.134-7.427c1.745-1.593,4.487-1.496,6.116,0.216l15.687,16.491
					c1.673,1.759,1.694,4.534,0.048,6.318l-8.158,8.837C91.252,174.835,89.978,175.391,88.646,175.391z M74.143,152.708
					l14.512,17.567l7.744-8.389L81.381,146.1L74.143,152.708z M73.703,153.111L73.703,153.111c-0.001,0-0.001,0.001-0.001,0.001
					C73.702,153.111,73.702,153.111,73.703,153.111z M72.016,151.265h0.01H72.016z"/>
			</g>
		</g>
	</g>
</g>
<g id="Layer_39">
</g>
<g id="Layer_40">
</g>
<g id="Layer_41">
</g>
<g id="Layer_42">
</g>
<g id="Layer_43">
</g>
<g id="Layer_44">
</g>
<g id="Layer_45">
</g>
<g id="Layer_46">
</g>
<g id="Layer_47">
</g>
<g id="Layer_48">
</g>
<g id="Layer_49">
</g>
<g id="Layer_50">
</g>
<g id="Layer_51">
</g>
<g id="Layer_52">
</g>
<g id="Layer_53">
</g>
<g id="Layer_54">
</g>
<g id="Layer_55">
</g>
<g id="Layer_56">
</g>
<g id="Layer_57">
</g>
<g id="Layer_58">
</g>
<g id="Layer_59">
</g>
<g id="Layer_60">
</g>
<g id="Layer_61">
</g>
<g id="Layer_62">
</g>
<g id="Layer_63">
</g>
<g id="Layer_64">
</g>
<g id="Layer_65">
</g>
<g id="Layer_66">
</g>
<g id="Layer_67">
</g>
<g id="Layer_68">
</g>
<g id="Layer_69">
</g>
<g id="Layer_70">
</g>
<g id="Layer_71">
</g>
<g id="Layer_72">
</g>
<g id="Layer_73">
</g>
<g id="Layer_74">
</g>
<g id="Layer_75">
</g>
<g id="Layer_76">
</g>
<g id="Layer_77">
</g>
<g id="Layer_78">
</g>
<g id="Layer_79">
</g>
<g id="Layer_80">
</g>
</svg>
