<?xml version="1.0" encoding="utf-8"?>
<!-- Generator: Adobe Illustrator 24.0.0, SVG Export Plug-In . SVG Version: 6.00 Build 0)  -->
<svg version="1.1" xmlns="http://www.w3.org/2000/svg" xmlns:xlink="http://www.w3.org/1999/xlink" x="0px" y="0px"
	 viewBox="0 0 256 256" style="enable-background:new 0 0 256 256;" xml:space="preserve">
<style type="text/css">
	.st0{fill:#3A70BF;}
	.st1{fill:#EDF4FC;}
	.st2{fill:#C7D7E5;}
	.st3{fill:#F9D0B4;}
	.st4{fill:#5B5D60;}
	.st5{fill:#5290DB;}
	.st6{fill:#70D6F9;}
	.st7{fill:#F5C84C;}
	.st8{fill:#FC657E;}
	.st9{fill:#87D147;}
	.st10{fill:#FCDD86;}
	.st11{fill:#9BE5F9;}
	.st12{fill:#B2E26D;}
	.st13{fill:#754E34;}
	.st14{fill:#FCA265;}
	.st15{fill:#818182;}
	.st16{fill:#F94EED;}
	.st17{fill:#FFC197;}
	.st18{fill:#3CAADC;}
	.st19{fill:#DAE6F1;}
	.st20{fill:#57AF12;}
	.st21{fill:#EF4460;}
	.st22{fill:#FFF0CA;}
	.st23{fill:#F98FA6;}
	.st24{fill:#EDB311;}
	.st25{fill:#FC8C48;}
	.st26{fill:#FCB9CB;}
	.st27{fill:#96BC71;}
	.st28{fill:#78A352;}
	.st29{fill:#B8DD90;}
	.st30{fill:#6FAFEF;}
	.st31{fill:#29589F;}
	.st32{fill:#414344;}
	.st33{fill:#9B6B4B;}
	.st34{fill:#73B1EF;}
</style>
<g id="Layer_1">
</g>
<g id="Layer_2">
</g>
<g id="Layer_3">
</g>
<g id="Layer_4">
</g>
<g id="Layer_5">
</g>
<g id="Layer_6">
</g>
<g id="Layer_7">
</g>
<g id="Layer_8">
</g>
<g id="Layer_9">
</g>
<g id="Layer_10">
</g>
<g id="Layer_11">
</g>
<g id="Layer_12">
</g>
<g id="Layer_13">
</g>
<g id="Layer_14">
</g>
<g id="Layer_15">
</g>
<g id="Layer_16">
</g>
<g id="Layer_17">
</g>
<g id="Layer_18">
</g>
<g id="Layer_19">
</g>
<g id="Layer_20">
</g>
<g id="Layer_21">
</g>
<g id="Layer_22">
</g>
<g id="Layer_23">
</g>
<g id="Layer_24">
</g>
<g id="Layer_25">
</g>
<g id="Layer_26">
</g>
<g id="Layer_27">
</g>
<g id="Layer_28">
</g>
<g id="Layer_29">
</g>
<g id="Layer_30">
</g>
<g id="Layer_31">
</g>
<g id="Layer_32">
</g>
<g id="Layer_33">
</g>
<g id="Layer_34">
</g>
<g id="Layer_35">
</g>
<g id="Layer_36">
</g>
<g id="Layer_37">
</g>
<g id="Layer_38">
</g>
<g id="Layer_39">
</g>
<g id="Layer_40">
</g>
<g id="Layer_41">
</g>
<g id="Layer_42">
</g>
<g id="Layer_43">
</g>
<g id="Layer_44">
</g>
<g id="Layer_45">
	<g>
		<g>
			<g>
				<path class="st3" d="M202.511,189.549c-0.357-6.417-4.846-11.856-11.078-13.425l-28.902-7.274l-10.215-5.037
					c-4.391-2.165-7.171-6.635-7.171-11.531v-6.335c-5.268,2.868-11.296,4.501-17.686,4.501h0c-5.959,0-11.597-1.427-16.604-3.945
					v5.778c0,4.896-2.78,9.366-7.171,11.531l-10.215,5.037l-28.902,7.274c-6.233,1.569-10.721,7.008-11.078,13.425l-3.442,59.358
					c-0.144,2.492,1.838,4.592,4.334,4.592h147.239c2.496,0,4.478-2.1,4.334-4.592L202.511,189.549z"/>
			</g>
		</g>
		<g>
			<g>
				<path class="st3" d="M176.613,88.18c-0.459,0.258-0.982,0.418-1.547,0.418c-3.905,0-6.576,0-10.393,0c0,6.821,0,19.846,0,24.636
					c0,0.839-0.038,1.67-0.094,2.496c0.81,0.13,1.635,0.217,2.482,0.217c8.581,0,15.537-6.957,15.537-15.538
					C182.599,95.434,180.252,91.021,176.613,88.18z"/>
			</g>
		</g>
		<g>
			<g>
				<path class="st3" d="M90.244,88.598v24.636c0,20.468,16.747,37.215,37.215,37.215h0c20.468,0,37.215-16.747,37.215-37.215
					V88.598H90.244z"/>
			</g>
		</g>
		<g>
			<g>
				<path class="st3" d="M90.244,88.598c-0.681,0-9.69,0-9.311,0c-0.811,0-1.543-0.313-2.105-0.813
					c-3.936,2.817-6.51,7.415-6.51,12.624c0,8.581,6.956,15.538,15.537,15.538c0.847,0,1.672-0.086,2.482-0.217v0
					c-0.055-0.826-0.094-1.656-0.094-2.495C90.244,109.897,90.244,96.984,90.244,88.598z"/>
			</g>
		</g>
		<g>
			<g>
				<path class="st8" d="M175.067,72.871H80.933c-1.756,0-3.179,1.423-3.179,3.179v9.369c0,1.756,1.423,3.179,3.179,3.179h94.133
					c1.756,0,3.179-1.423,3.179-3.179V76.05C178.245,74.294,176.822,72.871,175.067,72.871z"/>
			</g>
		</g>
		<g>
			<g>
				<path class="st1" d="M183.61,36.811c-0.93-10.36-9.308-18.742-19.666-19.688c-2.991-0.273-5.867,0.062-8.525,0.894
					c-3.142,0.983-6.454-0.468-7.919-3.417C143.937,7.43,136.552,2.5,128,2.5s-15.937,4.93-19.499,12.1
					c-1.465,2.949-4.777,4.4-7.919,3.417c-2.658-0.831-5.534-1.167-8.525-0.894C81.698,18.069,73.32,26.451,72.39,36.811
					c-0.754,8.397,3.26,15.915,9.64,20.162c0.896,0.597,1.436,1.598,1.436,2.675v13.27c0.154-0.023,0.307-0.047,0.468-0.047h88.133
					c0.16,0,0.314,0.024,0.468,0.047v-13.27c0-1.076,0.54-2.078,1.436-2.675C180.35,52.726,184.364,45.208,183.61,36.811z"/>
			</g>
		</g>
		<g>
			<g>
				<path class="st1" d="M201.619,253.5c2.496,0,4.478-2.1,4.334-4.592l-3.442-59.358c-0.357-6.417-4.846-11.856-11.078-13.425
					l-28.902-7.274l-7.793-3.842l-26.529,17.686c-4.504,3.002-7.209,8.058-7.209,13.471V253.5H201.619z"/>
			</g>
		</g>
		<g>
			<g>
				<path class="st19" d="M121,196.165c0-5.327,2.624-10.303,7-13.322c-0.071-0.049-0.138-0.102-0.209-0.149l-26.529-17.686
					l-7.792,3.842l-28.902,7.274c-6.233,1.569-10.721,7.008-11.078,13.425l-3.442,59.358c-0.144,2.492,1.838,4.592,4.334,4.592H121
					V196.165z"/>
			</g>
		</g>
		<g>
			<g>
				<path class="st8" d="M152.316,163.813c-2.444-1.205-4.387-3.126-5.632-5.436l-7.961,5.307c-1.701,1.134-2.723,3.043-2.723,5.088
					v8.728l18.738-12.492L152.316,163.813z"/>
			</g>
		</g>
		<g>
			<g>
				<path class="st8" d="M103.684,163.813l-2.422,1.194L120,177.5v-8.728c0-2.044-1.022-3.954-2.723-5.088l-7.961-5.308
					C108.072,160.687,106.129,162.608,103.684,163.813z"/>
			</g>
		</g>
		<g>
			<g>
				<path d="M179.545,255.42c-1.381,0-2.5-1.119-2.5-2.5v-48.134c0-1.381,1.119-2.5,2.5-2.5s2.5,1.119,2.5,2.5v48.134
					C182.045,254.301,180.926,255.42,179.545,255.42z"/>
			</g>
		</g>
		<g>
			<g>
				<path d="M76.455,255.42c-1.381,0-2.5-1.119-2.5-2.5v-48.134c0-1.381,1.119-2.5,2.5-2.5s2.5,1.119,2.5,2.5v48.134
					C78.955,254.301,77.836,255.42,76.455,255.42z"/>
			</g>
		</g>
		<g>
			<g>
				<path d="M201.619,256H54.381c-1.875,0-3.688-0.782-4.976-2.146s-1.963-3.219-1.854-5.091l3.442-59.358
					c0.421-7.545,5.63-13.859,12.964-15.705l28.646-7.21l9.976-4.919c3.563-1.756,5.777-5.316,5.777-9.289v-4.99
					c0-1.381,1.119-2.5,2.5-2.5s2.5,1.119,2.5,2.5v4.99c0,5.891-3.282,11.169-8.566,13.773l-10.214,5.037
					c-0.158,0.078-0.324,0.139-0.495,0.182l-28.902,7.274c-5.2,1.309-8.895,5.786-9.192,11.14l-3.442,59.363
					c-0.03,0.511,0.147,0.998,0.499,1.37S53.869,251,54.381,251h147.238c0.512,0,0.987-0.205,1.339-0.578s0.529-0.859,0.499-1.37
					l-3.442-59.358c-0.298-5.359-3.992-9.836-9.192-11.145l-28.901-7.274c-0.171-0.043-0.337-0.104-0.495-0.182l-10.216-5.037
					c-5.283-2.604-8.565-7.882-8.565-13.773V147c0-1.381,1.119-2.5,2.5-2.5s2.5,1.119,2.5,2.5v5.283
					c0,3.973,2.213,7.532,5.776,9.289l9.978,4.919l28.645,7.209c7.333,1.846,12.543,8.159,12.964,15.71l3.442,59.353
					c0.108,1.872-0.567,3.727-1.854,5.091S203.494,256,201.619,256z"/>
			</g>
		</g>
		<g>
			<g>
				<path d="M128,129.883c-4.775,0-9.262-1.949-11.999-5.215c-0.887-1.058-0.748-2.635,0.31-3.522
					c1.058-0.886,2.633-0.749,3.522,0.31c1.799,2.146,4.852,3.427,8.167,3.427s6.368-1.281,8.167-3.427
					c0.889-1.057,2.464-1.195,3.522-0.309c1.058,0.887,1.196,2.464,0.31,3.522C137.261,127.934,132.775,129.883,128,129.883z"/>
			</g>
		</g>
		<g>
			<g>
				<circle cx="144.789" cy="102.126" r="5"/>
			</g>
		</g>
		<g>
			<g>
				<circle cx="111.211" cy="102.126" r="5"/>
			</g>
		</g>
		<g>
			<g>
				<path d="M167.063,118.446c-0.689,0-1.394-0.047-2.154-0.144c-1.369-0.174-2.339-1.425-2.165-2.795
					c0.175-1.369,1.419-2.34,2.796-2.165c0.549,0.07,1.047,0.104,1.523,0.104c7.188,0,13.037-5.849,13.037-13.038
					c0-3.812-1.674-7.422-4.593-9.906c-1.052-0.895-1.179-2.473-0.284-3.524c0.896-1.052,2.474-1.178,3.524-0.284
					c4.037,3.436,6.353,8.434,6.353,13.714C185.1,110.354,177.008,118.446,167.063,118.446z"/>
			</g>
		</g>
		<g>
			<g>
				<path d="M127.459,152.949c-21.898,0-39.715-17.816-39.715-39.715V89.219c0-1.381,1.119-2.5,2.5-2.5s2.5,1.119,2.5,2.5v24.015
					c0,19.142,15.573,34.715,34.715,34.715s34.715-15.573,34.715-34.715V89.292c0-1.381,1.119-2.5,2.5-2.5s2.5,1.119,2.5,2.5v23.941
					C167.174,135.133,149.357,152.949,127.459,152.949z"/>
			</g>
		</g>
		<g>
			<g>
				<path d="M87.855,118.446c-9.945,0-18.037-8.092-18.037-18.038c0-5.649,2.584-10.866,7.091-14.313
					c1.097-0.838,2.665-0.63,3.504,0.467s0.63,2.666-0.467,3.505c-3.259,2.493-5.128,6.263-5.128,10.342
					c0,7.189,5.849,13.038,13.037,13.038c0.439,0,0.894-0.028,1.389-0.087c1.376-0.17,2.614,0.818,2.776,2.188
					c0.163,1.371-0.817,2.614-2.188,2.777C89.141,118.406,88.494,118.446,87.855,118.446z"/>
			</g>
		</g>
		<g>
			<g>
				<path d="M175.066,91.098H80.934c-3.131,0-5.679-2.548-5.679-5.679V76.05c0-3.131,2.548-5.679,5.679-5.679h94.133
					c3.131,0,5.679,2.548,5.679,5.679v9.369C180.745,88.55,178.197,91.098,175.066,91.098z M80.934,75.371
					c-0.374,0-0.679,0.305-0.679,0.679v9.369c0,0.375,0.305,0.679,0.679,0.679h94.133c0.374,0,0.679-0.305,0.679-0.679V76.05
					c0-0.375-0.305-0.679-0.679-0.679H80.934z"/>
			</g>
		</g>
		<g>
			<g>
				<path d="M172.534,74.311c-1.381,0-2.5-1.119-2.5-2.5V59.648c0-1.915,0.954-3.693,2.552-4.756
					c5.899-3.928,9.17-10.771,8.533-17.857c-0.816-9.101-8.298-16.59-17.403-17.421c-2.582-0.236-5.122,0.03-7.551,0.79
					c-4.304,1.346-8.888-0.629-10.905-4.69C141.978,9.105,135.363,5,128,5s-13.978,4.105-17.26,10.713
					c-2.019,4.062-6.603,6.037-10.905,4.69c-2.429-0.76-4.97-1.026-7.551-0.79c-9.105,0.831-16.587,8.321-17.403,17.421
					c-0.637,7.087,2.634,13.93,8.534,17.857c1.597,1.063,2.551,2.841,2.551,4.756v12.163c0,1.381-1.119,2.5-2.5,2.5
					s-2.5-1.119-2.5-2.5V59.648c0-0.238-0.12-0.459-0.321-0.594C73.217,54.11,69.101,45.501,69.9,36.587
					C70.93,25.12,80.357,15.681,91.829,14.634c3.241-0.295,6.437,0.04,9.498,0.997c1.94,0.609,4.018-0.294,4.935-2.143
					C110.396,5.168,118.726,0,128,0s17.604,5.168,21.738,13.488c0.918,1.849,2.994,2.75,4.935,2.143
					c3.062-0.958,6.257-1.293,9.498-0.997c11.472,1.047,20.899,10.486,21.929,21.954c0.8,8.914-3.316,17.522-10.743,22.467
					c-0.202,0.134-0.322,0.356-0.322,0.594v12.163C175.034,73.191,173.915,74.311,172.534,74.311z"/>
			</g>
		</g>
		<g>
			<g>
				<path d="M106.451,74.311c-1.381,0-2.5-1.119-2.5-2.5v-16c0-1.381,1.119-2.5,2.5-2.5s2.5,1.119,2.5,2.5v16
					C108.951,73.191,107.832,74.311,106.451,74.311z"/>
			</g>
		</g>
		<g>
			<g>
				<path d="M129.625,74.311c-1.381,0-2.5-1.119-2.5-2.5v-16c0-1.381,1.119-2.5,2.5-2.5s2.5,1.119,2.5,2.5v16
					C132.125,73.191,131.006,74.311,129.625,74.311z"/>
			</g>
		</g>
		<g>
			<g>
				<path d="M152.799,74.311c-1.381,0-2.5-1.119-2.5-2.5v-16c0-1.381,1.119-2.5,2.5-2.5s2.5,1.119,2.5,2.5v16
					C155.299,73.191,154.18,74.311,152.799,74.311z"/>
			</g>
		</g>
		<g>
			<g>
				<path d="M131.5,199.274c-1.381,0-2.5-1.119-2.5-2.5v-1.247c0-1.381,1.119-2.5,2.5-2.5s2.5,1.119,2.5,2.5v1.247
					C134,198.155,132.881,199.274,131.5,199.274z"/>
			</g>
		</g>
		<g>
			<g>
				<path d="M131.5,213.483c-1.381,0-2.5-1.119-2.5-2.5v-1.247c0-1.381,1.119-2.5,2.5-2.5s2.5,1.119,2.5,2.5v1.247
					C134,212.364,132.881,213.483,131.5,213.483z"/>
			</g>
		</g>
		<g>
			<g>
				<path d="M131.5,227.692c-1.381,0-2.5-1.119-2.5-2.5v-1.247c0-1.381,1.119-2.5,2.5-2.5s2.5,1.119,2.5,2.5v1.247
					C134,226.573,132.881,227.692,131.5,227.692z"/>
			</g>
		</g>
		<g>
			<g>
				<path d="M131.5,241.901c-1.381,0-2.5-1.119-2.5-2.5v-1.247c0-1.381,1.119-2.5,2.5-2.5s2.5,1.119,2.5,2.5v1.247
					C134,240.782,132.881,241.901,131.5,241.901z"/>
			</g>
		</g>
		<g>
			<g>
				<path d="M162,212h-15c-1.381,0-2.5-1.119-2.5-2.5s1.119-2.5,2.5-2.5h15c1.381,0,2.5,1.119,2.5,2.5S163.381,212,162,212z"/>
			</g>
		</g>
		<g>
			<g>
				<path class="st7" d="M209.822,28.33c-4.498-0.838-8.043-4.31-8.898-8.716c-0.043-0.221-0.352-0.221-0.395,0
					c-0.855,4.406-4.4,7.879-8.898,8.716c-0.226,0.042-0.226,0.345,0,0.387c4.498,0.838,8.043,4.31,8.898,8.717
					c0.043,0.221,0.352,0.221,0.395,0c0.855-4.406,4.4-7.879,8.898-8.717C210.047,28.675,210.047,28.373,209.822,28.33z"/>
			</g>
		</g>
		<g>
			<g>
				<path class="st9" d="M202.515,112.101c-2.862-0.533-5.118-2.743-5.663-5.547c-0.027-0.141-0.224-0.141-0.251,0
					c-0.544,2.804-2.8,5.014-5.663,5.547c-0.144,0.027-0.144,0.219,0,0.246c2.862,0.533,5.118,2.743,5.663,5.547
					c0.027,0.141,0.224,0.141,0.251,0c0.544-2.804,2.8-5.014,5.663-5.547C202.658,112.32,202.658,112.128,202.515,112.101z"/>
			</g>
		</g>
		<g>
			<g>
				<path class="st6" d="M63.246,129.75h2.33v-2.33c0-1.744,1.413-3.157,3.157-3.157c1.744,0,3.157,1.413,3.157,3.157v2.33h2.329
					c1.744,0,3.157,1.413,3.157,3.157c0,1.744-1.413,3.157-3.157,3.157h-2.329v2.33c0,1.744-1.413,3.157-3.157,3.157
					c-1.744,0-3.157-1.413-3.157-3.157v-2.33h-2.33c-1.744,0-3.157-1.413-3.157-3.157C60.089,131.163,61.502,129.75,63.246,129.75z"
					/>
			</g>
		</g>
		<g>
			<g>
				<circle class="st7" cx="53.755" cy="161.825" r="3.377"/>
			</g>
		</g>
		<g>
			<g>
				<circle class="st8" cx="177.755" cy="3.377" r="3.377"/>
			</g>
		</g>
		<g>
			<g>
				<path d="M121,255.167c-1.381,0-2.5-1.119-2.5-2.5v-56.503c0-6.264,3.111-12.077,8.322-15.551l25.979-17.319
					c1.147-0.765,2.701-0.456,3.467,0.693s0.455,2.701-0.693,3.467l-25.979,17.319c-3.817,2.544-6.096,6.803-6.096,11.391v56.503
					C123.5,254.048,122.381,255.167,121,255.167z"/>
			</g>
		</g>
		<g>
			<g>
				<path d="M127.367,184.913c-0.477,0-0.959-0.136-1.385-0.42l-25.874-17.249c-1.148-0.766-1.459-2.318-0.693-3.467
					c0.766-1.149,2.318-1.459,3.467-0.693l25.874,17.249c1.148,0.766,1.459,2.318,0.693,3.467
					C128.968,184.522,128.175,184.913,127.367,184.913z"/>
			</g>
		</g>
		<g>
			<g>
				<path d="M136,179.375c-1.381,0-2.5-1.119-2.5-2.5v-8.103c0-2.887,1.434-5.566,3.836-7.168l7.518-5.012
					c1.147-0.765,2.701-0.455,3.467,0.693c0.766,1.149,0.455,2.701-0.693,3.467l-7.518,5.012c-1.008,0.672-1.609,1.796-1.609,3.008
					v8.103C138.5,178.256,137.381,179.375,136,179.375z"/>
			</g>
		</g>
		<g>
			<g>
				<path d="M120,179.313c-1.381,0-2.5-1.119-2.5-2.5v-8.041c0-1.211-0.602-2.336-1.609-3.008l-7.401-4.935
					c-1.148-0.766-1.459-2.318-0.693-3.467c0.766-1.149,2.319-1.46,3.467-0.693l7.401,4.935c2.402,1.602,3.836,4.281,3.836,7.168
					v8.041C122.5,178.194,121.381,179.313,120,179.313z"/>
			</g>
		</g>
	</g>
</g>
<g id="Layer_46">
</g>
<g id="Layer_47">
</g>
<g id="Layer_48">
</g>
<g id="Layer_49">
</g>
<g id="Layer_50">
</g>
<g id="Layer_51">
</g>
<g id="Layer_52">
</g>
<g id="Layer_53">
</g>
<g id="Layer_54">
</g>
<g id="Layer_55">
</g>
<g id="Layer_56">
</g>
<g id="Layer_57">
</g>
<g id="Layer_58">
</g>
<g id="Layer_59">
</g>
<g id="Layer_60">
</g>
<g id="Layer_61">
</g>
<g id="Layer_62">
</g>
<g id="Layer_63">
</g>
<g id="Layer_64">
</g>
<g id="Layer_65">
</g>
<g id="Layer_66">
</g>
<g id="Layer_67">
</g>
<g id="Layer_68">
</g>
<g id="Layer_69">
</g>
<g id="Layer_70">
</g>
<g id="Layer_71">
</g>
<g id="Layer_72">
</g>
<g id="Layer_73">
</g>
<g id="Layer_74">
</g>
<g id="Layer_75">
</g>
<g id="Layer_76">
</g>
<g id="Layer_77">
</g>
<g id="Layer_78">
</g>
<g id="Layer_79">
</g>
<g id="Layer_80">
</g>
</svg>
