<?xml version="1.0" encoding="utf-8"?>
<!-- Generator: Adobe Illustrator 24.0.0, SVG Export Plug-In . SVG Version: 6.00 Build 0)  -->
<svg version="1.1" xmlns="http://www.w3.org/2000/svg" xmlns:xlink="http://www.w3.org/1999/xlink" x="0px" y="0px"
	 viewBox="0 0 256 256" style="enable-background:new 0 0 256 256;" xml:space="preserve">
<style type="text/css">
	.st0{fill:#3A70BF;}
	.st1{fill:#EDF4FC;}
	.st2{fill:#C7D7E5;}
	.st3{fill:#F9D0B4;}
	.st4{fill:#5B5D60;}
	.st5{fill:#5290DB;}
	.st6{fill:#70D6F9;}
	.st7{fill:#F5C84C;}
	.st8{fill:#FC657E;}
	.st9{fill:#87D147;}
	.st10{fill:#FCDD86;}
	.st11{fill:#9BE5F9;}
	.st12{fill:#B2E26D;}
	.st13{fill:#754E34;}
	.st14{fill:#FCA265;}
	.st15{fill:#818182;}
	.st16{fill:#F94EED;}
	.st17{fill:#FFC197;}
	.st18{fill:#3CAADC;}
	.st19{fill:#DAE6F1;}
	.st20{fill:#57AF12;}
	.st21{fill:#EF4460;}
	.st22{fill:#FFF0CA;}
	.st23{fill:#F98FA6;}
	.st24{fill:#EDB311;}
	.st25{fill:#FC8C48;}
	.st26{fill:#FCB9CB;}
	.st27{fill:#96BC71;}
	.st28{fill:#78A352;}
	.st29{fill:#B8DD90;}
	.st30{fill:#6FAFEF;}
	.st31{fill:#29589F;}
	.st32{fill:#414344;}
	.st33{fill:#9B6B4B;}
	.st34{fill:#73B1EF;}
</style>
<g id="Layer_1">
</g>
<g id="Layer_2">
</g>
<g id="Layer_3">
</g>
<g id="Layer_4">
</g>
<g id="Layer_5">
</g>
<g id="Layer_6">
</g>
<g id="Layer_7">
</g>
<g id="Layer_8">
</g>
<g id="Layer_9">
</g>
<g id="Layer_10">
</g>
<g id="Layer_11">
</g>
<g id="Layer_12">
</g>
<g id="Layer_13">
</g>
<g id="Layer_14">
</g>
<g id="Layer_15">
</g>
<g id="Layer_16">
</g>
<g id="Layer_17">
</g>
<g id="Layer_18">
</g>
<g id="Layer_19">
</g>
<g id="Layer_20">
</g>
<g id="Layer_21">
</g>
<g id="Layer_22">
</g>
<g id="Layer_23">
</g>
<g id="Layer_24">
</g>
<g id="Layer_25">
</g>
<g id="Layer_26">
</g>
<g id="Layer_27">
</g>
<g id="Layer_28">
</g>
<g id="Layer_29">
</g>
<g id="Layer_30">
</g>
<g id="Layer_31">
</g>
<g id="Layer_32">
</g>
<g id="Layer_33">
</g>
<g id="Layer_34">
</g>
<g id="Layer_35">
</g>
<g id="Layer_36">
</g>
<g id="Layer_37">
</g>
<g id="Layer_38">
</g>
<g id="Layer_39">
</g>
<g id="Layer_40">
</g>
<g id="Layer_41">
</g>
<g id="Layer_42">
</g>
<g id="Layer_43">
</g>
<g id="Layer_44">
</g>
<g id="Layer_45">
</g>
<g id="Layer_46">
	<g>
		<g>
			<g>
				<path class="st3" d="M200.078,185.213c-0.347-6.223-4.699-11.497-10.743-13.019l-24.833-6.269
					c-2.075-0.522-4.089-1.263-6.009-2.209l-8.587-4.234c-3.298-1.626-5.386-4.984-5.386-8.66V140.29
					c-4.92,2.682-10.551,4.208-16.52,4.208c-5.97,0-11.6-1.526-16.52-4.208v10.533c0,3.677-2.088,7.034-5.386,8.66l-8.587,4.234
					c-1.919,0.946-3.933,1.687-6.009,2.209l-24.833,6.269c-6.044,1.521-10.396,6.796-10.743,13.019l-2.364,64.963
					c-0.066,1.816,1.388,3.324,3.206,3.324h21.826c1.772,0,3.208-1.436,3.208-3.208v-35.301l3.846,12.32
					c2.563,8.212,3.867,16.765,3.867,25.368l0,0c0,0.453,0.367,0.821,0.821,0.821c14.587,0,60.161,0,75.339,0
					c0.453,0,0.821-0.367,0.821-0.821c0-8.603,1.304-17.156,3.867-25.369l3.845-12.319v35.301c0,1.771,1.436,3.208,3.208,3.208
					h21.826c1.817,0,3.272-1.508,3.206-3.324L200.078,185.213z"/>
			</g>
		</g>
		<g>
			<g>
				<path class="st1" d="M202.442,250.176l-2.364-64.963c-0.347-6.223-4.699-11.497-10.743-13.019l-24.833-6.269
					c-2.075-0.522-4.089-1.263-6.009-2.209l-1.045-0.515l-29.239,19.492c-4.504,3.002-7.209,8.058-7.209,13.471V253.5
					c17.16,0,35.94,0,44.669,0c0.453,0,0.821-0.367,0.821-0.821c0-8.603,1.304-17.156,3.867-25.369l3.845-12.319v35.301
					c0,1.771,1.436,3.208,3.208,3.208h21.826C201.053,253.5,202.508,251.992,202.442,250.176z"/>
			</g>
		</g>
		<g>
			<g>
				<path class="st19" d="M128,182.843c-0.071-0.049-0.138-0.102-0.209-0.149l-29.239-19.492l-1.045,0.515
					c-1.919,0.946-3.933,1.687-6.009,2.209l-24.833,6.269c-6.044,1.521-10.396,6.796-10.743,13.019l-2.364,64.963
					c-0.066,1.816,1.388,3.324,3.206,3.324h21.826c1.772,0,3.208-1.436,3.208-3.208v-35.301l3.846,12.32
					c2.563,8.212,3.867,16.765,3.867,25.368c0,0.453,0.367,0.821,0.821,0.821c6.198,0,17.992,0,30.669,0v-57.335
					C121,190.837,123.624,185.862,128,182.843z"/>
			</g>
		</g>
		<g>
			<g>
				<path class="st8" d="M149.906,159.483c-0.888-0.438-1.679-1.009-2.374-1.67l-8.808,5.872c-1.701,1.134-2.723,3.043-2.723,5.088
					v8.728l21.448-14.299L149.906,159.483z"/>
			</g>
		</g>
		<g>
			<g>
				<path class="st8" d="M106.094,159.483l-7.542,3.719L120,177.5v-8.728c0-2.044-1.022-3.954-2.723-5.088l-8.808-5.872
					C107.773,158.474,106.982,159.045,106.094,159.483z"/>
			</g>
		</g>
		<g>
			<g>
				<path class="st4" d="M111.48,150.822v-10.533c-10.179-5.548-17.308-16.042-18.124-28.194c-0.756,0.122-1.526,0.202-2.316,0.202
					c-3.897,0-7.427-1.545-10.032-4.046c-1.508,8.692-4.54,20.198-10.64,31.327c-1.112,2.029-0.572,4.566,1.303,5.922
					c4.92,3.557,16.083,9.666,36.93,12.174C110.404,155.89,111.48,153.443,111.48,150.822z"/>
			</g>
		</g>
		<g>
			<g>
				<path class="st4" d="M185.633,139.578c-6.1-11.129-9.132-22.635-10.64-31.327c-2.606,2.501-6.136,4.046-10.032,4.046
					c-0.79,0-1.56-0.08-2.316-0.202c-0.816,12.152-7.945,22.647-18.124,28.194v10.533c0,2.621,1.076,5.068,2.88,6.853
					c20.847-2.508,32.009-8.617,36.93-12.174C186.205,144.145,186.745,141.607,185.633,139.578z"/>
			</g>
		</g>
		<g>
			<g>
				<path d="M107.918,160.091c-0.104,0-0.208-0.007-0.314-0.02c-21.102-2.646-32.489-8.995-37.399-12.545
					c-2.876-2.08-3.75-6.014-2.03-9.149c6.018-10.979,8.904-22.359,10.267-29.974c0.243-1.359,1.54-2.268,2.901-2.021
					c1.359,0.243,2.264,1.542,2.021,2.901c-2.077,11.609-5.712,22.206-10.804,31.496c-0.51,0.93-0.263,2.088,0.575,2.694
					c4.522,3.27,15.095,9.128,35.091,11.636c1.37,0.172,2.341,1.421,2.169,2.792C110.238,159.166,109.161,160.091,107.918,160.091z"
					/>
			</g>
		</g>
		<g>
			<g>
				<path d="M148.082,160.091c-1.242,0-2.319-0.925-2.478-2.189c-0.172-1.37,0.799-2.62,2.169-2.792
					c19.997-2.507,30.569-8.366,35.091-11.636c0.838-0.606,1.085-1.764,0.575-2.694c-5.058-9.229-8.68-19.751-10.764-31.276
					c-0.246-1.358,0.656-2.659,2.015-2.905c1.361-0.247,2.66,0.657,2.905,2.015c1.989,10.994,5.43,21.007,10.229,29.763
					c1.719,3.136,0.846,7.069-2.03,9.149c-4.91,3.55-16.297,9.899-37.399,12.545C148.29,160.084,148.185,160.091,148.082,160.091z"
					/>
			</g>
		</g>
		<g>
			<g>
				<path d="M199.236,256h-21.826c-3.147,0-5.708-2.561-5.708-5.708v-18.615c-1.801,6.852-2.713,13.9-2.713,21.002
					c0,1.831-1.49,3.321-3.321,3.321H90.331c-1.831,0-3.321-1.49-3.321-3.321c0-7.101-0.912-14.149-2.713-21.002v18.615
					c0,3.147-2.561,5.708-5.708,5.708H56.764c-1.564,0-3.023-0.62-4.108-1.746s-1.652-2.606-1.596-4.169l2.364-64.963
					c0.412-7.403,5.487-13.554,12.631-15.352l24.832-6.268c1.903-0.479,3.758-1.161,5.515-2.027l8.587-4.234
					c2.462-1.214,3.991-3.673,3.991-6.418v-9.448c0-1.381,1.119-2.5,2.5-2.5s2.5,1.119,2.5,2.5v9.448
					c0,4.663-2.598,8.84-6.78,10.902l-8.587,4.234c-2.073,1.022-4.261,1.827-6.504,2.391l-24.832,6.268
					c-5.012,1.262-8.571,5.575-8.859,10.734l-2.362,64.915c-0.009,0.249,0.103,0.418,0.198,0.517S56.515,251,56.764,251h21.826
					c0.39,0,0.708-0.317,0.708-0.708v-35.301c0-1.235,0.902-2.285,2.123-2.472c1.219-0.187,2.395,0.548,2.763,1.727l3.846,12.32
					c2.475,7.929,3.807,16.14,3.965,24.434h72.012c0.158-8.295,1.49-16.507,3.965-24.435l3.846-12.319
					c0.368-1.179,1.544-1.911,2.763-1.727c1.221,0.187,2.123,1.236,2.123,2.472v35.301c0,0.39,0.317,0.708,0.708,0.708h21.826
					c0.249,0,0.414-0.118,0.509-0.216s0.207-0.269,0.198-0.517l-2.364-64.963c-0.285-5.11-3.844-9.424-8.854-10.685l-24.835-6.269
					c-2.241-0.564-4.43-1.369-6.502-2.391l-8.587-4.234c-4.182-2.062-6.78-6.24-6.78-10.902v-9.385c0-1.381,1.119-2.5,2.5-2.5
					s2.5,1.119,2.5,2.5v9.385c0,2.745,1.529,5.204,3.991,6.418l8.587,4.234c1.757,0.866,3.612,1.548,5.514,2.027l24.835,6.269
					c7.142,1.798,12.217,7.948,12.627,15.303l2.367,65.011c0.057,1.563-0.51,3.044-1.596,4.169S200.8,256,199.236,256z"/>
			</g>
		</g>
		<g>
			<g>
				<path class="st3" d="M174.746,87.117c-0.564,0.888-1.549,1.481-2.679,1.481h-9.335c0,6.641,0,17.094,0,21.168l0,0v0
					c0,0.783-0.036,1.558-0.088,2.329c0.756,0.122,1.526,0.202,2.316,0.202c8.009,0,14.501-6.492,14.501-14.501
					C179.461,93.564,177.637,89.768,174.746,87.117z"/>
			</g>
		</g>
		<g>
			<g>
				<path class="st3" d="M93.268,109.766L93.268,109.766c0-4.074,0-14.527,0-21.168h-9.335c-1.129,0-2.115-0.593-2.679-1.481
					c-2.892,2.651-4.716,6.447-4.716,10.679c0,8.009,6.492,14.501,14.501,14.501c0.79,0,1.56-0.081,2.316-0.202
					C93.304,111.324,93.268,110.549,93.268,109.766L93.268,109.766z"/>
			</g>
		</g>
		<g>
			<g>
				<path class="st3" d="M93.268,88.598v21.168c0,19.102,15.629,34.732,34.732,34.732s34.732-15.629,34.732-34.732V88.598H93.268z"
					/>
			</g>
		</g>
		<g>
			<g>
				<path class="st8" d="M172.067,72.871H83.933c-1.756,0-3.179,1.423-3.179,3.179v9.369c0,1.756,1.423,3.179,3.179,3.179h88.133
					c1.756,0,3.179-1.423,3.179-3.179V76.05C175.245,74.294,173.822,72.871,172.067,72.871z"/>
			</g>
		</g>
		<g>
			<g>
				<path class="st1" d="M183.61,36.811c-0.93-10.36-9.308-18.742-19.666-19.688c-2.991-0.273-5.867,0.062-8.525,0.894
					c-3.142,0.983-6.454-0.468-7.919-3.417C143.937,7.43,136.552,2.5,128,2.5s-15.937,4.93-19.499,12.1
					c-1.465,2.949-4.777,4.4-7.919,3.417c-2.658-0.831-5.534-1.167-8.525-0.894C81.698,18.069,73.32,26.451,72.39,36.811
					c-0.754,8.397,3.26,15.915,9.64,20.162c0.896,0.597,1.436,1.598,1.436,2.675v13.27c0.154-0.023,0.307-0.047,0.468-0.047h88.133
					c0.16,0,0.314,0.024,0.468,0.047v-13.27c0-1.076,0.54-2.078,1.436-2.675C180.35,52.726,184.364,45.208,183.61,36.811z"/>
			</g>
		</g>
		<g>
			<g>
				<path d="M128,129.068c-4.776,0-9.262-1.95-11.999-5.215c-0.887-1.058-0.748-2.635,0.31-3.522c1.06-0.887,2.636-0.748,3.522,0.31
					c1.798,2.146,4.852,3.427,8.167,3.427s6.369-1.281,8.167-3.427c0.887-1.058,2.464-1.197,3.522-0.31
					c1.058,0.887,1.197,2.464,0.31,3.522C137.262,127.118,132.776,129.068,128,129.068z"/>
			</g>
		</g>
		<g>
			<g>
				<circle cx="143.111" cy="101.811" r="4.5"/>
			</g>
		</g>
		<g>
			<g>
				<circle cx="112.889" cy="101.811" r="4.5"/>
			</g>
		</g>
		<g>
			<g>
				<path d="M164.96,114.797c-0.515,0-1.034-0.027-1.588-0.084c-1.374-0.141-2.373-1.368-2.232-2.742
					c0.141-1.373,1.357-2.385,2.742-2.232c0.383,0.039,0.735,0.058,1.078,0.058c6.617,0,12-5.383,12-12
					c0-3.176-1.24-6.173-3.492-8.44c-0.973-0.979-0.967-2.563,0.012-3.536c0.979-0.972,2.563-0.968,3.536,0.012
					c3.188,3.21,4.944,7.459,4.944,11.964C181.961,107.171,174.334,114.797,164.96,114.797z"/>
			</g>
		</g>
		<g>
			<g>
				<path d="M91.04,114.797c-9.374,0-17-7.626-17-17c0-4.596,1.818-8.906,5.118-12.136c0.986-0.966,2.569-0.949,3.535,0.038
					c0.966,0.987,0.949,2.57-0.038,3.535c-2.332,2.282-3.615,5.322-3.615,8.563c0,6.617,5.383,12,12,12
					c0.44,0,0.899-0.031,1.403-0.096c1.374-0.18,2.622,0.792,2.797,2.162c0.176,1.37-0.792,2.622-2.162,2.797
					C92.361,114.753,91.694,114.797,91.04,114.797z"/>
			</g>
		</g>
		<g>
			<g>
				<path d="M128,146.998c-20.529,0-37.231-16.702-37.231-37.231V89.375c0-1.381,1.119-2.5,2.5-2.5s2.5,1.119,2.5,2.5v20.391
					c0,17.772,14.459,32.231,32.231,32.231s32.231-14.459,32.231-32.231V89.344c0-1.381,1.119-2.5,2.5-2.5s2.5,1.119,2.5,2.5v20.422
					C165.231,130.295,148.529,146.998,128,146.998z"/>
			</g>
		</g>
		<g>
			<g>
				<path d="M172.066,91.098H83.934c-3.131,0-5.679-2.548-5.679-5.679V76.05c0-3.131,2.548-5.679,5.679-5.679h88.133
					c3.131,0,5.679,2.548,5.679,5.679v9.369C177.746,88.55,175.198,91.098,172.066,91.098z M83.934,75.371
					c-0.375,0-0.679,0.305-0.679,0.679v9.369c0,0.375,0.305,0.679,0.679,0.679h88.133c0.375,0,0.679-0.305,0.679-0.679V76.05
					c0-0.375-0.305-0.679-0.679-0.679H83.934z"/>
			</g>
		</g>
		<g>
			<g>
				<path d="M172.534,74.813c-1.381,0-2.5-1.119-2.5-2.5V59.648c0-1.915,0.954-3.692,2.55-4.756
					c5.901-3.928,9.172-10.771,8.536-17.857c-0.817-9.101-8.299-16.59-17.404-17.421c-2.579-0.238-5.122,0.03-7.551,0.79
					c-4.299,1.345-8.886-0.628-10.904-4.69C141.977,9.105,135.363,5,128,5c-7.364,0-13.978,4.105-17.261,10.713
					c-2.018,4.063-6.603,6.035-10.904,4.69c-2.43-0.76-4.971-1.027-7.552-0.79c-9.104,0.831-16.586,8.321-17.403,17.421
					c-0.636,7.086,2.634,13.929,8.535,17.857c1.597,1.063,2.551,2.841,2.551,4.756v12.665c0,1.381-1.119,2.5-2.5,2.5
					s-2.5-1.119-2.5-2.5V59.648c0-0.238-0.12-0.46-0.322-0.594C73.217,54.11,69.1,45.501,69.9,36.587
					c1.029-11.468,10.457-20.906,21.928-21.954c3.242-0.294,6.437,0.04,9.499,0.997c1.941,0.608,4.016-0.294,4.935-2.143
					C110.395,5.168,118.725,0,128,0c9.275,0,17.604,5.168,21.738,13.488c0.919,1.849,2.995,2.749,4.934,2.143
					c3.063-0.958,6.258-1.293,9.499-0.998c11.472,1.047,20.9,10.485,21.929,21.954c0.8,8.914-3.316,17.522-10.744,22.467
					c-0.201,0.134-0.321,0.356-0.321,0.594v12.665C175.034,73.694,173.915,74.813,172.534,74.813z"/>
			</g>
		</g>
		<g>
			<g>
				<path d="M106.451,74.311c-1.381,0-2.5-1.119-2.5-2.5v-16c0-1.381,1.119-2.5,2.5-2.5s2.5,1.119,2.5,2.5v16
					C108.951,73.191,107.832,74.311,106.451,74.311z"/>
			</g>
		</g>
		<g>
			<g>
				<path d="M129.625,74.311c-1.381,0-2.5-1.119-2.5-2.5v-16c0-1.381,1.119-2.5,2.5-2.5s2.5,1.119,2.5,2.5v16
					C132.125,73.191,131.006,74.311,129.625,74.311z"/>
			</g>
		</g>
		<g>
			<g>
				<path d="M152.799,74.311c-1.381,0-2.5-1.119-2.5-2.5v-16c0-1.381,1.119-2.5,2.5-2.5s2.5,1.119,2.5,2.5v16
					C155.299,73.191,154.18,74.311,152.799,74.311z"/>
			</g>
		</g>
		<g>
			<g>
				<path d="M131.5,199.274c-1.381,0-2.5-1.119-2.5-2.5v-1.247c0-1.381,1.119-2.5,2.5-2.5s2.5,1.119,2.5,2.5v1.247
					C134,198.155,132.881,199.274,131.5,199.274z"/>
			</g>
		</g>
		<g>
			<g>
				<path d="M131.5,213.483c-1.381,0-2.5-1.119-2.5-2.5v-1.247c0-1.381,1.119-2.5,2.5-2.5s2.5,1.119,2.5,2.5v1.247
					C134,212.364,132.881,213.483,131.5,213.483z"/>
			</g>
		</g>
		<g>
			<g>
				<path d="M131.5,227.692c-1.381,0-2.5-1.119-2.5-2.5v-1.247c0-1.381,1.119-2.5,2.5-2.5s2.5,1.119,2.5,2.5v1.247
					C134,226.573,132.881,227.692,131.5,227.692z"/>
			</g>
		</g>
		<g>
			<g>
				<path d="M131.5,241.901c-1.381,0-2.5-1.119-2.5-2.5v-1.247c0-1.381,1.119-2.5,2.5-2.5s2.5,1.119,2.5,2.5v1.247
					C134,240.782,132.881,241.901,131.5,241.901z"/>
			</g>
		</g>
		<g>
			<g>
				<path d="M162,212h-15c-1.381,0-2.5-1.119-2.5-2.5s1.119-2.5,2.5-2.5h15c1.381,0,2.5,1.119,2.5,2.5S163.381,212,162,212z"/>
			</g>
		</g>
		<g>
			<g>
				<path class="st7" d="M61.822,125.33c-4.498-0.838-8.043-4.31-8.898-8.716c-0.043-0.221-0.352-0.221-0.395,0
					c-0.855,4.406-4.4,7.879-8.898,8.716c-0.226,0.042-0.226,0.345,0,0.387c4.498,0.838,8.043,4.31,8.898,8.717
					c0.043,0.221,0.352,0.221,0.395,0c0.855-4.406,4.4-7.879,8.898-8.717C62.047,125.675,62.047,125.373,61.822,125.33z"/>
			</g>
		</g>
		<g>
			<g>
				<path class="st8" d="M206.515,112.101c-2.862-0.533-5.118-2.743-5.663-5.547c-0.027-0.141-0.224-0.141-0.251,0
					c-0.544,2.804-2.8,5.014-5.663,5.547c-0.144,0.027-0.144,0.219,0,0.246c2.862,0.533,5.118,2.743,5.663,5.547
					c0.027,0.141,0.224,0.141,0.251,0c0.544-2.804,2.8-5.014,5.663-5.547C206.658,112.32,206.658,112.128,206.515,112.101z"/>
			</g>
		</g>
		<g>
			<g>
				<path class="st6" d="M198.246,25.75h2.33v-2.33c0-1.744,1.413-3.157,3.157-3.157s3.157,1.413,3.157,3.157v2.33h2.329
					c1.744,0,3.157,1.413,3.157,3.157s-1.413,3.157-3.157,3.157h-2.329v2.33c0,1.744-1.413,3.157-3.157,3.157
					s-3.157-1.413-3.157-3.157v-2.33h-2.33c-1.744,0-3.157-1.413-3.157-3.157S196.502,25.75,198.246,25.75z"/>
			</g>
		</g>
		<g>
			<g>
				<circle class="st9" cx="40.755" cy="154.825" r="3.377"/>
			</g>
		</g>
		<g>
			<g>
				<circle class="st7" cx="181.755" cy="3.377" r="3.377"/>
			</g>
		</g>
		<g>
			<g>
				<path d="M121,255.438c-1.381,0-2.5-1.119-2.5-2.5v-56.774c0-6.264,3.111-12.077,8.323-15.551l28.939-19.293
					c1.149-0.767,2.701-0.456,3.467,0.693c0.766,1.149,0.456,2.701-0.693,3.467l-28.939,19.293
					c-3.817,2.544-6.096,6.803-6.096,11.391v56.774C123.5,254.319,122.381,255.438,121,255.438z"/>
			</g>
		</g>
		<g>
			<g>
				<path d="M127.164,184.778c-0.477,0-0.958-0.136-1.384-0.42l-28.171-18.781c-1.149-0.766-1.459-2.318-0.693-3.467
					c0.766-1.149,2.317-1.459,3.467-0.693l28.171,18.781c1.149,0.766,1.459,2.318,0.693,3.467
					C128.765,184.387,127.972,184.778,127.164,184.778z"/>
			</g>
		</g>
		<g>
			<g>
				<path d="M136,178.875c-1.381,0-2.5-1.119-2.5-2.5v-7.602c0-2.887,1.434-5.566,3.836-7.168l8-5.333
					c1.148-0.766,2.702-0.456,3.467,0.693c0.766,1.149,0.456,2.701-0.693,3.467l-8,5.333c-1.008,0.672-1.61,1.796-1.61,3.008v7.602
					C138.5,177.755,137.381,178.875,136,178.875z"/>
			</g>
		</g>
		<g>
			<g>
				<path d="M120,179.344c-1.381,0-2.5-1.119-2.5-2.5v-8.072c0-1.211-0.602-2.335-1.61-3.008l-8.209-5.473
					c-1.149-0.766-1.459-2.318-0.693-3.467c0.766-1.148,2.318-1.459,3.467-0.693l8.209,5.473c2.402,1.602,3.836,4.281,3.836,7.168
					v8.072C122.5,178.225,121.381,179.344,120,179.344z"/>
			</g>
		</g>
	</g>
</g>
<g id="Layer_47">
</g>
<g id="Layer_48">
</g>
<g id="Layer_49">
</g>
<g id="Layer_50">
</g>
<g id="Layer_51">
</g>
<g id="Layer_52">
</g>
<g id="Layer_53">
</g>
<g id="Layer_54">
</g>
<g id="Layer_55">
</g>
<g id="Layer_56">
</g>
<g id="Layer_57">
</g>
<g id="Layer_58">
</g>
<g id="Layer_59">
</g>
<g id="Layer_60">
</g>
<g id="Layer_61">
</g>
<g id="Layer_62">
</g>
<g id="Layer_63">
</g>
<g id="Layer_64">
</g>
<g id="Layer_65">
</g>
<g id="Layer_66">
</g>
<g id="Layer_67">
</g>
<g id="Layer_68">
</g>
<g id="Layer_69">
</g>
<g id="Layer_70">
</g>
<g id="Layer_71">
</g>
<g id="Layer_72">
</g>
<g id="Layer_73">
</g>
<g id="Layer_74">
</g>
<g id="Layer_75">
</g>
<g id="Layer_76">
</g>
<g id="Layer_77">
</g>
<g id="Layer_78">
</g>
<g id="Layer_79">
</g>
<g id="Layer_80">
</g>
</svg>
