<?xml version="1.0" encoding="utf-8"?>
<!-- Generator: Adobe Illustrator 24.0.0, SVG Export Plug-In . SVG Version: 6.00 Build 0)  -->
<svg version="1.1" xmlns="http://www.w3.org/2000/svg" xmlns:xlink="http://www.w3.org/1999/xlink" x="0px" y="0px"
	 viewBox="0 0 256 256" style="enable-background:new 0 0 256 256;" xml:space="preserve">
<style type="text/css">
	.st0{fill:#3A70BF;}
	.st1{fill:#EDF4FC;}
	.st2{fill:#C7D7E5;}
	.st3{fill:#F9D0B4;}
	.st4{fill:#5B5D60;}
	.st5{fill:#5290DB;}
	.st6{fill:#70D6F9;}
	.st7{fill:#F5C84C;}
	.st8{fill:#FC657E;}
	.st9{fill:#87D147;}
	.st10{fill:#FCDD86;}
	.st11{fill:#9BE5F9;}
	.st12{fill:#B2E26D;}
	.st13{fill:#754E34;}
	.st14{fill:#FCA265;}
	.st15{fill:#818182;}
	.st16{fill:#F94EED;}
	.st17{fill:#FFC197;}
	.st18{fill:#3CAADC;}
	.st19{fill:#DAE6F1;}
	.st20{fill:#57AF12;}
	.st21{fill:#EF4460;}
	.st22{fill:#FFF0CA;}
	.st23{fill:#F98FA6;}
	.st24{fill:#EDB311;}
	.st25{fill:#FC8C48;}
	.st26{fill:#FCB9CB;}
	.st27{fill:#96BC71;}
	.st28{fill:#78A352;}
	.st29{fill:#B8DD90;}
	.st30{fill:#6FAFEF;}
	.st31{fill:#29589F;}
	.st32{fill:#414344;}
	.st33{fill:#9B6B4B;}
	.st34{fill:#73B1EF;}
</style>
<g id="Layer_1">
</g>
<g id="Layer_2">
</g>
<g id="Layer_3">
</g>
<g id="Layer_4">
</g>
<g id="Layer_5">
</g>
<g id="Layer_6">
</g>
<g id="Layer_7">
</g>
<g id="Layer_8">
</g>
<g id="Layer_9">
</g>
<g id="Layer_10">
</g>
<g id="Layer_11">
</g>
<g id="Layer_12">
</g>
<g id="Layer_13">
</g>
<g id="Layer_14">
	<g>
		<g>
			<g>
				<path class="st3" d="M164.96,71.985c-0.759,0-1.502,0.064-2.229,0.177c0,3.696,0,20.799,0,26.293v0v0
					c0,0.783-0.036,1.558-0.088,2.329c0.756,0.122,1.526,0.202,2.316,0.202c8.009,0,14.501-6.492,14.501-14.501
					C179.461,78.477,172.969,71.985,164.96,71.985z"/>
			</g>
		</g>
		<g>
			<g>
				<path class="st3" d="M144.613,60.642c-5.29,6.174-24.047,24.906-51.344,17.13v20.684c0,19.102,15.629,34.732,34.732,34.732l0,0
					c19.102,0,34.732-15.629,34.732-34.732v-28.06c0-1.276-0.893-2.358-2.136-2.646c-3.515-0.814-7.782-2.85-12.673-7.294
					C146.955,59.577,145.463,59.649,144.613,60.642z"/>
			</g>
		</g>
		<g>
			<g>
				<path class="st3" d="M93.268,77.771c-2.385-0.679-4.834-1.559-7.346-2.668c-1.619-0.715-3.511-0.386-4.803,0.825
					c-2.817,2.641-4.581,6.39-4.581,10.557c0,8.008,6.492,14.501,14.501,14.501c0.79,0,1.56-0.08,2.316-0.202
					c-0.052-0.771-0.088-1.546-0.088-2.329V77.771z"/>
			</g>
		</g>
		<g>
			<g>
				<g>
					<path class="st10" d="M81.12,75.929c1.291-1.211,3.183-1.54,4.803-0.825c2.512,1.109,4.961,1.988,7.346,2.668
						c27.297,7.776,46.055-10.956,51.344-17.13c0.85-0.992,2.342-1.065,3.309-0.186c4.892,4.445,9.159,6.48,12.673,7.294
						c1.243,0.288,2.136,1.37,2.136,2.646v1.766c0.727-0.113,1.47-0.177,2.229-0.177c4.012,0,7.643,1.63,10.268,4.263v-8.494
						c0-25.976-21.253-47.229-47.229-47.229c-25.976,0-47.229,21.253-47.229,47.229v8.535C80.889,76.171,80.998,76.043,81.12,75.929
						z"/>
				</g>
			</g>
		</g>
		<g>
			<g>
				<path class="st8" d="M149.906,148.172c-3.298-1.626-5.386-4.984-5.386-8.66v-10.533c-4.92,2.682-10.551,4.208-16.52,4.208
					c-5.97,0-11.6-1.526-16.52-4.208v10.533c0,3.677-2.088,7.034-5.386,8.66l-8.587,4.234c-1.919,0.946-3.933,1.687-6.009,2.209
					l-24.833,6.269c-6.044,1.521-10.396,6.796-10.743,13.019l-2.744,75.418c-0.127,2.269,1.68,4.179,3.953,4.179h21.99
					c1.478,0,2.677-1.198,2.677-2.677v-47.143l3.883,12.439c2.539,8.133,3.83,16.604,3.83,25.124v9.58
					c0,1.478,1.198,2.677,2.677,2.677c1.321,0,3.328,0,5.836,0l60.235-101.21L149.906,148.172z"/>
			</g>
		</g>
		<g>
			<g>
				<path class="st8" d="M158.232,250.526v-11.659c0-1.642,1.332-2.974,2.974-2.974c-1.642,0-2.974-1.331-2.974-2.974V221.26
					c0-1.642,1.332-2.974,2.974-2.974c-1.642,0-2.974-1.331-2.974-2.974v-11.659c0-1.642,1.332-2.974,2.974-2.974h10.866h28.98
					l-0.974-26.776c-0.347-6.223-4.699-11.497-10.743-13.019l-15.643-3.949c0.072,0.455,0.003,0.936-0.249,1.365L116.72,253.5
					c16.389,0,35.921,0,44.486,0C159.564,253.5,158.232,252.169,158.232,250.526z"/>
			</g>
		</g>
		<g>
			<g>
				<path class="st9" d="M228.794,235.893h-67.588c-1.642,0-2.974,1.331-2.974,2.974v11.659c0,1.643,1.331,2.974,2.974,2.974h67.588
					c1.642,0,2.974-1.331,2.974-2.974v-11.659C231.768,237.224,230.436,235.893,228.794,235.893z"/>
			</g>
		</g>
		<g>
			<g>
				<path class="st8" d="M228.794,218.286h-67.588c-1.642,0-2.974,1.331-2.974,2.974v11.659c0,1.643,1.331,2.974,2.974,2.974h67.588
					c1.642,0,2.974-1.331,2.974-2.974V221.26C231.768,219.617,230.436,218.286,228.794,218.286z"/>
			</g>
		</g>
		<g>
			<g>
				<path class="st6" d="M228.794,200.679h-67.588c-1.642,0-2.974,1.331-2.974,2.974v11.659c0,1.643,1.331,2.974,2.974,2.974h67.588
					c1.642,0,2.974-1.331,2.974-2.974v-11.659C231.768,202.01,230.436,200.679,228.794,200.679z"/>
			</g>
		</g>
		<g>
			<g>
				<path class="st10" d="M188.892,142.914c-2.748-5.953-8.322-16.503-17.424-27.293c-1.152,1.067-2.543,1.912-4.139,2.418
					c-1.596,0.506-3.22,0.617-4.776,0.408c-1.205,13.853,0.252,25.531,1.427,32.042l6.676,3.815
					c5.331-1.69,9.981-3.164,15.358-4.868C188.743,148.571,190.092,145.513,188.892,142.914z"/>
			</g>
		</g>
		<g>
			<g>
				<path class="st10" d="M67.108,142.917c2.748-5.953,8.322-16.503,17.424-27.293c1.152,1.067,2.543,1.912,4.139,2.418
					c1.596,0.506,3.22,0.617,4.776,0.408c1.224,14.063-0.298,25.898-1.481,32.347c-0.517,2.816-3.38,4.538-6.109,3.673
					c-5.55-1.759-10.32-3.271-15.87-5.031C67.257,148.573,65.908,145.516,67.108,142.917z"/>
			</g>
		</g>
		<g>
			<g>
				<g>
					<path class="st19" d="M171.432,99.449c-1.95,0.975-4.142,1.538-6.471,1.538c-0.79,0-1.56-0.08-2.316-0.202
						c-0.384,5.723-2.163,11.078-5.009,15.722c2.718,1.931,6.271,2.618,9.694,1.533c5.791-1.836,8.998-8.019,7.162-13.81
						C173.888,102.325,172.807,100.707,171.432,99.449z"/>
				</g>
			</g>
		</g>
		<g>
			<g>
				<path class="st19" d="M93.356,100.785c-0.756,0.122-1.526,0.202-2.316,0.202c-2.328,0-4.52-0.562-6.469-1.537
					c-1.377,1.258-2.458,2.877-3.062,4.782c-1.836,5.791,1.371,11.974,7.162,13.81c3.424,1.085,6.977,0.398,9.695-1.534
					C95.519,111.865,93.74,106.508,93.356,100.785z"/>
			</g>
		</g>
		<g>
			<g>
				<rect x="172.073" y="235.893" class="st20" width="45.855" height="17.607"/>
			</g>
		</g>
		<g>
			<g>
				<rect x="172.073" y="218.286" class="st21" width="45.855" height="17.607"/>
			</g>
		</g>
		<g>
			<g>
				<rect x="172.073" y="200.679" class="st18" width="45.855" height="17.607"/>
			</g>
		</g>
		<g>
			<g>
				<path class="st15" d="M116.72,253.5l56.723-95.199c0.582-0.991,0.242-2.266-0.756-2.837l-10.416-5.952
					c-0.981-0.561-2.231-0.228-2.803,0.747L98.023,253.5H116.72z"/>
			</g>
		</g>
		<g>
			<g>
				<path class="st3" d="M128,174.5c11.685,0,21.652-10.191,25.566-24.523l-3.66-1.805c-3.298-1.626-5.386-4.984-5.386-8.66v-10.533
					c-4.92,2.682-10.551,4.208-16.52,4.208c-5.97,0-11.6-1.526-16.52-4.208v10.533c0,3.677-2.088,7.034-5.386,8.66l-3.66,1.805
					C106.348,164.309,116.315,174.5,128,174.5z"/>
			</g>
		</g>
		<g>
			<g>
				<path class="st3" d="M57.131,253.5h21.99c1.478,0,2.677-1.198,2.677-2.677V224.5H54.081l-0.903,24.821
					C53.051,251.59,54.858,253.5,57.131,253.5z"/>
			</g>
		</g>
		<g>
			<g>
				<path class="st7" d="M120.044,216.5H85.791c1.603,5.222,2.688,10.58,3.253,16h21.477L120.044,216.5z"/>
			</g>
		</g>
		<g>
			<g>
				<path class="st7" d="M158.232,221.26c0-1.642,1.332-2.974,2.974-2.974c-1.219,0-2.265-0.736-2.724-1.786h-19.717l-9.533,16h29
					V221.26z"/>
			</g>
		</g>
		<g>
			<g>
				<path d="M164.961,103.487c-0.544,0-1.093-0.031-1.678-0.093c-1.373-0.148-2.366-1.38-2.218-2.753
					c0.147-1.372,1.374-2.362,2.753-2.218c0.405,0.044,0.778,0.065,1.143,0.065c6.617,0,12-5.384,12-12.001s-5.383-12-12-12
					c-0.294,0-0.586,0.012-0.873,0.034c-1.38,0.097-2.579-0.925-2.685-2.302c-0.105-1.376,0.926-2.578,2.302-2.684
					c0.414-0.032,0.833-0.048,1.256-0.048c9.374,0,17,7.626,17,17C181.961,95.86,174.335,103.487,164.961,103.487z"/>
			</g>
		</g>
		<g>
			<g>
				<path d="M128,135.687c-20.529,0-37.231-16.702-37.231-37.232V77.771c0-0.784,0.368-1.523,0.994-1.995
					c0.626-0.473,1.44-0.625,2.19-0.409c25.922,7.385,43.876-10.649,48.761-16.352l0,0c0.849-0.991,2.033-1.581,3.334-1.663
					c1.301-0.079,2.591,0.376,3.556,1.253c3.951,3.59,7.839,5.848,11.557,6.709c2.397,0.556,4.071,2.646,4.071,5.081v28.06
					C165.231,118.985,148.529,135.687,128,135.687z M95.769,80.979v17.476c0,17.773,14.459,32.232,32.231,32.232
					s32.231-14.459,32.231-32.232v-28.06c0-0.113-0.101-0.187-0.2-0.21c-4.516-1.046-9.109-3.656-13.657-7.759
					C141.019,68.626,122.587,86.86,95.769,80.979z"/>
			</g>
		</g>
		<g>
			<g>
				<path d="M91.039,103.487c-9.374,0-17-7.626-17-17.001c0-4.667,1.957-9.18,5.37-12.38c2.03-1.904,4.982-2.41,7.523-1.289
					c2.329,1.029,4.691,1.887,7.021,2.55c1.328,0.378,2.098,1.761,1.72,3.089s-1.763,2.1-3.089,1.72
					c-2.551-0.727-5.132-1.664-7.671-2.785c-0.703-0.31-1.519-0.167-2.084,0.362c-2.444,2.292-3.79,5.394-3.79,8.733
					c0,6.617,5.383,12.001,12,12.001c0.381,0,0.772-0.023,1.197-0.071c1.378-0.154,2.61,0.833,2.765,2.205s-0.832,2.609-2.204,2.764
					C92.184,103.453,91.608,103.487,91.039,103.487z"/>
			</g>
		</g>
		<g>
			<g>
				<g>
					<path d="M80.771,78.618c-1.381,0-2.5-1.119-2.5-2.5v-8.363c0-27.421,22.309-49.729,49.729-49.729s49.729,22.308,49.729,49.729
						v8.162c0,1.381-1.119,2.5-2.5,2.5s-2.5-1.119-2.5-2.5v-8.162c0-24.664-20.065-44.729-44.729-44.729
						S83.271,43.091,83.271,67.755v8.363C83.271,77.499,82.152,78.618,80.771,78.618z"/>
				</g>
			</g>
		</g>
		<g>
			<g>
				<path d="M157.683,154.508c-0.371,0-0.748-0.083-1.104-0.258l-7.778-3.835c-4.183-2.062-6.78-6.239-6.78-10.902v-9.387
					c0-1.381,1.119-2.5,2.5-2.5s2.5,1.119,2.5,2.5v9.387c0,2.745,1.529,5.204,3.991,6.418l7.778,3.835
					c1.238,0.61,1.747,2.109,1.137,3.348C159.491,153.996,158.604,154.508,157.683,154.508z"/>
			</g>
		</g>
		<g>
			<g>
				<path d="M98.023,256h-5.837c-2.854,0-5.177-2.322-5.177-5.177v-9.58c0-7.067-0.911-14.08-2.713-20.896v30.476
					c0,2.854-2.322,5.177-5.177,5.177H57.131c-1.768,0-3.479-0.737-4.693-2.021c-1.215-1.284-1.854-3.033-1.756-4.797l2.742-75.37
					c0.413-7.404,5.488-13.554,12.631-15.352l24.832-6.268c1.902-0.479,3.758-1.161,5.516-2.027l8.586-4.234
					c2.462-1.214,3.991-3.673,3.991-6.418v-9.949c0-1.381,1.119-2.5,2.5-2.5s2.5,1.119,2.5,2.5v9.949
					c0,4.663-2.598,8.84-6.78,10.902l-8.586,4.234c-2.074,1.022-4.262,1.827-6.504,2.391l-24.832,6.268
					c-5.012,1.262-8.571,5.575-8.859,10.734l-2.742,75.37c-0.032,0.594,0.233,0.961,0.395,1.131
					c0.161,0.171,0.514,0.457,1.061,0.457H79.12c0.098,0,0.177-0.079,0.177-0.177v-47.143c0-1.235,0.902-2.285,2.123-2.472
					c1.222-0.185,2.396,0.548,2.764,1.727l3.883,12.438c2.616,8.382,3.943,17.086,3.943,25.87v9.58c0,0.098,0.079,0.177,0.177,0.177
					h5.837c1.381,0,2.5,1.119,2.5,2.5S99.404,256,98.023,256z"/>
			</g>
		</g>
		<g>
			<g>
				<path d="M201.021,202.375c-1.339,0-2.447-1.06-2.496-2.409l-0.944-25.972c-0.286-5.11-3.846-9.424-8.855-10.685l-15.359-3.877
					c-1.339-0.338-2.15-1.697-1.813-3.036s1.704-2.146,3.035-1.812l15.358,3.876c7.142,1.797,12.217,7.948,12.628,15.303
					l0.946,26.021c0.051,1.38-1.027,2.539-2.407,2.589C201.082,202.374,201.052,202.375,201.021,202.375z"/>
			</g>
		</g>
		<g>
			<g>
				<path d="M161.206,256H116.72c-1.381,0-2.5-1.119-2.5-2.5s1.119-2.5,2.5-2.5h44.486c1.381,0,2.5,1.119,2.5,2.5
					S162.587,256,161.206,256z"/>
			</g>
		</g>
		<g>
			<g>
				<path d="M128,117.757c-4.775,0-9.262-1.949-11.999-5.215c-0.887-1.058-0.748-2.635,0.31-3.522
					c1.058-0.886,2.634-0.749,3.522,0.31c1.799,2.146,4.852,3.427,8.167,3.427s6.368-1.281,8.167-3.427
					c0.889-1.058,2.465-1.196,3.522-0.31c1.058,0.887,1.196,2.464,0.31,3.522C137.262,115.808,132.775,117.757,128,117.757z"/>
			</g>
		</g>
		<g>
			<g>
				<circle cx="143.111" cy="90.5" r="4.5"/>
			</g>
		</g>
		<g>
			<g>
				<circle cx="112.889" cy="90.5" r="4.5"/>
			</g>
		</g>
		<g>
			<g>
				<path d="M228.794,256h-67.588c-3.019,0-5.474-2.456-5.474-5.474v-11.659c0-3.018,2.455-5.474,5.474-5.474h67.588
					c3.019,0,5.474,2.456,5.474,5.474v11.659C234.268,253.544,231.813,256,228.794,256z M161.206,238.393
					c-0.261,0-0.474,0.212-0.474,0.474v11.659c0,0.261,0.213,0.474,0.474,0.474h67.588c0.261,0,0.474-0.213,0.474-0.474v-11.659
					c0-0.261-0.213-0.474-0.474-0.474H161.206z"/>
			</g>
		</g>
		<g>
			<g>
				<path d="M228.794,238.393h-67.588c-3.019,0-5.474-2.456-5.474-5.474V221.26c0-3.019,2.455-5.474,5.474-5.474h67.588
					c3.019,0,5.474,2.456,5.474,5.474v11.659C234.268,235.938,231.813,238.393,228.794,238.393z M161.206,220.786
					c-0.261,0-0.474,0.213-0.474,0.474v11.659c0,0.261,0.213,0.474,0.474,0.474h67.588c0.261,0,0.474-0.213,0.474-0.474V221.26
					c0-0.261-0.213-0.474-0.474-0.474H161.206z"/>
			</g>
		</g>
		<g>
			<g>
				<path d="M228.794,220.786h-67.588c-3.019,0-5.474-2.456-5.474-5.474v-11.659c0-3.018,2.455-5.474,5.474-5.474h67.588
					c3.019,0,5.474,2.456,5.474,5.474v11.659C234.268,218.33,231.813,220.786,228.794,220.786z M161.206,203.179
					c-0.261,0-0.474,0.212-0.474,0.474v11.659c0,0.261,0.213,0.474,0.474,0.474h67.588c0.261,0,0.474-0.213,0.474-0.474v-11.659
					c0-0.261-0.213-0.474-0.474-0.474H161.206z"/>
			</g>
		</g>
		<g>
			<g>
				<path d="M163.804,151.997c-1.196,0-2.254-0.861-2.462-2.08c-1.185-6.949-2.381-17.941-1.349-30.847
					c0.109-1.377,1.332-2.397,2.691-2.293c1.376,0.11,2.403,1.315,2.293,2.691c-0.991,12.391,0.156,22.94,1.294,29.608
					c0.231,1.361-0.684,2.653-2.045,2.885C164.085,151.985,163.943,151.997,163.804,151.997z"/>
			</g>
		</g>
		<g>
			<g>
				<path d="M171.189,156.635c-1.061,0-2.045-0.68-2.382-1.745c-0.418-1.316,0.312-2.721,1.627-3.139l14.824-4.699
					c0.626-0.198,1.116-0.637,1.38-1.236c0.265-0.6,0.259-1.258-0.017-1.855c-2.397-5.194-7.727-15.483-16.473-26.021
					c-0.882-1.063-0.735-2.639,0.327-3.521c1.062-0.882,2.639-0.736,3.521,0.327c8.653,10.426,14.111,20.502,17.165,27.119
					c0.873,1.891,0.892,4.067,0.051,5.969c-0.84,1.902-2.459,3.354-4.442,3.983l-14.824,4.7
					C171.694,156.598,171.44,156.635,171.189,156.635z"/>
			</g>
		</g>
		<g>
			<g>
				<path d="M87.292,157.191c-0.736,0-1.475-0.112-2.191-0.339l-15.87-5.031c-1.984-0.629-3.604-2.081-4.443-3.983
					c-0.841-1.903-0.822-4.079,0.05-5.969c3.052-6.61,8.503-16.676,17.145-27.094c0.88-1.063,2.457-1.209,3.52-0.328
					c1.063,0.881,1.21,2.458,0.328,3.521c-8.733,10.529-14.057,20.807-16.452,25.997c-0.274,0.596-0.28,1.255-0.016,1.854
					c0.264,0.599,0.754,1.038,1.38,1.237l15.87,5.03c0.624,0.199,1.279,0.122,1.841-0.215c0.561-0.337,0.936-0.879,1.054-1.525
					c1.037-5.651,2.613-17.178,1.516-30.89c-0.11-1.376,0.916-2.582,2.293-2.692c1.359-0.111,2.582,0.917,2.691,2.292
					c1.144,14.282-0.5,26.299-1.582,32.191c-0.376,2.048-1.613,3.837-3.396,4.908C89.889,156.84,88.596,157.191,87.292,157.191z"/>
			</g>
		</g>
		<g>
			<g>
				<g>
					<path d="M164.032,121.047c-2.345,0-4.679-0.609-6.749-1.8c-1.196-0.688-1.608-2.217-0.92-3.414
						c0.689-1.197,2.216-1.608,3.414-0.92c2.094,1.205,4.509,1.468,6.798,0.743c2.164-0.686,3.931-2.173,4.977-4.189
						c1.045-2.016,1.242-4.317,0.557-6.482c-0.363-1.147-0.956-2.184-1.761-3.082c-0.921-1.028-0.834-2.609,0.194-3.53
						c1.027-0.922,2.608-0.834,3.53,0.193c1.28,1.43,2.224,3.081,2.803,4.908c1.089,3.437,0.775,7.093-0.885,10.294
						s-4.468,5.564-7.905,6.654C166.765,120.841,165.396,121.047,164.032,121.047z"/>
				</g>
			</g>
		</g>
		<g>
			<g>
				<path d="M91.976,121.053c-1.364,0-2.733-0.208-4.061-0.628c-7.097-2.25-11.039-9.853-8.789-16.948
					c0.635-2.006,1.704-3.793,3.178-5.31c0.963-0.991,2.544-1.013,3.535-0.051c0.99,0.962,1.013,2.545,0.051,3.535
					c-0.927,0.954-1.599,2.076-1.997,3.335c-1.417,4.469,1.065,9.256,5.533,10.672c2.336,0.741,4.884,0.429,6.99-0.857
					c1.176-0.719,2.716-0.349,3.437,0.83c0.72,1.178,0.348,2.717-0.831,3.437C96.874,120.38,94.433,121.053,91.976,121.053z"/>
			</g>
		</g>
		<g>
			<g>
				<path d="M145.498,211c-0.454,0-0.913-0.124-1.326-0.382l-16.327-10.236c-1.17-0.733-1.523-2.276-0.79-3.446
					c0.733-1.169,2.276-1.523,3.446-0.79l16.327,10.236c1.17,0.733,1.523,2.276,0.79,3.446C147.144,210.585,146.33,211,145.498,211z
					"/>
			</g>
		</g>
		<g>
			<g>
				<path class="st8" d="M57.822,125.33c-4.498-0.838-8.043-4.31-8.898-8.716c-0.043-0.221-0.352-0.221-0.395,0
					c-0.855,4.406-4.4,7.879-8.898,8.716c-0.226,0.042-0.226,0.345,0,0.387c4.498,0.838,8.043,4.31,8.898,8.717
					c0.043,0.221,0.352,0.221,0.395,0c0.855-4.406,4.4-7.879,8.898-8.717C58.047,125.675,58.047,125.373,57.822,125.33z"/>
			</g>
		</g>
		<g>
			<g>
				<path class="st8" d="M202.515,112.101c-2.862-0.533-5.118-2.743-5.663-5.547c-0.027-0.141-0.224-0.141-0.251,0
					c-0.544,2.804-2.8,5.014-5.663,5.547c-0.144,0.027-0.144,0.219,0,0.246c2.862,0.533,5.118,2.743,5.663,5.547
					c0.027,0.141,0.224,0.141,0.251,0c0.544-2.804,2.8-5.014,5.663-5.547C202.658,112.32,202.658,112.128,202.515,112.101z"/>
			</g>
		</g>
		<g>
			<g>
				<path class="st6" d="M185.246,25.75h2.33v-2.33c0-1.744,1.413-3.157,3.157-3.157s3.157,1.413,3.157,3.157v2.33h2.329
					c1.744,0,3.157,1.413,3.157,3.157s-1.413,3.157-3.157,3.157h-2.329v2.33c0,1.744-1.413,3.157-3.157,3.157
					s-3.157-1.413-3.157-3.157v-2.33h-2.33c-1.744,0-3.157-1.413-3.157-3.157S183.502,25.75,185.246,25.75z"/>
			</g>
		</g>
		<g>
			<g>
				<circle class="st7" cx="36.755" cy="154.825" r="3.377"/>
			</g>
		</g>
		<g>
			<g>
				<circle class="st9" cx="177.755" cy="3.377" r="3.377"/>
			</g>
		</g>
		<g>
			<g>
				<path d="M172.072,255.25c-1.381,0-2.5-1.119-2.5-2.5v-16.042c0-1.381,1.119-2.5,2.5-2.5s2.5,1.119,2.5,2.5v16.042
					C174.572,254.131,173.453,255.25,172.072,255.25z"/>
			</g>
		</g>
		<g>
			<g>
				<path d="M217.928,255.125c-1.381,0-2.5-1.119-2.5-2.5v-15.917c0-1.381,1.119-2.5,2.5-2.5s2.5,1.119,2.5,2.5v15.917
					C220.428,254.006,219.309,255.125,217.928,255.125z"/>
			</g>
		</g>
		<g>
			<g>
				<path d="M217.928,237.583c-1.381,0-2.5-1.119-2.5-2.5v-15.896c0-1.381,1.119-2.5,2.5-2.5s2.5,1.119,2.5,2.5v15.896
					C220.428,236.464,219.309,237.583,217.928,237.583z"/>
			</g>
		</g>
		<g>
			<g>
				<path d="M172.072,237.583c-1.381,0-2.5-1.119-2.5-2.5V219.25c0-1.381,1.119-2.5,2.5-2.5s2.5,1.119,2.5,2.5v15.833
					C174.572,236.464,173.453,237.583,172.072,237.583z"/>
			</g>
		</g>
		<g>
			<g>
				<path d="M217.928,219.875c-1.381,0-2.5-1.119-2.5-2.5v-15.75c0-1.381,1.119-2.5,2.5-2.5s2.5,1.119,2.5,2.5v15.75
					C220.428,218.756,219.309,219.875,217.928,219.875z"/>
			</g>
		</g>
		<g>
			<g>
				<path d="M172.072,220c-1.381,0-2.5-1.119-2.5-2.5v-15.667c0-1.381,1.119-2.5,2.5-2.5s2.5,1.119,2.5,2.5V217.5
					C174.572,218.881,173.453,220,172.072,220z"/>
			</g>
		</g>
		<g>
			<g>
				<path d="M116.72,256H98.023c-0.899,0-1.729-0.483-2.173-1.264c-0.445-0.782-0.436-1.742,0.024-2.515l61.444-103.241
					c1.252-2.131,4.032-2.873,6.191-1.639l10.417,5.953c1.067,0.61,1.829,1.601,2.146,2.788c0.315,1.188,0.147,2.425-0.475,3.485
					l-56.731,95.213C118.416,255.537,117.601,256,116.72,256z M102.421,251h12.878l55.762-93.586l-9.657-5.518L102.421,251z
					 M161.624,151.524l-0.003,0.004C161.622,151.527,161.623,151.526,161.624,151.524z"/>
			</g>
		</g>
		<g>
			<g>
				<path d="M128,177c-12.242,0-23.104-9.926-27.671-25.288c-0.394-1.323,0.36-2.715,1.684-3.109
					c1.331-0.391,2.716,0.361,3.109,1.684C109.044,163.478,118.023,172,128,172c10.067,0,19.078-8.628,22.957-21.981
					c0.386-1.326,1.772-2.087,3.098-1.704c1.326,0.385,2.089,1.772,1.703,3.098C151.243,166.957,140.348,177,128,177z"/>
			</g>
		</g>
		<g>
			<g>
				<path d="M81.125,227H54.906c-1.381,0-2.5-1.119-2.5-2.5s1.119-2.5,2.5-2.5h26.219c1.381,0,2.5,1.119,2.5,2.5
					S82.506,227,81.125,227z"/>
			</g>
		</g>
		<g>
			<g>
				<path d="M109.876,235H89.917c-1.381,0-2.5-1.119-2.5-2.5s1.119-2.5,2.5-2.5h19.959c1.381,0,2.5,1.119,2.5,2.5
					S111.257,235,109.876,235z"/>
			</g>
		</g>
		<g>
			<g>
				<path d="M119.375,219h-32.5c-1.381,0-2.5-1.119-2.5-2.5s1.119-2.5,2.5-2.5h32.5c1.381,0,2.5,1.119,2.5,2.5
					S120.756,219,119.375,219z"/>
			</g>
		</g>
		<g>
			<g>
				<path d="M157.708,219h-18.104c-1.381,0-2.5-1.119-2.5-2.5s1.119-2.5,2.5-2.5h18.104c1.381,0,2.5,1.119,2.5,2.5
					S159.089,219,157.708,219z"/>
			</g>
		</g>
		<g>
			<g>
				<path d="M157.708,235h-27.854c-1.381,0-2.5-1.119-2.5-2.5s1.119-2.5,2.5-2.5h27.854c1.381,0,2.5,1.119,2.5,2.5
					S159.089,235,157.708,235z"/>
			</g>
		</g>
	</g>
</g>
<g id="Layer_15">
</g>
<g id="Layer_16">
</g>
<g id="Layer_17">
</g>
<g id="Layer_18">
</g>
<g id="Layer_19">
</g>
<g id="Layer_20">
</g>
<g id="Layer_21">
</g>
<g id="Layer_22">
</g>
<g id="Layer_23">
</g>
<g id="Layer_24">
</g>
<g id="Layer_25">
</g>
<g id="Layer_26">
</g>
<g id="Layer_27">
</g>
<g id="Layer_28">
</g>
<g id="Layer_29">
</g>
<g id="Layer_30">
</g>
<g id="Layer_31">
</g>
<g id="Layer_32">
</g>
<g id="Layer_33">
</g>
<g id="Layer_34">
</g>
<g id="Layer_35">
</g>
<g id="Layer_36">
</g>
<g id="Layer_37">
</g>
<g id="Layer_38">
</g>
<g id="Layer_39">
</g>
<g id="Layer_40">
</g>
<g id="Layer_41">
</g>
<g id="Layer_42">
</g>
<g id="Layer_43">
</g>
<g id="Layer_44">
</g>
<g id="Layer_45">
</g>
<g id="Layer_46">
</g>
<g id="Layer_47">
</g>
<g id="Layer_48">
</g>
<g id="Layer_49">
</g>
<g id="Layer_50">
</g>
<g id="Layer_51">
</g>
<g id="Layer_52">
</g>
<g id="Layer_53">
</g>
<g id="Layer_54">
</g>
<g id="Layer_55">
</g>
<g id="Layer_56">
</g>
<g id="Layer_57">
</g>
<g id="Layer_58">
</g>
<g id="Layer_59">
</g>
<g id="Layer_60">
</g>
<g id="Layer_61">
</g>
<g id="Layer_62">
</g>
<g id="Layer_63">
</g>
<g id="Layer_64">
</g>
<g id="Layer_65">
</g>
<g id="Layer_66">
</g>
<g id="Layer_67">
</g>
<g id="Layer_68">
</g>
<g id="Layer_69">
</g>
<g id="Layer_70">
</g>
<g id="Layer_71">
</g>
<g id="Layer_72">
</g>
<g id="Layer_73">
</g>
<g id="Layer_74">
</g>
<g id="Layer_75">
</g>
<g id="Layer_76">
</g>
<g id="Layer_77">
</g>
<g id="Layer_78">
</g>
<g id="Layer_79">
</g>
<g id="Layer_80">
</g>
</svg>
