<?xml version="1.0" encoding="utf-8"?>
<!-- Generator: Adobe Illustrator 24.0.0, SVG Export Plug-In . SVG Version: 6.00 Build 0)  -->
<svg version="1.1" xmlns="http://www.w3.org/2000/svg" xmlns:xlink="http://www.w3.org/1999/xlink" x="0px" y="0px"
	 viewBox="0 0 256 256" style="enable-background:new 0 0 256 256;" xml:space="preserve">
<style type="text/css">
	.st0{fill:#3A70BF;}
	.st1{fill:#EDF4FC;}
	.st2{fill:#C7D7E5;}
	.st3{fill:#F9D0B4;}
	.st4{fill:#5B5D60;}
	.st5{fill:#5290DB;}
	.st6{fill:#70D6F9;}
	.st7{fill:#F5C84C;}
	.st8{fill:#FC657E;}
	.st9{fill:#87D147;}
	.st10{fill:#FCDD86;}
	.st11{fill:#9BE5F9;}
	.st12{fill:#B2E26D;}
	.st13{fill:#754E34;}
	.st14{fill:#FCA265;}
	.st15{fill:#818182;}
	.st16{fill:#F94EED;}
	.st17{fill:#FFC197;}
	.st18{fill:#3CAADC;}
	.st19{fill:#DAE6F1;}
	.st20{fill:#57AF12;}
	.st21{fill:#EF4460;}
	.st22{fill:#FFF0CA;}
	.st23{fill:#F98FA6;}
	.st24{fill:#EDB311;}
	.st25{fill:#FC8C48;}
	.st26{fill:#FCB9CB;}
	.st27{fill:#96BC71;}
	.st28{fill:#78A352;}
	.st29{fill:#B8DD90;}
	.st30{fill:#6FAFEF;}
	.st31{fill:#29589F;}
	.st32{fill:#414344;}
	.st33{fill:#9B6B4B;}
	.st34{fill:#73B1EF;}
</style>
<g id="Layer_1">
</g>
<g id="Layer_2">
</g>
<g id="Layer_3">
</g>
<g id="Layer_4">
</g>
<g id="Layer_5">
</g>
<g id="Layer_6">
</g>
<g id="Layer_7">
</g>
<g id="Layer_8">
</g>
<g id="Layer_9">
</g>
<g id="Layer_10">
</g>
<g id="Layer_11">
</g>
<g id="Layer_12">
</g>
<g id="Layer_13">
	<g>
		<g>
			<g>
				<path class="st3" d="M50.314,233l-0.939,16.19c-0.13,2.34,1.732,4.31,4.076,4.31h23.004l0-20.5H50.314z"/>
			</g>
		</g>
		<g>
			<g>
				<path class="st5" d="M50.159,220h26.296v13H50.159c-1.217,0-2.204-0.987-2.204-2.204v-8.592
					C47.955,220.987,48.942,220,50.159,220z"/>
			</g>
		</g>
		<g>
			<g>
				<path class="st5" d="M97.352,154.265l8.134-7.427c0.753-0.687,1.917-0.646,2.619,0.092l15.687,16.491
					c0.77,0.81,0.78,2.078,0.022,2.899l-8.157,8.837c-0.936,1.014-2.552,0.97-3.431-0.094L97.171,156.84
					C96.535,156.071,96.615,154.938,97.352,154.265z"/>
			</g>
		</g>
		<g>
			<g>
				<path class="st5" d="M140.344,175.158c0.611,0.662,1.509,0.865,2.305,0.636l13.813-23.525l-5.947-5.43
					c-0.753-0.687-1.917-0.646-2.619,0.092l-15.687,16.492c-0.77,0.81-0.78,2.078-0.022,2.899L140.344,175.158z"/>
			</g>
		</g>
		<g>
			<g>
				<path class="st15" d="M115.72,253.5l54.723-93.199c0.582-0.991,0.242-2.266-0.756-2.837l-10.416-5.952
					c-0.981-0.561-2.231-0.228-2.803,0.747L97.023,253.5H115.72z"/>
			</g>
		</g>
		<g>
			<g>
				<path class="st0" d="M140.344,175.158l-8.157-8.837c-0.758-0.821-0.748-2.089,0.022-2.899l14.884-15.648
					c-1.249-2.003-1.948-4.349-1.948-6.803v-6.335c-5.268,2.868-11.296,4.501-17.686,4.501h0c-5.959,0-11.597-1.427-16.604-3.945
					v5.778c0,2.453-0.699,4.799-1.948,6.803l14.884,15.648c0.77,0.81,0.78,2.078,0.022,2.899l-8.157,8.837
					c-0.936,1.014-2.552,0.97-3.431-0.094L97.171,156.84c-0.227-0.275-0.358-0.596-0.406-0.925l-3.296,1.625l-28.902,7.275
					c-6.233,1.569-10.721,7.008-11.078,13.425L51.067,220h25.388c0,18.595,0,27.935,0,33.5h20.568l45.626-77.706
					C141.853,176.022,140.955,175.82,140.344,175.158z"/>
			</g>
		</g>
		<g>
			<g>
				<path class="st0" d="M166.232,250.526v-11.659c0-1.642,1.332-2.974,2.974-2.974c-1.642,0-2.974-1.331-2.974-2.974V221.26
					c0-1.642,1.332-2.974,2.974-2.974c-1.642,0-2.974-1.331-2.974-2.974v-11.659c0-1.642,1.332-2.974,2.974-2.974h34.606
					l-1.301-22.44c-0.357-6.417-4.846-11.856-11.078-13.425l-20.739-5.22c-0.04,0.242-0.119,0.482-0.25,0.707L115.72,253.5h53.486
					C167.564,253.5,166.232,252.169,166.232,250.526z"/>
			</g>
		</g>
		<g>
			<g>
				<path class="st3" d="M124.339,164.5h7.323c0.072-0.393,0.253-0.769,0.547-1.078l14.884-15.648
					c-1.249-2.003-1.948-4.349-1.948-6.803v-6.335c-5.268,2.868-11.296,4.501-17.686,4.501h0c-5.959,0-11.597-1.427-16.604-3.945
					v5.778c0,2.453-0.699,4.799-1.948,6.803l14.884,15.648C124.086,163.731,124.267,164.107,124.339,164.5z"/>
			</g>
		</g>
		<g>
			<g>
				<path class="st9" d="M236.794,235.893h-67.588c-1.642,0-2.974,1.331-2.974,2.974v11.659c0,1.643,1.331,2.974,2.974,2.974h67.588
					c1.642,0,2.974-1.331,2.974-2.974v-11.659C239.768,237.224,238.436,235.893,236.794,235.893z"/>
			</g>
		</g>
		<g>
			<g>
				<path class="st8" d="M236.794,218.286h-67.588c-1.642,0-2.974,1.331-2.974,2.974v11.659c0,1.643,1.331,2.974,2.974,2.974h67.588
					c1.642,0,2.974-1.331,2.974-2.974V221.26C239.768,219.617,238.436,218.286,236.794,218.286z"/>
			</g>
		</g>
		<g>
			<g>
				<path class="st6" d="M236.794,200.679h-67.588c-1.642,0-2.974,1.331-2.974,2.974v11.659c0,1.643,1.331,2.974,2.974,2.974h67.588
					c1.642,0,2.974-1.331,2.974-2.974v-11.659C239.768,202.01,238.436,200.679,236.794,200.679z"/>
			</g>
		</g>
		<g>
			<g>
				<path class="st3" d="M167.062,73.561c-0.813,0-1.609,0.069-2.388,0.189c0,3.96,0,22.286,0,28.173
					c0,0.839-0.038,1.67-0.094,2.496c0.81,0.13,1.635,0.217,2.482,0.217c8.581,0,15.537-6.956,15.537-15.537
					S175.643,73.561,167.062,73.561z"/>
			</g>
		</g>
		<g>
			<g>
				<path class="st3" d="M90.244,101.923c0-3.856,0-20.507,0-28.173c-0.779-0.121-1.575-0.189-2.388-0.189
					c-8.581,0-15.538,6.957-15.538,15.538s6.956,15.537,15.538,15.537c0.847,0,1.672-0.086,2.482-0.217v-0.001
					C90.282,103.593,90.244,102.762,90.244,101.923z"/>
			</g>
		</g>
		<g>
			<g>
				<path class="st3" d="M161.664,69.037c-2.241-0.554-4.155-1.987-5.331-3.942c-0.889-1.478-2.645-2.227-4.295-1.726
					c-4.828,1.466-10.136-0.329-13.091-4.394c-1.166-1.604-3.385-1.927-5.113-0.955c-3.608,2.029-8.059,2.029-11.667,0.001
					c-1.729-0.972-3.949-0.649-5.115,0.955c-2.955,4.066-8.262,5.858-13.088,4.394c-1.658-0.503-3.411,0.261-4.307,1.743
					c-1.301,2.151-3.484,3.641-5.961,4.06c-1.892,0.32-3.452,2.071-3.452,3.99c0,5.843,0,17.142,0,28.76
					c0,20.468,16.747,37.215,37.215,37.215h0c20.468,0,37.215-16.747,37.215-37.215V73.057
					C164.674,71.198,163.469,69.484,161.664,69.037z"/>
			</g>
		</g>
		<g>
			<g>
				<path class="st4" d="M163.385,35.121c-0.908,0.299-1.908-0.16-2.149-1.085c-2.31-8.873-13.418-12.375-20.386-6.338
					c-0.746,0.646-1.869,0.521-2.419-0.299c-4.925-7.341-15.933-7.351-20.862,0c-0.55,0.82-1.673,0.946-2.42,0.299
					c-6.969-6.037-18.077-2.534-20.386,6.34c-0.24,0.924-1.24,1.382-2.147,1.084c-7.901-2.599-16.487,3.225-16.515,11.964
					c-0.005,1.686,0.307,3.297,0.887,4.772c0.556,1.414,0.813,2.926,0.813,4.445v20.961c2.711-2.305,6.216-3.703,10.053-3.703
					c0.813,0,1.609,0.068,2.388,0.189c0-0.196,0-0.402,0-0.588c0-1.919,1.56-3.67,3.452-3.99c2.477-0.419,4.659-1.908,5.961-4.06
					c0.896-1.482,2.649-2.246,4.307-1.743c4.826,1.465,10.133-0.328,13.088-4.394c1.166-1.604,3.386-1.927,5.115-0.955
					c3.608,2.028,8.058,2.028,11.667-0.001c1.728-0.972,3.948-0.649,5.113,0.955c2.955,4.066,8.263,5.86,13.091,4.394
					c1.65-0.501,3.406,0.248,4.295,1.726c1.176,1.955,3.09,3.388,5.331,3.942c1.805,0.447,3.01,2.161,3.01,4.02v0.693
					c0.779-0.121,1.575-0.189,2.388-0.189c4.37,0,8.312,1.81,11.135,4.715V56.303c0-1.52,0.258-3.032,0.814-4.447
					c0.579-1.473,0.891-3.083,0.887-4.767C179.873,38.351,171.293,32.519,163.385,35.121z"/>
			</g>
		</g>
		<g>
			<g>
				<polygon class="st5" points="76.455,206.5 76.455,220 116.693,220 124.619,206.5 				"/>
			</g>
		</g>
		<g>
			<g>
				<path class="st5" d="M169.206,218.286c-1.642,0-2.974-1.331-2.974-2.974V206.5h-22.916L135.39,220h31.131
					C166.996,218.99,168.016,218.286,169.206,218.286z"/>
			</g>
		</g>
		<g>
			<g>
				<rect x="180.073" y="235.893" class="st20" width="45.855" height="17.607"/>
			</g>
		</g>
		<g>
			<g>
				<rect x="180.073" y="218.286" class="st21" width="45.855" height="17.607"/>
			</g>
		</g>
		<g>
			<g>
				<rect x="180.073" y="200.679" class="st18" width="45.855" height="17.607"/>
			</g>
		</g>
		<g>
			<g>
				<path d="M76.25,256H53.451c-1.802,0-3.545-0.75-4.783-2.06c-1.238-1.309-1.89-3.09-1.79-4.889l0.898-15.479
					c0.08-1.379,1.265-2.436,2.64-2.351c1.378,0.08,2.431,1.262,2.351,2.64l-0.897,15.474c-0.024,0.433,0.129,0.851,0.431,1.17
					c0.302,0.319,0.711,0.495,1.15,0.495H76.25c1.381,0,2.5,1.119,2.5,2.5S77.631,256,76.25,256z"/>
			</g>
		</g>
		<g>
			<g>
				<path d="M180.072,202.792c-1.381,0-2.5-1.119-2.5-2.5v-4.396c0-1.381,1.119-2.5,2.5-2.5s2.5,1.119,2.5,2.5v4.396
					C182.572,201.672,181.453,202.792,180.072,202.792z"/>
			</g>
		</g>
		<g>
			<g>
				<path d="M76.455,255.04c-1.381,0-2.5-1.119-2.5-2.5v-56.644c0-1.381,1.119-2.5,2.5-2.5s2.5,1.119,2.5,2.5v56.644
					C78.955,253.92,77.836,255.04,76.455,255.04z"/>
			</g>
		</g>
		<g>
			<g>
				<path d="M75.563,235.5H50.159c-2.594,0-4.704-2.11-4.704-4.704v-8.592c0-2.594,2.11-4.704,4.704-4.704h25.497
					c1.381,0,2.5,1.119,2.5,2.5s-1.119,2.5-2.5,2.5H50.455v8h25.108c1.381,0,2.5,1.119,2.5,2.5S76.944,235.5,75.563,235.5z"/>
			</g>
		</g>
		<g>
			<g>
				<path d="M113.982,178.391c-0.044,0-0.087,0-0.131-0.002c-1.379-0.038-2.674-0.669-3.553-1.733l-15.054-18.224
					c-1.486-1.798-1.301-4.439,0.422-6.013h0l8.134-7.427c1.744-1.593,4.489-1.497,6.116,0.216l15.687,16.491
					c1.673,1.76,1.693,4.535,0.047,6.318l-8.157,8.836C116.587,177.835,115.313,178.391,113.982,178.391z M99.479,155.708
					l14.512,17.568l7.744-8.39l-15.018-15.788L99.479,155.708z M99.038,156.111c0-0.001,0.001-0.001,0.002-0.002L99.038,156.111
					L99.038,156.111z"/>
			</g>
		</g>
		<g>
			<g>
				<path d="M128,188.452c-1.381,0-2.5-1.119-2.5-2.5v-19.158c0-1.381,1.119-2.5,2.5-2.5s2.5,1.119,2.5,2.5v19.158
					C130.5,187.333,129.381,188.452,128,188.452z"/>
			</g>
		</g>
		<g>
			<g>
				<path d="M141.887,178.381c-0.045,0-0.09-0.001-0.136-0.003c-1.247-0.067-2.399-0.608-3.244-1.524l-8.157-8.836
					c-1.646-1.784-1.625-4.559,0.046-6.317l15.688-16.492c1.629-1.712,4.37-1.807,6.116-0.216l5.45,4.977
					c1.02,0.931,1.092,2.512,0.16,3.532c-0.93,1.02-2.511,1.093-3.531,0.161l-4.996-4.562l-15.019,15.788l7.851,8.505
					c1.331,0.123,2.338,1.277,2.266,2.623C144.31,177.348,143.206,178.381,141.887,178.381z"/>
			</g>
		</g>
		<g>
			<g>
				<path d="M115.72,256H97.023c-0.896,0-1.724-0.48-2.169-1.258c-0.446-0.778-0.44-1.735,0.014-2.508l59.444-101.241
					c1.261-2.145,4.042-2.884,6.199-1.652l10.417,5.953c1.067,0.61,1.829,1.601,2.146,2.788c0.315,1.188,0.147,2.425-0.475,3.485
					l-54.723,93.199C117.427,255.53,116.607,256,115.72,256z M101.39,251h12.899l53.774-91.585l-9.658-5.519L101.39,251z"/>
			</g>
		</g>
		<g>
			<g>
				<path d="M97.023,256H76.455c-1.381,0-2.5-1.119-2.5-2.5s1.119-2.5,2.5-2.5h20.568c1.381,0,2.5,1.119,2.5,2.5
					S98.404,256,97.023,256z"/>
			</g>
		</g>
		<g>
			<g>
				<path d="M51.111,221.794c-0.049,0-0.098-0.001-0.147-0.004c-1.378-0.08-2.431-1.262-2.351-2.64l2.381-41.055
					c0.42-7.545,5.63-13.859,12.964-15.705l28.644-7.209l2.523-1.244c1.238-0.611,2.737-0.102,3.348,1.137
					c0.611,1.238,0.102,2.737-1.137,3.348l-2.761,1.361c-0.158,0.078-0.324,0.139-0.495,0.182l-28.901,7.274
					c-5.2,1.309-8.895,5.786-9.193,11.14l-2.381,41.061C53.527,220.768,52.425,221.794,51.111,221.794z"/>
			</g>
		</g>
		<g>
			<g>
				<path d="M169.206,256H115.72c-1.381,0-2.5-1.119-2.5-2.5s1.119-2.5,2.5-2.5h53.486c1.381,0,2.5,1.119,2.5,2.5
					S170.587,256,169.206,256z"/>
			</g>
		</g>
		<g>
			<g>
				<path d="M203.753,202.191c-1.314,0-2.417-1.026-2.494-2.355l-1.244-21.452c-0.298-5.359-3.992-9.836-9.192-11.145l-20.18-5.079
					c-1.339-0.337-2.151-1.696-1.814-3.035c0.338-1.338,1.694-2.15,3.035-1.814l20.18,5.079c7.334,1.846,12.543,8.159,12.964,15.71
					l1.244,21.447c0.08,1.378-0.973,2.561-2.352,2.64C203.851,202.189,203.801,202.191,203.753,202.191z"/>
			</g>
		</g>
		<g>
			<g>
				<path d="M146.854,149.872c-0.866,0-1.708-0.451-2.17-1.255c-1.334-2.323-2.039-4.966-2.039-7.644v-5.722
					c0-1.381,1.119-2.5,2.5-2.5s2.5,1.119,2.5,2.5v5.722c0,1.805,0.476,3.587,1.375,5.154c0.688,1.198,0.274,2.726-0.923,3.413
					C147.704,149.765,147.276,149.872,146.854,149.872z"/>
			</g>
		</g>
		<g>
			<g>
				<path d="M131.354,167h-6.708c-1.381,0-2.5-1.119-2.5-2.5s1.119-2.5,2.5-2.5h6.708c1.381,0,2.5,1.119,2.5,2.5
					S132.734,167,131.354,167z"/>
			</g>
		</g>
		<g>
			<g>
				<path d="M109.226,149.731c-0.412,0-0.83-0.102-1.215-0.317c-1.206-0.672-1.639-2.195-0.966-3.401
					c0.857-1.538,1.311-3.281,1.311-5.042v-5.265c0-1.381,1.119-2.5,2.5-2.5s2.5,1.119,2.5,2.5v5.265
					c0,2.611-0.672,5.196-1.943,7.476C110.954,149.269,110.103,149.731,109.226,149.731z"/>
			</g>
		</g>
		<g>
			<g>
				<path d="M144.098,213.521c-0.438,0-0.882-0.115-1.284-0.357l-17.927-10.756c-1.184-0.71-1.568-2.246-0.857-3.43
					s2.247-1.568,3.43-0.857l17.927,10.756c1.184,0.71,1.568,2.246,0.857,3.43C145.774,213.087,144.946,213.521,144.098,213.521z"/>
			</g>
		</g>
		<g>
			<g>
				<path d="M108.5,195h-12c-1.381,0-2.5-1.119-2.5-2.5s1.119-2.5,2.5-2.5h12c1.381,0,2.5,1.119,2.5,2.5S109.881,195,108.5,195z"/>
			</g>
		</g>
		<g>
			<g>
				<path class="st7" d="M201.822,28.33c-4.498-0.838-8.043-4.31-8.898-8.716c-0.043-0.221-0.352-0.221-0.395,0
					c-0.855,4.406-4.4,7.879-8.898,8.716c-0.226,0.042-0.226,0.345,0,0.387c4.498,0.838,8.043,4.31,8.898,8.717
					c0.043,0.221,0.352,0.221,0.395,0c0.855-4.406,4.4-7.879,8.898-8.717C202.047,28.675,202.047,28.373,201.822,28.33z"/>
			</g>
		</g>
		<g>
			<g>
				<path class="st8" d="M200.515,112.101c-2.862-0.533-5.118-2.743-5.663-5.547c-0.027-0.141-0.224-0.141-0.251,0
					c-0.544,2.804-2.8,5.014-5.663,5.547c-0.144,0.027-0.144,0.219,0,0.246c2.862,0.533,5.118,2.743,5.663,5.547
					c0.027,0.141,0.224,0.141,0.251,0c0.544-2.804,2.8-5.014,5.663-5.547C200.658,112.32,200.658,112.128,200.515,112.101z"/>
			</g>
		</g>
		<g>
			<g>
				<path class="st6" d="M61.246,120.75h2.33v-2.33c0-1.744,1.413-3.157,3.157-3.157c1.744,0,3.157,1.413,3.157,3.157v2.33h2.329
					c1.744,0,3.157,1.413,3.157,3.157s-1.413,3.157-3.157,3.157h-2.329v2.33c0,1.744-1.413,3.157-3.157,3.157
					c-1.744,0-3.157-1.413-3.157-3.157v-2.33h-2.33c-1.744,0-3.157-1.413-3.157-3.157S59.502,120.75,61.246,120.75z"/>
			</g>
		</g>
		<g>
			<g>
				<circle class="st7" cx="51.755" cy="152.825" r="3.377"/>
			</g>
		</g>
		<g>
			<g>
				<circle class="st9" cx="175.755" cy="3.377" r="3.377"/>
			</g>
		</g>
		<g>
			<g>
				<path d="M236.794,256h-67.588c-3.019,0-5.474-2.456-5.474-5.474v-11.659c0-3.018,2.455-5.474,5.474-5.474h67.588
					c3.019,0,5.474,2.456,5.474,5.474v11.659C242.268,253.544,239.812,256,236.794,256z M169.206,238.393
					c-0.261,0-0.474,0.212-0.474,0.474v11.659c0,0.261,0.213,0.474,0.474,0.474h67.588c0.261,0,0.474-0.213,0.474-0.474v-11.659
					c0-0.261-0.213-0.474-0.474-0.474H169.206z"/>
			</g>
		</g>
		<g>
			<g>
				<path d="M236.794,238.393h-67.588c-3.019,0-5.474-2.456-5.474-5.474V221.26c0-3.019,2.455-5.474,5.474-5.474h67.588
					c3.019,0,5.474,2.456,5.474,5.474v11.659C242.268,235.938,239.812,238.393,236.794,238.393z M169.206,220.786
					c-0.261,0-0.474,0.213-0.474,0.474v11.659c0,0.261,0.213,0.474,0.474,0.474h67.588c0.261,0,0.474-0.213,0.474-0.474V221.26
					c0-0.261-0.213-0.474-0.474-0.474H169.206z"/>
			</g>
		</g>
		<g>
			<g>
				<path d="M236.794,220.786h-67.588c-3.019,0-5.474-2.456-5.474-5.474v-11.659c0-3.018,2.455-5.474,5.474-5.474h67.588
					c3.019,0,5.474,2.456,5.474,5.474v11.659C242.268,218.33,239.812,220.786,236.794,220.786z M169.206,203.179
					c-0.261,0-0.474,0.212-0.474,0.474v11.659c0,0.261,0.213,0.474,0.474,0.474h67.588c0.261,0,0.474-0.213,0.474-0.474v-11.659
					c0-0.261-0.213-0.474-0.474-0.474H169.206z"/>
			</g>
		</g>
		<g>
			<g>
				<path d="M167.062,107.136c-0.545,0-1.096-0.029-1.685-0.09c-1.373-0.141-2.372-1.369-2.231-2.742
					c0.142-1.373,1.358-2.368,2.743-2.231c0.416,0.042,0.8,0.063,1.173,0.063c7.189,0,13.038-5.849,13.038-13.038
					s-5.849-13.038-13.038-13.038c-0.388,0-0.771,0.019-1.149,0.054c-1.366,0.134-2.592-0.884-2.72-2.259
					c-0.127-1.375,0.884-2.592,2.259-2.719c0.539-0.05,1.081-0.075,1.61-0.075c9.946,0,18.038,8.092,18.038,18.038
					S177.008,107.136,167.062,107.136z"/>
			</g>
		</g>
		<g>
			<g>
				<path d="M87.856,107.136c-9.946,0-18.038-8.092-18.038-18.038s8.092-18.038,18.038-18.038c0.624,0,1.262,0.035,1.897,0.104
					c1.373,0.149,2.365,1.383,2.215,2.755c-0.149,1.372-1.387,2.361-2.755,2.215c-0.457-0.05-0.913-0.075-1.357-0.075
					c-7.189,0-13.038,5.849-13.038,13.038s5.849,13.038,13.038,13.038c0.432,0,0.879-0.028,1.368-0.085
					c1.376-0.157,2.613,0.823,2.773,2.194c0.16,1.372-0.822,2.613-2.194,2.773C89.12,107.097,88.483,107.136,87.856,107.136z"/>
			</g>
		</g>
		<g>
			<g>
				<path d="M128,118.573c-4.776,0-9.262-1.95-11.999-5.215c-0.887-1.058-0.748-2.635,0.31-3.522
					c1.059-0.887,2.635-0.747,3.522,0.31c1.798,2.146,4.852,3.427,8.167,3.427s6.368-1.281,8.167-3.427
					c0.89-1.057,2.465-1.195,3.522-0.309c1.058,0.887,1.196,2.464,0.31,3.522C137.261,116.624,132.775,118.573,128,118.573z"/>
			</g>
		</g>
		<g>
			<g>
				<circle cx="144.789" cy="90.816" r="5"/>
			</g>
		</g>
		<g>
			<g>
				<circle cx="111.211" cy="90.816" r="5"/>
			</g>
		</g>
		<g>
			<g>
				<path d="M127.459,141.638c-21.899,0-39.715-17.816-39.715-39.715V73.162c0-3.094,2.431-5.929,5.535-6.455
					c1.764-0.298,3.309-1.351,4.239-2.889c1.51-2.497,4.459-3.665,7.173-2.841c3.771,1.145,8.022-0.283,10.339-3.472
					c1.873-2.577,5.467-3.292,8.362-1.665c2.843,1.598,6.375,1.598,9.216,0c2.895-1.627,6.487-0.912,8.36,1.664
					c2.318,3.19,6.572,4.618,10.343,3.473c2.715-0.826,5.663,0.336,7.163,2.829c0.839,1.394,2.22,2.416,3.79,2.804l0,0
					c2.891,0.715,4.909,3.367,4.909,6.447v28.866C167.174,123.822,149.357,141.638,127.459,141.638z M102.928,65.716
					c-0.434,0-0.869,0.256-1.132,0.69c-1.683,2.783-4.483,4.69-7.683,5.231c-0.716,0.122-1.369,0.848-1.369,1.525v28.761
					c0,19.142,15.573,34.715,34.715,34.715s34.715-15.573,34.715-34.715V73.057c0-0.764-0.467-1.434-1.11-1.593
					c-2.85-0.705-5.354-2.556-6.873-5.08c-0.316-0.526-0.899-0.782-1.426-0.623c-5.863,1.781-12.232-0.354-15.84-5.317
					c-0.433-0.596-1.283-0.572-1.865-0.245c-4.354,2.447-9.763,2.448-14.117,0c-0.589-0.331-1.45-0.33-1.868,0.246
					c-3.605,4.96-9.971,7.096-15.836,5.316C103.136,65.731,103.032,65.716,102.928,65.716z"/>
			</g>
		</g>
		<g>
			<g>
				<path d="M178.197,80.599c-1.381,0-2.5-1.119-2.5-2.5V56.303c0-1.892,0.332-3.696,0.988-5.362
					c0.477-1.213,0.717-2.507,0.713-3.845c-0.01-3.274-1.533-6.247-4.18-8.156c-2.635-1.902-6.021-2.442-9.053-1.444
					c-1.119,0.367-2.345,0.26-3.364-0.295c-0.995-0.542-1.7-1.442-1.984-2.533c-0.869-3.339-3.407-5.959-6.79-7.01
					c-3.368-1.045-6.936-0.326-9.541,1.931c-0.904,0.784-2.098,1.145-3.273,0.986c-1.161-0.156-2.203-0.805-2.858-1.782
					c-1.85-2.756-4.974-4.402-8.357-4.402c0,0,0,0-0.001,0c-3.431,0-6.475,1.605-8.35,4.401c-0.656,0.978-1.698,1.627-2.859,1.783
					c-1.176,0.158-2.369-0.202-3.274-0.985c-2.604-2.256-6.17-2.978-9.541-1.931c-3.382,1.051-5.921,3.671-6.79,7.01
					c-0.285,1.092-0.989,1.991-1.983,2.534c-1.02,0.556-2.247,0.663-3.364,0.296c-3.032-0.998-6.417-0.457-9.054,1.445
					c-2.646,1.909-4.169,4.879-4.179,8.151c-0.004,1.339,0.236,2.634,0.714,3.85c0.655,1.666,0.987,3.47,0.987,5.36v20.62
					c0,1.381-1.119,2.5-2.5,2.5s-2.5-1.119-2.5-2.5v-20.62c0-1.262-0.215-2.45-0.64-3.531c-0.71-1.805-1.067-3.722-1.061-5.695
					c0.016-4.891,2.295-9.334,6.254-12.19c3.704-2.672,8.413-3.538,12.75-2.375c1.506-4.593,5.141-8.157,9.882-9.629
					c4.73-1.469,9.733-0.591,13.571,2.335c2.821-3.666,7.213-5.827,11.935-5.828c0,0,0.001,0,0.001,0
					c4.725,0,9.12,2.162,11.943,5.829c3.838-2.927,8.841-3.806,13.571-2.336c4.741,1.473,8.376,5.036,9.882,9.629
					c4.337-1.163,9.048-0.298,12.752,2.375c3.96,2.857,6.239,7.303,6.254,12.196c0.006,1.971-0.351,3.885-1.06,5.689
					c-0.426,1.081-0.642,2.269-0.642,3.532v21.796C180.697,79.479,179.578,80.599,178.197,80.599z"/>
			</g>
		</g>
		<g>
			<g>
				<path d="M124.042,209H77.156c-1.381,0-2.5-1.119-2.5-2.5s1.119-2.5,2.5-2.5h46.886c1.381,0,2.5,1.119,2.5,2.5
					S125.422,209,124.042,209z"/>
			</g>
		</g>
		<g>
			<g>
				<path d="M116.042,222.5H77.25c-1.381,0-2.5-1.119-2.5-2.5s1.119-2.5,2.5-2.5h38.792c1.381,0,2.5,1.119,2.5,2.5
					S117.423,222.5,116.042,222.5z"/>
			</g>
		</g>
		<g>
			<g>
				<path d="M165.594,222.5h-29.563c-1.381,0-2.5-1.119-2.5-2.5s1.119-2.5,2.5-2.5h29.563c1.381,0,2.5,1.119,2.5,2.5
					S166.975,222.5,165.594,222.5z"/>
			</g>
		</g>
		<g>
			<g>
				<path d="M165.594,209H144.1c-1.381,0-2.5-1.119-2.5-2.5s1.119-2.5,2.5-2.5h21.494c1.381,0,2.5,1.119,2.5,2.5
					S166.975,209,165.594,209z"/>
			</g>
		</g>
		<g>
			<g>
				<path d="M225.928,254.813c-1.381,0-2.5-1.119-2.5-2.5v-15.48c0-1.381,1.119-2.5,2.5-2.5s2.5,1.119,2.5,2.5v15.48
					C228.428,253.694,227.309,254.813,225.928,254.813z"/>
			</g>
		</g>
		<g>
			<g>
				<path d="M180.072,255.167c-1.381,0-2.5-1.119-2.5-2.5v-15.792c0-1.381,1.119-2.5,2.5-2.5s2.5,1.119,2.5,2.5v15.792
					C182.572,254.048,181.453,255.167,180.072,255.167z"/>
			</g>
		</g>
		<g>
			<g>
				<path d="M225.928,237.333c-1.381,0-2.5-1.119-2.5-2.5v-15.25c0-1.381,1.119-2.5,2.5-2.5s2.5,1.119,2.5,2.5v15.25
					C228.428,236.214,227.309,237.333,225.928,237.333z"/>
			</g>
		</g>
		<g>
			<g>
				<path d="M180.072,237.333c-1.381,0-2.5-1.119-2.5-2.5v-15.271c0-1.381,1.119-2.5,2.5-2.5s2.5,1.119,2.5,2.5v15.271
					C182.572,236.214,181.453,237.333,180.072,237.333z"/>
			</g>
		</g>
		<g>
			<g>
				<path d="M225.928,220.042c-1.381,0-2.5-1.119-2.5-2.5v-15.96c0-1.381,1.119-2.5,2.5-2.5s2.5,1.119,2.5,2.5v15.96
					C228.428,218.923,227.309,220.042,225.928,220.042z"/>
			</g>
		</g>
		<g>
			<g>
				<path d="M180.072,219.875c-1.381,0-2.5-1.119-2.5-2.5V201.75c0-1.381,1.119-2.5,2.5-2.5s2.5,1.119,2.5,2.5v15.625
					C182.572,218.755,181.453,219.875,180.072,219.875z"/>
			</g>
		</g>
	</g>
</g>
<g id="Layer_14">
</g>
<g id="Layer_15">
</g>
<g id="Layer_16">
</g>
<g id="Layer_17">
</g>
<g id="Layer_18">
</g>
<g id="Layer_19">
</g>
<g id="Layer_20">
</g>
<g id="Layer_21">
</g>
<g id="Layer_22">
</g>
<g id="Layer_23">
</g>
<g id="Layer_24">
</g>
<g id="Layer_25">
</g>
<g id="Layer_26">
</g>
<g id="Layer_27">
</g>
<g id="Layer_28">
</g>
<g id="Layer_29">
</g>
<g id="Layer_30">
</g>
<g id="Layer_31">
</g>
<g id="Layer_32">
</g>
<g id="Layer_33">
</g>
<g id="Layer_34">
</g>
<g id="Layer_35">
</g>
<g id="Layer_36">
</g>
<g id="Layer_37">
</g>
<g id="Layer_38">
</g>
<g id="Layer_39">
</g>
<g id="Layer_40">
</g>
<g id="Layer_41">
</g>
<g id="Layer_42">
</g>
<g id="Layer_43">
</g>
<g id="Layer_44">
</g>
<g id="Layer_45">
</g>
<g id="Layer_46">
</g>
<g id="Layer_47">
</g>
<g id="Layer_48">
</g>
<g id="Layer_49">
</g>
<g id="Layer_50">
</g>
<g id="Layer_51">
</g>
<g id="Layer_52">
</g>
<g id="Layer_53">
</g>
<g id="Layer_54">
</g>
<g id="Layer_55">
</g>
<g id="Layer_56">
</g>
<g id="Layer_57">
</g>
<g id="Layer_58">
</g>
<g id="Layer_59">
</g>
<g id="Layer_60">
</g>
<g id="Layer_61">
</g>
<g id="Layer_62">
</g>
<g id="Layer_63">
</g>
<g id="Layer_64">
</g>
<g id="Layer_65">
</g>
<g id="Layer_66">
</g>
<g id="Layer_67">
</g>
<g id="Layer_68">
</g>
<g id="Layer_69">
</g>
<g id="Layer_70">
</g>
<g id="Layer_71">
</g>
<g id="Layer_72">
</g>
<g id="Layer_73">
</g>
<g id="Layer_74">
</g>
<g id="Layer_75">
</g>
<g id="Layer_76">
</g>
<g id="Layer_77">
</g>
<g id="Layer_78">
</g>
<g id="Layer_79">
</g>
<g id="Layer_80">
</g>
</svg>
