<?xml version="1.0" encoding="utf-8"?>
<!-- Generator: Adobe Illustrator 24.0.0, SVG Export Plug-In . SVG Version: 6.00 Build 0)  -->
<svg version="1.1" xmlns="http://www.w3.org/2000/svg" xmlns:xlink="http://www.w3.org/1999/xlink" x="0px" y="0px"
	 viewBox="0 0 256 256" style="enable-background:new 0 0 256 256;" xml:space="preserve">
<style type="text/css">
	.st0{fill:#3A70BF;}
	.st1{fill:#EDF4FC;}
	.st2{fill:#C7D7E5;}
	.st3{fill:#F9D0B4;}
	.st4{fill:#5B5D60;}
	.st5{fill:#5290DB;}
	.st6{fill:#70D6F9;}
	.st7{fill:#F5C84C;}
	.st8{fill:#FC657E;}
	.st9{fill:#87D147;}
	.st10{fill:#FCDD86;}
	.st11{fill:#9BE5F9;}
	.st12{fill:#B2E26D;}
	.st13{fill:#754E34;}
	.st14{fill:#FCA265;}
	.st15{fill:#818182;}
	.st16{fill:#F94EED;}
	.st17{fill:#FFC197;}
	.st18{fill:#3CAADC;}
	.st19{fill:#DAE6F1;}
	.st20{fill:#57AF12;}
	.st21{fill:#EF4460;}
	.st22{fill:#FFF0CA;}
	.st23{fill:#F98FA6;}
	.st24{fill:#EDB311;}
	.st25{fill:#FC8C48;}
	.st26{fill:#FCB9CB;}
	.st27{fill:#96BC71;}
	.st28{fill:#78A352;}
	.st29{fill:#B8DD90;}
	.st30{fill:#6FAFEF;}
	.st31{fill:#29589F;}
	.st32{fill:#414344;}
	.st33{fill:#9B6B4B;}
	.st34{fill:#73B1EF;}
</style>
<g id="Layer_1">
</g>
<g id="Layer_2">
</g>
<g id="Layer_3">
</g>
<g id="Layer_4">
</g>
<g id="Layer_5">
</g>
<g id="Layer_6">
</g>
<g id="Layer_7">
</g>
<g id="Layer_8">
</g>
<g id="Layer_9">
</g>
<g id="Layer_10">
</g>
<g id="Layer_11">
</g>
<g id="Layer_12">
</g>
<g id="Layer_13">
</g>
<g id="Layer_14">
</g>
<g id="Layer_15">
</g>
<g id="Layer_16">
</g>
<g id="Layer_17">
</g>
<g id="Layer_18">
</g>
<g id="Layer_19">
</g>
<g id="Layer_20">
</g>
<g id="Layer_21">
</g>
<g id="Layer_22">
</g>
<g id="Layer_23">
	<g>
		<g>
			<g>
				<path class="st4" d="M48.962,247.747l4.847-67.923c0.455-6.642,4.6-12.466,10.726-15.073l33.676-14.33
					c1.751-0.745,3.754,0.255,4.209,2.103L128,253.5H54.319C51.203,253.5,48.74,250.856,48.962,247.747z"/>
			</g>
		</g>
		<g>
			<g>
				<path class="st3" d="M159.357,57.412c-2.433-2.552-6.39-2.787-9.164-0.61c-4.386,3.443-11.975,7.698-22.693,7.698
					c-10.745,0-18.374-4.276-22.778-7.723c-2.771-2.169-6.72-1.926-9.149,0.621l-0.013,0.013c-3.413,3.579-5.316,8.334-5.316,13.279
					v31.233c0,20.468,16.747,37.215,37.215,37.215h0c20.468,0,37.215-16.747,37.215-37.215V70.691
					C164.674,65.746,162.77,60.99,159.357,57.412z"/>
			</g>
		</g>
		<g>
			<g>
				<path class="st3" d="M167.062,73.561c-0.813,0-1.609,0.069-2.388,0.189c0,3.96,0,22.286,0,28.173
					c0,0.839-0.038,1.67-0.094,2.496c0.81,0.13,1.635,0.217,2.482,0.217c8.581,0,15.537-6.956,15.537-15.537
					S175.643,73.561,167.062,73.561z"/>
			</g>
		</g>
		<g>
			<g>
				<path class="st3" d="M90.244,101.923c0-3.856,0-20.507,0-28.173c-0.779-0.121-1.575-0.189-2.388-0.189
					c-8.581,0-15.538,6.957-15.538,15.538s6.956,15.537,15.538,15.537c0.847,0,1.672-0.086,2.482-0.217v-0.001
					C90.282,103.593,90.244,102.762,90.244,101.923z"/>
			</g>
		</g>
		<g>
			<g>
				<path class="st13" d="M164.535,41.816c-1.246,0-2.327-0.961-2.344-2.207c-0.285-20.737-23.966-24.633-47.549-20.56
					c-19.994,3.453-34.608,20.791-34.608,41.081v15.559c2.299-1.344,4.966-2.128,7.821-2.128c0.813,0,1.609,0.068,2.388,0.189
					v-3.059c0-4.945,1.904-9.7,5.316-13.279l0.013-0.013c2.429-2.547,6.377-2.79,9.149-0.621c4.404,3.447,12.034,7.723,22.778,7.723
					c10.719,0,18.308-4.255,22.693-7.698c2.774-2.177,6.73-1.943,9.164,0.61c3.413,3.579,5.316,8.334,5.316,13.279v3.059
					c0.779-0.121,1.575-0.189,2.388-0.189c2.89,0,5.586,0.803,7.903,2.178c0-4.342,0-8.802,0-12.775
					C174.965,44.395,168.26,41.816,164.535,41.816z"/>
			</g>
		</g>
		<g>
			<g>
				<path class="st3" d="M123.792,162.422c0.417,0.438,0.603,1.01,0.573,1.573c1.022,0.086,2.051,0.143,3.094,0.143h0
					c1.411,0,2.796-0.104,4.167-0.26v0c0,0.001,0,0.003,0,0.004c0-0.526,0.194-1.052,0.583-1.461l14.525-15.27
					c-1.021-1.86-1.589-3.976-1.589-6.18v-6.335c-5.268,2.868-11.296,4.501-17.686,4.501h0c-5.959,0-11.597-1.427-16.604-3.945
					v5.778c0,2.204-0.568,4.32-1.589,6.18L123.792,162.422z"/>
			</g>
		</g>
		<g>
			<g>
				<path class="st4" d="M207.038,247.747l-4.847-67.923c-0.455-6.642-4.6-12.466-10.726-15.073l-33.676-14.33
					c-1.751-0.745-3.754,0.255-4.209,2.103L128,253.5h73.681C204.797,253.5,207.26,250.856,207.038,247.747z"/>
			</g>
		</g>
		<g>
			<g>
				<path class="st15" d="M179.545,199.673V253.5h22.136c3.117,0,5.579-2.644,5.357-5.753l-4.847-67.923
					c-0.236-3.447-1.473-6.669-3.458-9.34l-11.005,10.31C182.507,185.685,179.545,192.519,179.545,199.673z"/>
			</g>
		</g>
		<g>
			<g>
				<path class="st15" d="M76.455,199.673c0-7.154-2.962-13.988-8.183-18.879l-11.005-10.31c-1.985,2.671-3.222,5.893-3.458,9.34
					l-4.847,67.923c-0.222,3.109,2.24,5.753,5.357,5.753h22.136V199.673z"/>
			</g>
		</g>
		<g>
			<g>
				<path class="st15" d="M102.421,152.525c-0.456-1.848-2.458-2.849-4.209-2.103L91,153.49v40.542c0,0.859,0.593,1.605,1.43,1.798
					l9.42,2.174c1.12,0.259,1.734,1.468,1.281,2.525l-4.271,9.965c-0.547,1.277-0.525,2.726,0.061,3.986L117.07,253.5H128
					L102.421,152.525z"/>
			</g>
		</g>
		<g>
			<g>
				<path class="st15" d="M138.93,253.5l18.149-39.021c0.586-1.26,0.608-2.709,0.061-3.986l-4.271-9.965
					c-0.453-1.057,0.161-2.266,1.281-2.525l9.42-2.174c0.837-0.193,1.43-0.939,1.43-1.798V153.49l-7.211-3.069
					c-1.751-0.745-3.754,0.255-4.209,2.103L128,253.5H138.93z"/>
			</g>
		</g>
		<g>
			<g>
				<path class="st10" d="M102.421,152.525l3.533,13.948l6.271,7.591c0.879,1.064,2.495,1.109,3.431,0.094l8.157-8.837
					c0.758-0.821,0.748-2.089-0.022-2.899l-15.687-16.492c-0.702-0.738-1.866-0.779-2.619-0.092l-4.983,4.55
					C101.415,150.732,102.165,151.487,102.421,152.525z"/>
			</g>
		</g>
		<g>
			<g>
				<path class="st10" d="M140.344,174.158c0.936,1.014,2.552,0.97,3.431-0.094l6.271-7.591l3.533-13.948
					c0.256-1.038,1.005-1.792,1.918-2.136l-4.983-4.55c-0.753-0.687-1.917-0.646-2.619,0.092l-15.687,16.492
					c-0.77,0.81-0.78,2.078-0.022,2.899L140.344,174.158z"/>
			</g>
		</g>
		<g>
			<g>
				<g>
					<path class="st7" d="M143.775,174.063c-0.879,1.064-2.495,1.109-3.431,0.094l-4.373-4.737c-1.76,2.513-4.67,4.161-7.971,4.161
						s-6.211-1.647-7.971-4.161l-4.373,4.737c-0.936,1.014-2.552,0.97-3.431-0.094l-6.271-7.591L128,253.5l22.046-87.028
						L143.775,174.063z"/>
				</g>
			</g>
		</g>
		<g>
			<g>
				<path class="st8" d="M127.874,253.001l0.382-0.509l9.356-36.934l-4.591-43.383c-1.467,0.886-3.181,1.406-5.021,1.406
					s-3.553-0.519-5.021-1.406l-4.591,43.383L127.874,253.001z"/>
			</g>
		</g>
		<g>
			<g>
				<g>
					<path class="st8" d="M132.187,165.321c-0.376-0.408-0.562-0.926-0.561-1.443v0c-1.371,0.155-2.756,0.26-4.167,0.26h0
						c-1.043,0-2.072-0.058-3.094-0.143c-0.025,0.478-0.203,0.949-0.551,1.326l-3.784,4.1c1.76,2.513,4.67,4.161,7.971,4.161
						s6.211-1.647,7.971-4.161L132.187,165.321z"/>
				</g>
			</g>
		</g>
		<g>
			<g>
				<path d="M128,118.573c-4.776,0-9.262-1.95-11.999-5.215c-0.887-1.058-0.748-2.635,0.31-3.522
					c1.059-0.887,2.635-0.747,3.522,0.31c1.798,2.146,4.852,3.427,8.167,3.427s6.368-1.281,8.167-3.427
					c0.89-1.058,2.465-1.195,3.522-0.309c1.058,0.887,1.196,2.464,0.31,3.522C137.261,116.624,132.775,118.573,128,118.573z"/>
			</g>
		</g>
		<g>
			<g>
				<path class="st7" d="M203.822,28.33c-4.498-0.838-8.043-4.31-8.898-8.716c-0.043-0.221-0.352-0.221-0.395,0
					c-0.855,4.406-4.4,7.879-8.898,8.716c-0.226,0.042-0.226,0.345,0,0.387c4.498,0.838,8.043,4.31,8.898,8.717
					c0.043,0.221,0.352,0.221,0.395,0c0.855-4.406,4.4-7.879,8.898-8.717C204.047,28.675,204.047,28.373,203.822,28.33z"/>
			</g>
		</g>
		<g>
			<g>
				<path class="st9" d="M202.515,112.101c-2.862-0.533-5.118-2.743-5.663-5.547c-0.027-0.141-0.224-0.141-0.251,0
					c-0.544,2.804-2.8,5.014-5.663,5.547c-0.144,0.027-0.144,0.219,0,0.246c2.862,0.533,5.118,2.743,5.663,5.547
					c0.027,0.141,0.224,0.141,0.251,0c0.544-2.804,2.8-5.014,5.663-5.547C202.658,112.32,202.658,112.128,202.515,112.101z"/>
			</g>
		</g>
		<g>
			<g>
				<path class="st6" d="M63.246,120.75h2.33v-2.33c0-1.744,1.413-3.157,3.157-3.157c1.744,0,3.157,1.413,3.157,3.157v2.33h2.329
					c1.744,0,3.157,1.413,3.157,3.157s-1.413,3.157-3.157,3.157h-2.329v2.33c0,1.744-1.413,3.157-3.157,3.157
					c-1.744,0-3.157-1.413-3.157-3.157v-2.33h-2.33c-1.744,0-3.157-1.413-3.157-3.157S61.502,120.75,63.246,120.75z"/>
			</g>
		</g>
		<g>
			<g>
				<circle class="st7" cx="53.755" cy="152.825" r="3.377"/>
			</g>
		</g>
		<g>
			<g>
				<circle class="st8" cx="177.755" cy="3.377" r="3.377"/>
			</g>
		</g>
		<g>
			<g>
				<path d="M128,256H54.319c-2.177,0-4.276-0.914-5.76-2.507s-2.246-3.752-2.09-5.923l4.847-67.923
					c0.521-7.613,5.212-14.205,12.24-17.195l33.676-14.33c1.51-0.643,3.219-0.59,4.687,0.143c1.468,0.734,2.536,2.068,2.928,3.662
					l25.576,100.96c0.189,0.748,0.022,1.541-0.451,2.149C129.499,255.644,128.771,256,128,256z M99.421,152.673
					c-0.071,0-0.148,0.013-0.231,0.048l-33.676,14.33c-5.289,2.25-8.817,7.21-9.21,12.943l-4.848,67.93v0
					c-0.058,0.804,0.213,1.571,0.762,2.16c0.549,0.59,1.295,0.915,2.101,0.915h70.469l-24.791-97.862
					c-0.058-0.234-0.202-0.346-0.313-0.401C99.618,152.704,99.528,152.673,99.421,152.673z M48.962,247.747h0.01H48.962z"/>
			</g>
		</g>
		<g>
			<g>
				<path d="M127.459,141.638c-21.899,0-39.715-17.816-39.715-39.715V70.69c0-5.613,2.133-10.942,6.007-15.004
					c3.325-3.49,8.7-3.861,12.511-0.878C110.454,58.089,117.542,62,127.5,62c9.937,0,16.985-3.896,21.149-7.165
					c3.818-2.996,9.199-2.629,12.518,0.851l0,0c3.873,4.063,6.007,9.391,6.007,15.004v31.233
					C167.174,123.822,149.357,141.638,127.459,141.638z M100.47,57.802c-1.134,0-2.254,0.446-3.088,1.321
					c-2.996,3.142-4.639,7.245-4.639,11.567v31.233c0,19.142,15.573,34.715,34.715,34.715c19.142,0,34.715-15.573,34.715-34.715
					V70.69c0-4.322-1.643-8.425-4.626-11.554c-1.531-1.607-4.029-1.766-5.811-0.368C146.953,62.524,138.864,67,127.5,67
					c-11.384,0-19.508-4.489-24.319-8.254C102.373,58.113,101.417,57.802,100.47,57.802z"/>
			</g>
		</g>
		<g>
			<g>
				<path d="M167.062,107.136c-0.579,0-1.166-0.033-1.793-0.101c-1.373-0.148-2.365-1.381-2.217-2.754s1.388-2.375,2.754-2.216
					c0.447,0.048,0.858,0.072,1.256,0.072c7.189,0,13.038-5.849,13.038-13.038s-5.849-13.038-13.038-13.038
					c-0.431,0-0.876,0.024-1.323,0.071c-1.363,0.148-2.604-0.853-2.747-2.225c-0.145-1.373,0.852-2.604,2.226-2.748
					c0.619-0.065,1.24-0.098,1.845-0.098c9.946,0,18.038,8.092,18.038,18.038S177.008,107.136,167.062,107.136z"/>
			</g>
		</g>
		<g>
			<g>
				<path d="M87.856,107.136c-9.946,0-18.038-8.092-18.038-18.038s8.092-18.038,18.038-18.038c0.497,0,0.988,0.022,1.475,0.063
					c1.376,0.116,2.397,1.325,2.281,2.701c-0.116,1.375-1.318,2.401-2.701,2.281c-0.348-0.029-0.699-0.045-1.055-0.045
					c-7.189,0-13.038,5.849-13.038,13.038s5.849,13.038,13.038,13.038c0.41,0,0.833-0.025,1.293-0.076
					c1.375-0.16,2.609,0.835,2.762,2.207c0.153,1.372-0.835,2.609-2.207,2.762C89.058,107.101,88.453,107.136,87.856,107.136z"/>
			</g>
		</g>
		<g>
			<g>
				<path d="M174.966,77.875c-1.381,0-2.5-1.119-2.5-2.5V62.963c0-11.851-2.891-18.647-7.931-18.647
					c-2.637,0-4.81-2.097-4.844-4.674c-0.077-5.59-2.071-10.049-5.928-13.251c-7.324-6.082-21.427-7.861-38.696-4.879
					c-18.851,3.255-32.533,19.497-32.533,38.618v15.151c0,1.381-1.119,2.5-2.5,2.5s-2.5-1.119-2.5-2.5V60.129
					c0-21.562,15.427-39.875,36.682-43.545c18.71-3.233,34.29-1.059,42.741,5.959c4.973,4.129,7.571,9.771,7.729,16.773
					c4.845,0.064,12.779,3.285,12.779,23.646v12.412C177.466,76.756,176.347,77.875,174.966,77.875z"/>
			</g>
		</g>
		<g>
			<g>
				<path d="M146.363,148.921c-0.94,0-1.841-0.532-2.266-1.439c-0.964-2.058-1.453-4.248-1.453-6.509v-5.347
					c0-1.381,1.119-2.5,2.5-2.5s2.5,1.119,2.5,2.5v5.347c0,1.523,0.33,2.999,0.98,4.387c0.586,1.25,0.048,2.739-1.203,3.325
					C147.079,148.845,146.719,148.921,146.363,148.921z"/>
			</g>
		</g>
		<g>
			<g>
				<path d="M127.459,166.638c-0.891,0-1.829-0.039-2.869-0.118c-1.376-0.104-2.408-1.306-2.303-2.683
					c0.105-1.376,1.291-2.409,2.683-2.303c0.912,0.069,1.726,0.103,2.489,0.103c1.066,0,2.211-0.066,3.499-0.202
					c1.383-0.146,2.604,0.853,2.748,2.225c0.145,1.373-0.852,2.604-2.225,2.748C130.018,166.563,128.702,166.638,127.459,166.638z"
					/>
			</g>
		</g>
		<g>
			<g>
				<path d="M109.5,149.204c-0.375,0-0.756-0.084-1.114-0.264c-1.235-0.616-1.737-2.118-1.121-3.353
					c0.713-1.43,1.09-3.025,1.09-4.615v-5.097c0-1.381,1.119-2.5,2.5-2.5s2.5,1.119,2.5,2.5v5.097c0,2.36-0.559,4.728-1.617,6.847
					C111.301,148.696,110.417,149.204,109.5,149.204z"/>
			</g>
		</g>
		<g>
			<g>
				<path d="M201.681,256H128c-0.771,0-1.499-0.356-1.973-0.964c-0.474-0.609-0.64-1.402-0.45-2.149l25.579-100.976
					c0.39-1.579,1.457-2.913,2.926-3.646c1.467-0.733,3.176-0.787,4.687-0.144l33.676,14.331c7.028,2.99,11.719,9.582,12.241,17.202
					l4.848,67.916v0c0.154,2.171-0.607,4.331-2.091,5.924C205.957,255.086,203.857,256,201.681,256z M131.212,251h70.469
					c0.806,0,1.552-0.325,2.102-0.915c0.549-0.589,0.819-1.356,0.763-2.16h-0.001l-4.848-67.923c-0.393-5.74-3.922-10.7-9.21-12.95
					l-33.676-14.331c-0.207-0.087-0.384-0.04-0.495,0.015c-0.111,0.056-0.255,0.168-0.31,0.387L131.212,251z"/>
			</g>
		</g>
		<g>
			<g>
				<path d="M179.545,254.909c-1.381,0-2.5-1.119-2.5-2.5v-52.736c0-7.815,3.271-15.361,8.974-20.703l10.456-9.795
					c1.009-0.945,2.591-0.892,3.533,0.115c0.944,1.008,0.893,2.59-0.115,3.534l-10.456,9.796
					c-4.697,4.401-7.392,10.617-7.392,17.054v52.736C182.045,253.79,180.926,254.909,179.545,254.909z"/>
			</g>
		</g>
		<g>
			<g>
				<path d="M76.455,255.25c-1.381,0-2.5-1.119-2.5-2.5v-53.077c0-6.438-2.694-12.653-7.392-17.054l-10.366-9.711
					c-1.008-0.944-1.06-2.526-0.115-3.533c0.944-1.008,2.526-1.06,3.533-0.115l10.366,9.711c5.703,5.342,8.974,12.888,8.974,20.703
					v53.077C78.955,254.131,77.836,255.25,76.455,255.25z"/>
			</g>
		</g>
		<g>
			<g>
				<path d="M116.562,254.906c-0.942,0-1.845-0.535-2.268-1.446l-17.64-37.926c-0.884-1.902-0.917-4.098-0.092-6.025l3.962-9.245
					l-8.656-1.998c-1.983-0.458-3.368-2.199-3.368-4.234v-39.72c0-1.381,1.119-2.5,2.5-2.5s2.5,1.119,2.5,2.5v39.199l8.912,2.057
					c1.257,0.29,2.313,1.116,2.897,2.267c0.584,1.151,0.628,2.492,0.12,3.678l-4.271,9.966c-0.267,0.623-0.256,1.333,0.03,1.947
					l17.64,37.925c0.583,1.252,0.04,2.739-1.212,3.321C117.274,254.831,116.915,254.906,116.562,254.906z"/>
			</g>
		</g>
		<g>
			<g>
				<path d="M139.436,254.909c-0.353,0-0.711-0.075-1.053-0.234c-1.252-0.582-1.794-2.069-1.212-3.321l17.642-37.929
					c0.286-0.615,0.297-1.325,0.03-1.947l-4.271-9.965c-0.509-1.186-0.465-2.526,0.119-3.677s1.641-1.978,2.898-2.268l8.911-2.057
					v-39.095c0-1.381,1.119-2.5,2.5-2.5s2.5,1.119,2.5,2.5v39.616c0,2.035-1.385,3.776-3.367,4.234l-8.657,1.998l3.963,9.245
					c0.825,1.928,0.792,4.124-0.093,6.025l-17.642,37.929C141.28,254.374,140.378,254.909,139.436,254.909z"/>
			</g>
		</g>
		<g>
			<g>
				<path d="M113.981,177.391c-0.044,0-0.088-0.001-0.132-0.002c-1.379-0.038-2.674-0.67-3.552-1.733l-6.109-7.396
					c-0.879-1.064-0.729-2.641,0.335-3.52c1.064-0.88,2.641-0.729,3.52,0.335l5.948,7.201l7.744-8.389l-15.018-15.788l-4.147,3.787
					c-1.019,0.932-2.6,0.86-3.532-0.161c-0.931-1.02-0.859-2.601,0.161-3.532l4.601-4.201c1.744-1.592,4.489-1.497,6.116,0.216
					l15.687,16.491c1.673,1.759,1.694,4.534,0.048,6.318l-8.158,8.837C116.587,176.835,115.313,177.391,113.981,177.391z"/>
			</g>
		</g>
		<g>
			<g>
				<path d="M142.019,177.391c-1.332,0-2.605-0.556-3.512-1.537l-8.157-8.837c-1.646-1.784-1.625-4.559,0.047-6.317l15.688-16.492
					c1.629-1.712,4.37-1.807,6.116-0.216l4.742,4.331c1.02,0.931,1.092,2.513,0.16,3.532c-0.932,1.019-2.512,1.091-3.531,0.16
					l-4.288-3.916l-15.019,15.788l7.744,8.39l6.005-7.27c0.879-1.065,2.456-1.214,3.52-0.335c1.064,0.879,1.215,2.455,0.336,3.52
					l-6.166,7.464c-0.878,1.063-2.173,1.695-3.552,1.733C142.107,177.39,142.062,177.391,142.019,177.391z"/>
			</g>
		</g>
		<g>
			<g>
				<path d="M137.589,217.875c-1.263,0-2.348-0.953-2.483-2.237l-4.512-42.643c-0.146-1.373,0.851-2.604,2.224-2.75
					c1.369-0.14,2.604,0.85,2.749,2.223l4.512,42.643c0.146,1.373-0.851,2.604-2.224,2.75
					C137.766,217.87,137.677,217.875,137.589,217.875z"/>
			</g>
		</g>
		<g>
			<g>
				<path d="M118.447,217.532c-0.088,0-0.177-0.004-0.266-0.014c-1.373-0.146-2.368-1.376-2.223-2.75l4.483-42.372
					c0.146-1.373,1.38-2.366,2.75-2.223c1.373,0.146,2.368,1.376,2.223,2.75l-4.483,42.372
					C120.794,216.579,119.71,217.532,118.447,217.532z"/>
			</g>
		</g>
		<g>
			<g>
				<g>
					<path d="M128,176.081c-3.708,0-7.174-1.659-9.511-4.552c-0.868-1.074-0.7-2.648,0.374-3.516
						c1.073-0.868,2.647-0.701,3.516,0.374c1.383,1.711,3.432,2.693,5.622,2.693c2.218,0,4.284-1.002,5.668-2.751
						c0.856-1.082,2.429-1.267,3.512-0.408c1.082,0.857,1.266,2.429,0.408,3.512C135.25,174.387,131.756,176.081,128,176.081z"/>
				</g>
			</g>
		</g>
		<g>
			<g>
				<circle cx="145.29" cy="90.816" r="4"/>
			</g>
		</g>
		<g>
			<g>
				<circle cx="111.71" cy="90.816" r="4"/>
			</g>
		</g>
		<g>
			<g>
				<path d="M131.892,91.171h-7.783c-1.381,0-2.5-1.119-2.5-2.5s1.119-2.5,2.5-2.5h7.783c1.381,0,2.5,1.119,2.5,2.5
					S133.272,91.171,131.892,91.171z"/>
			</g>
		</g>
		<g>
			<g>
				<path d="M151.767,106.182h-8.617c-7.05,0-12.785-5.735-12.785-12.785v-5.961c0-5.295,4.309-9.604,9.604-9.604h14.979
					c5.295,0,9.604,4.308,9.604,9.604v5.961C164.552,100.447,158.816,106.182,151.767,106.182z M139.969,82.833
					c-2.539,0-4.604,2.065-4.604,4.604v5.961c0,4.293,3.492,7.785,7.785,7.785h8.617c4.293,0,7.785-3.492,7.785-7.785v-5.961
					c0-2.539-2.065-4.604-4.604-4.604H139.969z"/>
			</g>
		</g>
		<g>
			<g>
				<path d="M112.851,106.182h-8.617c-7.05,0-12.785-5.735-12.785-12.785v-5.961c0-5.295,4.308-9.604,9.604-9.604h14.979
					c5.295,0,9.604,4.308,9.604,9.604v5.961C125.635,100.447,119.9,106.182,112.851,106.182z M101.052,82.833
					c-2.539,0-4.604,2.065-4.604,4.604v5.961c0,4.293,3.492,7.785,7.785,7.785h8.617c4.292,0,7.785-3.492,7.785-7.785v-5.961
					c0-2.539-2.065-4.604-4.604-4.604H101.052z"/>
			</g>
		</g>
	</g>
</g>
<g id="Layer_24">
</g>
<g id="Layer_25">
</g>
<g id="Layer_26">
</g>
<g id="Layer_27">
</g>
<g id="Layer_28">
</g>
<g id="Layer_29">
</g>
<g id="Layer_30">
</g>
<g id="Layer_31">
</g>
<g id="Layer_32">
</g>
<g id="Layer_33">
</g>
<g id="Layer_34">
</g>
<g id="Layer_35">
</g>
<g id="Layer_36">
</g>
<g id="Layer_37">
</g>
<g id="Layer_38">
</g>
<g id="Layer_39">
</g>
<g id="Layer_40">
</g>
<g id="Layer_41">
</g>
<g id="Layer_42">
</g>
<g id="Layer_43">
</g>
<g id="Layer_44">
</g>
<g id="Layer_45">
</g>
<g id="Layer_46">
</g>
<g id="Layer_47">
</g>
<g id="Layer_48">
</g>
<g id="Layer_49">
</g>
<g id="Layer_50">
</g>
<g id="Layer_51">
</g>
<g id="Layer_52">
</g>
<g id="Layer_53">
</g>
<g id="Layer_54">
</g>
<g id="Layer_55">
</g>
<g id="Layer_56">
</g>
<g id="Layer_57">
</g>
<g id="Layer_58">
</g>
<g id="Layer_59">
</g>
<g id="Layer_60">
</g>
<g id="Layer_61">
</g>
<g id="Layer_62">
</g>
<g id="Layer_63">
</g>
<g id="Layer_64">
</g>
<g id="Layer_65">
</g>
<g id="Layer_66">
</g>
<g id="Layer_67">
</g>
<g id="Layer_68">
</g>
<g id="Layer_69">
</g>
<g id="Layer_70">
</g>
<g id="Layer_71">
</g>
<g id="Layer_72">
</g>
<g id="Layer_73">
</g>
<g id="Layer_74">
</g>
<g id="Layer_75">
</g>
<g id="Layer_76">
</g>
<g id="Layer_77">
</g>
<g id="Layer_78">
</g>
<g id="Layer_79">
</g>
<g id="Layer_80">
</g>
</svg>
