<?xml version="1.0" encoding="utf-8"?>
<!-- Generator: Adobe Illustrator 24.0.0, SVG Export Plug-In . SVG Version: 6.00 Build 0)  -->
<svg version="1.1" xmlns="http://www.w3.org/2000/svg" xmlns:xlink="http://www.w3.org/1999/xlink" x="0px" y="0px"
	 viewBox="0 0 256 256" style="enable-background:new 0 0 256 256;" xml:space="preserve">
<style type="text/css">
	.st0{fill:#3A70BF;}
	.st1{fill:#EDF4FC;}
	.st2{fill:#C7D7E5;}
	.st3{fill:#F9D0B4;}
	.st4{fill:#5B5D60;}
	.st5{fill:#5290DB;}
	.st6{fill:#70D6F9;}
	.st7{fill:#F5C84C;}
	.st8{fill:#FC657E;}
	.st9{fill:#87D147;}
	.st10{fill:#FCDD86;}
	.st11{fill:#9BE5F9;}
	.st12{fill:#B2E26D;}
	.st13{fill:#754E34;}
	.st14{fill:#FCA265;}
	.st15{fill:#818182;}
	.st16{fill:#F94EED;}
	.st17{fill:#FFC197;}
	.st18{fill:#3CAADC;}
	.st19{fill:#DAE6F1;}
	.st20{fill:#57AF12;}
	.st21{fill:#EF4460;}
	.st22{fill:#FFF0CA;}
	.st23{fill:#F98FA6;}
	.st24{fill:#EDB311;}
	.st25{fill:#FC8C48;}
	.st26{fill:#FCB9CB;}
	.st27{fill:#96BC71;}
	.st28{fill:#78A352;}
	.st29{fill:#B8DD90;}
	.st30{fill:#6FAFEF;}
	.st31{fill:#29589F;}
	.st32{fill:#414344;}
	.st33{fill:#9B6B4B;}
	.st34{fill:#73B1EF;}
</style>
<g id="Layer_1">
</g>
<g id="Layer_2">
</g>
<g id="Layer_3">
</g>
<g id="Layer_4">
</g>
<g id="Layer_5">
</g>
<g id="Layer_6">
</g>
<g id="Layer_7">
</g>
<g id="Layer_8">
</g>
<g id="Layer_9">
</g>
<g id="Layer_10">
</g>
<g id="Layer_11">
</g>
<g id="Layer_12">
</g>
<g id="Layer_13">
</g>
<g id="Layer_14">
</g>
<g id="Layer_15">
</g>
<g id="Layer_16">
</g>
<g id="Layer_17">
</g>
<g id="Layer_18">
</g>
<g id="Layer_19">
</g>
<g id="Layer_20">
</g>
<g id="Layer_21">
</g>
<g id="Layer_22">
</g>
<g id="Layer_23">
</g>
<g id="Layer_24">
	<g>
		<g>
			<g>
				<path class="st3" d="M164.96,71.985c-0.759,0-1.502,0.064-2.229,0.177c0,3.696,0,20.799,0,26.293v0v0
					c0,0.783-0.036,1.558-0.088,2.329c0.756,0.122,1.526,0.202,2.316,0.202c8.009,0,14.501-6.492,14.501-14.501
					C179.461,78.477,172.969,71.985,164.96,71.985z"/>
			</g>
		</g>
		<g>
			<g>
				<path class="st3" d="M144.613,60.642c-5.29,6.174-24.047,24.906-51.344,17.13v20.684c0,19.102,15.629,34.732,34.732,34.732l0,0
					c19.102,0,34.732-15.629,34.732-34.732v-28.06c0-1.276-0.893-2.358-2.136-2.646c-3.515-0.814-7.782-2.85-12.673-7.294
					C146.955,59.577,145.463,59.649,144.613,60.642z"/>
			</g>
		</g>
		<g>
			<g>
				<path class="st3" d="M93.268,77.771c-2.385-0.679-4.834-1.559-7.346-2.668c-1.619-0.715-3.511-0.386-4.803,0.825
					c-2.817,2.641-4.581,6.39-4.581,10.557c0,8.008,6.492,14.501,14.501,14.501c0.79,0,1.56-0.08,2.316-0.202
					c-0.052-0.771-0.088-1.546-0.088-2.329V77.771z"/>
			</g>
		</g>
		<g>
			<g>
				<g>
					<path class="st13" d="M81.12,75.929c1.291-1.211,3.183-1.54,4.803-0.825c2.512,1.109,4.961,1.988,7.346,2.668
						c27.297,7.776,46.055-10.956,51.344-17.13c0.85-0.992,2.342-1.065,3.309-0.186c4.892,4.445,9.159,6.48,12.673,7.294
						c1.243,0.288,2.136,1.37,2.136,2.646v1.766c0.727-0.113,1.47-0.177,2.229-0.177c4.012,0,7.643,1.63,10.268,4.263v-8.494
						c0-25.976-21.253-47.229-47.229-47.229c-25.976,0-47.229,21.253-47.229,47.229v8.535C80.889,76.171,80.998,76.043,81.12,75.929
						z"/>
				</g>
			</g>
		</g>
		<g>
			<g>
				<path class="st13" d="M111.48,139.512v-10.533c-10.179-5.548-17.308-16.042-18.124-28.194c-0.756,0.122-1.526,0.202-2.316,0.202
					c-3.897,0-7.427-1.545-10.032-4.046c-1.508,8.692-4.54,20.198-10.64,31.327c-1.112,2.029-0.572,4.566,1.303,5.922
					c4.92,3.557,16.083,9.666,36.93,12.174C110.404,144.579,111.48,142.133,111.48,139.512z"/>
			</g>
		</g>
		<g>
			<g>
				<path class="st13" d="M185.633,128.268c-6.1-11.129-9.132-22.635-10.64-31.327c-2.606,2.501-6.136,4.046-10.032,4.046
					c-0.79,0-1.56-0.08-2.316-0.202c-0.816,12.152-7.945,22.647-18.124,28.194v10.533c0,2.621,1.076,5.068,2.88,6.853
					c20.847-2.508,32.009-8.617,36.93-12.174C186.205,132.834,186.745,130.297,185.633,128.268z"/>
			</g>
		</g>
		<g>
			<g>
				<path class="st7" d="M200.078,173.902c-0.347-6.223-4.699-11.497-10.743-13.019l-24.833-6.269
					c-2.075-0.523-4.089-1.263-6.009-2.209l-8.587-4.234c-3.298-1.626-5.386-4.984-5.386-8.66v-10.533
					c-4.92,2.682-10.551,4.208-16.52,4.208c-5.97,0-11.6-1.526-16.52-4.208v10.533c0,3.677-2.088,7.034-5.386,8.66l-8.587,4.234
					c-1.919,0.946-3.933,1.687-6.009,2.209l-24.833,6.269c-6.044,1.521-10.396,6.796-10.743,13.019l-2.744,75.418
					c-0.127,2.269,1.68,4.179,3.953,4.179h21.99c1.478,0,2.677-1.198,2.677-2.677v-47.143l3.883,12.439
					c2.539,8.133,3.83,16.604,3.83,25.124v9.58c0,1.478,1.198,2.677,2.677,2.677h30.345h10.936h30.345
					c1.478,0,2.677-1.198,2.677-2.677v-9.58c0-8.52,1.291-16.991,3.83-25.124l3.883-12.439v47.143c0,1.478,1.198,2.677,2.677,2.677
					h21.99c2.273,0,4.079-1.91,3.953-4.179L200.078,173.902z"/>
			</g>
		</g>
		<g>
			<g>
				<path class="st4" d="M133.468,253.5h30.345c1.478,0,2.677-1.198,2.677-2.677v-9.58c0-8.52,1.291-16.991,3.83-25.124
					l3.883-12.439v47.143c0,1.478,1.198,2.677,2.677,2.677h21.99c2.273,0,4.079-1.91,3.953-4.179l-2.744-75.418
					c-0.347-6.223-4.699-11.497-10.743-13.019l-24.833-6.269c-2.075-0.523-4.089-1.263-6.009-2.209l-8.587-4.234
					c-0.274-0.135-0.526-0.299-0.782-0.457l-20.446,79.734c-0.449,1.75-0.677,3.577-0.677,5.415V253.5H133.468z"/>
			</g>
		</g>
		<g>
			<g>
				<path class="st4" d="M106.876,147.715c-0.256,0.158-0.508,0.322-0.782,0.457l-8.587,4.234c-1.919,0.946-3.933,1.687-6.009,2.209
					l-24.833,6.269c-6.044,1.521-10.396,6.796-10.743,13.019l-2.744,75.418c-0.127,2.269,1.68,4.179,3.953,4.179h21.99
					c1.478,0,2.677-1.198,2.677-2.677v-47.143l3.883,12.439c2.539,8.133,3.83,16.604,3.83,25.124v9.58
					c0,1.478,1.198,2.677,2.677,2.677h30.345H128v-20.636c0-1.838-0.229-3.664-0.677-5.415L106.876,147.715z"/>
			</g>
		</g>
		<g>
			<g>
				<path class="st15" d="M162.838,154.143c-1.49-0.467-2.944-1.045-4.346-1.737l-8.587-4.234c-0.274-0.135-0.526-0.299-0.782-0.457
					l-20.446,79.733c-0.325,1.267-0.53,2.574-0.621,3.897l31.937-39.785c0.578-0.72,0.706-1.828,0.315-2.722l-4.727-10.796
					c-0.529-1.207-0.092-2.719,0.933-3.23l7.31-3.643c0.813-0.405,1.285-1.468,1.128-2.541L162.838,154.143z"/>
			</g>
		</g>
		<g>
			<g>
				<path class="st15" d="M127.323,227.449l-20.446-79.733c-0.256,0.158-0.508,0.322-0.782,0.457l-8.587,4.234
					c-1.402,0.691-2.856,1.27-4.346,1.737l-2.114,14.487c-0.157,1.074,0.315,2.136,1.128,2.541l7.31,3.643
					c1.025,0.511,1.462,2.022,0.933,3.23l-4.727,10.796c-0.391,0.894-0.263,2.002,0.315,2.722l31.937,39.785
					C127.853,230.023,127.648,228.716,127.323,227.449z"/>
			</g>
		</g>
		<g>
			<g>
				<g>
					<path class="st10" d="M141.709,176.632l7.415-28.914c-0.383-0.243-0.753-0.503-1.099-0.79l-14.797,12.683
						c-2.171,1.861-2.738,4.996-1.331,7.486C133.669,170.233,136.754,174.231,141.709,176.632z"/>
				</g>
			</g>
		</g>
		<g>
			<g>
				<g>
					<path class="st10" d="M114.291,176.632c4.954-2.401,8.04-6.399,9.812-9.535c1.407-2.49,0.841-5.625-1.331-7.486l-14.797-12.683
						c-0.346,0.287-0.715,0.547-1.098,0.79L114.291,176.632z"/>
				</g>
			</g>
		</g>
		<g>
			<g>
				<g>
					<path class="st3" d="M107.975,146.928l14.797,12.683c1.727,1.48,2.418,3.762,1.93,5.888h6.596
						c-0.488-2.126,0.203-4.408,1.93-5.888l14.797-12.683c-2.182-1.81-3.505-4.506-3.505-7.416v-10.533
						c-4.92,2.682-10.551,4.208-16.52,4.208c-5.97,0-11.6-1.526-16.52-4.208v10.533C111.48,142.423,110.157,145.118,107.975,146.928
						L107.975,146.928z"/>
				</g>
			</g>
		</g>
		<g>
			<g>
				<path d="M128,117.757c-4.775,0-9.262-1.949-11.999-5.215c-0.887-1.058-0.748-2.635,0.31-3.522
					c1.058-0.886,2.634-0.749,3.522,0.31c1.799,2.146,4.852,3.427,8.167,3.427s6.368-1.281,8.167-3.427
					c0.889-1.058,2.465-1.196,3.522-0.31c1.058,0.887,1.196,2.464,0.31,3.522C137.262,115.808,132.775,117.757,128,117.757z"/>
			</g>
		</g>
		<g>
			<g>
				<path d="M164.961,103.487c-0.544,0-1.093-0.031-1.678-0.093c-1.373-0.148-2.366-1.38-2.218-2.753
					c0.147-1.372,1.374-2.368,2.753-2.218c0.405,0.044,0.778,0.065,1.143,0.065c6.617,0,12-5.384,12-12.001s-5.383-12-12-12
					c-0.371,0-0.736,0.019-1.097,0.053c-1.374,0.133-2.595-0.876-2.727-2.25s0.876-2.595,2.25-2.727
					c0.525-0.05,1.055-0.076,1.573-0.076c9.374,0,17,7.626,17,17C181.961,95.86,174.335,103.487,164.961,103.487z"/>
			</g>
		</g>
		<g>
			<g>
				<path d="M128,135.687c-20.529,0-37.231-16.702-37.231-37.232V77.771c0-0.784,0.368-1.523,0.994-1.995
					c0.626-0.473,1.44-0.625,2.19-0.409c25.922,7.383,43.876-10.649,48.761-16.352l0,0c0.849-0.991,2.033-1.581,3.334-1.663
					c1.301-0.077,2.591,0.376,3.556,1.253c3.951,3.59,7.839,5.848,11.557,6.709c2.397,0.556,4.071,2.646,4.071,5.081v28.06
					C165.231,118.985,148.529,135.687,128,135.687z M95.769,80.979v17.476c0,17.773,14.459,32.232,32.231,32.232
					s32.231-14.459,32.231-32.232v-28.06c0-0.113-0.101-0.187-0.2-0.21c-4.516-1.046-9.109-3.656-13.657-7.759
					C141.019,68.626,122.587,86.862,95.769,80.979z"/>
			</g>
		</g>
		<g>
			<g>
				<path d="M91.039,103.487c-9.374,0-17-7.626-17-17.001c0-4.667,1.957-9.18,5.37-12.38c2.03-1.904,4.982-2.409,7.523-1.289
					c2.26,0.998,4.551,1.835,6.808,2.489c1.326,0.384,2.09,1.77,1.706,3.097c-0.384,1.325-1.768,2.093-3.097,1.706
					c-2.471-0.715-4.973-1.629-7.437-2.717c-0.703-0.31-1.519-0.167-2.084,0.362c-2.444,2.292-3.79,5.394-3.79,8.733
					c0,6.617,5.383,12.001,12,12.001c0.318,0,0.632-0.017,0.941-0.045c1.395-0.128,2.593,0.884,2.72,2.259s-0.885,2.592-2.259,2.719
					C91.979,103.463,91.512,103.487,91.039,103.487z"/>
			</g>
		</g>
		<g>
			<g>
				<g>
					<path d="M80.771,78.484c-1.381,0-2.5-1.119-2.5-2.5v-8.229c0-27.421,22.309-49.729,49.729-49.729s49.729,22.308,49.729,49.729
						v7.964c0,1.381-1.119,2.5-2.5,2.5s-2.5-1.119-2.5-2.5v-7.964c0-24.664-20.065-44.729-44.729-44.729
						S83.271,43.091,83.271,67.755v8.229C83.271,77.365,82.152,78.484,80.771,78.484z"/>
				</g>
			</g>
		</g>
		<g>
			<g>
				<path d="M107.978,148.788c-0.104,0-0.208-0.007-0.313-0.02c-21.142-2.642-32.544-8.999-37.459-12.553
					c-2.877-2.08-3.75-6.013-2.031-9.149c6.019-10.979,8.905-22.361,10.268-29.976c0.243-1.359,1.542-2.264,2.901-2.021
					s2.264,1.542,2.021,2.901c-2.077,11.609-5.712,22.207-10.805,31.498c-0.51,0.93-0.262,2.088,0.576,2.694
					c4.527,3.274,15.114,9.14,35.148,11.643c1.37,0.171,2.343,1.421,2.171,2.791C110.297,147.862,109.22,148.788,107.978,148.788z"
					/>
			</g>
		</g>
		<g>
			<g>
				<path d="M148.022,148.788c-1.243,0-2.319-0.926-2.478-2.19c-0.172-1.37,0.801-2.62,2.171-2.791
					c20.034-2.502,30.621-8.369,35.148-11.643c0.838-0.606,1.086-1.764,0.576-2.694c-5.112-9.326-8.755-19.966-10.827-31.625
					c-0.242-1.359,0.664-2.657,2.023-2.899c1.354-0.239,2.657,0.665,2.898,2.024c1.36,7.647,4.249,19.076,10.29,30.097
					c1.719,3.136,0.846,7.069-2.031,9.149c-4.915,3.554-16.317,9.912-37.459,12.553C148.23,148.781,148.126,148.788,148.022,148.788
					z"/>
			</g>
		</g>
		<g>
			<g>
				<circle cx="145.29" cy="90.816" r="4"/>
			</g>
		</g>
		<g>
			<g>
				<circle cx="111.71" cy="90.816" r="4"/>
			</g>
		</g>
		<g>
			<g>
				<path d="M131.892,91.171h-7.783c-1.381,0-2.5-1.119-2.5-2.5s1.119-2.5,2.5-2.5h7.783c1.381,0,2.5,1.119,2.5,2.5
					S133.272,91.171,131.892,91.171z"/>
			</g>
		</g>
		<g>
			<g>
				<path d="M151.767,106.182h-8.617c-7.05,0-12.785-5.735-12.785-12.785v-5.961c0-5.295,4.309-9.604,9.604-9.604h14.979
					c5.295,0,9.604,4.308,9.604,9.604v5.961C164.552,100.447,158.816,106.182,151.767,106.182z M139.969,82.833
					c-2.539,0-4.604,2.065-4.604,4.604v5.961c0,4.293,3.492,7.785,7.785,7.785h8.617c4.293,0,7.785-3.492,7.785-7.785v-5.961
					c0-2.539-2.065-4.604-4.604-4.604H139.969z"/>
			</g>
		</g>
		<g>
			<g>
				<path d="M112.851,106.182h-8.617c-7.05,0-12.785-5.735-12.785-12.785v-5.961c0-5.295,4.309-9.604,9.604-9.604h14.979
					c5.296,0,9.604,4.308,9.604,9.604v5.961C125.636,100.447,119.9,106.182,112.851,106.182z M101.052,82.833
					c-2.538,0-4.604,2.065-4.604,4.604v5.961c0,4.293,3.492,7.785,7.785,7.785h8.617c4.293,0,7.785-3.492,7.785-7.785v-5.961
					c0-2.539-2.065-4.604-4.604-4.604H101.052z"/>
			</g>
		</g>
		<g>
			<g>
				<path d="M128,256H92.187c-2.854,0-5.177-2.322-5.177-5.177v-9.58c0-7.067-0.911-14.08-2.713-20.896v30.476
					c0,2.854-2.322,5.177-5.177,5.177H57.131c-1.769,0-3.479-0.737-4.693-2.021c-1.215-1.284-1.854-3.033-1.756-4.797l2.742-75.37
					c0.413-7.404,5.488-13.554,12.631-15.352l24.832-6.268c1.902-0.479,3.758-1.161,5.516-2.027l8.586-4.234
					c0.159-0.079,0.303-0.172,0.447-0.263l0.126-0.078c0.678-0.418,1.511-0.488,2.249-0.192c0.737,0.297,1.289,0.928,1.487,1.698
					l20.446,79.733c0.501,1.955,0.756,3.986,0.756,6.036V253.5C130.5,254.881,129.381,256,128,256z M81.799,201.181
					c1.078,0,2.055,0.699,2.385,1.755l3.883,12.438c2.616,8.382,3.943,17.086,3.943,25.87v9.58c0,0.098,0.079,0.177,0.177,0.177
					H125.5v-18.136c0-1.631-0.201-3.244-0.6-4.793l-19.665-76.688l-6.622,3.266c-2.074,1.022-4.262,1.827-6.504,2.391l-24.832,6.268
					c-5.012,1.262-8.571,5.575-8.859,10.734l-2.742,75.37c-0.032,0.594,0.233,0.961,0.395,1.132S56.584,251,57.131,251H79.12
					c0.098,0,0.177-0.079,0.177-0.177v-47.143c0-1.235,0.902-2.285,2.123-2.472C81.547,201.19,81.674,201.181,81.799,201.181z"/>
			</g>
		</g>
		<g>
			<g>
				<path d="M128,200.274c-1.381,0-2.5-1.119-2.5-2.5v-21.36c0-1.381,1.119-2.5,2.5-2.5s2.5,1.119,2.5,2.5v21.36
					C130.5,199.155,129.381,200.274,128,200.274z"/>
			</g>
		</g>
		<g>
			<g>
				<path class="st7" d="M61.822,125.33c-4.498-0.838-8.043-4.31-8.898-8.716c-0.043-0.221-0.352-0.221-0.395,0
					c-0.855,4.406-4.4,7.879-8.898,8.716c-0.226,0.042-0.226,0.345,0,0.387c4.498,0.838,8.043,4.31,8.898,8.717
					c0.043,0.221,0.352,0.221,0.395,0c0.855-4.406,4.4-7.879,8.898-8.717C62.047,125.675,62.047,125.373,61.822,125.33z"/>
			</g>
		</g>
		<g>
			<g>
				<path class="st8" d="M199.515,112.101c-2.862-0.533-5.118-2.743-5.663-5.547c-0.027-0.141-0.224-0.141-0.251,0
					c-0.544,2.804-2.8,5.014-5.663,5.547c-0.144,0.027-0.144,0.219,0,0.246c2.862,0.533,5.118,2.743,5.663,5.547
					c0.027,0.141,0.224,0.141,0.251,0c0.544-2.804,2.8-5.014,5.663-5.547C199.658,112.32,199.658,112.128,199.515,112.101z"/>
			</g>
		</g>
		<g>
			<g>
				<path class="st6" d="M182.246,25.75h2.33v-2.33c0-1.744,1.413-3.157,3.157-3.157s3.157,1.413,3.157,3.157v2.33h2.329
					c1.744,0,3.157,1.413,3.157,3.157s-1.413,3.157-3.157,3.157h-2.329v2.33c0,1.744-1.413,3.157-3.157,3.157
					s-3.157-1.413-3.157-3.157v-2.33h-2.33c-1.744,0-3.157-1.413-3.157-3.157S180.502,25.75,182.246,25.75z"/>
			</g>
		</g>
		<g>
			<g>
				<circle class="st9" cx="40.755" cy="154.825" r="3.377"/>
			</g>
		</g>
		<g>
			<g>
				<circle class="st7" cx="174.755" cy="3.377" r="3.377"/>
			</g>
		</g>
		<g>
			<g>
				<path d="M127.625,233.445c-0.732,0-1.458-0.32-1.951-0.935l-31.616-39.385c-1.168-1.454-1.426-3.531-0.655-5.29l4.727-10.795
					c0.012-0.028,0.017-0.066,0.016-0.103l-7.084-3.529c-1.776-0.885-2.799-2.999-2.487-5.139l2.012-13.78
					c0.199-1.366,1.46-2.315,2.835-2.112c1.366,0.199,2.312,1.469,2.112,2.835l-2.012,13.778c-0.003,0.02-0.004,0.039-0.004,0.055
					l7.085,3.53c2.237,1.116,3.183,4.019,2.106,6.471l-4.726,10.794c-0.021,0.051-0.019,0.151,0,0.192l31.59,39.347
					c0.864,1.077,0.692,2.65-0.384,3.515C128.727,233.265,128.174,233.445,127.625,233.445z M93.532,169.136h0.011H93.532z"/>
			</g>
		</g>
		<g>
			<g>
				<g>
					<path d="M141.078,178.814c-0.395,0-0.794-0.093-1.166-0.29c-5.218-2.757-8.423-7.067-10.192-10.196
						c-1.984-3.515-1.193-7.979,1.881-10.615l14.172-12.147c1.049-0.898,2.625-0.778,3.525,0.271
						c0.898,1.048,0.776,2.626-0.271,3.525l-14.172,12.147c-1.266,1.085-1.595,2.919-0.781,4.359
						c1.439,2.547,4.027,6.044,8.175,8.235c1.221,0.645,1.688,2.158,1.042,3.378C142.842,178.33,141.975,178.814,141.078,178.814z"
						/>
				</g>
			</g>
		</g>
		<g>
			<g>
				<g>
					<path d="M114.805,178.876c-0.902,0-1.774-0.491-2.22-1.347c-0.638-1.225-0.161-2.734,1.064-3.372
						c4.206-2.188,6.823-5.716,8.277-8.29c0.813-1.439,0.484-3.273-0.781-4.358l-14.133-12.114c-1.048-0.898-1.17-2.477-0.271-3.525
						c0.899-1.048,2.478-1.169,3.525-0.271l14.133,12.114c3.074,2.636,3.865,7.1,1.881,10.614
						c-1.788,3.164-5.03,7.513-10.324,10.266C115.588,178.785,115.193,178.876,114.805,178.876z"/>
				</g>
			</g>
		</g>
		<g>
			<g>
				<g>
					<path d="M147.398,148.861c-0.635,0-1.27-0.24-1.756-0.721c-2.336-2.305-3.622-5.37-3.622-8.629v-9.902
						c0-1.381,1.119-2.5,2.5-2.5s2.5,1.119,2.5,2.5v9.902c0,1.911,0.758,3.712,2.134,5.07c0.983,0.97,0.993,2.553,0.023,3.536
						C148.688,148.613,148.044,148.861,147.398,148.861z"/>
				</g>
			</g>
			<g>
				<g>
					<path d="M131.031,168H125c-1.381,0-2.5-1.119-2.5-2.5s1.119-2.5,2.5-2.5h6.031c1.381,0,2.5,1.119,2.5,2.5
						S132.412,168,131.031,168z"/>
				</g>
			</g>
			<g>
				<g>
					<path d="M108.329,149.121c-0.678,0-1.354-0.274-1.847-0.813c-0.932-1.02-0.86-2.601,0.159-3.532
						c1.485-1.357,2.338-3.276,2.338-5.264v-10.042c0-1.381,1.119-2.5,2.5-2.5s2.5,1.119,2.5,2.5v10.042
						c0,3.389-1.445,6.652-3.965,8.955C109.535,148.905,108.931,149.121,108.329,149.121z"/>
				</g>
			</g>
		</g>
		<g>
			<g>
				<path d="M198.869,256H176.88c-2.854,0-5.177-2.322-5.177-5.177v-30.476c-1.802,6.816-2.713,13.829-2.713,20.896v9.58
					c0,2.854-2.322,5.177-5.177,5.177H128c-1.381,0-2.5-1.119-2.5-2.5v-20.636c0-2.05,0.255-4.081,0.756-6.037l20.446-79.733
					c0.198-0.77,0.75-1.4,1.487-1.698c0.735-0.297,1.572-0.227,2.249,0.192l0.126,0.078c0.145,0.09,0.288,0.184,0.443,0.261
					l8.59,4.236c1.758,0.866,3.613,1.548,5.514,2.027l24.836,6.269c7.141,1.797,12.216,7.948,12.627,15.303l2.746,75.467
					c0.097,1.716-0.543,3.464-1.758,4.749C202.348,255.263,200.638,256,198.869,256z M174.201,201.181
					c0.125,0,0.252,0.009,0.379,0.028c1.221,0.187,2.123,1.236,2.123,2.472v47.143c0,0.098,0.079,0.177,0.177,0.177h21.989
					c0.547,0,0.899-0.286,1.061-0.457s0.427-0.538,0.396-1.083l-2.746-75.467c-0.286-5.11-3.846-9.424-8.855-10.685l-24.836-6.269
					c-2.24-0.564-4.428-1.368-6.502-2.391l-6.622-3.266L131.1,228.07c-0.398,1.55-0.6,3.163-0.6,4.794V251h33.313
					c0.098,0,0.177-0.079,0.177-0.177v-9.58c0-8.783,1.327-17.487,3.943-25.87l3.883-12.438
					C172.146,201.879,173.123,201.181,174.201,201.181z"/>
			</g>
		</g>
		<g>
			<g>
				<path d="M128.375,233.445c-0.549,0-1.102-0.18-1.563-0.55c-1.076-0.864-1.248-2.438-0.384-3.515l31.616-39.385
					c-0.008-0.003-0.005-0.104-0.026-0.154l-4.727-10.796c-1.075-2.451-0.13-5.354,2.107-6.469l7.084-3.53
					c0.001-0.017,0-0.036-0.003-0.057l-2.013-13.785c-0.199-1.366,0.746-2.636,2.112-2.835c1.374-0.206,2.636,0.746,2.835,2.112
					l2.013,13.787c0.312,2.142-0.711,4.255-2.487,5.141l-7.084,3.529c-0.001,0.036,0.003,0.074,0.015,0.101l4.728,10.797
					c0.771,1.758,0.513,3.835-0.655,5.29l-31.616,39.384C129.833,233.125,129.107,233.445,128.375,233.445z"/>
			</g>
		</g>
	</g>
</g>
<g id="Layer_25">
</g>
<g id="Layer_26">
</g>
<g id="Layer_27">
</g>
<g id="Layer_28">
</g>
<g id="Layer_29">
</g>
<g id="Layer_30">
</g>
<g id="Layer_31">
</g>
<g id="Layer_32">
</g>
<g id="Layer_33">
</g>
<g id="Layer_34">
</g>
<g id="Layer_35">
</g>
<g id="Layer_36">
</g>
<g id="Layer_37">
</g>
<g id="Layer_38">
</g>
<g id="Layer_39">
</g>
<g id="Layer_40">
</g>
<g id="Layer_41">
</g>
<g id="Layer_42">
</g>
<g id="Layer_43">
</g>
<g id="Layer_44">
</g>
<g id="Layer_45">
</g>
<g id="Layer_46">
</g>
<g id="Layer_47">
</g>
<g id="Layer_48">
</g>
<g id="Layer_49">
</g>
<g id="Layer_50">
</g>
<g id="Layer_51">
</g>
<g id="Layer_52">
</g>
<g id="Layer_53">
</g>
<g id="Layer_54">
</g>
<g id="Layer_55">
</g>
<g id="Layer_56">
</g>
<g id="Layer_57">
</g>
<g id="Layer_58">
</g>
<g id="Layer_59">
</g>
<g id="Layer_60">
</g>
<g id="Layer_61">
</g>
<g id="Layer_62">
</g>
<g id="Layer_63">
</g>
<g id="Layer_64">
</g>
<g id="Layer_65">
</g>
<g id="Layer_66">
</g>
<g id="Layer_67">
</g>
<g id="Layer_68">
</g>
<g id="Layer_69">
</g>
<g id="Layer_70">
</g>
<g id="Layer_71">
</g>
<g id="Layer_72">
</g>
<g id="Layer_73">
</g>
<g id="Layer_74">
</g>
<g id="Layer_75">
</g>
<g id="Layer_76">
</g>
<g id="Layer_77">
</g>
<g id="Layer_78">
</g>
<g id="Layer_79">
</g>
<g id="Layer_80">
</g>
</svg>
