<?xml version="1.0" encoding="utf-8"?>
<!-- Generator: Adobe Illustrator 24.0.0, SVG Export Plug-In . SVG Version: 6.00 Build 0)  -->
<svg version="1.1" xmlns="http://www.w3.org/2000/svg" xmlns:xlink="http://www.w3.org/1999/xlink" x="0px" y="0px"
	 viewBox="0 0 256 256" style="enable-background:new 0 0 256 256;" xml:space="preserve">
<style type="text/css">
	.st0{fill:#3A70BF;}
	.st1{fill:#EDF4FC;}
	.st2{fill:#C7D7E5;}
	.st3{fill:#F9D0B4;}
	.st4{fill:#5B5D60;}
	.st5{fill:#5290DB;}
	.st6{fill:#70D6F9;}
	.st7{fill:#F5C84C;}
	.st8{fill:#FC657E;}
	.st9{fill:#87D147;}
	.st10{fill:#FCDD86;}
	.st11{fill:#9BE5F9;}
	.st12{fill:#B2E26D;}
	.st13{fill:#754E34;}
	.st14{fill:#FCA265;}
	.st15{fill:#818182;}
	.st16{fill:#F94EED;}
	.st17{fill:#FFC197;}
	.st18{fill:#3CAADC;}
	.st19{fill:#DAE6F1;}
	.st20{fill:#57AF12;}
	.st21{fill:#EF4460;}
	.st22{fill:#FFF0CA;}
	.st23{fill:#F98FA6;}
	.st24{fill:#EDB311;}
	.st25{fill:#FC8C48;}
	.st26{fill:#FCB9CB;}
	.st27{fill:#96BC71;}
	.st28{fill:#78A352;}
	.st29{fill:#B8DD90;}
	.st30{fill:#6FAFEF;}
	.st31{fill:#29589F;}
	.st32{fill:#414344;}
	.st33{fill:#9B6B4B;}
	.st34{fill:#73B1EF;}
</style>
<g id="Layer_1">
</g>
<g id="Layer_2">
</g>
<g id="Layer_3">
</g>
<g id="Layer_4">
</g>
<g id="Layer_5">
</g>
<g id="Layer_6">
</g>
<g id="Layer_7">
</g>
<g id="Layer_8">
</g>
<g id="Layer_9">
</g>
<g id="Layer_10">
</g>
<g id="Layer_11">
</g>
<g id="Layer_12">
</g>
<g id="Layer_13">
</g>
<g id="Layer_14">
</g>
<g id="Layer_15">
</g>
<g id="Layer_16">
</g>
<g id="Layer_17">
</g>
<g id="Layer_18">
</g>
<g id="Layer_19">
</g>
<g id="Layer_20">
</g>
<g id="Layer_21">
</g>
<g id="Layer_22">
</g>
<g id="Layer_23">
</g>
<g id="Layer_24">
</g>
<g id="Layer_25">
</g>
<g id="Layer_26">
</g>
<g id="Layer_27">
</g>
<g id="Layer_28">
</g>
<g id="Layer_29">
</g>
<g id="Layer_30">
</g>
<g id="Layer_31">
</g>
<g id="Layer_32">
</g>
<g id="Layer_33">
</g>
<g id="Layer_34">
</g>
<g id="Layer_35">
</g>
<g id="Layer_36">
</g>
<g id="Layer_37">
</g>
<g id="Layer_38">
</g>
<g id="Layer_39">
</g>
<g id="Layer_40">
</g>
<g id="Layer_41">
</g>
<g id="Layer_42">
</g>
<g id="Layer_43">
</g>
<g id="Layer_44">
</g>
<g id="Layer_45">
</g>
<g id="Layer_46">
</g>
<g id="Layer_47">
</g>
<g id="Layer_48">
</g>
<g id="Layer_49">
</g>
<g id="Layer_50">
</g>
<g id="Layer_51">
</g>
<g id="Layer_52">
</g>
<g id="Layer_53">
</g>
<g id="Layer_54">
</g>
<g id="Layer_55">
</g>
<g id="Layer_56">
</g>
<g id="Layer_57">
</g>
<g id="Layer_58">
</g>
<g id="Layer_59">
</g>
<g id="Layer_60">
</g>
<g id="Layer_61">
</g>
<g id="Layer_62">
</g>
<g id="Layer_63">
</g>
<g id="Layer_64">
</g>
<g id="Layer_65">
</g>
<g id="Layer_66">
</g>
<g id="Layer_67">
</g>
<g id="Layer_68">
</g>
<g id="Layer_69">
</g>
<g id="Layer_70">
</g>
<g id="Layer_71">
</g>
<g id="Layer_72">
</g>
<g id="Layer_73">
</g>
<g id="Layer_74">
</g>
<g id="Layer_75">
	<g>
		<g>
			<g>
				<path class="st6" d="M183.963,121c-24.024,0-43.5,19.476-43.5,43.5s19.476,43.5,43.5,43.5s43.5-19.476,43.5-43.5
					S207.988,121,183.963,121z M183.963,193.75c-16.154,0-29.25-13.096-29.25-29.25s13.096-29.25,29.25-29.25
					s29.25,13.096,29.25,29.25S200.118,193.75,183.963,193.75z"/>
			</g>
		</g>
		<g>
			<g>
				<path class="st0" d="M28.551,247.747l4.847-67.923c0.455-6.642,4.6-12.466,10.726-15.073l33.676-14.33
					c1.751-0.745,3.754,0.255,4.209,2.103L107.588,253.5H33.907C30.791,253.5,28.329,250.856,28.551,247.747z"/>
			</g>
		</g>
		<g>
			<g>
				<g>
					<path class="st0" d="M183.789,207.996c-23.944-0.094-43.326-19.53-43.326-43.496c0-4.179,0.602-8.216,1.702-12.041
						l-4.788-2.038c-1.751-0.745-3.754,0.255-4.209,2.103L107.588,253.5h73.681c3.117,0,5.579-2.644,5.357-5.753L183.789,207.996z"
						/>
				</g>
			</g>
		</g>
		<g>
			<g>
				<g>
					<path class="st5" d="M183.789,207.996c-9.166-0.036-17.658-2.912-24.656-7.787V253.5h22.136c3.117,0,5.579-2.644,5.357-5.753
						L183.789,207.996z"/>
				</g>
			</g>
		</g>
		<g>
			<g>
				<path class="st5" d="M56.043,199.673c0-7.154-2.962-13.988-8.183-18.879l-11.005-10.31c-1.985,2.671-3.222,5.893-3.458,9.34
					l-4.847,67.923c-0.222,3.109,2.24,5.753,5.357,5.753h22.136V199.673z"/>
			</g>
		</g>
		<g>
			<g>
				<path class="st5" d="M82.009,152.525c-0.456-1.848-2.458-2.849-4.209-2.103l-7.211,3.069v40.542c0,0.859,0.593,1.605,1.43,1.798
					l9.42,2.174c1.12,0.259,1.734,1.468,1.281,2.525l-4.271,9.965c-0.547,1.277-0.525,2.726,0.061,3.986L96.658,253.5h10.93
					L82.009,152.525z"/>
			</g>
		</g>
		<g>
			<g>
				<path class="st5" d="M140.463,164.5c0-4.179,0.602-8.216,1.702-12.041l-4.788-2.038c-1.751-0.745-3.754,0.255-4.209,2.103
					L107.588,253.5h10.93l18.149-39.021c0.586-1.26,0.608-2.709,0.061-3.986l-4.271-9.965c-0.453-1.057,0.161-2.266,1.281-2.524
					l9.42-2.174c0.837-0.193,1.43-0.938,1.43-1.798v-11.037C141.947,177.381,140.463,171.115,140.463,164.5z"/>
			</g>
		</g>
		<g>
			<g>
				<path class="st1" d="M82.009,152.525l3.533,13.948l6.271,7.591c0.879,1.064,2.495,1.109,3.431,0.094l8.157-8.837
					c0.758-0.821,0.748-2.089-0.022-2.899l-15.687-16.492c-0.702-0.738-1.866-0.779-2.619-0.092l-4.983,4.55
					C81.004,150.732,81.753,151.487,82.009,152.525z"/>
			</g>
		</g>
		<g>
			<g>
				<path class="st1" d="M119.932,174.158c0.936,1.014,2.552,0.97,3.431-0.094l6.271-7.591l3.533-13.948
					c0.256-1.038,1.005-1.792,1.918-2.136l-4.983-4.55c-0.753-0.687-1.917-0.646-2.619,0.092l-15.687,16.492
					c-0.77,0.81-0.78,2.078-0.022,2.899L119.932,174.158z"/>
			</g>
		</g>
		<g>
			<g>
				<g>
					<path class="st19" d="M123.364,174.063c-0.879,1.064-2.495,1.109-3.431,0.094l-4.373-4.737c-1.76,2.513-4.67,4.161-7.971,4.161
						s-6.211-1.647-7.971-4.161l-4.373,4.737c-0.936,1.014-2.552,0.97-3.431-0.094l-6.271-7.591l22.046,87.028l22.046-87.028
						L123.364,174.063z"/>
				</g>
			</g>
		</g>
		<g>
			<g>
				<path class="st8" d="M107.462,253.001l0.382-0.509l9.356-36.934l-4.591-43.383c-1.467,0.886-3.181,1.406-5.021,1.406
					s-3.553-0.519-5.021-1.406l-4.591,43.383L107.462,253.001z"/>
			</g>
		</g>
		<g>
			<g>
				<g>
					<path class="st8" d="M111.775,165.321c-0.376-0.408-0.562-0.926-0.561-1.443v0c-1.371,0.155-2.756,0.26-4.167,0.26h0
						c-1.043,0-2.072-0.058-3.094-0.143c-0.025,0.478-0.203,0.949-0.551,1.326l-3.784,4.1c1.76,2.513,4.67,4.161,7.971,4.161
						s6.211-1.647,7.971-4.161L111.775,165.321z"/>
				</g>
			</g>
		</g>
		<g>
			<g>
				<path class="st7" d="M183.41,28.33c-4.498-0.838-8.043-4.31-8.898-8.716c-0.043-0.221-0.352-0.221-0.395,0
					c-0.855,4.406-4.4,7.879-8.898,8.716c-0.226,0.042-0.226,0.345,0,0.387c4.498,0.838,8.043,4.31,8.898,8.717
					c0.043,0.221,0.352,0.221,0.395,0c0.855-4.406,4.4-7.879,8.898-8.717C183.636,28.675,183.636,28.373,183.41,28.33z"/>
			</g>
		</g>
		<g>
			<g>
				<path class="st9" d="M190.103,97.101c-2.862-0.533-5.118-2.743-5.663-5.547c-0.027-0.141-0.224-0.141-0.251,0
					c-0.544,2.804-2.8,5.014-5.663,5.547c-0.144,0.027-0.144,0.219,0,0.246c2.862,0.533,5.118,2.743,5.663,5.547
					c0.027,0.141,0.224,0.141,0.251,0c0.544-2.804,2.8-5.014,5.663-5.547C190.247,97.32,190.247,97.128,190.103,97.101z"/>
			</g>
		</g>
		<g>
			<g>
				<path class="st6" d="M42.835,120.75h2.33v-2.33c0-1.744,1.413-3.157,3.157-3.157c1.744,0,3.157,1.413,3.157,3.157v2.33h2.329
					c1.744,0,3.157,1.413,3.157,3.157s-1.413,3.157-3.157,3.157h-2.329v2.33c0,1.744-1.413,3.157-3.157,3.157
					c-1.744,0-3.157-1.413-3.157-3.157v-2.33h-2.33c-1.744,0-3.157-1.413-3.157-3.157S41.091,120.75,42.835,120.75z"/>
			</g>
		</g>
		<g>
			<g>
				<circle class="st7" cx="33.343" cy="152.825" r="3.377"/>
			</g>
		</g>
		<g>
			<g>
				<circle class="st8" cx="157.343" cy="3.377" r="3.377"/>
			</g>
		</g>
		<g>
			<g>
				<path d="M107.588,256H33.907c-2.177,0-4.275-0.914-5.759-2.507c-1.484-1.593-2.246-3.752-2.092-5.924l0,0l4.847-67.923
					c0.523-7.613,5.214-14.204,12.241-17.195l33.677-14.331c1.509-0.641,3.219-0.59,4.687,0.144
					c1.469,0.734,2.536,2.069,2.929,3.663l25.575,100.959c0.189,0.748,0.022,1.541-0.451,2.149
					C109.087,255.645,108.359,256,107.588,256z M31.045,247.925c-0.058,0.804,0.213,1.571,0.763,2.161
					c0.549,0.59,1.294,0.914,2.1,0.914h70.469l-24.791-97.861c-0.058-0.234-0.201-0.347-0.313-0.402
					c-0.112-0.056-0.289-0.103-0.494-0.015l-33.677,14.331c-5.287,2.25-8.816,7.209-9.21,12.942L31.045,247.925z"/>
			</g>
		</g>
		<g>
			<g>
				<path class="st3" d="M124.733,134.916c-5.14,2.69-10.97,4.223-17.145,4.223l0,0c-6.175,0-12.005-1.533-17.145-4.223v6.057
					c0,2.204-0.568,4.32-1.589,6.18l14.525,15.27c0.417,0.438,0.603,1.01,0.573,1.573c1.022,0.085,2.051,0.143,3.094,0.143h0
					c1.411,0,2.796-0.104,4.167-0.26l0,0c0,0.001,0,0.003,0,0.004c0-0.526,0.194-1.052,0.583-1.461l14.525-15.27
					c-1.021-1.86-1.589-3.976-1.589-6.18V134.916z"/>
			</g>
		</g>
		<g>
			<g>
				<path d="M126.087,149.201c-0.918,0-1.802-0.508-2.239-1.386c-1.056-2.119-1.614-4.485-1.614-6.843v-5.098
					c0-1.381,1.119-2.5,2.5-2.5s2.5,1.119,2.5,2.5v5.098c0,1.588,0.377,3.183,1.089,4.612c0.616,1.236,0.113,2.737-1.122,3.353
					C126.842,149.116,126.462,149.201,126.087,149.201z"/>
			</g>
		</g>
		<g>
			<g>
				<path d="M107.047,166.639c-0.827,0-1.697-0.033-2.658-0.103c-1.378-0.098-2.414-1.294-2.315-2.671
					c0.098-1.379,1.32-2.43,2.671-2.315c0.842,0.06,1.596,0.089,2.303,0.089c1.029,0,2.131-0.062,3.367-0.188
					c1.386-0.136,2.602,0.859,2.742,2.232c0.141,1.374-0.859,2.602-2.232,2.742C109.516,166.568,108.248,166.639,107.047,166.639z"
					/>
			</g>
		</g>
		<g>
			<g>
				<path d="M89.169,149.04c-0.363,0-0.732-0.08-1.082-0.248c-1.244-0.599-1.768-2.093-1.169-3.337
					c0.681-1.414,1.025-2.922,1.025-4.482v-5.098c0-1.381,1.119-2.5,2.5-2.5s2.5,1.119,2.5,2.5v5.098c0,2.317-0.512,4.555-1.52,6.65
					C90.993,148.518,90.1,149.04,89.169,149.04z"/>
			</g>
		</g>
		<g>
			<g>
				<g>
					<path d="M181.27,256h-73.682c-0.771,0-1.499-0.355-1.973-0.965c-0.474-0.608-0.641-1.401-0.451-2.149l25.58-100.976
						c0.389-1.577,1.456-2.912,2.925-3.646c1.468-0.733,3.177-0.784,4.688-0.142l4.132,1.757c1.271,0.541,1.862,2.009,1.322,3.279
						c-0.541,1.271-2.006,1.863-3.279,1.322l-4.133-1.758c-0.208-0.091-0.384-0.04-0.495,0.015c-0.11,0.055-0.254,0.167-0.308,0.385
						L110.8,251h70.47c0.806,0,1.551-0.324,2.1-0.914c0.55-0.59,0.82-1.357,0.763-2.161l-2.79-39.103
						c-0.098-1.377,0.939-2.573,2.316-2.672c1.364-0.091,2.572,0.938,2.672,2.316l2.79,39.103c0.154,2.172-0.607,4.331-2.092,5.924
						C185.545,255.086,183.446,256,181.27,256z"/>
				</g>
			</g>
		</g>
		<g>
			<g>
				<g>
					<path d="M159.133,255.375c-1.381,0-2.5-1.119-2.5-2.5v-52c0-1.381,1.119-2.5,2.5-2.5s2.5,1.119,2.5,2.5v52
						C161.633,254.256,160.514,255.375,159.133,255.375z"/>
				</g>
			</g>
		</g>
		<g>
			<g>
				<path d="M56.044,255.344c-1.381,0-2.5-1.119-2.5-2.5v-53.171c0-6.437-2.694-12.652-7.393-17.054l-10.681-10.007
					c-1.008-0.944-1.06-2.526-0.115-3.533c0.944-1.006,2.524-1.06,3.533-0.115l10.681,10.007c5.703,5.343,8.975,12.889,8.975,20.702
					v53.171C58.544,254.225,57.425,255.344,56.044,255.344z"/>
			</g>
		</g>
		<g>
			<g>
				<path d="M96.431,255.508c-0.942,0-1.845-0.536-2.269-1.446l-17.92-38.527c-0.884-1.901-0.918-4.097-0.092-6.025l3.962-9.245
					l-8.656-1.998c-1.983-0.458-3.368-2.199-3.368-4.233v-40.063c0-1.381,1.119-2.5,2.5-2.5s2.5,1.119,2.5,2.5v39.542l8.913,2.058
					c1.258,0.29,2.313,1.117,2.897,2.268c0.584,1.151,0.627,2.491,0.118,3.678l-4.271,9.964c-0.267,0.623-0.256,1.334,0.029,1.947
					l17.92,38.527c0.582,1.252,0.04,2.739-1.212,3.321C97.142,255.433,96.783,255.508,96.431,255.508z"/>
			</g>
		</g>
		<g>
			<g>
				<path d="M118.953,255.063c-0.353,0-0.711-0.075-1.053-0.234c-1.252-0.582-1.794-2.069-1.212-3.321l17.713-38.082
					c0.285-0.613,0.296-1.323,0.029-1.946l-4.271-9.966c-0.509-1.186-0.466-2.527,0.119-3.679c0.584-1.15,1.641-1.977,2.898-2.267
					l8.91-2.056v-9.605c0-1.381,1.119-2.5,2.5-2.5s2.5,1.119,2.5,2.5v10.126c0,2.035-1.385,3.775-3.367,4.233l-8.656,1.998
					l3.962,9.246c0.826,1.928,0.793,4.123-0.092,6.024l-17.713,38.082C120.798,254.526,119.896,255.063,118.953,255.063z"/>
			</g>
		</g>
		<g>
			<g>
				<path d="M93.57,177.391c-0.044,0-0.088,0-0.132-0.001c-1.379-0.038-2.674-0.671-3.553-1.734l-6.146-7.438
					c-0.879-1.064-0.729-2.641,0.335-3.521c1.064-0.878,2.64-0.729,3.521,0.335l5.984,7.244l7.744-8.389L86.306,148.1l-4.145,3.784
					c-1.021,0.931-2.602,0.857-3.532-0.161c-0.931-1.02-0.858-2.601,0.161-3.532l4.599-4.198c1.741-1.592,4.484-1.497,6.115,0.214
					l15.688,16.493c1.673,1.758,1.694,4.533,0.047,6.317l-8.157,8.837C96.176,176.835,94.902,177.391,93.57,177.391z"/>
			</g>
		</g>
		<g>
			<g>
				<path d="M121.606,177.391c-1.332,0-2.604-0.555-3.511-1.536l-8.157-8.838c-1.647-1.784-1.626-4.56,0.048-6.318l15.686-16.49
					c1.63-1.713,4.375-1.809,6.117-0.214l4.406,4.021c1.02,0.932,1.092,2.513,0.161,3.532c-0.931,1.019-2.512,1.093-3.532,0.161
					l-3.953-3.609l-15.018,15.787l7.743,8.39l5.905-7.148c0.879-1.066,2.456-1.214,3.52-0.336c1.064,0.88,1.215,2.455,0.336,3.52
					l-6.066,7.344c-0.878,1.063-2.173,1.695-3.552,1.733C121.695,177.391,121.65,177.391,121.606,177.391z"/>
			</g>
		</g>
		<g>
			<g>
				<path d="M117.147,217.592c-1.263,0-2.348-0.953-2.483-2.237l-4.489-42.43c-0.146-1.373,0.851-2.604,2.224-2.749
					c1.371-0.128,2.604,0.85,2.749,2.224l4.489,42.43c0.146,1.373-0.851,2.604-2.224,2.749
					C117.324,217.587,117.235,217.592,117.147,217.592z"/>
			</g>
		</g>
		<g>
			<g>
				<path d="M98.029,217.592c-0.088,0-0.177-0.005-0.266-0.014c-1.373-0.146-2.369-1.376-2.224-2.749l4.484-42.382
					c0.146-1.374,1.38-2.354,2.749-2.224c1.373,0.146,2.369,1.376,2.224,2.749l-4.484,42.382
					C100.377,216.639,99.292,217.592,98.029,217.592z"/>
			</g>
		</g>
		<g>
			<g>
				<g>
					<path d="M107.588,176.081c-3.651,0-7.084-1.618-9.418-4.438c-0.881-1.063-0.731-2.64,0.332-3.52
						c1.062-0.88,2.639-0.732,3.52,0.332c1.381,1.669,3.41,2.626,5.566,2.626c2.205,0,4.263-0.992,5.646-2.723
						c0.862-1.078,2.435-1.255,3.514-0.393s1.255,2.435,0.393,3.514C114.803,174.404,111.321,176.081,107.588,176.081z"/>
				</g>
			</g>
		</g>
		<g>
			<g>
				<path class="st3" d="M113.161,56.772c-13.593,17.094-33.644,14.681-40.386,13.27c-1.225-0.256-2.401,0.667-2.402,1.919
					c0,0.008,0,0.017,0,0.025v29.936c0,20.468,16.747,37.215,37.215,37.215h0c20.468,0,37.215-16.747,37.215-37.215V68.772
					c0-0.194-0.002-0.388-0.006-0.582c-0.021-1.055-0.866-1.925-1.921-1.956c-15.46-0.453-23.606-6.581-26.736-9.649
					C115.285,55.747,113.906,55.836,113.161,56.772z"/>
			</g>
		</g>
		<g>
			<g>
				<g>
					<path class="st10" d="M67.985,73.561c0.813,0,1.609,0.069,2.388,0.189v-1.763c0-0.008,0-0.017,0-0.025
						c0.001-1.252,1.177-2.175,2.402-1.919c6.742,1.411,26.794,3.823,40.386-13.27c0.745-0.937,2.124-1.025,2.978-0.187
						c3.13,3.068,11.276,9.196,26.736,9.649c1.055,0.031,1.9,0.901,1.921,1.956c0.004,0.194,0.006,0.388,0.006,0.582v4.978
						c0.779-0.121,1.575-0.189,2.388-0.189c4.188,0,7.982,1.665,10.777,4.36V49.973c0-11.692-9.566-21.258-21.258-21.258
						c-3.966,0-7.673,1.121-10.859,3.031c-3.722-6.211-10.502-10.405-18.23-10.405H96.704c-21.127,0-38.413,17.286-38.413,38.413
						v17.212C60.949,74.84,64.316,73.561,67.985,73.561z"/>
				</g>
			</g>
		</g>
		<g>
			<g>
				<path class="st3" d="M147.191,73.561c-0.813,0-1.609,0.069-2.388,0.189c0,3.96,0,22.286,0,28.173
					c0,0.839-0.038,1.67-0.094,2.496c0.81,0.13,1.635,0.217,2.482,0.217c8.581,0,15.537-6.956,15.537-15.537
					S155.773,73.561,147.191,73.561z"/>
			</g>
		</g>
		<g>
			<g>
				<path class="st3" d="M70.373,101.923c0-3.856,0-20.507,0-28.173c-0.779-0.121-1.575-0.189-2.388-0.189
					c-8.581,0-15.538,6.957-15.538,15.538s6.956,15.537,15.538,15.537c0.847,0,1.672-0.086,2.482-0.217v-0.001
					C70.412,103.593,70.373,102.762,70.373,101.923z"/>
			</g>
		</g>
		<g>
			<g>
				<path d="M107.589,141.638c-21.899,0-39.716-17.816-39.716-39.715V71.987c0.002-1.373,0.604-2.63,1.652-3.48
					c1.058-0.856,2.426-1.188,3.763-0.911c7.237,1.517,25.416,3.342,37.916-12.379c0-0.001,0.001-0.001,0.001-0.001
					c0.796-1.001,1.982-1.619,3.254-1.698c1.271-0.087,2.521,0.389,3.431,1.282c2.593,2.541,10.225,8.5,25.06,8.936
					c2.389,0.068,4.299,2.003,4.348,4.404c0.005,0.21,0.007,0.422,0.007,0.633v33.15
					C147.304,123.821,129.487,141.638,107.589,141.638z M72.873,72.612v29.311c0,19.142,15.573,34.715,34.715,34.715
					c19.143,0,34.716-15.573,34.716-34.715v-33.15c0-0.019,0-0.037,0-0.056c-15.155-0.564-23.627-6.309-27.522-9.971
					C100.593,76.146,79.86,73.964,72.873,72.612z"/>
			</g>
		</g>
		<g>
			<g>
				<g>
					<path d="M157.968,79.625c-1.381,0-2.5-1.119-2.5-2.5V49.974c0-10.343-8.415-18.758-18.758-18.758
						c-3.345,0-6.655,0.925-9.574,2.675c-0.569,0.34-1.251,0.443-1.893,0.28c-0.644-0.161-1.196-0.571-1.537-1.14
						c-3.396-5.668-9.561-9.189-16.086-9.189H96.704c-19.803,0-35.913,16.11-35.913,35.913v16.589c0,1.381-1.119,2.5-2.5,2.5
						s-2.5-1.119-2.5-2.5V59.755c0-22.56,18.354-40.913,40.913-40.913h10.916c7.481,0,14.581,3.641,19.048,9.638
						c3.15-1.486,6.579-2.264,10.042-2.264c13.101,0,23.758,10.657,23.758,23.758v27.151
						C160.468,78.506,159.349,79.625,157.968,79.625z"/>
				</g>
			</g>
		</g>
		<g>
			<g>
				<path d="M147.191,107.136c-0.55,0-1.104-0.029-1.691-0.091c-1.373-0.142-2.371-1.37-2.229-2.744
					c0.142-1.372,1.369-2.385,2.744-2.229c0.415,0.043,0.8,0.063,1.176,0.063c7.188,0,13.037-5.849,13.037-13.037
					c0-7.189-5.849-13.038-13.037-13.038c-0.429,0-0.875,0.024-1.326,0.071c-1.385,0.155-2.603-0.853-2.747-2.226
					c-0.144-1.373,0.853-2.604,2.226-2.747c0.624-0.065,1.245-0.099,1.848-0.099c9.945,0,18.037,8.092,18.037,18.038
					C165.229,99.044,157.137,107.136,147.191,107.136z"/>
			</g>
		</g>
		<g>
			<g>
				<path d="M67.985,107.136c-9.946,0-18.038-8.092-18.038-18.037c0-9.946,8.092-18.038,18.038-18.038
					c0.602,0,1.213,0.032,1.819,0.096c1.373,0.144,2.369,1.374,2.226,2.747c-0.145,1.372-1.36,2.385-2.747,2.226
					c-0.434-0.045-0.87-0.068-1.298-0.068c-7.189,0-13.038,5.849-13.038,13.038c0,7.188,5.849,13.037,13.038,13.037
					c0.438,0,0.891-0.028,1.386-0.087c1.372-0.158,2.614,0.818,2.776,2.188c0.163,1.371-0.817,2.614-2.188,2.776
					C69.268,107.096,68.622,107.136,67.985,107.136z"/>
			</g>
		</g>
		<g>
			<g>
				<path d="M108.13,118.573c-4.777,0-9.263-1.95-11.999-5.216c-0.887-1.059-0.748-2.635,0.311-3.521
					c1.058-0.887,2.636-0.747,3.521,0.311c1.798,2.146,4.851,3.427,8.167,3.427c3.315,0,6.368-1.281,8.167-3.428
					c0.888-1.058,2.465-1.195,3.522-0.31c1.058,0.887,1.196,2.464,0.31,3.521C117.392,116.624,112.906,118.573,108.13,118.573z"/>
			</g>
		</g>
		<g>
			<g>
				<path d="M115.594,93.765c-0.714,0-1.423-0.304-1.917-0.895c-1.209-1.442-3.283-2.304-5.547-2.304
					c-2.265,0-4.339,0.861-5.548,2.304c-0.887,1.061-2.465,1.198-3.521,0.311c-1.059-0.887-1.197-2.464-0.311-3.521
					c2.147-2.563,5.654-4.093,9.38-4.093s7.231,1.53,9.379,4.093c0.887,1.058,0.748,2.635-0.311,3.521
					C116.73,93.573,116.16,93.765,115.594,93.765z"/>
			</g>
		</g>
		<g>
			<g>
				<circle cx="124.919" cy="90.816" r="5"/>
			</g>
		</g>
		<g>
			<g>
				<circle cx="91.34" cy="90.816" r="5"/>
			</g>
		</g>
		<g>
			<g>
				<path d="M88.13,107.75c-9.787,0-17.75-7.963-17.75-17.75s7.963-17.75,17.75-17.75s17.75,7.963,17.75,17.75
					S97.917,107.75,88.13,107.75z M88.13,77.25c-7.03,0-12.75,5.72-12.75,12.75s5.72,12.75,12.75,12.75s12.75-5.72,12.75-12.75
					S95.16,77.25,88.13,77.25z"/>
			</g>
		</g>
		<g>
			<g>
				<path d="M128.13,107.75c-9.787,0-17.75-7.963-17.75-17.75s7.963-17.75,17.75-17.75s17.75,7.963,17.75,17.75
					S137.917,107.75,128.13,107.75z M128.13,77.25c-7.03,0-12.75,5.72-12.75,12.75s5.72,12.75,12.75,12.75s12.75-5.72,12.75-12.75
					S135.16,77.25,128.13,77.25z"/>
			</g>
		</g>
		<g>
			<g>
				<circle class="st1" cx="183.963" cy="164.5" r="29.25"/>
			</g>
		</g>
		<g>
			<g>
				<path class="st8" d="M213.213,164.5c0,7.362-2.726,14.084-7.216,19.226l10.708,9.396c6.694-7.65,10.759-17.659,10.759-28.623
					c0-11.697-4.625-22.307-12.135-30.124l-10.255,9.889C210.111,149.52,213.213,156.646,213.213,164.5z"/>
			</g>
		</g>
		<g>
			<g>
				<path class="st7" d="M184.088,121.003v14.25c8.25,0.035,15.688,3.487,20.985,9.011l10.255-9.889
					C207.439,126.165,196.366,121.038,184.088,121.003z"/>
			</g>
		</g>
		<g>
			<g>
				<path d="M183.963,210.5c-25.364,0-46-20.636-46-46s20.636-46,46-46s46,20.636,46,46S209.327,210.5,183.963,210.5z
					 M183.963,123.5c-22.607,0-41,18.393-41,41s18.393,41,41,41s41-18.393,41-41S206.57,123.5,183.963,123.5z"/>
			</g>
		</g>
		<g>
			<g>
				<path d="M215.906,194.923c-0.586,0-1.174-0.204-1.648-0.621l-9.364-8.218c-1.037-0.91-1.141-2.49-0.229-3.528
					c0.911-1.036,2.491-1.14,3.528-0.229l9.364,8.218c1.037,0.91,1.141,2.49,0.229,3.528
					C217.292,194.635,216.601,194.923,215.906,194.923z"/>
			</g>
		</g>
		<g>
			<g>
				<path d="M205.743,146.118c-0.655,0-1.309-0.256-1.8-0.765c-0.958-0.994-0.93-2.576,0.064-3.535l8.875-8.558
					c0.993-0.959,2.575-0.931,3.535,0.064c0.958,0.994,0.93,2.576-0.064,3.535l-8.875,8.558
					C206.993,145.886,206.368,146.118,205.743,146.118z"/>
			</g>
		</g>
		<g>
			<g>
				<path d="M184.088,136.876c-1.381,0-2.5-1.119-2.5-2.5v-12.668c0-1.381,1.119-2.5,2.5-2.5s2.5,1.119,2.5,2.5v12.668
					C186.588,135.757,185.469,136.876,184.088,136.876z"/>
			</g>
		</g>
		<g>
			<g>
				<path d="M183.963,196.25c-17.507,0-31.75-14.243-31.75-31.75s14.243-31.75,31.75-31.75s31.75,14.243,31.75,31.75
					S201.47,196.25,183.963,196.25z M183.963,137.75c-14.75,0-26.75,12-26.75,26.75s12,26.75,26.75,26.75s26.75-12,26.75-26.75
					S198.713,137.75,183.963,137.75z"/>
			</g>
		</g>
		<g>
			<g>
				<path d="M187.891,156.341h-7.513c-1.381,0-2.5-1.119-2.5-2.5s1.119-2.5,2.5-2.5h7.513c1.381,0,2.5,1.119,2.5,2.5
					S189.271,156.341,187.891,156.341z"/>
			</g>
		</g>
		<g>
			<g>
				<path d="M194.18,166h-20.091c-1.381,0-2.5-1.119-2.5-2.5s1.119-2.5,2.5-2.5h20.091c1.381,0,2.5,1.119,2.5,2.5
					S195.561,166,194.18,166z"/>
			</g>
		</g>
		<g>
			<g>
				<path d="M194.18,175.659h-20.091c-1.381,0-2.5-1.119-2.5-2.5s1.119-2.5,2.5-2.5h20.091c1.381,0,2.5,1.119,2.5,2.5
					S195.561,175.659,194.18,175.659z"/>
			</g>
		</g>
	</g>
</g>
<g id="Layer_76">
</g>
<g id="Layer_77">
</g>
<g id="Layer_78">
</g>
<g id="Layer_79">
</g>
<g id="Layer_80">
</g>
</svg>
