<?xml version="1.0" encoding="utf-8"?>
<!-- Generator: Adobe Illustrator 24.0.0, SVG Export Plug-In . SVG Version: 6.00 Build 0)  -->
<svg version="1.1" xmlns="http://www.w3.org/2000/svg" xmlns:xlink="http://www.w3.org/1999/xlink" x="0px" y="0px"
	 viewBox="0 0 256 256" style="enable-background:new 0 0 256 256;" xml:space="preserve">
<style type="text/css">
	.st0{fill:#3A70BF;}
	.st1{fill:#EDF4FC;}
	.st2{fill:#C7D7E5;}
	.st3{fill:#F9D0B4;}
	.st4{fill:#5B5D60;}
	.st5{fill:#5290DB;}
	.st6{fill:#70D6F9;}
	.st7{fill:#F5C84C;}
	.st8{fill:#FC657E;}
	.st9{fill:#87D147;}
	.st10{fill:#FCDD86;}
	.st11{fill:#9BE5F9;}
	.st12{fill:#B2E26D;}
	.st13{fill:#754E34;}
	.st14{fill:#FCA265;}
	.st15{fill:#818182;}
	.st16{fill:#F94EED;}
	.st17{fill:#FFC197;}
	.st18{fill:#3CAADC;}
	.st19{fill:#DAE6F1;}
	.st20{fill:#57AF12;}
	.st21{fill:#EF4460;}
	.st22{fill:#FFF0CA;}
	.st23{fill:#F98FA6;}
	.st24{fill:#EDB311;}
	.st25{fill:#FC8C48;}
	.st26{fill:#FCB9CB;}
	.st27{fill:#96BC71;}
	.st28{fill:#78A352;}
	.st29{fill:#B8DD90;}
	.st30{fill:#6FAFEF;}
	.st31{fill:#29589F;}
	.st32{fill:#414344;}
	.st33{fill:#9B6B4B;}
	.st34{fill:#73B1EF;}
</style>
<g id="Layer_1">
</g>
<g id="Layer_2">
</g>
<g id="Layer_3">
</g>
<g id="Layer_4">
</g>
<g id="Layer_5">
</g>
<g id="Layer_6">
</g>
<g id="Layer_7">
</g>
<g id="Layer_8">
</g>
<g id="Layer_9">
</g>
<g id="Layer_10">
</g>
<g id="Layer_11">
</g>
<g id="Layer_12">
</g>
<g id="Layer_13">
</g>
<g id="Layer_14">
</g>
<g id="Layer_15">
</g>
<g id="Layer_16">
</g>
<g id="Layer_17">
</g>
<g id="Layer_18">
</g>
<g id="Layer_19">
</g>
<g id="Layer_20">
</g>
<g id="Layer_21">
</g>
<g id="Layer_22">
</g>
<g id="Layer_23">
</g>
<g id="Layer_24">
</g>
<g id="Layer_25">
</g>
<g id="Layer_26">
</g>
<g id="Layer_27">
</g>
<g id="Layer_28">
</g>
<g id="Layer_29">
</g>
<g id="Layer_30">
</g>
<g id="Layer_31">
</g>
<g id="Layer_32">
</g>
<g id="Layer_33">
</g>
<g id="Layer_34">
</g>
<g id="Layer_35">
</g>
<g id="Layer_36">
</g>
<g id="Layer_37">
</g>
<g id="Layer_38">
</g>
<g id="Layer_39">
</g>
<g id="Layer_40">
</g>
<g id="Layer_41">
</g>
<g id="Layer_42">
</g>
<g id="Layer_43">
</g>
<g id="Layer_44">
</g>
<g id="Layer_45">
</g>
<g id="Layer_46">
</g>
<g id="Layer_47">
</g>
<g id="Layer_48">
</g>
<g id="Layer_49">
</g>
<g id="Layer_50">
</g>
<g id="Layer_51">
</g>
<g id="Layer_52">
</g>
<g id="Layer_53">
</g>
<g id="Layer_54">
</g>
<g id="Layer_55">
</g>
<g id="Layer_56">
</g>
<g id="Layer_57">
</g>
<g id="Layer_58">
</g>
<g id="Layer_59">
</g>
<g id="Layer_60">
</g>
<g id="Layer_61">
</g>
<g id="Layer_62">
</g>
<g id="Layer_63">
</g>
<g id="Layer_64">
</g>
<g id="Layer_65">
</g>
<g id="Layer_66">
</g>
<g id="Layer_67">
</g>
<g id="Layer_68">
</g>
<g id="Layer_69">
</g>
<g id="Layer_70">
</g>
<g id="Layer_71">
</g>
<g id="Layer_72">
</g>
<g id="Layer_73">
</g>
<g id="Layer_74">
</g>
<g id="Layer_75">
</g>
<g id="Layer_76">
	<g>
		<g>
			<g>
				<path class="st10" d="M58.867,124.533c-1.971,3.678-5.097,11.894,0.259,20.374c2.921,4.625,7.43,7.595,12.542,9.466
					c0.265-0.075,0.531-0.147,0.794-0.229l0,0c1.325-0.415,3.044-1.095,4.346-1.737c10.303-5.125,8.318-4.043,9.369-4.691l0,0
					c2.834-1.746,4.604-4.832,4.604-8.204v-10.533c-10.179-5.548-17.309-16.042-18.124-28.194c-0.756,0.122-1.526,0.202-2.316,0.202
					c-5.17,0-9.695-2.714-12.262-6.786c-2.926,5.721-6.06,15.851,0.574,26.254C59.44,121.692,59.559,123.241,58.867,124.533z"/>
			</g>
		</g>
		<g>
			<g>
				<path class="st10" d="M158.182,131.646c-0.495-3.005-1.582-5.498-2.448-7.114c-0.693-1.292-0.573-2.841,0.215-4.077
					c6.634-10.404,3.501-20.533,0.574-26.254c-2.568,4.072-7.093,6.786-12.263,6.786c-0.79,0-1.56-0.081-2.316-0.202
					c-0.816,12.152-7.945,22.646-18.124,28.194v10.533c0,3.372,1.769,6.458,4.604,8.204c1.136,0.7-0.306-0.122,9.369,4.691
					c1.302,0.642,3.02,1.321,4.346,1.736c0.263,0.083,0.529,0.154,0.794,0.229c0.537-0.197,1.064-0.413,1.587-0.634
					C146.738,145.021,151.595,137.364,158.182,131.646z"/>
			</g>
		</g>
		<g>
			<g>
				<path class="st7" d="M47.769,125.33c-4.498-0.838-8.043-4.31-8.898-8.716c-0.043-0.221-0.352-0.221-0.395,0
					c-0.855,4.406-4.4,7.879-8.898,8.716c-0.226,0.042-0.226,0.345,0,0.387c4.498,0.838,8.043,4.31,8.898,8.717
					c0.043,0.221,0.352,0.221,0.395,0c0.855-4.406,4.4-7.879,8.898-8.717C47.995,125.675,47.995,125.373,47.769,125.33z"/>
			</g>
		</g>
		<g>
			<g>
				<path class="st6" d="M168.194,25.75h2.33v-2.33c0-1.744,1.413-3.157,3.157-3.157s3.157,1.413,3.157,3.157v2.33h2.329
					c1.744,0,3.157,1.413,3.157,3.157s-1.413,3.157-3.157,3.157h-2.329v2.33c0,1.744-1.413,3.157-3.157,3.157
					s-3.157-1.413-3.157-3.157v-2.33h-2.33c-1.744,0-3.157-1.413-3.157-3.157S166.45,25.75,168.194,25.75z"/>
			</g>
		</g>
		<g>
			<g>
				<circle class="st9" cx="26.702" cy="154.825" r="3.377"/>
			</g>
		</g>
		<g>
			<g>
				<circle class="st7" cx="160.702" cy="3.377" r="3.377"/>
			</g>
		</g>
		<g>
			<g>
				<path class="st3" d="M144.261,71.985c-0.759,0-1.502,0.064-2.229,0.177c0,3.696,0,20.799,0,26.293v0v0
					c0,0.783-0.036,1.558-0.088,2.329c0.756,0.122,1.526,0.202,2.316,0.202c8.009,0,14.501-6.492,14.501-14.501
					C158.761,78.477,152.269,71.985,144.261,71.985z"/>
			</g>
		</g>
		<g>
			<g>
				<path class="st3" d="M139.896,67.75c-3.514-0.814-7.782-2.85-12.673-7.294c-0.967-0.879-2.459-0.807-3.31,0.186
					c-3.62,4.225-13.55,14.328-28.206,17.795c-2.173-1.299-4.705-2.06-7.421-2.06c-3.234,0-6.211,1.072-8.622,2.862
					c-2.296-0.299-4.66-0.773-7.095-1.467v20.684c0,19.103,15.629,34.732,34.732,34.732s34.732-15.629,34.732-34.732v-28.06
					C142.032,69.12,141.139,68.038,139.896,67.75z"/>
			</g>
		</g>
		<g>
			<g>
				<path class="st3" d="M72.569,77.771c-2.385-0.679-4.834-1.559-7.346-2.668c-1.619-0.715-3.511-0.386-4.803,0.825
					c-2.817,2.641-4.581,6.39-4.581,10.557c0,8.008,6.492,14.501,14.501,14.501c0.79,0,1.56-0.08,2.316-0.202
					c-0.052-0.771-0.088-1.546-0.088-2.329V77.771z"/>
			</g>
		</g>
		<g>
			<g>
				<path class="st10" d="M107.3,20.526c-25.976,0-47.229,21.253-47.229,47.229v8.535c0.118-0.119,0.226-0.246,0.348-0.361
					c1.291-1.211,3.183-1.54,4.803-0.825c2.512,1.109,4.961,1.989,7.346,2.668c2.435,0.694,4.799,1.168,7.095,1.467
					c2.412-1.79,5.388-2.862,8.622-2.862c2.716,0,5.248,0.76,7.421,2.06c14.656-3.467,24.586-13.57,28.206-17.795
					c0.85-0.993,2.342-1.065,3.309-0.186c4.892,4.445,9.159,6.48,12.673,7.294c1.243,0.288,2.136,1.37,2.136,2.646v1.767
					c0.727-0.113,1.47-0.177,2.229-0.177c4.012,0,7.643,1.63,10.268,4.264v-8.494C154.529,41.779,133.276,20.526,107.3,20.526z"/>
			</g>
		</g>
		<g>
			<g>
				<g>
					<path class="st19" d="M143.175,164.5c0-3.358,0.393-6.622,1.113-9.762l-0.487-0.123c-2.075-0.522-4.089-1.263-6.009-2.209
						l-8.587-4.234c-3.298-1.626-5.386-4.983-5.386-8.66v-10.533c-4.92,2.682-10.551,4.208-16.52,4.208
						c-5.97,0-11.6-1.526-16.52-4.208v10.533c0,3.677-2.088,7.034-5.386,8.66l-8.587,4.234c-1.919,0.946-3.933,1.687-6.009,2.209
						l-24.833,6.269c-6.044,1.521-10.396,6.796-10.743,13.019l-2.744,75.418c-0.127,2.269,1.68,4.179,3.953,4.179h21.99
						c1.478,0,2.677-1.198,2.677-2.677v-47.143l3.883,12.438c2.539,8.133,3.83,16.604,3.83,25.125v9.58
						c0,1.479,1.198,2.677,2.677,2.677h30.345h10.936h30.345c1.478,0,2.677-1.198,2.677-2.677v-9.58
						c0-8.521,1.291-16.991,3.83-25.125l3.883-12.438v47.143c0,1.479,1.198,2.677,2.677,2.677h21.99c2.273,0,4.079-1.91,3.953-4.179
						l-1.519-41.752C159.455,204.614,143.175,186.463,143.175,164.5z"/>
				</g>
			</g>
		</g>
		<g>
			<g>
				<g>
					<path class="st0" d="M143.175,164.5c0-3.358,0.393-6.622,1.113-9.762l-0.487-0.123c-2.075-0.522-4.089-1.263-6.009-2.209
						l-8.587-4.234c-0.274-0.135-0.526-0.298-0.782-0.457l-20.446,79.733c-0.449,1.75-0.677,3.577-0.677,5.415V253.5h5.468h30.345
						c1.478,0,2.677-1.198,2.677-2.677v-9.58c0-8.521,1.291-16.991,3.83-25.125l3.883-12.438v47.143
						c0,1.479,1.198,2.677,2.677,2.677h21.99c2.273,0,4.079-1.91,3.953-4.179l-1.519-41.752
						C159.455,204.614,143.175,186.463,143.175,164.5z"/>
				</g>
			</g>
		</g>
		<g>
			<g>
				<path class="st0" d="M86.176,147.715c-0.256,0.158-0.508,0.322-0.782,0.457l-8.587,4.234c-1.919,0.946-3.933,1.687-6.009,2.209
					l-24.833,6.269c-6.044,1.521-10.396,6.796-10.743,13.019l-2.744,75.418c-0.127,2.269,1.68,4.179,3.953,4.179h21.99
					c1.478,0,2.677-1.198,2.677-2.677v-47.143l3.883,12.439c2.539,8.133,3.83,16.604,3.83,25.124v9.58
					c0,1.478,1.198,2.677,2.677,2.677h30.345h5.468v-20.636c0-1.838-0.229-3.664-0.677-5.415L86.176,147.715z"/>
			</g>
		</g>
		<g>
			<g>
				<path class="st5" d="M135.814,174.813l7.31-3.643c0.19-0.095,0.359-0.228,0.509-0.387c-0.297-2.052-0.458-4.149-0.458-6.284
					c0-0.891,0.035-1.773,0.088-2.651l-1.125-7.706c-1.49-0.467-2.944-1.045-4.346-1.736l-8.587-4.234
					c-0.274-0.135-0.526-0.298-0.782-0.457l-20.446,79.733c-0.325,1.267-0.53,2.575-0.621,3.896l31.937-39.785
					c0.578-0.72,0.706-1.828,0.315-2.722l-4.727-10.796C134.352,176.836,134.789,175.324,135.814,174.813z"/>
			</g>
		</g>
		<g>
			<g>
				<path class="st5" d="M106.623,227.449l-20.446-79.733c-0.256,0.158-0.508,0.322-0.782,0.457l-8.587,4.234
					c-1.402,0.691-2.856,1.27-4.346,1.737l-2.114,14.487c-0.157,1.074,0.315,2.136,1.128,2.541l7.31,3.643
					c1.025,0.511,1.462,2.022,0.933,3.23l-4.727,10.796c-0.391,0.894-0.263,2.002,0.315,2.722l31.937,39.785
					C107.153,230.023,106.948,228.716,106.623,227.449z"/>
			</g>
		</g>
		<g>
			<g>
				<g>
					<path class="st1" d="M121.009,176.632l7.415-28.914c-0.383-0.243-0.753-0.503-1.099-0.79l-14.797,12.683
						c-2.171,1.861-2.738,4.996-1.331,7.486C112.969,170.233,116.054,174.231,121.009,176.632z"/>
				</g>
			</g>
		</g>
		<g>
			<g>
				<g>
					<path class="st1" d="M93.592,176.632c4.954-2.401,8.04-6.399,9.812-9.535c1.407-2.49,0.841-5.625-1.331-7.486l-14.797-12.683
						c-0.346,0.287-0.715,0.547-1.098,0.79L93.592,176.632z"/>
				</g>
			</g>
		</g>
		<g>
			<g>
				<g>
					<path class="st3" d="M87.275,146.928l14.797,12.683c1.727,1.48,2.418,3.762,1.93,5.888h6.596
						c-0.488-2.126,0.203-4.408,1.93-5.888l14.797-12.683c-2.182-1.81-3.505-4.506-3.505-7.416v-10.533
						c-4.92,2.682-10.551,4.208-16.52,4.208c-5.97,0-11.6-1.526-16.52-4.208v10.533C90.78,142.423,89.457,145.118,87.275,146.928
						L87.275,146.928z"/>
				</g>
			</g>
		</g>
		<g>
			<g>
				<path d="M107.3,117.757c-4.776,0-9.262-1.949-11.999-5.214c-0.887-1.059-0.748-2.636,0.31-3.522
					c1.059-0.887,2.635-0.748,3.522,0.31c1.798,2.146,4.852,3.427,8.167,3.427c3.315,0,6.368-1.281,8.167-3.427
					c0.886-1.058,2.463-1.196,3.522-0.31c1.058,0.888,1.196,2.464,0.309,3.522C116.562,115.808,112.076,117.757,107.3,117.757z"/>
			</g>
		</g>
		<g>
			<g>
				<path d="M144.261,103.486c-0.52,0-1.057-0.028-1.596-0.085c-1.374-0.144-2.371-1.372-2.227-2.746
					c0.143-1.373,1.367-2.38,2.746-2.227c0.368,0.038,0.73,0.058,1.078,0.058c6.617,0,12-5.383,12-12s-5.383-12.001-12-12.001
					c-0.397,0-0.806,0.021-1.215,0.064c-1.375,0.148-2.603-0.854-2.747-2.226c-0.144-1.373,0.853-2.604,2.226-2.747
					c10.122-1.061,18.736,6.965,18.736,16.909C161.261,95.86,153.635,103.486,144.261,103.486z"/>
			</g>
		</g>
		<g>
			<g>
				<path d="M107.3,135.688c-20.53,0-37.232-16.702-37.232-37.232V77.771c0-0.784,0.368-1.522,0.994-1.995
					c0.626-0.471,1.438-0.624,2.191-0.409c1.905,0.542,3.849,0.965,5.79,1.259c2.764-1.802,5.938-2.749,9.244-2.749
					c2.701,0,5.367,0.652,7.774,1.896c13.449-3.501,22.597-12.84,25.954-16.758c0.848-0.991,2.032-1.582,3.333-1.663
					c1.294-0.078,2.59,0.376,3.556,1.252c3.952,3.591,7.84,5.849,11.557,6.71l0,0c2.397,0.556,4.072,2.646,4.072,5.081v28.06
					C144.532,118.985,127.83,135.688,107.3,135.688z M75.068,80.975v17.48c0,17.773,14.459,32.232,32.232,32.232
					c17.772,0,32.231-14.459,32.231-32.232v-28.06c0-0.113-0.101-0.187-0.201-0.21c-4.515-1.046-9.108-3.656-13.656-7.759
					c-3.863,4.472-14.187,14.846-29.392,18.442c-0.634,0.148-1.3,0.046-1.859-0.287c-1.865-1.115-3.987-1.705-6.138-1.705
					c-2.577,0-5.043,0.819-7.133,2.369c-0.52,0.386-1.172,0.554-1.812,0.472C77.916,81.532,76.488,81.283,75.068,80.975z"/>
			</g>
		</g>
		<g>
			<g>
				<path d="M70.34,103.486c-9.375,0-17.001-7.626-17.001-17c0-4.668,1.958-9.181,5.371-12.382c2.03-1.902,4.983-2.41,7.522-1.288
					c2.328,1.028,4.69,1.887,7.021,2.551c1.328,0.379,2.098,1.762,1.719,3.09s-1.761,2.1-3.089,1.719
					c-2.552-0.728-5.133-1.665-7.671-2.785c-0.7-0.309-1.518-0.168-2.083,0.362c-2.445,2.292-3.791,5.394-3.791,8.733
					c0,6.617,5.384,12,12.001,12c0.318,0,0.633-0.016,0.944-0.044c1.376-0.127,2.592,0.888,2.717,2.263
					c0.125,1.375-0.888,2.591-2.263,2.716C71.277,103.463,70.812,103.486,70.34,103.486z"/>
			</g>
		</g>
		<g>
			<g>
				<path d="M60.071,78.406c-1.381,0-2.5-1.119-2.5-2.5v-8.151c0-27.421,22.308-49.729,49.729-49.729
					c27.42,0,49.729,22.309,49.729,49.729v7.808c0,1.381-1.119,2.5-2.5,2.5s-2.5-1.119-2.5-2.5v-7.808
					c0-24.664-20.065-44.729-44.729-44.729S62.571,43.091,62.571,67.755v8.151C62.571,77.287,61.452,78.406,60.071,78.406z"/>
			</g>
		</g>
		<g>
			<g>
				<g>
					<path d="M143.804,157.116c-0.202,0-0.407-0.025-0.612-0.076c-2.243-0.565-4.431-1.369-6.504-2.392l-8.587-4.234
						c-4.182-2.062-6.78-6.239-6.78-10.902v-9.758c0-1.381,1.119-2.5,2.5-2.5s2.5,1.119,2.5,2.5v9.758
						c0,2.745,1.529,5.204,3.991,6.418l8.587,4.234c1.757,0.866,3.612,1.548,5.514,2.026c1.339,0.338,2.151,1.696,1.814,3.035
						C145.94,156.359,144.922,157.116,143.804,157.116z"/>
				</g>
			</g>
			<g>
				<g>
					<path d="M178.169,256h-21.99c-2.854,0-5.177-2.322-5.177-5.177V220.35c-1.802,6.816-2.713,13.828-2.713,20.895v9.579
						c0,2.854-2.322,5.177-5.177,5.177H71.487c-2.854,0-5.177-2.322-5.177-5.177v-9.579c0-7.067-0.912-14.08-2.713-20.896v30.476
						c0,2.854-2.322,5.177-5.176,5.177h-21.99c-1.768,0-3.478-0.736-4.693-2.021c-1.214-1.284-1.855-3.033-1.756-4.798l2.742-75.37
						c0.412-7.403,5.487-13.554,12.631-15.353l24.832-6.268c1.903-0.479,3.758-1.161,5.515-2.027l8.587-4.234
						c2.462-1.214,3.991-3.673,3.991-6.418v-9.937c0-1.381,1.119-2.5,2.5-2.5s2.5,1.119,2.5,2.5v9.937
						c0,4.663-2.598,8.841-6.78,10.902l-8.587,4.234c-2.073,1.022-4.261,1.826-6.504,2.392l-24.832,6.268
						c-5.012,1.262-8.571,5.575-8.859,10.733l-2.742,75.37c-0.033,0.595,0.233,0.962,0.395,1.133c0.161,0.17,0.513,0.456,1.06,0.456
						h21.99c0.097,0,0.176-0.079,0.176-0.177v-47.143c0-1.235,0.902-2.285,2.123-2.472c1.221-0.188,2.396,0.547,2.763,1.727
						l3.883,12.438c2.617,8.383,3.944,17.087,3.944,25.87v9.579c0,0.098,0.079,0.177,0.177,0.177h71.626
						c0.098,0,0.177-0.079,0.177-0.177v-9.579c0-8.783,1.327-17.487,3.944-25.87l3.882-12.438c0.368-1.18,1.538-1.918,2.763-1.727
						c1.221,0.187,2.123,1.236,2.123,2.472v47.143c0,0.098,0.079,0.177,0.177,0.177h21.99c0.546,0,0.899-0.286,1.06-0.457
						c0.161-0.17,0.427-0.538,0.397-1.084l-1.492-40.984c-0.05-1.38,1.028-2.539,2.408-2.589c1.354-0.067,2.539,1.027,2.589,2.407
						l1.49,40.937c0.096,1.717-0.544,3.466-1.759,4.75C181.647,255.264,179.937,256,178.169,256z"/>
				</g>
			</g>
		</g>
		<g>
			<g>
				<path d="M107.3,255.126c-1.381,0-2.5-1.119-2.5-2.5v-19.763c0-1.631-0.202-3.243-0.599-4.793l-20.28-79.086
					c-0.343-1.338,0.463-2.7,1.801-3.043c1.34-0.339,2.7,0.464,3.043,1.801l20.28,79.086c0.501,1.955,0.755,3.986,0.755,6.035
					v19.763C109.8,254.007,108.681,255.126,107.3,255.126z"/>
			</g>
		</g>
		<g>
			<g>
				<path d="M107.3,200.274c-1.381,0-2.5-1.119-2.5-2.5v-21.36c0-1.381,1.119-2.5,2.5-2.5s2.5,1.119,2.5,2.5v21.36
					C109.8,199.155,108.681,200.274,107.3,200.274z"/>
			</g>
		</g>
		<g>
			<g>
				<path class="st8" d="M192.815,97.101c-2.862-0.533-5.118-2.743-5.663-5.547c-0.027-0.141-0.224-0.141-0.251,0
					c-0.544,2.804-2.8,5.014-5.663,5.547c-0.144,0.027-0.144,0.219,0,0.246c2.862,0.533,5.118,2.743,5.663,5.547
					c0.027,0.141,0.224,0.141,0.251,0c0.544-2.804,2.8-5.014,5.663-5.547C192.959,97.32,192.959,97.128,192.815,97.101z"/>
			</g>
		</g>
		<g>
			<g>
				<path d="M107.356,233.846c-0.305,0-0.613-0.056-0.909-0.172c-1.018-0.397-1.659-1.409-1.584-2.499
					c0.102-1.487,0.335-2.95,0.693-4.347l20.282-79.092c0.343-1.337,1.704-2.139,3.043-1.801c1.337,0.343,2.144,1.705,1.801,3.043
					l-18.583,72.467l25.246-31.45c-0.007-0.002-0.004-0.104-0.025-0.153l-4.727-10.796c-1.075-2.453-0.129-5.355,2.108-6.47
					l7.31-3.643c1.236-0.616,2.737-0.114,3.353,1.122s0.113,2.737-1.123,3.353l-7.083,3.53c0,0.036,0.003,0.074,0.016,0.102
					l4.727,10.796c0.77,1.76,0.513,3.836-0.656,5.29l-31.937,39.785C108.821,233.515,108.098,233.846,107.356,233.846z"/>
			</g>
		</g>
		<g>
			<g>
				<path d="M106.903,233.419c-0.732,0-1.457-0.319-1.951-0.935l-31.595-39.358c-1.168-1.454-1.425-3.53-0.655-5.29l4.727-10.796
					c0.012-0.027,0.016-0.065,0.016-0.102l-7.083-3.53c-1.777-0.885-2.8-2.999-2.487-5.14l2.033-13.927
					c0.199-1.366,1.468-2.312,2.834-2.112c1.367,0.199,2.313,1.469,2.113,2.835l-2.033,13.927c-0.003,0.02-0.004,0.038-0.003,0.055
					l7.083,3.53c2.237,1.114,3.183,4.017,2.108,6.47l-4.727,10.796c-0.021,0.049-0.018,0.151,0,0.192l31.569,39.319
					c0.864,1.077,0.692,2.65-0.385,3.515C108.005,233.239,107.453,233.419,106.903,233.419z M72.833,169.137h0.01H72.833z"/>
			</g>
		</g>
		<g>
			<g>
				<g>
					<path d="M120.175,178.705c-0.403,0-0.812-0.097-1.19-0.303c-5.092-2.765-8.229-7.005-9.964-10.074
						c-1.986-3.516-1.195-7.979,1.88-10.615l14.294-12.252c1.048-0.896,2.628-0.776,3.525,0.271
						c0.899,1.048,0.777,2.627-0.271,3.525l-14.294,12.252c-1.266,1.085-1.595,2.918-0.781,4.358
						c1.413,2.499,3.947,5.941,7.997,8.14c1.213,0.659,1.663,2.177,1.004,3.39C121.922,178.232,121.063,178.705,120.175,178.705z"/>
				</g>
			</g>
		</g>
		<g>
			<g>
				<g>
					<path d="M94.028,178.916c-0.907,0-1.781-0.495-2.225-1.356c-0.632-1.228-0.149-2.735,1.079-3.367
						c4.243-2.185,6.88-5.732,8.345-8.325c0.813-1.439,0.484-3.272-0.782-4.357L86.12,149.23c-1.048-0.898-1.17-2.478-0.271-3.525
						c0.898-1.05,2.477-1.169,3.525-0.271l14.326,12.279c3.075,2.637,3.866,7.1,1.881,10.614c-1.801,3.187-5.068,7.561-10.41,10.311
						C94.805,178.826,94.414,178.916,94.028,178.916z"/>
				</g>
			</g>
		</g>
		<g>
			<g>
				<g>
					<path d="M109.833,168h-5.208c-1.381,0-2.5-1.119-2.5-2.5s1.119-2.5,2.5-2.5h5.208c1.381,0,2.5,1.119,2.5,2.5
						S111.213,168,109.833,168z"/>
				</g>
			</g>
		</g>
		<g>
			<g>
				<path d="M158.099,133.692c-1.18,0-2.229-0.838-2.454-2.04c-0.475-2.534-1.412-4.628-2.115-5.938
					c-1.098-2.051-0.979-4.581,0.311-6.604c5.68-8.906,3.495-17.622,0.661-23.364c-0.611-1.238-0.102-2.737,1.136-3.349
					c1.239-0.609,2.737-0.101,3.348,1.136c2.785,5.646,6.367,16.823-0.93,28.265c-0.324,0.508-0.368,1.089-0.119,1.554
					c0.869,1.62,2.029,4.217,2.622,7.38c0.254,1.356-0.64,2.663-1.997,2.917C158.407,133.679,158.252,133.692,158.099,133.692z"/>
			</g>
		</g>
		<g>
			<g>
				<path d="M70.886,156.576c-0.305,0-0.614-0.057-0.915-0.175c-5.774-2.271-10.135-5.688-12.959-10.16
					c-6.16-9.753-2.296-19.257-0.349-22.89c0.249-0.464,0.204-1.045-0.12-1.553c-7.287-11.427-3.72-22.593-0.945-28.231
					c0.61-1.239,2.108-1.75,3.347-1.14c1.239,0.609,1.749,2.108,1.139,3.347c-2.823,5.736-4.997,14.442,0.675,23.337
					c1.29,2.023,1.409,4.553,0.311,6.602c-1.905,3.554-4.416,10.6,0.169,17.858c2.244,3.553,5.797,6.304,10.562,8.178
					c1.285,0.505,1.917,1.956,1.412,3.241C72.826,155.975,71.883,156.576,70.886,156.576z"/>
			</g>
		</g>
		<g>
			<g>
				<circle cx="122.411" cy="90.5" r="4.5"/>
			</g>
		</g>
		<g>
			<g>
				<circle cx="92.19" cy="90.5" r="4.5"/>
			</g>
		</g>
		<g>
			<g>
				<path d="M114.397,94.577c-0.714,0-1.422-0.304-1.917-0.894c-1.127-1.344-3.064-2.146-5.18-2.146
					c-2.117,0-4.053,0.803-5.18,2.146c-0.887,1.058-2.463,1.197-3.522,0.31c-1.058-0.888-1.197-2.464-0.31-3.522
					c2.065-2.463,5.434-3.934,9.012-3.934c3.577,0,6.945,1.471,9.011,3.934c0.887,1.058,0.749,2.635-0.309,3.522
					C115.534,94.386,114.964,94.577,114.397,94.577z"/>
			</g>
		</g>
		<g>
			<g>
				<path d="M88.286,107.873c-9.373,0-16.998-7.625-16.998-16.998s7.625-16.998,16.998-16.998s16.998,7.625,16.998,16.998
					S97.659,107.873,88.286,107.873z M88.286,78.877c-6.616,0-11.998,5.382-11.998,11.998s5.382,11.998,11.998,11.998
					s11.998-5.382,11.998-11.998S94.902,78.877,88.286,78.877z"/>
			</g>
		</g>
		<g>
			<g>
				<path d="M126.314,107.873c-9.373,0-16.999-7.625-16.999-16.998s7.625-16.998,16.999-16.998c9.373,0,16.998,7.625,16.998,16.998
					S135.687,107.873,126.314,107.873z M126.314,78.877c-6.616,0-11.999,5.382-11.999,11.998s5.382,11.998,11.999,11.998
					c6.616,0,11.998-5.382,11.998-11.998S132.93,78.877,126.314,78.877z"/>
			</g>
		</g>
		<g>
			<g>
				<path class="st6" d="M186.675,121c-24.024,0-43.5,19.476-43.5,43.5s19.476,43.5,43.5,43.5s43.5-19.476,43.5-43.5
					S210.7,121,186.675,121z M186.675,193.75c-16.154,0-29.25-13.096-29.25-29.25s13.096-29.25,29.25-29.25
					s29.25,13.096,29.25,29.25S202.83,193.75,186.675,193.75z"/>
			</g>
		</g>
		<g>
			<g>
				<circle class="st1" cx="186.675" cy="164.5" r="29.25"/>
			</g>
		</g>
		<g>
			<g>
				<path class="st8" d="M215.925,164.5c0,7.362-2.726,14.084-7.216,19.226l10.708,9.396c6.694-7.65,10.759-17.659,10.759-28.623
					c0-11.697-4.625-22.307-12.135-30.124l-10.255,9.889C212.823,149.52,215.925,156.646,215.925,164.5z"/>
			</g>
		</g>
		<g>
			<g>
				<path class="st7" d="M186.8,121.003v14.25c8.25,0.035,15.688,3.487,20.985,9.011l10.255-9.889
					C210.151,126.165,199.078,121.038,186.8,121.003z"/>
			</g>
		</g>
		<g>
			<g>
				<path d="M186.675,210.5c-25.364,0-46-20.636-46-46s20.636-46,46-46s46,20.636,46,46S212.04,210.5,186.675,210.5z M186.675,123.5
					c-22.607,0-41,18.393-41,41s18.393,41,41,41s41-18.393,41-41S209.283,123.5,186.675,123.5z"/>
			</g>
		</g>
		<g>
			<g>
				<path d="M218.618,194.923c-0.585,0-1.173-0.204-1.648-0.621l-9.365-8.218c-1.038-0.91-1.141-2.49-0.23-3.528
					c0.91-1.036,2.489-1.142,3.528-0.229l9.365,8.218c1.038,0.91,1.141,2.49,0.23,3.528
					C220.004,194.635,219.313,194.923,218.618,194.923z"/>
			</g>
		</g>
		<g>
			<g>
				<path d="M208.456,146.118c-0.655,0-1.31-0.256-1.8-0.765c-0.958-0.994-0.929-2.576,0.064-3.535l8.875-8.558
					c0.995-0.959,2.577-0.93,3.535,0.064c0.958,0.994,0.929,2.576-0.064,3.535l-8.875,8.558
					C209.705,145.886,209.08,146.118,208.456,146.118z"/>
			</g>
		</g>
		<g>
			<g>
				<path d="M186.8,136.876c-1.381,0-2.5-1.119-2.5-2.5v-12.668c0-1.381,1.119-2.5,2.5-2.5s2.5,1.119,2.5,2.5v12.668
					C189.3,135.757,188.181,136.876,186.8,136.876z"/>
			</g>
		</g>
		<g>
			<g>
				<path d="M186.675,196.25c-17.507,0-31.75-14.243-31.75-31.75s14.243-31.75,31.75-31.75s31.75,14.243,31.75,31.75
					S204.182,196.25,186.675,196.25z M186.675,137.75c-14.75,0-26.75,12-26.75,26.75s12,26.75,26.75,26.75s26.75-12,26.75-26.75
					S201.425,137.75,186.675,137.75z"/>
			</g>
		</g>
		<g>
			<g>
				<path d="M190.602,156.341h-7.512c-1.381,0-2.5-1.119-2.5-2.5s1.119-2.5,2.5-2.5h7.512c1.381,0,2.5,1.119,2.5,2.5
					S191.983,156.341,190.602,156.341z"/>
			</g>
		</g>
		<g>
			<g>
				<path d="M196.892,166h-20.091c-1.381,0-2.5-1.119-2.5-2.5s1.119-2.5,2.5-2.5h20.091c1.381,0,2.5,1.119,2.5,2.5
					S198.272,166,196.892,166z"/>
			</g>
		</g>
		<g>
			<g>
				<path d="M196.892,175.659h-20.091c-1.381,0-2.5-1.119-2.5-2.5s1.119-2.5,2.5-2.5h20.091c1.381,0,2.5,1.119,2.5,2.5
					S198.272,175.659,196.892,175.659z"/>
			</g>
		</g>
	</g>
</g>
<g id="Layer_77">
</g>
<g id="Layer_78">
</g>
<g id="Layer_79">
</g>
<g id="Layer_80">
</g>
</svg>
