<?xml version="1.0" encoding="utf-8"?>
<!-- Generator: Adobe Illustrator 24.0.0, SVG Export Plug-In . SVG Version: 6.00 Build 0)  -->
<svg version="1.1" xmlns="http://www.w3.org/2000/svg" xmlns:xlink="http://www.w3.org/1999/xlink" x="0px" y="0px"
	 viewBox="0 0 256 256" style="enable-background:new 0 0 256 256;" xml:space="preserve">
<style type="text/css">
	.st0{fill:#3A70BF;}
	.st1{fill:#EDF4FC;}
	.st2{fill:#C7D7E5;}
	.st3{fill:#F9D0B4;}
	.st4{fill:#5B5D60;}
	.st5{fill:#5290DB;}
	.st6{fill:#70D6F9;}
	.st7{fill:#F5C84C;}
	.st8{fill:#FC657E;}
	.st9{fill:#87D147;}
	.st10{fill:#FCDD86;}
	.st11{fill:#9BE5F9;}
	.st12{fill:#B2E26D;}
	.st13{fill:#754E34;}
	.st14{fill:#FCA265;}
	.st15{fill:#818182;}
	.st16{fill:#F94EED;}
	.st17{fill:#FFC197;}
	.st18{fill:#3CAADC;}
	.st19{fill:#DAE6F1;}
	.st20{fill:#57AF12;}
	.st21{fill:#EF4460;}
	.st22{fill:#FFF0CA;}
	.st23{fill:#F98FA6;}
	.st24{fill:#EDB311;}
	.st25{fill:#FC8C48;}
	.st26{fill:#FCB9CB;}
	.st27{fill:#96BC71;}
	.st28{fill:#78A352;}
	.st29{fill:#B8DD90;}
	.st30{fill:#6FAFEF;}
	.st31{fill:#29589F;}
	.st32{fill:#414344;}
	.st33{fill:#9B6B4B;}
	.st34{fill:#73B1EF;}
</style>
<g id="Layer_1">
</g>
<g id="Layer_2">
</g>
<g id="Layer_3">
</g>
<g id="Layer_4">
</g>
<g id="Layer_5">
</g>
<g id="Layer_6">
</g>
<g id="Layer_7">
</g>
<g id="Layer_8">
</g>
<g id="Layer_9">
</g>
<g id="Layer_10">
</g>
<g id="Layer_11">
</g>
<g id="Layer_12">
</g>
<g id="Layer_13">
</g>
<g id="Layer_14">
</g>
<g id="Layer_15">
</g>
<g id="Layer_16">
</g>
<g id="Layer_17">
	<g>
		<g>
			<g>
				<g>
					<path class="st20" d="M108.888,216.654c0.148,0.463,0.263,0.935,0.363,1.409c0.021,0.099,0.04,0.199,0.058,0.299
						c0.089,0.471,0.16,0.945,0.201,1.423c0,0,0,0,0,0.001l0,0c0.035,0.405,0.056,0.812,0.056,1.22c0-0.408,0.021-0.815,0.056-1.22
						l0,0c0,0,0,0,0,0c0.041-0.478,0.112-0.952,0.201-1.423c0.019-0.1,0.038-0.199,0.058-0.299c0.1-0.474,0.215-0.946,0.363-1.409
						l21.039-65.86c-2.856-2.409-4.572-5.982-4.572-9.822v-6.335c-5.268,2.868-11.296,4.501-17.686,4.501h0
						c-5.959,0-11.597-1.427-16.604-3.945v5.778c0,3.84-1.716,7.412-4.572,9.822L108.888,216.654z"/>
				</g>
			</g>
		</g>
		<g>
			<g>
				<g>
					<path class="st3" d="M126.14,74.878c-3.119,5.979-9.365,10.066-16.574,10.066S96.11,80.857,92.992,74.878H71.81v27.045
						c0,20.468,16.747,37.215,37.215,37.215h0c20.468,0,37.215-16.747,37.215-37.215V74.878H126.14z"/>
				</g>
			</g>
		</g>
		<g>
			<g>
				<g>
					<path class="st4" d="M92.992,57.622c3.119-5.978,9.365-10.066,16.574-10.066s13.456,4.088,16.574,10.066h33.264v-7.648
						c0-11.692-9.566-21.258-21.258-21.258c-3.966,0-7.673,1.121-10.859,3.031c-3.722-6.211-10.502-10.405-18.23-10.405H98.141
						c-20.411,0-37.233,16.135-38.351,36.28H92.992z"/>
				</g>
			</g>
		</g>
		<g>
			<g>
				<path class="st3" d="M154.876,74.878h-8.637c0,5.515,0,21.599,0,27.045c0,0.839-0.038,1.67-0.094,2.496
					c0.81,0.13,1.635,0.217,2.482,0.217c8.581,0,15.537-6.956,15.537-15.537C164.165,82.742,160.344,77.285,154.876,74.878z"/>
			</g>
		</g>
		<g>
			<g>
				<path class="st3" d="M71.81,74.878h-8.637c-5.467,2.406-9.289,7.863-9.289,14.22c0,8.581,6.956,15.537,15.538,15.537
					c0.847,0,1.672-0.086,2.482-0.217v-0.001c-0.055-0.826-0.094-1.656-0.094-2.495C71.81,98.246,71.81,82.939,71.81,74.878z"/>
			</g>
		</g>
		<g>
			<g>
				<circle class="st1" cx="109.566" cy="66.25" r="18.695"/>
			</g>
		</g>
		<g>
			<g>
				<path class="st0" d="M90.871,66.25c0-3.115,0.773-6.045,2.12-8.628H59.493c-1.467,0-2.656,1.189-2.656,2.656v11.945
					c0,1.467,1.189,2.656,2.656,2.656h33.498C91.644,72.295,90.871,69.365,90.871,66.25z"/>
			</g>
		</g>
		<g>
			<g>
				<path class="st0" d="M159.638,57.622H126.14c1.347,2.583,2.12,5.513,2.12,8.628c0,3.115-0.773,6.045-2.12,8.628h33.498
					c1.467,0,2.656-1.189,2.656-2.656V60.278C162.294,58.811,161.105,57.622,159.638,57.622z"/>
			</g>
		</g>
		<g>
			<g>
				<path class="st13" d="M216.436,143.5h-21.985c0.165,0.462,0.271,0.951,0.271,1.47v7.142c0,2.427-1.967,4.394-4.394,4.394
					h-18.522c-2.427,0-4.394-1.967-4.394-4.394v-7.142c0-0.518,0.106-1.008,0.271-1.47h-21.985c-4.747,0-8.63,3.884-8.63,8.63
					v92.739c0,4.747,3.884,8.63,8.63,8.63h70.739c4.747,0,8.63-3.884,8.63-8.63V152.13C225.066,147.384,221.182,143.5,216.436,143.5
					z"/>
			</g>
		</g>
		<g>
			<g>
				<path class="st5" d="M190.327,140.575h-18.522c-2.427,0-4.394,1.967-4.394,4.394v7.142c0,2.427,1.967,4.394,4.394,4.394h18.522
					c2.427,0,4.394-1.967,4.394-4.394v-7.142C194.721,142.543,192.754,140.575,190.327,140.575z"/>
			</g>
		</g>
		<g>
			<g>
				<circle class="st0" cx="109.566" cy="66.25" r="9.108"/>
			</g>
		</g>
		<g>
			<g>
				<path class="st19" d="M137.066,244.87v-90.797l-3.184-1.57c-0.947-0.467-1.813-1.047-2.599-1.709l-21.039,65.86
					c-0.449,1.407-0.678,2.875-0.678,4.352V253.5h36.13C140.95,253.5,137.066,249.616,137.066,244.87z"/>
			</g>
		</g>
		<g>
			<g>
				<path class="st19" d="M109.566,221.006c0-1.477-0.229-2.945-0.678-4.352l-21.039-65.86c-0.785,0.662-1.652,1.242-2.599,1.709
					l-10.215,5.037l-28.902,7.275c-6.233,1.569-10.721,7.008-11.078,13.425l-4.115,70.951c-0.13,2.34,1.732,4.31,4.076,4.31h74.549
					V221.006z"/>
			</g>
		</g>
		<g>
			<g>
				<path class="st1" d="M137.066,154.073l-3.184-1.57c-0.947-0.467-1.814-1.047-2.599-1.709l-21.039,65.86
					c-0.325,1.018-0.531,2.069-0.622,3.132l27.444-27.444V154.073z"/>
			</g>
		</g>
		<g>
			<g>
				<path class="st1" d="M73.699,171.423l7.319,2.928c1.026,0.411,1.464,1.625,0.934,2.596l-4.733,8.677
					c-0.392,0.718-0.264,1.609,0.315,2.187l31.975,31.975c-0.091-1.063-0.297-2.113-0.622-3.132l-21.039-65.86
					c-0.785,0.662-1.652,1.242-2.599,1.709l-10.215,5.037l-0.328,0.083l-2.138,11.759C72.412,170.243,72.885,171.097,73.699,171.423
					z"/>
			</g>
		</g>
		<g>
			<g>
				<g>
					<path class="st3" d="M113.774,161.422l14.195-14.922c-0.811-1.696-1.258-3.576-1.258-5.528v-6.335
						c-5.268,2.868-11.296,4.501-17.686,4.501h0c-5.959,0-11.597-1.427-16.604-3.945v5.778c0,1.951-0.447,3.832-1.258,5.528
						l14.195,14.922c0.417,0.438,0.603,1.01,0.573,1.573c1.022,0.086,2.051,0.143,3.094,0.143h0c1.411,0,2.796-0.104,4.167-0.26
						C113.193,162.354,113.387,161.83,113.774,161.422z"/>
				</g>
			</g>
		</g>
		<g>
			<g>
				<path class="st0" d="M109.881,218.063c0.1-0.474,0.215-0.946,0.363-1.409l8.2-25.671l-3.858-19.808
					c-1.467,0.886-3.181,1.406-5.021,1.406s-3.553-0.519-5.021-1.406l-3.858,19.808l8.2,25.671c0.148,0.463,0.263,0.935,0.363,1.409
					c0.021,0.099,0.04,0.199,0.058,0.299c0.089,0.471,0.16,0.945,0.201,1.423c0,0,0,0,0,0.001c0.035,0.405,0.056,0.812,0.056,1.22
					c0-0.408,0.021-0.815,0.056-1.22c0,0,0,0,0,0c0.041-0.478,0.112-0.952,0.201-1.423
					C109.842,218.262,109.861,218.162,109.881,218.063z"/>
			</g>
		</g>
		<g>
			<g>
				<path class="st9" d="M127.969,146.5l-14.195,14.922c-0.77,0.81-0.78,2.078-0.022,2.899l8.157,8.837
					c0.535,0.58,1.291,0.802,2.006,0.697l7.367-23.061C129.878,149.609,128.753,148.141,127.969,146.5z"/>
			</g>
		</g>
		<g>
			<g>
				<path class="st9" d="M91.163,146.5c-0.785,1.641-1.909,3.109-3.314,4.294l7.367,23.061c0.715,0.105,1.471-0.117,2.006-0.697
					l8.157-8.837c0.758-0.821,0.748-2.089-0.022-2.899L91.163,146.5z"/>
			</g>
		</g>
		<g>
			<g>
				<g>
					<path class="st0" d="M113.753,164.321c-0.376-0.408-0.562-0.926-0.561-1.443v0c-1.371,0.155-2.756,0.26-4.167,0.26h0
						c-1.043,0-2.072-0.058-3.094-0.143c-0.025,0.478-0.203,0.949-0.551,1.326l-3.784,4.1c1.76,2.513,4.67,4.161,7.971,4.161
						s6.211-1.647,7.971-4.161L113.753,164.321z"/>
				</g>
			</g>
		</g>
		<g>
			<g>
				<path class="st10" d="M215.066,226.941v-72.72c0-0.398-0.323-0.721-0.721-0.721h-19.869c-0.583,1.742-2.21,3.006-4.149,3.006
					h-18.522c-1.939,0-3.566-1.264-4.149-3.006h-19.869c-0.398,0-0.721,0.323-0.721,0.721v88.557c0,0.398,0.323,0.721,0.721,0.721
					h50.72L215.066,226.941z"/>
			</g>
		</g>
		<g>
			<g>
				<path class="st22" d="M215.066,226.941h-15.838c-0.398,0-0.721,0.323-0.721,0.721V243.5L215.066,226.941z"/>
			</g>
		</g>
		<g>
			<g>
				<path class="st1" d="M196.596,180.17c-5.344-6.012-10.862-3.558-13.659-1.579c-1.124,0.795-2.617,0.795-3.742,0
					c-2.797-1.979-8.315-4.433-13.659,1.579c-6.492,7.304,0.49,17.565,3.379,21.202c0.663,0.834,0.898,1.936,0.621,2.965
					c-2.274,8.452,2.364,13.543,5.795,16.032c1.004,0.728,2.368-0.209,2.022-1.4c-1.807-6.21,0.126-9.675,1.81-11.392
					c1.053-1.073,2.753-1.073,3.806,0c1.684,1.717,3.617,5.182,1.81,11.392c-0.346,1.191,1.018,2.128,2.022,1.4
					c3.431-2.49,8.07-7.58,5.795-16.032c-0.277-1.029-0.042-2.131,0.621-2.965C196.105,197.735,203.088,187.474,196.596,180.17z"/>
			</g>
		</g>
		<g>
			<g>
				<path d="M58.021,255.04c-1.381,0-2.5-1.119-2.5-2.5v-56.644c0-1.381,1.119-2.5,2.5-2.5s2.5,1.119,2.5,2.5v56.644
					C60.521,253.92,59.402,255.04,58.021,255.04z"/>
			</g>
		</g>
		<g>
			<g>
				<g>
					<path d="M109.566,223.506c-1.381,0-2.5-1.119-2.5-2.5c0-0.337-0.019-0.673-0.047-1.007c-0.031-0.354-0.085-0.739-0.167-1.176
						l-0.05-0.256c-0.095-0.452-0.19-0.822-0.295-1.153l-21.039-65.859c-0.308-0.964-0.004-2.019,0.769-2.671
						c2.341-1.976,3.684-4.859,3.684-7.911v-5.779c0-0.867,0.45-1.673,1.188-2.128c0.738-0.456,1.66-0.496,2.435-0.105
						c4.855,2.44,10.063,3.678,15.481,3.678c5.745,0,11.447-1.451,16.491-4.197c0.775-0.421,1.714-0.404,2.472,0.046
						c0.758,0.451,1.223,1.268,1.223,2.149v6.335c0,3.053,1.343,5.936,3.684,7.911c0.774,0.652,1.078,1.707,0.77,2.671
						l-21.039,65.86c-0.107,0.334-0.201,0.704-0.297,1.162l-0.047,0.241c-0.083,0.442-0.137,0.827-0.168,1.182
						c-0.028,0.334-0.047,0.67-0.047,1.007C112.066,222.387,110.947,223.506,109.566,223.506z M90.708,151.529l18.857,59.032
						l18.857-59.032c-2.695-2.839-4.212-6.602-4.212-10.557v-2.372c-4.798,1.996-9.977,3.038-15.186,3.038
						c-4.877,0-9.604-0.875-14.104-2.607v1.941C94.921,144.927,93.403,148.689,90.708,151.529z"/>
				</g>
			</g>
		</g>
		<g>
			<g>
				<g>
					<path d="M109.025,141.638c-21.899,0-39.715-17.816-39.715-39.715v-26.11c0-1.381,1.119-2.5,2.5-2.5s2.5,1.119,2.5,2.5v26.11
						c0,19.142,15.573,34.715,34.715,34.715c19.142,0,34.715-15.573,34.715-34.715V75.667c0-1.381,1.119-2.5,2.5-2.5
						s2.5,1.119,2.5,2.5v26.257C148.74,123.822,130.924,141.638,109.025,141.638z"/>
				</g>
			</g>
		</g>
		<g>
			<g>
				<g>
					<path d="M59.849,59.286c-0.065,0-0.13-0.002-0.196-0.007c-1.376-0.107-2.406-1.309-2.3-2.686
						c1.639-21.169,19.555-37.751,40.788-37.751h10.916c7.481,0,14.582,3.641,19.048,9.638c3.15-1.487,6.579-2.264,10.042-2.264
						c13.1,0,23.758,10.658,23.758,23.758v6.651c0,1.381-1.119,2.5-2.5,2.5s-2.5-1.119-2.5-2.5v-6.651
						c0-10.343-8.415-18.758-18.758-18.758c-3.345,0-6.655,0.925-9.574,2.675c-0.568,0.341-1.251,0.44-1.893,0.281
						c-0.643-0.161-1.196-0.571-1.537-1.14c-3.396-5.668-9.56-9.19-16.086-9.19H98.141c-18.638,0-34.364,14.556-35.802,33.137
						C62.237,58.29,61.142,59.286,59.849,59.286z"/>
				</g>
			</g>
		</g>
		<g>
			<g>
				<path d="M148.628,107.136c-0.66,0-1.332-0.043-2.054-0.131c-1.371-0.167-2.345-1.415-2.178-2.785
					c0.167-1.37,1.416-2.349,2.785-2.178c0.519,0.063,0.992,0.094,1.447,0.094c7.189,0,13.038-5.849,13.038-13.038
					c0-5.087-2.997-9.743-7.636-11.86c-1.256-0.573-1.81-2.057-1.236-3.313c0.574-1.255,2.058-1.809,3.313-1.236
					c6.415,2.928,10.56,9.369,10.56,16.409C166.666,99.044,158.574,107.136,148.628,107.136z"/>
			</g>
		</g>
		<g>
			<g>
				<path d="M69.422,107.136c-9.946,0-18.038-8.092-18.038-18.038c0-6.991,4.104-13.414,10.457-16.361
					c1.25-0.582,2.739-0.038,3.32,1.215c0.582,1.252,0.037,2.739-1.215,3.32c-4.593,2.132-7.561,6.773-7.561,11.826
					c0,7.189,5.849,13.038,13.038,13.038c0.408,0,0.827-0.024,1.28-0.075c1.38-0.149,2.608,0.837,2.76,2.209
					s-0.837,2.608-2.209,2.76C70.614,107.102,70.016,107.136,69.422,107.136z"/>
			</g>
		</g>
		<g>
			<g>
				<path d="M109.566,118.573c-4.776,0-9.262-1.95-11.999-5.215c-0.887-1.058-0.748-2.635,0.31-3.522
					c1.06-0.887,2.636-0.747,3.522,0.31c1.798,2.146,4.852,3.427,8.167,3.427s6.369-1.281,8.167-3.426
					c0.888-1.058,2.464-1.197,3.522-0.31s1.197,2.464,0.31,3.522C118.828,116.624,114.342,118.573,109.566,118.573z"/>
			</g>
		</g>
		<g>
			<g>
				<circle cx="126.355" cy="90.816" r="5"/>
			</g>
		</g>
		<g>
			<g>
				<circle cx="92.776" cy="90.816" r="5"/>
			</g>
		</g>
		<g>
			<g>
				<path d="M109.566,87.444c-11.687,0-21.194-9.508-21.194-21.194s9.508-21.194,21.194-21.194s21.194,9.508,21.194,21.194
					S121.252,87.444,109.566,87.444z M109.566,50.056c-8.93,0-16.194,7.265-16.194,16.194s7.265,16.194,16.194,16.194
					S125.76,75.18,125.76,66.25S118.496,50.056,109.566,50.056z"/>
			</g>
		</g>
		<g>
			<g>
				<path d="M92.313,77.378H59.494c-2.843,0-5.156-2.313-5.156-5.156V60.277c0-2.843,2.313-5.156,5.156-5.156h32.944
					c1.381,0,2.5,1.119,2.5,2.5s-1.119,2.5-2.5,2.5H59.494c-0.086,0-0.156,0.07-0.156,0.156v11.945c0,0.086,0.07,0.156,0.156,0.156
					h32.819c1.381,0,2.5,1.119,2.5,2.5S93.694,77.378,92.313,77.378z"/>
			</g>
		</g>
		<g>
			<g>
				<path d="M159.638,77.378h-32.992c-1.381,0-2.5-1.119-2.5-2.5s1.119-2.5,2.5-2.5h32.992c0.086,0,0.156-0.07,0.156-0.156V60.277
					c0-0.086-0.07-0.156-0.156-0.156h-32.68c-1.381,0-2.5-1.119-2.5-2.5s1.119-2.5,2.5-2.5h32.68c2.843,0,5.156,2.313,5.156,5.156
					v11.945C164.794,75.065,162.481,77.378,159.638,77.378z"/>
			</g>
		</g>
		<g>
			<g>
				<path d="M216.436,256h-70.739c-6.137,0-11.13-4.993-11.13-11.13V152.13c0-6.137,4.993-11.13,11.13-11.13h21.533
					c1.381,0,2.5,1.119,2.5,2.5s-1.119,2.5-2.5,2.5h-21.533c-3.38,0-6.13,2.75-6.13,6.13v92.739c0,3.38,2.75,6.13,6.13,6.13h70.739
					c3.38,0,6.13-2.75,6.13-6.13V152.13c0-3.38-2.75-6.13-6.13-6.13H195.5c-1.381,0-2.5-1.119-2.5-2.5s1.119-2.5,2.5-2.5h20.936
					c6.137,0,11.13,4.993,11.13,11.13v92.739C227.566,251.007,222.573,256,216.436,256z"/>
			</g>
		</g>
		<g>
			<g>
				<path d="M190.327,159.006h-18.521c-3.802,0-6.895-3.093-6.895-6.894v-7.143c0-3.802,3.093-6.895,6.895-6.895h18.521
					c3.802,0,6.895,3.093,6.895,6.895v7.143C197.221,155.914,194.128,159.006,190.327,159.006z M171.805,143.075
					c-1.044,0-1.895,0.85-1.895,1.895v7.143c0,1.044,0.85,1.894,1.895,1.894h18.521c1.044,0,1.895-0.85,1.895-1.894v-7.143
					c0-1.044-0.85-1.895-1.895-1.895H171.805z"/>
			</g>
		</g>
		<g>
			<g>
				<path d="M186.158,142.042c-1.381,0-2.5-1.119-2.5-2.5v-3.267c0-1.429-1.163-2.592-2.592-2.592s-2.592,1.163-2.592,2.592v3.225
					c0,1.381-1.119,2.5-2.5,2.5s-2.5-1.119-2.5-2.5v-3.225c0-4.187,3.406-7.592,7.592-7.592s7.592,3.406,7.592,7.592v3.267
					C188.658,140.923,187.539,142.042,186.158,142.042z"/>
			</g>
		</g>
		<g>
			<g>
				<path d="M204.466,168.041h-5c-1.381,0-2.5-1.119-2.5-2.5s1.119-2.5,2.5-2.5h5c1.381,0,2.5,1.119,2.5,2.5
					S205.847,168.041,204.466,168.041z"/>
			</g>
		</g>
		<g>
			<g>
				<path class="st7" d="M189.822,26.33c-4.498-0.838-8.043-4.31-8.898-8.716c-0.043-0.221-0.352-0.221-0.395,0
					c-0.855,4.406-4.4,7.879-8.898,8.716c-0.226,0.042-0.226,0.345,0,0.387c4.498,0.838,8.043,4.31,8.898,8.717
					c0.043,0.221,0.352,0.221,0.395,0c0.855-4.406,4.4-7.879,8.898-8.717C190.047,26.675,190.047,26.373,189.822,26.33z"/>
			</g>
		</g>
		<g>
			<g>
				<path class="st8" d="M184.515,112.101c-2.862-0.533-5.118-2.743-5.663-5.547c-0.027-0.141-0.224-0.141-0.251,0
					c-0.544,2.804-2.8,5.014-5.663,5.547c-0.144,0.027-0.144,0.219,0,0.246c2.862,0.533,5.118,2.743,5.663,5.547
					c0.027,0.141,0.224,0.141,0.251,0c0.544-2.804,2.8-5.014,5.663-5.547C184.658,112.32,184.658,112.128,184.515,112.101z"/>
			</g>
		</g>
		<g>
			<g>
				<path class="st7" d="M42.246,119.75h2.33v-2.33c0-1.744,1.413-3.157,3.157-3.157c1.744,0,3.157,1.413,3.157,3.157v2.33h2.329
					c1.744,0,3.157,1.413,3.157,3.157s-1.413,3.157-3.157,3.157h-2.329v2.33c0,1.744-1.413,3.157-3.157,3.157
					c-1.744,0-3.157-1.413-3.157-3.157v-2.33h-2.33c-1.744,0-3.157-1.413-3.157-3.157S40.502,119.75,42.246,119.75z"/>
			</g>
		</g>
		<g>
			<g>
				<circle class="st6" cx="30.755" cy="146.825" r="3.377"/>
			</g>
		</g>
		<g>
			<g>
				<circle class="st9" cx="159.755" cy="3.377" r="3.377"/>
			</g>
		</g>
		<g>
			<g>
				<path d="M109.566,77.857c-6.4,0-11.607-5.207-11.607-11.607s5.207-11.607,11.607-11.607s11.607,5.207,11.607,11.607
					S115.966,77.857,109.566,77.857z M109.566,59.643c-3.644,0-6.607,2.964-6.607,6.607s2.964,6.607,6.607,6.607
					s6.607-2.964,6.607-6.607S113.209,59.643,109.566,59.643z"/>
			</g>
		</g>
		<g>
			<g>
				<path d="M145.696,256h-36.13c-1.381,0-2.5-1.119-2.5-2.5v-32.494c0-1.739,0.268-3.459,0.797-5.113l21.039-65.859
					c0.254-0.794,0.887-1.41,1.689-1.642c0.803-0.229,1.665-0.047,2.303,0.491c0.658,0.554,1.362,1.018,2.093,1.378l2.735,1.349
					c1.238,0.61,1.748,2.109,1.137,3.348c-0.61,1.238-2.109,1.748-3.348,1.137l-2.734-1.348c-0.038-0.019-0.076-0.038-0.113-0.056
					l-20.038,62.726c-0.371,1.162-0.56,2.37-0.56,3.591V251h33.63c1.381,0,2.5,1.119,2.5,2.5S147.077,256,145.696,256z"/>
			</g>
		</g>
		<g>
			<g>
				<path d="M109.566,256H35.017c-1.802,0-3.545-0.75-4.783-2.06c-1.238-1.309-1.89-3.09-1.79-4.889l4.115-70.957
					c0.42-7.545,5.63-13.859,12.964-15.705l28.644-7.209l9.977-4.919c0.732-0.361,1.436-0.825,2.094-1.378
					c1.056-0.891,2.632-0.755,3.522,0.301c0.89,1.056,0.755,2.633-0.301,3.522c-0.966,0.814-2.011,1.5-3.105,2.04l-10.214,5.036
					c-0.158,0.078-0.324,0.139-0.495,0.182l-28.901,7.274c-5.2,1.309-8.895,5.786-9.193,11.14l-4.115,70.957
					c-0.024,0.433,0.129,0.851,0.431,1.17c0.302,0.319,0.711,0.495,1.15,0.495h74.549c1.381,0,2.5,1.119,2.5,2.5
					S110.947,256,109.566,256z"/>
			</g>
		</g>
		<g>
			<g>
				<path d="M110.068,221.839c-0.64,0-1.28-0.244-1.768-0.732c-0.977-0.976-0.977-2.559,0-3.535l26.37-26.37
					c0.976-0.977,2.56-0.977,3.535,0c0.977,0.976,0.977,2.559,0,3.535l-26.37,26.37
					C111.348,221.595,110.708,221.839,110.068,221.839z"/>
			</g>
		</g>
		<g>
			<g>
				<path d="M109.51,222.286c-0.649,0-1.289-0.253-1.768-0.732l-31.975-31.975c-1.354-1.354-1.659-3.473-0.742-5.153l4.378-8.028
					l-6.634-2.653c-1.909-0.764-3.028-2.787-2.661-4.811l1.94-10.669c0.247-1.358,1.547-2.261,2.907-2.012
					c1.358,0.247,2.259,1.548,2.012,2.907l-1.844,10.142l6.822,2.729c1.152,0.461,2.054,1.395,2.474,2.563
					c0.42,1.167,0.32,2.462-0.274,3.551l-4.498,8.246l24.9,24.9l-18.712-58.579c-0.42-1.315,0.305-2.722,1.621-3.142
					c1.316-0.422,2.722,0.305,3.142,1.621l20.669,64.703c0.377,1.181,0.623,2.419,0.731,3.679c0.09,1.046-0.484,2.037-1.436,2.48
					C110.227,222.209,109.867,222.286,109.51,222.286z"/>
			</g>
		</g>
		<g>
			<g>
				<g>
					<path d="M109.025,165.638c-1.016,0-2.065-0.048-3.303-0.152c-1.292-0.108-2.278-1.183-2.292-2.462l-14.079-14.801
						c-0.714-0.751-0.891-1.866-0.444-2.801c0.672-1.407,1.013-2.904,1.013-4.449v-4.535c0-1.381,1.119-2.5,2.5-2.5
						s2.5,1.119,2.5,2.5v4.535c0,1.708-0.279,3.375-0.833,4.975l13.081,13.751c0.263,0.277,0.488,0.584,0.672,0.915
						c1.197,0.049,2.242,0.028,3.483-0.067c0.178-0.303,0.391-0.586,0.638-0.846l13.082-13.753c-0.553-1.6-0.833-3.267-0.833-4.975
						v-5.264c0-1.381,1.119-2.5,2.5-2.5s2.5,1.119,2.5,2.5v5.264c0,1.545,0.341,3.042,1.013,4.449
						c0.447,0.936,0.271,2.05-0.444,2.801l-14.094,14.816c-0.077,1.201-1.004,2.187-2.214,2.323
						C111.835,165.548,110.38,165.638,109.025,165.638z"/>
				</g>
			</g>
		</g>
		<g>
			<g>
				<path d="M118.317,192.843c-1.172,0-2.218-0.829-2.451-2.022l-3.586-18.415c-0.264-1.355,0.621-2.668,1.976-2.932
					c1.355-0.264,2.667,0.621,2.932,1.976l3.586,18.415c0.264,1.355-0.621,2.668-1.976,2.932
					C118.636,192.828,118.476,192.843,118.317,192.843z"/>
			</g>
		</g>
		<g>
			<g>
				<path d="M100.83,192.767c-0.159,0-0.319-0.015-0.481-0.046c-1.355-0.264-2.24-1.577-1.976-2.932l3.572-18.342
					c0.264-1.355,1.574-2.241,2.932-1.976c1.355,0.264,2.24,1.577,1.976,2.932l-3.572,18.342
					C103.048,191.938,102.001,192.767,100.83,192.767z"/>
			</g>
		</g>
		<g>
			<g>
				<path d="M123.348,176.369c-0.082,0-0.164-0.004-0.247-0.012c-1.164-0.114-2.24-0.648-3.029-1.504l-8.156-8.835
					c-1.646-1.784-1.625-4.559,0.047-6.318l13.54-14.234c0.952-1,2.535-1.039,3.535-0.088c1,0.952,1.04,2.534,0.088,3.535
					l-13.294,13.976l7.851,8.504c1.326,0.179,2.283,1.378,2.151,2.721C125.707,175.404,124.619,176.369,123.348,176.369z"/>
			</g>
		</g>
		<g>
			<g>
				<path d="M96.068,176.324c-1.143,0-2.174-0.788-2.436-1.95c-0.298-1.319,0.507-2.631,1.807-2.97l7.862-8.518l-13.419-14.106
					c-0.952-1-0.912-2.583,0.088-3.535c1.001-0.952,2.583-0.912,3.535,0.088l13.664,14.364c1.673,1.76,1.693,4.535,0.047,6.318
					l-8.157,8.836c-0.654,0.709-1.498,1.196-2.438,1.408C96.436,176.304,96.25,176.324,96.068,176.324z"/>
			</g>
		</g>
		<g>
			<g>
				<g>
					<path d="M109.566,175.081c-3.639,0-7.063-1.608-9.397-4.412c-0.883-1.062-0.739-2.638,0.323-3.521
						c1.061-0.884,2.637-0.738,3.521,0.323c1.38,1.659,3.404,2.61,5.553,2.61c2.118,0,4.123-0.929,5.5-2.547
						c0.896-1.052,2.474-1.178,3.524-0.284c1.052,0.895,1.179,2.473,0.284,3.524C116.544,173.511,113.152,175.081,109.566,175.081z"
						/>
				</g>
			</g>
		</g>
		<g>
			<g>
				<path d="M198.507,246h-50.72c-1.776,0-3.221-1.445-3.221-3.221v-88.558c0-1.776,1.445-3.221,3.221-3.221h19.119
					c1.381,0,2.5,1.119,2.5,2.5s-1.119,2.5-2.5,2.5h-17.34v85h47.905l15.095-15.095V156h-17.148c-1.381,0-2.5-1.119-2.5-2.5
					s1.119-2.5,2.5-2.5h18.927c1.776,0,3.221,1.445,3.221,3.221v72.72c0,0.663-0.263,1.299-0.732,1.768l-16.559,16.559
					C199.806,245.737,199.17,246,198.507,246z"/>
			</g>
		</g>
		<g>
			<g>
				<path d="M198.507,245.25c-1.381,0-2.5-1.119-2.5-2.5v-15.088c0-1.776,1.445-3.221,3.221-3.221h15.396c1.381,0,2.5,1.119,2.5,2.5
					s-1.119,2.5-2.5,2.5h-13.617v13.309C201.007,244.131,199.888,245.25,198.507,245.25z"/>
			</g>
		</g>
		<g>
			<g>
				<path d="M176.104,223.12c-0.787,0-1.573-0.243-2.241-0.728c-3.679-2.67-9.447-8.65-6.741-18.706
					c0.07-0.259,0.008-0.543-0.164-0.76c-7.386-9.298-8.616-18.426-3.29-24.418c4.771-5.368,11.116-6.101,16.971-1.959
					c0.261,0.184,0.596,0.184,0.854,0c5.855-4.141,12.201-3.409,16.971,1.959c5.326,5.991,4.096,15.119-3.29,24.417
					c-0.173,0.218-0.234,0.502-0.165,0.761c2.706,10.056-3.062,16.036-6.741,18.706c-1.319,0.958-3.101,0.971-4.434,0.034
					c-1.344-0.946-1.916-2.578-1.456-4.156c1.134-3.897,0.721-6.99-1.195-8.942c-0.047-0.048-0.189-0.047-0.236,0
					c-1.916,1.953-2.329,5.045-1.195,8.943c0.459,1.578-0.112,3.21-1.456,4.156C177.639,222.889,176.871,223.12,176.104,223.12z
					 M172.936,178.862c-2.893,0-4.751,2.091-5.531,2.968c-5.157,5.802,0.707,14.511,3.468,17.986
					c1.154,1.453,1.557,3.386,1.077,5.169c-1.331,4.946,0.132,8.525,2.269,11.009c-0.548-5.38,1.624-8.602,3.16-10.168
					c0.983-1.002,2.292-1.554,3.688-1.554s2.705,0.552,3.688,1.554c1.537,1.566,3.708,4.788,3.16,10.168
					c2.136-2.484,3.6-6.063,2.269-11.009c-0.48-1.783-0.077-3.716,1.078-5.169c2.76-3.475,8.624-12.185,3.467-17.985v0
					c-1.149-1.293-4.648-5.229-10.347-1.199c-1.981,1.403-4.646,1.402-6.628,0C175.917,179.334,174.31,178.862,172.936,178.862z"/>
			</g>
		</g>
	</g>
</g>
<g id="Layer_18">
</g>
<g id="Layer_19">
</g>
<g id="Layer_20">
</g>
<g id="Layer_21">
</g>
<g id="Layer_22">
</g>
<g id="Layer_23">
</g>
<g id="Layer_24">
</g>
<g id="Layer_25">
</g>
<g id="Layer_26">
</g>
<g id="Layer_27">
</g>
<g id="Layer_28">
</g>
<g id="Layer_29">
</g>
<g id="Layer_30">
</g>
<g id="Layer_31">
</g>
<g id="Layer_32">
</g>
<g id="Layer_33">
</g>
<g id="Layer_34">
</g>
<g id="Layer_35">
</g>
<g id="Layer_36">
</g>
<g id="Layer_37">
</g>
<g id="Layer_38">
</g>
<g id="Layer_39">
</g>
<g id="Layer_40">
</g>
<g id="Layer_41">
</g>
<g id="Layer_42">
</g>
<g id="Layer_43">
</g>
<g id="Layer_44">
</g>
<g id="Layer_45">
</g>
<g id="Layer_46">
</g>
<g id="Layer_47">
</g>
<g id="Layer_48">
</g>
<g id="Layer_49">
</g>
<g id="Layer_50">
</g>
<g id="Layer_51">
</g>
<g id="Layer_52">
</g>
<g id="Layer_53">
</g>
<g id="Layer_54">
</g>
<g id="Layer_55">
</g>
<g id="Layer_56">
</g>
<g id="Layer_57">
</g>
<g id="Layer_58">
</g>
<g id="Layer_59">
</g>
<g id="Layer_60">
</g>
<g id="Layer_61">
</g>
<g id="Layer_62">
</g>
<g id="Layer_63">
</g>
<g id="Layer_64">
</g>
<g id="Layer_65">
</g>
<g id="Layer_66">
</g>
<g id="Layer_67">
</g>
<g id="Layer_68">
</g>
<g id="Layer_69">
</g>
<g id="Layer_70">
</g>
<g id="Layer_71">
</g>
<g id="Layer_72">
</g>
<g id="Layer_73">
</g>
<g id="Layer_74">
</g>
<g id="Layer_75">
</g>
<g id="Layer_76">
</g>
<g id="Layer_77">
</g>
<g id="Layer_78">
</g>
<g id="Layer_79">
</g>
<g id="Layer_80">
</g>
</svg>
