<?xml version="1.0" encoding="utf-8"?>
<!-- Generator: Adobe Illustrator 24.0.0, SVG Export Plug-In . SVG Version: 6.00 Build 0)  -->
<svg version="1.1" xmlns="http://www.w3.org/2000/svg" xmlns:xlink="http://www.w3.org/1999/xlink" x="0px" y="0px"
	 viewBox="0 0 256 256" style="enable-background:new 0 0 256 256;" xml:space="preserve">
<style type="text/css">
	.st0{fill:#3A70BF;}
	.st1{fill:#EDF4FC;}
	.st2{fill:#C7D7E5;}
	.st3{fill:#F9D0B4;}
	.st4{fill:#5B5D60;}
	.st5{fill:#5290DB;}
	.st6{fill:#70D6F9;}
	.st7{fill:#F5C84C;}
	.st8{fill:#FC657E;}
	.st9{fill:#87D147;}
	.st10{fill:#FCDD86;}
	.st11{fill:#9BE5F9;}
	.st12{fill:#B2E26D;}
	.st13{fill:#754E34;}
	.st14{fill:#FCA265;}
	.st15{fill:#818182;}
	.st16{fill:#F94EED;}
	.st17{fill:#FFC197;}
	.st18{fill:#3CAADC;}
	.st19{fill:#DAE6F1;}
	.st20{fill:#57AF12;}
	.st21{fill:#EF4460;}
	.st22{fill:#FFF0CA;}
	.st23{fill:#F98FA6;}
	.st24{fill:#EDB311;}
	.st25{fill:#FC8C48;}
	.st26{fill:#FCB9CB;}
	.st27{fill:#96BC71;}
	.st28{fill:#78A352;}
	.st29{fill:#B8DD90;}
	.st30{fill:#6FAFEF;}
	.st31{fill:#29589F;}
	.st32{fill:#414344;}
	.st33{fill:#9B6B4B;}
	.st34{fill:#73B1EF;}
</style>
<g id="Layer_1">
</g>
<g id="Layer_2">
</g>
<g id="Layer_3">
</g>
<g id="Layer_4">
</g>
<g id="Layer_5">
</g>
<g id="Layer_6">
</g>
<g id="Layer_7">
</g>
<g id="Layer_8">
</g>
<g id="Layer_9">
</g>
<g id="Layer_10">
</g>
<g id="Layer_11">
</g>
<g id="Layer_12">
</g>
<g id="Layer_13">
</g>
<g id="Layer_14">
</g>
<g id="Layer_15">
</g>
<g id="Layer_16">
</g>
<g id="Layer_17">
</g>
<g id="Layer_18">
	<g>
		<g>
			<g>
				<path class="st3" d="M153.289,74.878h-10.893c0,6.175,0,18.965,0,23.577v0v0c0,0.783-0.036,1.558-0.088,2.329
					c0.756,0.122,1.526,0.202,2.316,0.202c8.009,0,14.501-6.492,14.501-14.501C159.125,81.73,156.826,77.523,153.289,74.878z"/>
			</g>
		</g>
		<g>
			<g>
				<path class="st3" d="M72.933,98.455L72.933,98.455c0-4.612,0-17.402,0-23.577H62.039c-3.537,2.644-5.836,6.852-5.836,11.608
					c0,8.009,6.492,14.501,14.501,14.501c0.79,0,1.56-0.08,2.316-0.202C72.968,100.014,72.933,99.239,72.933,98.455L72.933,98.455z"
					/>
			</g>
		</g>
		<g>
			<g>
				<g>
					<path class="st3" d="M124.239,74.878c-3.119,5.979-9.365,10.066-16.574,10.066S94.209,80.857,91.09,74.878H72.932v23.577
						c0,19.102,15.629,34.732,34.732,34.732c19.102,0,34.732-15.629,34.732-34.732V74.878H124.239z"/>
				</g>
			</g>
		</g>
		<g>
			<g>
				<path class="st3" d="M135.164,244.87V152.13c0-0.393,0.036-0.777,0.087-1.157l-5.682-2.802c-3.298-1.626-5.386-4.984-5.386-8.66
					v-10.533c-4.92,2.682-10.551,4.208-16.52,4.208c-5.97,0-11.6-1.526-16.52-4.208v10.533c0,3.677-2.088,7.034-5.386,8.66
					l-8.587,4.234c-1.919,0.946-3.933,1.687-6.009,2.209l-24.833,6.269c-6.044,1.521-10.396,6.796-10.743,13.019l-2.744,75.418
					c-0.127,2.269,1.68,4.179,3.953,4.179h21.99c1.478,0,2.677-1.198,2.677-2.677v-47.143l3.883,12.439
					c2.539,8.133,3.83,16.604,3.83,25.124v9.58c0,1.478,1.198,2.677,2.677,2.677h30.345h10.936h30.345
					c0.036,0,0.07-0.009,0.107-0.011C138.934,253.375,135.164,249.545,135.164,244.87z"/>
			</g>
		</g>
		<g>
			<g>
				<path class="st4" d="M143.795,143.5h10.23c-0.676-12.376-7.086-24.822-1.944-44.594c-2.181,1.312-4.725,2.08-7.455,2.08
					c-0.79,0-1.56-0.08-2.316-0.202c-0.816,12.152-7.945,22.647-18.124,28.194v10.533c0,3.372,1.769,6.458,4.604,8.204
					c0.379,0.234,3.291,1.757,6.459,3.288C135.805,146.785,139.431,143.5,143.795,143.5z"/>
			</g>
		</g>
		<g>
			<g>
				<path class="st4" d="M63.249,98.906c2.181,1.312,4.725,2.08,7.455,2.08c0.79,0,1.56-0.08,2.316-0.202
					c0.816,12.152,7.945,22.647,18.124,28.194v10.533c0,3.372-1.769,6.458-4.604,8.204l0,0c-0.703,0.433-10.09,5.292-13.714,6.427
					l0,0c-0.55,0.172-1.104,0.332-1.663,0.473l-7.803,1.97C56.172,138.842,70.164,125.5,63.249,98.906z"/>
			</g>
		</g>
		<g>
			<g>
				<circle class="st1" cx="107.664" cy="66.25" r="18.695"/>
			</g>
		</g>
		<g>
			<g>
				<path class="st0" d="M88.97,66.25c0-3.115,0.773-6.045,2.12-8.628H57.592c-1.467,0-2.656,1.189-2.656,2.656v11.945
					c0,1.467,1.189,2.656,2.656,2.656H91.09C89.742,72.295,88.97,69.365,88.97,66.25z"/>
			</g>
		</g>
		<g>
			<g>
				<path class="st0" d="M157.737,57.622h-33.498c1.347,2.583,2.12,5.513,2.12,8.628c0,3.115-0.773,6.045-2.12,8.628h33.498
					c1.467,0,2.656-1.189,2.656-2.656V60.278C160.393,58.811,159.203,57.622,157.737,57.622z"/>
			</g>
		</g>
		<g>
			<g>
				<path class="st4" d="M140.365,35.867c-0.74-0.247-1.376-0.725-1.784-1.389c-2.789-4.537-15.909-22.222-46.416-12.977
					C69.78,28.283,63.966,46.559,62.537,57.622H91.09c3.119-5.978,9.365-10.066,16.574-10.066s13.456,4.088,16.574,10.066h30.927
					C154.794,51.508,152.453,39.903,140.365,35.867z"/>
			</g>
		</g>
		<g>
			<g>
				<path class="st13" d="M214.534,143.5h-21.985c0.165,0.462,0.271,0.951,0.271,1.47v7.142c0,2.427-1.967,4.394-4.394,4.394
					h-18.522c-2.427,0-4.394-1.967-4.394-4.394v-7.142c0-0.518,0.106-1.008,0.271-1.47h-21.985c-4.747,0-8.63,3.884-8.63,8.63
					v92.739c0,4.747,3.884,8.63,8.63,8.63h70.739c4.747,0,8.63-3.884,8.63-8.63V152.13C223.164,147.384,219.281,143.5,214.534,143.5
					z"/>
			</g>
		</g>
		<g>
			<g>
				<path class="st5" d="M188.425,140.575h-18.522c-2.427,0-4.394,1.967-4.394,4.394v7.142c0,2.427,1.967,4.394,4.394,4.394h18.522
					c2.427,0,4.394-1.967,4.394-4.394v-7.142C192.819,142.543,190.852,140.575,188.425,140.575z"/>
			</g>
		</g>
		<g>
			<g>
				<path class="st10" d="M213.164,226.941v-72.72c0-0.398-0.323-0.721-0.721-0.721h-19.869c-0.583,1.742-2.21,3.006-4.149,3.006
					h-18.522c-1.939,0-3.566-1.264-4.149-3.006h-19.869c-0.398,0-0.721,0.323-0.721,0.721v88.557c0,0.398,0.323,0.721,0.721,0.721
					h50.72L213.164,226.941z"/>
			</g>
		</g>
		<g>
			<g>
				<path class="st22" d="M213.164,226.941h-15.838c-0.398,0-0.721,0.323-0.721,0.721V243.5L213.164,226.941z"/>
			</g>
		</g>
		<g>
			<g>
				<path class="st1" d="M194.694,180.17c-5.344-6.012-10.862-3.558-13.659-1.579c-1.124,0.795-2.617,0.795-3.742,0
					c-2.797-1.979-8.315-4.433-13.659,1.579c-6.492,7.304,0.49,17.565,3.379,21.202c0.663,0.834,0.898,1.936,0.621,2.965
					c-2.274,8.452,2.364,13.543,5.795,16.032c1.004,0.728,2.368-0.209,2.022-1.4c-1.807-6.21,0.126-9.675,1.81-11.392
					c1.053-1.073,2.753-1.073,3.806,0c1.684,1.717,3.617,5.182,1.81,11.392c-0.346,1.191,1.018,2.128,2.022,1.4
					c3.431-2.49,8.07-7.58,5.795-16.032c-0.277-1.029-0.042-2.131,0.621-2.965C194.204,197.735,201.186,187.474,194.694,180.17z"/>
			</g>
		</g>
		<g>
			<g>
				<path class="st19" d="M135.164,244.87V152.13c0-0.393,0.036-0.777,0.087-1.157l-5.682-2.802
					c-0.274-0.135-0.526-0.299-0.782-0.457l-20.446,79.734c-0.449,1.75-0.677,3.577-0.677,5.415V253.5h5.468h30.345
					c0.036,0,0.07-0.009,0.107-0.011C138.934,253.375,135.164,249.545,135.164,244.87z"/>
			</g>
		</g>
		<g>
			<g>
				<path class="st19" d="M86.54,147.715c-0.256,0.158-0.508,0.322-0.782,0.457l-8.587,4.234c-1.919,0.946-3.933,1.687-6.009,2.209
					l-24.833,6.269c-6.044,1.521-10.396,6.796-10.743,13.019l-2.744,75.418c-0.127,2.269,1.68,4.179,3.953,4.179h21.99
					c1.478,0,2.677-1.198,2.677-2.677v-47.143l3.883,12.439c2.539,8.133,3.83,16.604,3.83,25.124v9.58
					c0,1.478,1.198,2.677,2.677,2.677h30.345h5.468v-20.636c0-1.838-0.229-3.664-0.677-5.415L86.54,147.715z"/>
			</g>
		</g>
		<g>
			<g>
				<path class="st1" d="M135.164,152.13c0-0.393,0.036-0.777,0.087-1.157l-5.682-2.802c-0.274-0.135-0.526-0.299-0.782-0.457
					l-20.446,79.733c-0.325,1.267-0.53,2.574-0.621,3.897l27.444-34.187V152.13z"/>
			</g>
		</g>
		<g>
			<g>
				<path class="st1" d="M106.987,227.449L86.54,147.715c-0.256,0.158-0.508,0.322-0.782,0.457l-8.587,4.234
					c-1.402,0.691-2.856,1.27-4.346,1.737l-2.114,14.487c-0.157,1.074,0.315,2.136,1.128,2.541l7.31,3.643
					c1.025,0.511,1.462,2.022,0.933,3.23l-4.727,10.796c-0.391,0.894-0.263,2.002,0.315,2.722l31.937,39.785
					C107.517,230.023,107.312,228.716,106.987,227.449z"/>
			</g>
		</g>
		<g>
			<g>
				<path class="st9" d="M106.987,227.449c0.148,0.576,0.263,1.163,0.362,1.753c0.021,0.124,0.04,0.248,0.059,0.373
					c0.089,0.586,0.16,1.176,0.201,1.771v0l0,0c0.035,0.504,0.056,1.011,0.056,1.518c0-0.508,0.021-1.014,0.056-1.518l0,0v0
					c0.041-0.595,0.112-1.185,0.201-1.771c0.019-0.125,0.038-0.248,0.059-0.373c0.1-0.59,0.215-1.177,0.362-1.753l15.02-58.572
					c-4.525,2.921-9.91,4.623-15.697,4.623c-5.787,0-11.172-1.703-15.697-4.623L106.987,227.449z"/>
			</g>
		</g>
		<g>
			<g>
				<circle class="st0" cx="107.664" cy="66.25" r="9.108"/>
			</g>
		</g>
		<g>
			<g>
				<path d="M144.625,103.487c-0.494,0-0.994-0.025-1.527-0.078c-1.374-0.135-2.378-1.358-2.243-2.732
					c0.135-1.375,1.348-2.38,2.733-2.243c0.341,0.033,0.687,0.054,1.037,0.054c6.617,0,12-5.384,12-12.001
					c0-3.607-1.613-6.993-4.427-9.289c-1.07-0.873-1.229-2.448-0.357-3.518c0.872-1.069,2.447-1.23,3.518-0.356
					c3.982,3.25,6.267,8.047,6.267,13.163C161.625,95.86,153.999,103.487,144.625,103.487z"/>
			</g>
		</g>
		<g>
			<g>
				<path d="M70.704,103.487c-9.374,0-17-7.626-17-17.001c0-4.995,2.196-9.719,6.025-12.961c1.055-0.893,2.632-0.761,3.523,0.292
					c0.893,1.054,0.762,2.631-0.292,3.523c-2.705,2.291-4.256,5.624-4.256,9.146c0,6.617,5.383,12.001,12,12.001
					c0.383,0,0.78-0.024,1.213-0.073c1.378-0.161,2.61,0.831,2.766,2.202c0.156,1.372-0.83,2.61-2.202,2.766
					C71.858,103.453,71.277,103.487,70.704,103.487z"/>
			</g>
		</g>
		<g>
			<g>
				<g>
					<path d="M107.664,135.687c-20.529,0-37.231-16.702-37.231-37.232v-22.33c0-1.381,1.119-2.5,2.5-2.5s2.5,1.119,2.5,2.5v22.33
						c0,17.773,14.459,32.232,32.231,32.232s32.231-14.459,32.231-32.232v-22.33c0-1.381,1.119-2.5,2.5-2.5s2.5,1.119,2.5,2.5v22.33
						C144.896,118.985,128.193,135.687,107.664,135.687z"/>
				</g>
			</g>
		</g>
		<g>
			<g>
				<path d="M134.756,153.23c-0.371,0-0.748-0.083-1.104-0.258l-5.188-2.558c-4.182-2.062-6.78-6.239-6.78-10.902v-9.345
					c0-1.381,1.119-2.5,2.5-2.5s2.5,1.119,2.5,2.5v9.345c0,2.745,1.529,5.204,3.991,6.418l5.188,2.558
					c1.238,0.611,1.747,2.109,1.137,3.348C136.564,152.718,135.678,153.23,134.756,153.23z"/>
			</g>
		</g>
		<g>
			<g>
				<path d="M143.478,256H71.851c-2.854,0-5.177-2.322-5.177-5.177v-9.58c0-7.066-0.912-14.079-2.713-20.896v30.475
					c0,2.854-2.322,5.177-5.177,5.177h-21.99c-1.768,0-3.478-0.737-4.693-2.021c-1.214-1.284-1.854-3.033-1.756-4.797l2.742-75.37
					c0.412-7.403,5.487-13.554,12.631-15.352l24.832-6.268c1.903-0.479,3.758-1.161,5.515-2.027l8.587-4.234
					c2.462-1.214,3.991-3.673,3.991-6.418v-9.595c0-1.381,1.119-2.5,2.5-2.5s2.5,1.119,2.5,2.5v9.595
					c0,4.663-2.598,8.84-6.78,10.902l-8.587,4.234c-2.072,1.022-4.26,1.826-6.503,2.391l-24.832,6.268
					c-5.012,1.262-8.571,5.575-8.859,10.734l-2.742,75.37c-0.033,0.594,0.233,0.961,0.395,1.132S36.249,251,36.795,251h21.99
					c0.098,0,0.177-0.079,0.177-0.177v-47.143c0-1.235,0.902-2.285,2.123-2.472c1.22-0.184,2.396,0.548,2.763,1.727l3.883,12.438
					c2.617,8.384,3.944,17.088,3.944,25.87v9.58c0,0.098,0.079,0.177,0.177,0.177h71.499c0.044-0.004,0.089-0.007,0.133-0.009
					c1.408-0.049,2.544,1.018,2.6,2.397c0.054,1.33-0.941,2.459-2.25,2.589C143.714,255.992,143.598,256,143.478,256z"/>
			</g>
		</g>
		<g>
			<g>
				<path d="M107.664,117.757c-4.776,0-9.262-1.95-11.999-5.215c-0.887-1.058-0.748-2.635,0.31-3.522
					c1.059-0.887,2.635-0.747,3.522,0.31c1.798,2.146,4.852,3.427,8.167,3.427c3.315,0,6.369-1.281,8.167-3.427
					c0.887-1.058,2.463-1.197,3.522-0.31c1.058,0.887,1.197,2.464,0.31,3.522C116.926,115.808,112.44,117.757,107.664,117.757z"/>
			</g>
		</g>
		<g>
			<g>
				<circle cx="122.775" cy="90.5" r="4.5"/>
			</g>
		</g>
		<g>
			<g>
				<circle cx="92.554" cy="90.5" r="4.5"/>
			</g>
		</g>
		<g>
			<g>
				<path d="M153.973,145.242c-1.298,0-2.395-1.003-2.49-2.318c-0.247-3.383-0.927-6.851-1.646-10.523
					c-1.798-9.175-3.836-19.574-0.316-33.576c0.337-1.34,1.698-2.151,3.034-1.815c1.339,0.337,2.151,1.695,1.815,3.034
					c-3.247,12.918-1.324,22.734,0.373,31.396c0.749,3.825,1.457,7.438,1.726,11.122c0.101,1.377-0.935,2.575-2.312,2.675
					C154.096,145.24,154.034,145.242,153.973,145.242z"/>
			</g>
		</g>
		<g>
			<g>
				<path d="M62.94,157.987c-1.024,0-1.985-0.634-2.352-1.653c-3.165-8.788-1.631-16.613-0.006-24.898
					c1.694-8.64,3.615-18.433,0.398-31.306c-0.335-1.339,0.479-2.697,1.819-3.031c1.335-0.336,2.696,0.479,3.031,1.819
					c3.487,13.954,1.452,24.327-0.342,33.48c-1.553,7.917-2.894,14.754-0.197,22.241c0.468,1.299-0.206,2.731-1.505,3.199
					C63.507,157.939,63.221,157.987,62.94,157.987z"/>
			</g>
		</g>
		<g>
			<g>
				<path d="M107.664,87.444c-11.687,0-21.194-9.508-21.194-21.194s9.508-21.194,21.194-21.194c11.687,0,21.195,9.508,21.195,21.194
					S119.351,87.444,107.664,87.444z M107.664,50.056c-8.93,0-16.194,7.265-16.194,16.194s7.265,16.194,16.194,16.194
					s16.195-7.265,16.195-16.194S116.594,50.056,107.664,50.056z"/>
			</g>
		</g>
		<g>
			<g>
				<path d="M90,77.378H57.592c-2.843,0-5.156-2.313-5.156-5.156V60.277c0-2.843,2.313-5.156,5.156-5.156h32.825
					c1.381,0,2.5,1.119,2.5,2.5s-1.119,2.5-2.5,2.5H57.592c-0.086,0-0.156,0.07-0.156,0.156v11.945c0,0.086,0.07,0.156,0.156,0.156
					H90c1.381,0,2.5,1.119,2.5,2.5S91.381,77.378,90,77.378z"/>
			</g>
		</g>
		<g>
			<g>
				<path d="M157.736,77.378h-32.882c-1.381,0-2.5-1.119-2.5-2.5s1.119-2.5,2.5-2.5h32.882c0.086,0,0.156-0.07,0.156-0.156V60.277
					c0-0.086-0.07-0.156-0.156-0.156h-32.517c-1.381,0-2.5-1.119-2.5-2.5s1.119-2.5,2.5-2.5h32.517c2.843,0,5.156,2.313,5.156,5.156
					v11.945C162.893,75.065,160.579,77.378,157.736,77.378z"/>
			</g>
		</g>
		<g>
			<g>
				<path d="M62.628,59.469c-0.116,0-0.234-0.008-0.353-0.025c-1.367-0.193-2.319-1.458-2.125-2.826
					c1.547-10.937,7.669-30.353,31.289-37.511c13.609-4.125,25.545-3.624,35.473,1.49c8.019,4.13,12.321,10.167,13.799,12.57
					c0.114,0.186,0.306,0.281,0.445,0.328c12.964,4.329,15.865,16.322,16.44,23.086c0.117,1.376-0.903,2.586-2.279,2.703
					c-1.371,0.112-2.586-0.903-2.703-2.279c-1.042-12.26-7.668-16.973-13.042-18.768c-1.311-0.438-2.419-1.309-3.121-2.452
					c-3.051-4.962-15.208-20.487-43.562-11.893C72.976,29.927,66.787,45.4,65.101,57.318C64.924,58.567,63.854,59.468,62.628,59.469
					z"/>
			</g>
		</g>
		<g>
			<g>
				<path d="M184.257,142.375c-1.381,0-2.5-1.119-2.5-2.5v-3.6c0-1.429-1.163-2.592-2.593-2.592c-1.429,0-2.592,1.163-2.592,2.592
					v3.506c0,1.381-1.119,2.5-2.5,2.5s-2.5-1.119-2.5-2.5v-3.506c0-4.187,3.405-7.592,7.592-7.592s7.593,3.406,7.593,7.592v3.6
					C186.757,141.256,185.638,142.375,184.257,142.375z"/>
			</g>
		</g>
		<g>
			<g>
				<path d="M202.564,168.041h-5c-1.381,0-2.5-1.119-2.5-2.5s1.119-2.5,2.5-2.5h5c1.381,0,2.5,1.119,2.5,2.5
					S203.945,168.041,202.564,168.041z"/>
			</g>
		</g>
		<g>
			<g>
				<path class="st8" d="M51.822,117.33c-4.498-0.838-8.043-4.31-8.898-8.716c-0.043-0.221-0.352-0.221-0.395,0
					c-0.855,4.406-4.4,7.879-8.898,8.716c-0.226,0.042-0.226,0.345,0,0.387c4.498,0.838,8.043,4.31,8.898,8.717
					c0.043,0.221,0.352,0.221,0.395,0c0.855-4.406,4.4-7.879,8.898-8.717C52.047,117.675,52.047,117.373,51.822,117.33z"/>
			</g>
		</g>
		<g>
			<g>
				<path class="st9" d="M184.515,112.101c-2.862-0.533-5.118-2.743-5.663-5.547c-0.027-0.141-0.224-0.141-0.251,0
					c-0.544,2.804-2.8,5.014-5.663,5.547c-0.144,0.027-0.144,0.219,0,0.246c2.862,0.533,5.118,2.743,5.663,5.547
					c0.027,0.141,0.224,0.141,0.251,0c0.544-2.804,2.8-5.014,5.663-5.547C184.658,112.32,184.658,112.128,184.515,112.101z"/>
			</g>
		</g>
		<g>
			<g>
				<path class="st6" d="M167.246,25.75h2.33v-2.33c0-1.744,1.413-3.157,3.157-3.157s3.157,1.413,3.157,3.157v2.33h2.329
					c1.744,0,3.157,1.413,3.157,3.157s-1.413,3.157-3.157,3.157h-2.329v2.33c0,1.744-1.413,3.157-3.157,3.157
					s-3.157-1.413-3.157-3.157v-2.33h-2.33c-1.744,0-3.157-1.413-3.157-3.157S165.502,25.75,167.246,25.75z"/>
			</g>
		</g>
		<g>
			<g>
				<circle class="st7" cx="30.755" cy="146.825" r="3.377"/>
			</g>
		</g>
		<g>
			<g>
				<circle class="st8" cx="159.755" cy="3.377" r="3.377"/>
			</g>
		</g>
		<g>
			<g>
				<path d="M214.534,256h-70.739c-6.138,0-11.131-4.993-11.131-11.13V152.13c0-6.137,4.993-11.13,11.131-11.13h21.58
					c1.381,0,2.5,1.119,2.5,2.5s-1.119,2.5-2.5,2.5h-21.58c-3.381,0-6.131,2.75-6.131,6.13v92.739c0,3.38,2.75,6.13,6.131,6.13
					h70.739c3.38,0,6.13-2.75,6.13-6.13V152.13c0-3.38-2.75-6.13-6.13-6.13h-21.472c-1.381,0-2.5-1.119-2.5-2.5s1.119-2.5,2.5-2.5
					h21.472c6.137,0,11.13,4.993,11.13,11.13v92.739C225.664,251.007,220.671,256,214.534,256z"/>
			</g>
		</g>
		<g>
			<g>
				<path d="M188.425,159.006h-18.521c-3.802,0-6.895-3.093-6.895-6.894v-7.143c0-3.802,3.093-6.895,6.895-6.895h18.521
					c3.802,0,6.895,3.093,6.895,6.895v7.143C195.319,155.914,192.227,159.006,188.425,159.006z M169.903,143.075
					c-1.045,0-1.895,0.85-1.895,1.895v7.143c0,1.044,0.85,1.894,1.895,1.894h18.521c1.045,0,1.895-0.85,1.895-1.894v-7.143
					c0-1.044-0.85-1.895-1.895-1.895H169.903z"/>
			</g>
		</g>
		<g>
			<g>
				<path d="M196.605,246h-50.72c-1.776,0-3.222-1.445-3.222-3.221v-88.558c0-1.776,1.445-3.221,3.222-3.221h19.146
					c1.381,0,2.5,1.119,2.5,2.5s-1.119,2.5-2.5,2.5h-17.367v85h47.906l15.094-15.095V156h-17.445c-1.381,0-2.5-1.119-2.5-2.5
					s1.119-2.5,2.5-2.5h19.224c1.776,0,3.222,1.445,3.222,3.221v72.72c0,0.663-0.264,1.299-0.732,1.768l-16.559,16.559
					C197.904,245.737,197.269,246,196.605,246z"/>
			</g>
		</g>
		<g>
			<g>
				<path d="M196.605,245.25c-1.381,0-2.5-1.119-2.5-2.5v-15.088c0-1.776,1.444-3.221,3.221-3.221h15.36c1.381,0,2.5,1.119,2.5,2.5
					s-1.119,2.5-2.5,2.5h-13.581v13.309C199.105,244.131,197.986,245.25,196.605,245.25z"/>
			</g>
		</g>
		<g>
			<g>
				<path d="M174.202,223.12c-0.786,0-1.573-0.243-2.241-0.728c-3.679-2.669-9.447-8.649-6.741-18.705
					c0.069-0.259,0.009-0.543-0.164-0.76c-7.385-9.299-8.614-18.427-3.289-24.418c4.771-5.367,11.115-6.1,16.971-1.959
					c0.259,0.183,0.594,0.185,0.854,0c5.854-4.142,12.199-3.41,16.971,1.959v0c5.326,5.992,4.097,15.12-3.29,24.418
					c-0.172,0.217-0.233,0.501-0.164,0.761c2.706,10.054-3.062,16.035-6.74,18.705c-1.321,0.958-3.104,0.972-4.435,0.033
					c-1.344-0.946-1.916-2.577-1.456-4.156c1.134-3.897,0.721-6.99-1.194-8.942c-0.047-0.048-0.189-0.048-0.236-0.001
					c-1.916,1.953-2.329,5.045-1.195,8.943c0.46,1.579-0.112,3.21-1.457,4.156C175.737,222.889,174.97,223.12,174.202,223.12z
					 M171.034,178.862c-2.893,0-4.751,2.091-5.531,2.968c-5.155,5.801,0.707,14.511,3.468,17.986
					c1.155,1.453,1.558,3.386,1.077,5.17c-1.331,4.946,0.133,8.524,2.27,11.008c-0.548-5.38,1.623-8.603,3.16-10.169
					c0.981-1.001,2.291-1.553,3.686-1.554h0.001c1.396,0,2.704,0.552,3.688,1.554c1.537,1.566,3.708,4.788,3.16,10.168
					c2.137-2.484,3.6-6.062,2.269-11.008c-0.479-1.785-0.076-3.718,1.078-5.17c2.76-3.475,8.624-12.184,3.468-17.985v0
					c-1.151-1.293-4.652-5.23-10.348-1.199c-1.981,1.402-4.645,1.403-6.628,0C174.016,179.334,172.408,178.862,171.034,178.862z"/>
			</g>
		</g>
		<g>
			<g>
				<path d="M107.664,255.208c-1.381,0-2.5-1.119-2.5-2.5v-19.845c0-1.63-0.202-3.243-0.599-4.794l-20.254-78.983
					c-0.343-1.337,0.463-2.7,1.801-3.043c1.339-0.34,2.699,0.464,3.043,1.801l20.254,78.984c0.501,1.956,0.755,3.987,0.755,6.036
					v19.845C110.164,254.089,109.045,255.208,107.664,255.208z"/>
			</g>
		</g>
		<g>
			<g>
				<path d="M107.72,233.845c-0.305,0-0.613-0.056-0.909-0.171c-1.018-0.397-1.659-1.41-1.584-2.5
					c0.102-1.488,0.336-2.95,0.694-4.347l20.241-78.936c0.343-1.337,1.706-2.144,3.042-1.801c1.338,0.343,2.144,1.706,1.801,3.043
					l-18.542,72.311l20.281-25.264c0.862-1.076,2.437-1.249,3.515-0.385c1.076,0.864,1.248,2.438,0.384,3.515l-26.972,33.6
					C109.185,233.514,108.462,233.845,107.72,233.845z"/>
			</g>
		</g>
		<g>
			<g>
				<path d="M107.393,233.576c-0.732,0-1.457-0.32-1.951-0.935l-31.721-39.515c-1.168-1.454-1.425-3.531-0.655-5.29l4.727-10.796
					c0.012-0.027,0.016-0.065,0.015-0.102l-7.083-3.529c-1.777-0.885-2.8-2.999-2.487-5.141l1.98-13.567
					c0.199-1.366,1.463-2.317,2.835-2.112c1.366,0.199,2.312,1.469,2.112,2.835l-1.98,13.567c-0.003,0.02-0.004,0.039-0.003,0.056
					l7.083,3.529c2.236,1.115,3.182,4.017,2.108,6.47l-4.727,10.796c-0.022,0.05-0.019,0.15,0,0.192l31.695,39.477
					c0.864,1.077,0.692,2.65-0.385,3.515C108.495,233.396,107.942,233.576,107.393,233.576z M73.197,169.136h0.01H73.197z"/>
			</g>
		</g>
		<g>
			<g>
				<path d="M107.664,176c-5.589,0-11.087-1.491-15.899-4.313c-1.191-0.698-1.59-2.23-0.892-3.421
					c0.698-1.191,2.229-1.591,3.421-0.892c4.045,2.372,8.669,3.626,13.37,3.626c4.718,0,9.354-1.261,13.406-3.646
					c1.189-0.701,2.722-0.303,3.422,0.886c0.701,1.19,0.304,2.722-0.886,3.422C118.786,174.5,113.273,176,107.664,176z"/>
			</g>
		</g>
		<g>
			<g>
				<path d="M107.664,77.857c-6.4,0-11.607-5.207-11.607-11.607s5.207-11.607,11.607-11.607s11.608,5.207,11.608,11.607
					S114.064,77.857,107.664,77.857z M107.664,59.643c-3.644,0-6.607,2.964-6.607,6.607s2.964,6.607,6.607,6.607
					s6.608-2.964,6.608-6.607S111.308,59.643,107.664,59.643z"/>
			</g>
		</g>
	</g>
</g>
<g id="Layer_19">
</g>
<g id="Layer_20">
</g>
<g id="Layer_21">
</g>
<g id="Layer_22">
</g>
<g id="Layer_23">
</g>
<g id="Layer_24">
</g>
<g id="Layer_25">
</g>
<g id="Layer_26">
</g>
<g id="Layer_27">
</g>
<g id="Layer_28">
</g>
<g id="Layer_29">
</g>
<g id="Layer_30">
</g>
<g id="Layer_31">
</g>
<g id="Layer_32">
</g>
<g id="Layer_33">
</g>
<g id="Layer_34">
</g>
<g id="Layer_35">
</g>
<g id="Layer_36">
</g>
<g id="Layer_37">
</g>
<g id="Layer_38">
</g>
<g id="Layer_39">
</g>
<g id="Layer_40">
</g>
<g id="Layer_41">
</g>
<g id="Layer_42">
</g>
<g id="Layer_43">
</g>
<g id="Layer_44">
</g>
<g id="Layer_45">
</g>
<g id="Layer_46">
</g>
<g id="Layer_47">
</g>
<g id="Layer_48">
</g>
<g id="Layer_49">
</g>
<g id="Layer_50">
</g>
<g id="Layer_51">
</g>
<g id="Layer_52">
</g>
<g id="Layer_53">
</g>
<g id="Layer_54">
</g>
<g id="Layer_55">
</g>
<g id="Layer_56">
</g>
<g id="Layer_57">
</g>
<g id="Layer_58">
</g>
<g id="Layer_59">
</g>
<g id="Layer_60">
</g>
<g id="Layer_61">
</g>
<g id="Layer_62">
</g>
<g id="Layer_63">
</g>
<g id="Layer_64">
</g>
<g id="Layer_65">
</g>
<g id="Layer_66">
</g>
<g id="Layer_67">
</g>
<g id="Layer_68">
</g>
<g id="Layer_69">
</g>
<g id="Layer_70">
</g>
<g id="Layer_71">
</g>
<g id="Layer_72">
</g>
<g id="Layer_73">
</g>
<g id="Layer_74">
</g>
<g id="Layer_75">
</g>
<g id="Layer_76">
</g>
<g id="Layer_77">
</g>
<g id="Layer_78">
</g>
<g id="Layer_79">
</g>
<g id="Layer_80">
</g>
</svg>
