<?xml version="1.0" encoding="utf-8"?>
<!-- Generator: Adobe Illustrator 24.0.0, SVG Export Plug-In . SVG Version: 6.00 Build 0)  -->
<svg version="1.1" xmlns="http://www.w3.org/2000/svg" xmlns:xlink="http://www.w3.org/1999/xlink" x="0px" y="0px"
	 viewBox="0 0 256 256" style="enable-background:new 0 0 256 256;" xml:space="preserve">
<style type="text/css">
	.st0{fill:#3A70BF;}
	.st1{fill:#EDF4FC;}
	.st2{fill:#C7D7E5;}
	.st3{fill:#F9D0B4;}
	.st4{fill:#5B5D60;}
	.st5{fill:#5290DB;}
	.st6{fill:#70D6F9;}
	.st7{fill:#F5C84C;}
	.st8{fill:#FC657E;}
	.st9{fill:#87D147;}
	.st10{fill:#FCDD86;}
	.st11{fill:#9BE5F9;}
	.st12{fill:#B2E26D;}
	.st13{fill:#754E34;}
	.st14{fill:#FCA265;}
	.st15{fill:#818182;}
	.st16{fill:#F94EED;}
	.st17{fill:#FFC197;}
	.st18{fill:#3CAADC;}
	.st19{fill:#DAE6F1;}
	.st20{fill:#57AF12;}
	.st21{fill:#EF4460;}
	.st22{fill:#FFF0CA;}
	.st23{fill:#F98FA6;}
	.st24{fill:#EDB311;}
	.st25{fill:#FC8C48;}
	.st26{fill:#FCB9CB;}
	.st27{fill:#96BC71;}
	.st28{fill:#78A352;}
	.st29{fill:#B8DD90;}
	.st30{fill:#6FAFEF;}
	.st31{fill:#29589F;}
	.st32{fill:#414344;}
	.st33{fill:#9B6B4B;}
	.st34{fill:#73B1EF;}
</style>
<g id="Layer_1">
</g>
<g id="Layer_2">
</g>
<g id="Layer_3">
</g>
<g id="Layer_4">
</g>
<g id="Layer_5">
</g>
<g id="Layer_6">
	<g>
		<g>
			<g>
				<path class="st3" d="M135.125,71.985c-0.759,0-1.502,0.064-2.229,0.177c0,3.696,0,20.799,0,26.293v0v0
					c0,0.783-0.036,1.558-0.088,2.329c0.756,0.122,1.526,0.202,2.316,0.202c8.009,0,14.501-6.492,14.501-14.501
					C149.625,78.477,143.133,71.985,135.125,71.985z"/>
			</g>
		</g>
		<g>
			<g>
				<path class="st3" d="M114.777,60.642c-5.29,6.174-24.047,24.906-51.344,17.13v20.684c0,19.102,15.629,34.732,34.732,34.732l0,0
					c19.102,0,34.732-15.629,34.732-34.732v-28.06c0-1.276-0.893-2.358-2.136-2.646c-3.515-0.814-7.782-2.85-12.673-7.294
					C117.119,59.577,115.627,59.649,114.777,60.642z"/>
			</g>
		</g>
		<g>
			<g>
				<path class="st3" d="M63.432,77.771c-2.385-0.679-4.834-1.559-7.346-2.668c-1.619-0.715-3.511-0.386-4.803,0.825
					c-2.817,2.641-4.581,6.39-4.581,10.557c0,8.008,6.492,14.501,14.501,14.501c0.79,0,1.56-0.08,2.316-0.202
					c-0.052-0.771-0.088-1.546-0.088-2.329V77.771z"/>
			</g>
		</g>
		<g>
			<g>
				<g>
					<path class="st13" d="M51.284,75.929c1.291-1.211,3.183-1.54,4.803-0.825c2.512,1.109,4.961,1.988,7.346,2.668
						c27.297,7.776,46.055-10.956,51.344-17.13c0.85-0.992,2.342-1.065,3.309-0.186c4.892,4.445,9.159,6.48,12.673,7.294
						c1.243,0.288,2.136,1.37,2.136,2.646v1.766c0.727-0.113,1.47-0.177,2.229-0.177c4.012,0,7.643,1.63,10.268,4.263v-8.494
						c0-25.976-21.253-47.229-47.229-47.229c-25.976,0-47.229,21.253-47.229,47.229v8.535
						C51.053,76.171,51.162,76.043,51.284,75.929z"/>
				</g>
			</g>
		</g>
		<g>
			<g>
				<path class="st14" d="M106.449,245.157c0-1.877,1.521-3.398,3.398-3.398h9.965c-3.045,0-5.536-2.491-5.536-5.536V164.13
					c0-3.045,2.491-5.536,5.536-5.536h30.615l-15.763-3.979c-2.075-0.523-4.089-1.263-6.009-2.209l-8.587-4.234
					c-3.298-1.626-5.386-4.984-5.386-8.66v-10.533c-4.92,2.682-10.551,4.208-16.52,4.208c-5.97,0-11.6-1.526-16.52-4.208v10.533
					c0,3.677-2.088,7.034-5.386,8.66l-8.587,4.234c-1.919,0.946-3.933,1.687-6.009,2.209l-24.833,6.269
					c-6.044,1.521-10.396,6.796-10.743,13.019l-2.744,75.418c-0.127,2.269,1.68,4.179,3.953,4.179h21.99
					c1.478,0,2.677-1.198,2.677-2.677v-47.143l3.883,12.439c2.539,8.133,3.83,16.604,3.83,25.124v9.58
					c0,1.478,1.198,2.677,2.677,2.677h30.345h10.936h11.159C110.184,253.5,106.449,249.765,106.449,245.157z"/>
			</g>
		</g>
		<g>
			<g>
				<path class="st13" d="M81.644,139.512v-10.533c-10.179-5.548-17.308-16.042-18.124-28.194c-0.756,0.122-1.526,0.202-2.316,0.202
					c-3.897,0-7.427-1.545-10.032-4.046c-1.508,8.692-4.54,20.198-10.64,31.327c-1.112,2.029-0.572,4.566,1.303,5.922
					c4.92,3.557,16.083,9.666,36.93,12.174C80.568,144.579,81.644,142.133,81.644,139.512z"/>
			</g>
		</g>
		<g>
			<g>
				<g>
					<path class="st13" d="M149.414,137.325v-6.8c0-1.094,0.586-2.043,1.456-2.575c0,0-0.001,0-0.001,0
						c-1.435-1.543-3.205-4.283-3.205-8.451c0-1.985,0.81-3.726,1.917-5.342c-2.176-6.266-3.555-12.209-4.424-17.217
						c-2.606,2.501-6.136,4.046-10.032,4.046c-0.79,0-1.56-0.08-2.316-0.202c-0.816,12.152-7.945,22.647-18.124,28.194v10.533
						c0,2.621,1.076,5.068,2.88,6.853C133.067,144.499,143.207,140.643,149.414,137.325z"/>
				</g>
			</g>
		</g>
		<g>
			<g>
				<path class="st1" d="M219.301,158.594h-99.488c-3.045,0-5.536,2.491-5.536,5.536v72.093c0,3.045,2.491,5.536,5.536,5.536h99.488
					c3.045,0,5.536-2.491,5.536-5.536V164.13C224.837,161.085,222.346,158.594,219.301,158.594z"/>
			</g>
		</g>
		<g>
			<g>
				<path class="st2" d="M229.266,241.759H109.848c-1.877,0-3.398,1.521-3.398,3.398c0,4.607,3.735,8.343,8.343,8.343h109.53
					c4.607,0,8.343-3.735,8.343-8.343C232.664,243.281,231.143,241.759,229.266,241.759z"/>
			</g>
		</g>
		<g>
			<g>
				<path class="st1" d="M159.889,127.5h-7.45c-1.671,0-3.025,1.354-3.025,3.025v13.95c0,1.671,1.354,3.025,3.025,3.025h7.45
					c1.671,0,3.025-1.354,3.025-3.025v-13.95C162.914,128.854,161.56,127.5,159.889,127.5z"/>
			</g>
		</g>
		<g>
			<g>
				<path class="st8" d="M152.439,127.5h7.45c0.382,0,0.743,0.078,1.079,0.207c7.137-10.717,0.427-19.659-3.256-23.367
					c-0.631-0.636-1.706-0.291-1.857,0.592c-0.813,4.755-8.192,8.555-8.192,14.568c0,4.168,1.77,6.908,3.205,8.451
					C151.328,127.67,151.862,127.5,152.439,127.5z"/>
			</g>
		</g>
		<g>
			<g>
				<path class="st1" d="M185.745,106.14c-0.518-1.504-2.645-1.504-3.163,0l-6.66,19.342h16.484L185.745,106.14z"/>
			</g>
		</g>
		<g>
			<g>
				<rect x="184.164" y="125.482" class="st7" width="8.242" height="33.112"/>
			</g>
		</g>
		<g>
			<g>
				<rect x="175.922" y="125.482" class="st10" width="8.242" height="33.112"/>
			</g>
		</g>
		<g>
			<g>
				<path class="st5" d="M161.042,158.594l0.622-11.68c-0.5,0.364-1.109,0.586-1.775,0.586h-7.45c-0.666,0-1.276-0.221-1.775-0.586
					l0.622,11.68H161.042z"/>
			</g>
		</g>
		<g>
			<g>
				<path class="st16" d="M170.515,86.101c-2.862-0.533-5.118-2.743-5.663-5.547c-0.027-0.141-0.224-0.141-0.251,0
					c-0.544,2.804-2.8,5.014-5.663,5.547c-0.144,0.027-0.144,0.219,0,0.246c2.862,0.533,5.118,2.743,5.663,5.547
					c0.027,0.141,0.224,0.141,0.251,0c0.544-2.804,2.8-5.014,5.663-5.547C170.658,86.32,170.658,86.128,170.515,86.101z"/>
			</g>
		</g>
		<g>
			<g>
				<path class="st15" d="M189.051,115.74l-3.306-9.6c-0.518-1.504-2.645-1.504-3.163,0l-3.306,9.6
					C182.288,117.376,186.04,117.376,189.051,115.74z"/>
			</g>
		</g>
		<g>
			<g>
				<circle class="st2" cx="165.164" cy="200" r="8.5"/>
			</g>
		</g>
		<g>
			<g>
				<path class="st3" d="M24.558,215.9l-1.216,33.42c-0.127,2.269,1.68,4.179,3.953,4.179h21.99c1.478,0,2.677-1.198,2.677-2.677
					v-25.971C42.47,222.537,33.308,219.534,24.558,215.9z"/>
			</g>
		</g>
		<g>
			<g>
				<path class="st3" d="M122.086,149.166l-2.016-0.994c-3.298-1.626-5.386-4.984-5.386-8.66v-10.533
					c-4.92,2.682-10.551,4.208-16.52,4.208c-5.97,0-11.6-1.526-16.52-4.208v10.533c0,3.677-2.088,7.034-5.386,8.66l-2.016,0.994
					c5.728,6.864,14.336,11.252,23.921,11.252S116.357,156.03,122.086,149.166z"/>
			</g>
		</g>
		<g>
			<g>
				<path class="st17" d="M111.751,174.613c0.722,0.696,1.6,1.154,2.525,1.375V164.13c0-3.045,2.491-5.536,5.536-5.536h12.425
					c0.65-1.454,1.189-2.868,1.623-4.204c-1.79-0.504-3.535-1.161-5.204-1.984l-6.571-3.24
					c-5.283,6.331-13.018,10.546-21.707,11.164C103.752,166.372,108.592,171.566,111.751,174.613z"/>
			</g>
		</g>
		<g>
			<g>
				<path class="st17" d="M74.243,149.166l-6.571,3.24c-1.669,0.823-3.413,1.48-5.204,1.984c2.075,6.389,6.367,14.484,15.27,20.786
					c2.105,1.49,4.983,1.228,6.839-0.562c3.159-3.047,7.999-8.241,11.373-14.283C87.26,159.712,79.526,155.497,74.243,149.166z"/>
			</g>
		</g>
		<g>
			<g>
				<path d="M98.164,117.757c-4.776,0-9.262-1.95-11.999-5.215c-0.887-1.058-0.748-2.635,0.31-3.522
					c1.059-0.887,2.635-0.747,3.522,0.31c1.798,2.146,4.852,3.427,8.167,3.427c3.315,0,6.369-1.281,8.167-3.427
					c0.887-1.058,2.464-1.197,3.522-0.31c1.058,0.887,1.197,2.464,0.31,3.522C107.426,115.808,102.94,117.757,98.164,117.757z"/>
			</g>
		</g>
		<g>
			<g>
				<circle cx="113.275" cy="90.5" r="4.5"/>
			</g>
		</g>
		<g>
			<g>
				<circle cx="83.054" cy="90.5" r="4.5"/>
			</g>
		</g>
		<g>
			<g>
				<path d="M135.125,103.487c-0.62,0-1.25-0.04-1.926-0.123c-1.37-0.167-2.346-1.414-2.179-2.784
					c0.167-1.37,1.403-2.348,2.784-2.179c0.473,0.058,0.904,0.085,1.32,0.085c6.617,0,12.001-5.384,12.001-12.001
					s-5.384-12-12.001-12c-0.409,0-0.831,0.023-1.252,0.069c-1.379,0.146-2.606-0.843-2.755-2.216
					c-0.149-1.373,0.843-2.606,2.216-2.755c10.167-1.097,18.792,6.94,18.792,16.902C152.125,95.86,144.499,103.487,135.125,103.487z
					"/>
			</g>
		</g>
		<g>
			<g>
				<path d="M98.164,135.687c-20.529,0-37.231-16.702-37.231-37.232V77.771c0-0.784,0.368-1.523,0.994-1.995
					c0.626-0.473,1.437-0.625,2.191-0.409c25.92,7.384,43.875-10.649,48.761-16.352l0,0c0.849-0.991,2.033-1.581,3.333-1.663
					c1.289-0.079,2.591,0.376,3.556,1.253c3.952,3.59,7.84,5.848,11.557,6.709c2.397,0.556,4.072,2.645,4.072,5.081v28.06
					C135.396,118.985,118.694,135.687,98.164,135.687z M65.933,80.979v17.476c0,17.773,14.459,32.232,32.231,32.232
					c17.773,0,32.232-14.459,32.232-32.232v-28.06c0-0.113-0.101-0.187-0.201-0.21c-4.515-1.046-9.109-3.656-13.656-7.759
					C111.182,68.625,92.752,86.859,65.933,80.979z M116.675,62.268C116.675,62.269,116.675,62.269,116.675,62.268L116.675,62.268z"
					/>
			</g>
		</g>
		<g>
			<g>
				<path d="M61.204,103.487c-9.374,0-17-7.626-17-17.001c0-4.667,1.958-9.18,5.371-12.381c2.03-1.904,4.982-2.409,7.523-1.288
					c2.331,1.029,4.693,1.888,7.02,2.55c1.328,0.378,2.098,1.761,1.72,3.089c-0.378,1.329-1.763,2.099-3.089,1.72
					c-2.549-0.726-5.129-1.663-7.671-2.785c-0.702-0.311-1.519-0.168-2.083,0.361c-2.444,2.292-3.791,5.394-3.791,8.733
					c0,6.617,5.383,12.001,12,12.001c0.355,0,0.722-0.021,1.121-0.063c1.375-0.142,2.604,0.851,2.748,2.225
					c0.145,1.373-0.852,2.604-2.225,2.748C62.273,103.458,61.735,103.487,61.204,103.487z"/>
			</g>
		</g>
		<g>
			<g>
				<g>
					<path d="M145.393,78.375c-1.381,0-2.5-1.119-2.5-2.5v-8.12c0-24.664-20.065-44.729-44.729-44.729S53.436,43.091,53.436,67.755
						v8.12c0,1.381-1.119,2.5-2.5,2.5s-2.5-1.119-2.5-2.5v-8.12c0-27.421,22.308-49.729,49.729-49.729
						c27.421,0,49.729,22.308,49.729,49.729v8.12C147.893,77.256,146.774,78.375,145.393,78.375z"/>
				</g>
			</g>
		</g>
		<g>
			<g>
				<path d="M114.792,256H62.351c-2.854,0-5.177-2.322-5.177-5.177v-9.58c0-7.066-0.912-14.079-2.713-20.896v30.475
					c0,2.854-2.322,5.177-5.177,5.177h-21.99c-1.768,0-3.478-0.737-4.693-2.021c-1.214-1.284-1.854-3.033-1.756-4.797l2.742-75.37
					c0.412-7.403,5.487-13.554,12.631-15.352l24.832-6.268c1.903-0.479,3.758-1.161,5.515-2.027l8.587-4.234
					c2.462-1.214,3.991-3.673,3.991-6.418v-9.762c0-1.381,1.119-2.5,2.5-2.5s2.5,1.119,2.5,2.5v9.762
					c0,4.663-2.598,8.84-6.78,10.902l-8.587,4.234c-2.072,1.022-4.26,1.826-6.503,2.391l-24.832,6.268
					c-5.012,1.262-8.571,5.575-8.859,10.734l-2.742,75.37c-0.033,0.594,0.233,0.961,0.395,1.132S26.749,251,27.295,251h21.99
					c0.098,0,0.177-0.079,0.177-0.177v-47.143c0-1.235,0.902-2.285,2.123-2.472c1.22-0.186,2.396,0.548,2.763,1.727l3.883,12.438
					c2.617,8.384,3.944,17.088,3.944,25.87v9.58c0,0.098,0.079,0.177,0.177,0.177h52.441c1.381,0,2.5,1.119,2.5,2.5
					S116.173,256,114.792,256z"/>
			</g>
		</g>
		<g>
			<g>
				<path d="M150.43,161.095c-0.203,0-0.408-0.025-0.614-0.077l-15.763-3.979c-2.241-0.564-4.43-1.369-6.502-2.391l-8.587-4.234
					c-4.182-2.062-6.78-6.24-6.78-10.902V130c0-1.381,1.119-2.5,2.5-2.5s2.5,1.119,2.5,2.5v9.512c0,2.745,1.529,5.204,3.991,6.418
					l8.587,4.234c1.757,0.866,3.612,1.548,5.514,2.027l15.764,3.979c1.339,0.338,2.15,1.697,1.812,3.036
					C152.566,160.339,151.548,161.095,150.43,161.095z"/>
			</g>
		</g>
		<g>
			<g>
				<path d="M78.229,148.799c-0.103,0-0.207-0.006-0.311-0.02c-21.195-2.634-32.623-9.002-37.548-12.564
					c-2.877-2.079-3.75-6.013-2.031-9.149c6.038-11.017,8.927-22.44,10.287-30.083c0.242-1.359,1.536-2.267,2.899-2.023
					c1.359,0.242,2.265,1.54,2.023,2.899c-2.074,11.653-5.715,22.289-10.825,31.611c-0.51,0.93-0.263,2.088,0.575,2.693
					c4.538,3.281,15.148,9.158,35.235,11.654c1.371,0.17,2.343,1.419,2.173,2.789C80.55,147.872,79.472,148.799,78.229,148.799z"/>
			</g>
		</g>
		<g>
			<g>
				<g>
					<path d="M149.292,115.815c-1.043,0-2.016-0.658-2.368-1.701c-1.704-5.049-3.069-10.356-4.057-15.774
						c-0.248-1.358,0.653-2.66,2.011-2.908c1.353-0.25,2.66,0.652,2.908,2.011c0.944,5.181,2.249,10.251,3.875,15.072
						c0.441,1.308-0.261,2.727-1.569,3.168C149.827,115.773,149.557,115.815,149.292,115.815z"/>
				</g>
			</g>
			<g>
				<g>
					<path d="M118.2,148.786c-1.243,0-2.32-0.926-2.478-2.19c-0.171-1.37,0.8-2.62,2.17-2.791
						c14.823-1.854,24.373-5.583,29.774-8.385c1.226-0.636,2.734-0.157,3.371,1.068c0.636,1.226,0.158,2.735-1.068,3.371
						c-8.384,4.35-18.967,7.347-31.457,8.908C118.408,148.779,118.303,148.786,118.2,148.786z"/>
				</g>
			</g>
		</g>
		<g>
			<g>
				<path d="M219.301,244.259c-1.381,0-2.5-1.119-2.5-2.5s1.119-2.5,2.5-2.5c1.674,0,3.036-1.362,3.036-3.036V164.13
					c0-1.674-1.362-3.036-3.036-3.036h-99.488c-1.674,0-3.036,1.362-3.036,3.036v72.093c0,1.674,1.362,3.036,3.036,3.036
					c1.381,0,2.5,1.119,2.5,2.5s-1.119,2.5-2.5,2.5c-4.431,0-8.036-3.605-8.036-8.036V164.13c0-4.431,3.605-8.036,8.036-8.036
					h99.488c4.431,0,8.036,3.605,8.036,8.036v72.093C227.337,240.654,223.732,244.259,219.301,244.259z"/>
			</g>
		</g>
		<g>
			<g>
				<path d="M224.322,256h-109.53c-5.979,0-10.843-4.864-10.843-10.843c0-3.252,2.646-5.898,5.898-5.898h119.418
					c3.252,0,5.898,2.646,5.898,5.898C235.164,251.136,230.3,256,224.322,256z M109.848,244.259c-0.496,0-0.898,0.403-0.898,0.898
					c0,3.222,2.621,5.843,5.843,5.843h109.53c3.222,0,5.842-2.621,5.842-5.843c0-0.495-0.403-0.898-0.898-0.898H109.848z"/>
			</g>
		</g>
		<g>
			<g>
				<path d="M159.889,150h-7.45c-3.047,0-5.525-2.479-5.525-5.525v-13.95c0-3.046,2.479-5.525,5.525-5.525h7.45
					c3.046,0,5.525,2.479,5.525,5.525v13.95C165.414,147.521,162.936,150,159.889,150z M152.439,130
					c-0.29,0-0.525,0.235-0.525,0.525v13.95c0,0.29,0.236,0.525,0.525,0.525h7.45c0.29,0,0.525-0.235,0.525-0.525v-13.95
					c0-0.29-0.235-0.525-0.525-0.525H152.439z"/>
			</g>
		</g>
		<g>
			<g>
				<path d="M150.321,129.816c-0.731,0-1.455-0.319-1.949-0.933c-1.463-1.818-3.208-4.921-3.208-9.383
					c0-4.275,2.688-7.403,5.061-10.163c1.504-1.75,2.924-3.402,3.167-4.826c0.229-1.337,1.172-2.421,2.462-2.83
					c1.287-0.405,2.679-0.063,3.633,0.896c3.699,3.725,11.497,13.694,4.035,25.779c-0.726,1.175-2.267,1.539-3.44,0.813
					c-1.175-0.725-1.539-2.266-0.813-3.44c4.636-7.509,1.468-13.97-1.773-17.91c-0.856,1.726-2.183,3.27-3.479,4.777
					c-1.981,2.305-3.852,4.482-3.852,6.903c0,2.413,0.708,4.515,2.103,6.249c0.866,1.075,0.696,2.649-0.38,3.515
					C151.425,129.635,150.871,129.816,150.321,129.816z"/>
			</g>
		</g>
		<g>
			<g>
				<path d="M192.406,127.982h-16.483c-0.808,0-1.566-0.391-2.035-1.048s-0.592-1.501-0.329-2.266l6.661-19.342
					c0.589-1.709,2.137-2.814,3.945-2.814c1.808,0,3.356,1.104,3.945,2.813c0,0,0,0,0,0l6.66,19.342
					c0.263,0.764,0.141,1.608-0.329,2.266S193.214,127.982,192.406,127.982z M179.427,122.982h9.474l-4.737-13.756L179.427,122.982z
					 M183.382,106.954L183.382,106.954L183.382,106.954L183.382,106.954z"/>
			</g>
		</g>
		<g>
			<g>
				<path d="M192.406,160.063c-1.381,0-2.5-1.119-2.5-2.5v-32.082c0-1.381,1.119-2.5,2.5-2.5s2.5,1.119,2.5,2.5v32.082
					C194.906,158.944,193.787,160.063,192.406,160.063z"/>
			</g>
		</g>
		<g>
			<g>
				<path d="M184.164,160.063c-1.381,0-2.5-1.119-2.5-2.5v-31.146c0-1.381,1.119-2.5,2.5-2.5s2.5,1.119,2.5,2.5v31.146
					C186.664,158.944,185.545,160.063,184.164,160.063z"/>
			</g>
		</g>
		<g>
			<g>
				<path d="M175.922,160.375c-1.381,0-2.5-1.119-2.5-2.5v-32.393c0-1.381,1.119-2.5,2.5-2.5s2.5,1.119,2.5,2.5v32.393
					C178.422,159.255,177.303,160.375,175.922,160.375z"/>
			</g>
		</g>
		<g>
			<g>
				<path d="M161.071,160.588c-0.044,0-0.09-0.001-0.135-0.003c-1.379-0.074-2.437-1.251-2.364-2.629l0.578-10.838
					c0.074-1.378,1.24-2.435,2.63-2.364c1.378,0.074,2.437,1.251,2.363,2.629l-0.578,10.838
					C163.494,159.555,162.391,160.588,161.071,160.588z"/>
			</g>
		</g>
		<g>
			<g>
				<path d="M151.258,160.589c-1.32,0-2.423-1.034-2.495-2.367l-0.571-10.709c-0.073-1.379,0.985-2.556,2.364-2.63
					c1.38-0.079,2.556,0.985,2.629,2.363l0.571,10.709c0.073,1.379-0.985,2.556-2.364,2.63
					C151.348,160.588,151.302,160.589,151.258,160.589z"/>
			</g>
		</g>
		<g>
			<g>
				<path class="st7" d="M36.822,103.33c-4.498-0.838-8.043-4.31-8.898-8.716c-0.043-0.221-0.352-0.221-0.395,0
					c-0.855,4.406-4.4,7.879-8.898,8.716c-0.226,0.042-0.226,0.345,0,0.387c4.498,0.838,8.043,4.31,8.898,8.717
					c0.043,0.221,0.352,0.221,0.395,0c0.855-4.406,4.4-7.879,8.898-8.717C37.047,103.675,37.047,103.373,36.822,103.33z"/>
			</g>
		</g>
		<g>
			<g>
				<path class="st7" d="M170.515,86.101c-2.862-0.533-5.118-2.743-5.663-5.547c-0.027-0.141-0.224-0.141-0.251,0
					c-0.544,2.804-2.8,5.014-5.663,5.547c-0.144,0.027-0.144,0.219,0,0.246c2.862,0.533,5.118,2.743,5.663,5.547
					c0.027,0.141,0.224,0.141,0.251,0c0.544-2.804,2.8-5.014,5.663-5.547C170.658,86.32,170.658,86.128,170.515,86.101z"/>
			</g>
		</g>
		<g>
			<g>
				<path class="st6" d="M159.246,25.75h2.33v-2.33c0-1.744,1.413-3.157,3.157-3.157s3.157,1.413,3.157,3.157v2.33h2.329
					c1.744,0,3.157,1.413,3.157,3.157s-1.413,3.157-3.157,3.157h-2.329v2.33c0,1.744-1.413,3.157-3.157,3.157
					s-3.157-1.413-3.157-3.157v-2.33h-2.33c-1.744,0-3.157-1.413-3.157-3.157S157.502,25.75,159.246,25.75z"/>
			</g>
		</g>
		<g>
			<g>
				<circle class="st8" cx="18.755" cy="140.825" r="3.377"/>
			</g>
		</g>
		<g>
			<g>
				<circle class="st9" cx="149.755" cy="3.377" r="3.377"/>
			</g>
		</g>
		<g>
			<g>
				<path d="M184.167,119.458c-1.877,0-3.753-0.401-5.451-1.202c-1.249-0.588-1.784-2.078-1.195-3.327
					c0.588-1.249,2.079-1.785,3.327-1.195c2,0.942,4.407,0.975,6.437,0.088c1.267-0.552,2.74,0.026,3.292,1.291
					c0.553,1.266-0.025,2.739-1.291,3.292C187.676,119.108,185.92,119.458,184.167,119.458z"/>
			</g>
		</g>
		<g>
			<g>
				<path d="M165.164,211c-6.065,0-11-4.935-11-11s4.935-11,11-11s11,4.935,11,11S171.229,211,165.164,211z M165.164,194
					c-3.309,0-6,2.691-6,6s2.691,6,6,6s6-2.691,6-6S168.473,194,165.164,194z"/>
			</g>
		</g>
		<g>
			<g>
				<path d="M51.122,227.145c-0.2,0-0.403-0.024-0.605-0.074c-8.91-2.215-17.668-5.074-26.034-8.497
					c-1.278-0.523-1.89-1.983-1.367-3.261c0.524-1.277,1.984-1.889,3.261-1.367c8.143,3.332,16.67,6.115,25.346,8.272
					c1.34,0.333,2.156,1.689,1.823,3.029C53.264,226.385,52.243,227.145,51.122,227.145z"/>
			</g>
		</g>
		<g>
			<g>
				<path d="M98.164,162.918c-9.622,0-18.819-4.171-25.233-11.443c-0.913-1.036-0.814-2.615,0.221-3.529
					c1.037-0.913,2.616-0.813,3.529,0.221c5.465,6.197,13.295,9.75,21.483,9.75c8.189,0,16.021-3.555,21.486-9.753
					c0.913-1.036,2.492-1.136,3.528-0.222c1.036,0.913,1.135,2.493,0.222,3.528C116.986,158.747,107.788,162.918,98.164,162.918z"/>
			</g>
		</g>
		<g>
			<g>
				<path d="M113.592,178.278c-0.294,0-0.594-0.052-0.886-0.163c-1.013-0.384-1.918-0.957-2.691-1.703
					c-3.343-3.225-8.054-8.326-11.507-14.313c-0.69-1.196-0.28-2.725,0.917-3.415c1.198-0.689,2.725-0.28,3.415,0.917
					c3.162,5.482,7.536,10.211,10.647,13.213c0.284,0.273,0.617,0.484,0.993,0.626c1.291,0.489,1.941,1.933,1.451,3.224
					C115.551,177.664,114.601,178.278,113.592,178.278z"/>
			</g>
		</g>
		<g>
			<g>
				<path d="M80.796,178.644c-1.574,0-3.149-0.47-4.502-1.428c-7.449-5.273-12.962-12.632-15.945-21.283
					c-0.45-1.306,0.243-2.729,1.548-3.178c1.307-0.451,2.729,0.244,3.178,1.548c2.677,7.765,7.423,14.101,14.107,18.832
					c1.111,0.786,2.65,0.651,3.66-0.321c3.04-2.932,7.326-7.555,10.483-12.93c0.699-1.191,2.231-1.588,3.422-0.89
					c1.19,0.699,1.589,2.231,0.89,3.422c-3.444,5.863-8.059,10.848-11.324,13.996C84.783,177.888,82.791,178.644,80.796,178.644z"/>
			</g>
		</g>
	</g>
</g>
<g id="Layer_7">
</g>
<g id="Layer_8">
</g>
<g id="Layer_9">
</g>
<g id="Layer_10">
</g>
<g id="Layer_11">
</g>
<g id="Layer_12">
</g>
<g id="Layer_13">
</g>
<g id="Layer_14">
</g>
<g id="Layer_15">
</g>
<g id="Layer_16">
</g>
<g id="Layer_17">
</g>
<g id="Layer_18">
</g>
<g id="Layer_19">
</g>
<g id="Layer_20">
</g>
<g id="Layer_21">
</g>
<g id="Layer_22">
</g>
<g id="Layer_23">
</g>
<g id="Layer_24">
</g>
<g id="Layer_25">
</g>
<g id="Layer_26">
</g>
<g id="Layer_27">
</g>
<g id="Layer_28">
</g>
<g id="Layer_29">
</g>
<g id="Layer_30">
</g>
<g id="Layer_31">
</g>
<g id="Layer_32">
</g>
<g id="Layer_33">
</g>
<g id="Layer_34">
</g>
<g id="Layer_35">
</g>
<g id="Layer_36">
</g>
<g id="Layer_37">
</g>
<g id="Layer_38">
</g>
<g id="Layer_39">
</g>
<g id="Layer_40">
</g>
<g id="Layer_41">
</g>
<g id="Layer_42">
</g>
<g id="Layer_43">
</g>
<g id="Layer_44">
</g>
<g id="Layer_45">
</g>
<g id="Layer_46">
</g>
<g id="Layer_47">
</g>
<g id="Layer_48">
</g>
<g id="Layer_49">
</g>
<g id="Layer_50">
</g>
<g id="Layer_51">
</g>
<g id="Layer_52">
</g>
<g id="Layer_53">
</g>
<g id="Layer_54">
</g>
<g id="Layer_55">
</g>
<g id="Layer_56">
</g>
<g id="Layer_57">
</g>
<g id="Layer_58">
</g>
<g id="Layer_59">
</g>
<g id="Layer_60">
</g>
<g id="Layer_61">
</g>
<g id="Layer_62">
</g>
<g id="Layer_63">
</g>
<g id="Layer_64">
</g>
<g id="Layer_65">
</g>
<g id="Layer_66">
</g>
<g id="Layer_67">
</g>
<g id="Layer_68">
</g>
<g id="Layer_69">
</g>
<g id="Layer_70">
</g>
<g id="Layer_71">
</g>
<g id="Layer_72">
</g>
<g id="Layer_73">
</g>
<g id="Layer_74">
</g>
<g id="Layer_75">
</g>
<g id="Layer_76">
</g>
<g id="Layer_77">
</g>
<g id="Layer_78">
</g>
<g id="Layer_79">
</g>
<g id="Layer_80">
</g>
</svg>
