<?xml version="1.0" encoding="utf-8"?>
<!-- Generator: Adobe Illustrator 24.0.0, SVG Export Plug-In . SVG Version: 6.00 Build 0)  -->
<svg version="1.1" xmlns="http://www.w3.org/2000/svg" xmlns:xlink="http://www.w3.org/1999/xlink" x="0px" y="0px"
	 viewBox="0 0 256 256" style="enable-background:new 0 0 256 256;" xml:space="preserve">
<style type="text/css">
	.st0{fill:#3A70BF;}
	.st1{fill:#EDF4FC;}
	.st2{fill:#C7D7E5;}
	.st3{fill:#F9D0B4;}
	.st4{fill:#5B5D60;}
	.st5{fill:#5290DB;}
	.st6{fill:#70D6F9;}
	.st7{fill:#F5C84C;}
	.st8{fill:#FC657E;}
	.st9{fill:#87D147;}
	.st10{fill:#FCDD86;}
	.st11{fill:#9BE5F9;}
	.st12{fill:#B2E26D;}
	.st13{fill:#754E34;}
	.st14{fill:#FCA265;}
	.st15{fill:#818182;}
	.st16{fill:#F94EED;}
	.st17{fill:#FFC197;}
	.st18{fill:#3CAADC;}
	.st19{fill:#DAE6F1;}
	.st20{fill:#57AF12;}
	.st21{fill:#EF4460;}
	.st22{fill:#FFF0CA;}
	.st23{fill:#F98FA6;}
	.st24{fill:#EDB311;}
	.st25{fill:#FC8C48;}
	.st26{fill:#FCB9CB;}
	.st27{fill:#96BC71;}
	.st28{fill:#78A352;}
	.st29{fill:#B8DD90;}
	.st30{fill:#6FAFEF;}
	.st31{fill:#29589F;}
	.st32{fill:#414344;}
	.st33{fill:#9B6B4B;}
	.st34{fill:#73B1EF;}
</style>
<g id="Layer_1">
</g>
<g id="Layer_2">
</g>
<g id="Layer_3">
</g>
<g id="Layer_4">
</g>
<g id="Layer_5">
	<g>
		<g>
			<g>
				<path class="st3" d="M108.016,56.772c-13.593,17.094-33.644,14.681-40.386,13.27c-1.225-0.256-2.401,0.667-2.402,1.919
					c0,0.008,0,0.017,0,0.025v29.936c0,20.468,16.747,37.215,37.215,37.215h0c20.468,0,37.215-16.747,37.215-37.215V68.772
					c0-0.194-0.002-0.388-0.006-0.582c-0.021-1.055-0.866-1.925-1.921-1.956c-15.46-0.453-23.606-6.581-26.736-9.649
					C110.14,55.747,108.76,55.836,108.016,56.772z"/>
			</g>
		</g>
		<g>
			<g>
				<g>
					<path class="st13" d="M62.84,73.561c0.813,0,1.609,0.069,2.388,0.189v-1.763c0-0.008,0-0.017,0-0.025
						c0.001-1.252,1.177-2.175,2.402-1.919c6.742,1.411,26.794,3.823,40.386-13.27c0.745-0.937,2.124-1.025,2.978-0.187
						c3.13,3.068,11.276,9.196,26.736,9.649c1.055,0.031,1.9,0.901,1.921,1.956c0.004,0.194,0.006,0.388,0.006,0.582v4.978
						c0.779-0.121,1.575-0.189,2.388-0.189c4.188,0,7.982,1.665,10.777,4.36V49.973c0-11.692-9.566-21.258-21.258-21.258
						c-3.966,0-7.673,1.121-10.859,3.031c-3.722-6.211-10.502-10.405-18.23-10.405H91.559c-21.127,0-38.413,17.286-38.413,38.413
						v17.212C55.804,74.84,59.17,73.561,62.84,73.561z"/>
				</g>
			</g>
		</g>
		<g>
			<g>
				<path class="st3" d="M142.046,73.561c-0.813,0-1.609,0.069-2.388,0.189c0,3.96,0,22.286,0,28.173
					c0,0.839-0.038,1.67-0.094,2.496c0.81,0.13,1.635,0.217,2.482,0.217c8.581,0,15.537-6.956,15.537-15.537
					S150.627,73.561,142.046,73.561z"/>
			</g>
		</g>
		<g>
			<g>
				<path class="st3" d="M65.228,101.923c0-3.856,0-20.507,0-28.173c-0.779-0.121-1.575-0.189-2.388-0.189
					c-8.581,0-15.538,6.957-15.538,15.538s6.956,15.537,15.538,15.537c0.847,0,1.672-0.086,2.482-0.217v-0.001
					C65.266,103.593,65.228,102.762,65.228,101.923z"/>
			</g>
		</g>
		<g>
			<g>
				<path class="st14" d="M105.433,245.157c0-1.877,1.521-3.398,3.398-3.398h9.965c-3.045,0-5.536-2.491-5.536-5.536V164.13
					c0-3.045,2.491-5.536,5.536-5.536h22.909l-4.19-1.055l-10.215-5.037c-4.391-2.165-7.171-6.635-7.171-11.531v-6.335
					c-5.268,2.868-11.296,4.501-17.686,4.501h0c-5.959,0-11.597-1.427-16.604-3.945v5.778c0,4.895-2.78,9.366-7.171,11.531
					l-10.215,5.037l-28.902,7.275c-6.233,1.569-10.721,7.008-11.078,13.425l-4.115,70.951c-0.13,2.34,1.732,4.31,4.076,4.31h85.341
					C109.168,253.5,105.433,249.765,105.433,245.157z"/>
			</g>
		</g>
		<g>
			<g>
				<path class="st1" d="M218.285,158.594h-99.488c-3.045,0-5.536,2.491-5.536,5.536v72.093c0,3.045,2.491,5.536,5.536,5.536h99.488
					c3.045,0,5.536-2.491,5.536-5.536V164.13C223.821,161.085,221.33,158.594,218.285,158.594z"/>
			</g>
		</g>
		<g>
			<g>
				<path class="st2" d="M228.25,241.759H108.831c-1.877,0-3.398,1.521-3.398,3.398c0,4.607,3.735,8.343,8.343,8.343h109.53
					c4.607,0,8.343-3.735,8.343-8.343C231.648,243.281,230.127,241.759,228.25,241.759z"/>
			</g>
		</g>
		<g>
			<g>
				<path class="st1" d="M158.873,127.5h-7.45c-1.671,0-3.025,1.354-3.025,3.025v13.95c0,1.671,1.354,3.025,3.025,3.025h7.45
					c1.671,0,3.025-1.354,3.025-3.025v-13.95C161.898,128.854,160.544,127.5,158.873,127.5z"/>
			</g>
		</g>
		<g>
			<g>
				<path class="st8" d="M151.423,127.5h7.45c0.382,0,0.743,0.078,1.079,0.207c7.137-10.717,0.427-19.659-3.256-23.367
					c-0.631-0.636-1.706-0.291-1.857,0.592c-0.813,4.755-8.192,8.555-8.192,14.568c0,4.168,1.77,6.908,3.205,8.451
					C150.312,127.67,150.846,127.5,151.423,127.5z"/>
			</g>
		</g>
		<g>
			<g>
				<path class="st5" d="M160.026,158.594l0.622-11.68c-0.5,0.364-1.109,0.586-1.775,0.586h-7.45c-0.666,0-1.276-0.221-1.775-0.586
					l0.622,11.68H160.026z"/>
			</g>
		</g>
		<g>
			<g>
				<circle class="st2" cx="164.148" cy="200" r="8.5"/>
			</g>
		</g>
		<g>
			<g>
				<path class="st1" d="M184.729,106.14c-0.518-1.504-2.645-1.504-3.163,0l-6.66,19.342h16.484L184.729,106.14z"/>
			</g>
		</g>
		<g>
			<g>
				<rect x="183.148" y="125.482" class="st7" width="8.242" height="33.112"/>
			</g>
		</g>
		<g>
			<g>
				<rect x="174.906" y="125.482" class="st10" width="8.242" height="33.112"/>
			</g>
		</g>
		<g>
			<g>
				<path class="st15" d="M188.035,115.74l-3.306-9.6c-0.518-1.504-2.645-1.504-3.163,0l-3.306,9.6
					C181.272,117.376,185.024,117.376,188.035,115.74z"/>
			</g>
		</g>
		<g>
			<g>
				<path class="st3" d="M113.26,179.513V164.13c0-3.045,2.491-5.536,5.536-5.536h15.376c0.442-0.682,0.871-1.371,1.289-2.067
					l-8.163-4.025c-4.391-2.165-7.171-6.635-7.171-11.531v-6.335c-5.268,2.868-11.296,4.501-17.686,4.501h0
					c-5.959,0-11.597-1.427-16.604-3.945v5.778c0,4.895-2.78,9.366-7.171,11.531l-8.163,4.025
					c6.687,11.144,16.46,20.456,28.573,26.687c2.45,1.26,5.37,1.255,7.811,0C109.093,182.081,111.216,180.843,113.26,179.513z"/>
			</g>
		</g>
		<g>
			<g>
				<path class="st3" d="M51.439,218.5H26.138l-1.78,30.69c-0.13,2.34,1.732,4.31,4.076,4.31h23.004V218.5z"/>
			</g>
		</g>
		<g>
			<g>
				<path d="M102.442,141.638c-21.898,0-39.715-17.816-39.715-39.715V71.987c0.001-1.37,0.603-2.627,1.649-3.478
					c1.059-0.858,2.428-1.193,3.765-0.913c7.236,1.514,25.418,3.338,37.917-12.38l0.001,0c0.796-1,1.981-1.619,3.253-1.698
					c1.278-0.086,2.521,0.389,3.432,1.281c2.593,2.542,10.225,8.501,25.06,8.936c2.392,0.071,4.301,2.007,4.348,4.407
					c0.004,0.208,0.006,0.418,0.006,0.63v33.151C142.157,123.822,124.341,141.638,102.442,141.638z M67.728,72.613v29.311
					c0,19.142,15.573,34.715,34.715,34.715s34.715-15.573,34.715-34.715V68.772c0-0.019,0-0.038,0-0.056
					c-15.154-0.563-23.626-6.308-27.521-9.97C95.448,76.143,74.715,73.963,67.728,72.613z"/>
			</g>
		</g>
		<g>
			<g>
				<g>
					<path d="M152.822,79.5c-1.381,0-2.5-1.119-2.5-2.5V49.973c0-10.343-8.415-18.758-18.758-18.758
						c-3.344,0-6.654,0.925-9.574,2.675c-0.569,0.341-1.25,0.441-1.893,0.281c-0.644-0.161-1.196-0.571-1.537-1.14
						c-3.396-5.668-9.561-9.19-16.086-9.19H91.559c-19.803,0-35.913,16.111-35.913,35.914v16.588c0,1.381-1.119,2.5-2.5,2.5
						s-2.5-1.119-2.5-2.5V59.755c0-22.56,18.354-40.914,40.913-40.914h10.916c7.481,0,14.581,3.641,19.048,9.638
						c3.15-1.487,6.579-2.264,10.042-2.264c13.101,0,23.758,10.658,23.758,23.758V77C155.322,78.38,154.203,79.5,152.822,79.5z"/>
				</g>
			</g>
		</g>
		<g>
			<g>
				<path d="M51.438,255.04c-1.381,0-2.5-1.119-2.5-2.5v-56.644c0-1.381,1.119-2.5,2.5-2.5s2.5,1.119,2.5,2.5v56.644
					C53.938,253.92,52.819,255.04,51.438,255.04z"/>
			</g>
		</g>
		<g>
			<g>
				<path d="M142.046,107.136c-0.584,0-1.176-0.034-1.808-0.103c-1.373-0.15-2.363-1.384-2.214-2.757s1.396-2.358,2.757-2.214
					c0.45,0.049,0.864,0.073,1.265,0.073c7.188,0,13.037-5.849,13.037-13.038s-5.849-13.038-13.037-13.038
					c-0.339,0-0.674,0.014-1.006,0.041c-1.389,0.12-2.582-0.914-2.693-2.29c-0.111-1.376,0.914-2.582,2.291-2.693
					c0.465-0.038,0.935-0.058,1.408-0.058c9.945,0,18.037,8.092,18.037,18.038S151.991,107.136,142.046,107.136z"/>
			</g>
		</g>
		<g>
			<g>
				<path d="M62.84,107.136c-9.946,0-18.038-8.092-18.038-18.038s8.092-18.038,18.038-18.038c0.681,0,1.381,0.042,2.081,0.125
					c1.371,0.162,2.352,1.405,2.189,2.776c-0.161,1.371-1.4,2.353-2.775,2.189c-0.507-0.06-1.01-0.09-1.495-0.09
					c-7.189,0-13.038,5.849-13.038,13.038s5.849,13.038,13.038,13.038c0.376,0,0.761-0.021,1.176-0.064
					c1.377-0.144,2.603,0.856,2.744,2.229c0.143,1.373-0.855,2.602-2.229,2.744C63.943,107.106,63.39,107.136,62.84,107.136z"/>
			</g>
		</g>
		<g>
			<g>
				<path d="M141.707,161.095c-0.202,0-0.407-0.024-0.612-0.076l-4.19-1.055c-0.171-0.043-0.337-0.104-0.495-0.182l-10.215-5.037
					c-5.283-2.605-8.565-7.883-8.565-13.773v-5.555c0-1.381,1.119-2.5,2.5-2.5s2.5,1.119,2.5,2.5v5.555
					c0,3.972,2.214,7.532,5.776,9.289l9.977,4.919l3.934,0.99c1.339,0.337,2.151,1.696,1.814,3.035
					C143.844,160.338,142.825,161.095,141.707,161.095z"/>
			</g>
		</g>
		<g>
			<g>
				<path d="M113.775,256H28.435c-1.801,0-3.544-0.75-4.781-2.059c-1.238-1.309-1.891-3.091-1.791-4.89l4.114-70.957
					c0.421-7.545,5.631-13.859,12.965-15.705l28.645-7.209l9.977-4.919c3.563-1.757,5.776-5.316,5.776-9.289v-5.014
					c0-1.381,1.119-2.5,2.5-2.5s2.5,1.119,2.5,2.5v5.014c0,5.89-3.282,11.168-8.565,13.773l-10.215,5.037
					c-0.158,0.078-0.324,0.139-0.495,0.182l-28.901,7.274c-5.2,1.309-8.896,5.786-9.193,11.14l-4.114,70.957
					c-0.024,0.433,0.129,0.851,0.431,1.17c0.302,0.319,0.71,0.495,1.149,0.495h85.341c1.381,0,2.5,1.119,2.5,2.5
					S115.156,256,113.775,256z"/>
			</g>
		</g>
		<g>
			<g>
				<path d="M102.983,118.573c-4.776,0-9.262-1.95-11.998-5.215c-0.887-1.059-0.748-2.635,0.311-3.522
					c1.058-0.887,2.636-0.748,3.521,0.31c1.798,2.146,4.851,3.427,8.166,3.427s6.369-1.281,8.167-3.426
					c0.888-1.059,2.466-1.196,3.521-0.31c1.059,0.887,1.197,2.464,0.311,3.522C112.246,116.624,107.76,118.573,102.983,118.573z"/>
			</g>
		</g>
		<g>
			<g>
				<circle cx="119.773" cy="90.816" r="5"/>
			</g>
		</g>
		<g>
			<g>
				<circle cx="86.194" cy="90.816" r="5"/>
			</g>
		</g>
		<g>
			<g>
				<path class="st8" d="M185.822,28.33c-4.498-0.838-8.043-4.31-8.898-8.716c-0.043-0.221-0.352-0.221-0.395,0
					c-0.855,4.406-4.4,7.879-8.898,8.716c-0.226,0.042-0.226,0.345,0,0.387c4.498,0.838,8.043,4.31,8.898,8.717
					c0.043,0.221,0.352,0.221,0.395,0c0.855-4.406,4.4-7.879,8.898-8.717C186.047,28.675,186.047,28.373,185.822,28.33z"/>
			</g>
		</g>
		<g>
			<g>
				<path class="st9" d="M180.515,86.101c-2.862-0.533-5.118-2.743-5.663-5.547c-0.027-0.141-0.224-0.141-0.251,0
					c-0.544,2.804-2.8,5.014-5.663,5.547c-0.144,0.027-0.144,0.219,0,0.246c2.862,0.533,5.118,2.743,5.663,5.547
					c0.027,0.141,0.224,0.141,0.251,0c0.544-2.804,2.8-5.014,5.663-5.547C180.658,86.32,180.658,86.128,180.515,86.101z"/>
			</g>
		</g>
		<g>
			<g>
				<path class="st7" d="M45.246,120.75h2.33v-2.33c0-1.744,1.413-3.157,3.157-3.157c1.744,0,3.157,1.413,3.157,3.157v2.33h2.329
					c1.744,0,3.157,1.413,3.157,3.157s-1.413,3.157-3.157,3.157h-2.329v2.33c0,1.744-1.413,3.157-3.157,3.157
					c-1.744,0-3.157-1.413-3.157-3.157v-2.33h-2.33c-1.744,0-3.157-1.413-3.157-3.157S43.502,120.75,45.246,120.75z"/>
			</g>
		</g>
		<g>
			<g>
				<circle class="st8" cx="35.755" cy="152.825" r="3.377"/>
			</g>
		</g>
		<g>
			<g>
				<circle class="st6" cx="159.755" cy="3.377" r="3.377"/>
			</g>
		</g>
		<g>
			<g>
				<path d="M218.285,244.259h-99.488c-4.431,0-8.036-3.605-8.036-8.036V164.13c0-4.431,3.605-8.036,8.036-8.036h99.488
					c4.431,0,8.035,3.605,8.035,8.036v72.093C226.32,240.654,222.716,244.259,218.285,244.259z M118.797,161.094
					c-1.674,0-3.036,1.362-3.036,3.036v72.093c0,1.674,1.362,3.036,3.036,3.036h99.488c1.674,0,3.035-1.362,3.035-3.036V164.13
					c0-1.674-1.361-3.036-3.035-3.036H118.797z"/>
			</g>
		</g>
		<g>
			<g>
				<path d="M223.306,256h-109.53c-5.979,0-10.843-4.864-10.843-10.843c0-3.252,2.646-5.898,5.898-5.898H228.25
					c3.252,0,5.898,2.646,5.898,5.898C234.148,251.136,229.284,256,223.306,256z M108.831,244.259c-0.495,0-0.898,0.403-0.898,0.898
					c0,3.222,2.621,5.843,5.843,5.843h109.53c3.222,0,5.843-2.621,5.843-5.843c0-0.495-0.403-0.898-0.898-0.898H108.831z"/>
			</g>
		</g>
		<g>
			<g>
				<path d="M158.873,150h-7.45c-3.046,0-5.524-2.479-5.524-5.525v-13.95c0-3.046,2.479-5.525,5.524-5.525h7.45
					c3.047,0,5.525,2.479,5.525,5.525v13.95C164.398,147.521,161.92,150,158.873,150z M151.423,130
					c-0.289,0-0.524,0.235-0.524,0.525v13.95c0,0.29,0.235,0.525,0.524,0.525h7.45c0.29,0,0.525-0.235,0.525-0.525v-13.95
					c0-0.29-0.235-0.525-0.525-0.525H151.423z"/>
			</g>
		</g>
		<g>
			<g>
				<path d="M149.456,130.001c-0.713,0-1.422-0.304-1.916-0.894c-1.548-1.844-3.392-5.008-3.392-9.607
					c0-4.275,2.688-7.403,5.06-10.162c1.504-1.75,2.924-3.402,3.168-4.826c0.229-1.339,1.173-2.423,2.464-2.831
					c1.286-0.405,2.678-0.063,3.631,0.898c3.729,3.755,11.578,13.803,3.917,25.967c-0.735,1.169-2.282,1.518-3.447,0.783
					c-1.169-0.736-1.52-2.279-0.783-3.448c4.771-7.574,1.587-14.091-1.679-18.061c-0.855,1.726-2.183,3.269-3.479,4.777
					c-1.98,2.305-3.852,4.482-3.852,6.903c0,2.485,0.748,4.637,2.222,6.395c0.888,1.058,0.749,2.635-0.309,3.522
					C150.594,129.809,150.023,130.001,149.456,130.001z"/>
			</g>
		</g>
		<g>
			<g>
				<path d="M160.06,160.5c-0.045,0-0.09-0.001-0.135-0.003c-1.379-0.073-2.438-1.25-2.363-2.629l0.573-10.772
					c0.072-1.379,1.275-2.434,2.629-2.364c1.379,0.073,2.438,1.25,2.363,2.629l-0.573,10.772
					C162.483,159.466,161.38,160.5,160.06,160.5z"/>
			</g>
		</g>
		<g>
			<g>
				<path d="M150.237,160.5c-1.32,0-2.424-1.033-2.494-2.367l-0.572-10.726c-0.074-1.379,0.984-2.556,2.363-2.63
					c1.361-0.069,2.556,0.984,2.629,2.363l0.572,10.726c0.074,1.379-0.984,2.556-2.363,2.63
					C150.327,160.499,150.282,160.5,150.237,160.5z"/>
			</g>
		</g>
		<g>
			<g>
				<path d="M164.148,211c-6.065,0-11-4.935-11-11s4.935-11,11-11s11,4.935,11,11S170.214,211,164.148,211z M164.148,194
					c-3.309,0-6,2.691-6,6s2.691,6,6,6s6-2.691,6-6S167.457,194,164.148,194z"/>
			</g>
		</g>
		<g>
			<g>
				<path d="M191.39,127.982h-16.483c-0.808,0-1.566-0.391-2.035-1.048c-0.47-0.658-0.592-1.501-0.329-2.266l6.66-19.342
					c0.59-1.71,2.139-2.814,3.946-2.814h0.001c1.808,0,3.355,1.105,3.944,2.814l6.66,19.342c0.263,0.764,0.141,1.608-0.329,2.266
					C192.956,127.591,192.197,127.982,191.39,127.982z M178.411,122.982h9.474l-4.736-13.756L178.411,122.982z M182.365,106.953
					c0.001,0,0.001,0.001,0.001,0.002L182.365,106.953L182.365,106.953z"/>
			</g>
		</g>
		<g>
			<g>
				<path d="M191.39,160.292c-1.381,0-2.5-1.119-2.5-2.5V125.5c0-1.381,1.119-2.5,2.5-2.5s2.5,1.119,2.5,2.5v32.292
					C193.89,159.173,192.771,160.292,191.39,160.292z"/>
			</g>
		</g>
		<g>
			<g>
				<path d="M183.148,160.292c-1.381,0-2.5-1.119-2.5-2.5v-31.762c0-1.381,1.119-2.5,2.5-2.5s2.5,1.119,2.5,2.5v31.762
					C185.648,159.173,184.529,160.292,183.148,160.292z"/>
			</g>
		</g>
		<g>
			<g>
				<path d="M174.906,160.292c-1.381,0-2.5-1.119-2.5-2.5v-32.31c0-1.381,1.119-2.5,2.5-2.5s2.5,1.119,2.5,2.5v32.31
					C177.406,159.173,176.287,160.292,174.906,160.292z"/>
			</g>
		</g>
		<g>
			<g>
				<path d="M183.148,119.463c-1.895,0-3.789-0.412-5.511-1.235c-1.246-0.595-1.772-2.088-1.178-3.333
					c0.596-1.246,2.09-1.773,3.334-1.177c2.07,0.99,4.547,1.002,6.628,0.037c1.251-0.582,2.738-0.036,3.319,1.216
					s0.037,2.739-1.216,3.32C186.839,119.072,184.993,119.463,183.148,119.463z"/>
			</g>
		</g>
		<g>
			<g>
				<path d="M102.983,186.658c-1.734,0-3.468-0.407-5.049-1.22c-11.908-6.126-21.91-15.312-28.924-26.565
					c-0.73-1.171-0.373-2.713,0.799-3.444c1.168-0.73,2.713-0.374,3.443,0.799c6.537,10.487,15.863,19.05,26.969,24.763
					c1.729,0.89,3.795,0.89,5.523,0c1.803-0.927,3.597-1.953,5.331-3.048c1.167-0.737,2.711-0.39,3.449,0.779
					c0.736,1.167,0.388,2.711-0.779,3.448c-1.858,1.173-3.781,2.272-5.714,3.267C106.451,186.251,104.718,186.658,102.983,186.658z"
					/>
			</g>
		</g>
		<g>
			<g>
				<path d="M50.5,221H26.958c-1.381,0-2.5-1.119-2.5-2.5s1.119-2.5,2.5-2.5H50.5c1.381,0,2.5,1.119,2.5,2.5S51.881,221,50.5,221z"
					/>
			</g>
		</g>
	</g>
</g>
<g id="Layer_6">
</g>
<g id="Layer_7">
</g>
<g id="Layer_8">
</g>
<g id="Layer_9">
</g>
<g id="Layer_10">
</g>
<g id="Layer_11">
</g>
<g id="Layer_12">
</g>
<g id="Layer_13">
</g>
<g id="Layer_14">
</g>
<g id="Layer_15">
</g>
<g id="Layer_16">
</g>
<g id="Layer_17">
</g>
<g id="Layer_18">
</g>
<g id="Layer_19">
</g>
<g id="Layer_20">
</g>
<g id="Layer_21">
</g>
<g id="Layer_22">
</g>
<g id="Layer_23">
</g>
<g id="Layer_24">
</g>
<g id="Layer_25">
</g>
<g id="Layer_26">
</g>
<g id="Layer_27">
</g>
<g id="Layer_28">
</g>
<g id="Layer_29">
</g>
<g id="Layer_30">
</g>
<g id="Layer_31">
</g>
<g id="Layer_32">
</g>
<g id="Layer_33">
</g>
<g id="Layer_34">
</g>
<g id="Layer_35">
</g>
<g id="Layer_36">
</g>
<g id="Layer_37">
</g>
<g id="Layer_38">
</g>
<g id="Layer_39">
</g>
<g id="Layer_40">
</g>
<g id="Layer_41">
</g>
<g id="Layer_42">
</g>
<g id="Layer_43">
</g>
<g id="Layer_44">
</g>
<g id="Layer_45">
</g>
<g id="Layer_46">
</g>
<g id="Layer_47">
</g>
<g id="Layer_48">
</g>
<g id="Layer_49">
</g>
<g id="Layer_50">
</g>
<g id="Layer_51">
</g>
<g id="Layer_52">
</g>
<g id="Layer_53">
</g>
<g id="Layer_54">
</g>
<g id="Layer_55">
</g>
<g id="Layer_56">
</g>
<g id="Layer_57">
</g>
<g id="Layer_58">
</g>
<g id="Layer_59">
</g>
<g id="Layer_60">
</g>
<g id="Layer_61">
</g>
<g id="Layer_62">
</g>
<g id="Layer_63">
</g>
<g id="Layer_64">
</g>
<g id="Layer_65">
</g>
<g id="Layer_66">
</g>
<g id="Layer_67">
</g>
<g id="Layer_68">
</g>
<g id="Layer_69">
</g>
<g id="Layer_70">
</g>
<g id="Layer_71">
</g>
<g id="Layer_72">
</g>
<g id="Layer_73">
</g>
<g id="Layer_74">
</g>
<g id="Layer_75">
</g>
<g id="Layer_76">
</g>
<g id="Layer_77">
</g>
<g id="Layer_78">
</g>
<g id="Layer_79">
</g>
<g id="Layer_80">
</g>
</svg>
