<?xml version="1.0" encoding="utf-8"?>
<!-- Generator: Adobe Illustrator 24.0.0, SVG Export Plug-In . SVG Version: 6.00 Build 0)  -->
<svg version="1.1" xmlns="http://www.w3.org/2000/svg" xmlns:xlink="http://www.w3.org/1999/xlink" x="0px" y="0px"
	 viewBox="0 0 256 256" style="enable-background:new 0 0 256 256;" xml:space="preserve">
<style type="text/css">
	.st0{fill:#3A70BF;}
	.st1{fill:#EDF4FC;}
	.st2{fill:#C7D7E5;}
	.st3{fill:#F9D0B4;}
	.st4{fill:#5B5D60;}
	.st5{fill:#5290DB;}
	.st6{fill:#70D6F9;}
	.st7{fill:#F5C84C;}
	.st8{fill:#FC657E;}
	.st9{fill:#87D147;}
	.st10{fill:#FCDD86;}
	.st11{fill:#9BE5F9;}
	.st12{fill:#B2E26D;}
	.st13{fill:#754E34;}
	.st14{fill:#FCA265;}
	.st15{fill:#818182;}
	.st16{fill:#F94EED;}
	.st17{fill:#FFC197;}
	.st18{fill:#3CAADC;}
	.st19{fill:#DAE6F1;}
	.st20{fill:#57AF12;}
	.st21{fill:#EF4460;}
	.st22{fill:#FFF0CA;}
	.st23{fill:#F98FA6;}
	.st24{fill:#EDB311;}
	.st25{fill:#FC8C48;}
	.st26{fill:#FCB9CB;}
	.st27{fill:#96BC71;}
	.st28{fill:#78A352;}
	.st29{fill:#B8DD90;}
	.st30{fill:#6FAFEF;}
	.st31{fill:#29589F;}
	.st32{fill:#414344;}
	.st33{fill:#9B6B4B;}
	.st34{fill:#73B1EF;}
</style>
<g id="Layer_1">
</g>
<g id="Layer_2">
</g>
<g id="Layer_3">
</g>
<g id="Layer_4">
</g>
<g id="Layer_5">
</g>
<g id="Layer_6">
</g>
<g id="Layer_7">
</g>
<g id="Layer_8">
</g>
<g id="Layer_9">
</g>
<g id="Layer_10">
</g>
<g id="Layer_11">
</g>
<g id="Layer_12">
</g>
<g id="Layer_13">
</g>
<g id="Layer_14">
</g>
<g id="Layer_15">
</g>
<g id="Layer_16">
</g>
<g id="Layer_17">
</g>
<g id="Layer_18">
</g>
<g id="Layer_19">
</g>
<g id="Layer_20">
</g>
<g id="Layer_21">
</g>
<g id="Layer_22">
	<g>
		<g>
			<g>
				<path class="st10" d="M177,65.5H79c-3.038,0-5.5,2.462-5.5,5.5c0,3.038,2.462,5.5,5.5,5.5h98c3.038,0,5.5-2.462,5.5-5.5
					C182.5,67.962,180.038,65.5,177,65.5z"/>
			</g>
		</g>
		<g>
			<g>
				<g>
					<path class="st7" d="M144.5,65.5V20.854c0-4.594-3.759-8.354-8.354-8.354h-16.293c-4.594,0-8.354,3.759-8.354,8.354V65.5H144.5
						z"/>
				</g>
			</g>
		</g>
		<g>
			<g>
				<path class="st24" d="M111.646,19.335C94.097,25.83,81.5,42.765,81.5,62.5v3h30V20.854
					C111.5,20.334,111.554,19.828,111.646,19.335z"/>
			</g>
		</g>
		<g>
			<g>
				<path class="st24" d="M144.419,19.756c0.048,0.36,0.081,0.724,0.081,1.097V65.5h29v-3v0
					C173.5,43.168,161.408,26.534,144.419,19.756z"/>
			</g>
		</g>
		<g>
			<g>
				<path class="st3" d="M162.732,76.5c0,6.57,0,17.716,0,21.955v0v0c0,0.783-0.036,1.558-0.088,2.329
					c0.756,0.122,1.526,0.202,2.316,0.202c8.009,0,14.501-6.492,14.501-14.501c0-3.874-1.529-7.385-4.004-9.986H162.732z"/>
			</g>
		</g>
		<g>
			<g>
				<g>
					<path class="st3" d="M93.268,76.5v21.955c0,19.102,15.629,34.732,34.732,34.732c19.102,0,34.732-15.629,34.732-34.732V76.5
						H93.268z"/>
				</g>
			</g>
		</g>
		<g>
			<g>
				<path class="st3" d="M93.268,76.5h-12.7c-2.486,2.599-4.029,6.104-4.029,9.986c0,8.008,6.492,14.501,14.501,14.501
					c0.79,0,1.56-0.08,2.316-0.202c-0.052-0.771-0.088-1.546-0.088-2.329V76.5z"/>
			</g>
		</g>
		<g>
			<g>
				<path class="st1" d="M158.648,150.265l-8.134-7.427c-0.753-0.687-1.917-0.646-2.619,0.092l-15.687,16.491
					c-0.77,0.81-0.78,2.078-0.022,2.899l8.157,8.837c0.936,1.014,2.552,0.97,3.431-0.094l15.054-18.223
					C159.465,152.071,159.385,150.938,158.648,150.265z"/>
			</g>
		</g>
		<g>
			<g>
				<path class="st1" d="M97.352,150.265l8.134-7.427c0.753-0.687,1.917-0.646,2.619,0.092l15.687,16.491
					c0.77,0.81,0.78,2.078,0.022,2.899l-8.157,8.837c-0.936,1.014-2.552,0.97-3.431-0.094L97.171,152.84
					C96.535,152.071,96.615,150.938,97.352,150.265z"/>
			</g>
		</g>
		<g>
			<g>
				<path class="st19" d="M200.078,173.902c-0.347-6.223-4.699-11.497-10.743-13.019l-24.833-6.269
					c-1.904-0.479-3.753-1.151-5.529-1.988c-0.045,0.072-0.088,0.145-0.143,0.213l-15.054,18.224
					c-0.879,1.064-2.495,1.109-3.431,0.094l-8.157-8.837c-0.223-0.242-0.372-0.525-0.462-0.821h-7.449
					c-0.09,0.296-0.239,0.579-0.462,0.821l-8.157,8.837c-0.936,1.014-2.552,0.97-3.431-0.094L97.171,152.84
					c-0.056-0.067-0.099-0.14-0.143-0.213c-1.775,0.837-3.624,1.509-5.529,1.988l-24.833,6.269
					c-6.044,1.521-10.396,6.796-10.743,13.019l-2.744,75.418c-0.127,2.269,1.68,4.179,3.953,4.179h21.99
					c1.478,0,2.677-1.198,2.677-2.677v-47.143l3.883,12.439c2.539,8.133,3.83,16.604,3.83,25.124v9.58
					c0,1.478,1.198,2.677,2.677,2.677c10.261,0,61.413,0,71.626,0c1.478,0,2.677-1.198,2.677-2.677v-9.58
					c0-8.52,1.291-16.991,3.83-25.124l3.883-12.439v47.143c0,1.478,1.198,2.677,2.677,2.677h21.99c2.273,0,4.079-1.91,3.953-4.179
					L200.078,173.902z"/>
			</g>
		</g>
		<g>
			<g>
				<path class="st13" d="M170.675,121.5c4.1-10.251,3.995-18.131,2.92-23.384c-2.414,1.795-5.395,2.871-8.634,2.871
					c-0.79,0-1.56-0.08-2.316-0.202c-0.816,12.152-7.945,22.647-18.124,28.194v10.533c0,1.92,0.581,3.746,1.595,5.291l1.781-1.872
					c0.702-0.738,1.866-0.779,2.619-0.092l8.134,7.427c0.672,0.614,0.791,1.608,0.324,2.362c1.775,0.837,3.624,1.509,5.529,1.988
					l17.511,4.42C183.561,142.809,166.02,133.137,170.675,121.5z"/>
			</g>
		</g>
		<g>
			<g>
				<path class="st13" d="M97.352,150.265l8.134-7.427c0.753-0.687,1.917-0.646,2.619,0.092l1.781,1.872
					c1.014-1.545,1.595-3.371,1.595-5.291v-10.533c-10.179-5.548-17.308-16.042-18.124-28.194c-0.756,0.122-1.526,0.202-2.316,0.202
					c-3.239,0-6.22-1.075-8.634-2.87c-1.075,5.253-1.18,13.133,2.92,23.384c4.655,11.637-12.887,21.309-11.338,37.536l17.511-4.42
					c1.904-0.479,3.753-1.151,5.529-1.988C96.561,151.873,96.679,150.879,97.352,150.265z"/>
			</g>
		</g>
		<g>
			<g>
				<path class="st3" d="M128,133.187c-5.97,0-11.6-1.526-16.52-4.208v10.533c0,1.92-0.581,3.746-1.595,5.291l13.906,14.619
					c0.543,0.571,0.7,1.368,0.484,2.078h7.449c-0.216-0.71-0.059-1.507,0.484-2.078l13.906-14.619
					c-1.014-1.545-1.595-3.371-1.595-5.291v-10.533C139.6,131.661,133.97,133.187,128,133.187z"/>
			</g>
		</g>
		<g>
			<g>
				<g>
					<path class="st25" d="M164.5,212.253v-57.638c-1.904-0.479-3.752-1.151-5.527-1.988c-0.045,0.072-0.088,0.145-0.143,0.213
						l-8.818,10.675v35.137c0,8.753-7.095,15.848-15.848,15.848h-11.326c-8.753,0-15.848-7.095-15.848-15.848v-33.927l-9.818-11.885
						c-0.056-0.067-0.099-0.14-0.143-0.213c-1.775,0.837-3.623,1.508-5.527,1.988v57.638c0,3.875-1.61,7.37-4.19,9.869
						c1.458,6.263,2.2,12.677,2.2,19.121v9.58c0,1.478,1.198,2.677,2.677,2.677c10.261,0,61.413,0,71.626,0
						c1.478,0,2.677-1.198,2.677-2.677v-9.58c0-6.444,0.741-12.859,2.2-19.121C166.11,219.623,164.5,216.129,164.5,212.253z"/>
				</g>
			</g>
		</g>
		<g>
			<g>
				<rect x="91.5" y="174" class="st7" width="15.489" height="20.5"/>
			</g>
		</g>
		<g>
			<g>
				<rect x="150.011" y="174" class="st7" width="14.489" height="20.5"/>
			</g>
		</g>
		<g>
			<g>
				<path class="st7" d="M89.097,233c0.269,2.736,0.414,5.487,0.414,8.243v9.58c0,1.478,1.198,2.677,2.677,2.677
					c10.261,0,61.413,0,71.626,0c1.478,0,2.677-1.198,2.677-2.677v-9.58c0-2.757,0.144-5.507,0.413-8.243H89.097z"/>
			</g>
		</g>
		<g>
			<g>
				<path d="M128,117.757c-4.776,0-9.262-1.95-11.999-5.215c-0.887-1.058-0.748-2.635,0.31-3.522c1.06-0.887,2.636-0.748,3.522,0.31
					c1.798,2.146,4.852,3.427,8.167,3.427s6.369-1.281,8.167-3.427c0.887-1.058,2.464-1.198,3.522-0.31
					c1.058,0.887,1.197,2.464,0.31,3.522C137.262,115.808,132.776,117.757,128,117.757z"/>
			</g>
		</g>
		<g>
			<g>
				<circle cx="143.111" cy="90.5" r="4.5"/>
			</g>
		</g>
		<g>
			<g>
				<circle cx="112.889" cy="90.5" r="4.5"/>
			</g>
		</g>
		<g>
			<g>
				<path d="M177,79H79c-4.411,0-8-3.589-8-8s3.589-8,8-8h98c4.411,0,8,3.589,8,8S181.411,79,177,79z M79,68c-1.654,0-3,1.346-3,3
					s1.346,3,3,3h98c1.654,0,3-1.346,3-3s-1.346-3-3-3H79z"/>
			</g>
		</g>
		<g>
			<g>
				<g>
					<path d="M144.5,67.25c-1.381,0-2.5-1.119-2.5-2.5V20.854c0-3.228-2.626-5.854-5.854-5.854h-16.293
						c-3.228,0-5.854,2.626-5.854,5.854v43.741c0,1.381-1.119,2.5-2.5,2.5s-2.5-1.119-2.5-2.5V20.854
						C109,14.869,113.869,10,119.854,10h16.293C142.131,10,147,14.869,147,20.854V64.75C147,66.13,145.881,67.25,144.5,67.25z"/>
				</g>
			</g>
		</g>
		<g>
			<g>
				<path d="M81.5,67.479c-1.381,0-2.5-1.119-2.5-2.5V62.5c0-20.04,12.647-38.282,31.472-45.395c1.293-0.49,2.735,0.164,3.222,1.455
					c0.488,1.292-0.163,2.734-1.455,3.223C95.349,28.164,84,44.527,84,62.5v2.479C84,66.36,82.881,67.479,81.5,67.479z"/>
			</g>
		</g>
		<g>
			<g>
				<path d="M173.5,66.875c-1.381,0-2.5-1.119-2.5-2.5V62.5c0-17.612-10.572-33.387-26.933-40.188
					c-1.275-0.53-1.879-1.993-1.349-3.268s1.995-1.878,3.268-1.349C164.219,25.274,176,42.861,176,62.5v1.875
					C176,65.756,174.881,66.875,173.5,66.875z"/>
			</g>
		</g>
		<g>
			<g>
				<path d="M128,58.25c-1.381,0-2.5-1.119-2.5-2.5V21.984c0-1.381,1.119-2.5,2.5-2.5s2.5,1.119,2.5,2.5V55.75
					C130.5,57.131,129.381,58.25,128,58.25z"/>
			</g>
		</g>
		<g>
			<g>
				<path d="M164.96,103.487c-0.699,0-1.417-0.051-2.192-0.157c-1.368-0.186-2.327-1.445-2.141-2.813
					c0.186-1.368,1.442-2.328,2.813-2.141c0.55,0.075,1.047,0.111,1.52,0.111c6.617,0,12-5.384,12-12.001
					c0-2.945-1.087-5.781-3.06-7.986c-0.92-1.029-0.833-2.609,0.196-3.53c1.028-0.921,2.608-0.833,3.53,0.196
					c2.794,3.124,4.333,7.144,4.333,11.32C181.961,95.86,174.334,103.487,164.96,103.487z"/>
			</g>
		</g>
		<g>
			<g>
				<g>
					<path d="M128,135.687c-20.53,0-37.232-16.702-37.232-37.232V77.208c0-1.381,1.119-2.5,2.5-2.5s2.5,1.119,2.5,2.5v21.247
						c0,17.773,14.459,32.232,32.232,32.232c17.772,0,32.231-14.459,32.231-32.232V77.333c0-1.381,1.119-2.5,2.5-2.5
						s2.5,1.119,2.5,2.5v21.122C165.231,118.985,148.529,135.687,128,135.687z"/>
				</g>
			</g>
		</g>
		<g>
			<g>
				<path d="M91.04,103.487c-9.374,0-17-7.626-17-17.001c0-4.232,1.585-8.294,4.463-11.438c0.933-1.018,2.515-1.087,3.532-0.155
					c1.018,0.933,1.088,2.514,0.155,3.532c-2.032,2.219-3.151,5.082-3.151,8.061c0,6.617,5.383,12.001,12,12.001
					c0.422,0,0.861-0.029,1.341-0.088c1.376-0.169,2.618,0.807,2.787,2.176c0.168,1.371-0.806,2.618-2.176,2.787
					C92.306,103.446,91.667,103.487,91.04,103.487z"/>
			</g>
		</g>
		<g>
			<g>
				<path d="M142.018,174.391c-1.332,0-2.605-0.556-3.511-1.538l-8.157-8.836c-1.646-1.783-1.626-4.558,0.046-6.318l15.688-16.492
					c1.628-1.71,4.372-1.807,6.116-0.216l8.134,7.427h0c1.723,1.574,1.908,4.215,0.421,6.014l-15.053,18.223
					c-0.879,1.064-2.174,1.696-3.553,1.733C142.105,174.391,142.062,174.391,142.018,174.391z M134.265,160.887l7.744,8.39
					l14.512-17.568l-7.238-6.609L134.265,160.887z M156.96,152.109c0.001,0,0.001,0.001,0.002,0.002L156.96,152.109z"/>
			</g>
		</g>
		<g>
			<g>
				<path d="M113.982,174.391c-0.044,0-0.087,0-0.131-0.002c-1.379-0.038-2.674-0.669-3.553-1.733l-15.054-18.224
					c-1.486-1.798-1.301-4.439,0.422-6.013h0l8.134-7.427c1.744-1.593,4.489-1.496,6.116,0.216l15.687,16.491
					c1.673,1.76,1.693,4.535,0.047,6.318l-8.157,8.836C116.587,173.835,115.313,174.391,113.982,174.391z M99.479,151.708
					l14.512,17.568l7.744-8.39l-15.018-15.788L99.479,151.708z M99.038,152.111c0-0.001,0.001-0.001,0.002-0.002L99.038,152.111
					L99.038,152.111z"/>
			</g>
		</g>
		<g>
			<g>
				<path d="M198.869,256H176.88c-2.854,0-5.177-2.322-5.177-5.177v-30.476c-1.802,6.816-2.713,13.829-2.713,20.896v9.58
					c0,2.854-2.322,5.177-5.177,5.177H92.187c-2.854,0-5.177-2.322-5.177-5.177v-9.58c0-7.066-0.912-14.079-2.713-20.896v30.476
					c0,2.854-2.322,5.177-5.176,5.177h-21.99c-1.768,0-3.478-0.736-4.693-2.021c-1.214-1.284-1.854-3.033-1.756-4.798l2.742-75.37
					c0.412-7.403,5.487-13.554,12.631-15.352l24.832-6.268c1.512-0.381,3.021-0.904,4.485-1.556c1.26-0.562,2.739,0.006,3.3,1.268
					s-0.007,2.739-1.268,3.3c-1.726,0.768-3.508,1.385-5.295,1.835l-24.832,6.268c-5.012,1.262-8.571,5.575-8.859,10.734
					l-2.742,75.37c-0.033,0.594,0.233,0.961,0.394,1.132c0.162,0.17,0.514,0.457,1.061,0.457h21.99c0.097,0,0.176-0.079,0.176-0.177
					v-47.143c0-1.235,0.902-2.285,2.123-2.472c1.22-0.183,2.395,0.548,2.763,1.727l3.883,12.438
					c2.617,8.383,3.944,17.087,3.944,25.87v9.58c0,0.098,0.079,0.177,0.177,0.177h71.626c0.098,0,0.177-0.079,0.177-0.177v-9.58
					c0-8.783,1.327-17.487,3.944-25.87l3.883-12.438c0.368-1.179,1.543-1.909,2.763-1.727c1.221,0.187,2.123,1.236,2.123,2.472
					v47.143c0,0.098,0.079,0.177,0.177,0.177h21.989c0.547,0,0.899-0.286,1.061-0.457c0.161-0.17,0.427-0.538,0.396-1.083
					l-2.747-75.467c-0.285-5.11-3.844-9.424-8.854-10.685l-24.835-6.269c-1.897-0.477-3.789-1.145-5.623-1.983
					c-1.255-0.574-1.808-2.058-1.233-3.313c0.574-1.256,2.058-1.807,3.313-1.233c1.558,0.712,3.161,1.278,4.765,1.682l24.835,6.269
					c7.142,1.798,12.217,7.948,12.627,15.303l2.747,75.467c0.096,1.717-0.544,3.465-1.759,4.75
					C202.347,255.264,200.637,256,198.869,256z"/>
			</g>
		</g>
		<g>
			<g>
				<path d="M182.075,160.757c-0.05,0-0.1-0.001-0.149-0.004c-1.378-0.081-2.43-1.265-2.349-2.643
					c0.408-6.917-3.084-12.625-6.461-18.145c-3.722-6.083-7.57-12.374-4.762-19.394c3.866-9.664,3.71-16.974,2.898-21.405
					c-0.249-1.358,0.65-2.661,2.009-2.909c1.352-0.249,2.661,0.65,2.909,2.009c1.353,7.386,0.285,15.516-3.174,24.163
					c-1.786,4.465,0.502,8.581,4.385,14.927c3.604,5.89,7.688,12.566,7.188,21.048C184.49,159.732,183.388,160.757,182.075,160.757z
					"/>
			</g>
		</g>
		<g>
			<g>
				<path d="M73.928,160.798c-1.311,0-2.412-1.021-2.493-2.348c-0.518-8.504,3.574-15.193,7.185-21.094
					c3.882-6.346,6.171-10.462,4.385-14.927c-3.449-8.625-4.521-16.736-3.184-24.108c0.247-1.359,1.547-2.258,2.906-2.014
					c1.359,0.247,2.26,1.547,2.014,2.906c-1.15,6.344-0.145,13.729,2.907,21.359c2.808,7.02-1.041,13.31-4.762,19.393
					c-3.383,5.53-6.881,11.248-6.458,18.181c0.084,1.378-0.965,2.563-2.344,2.647C74.031,160.796,73.979,160.798,73.928,160.798z"/>
			</g>
		</g>
		<g>
			<g>
				<path d="M145.757,146.711c-0.875,0-1.726-0.46-2.184-1.279c-1.017-1.815-1.554-3.862-1.554-5.92v-9.887
					c0-1.381,1.119-2.5,2.5-2.5s2.5,1.119,2.5,2.5v9.887c0,1.205,0.317,2.407,0.916,3.477c0.675,1.205,0.245,2.728-0.959,3.403
					C146.59,146.608,146.171,146.711,145.757,146.711z"/>
			</g>
		</g>
		<g>
			<g>
				<path d="M131.25,164H125c-1.381,0-2.5-1.119-2.5-2.5s1.119-2.5,2.5-2.5h6.25c1.381,0,2.5,1.119,2.5,2.5S132.631,164,131.25,164z
					"/>
			</g>
		</g>
		<g>
			<g>
				<path d="M110.267,146.668c-0.41,0-0.825-0.101-1.208-0.313c-1.208-0.669-1.645-2.19-0.976-3.398
					c0.587-1.061,0.898-2.252,0.898-3.445v-9.762c0-1.381,1.119-2.5,2.5-2.5s2.5,1.119,2.5,2.5v9.762
					c0,2.038-0.527,4.066-1.524,5.867C112,146.203,111.146,146.668,110.267,146.668z"/>
			</g>
		</g>
		<g>
			<g>
				<path d="M128,255c-1.381,0-2.5-1.119-2.5-2.5v-40c0-1.381,1.119-2.5,2.5-2.5s2.5,1.119,2.5,2.5v40
					C130.5,253.881,129.381,255,128,255z"/>
			</g>
		</g>
		<g>
			<g>
				<path class="st7" d="M61.822,125.33c-4.498-0.838-8.043-4.31-8.898-8.716c-0.043-0.221-0.352-0.221-0.395,0
					c-0.855,4.406-4.4,7.879-8.898,8.716c-0.226,0.042-0.226,0.345,0,0.387c4.498,0.838,8.043,4.31,8.898,8.717
					c0.043,0.221,0.352,0.221,0.395,0c0.855-4.406,4.4-7.879,8.898-8.717C62.047,125.675,62.047,125.373,61.822,125.33z"/>
			</g>
		</g>
		<g>
			<g>
				<path class="st7" d="M199.515,112.101c-2.862-0.533-5.118-2.743-5.663-5.547c-0.027-0.141-0.224-0.141-0.251,0
					c-0.544,2.804-2.8,5.014-5.663,5.547c-0.144,0.027-0.144,0.219,0,0.246c2.862,0.533,5.118,2.743,5.663,5.547
					c0.027,0.141,0.224,0.141,0.251,0c0.544-2.804,2.8-5.014,5.663-5.547C199.658,112.32,199.658,112.128,199.515,112.101z"/>
			</g>
		</g>
		<g>
			<g>
				<path class="st6" d="M182.246,25.75h2.33v-2.33c0-1.744,1.413-3.157,3.157-3.157s3.157,1.413,3.157,3.157v2.33h2.329
					c1.744,0,3.157,1.413,3.157,3.157s-1.413,3.157-3.157,3.157h-2.329v2.33c0,1.744-1.413,3.157-3.157,3.157
					s-3.157-1.413-3.157-3.157v-2.33h-2.33c-1.744,0-3.157-1.413-3.157-3.157S180.502,25.75,182.246,25.75z"/>
			</g>
		</g>
		<g>
			<g>
				<circle class="st8" cx="40.755" cy="154.825" r="3.377"/>
			</g>
		</g>
		<g>
			<g>
				<circle class="st9" cx="174.755" cy="3.377" r="3.377"/>
			</g>
		</g>
		<g>
			<g>
				<g>
					<path d="M134.163,217h-11.326c-10.117,0-18.348-8.231-18.348-18.348V165.5c0-1.381,1.119-2.5,2.5-2.5s2.5,1.119,2.5,2.5v33.152
						c0,7.36,5.988,13.348,13.348,13.348h11.326c7.36,0,13.348-5.988,13.348-13.348v-34.756c0-1.381,1.119-2.5,2.5-2.5
						s2.5,1.119,2.5,2.5v34.756C152.511,208.769,144.28,217,134.163,217z"/>
				</g>
			</g>
			<g>
				<g>
					<path d="M168.502,224.438c-0.643,0-1.285-0.246-1.773-0.738c-3.05-3.068-4.729-7.133-4.729-11.446V155.25
						c0-1.381,1.119-2.5,2.5-2.5s2.5,1.119,2.5,2.5v57.003c0,2.983,1.163,5.796,3.275,7.922c0.974,0.979,0.969,2.562-0.011,3.535
						C169.777,224.195,169.14,224.438,168.502,224.438z"/>
				</g>
			</g>
			<g>
				<g>
					<path d="M87.582,224.352c-0.63,0-1.261-0.237-1.747-0.712c-0.988-0.965-1.006-2.548-0.041-3.535
						C87.861,217.989,89,215.2,89,212.253v-56.565c0-1.381,1.119-2.5,2.5-2.5s2.5,1.119,2.5,2.5v56.565
						c0,4.261-1.645,8.29-4.63,11.346C88.88,224.101,88.231,224.352,87.582,224.352z"/>
				</g>
			</g>
		</g>
		<g>
			<g>
				<path d="M106.375,197H92.083c-1.381,0-2.5-1.119-2.5-2.5s1.119-2.5,2.5-2.5h14.292c1.381,0,2.5,1.119,2.5,2.5
					S107.755,197,106.375,197z"/>
			</g>
		</g>
		<g>
			<g>
				<path d="M106.5,176.5H92.083c-1.381,0-2.5-1.119-2.5-2.5s1.119-2.5,2.5-2.5H106.5c1.381,0,2.5,1.119,2.5,2.5
					S107.88,176.5,106.5,176.5z"/>
			</g>
		</g>
		<g>
			<g>
				<path d="M163.958,197h-13.376c-1.381,0-2.5-1.119-2.5-2.5s1.119-2.5,2.5-2.5h13.376c1.381,0,2.5,1.119,2.5,2.5
					S165.339,197,163.958,197z"/>
			</g>
		</g>
		<g>
			<g>
				<path d="M164.031,176.5h-13.437c-1.381,0-2.5-1.119-2.5-2.5s1.119-2.5,2.5-2.5h13.437c1.381,0,2.5,1.119,2.5,2.5
					S165.412,176.5,164.031,176.5z"/>
			</g>
		</g>
		<g>
			<g>
				<path d="M166.313,235.5H90c-1.381,0-2.5-1.119-2.5-2.5s1.119-2.5,2.5-2.5h76.313c1.381,0,2.5,1.119,2.5,2.5
					S167.694,235.5,166.313,235.5z"/>
			</g>
		</g>
	</g>
</g>
<g id="Layer_23">
</g>
<g id="Layer_24">
</g>
<g id="Layer_25">
</g>
<g id="Layer_26">
</g>
<g id="Layer_27">
</g>
<g id="Layer_28">
</g>
<g id="Layer_29">
</g>
<g id="Layer_30">
</g>
<g id="Layer_31">
</g>
<g id="Layer_32">
</g>
<g id="Layer_33">
</g>
<g id="Layer_34">
</g>
<g id="Layer_35">
</g>
<g id="Layer_36">
</g>
<g id="Layer_37">
</g>
<g id="Layer_38">
</g>
<g id="Layer_39">
</g>
<g id="Layer_40">
</g>
<g id="Layer_41">
</g>
<g id="Layer_42">
</g>
<g id="Layer_43">
</g>
<g id="Layer_44">
</g>
<g id="Layer_45">
</g>
<g id="Layer_46">
</g>
<g id="Layer_47">
</g>
<g id="Layer_48">
</g>
<g id="Layer_49">
</g>
<g id="Layer_50">
</g>
<g id="Layer_51">
</g>
<g id="Layer_52">
</g>
<g id="Layer_53">
</g>
<g id="Layer_54">
</g>
<g id="Layer_55">
</g>
<g id="Layer_56">
</g>
<g id="Layer_57">
</g>
<g id="Layer_58">
</g>
<g id="Layer_59">
</g>
<g id="Layer_60">
</g>
<g id="Layer_61">
</g>
<g id="Layer_62">
</g>
<g id="Layer_63">
</g>
<g id="Layer_64">
</g>
<g id="Layer_65">
</g>
<g id="Layer_66">
</g>
<g id="Layer_67">
</g>
<g id="Layer_68">
</g>
<g id="Layer_69">
</g>
<g id="Layer_70">
</g>
<g id="Layer_71">
</g>
<g id="Layer_72">
</g>
<g id="Layer_73">
</g>
<g id="Layer_74">
</g>
<g id="Layer_75">
</g>
<g id="Layer_76">
</g>
<g id="Layer_77">
</g>
<g id="Layer_78">
</g>
<g id="Layer_79">
</g>
<g id="Layer_80">
</g>
</svg>
