<?xml version="1.0" encoding="utf-8"?>
<!-- Generator: Adobe Illustrator 24.0.0, SVG Export Plug-In . SVG Version: 6.00 Build 0)  -->
<svg version="1.1" xmlns="http://www.w3.org/2000/svg" xmlns:xlink="http://www.w3.org/1999/xlink" x="0px" y="0px"
	 viewBox="0 0 256 256" style="enable-background:new 0 0 256 256;" xml:space="preserve">
<style type="text/css">
	.st0{fill:#3A70BF;}
	.st1{fill:#EDF4FC;}
	.st2{fill:#C7D7E5;}
	.st3{fill:#F9D0B4;}
	.st4{fill:#5B5D60;}
	.st5{fill:#5290DB;}
	.st6{fill:#70D6F9;}
	.st7{fill:#F5C84C;}
	.st8{fill:#FC657E;}
	.st9{fill:#87D147;}
	.st10{fill:#FCDD86;}
	.st11{fill:#9BE5F9;}
	.st12{fill:#B2E26D;}
	.st13{fill:#754E34;}
	.st14{fill:#FCA265;}
	.st15{fill:#818182;}
	.st16{fill:#F94EED;}
	.st17{fill:#FFC197;}
	.st18{fill:#3CAADC;}
	.st19{fill:#DAE6F1;}
	.st20{fill:#57AF12;}
	.st21{fill:#EF4460;}
	.st22{fill:#FFF0CA;}
	.st23{fill:#F98FA6;}
	.st24{fill:#EDB311;}
	.st25{fill:#FC8C48;}
	.st26{fill:#FCB9CB;}
	.st27{fill:#96BC71;}
	.st28{fill:#78A352;}
	.st29{fill:#B8DD90;}
	.st30{fill:#6FAFEF;}
	.st31{fill:#29589F;}
	.st32{fill:#414344;}
	.st33{fill:#9B6B4B;}
	.st34{fill:#73B1EF;}
</style>
<g id="Layer_1">
</g>
<g id="Layer_2">
</g>
<g id="Layer_3">
</g>
<g id="Layer_4">
</g>
<g id="Layer_5">
</g>
<g id="Layer_6">
</g>
<g id="Layer_7">
</g>
<g id="Layer_8">
</g>
<g id="Layer_9">
</g>
<g id="Layer_10">
</g>
<g id="Layer_11">
</g>
<g id="Layer_12">
</g>
<g id="Layer_13">
</g>
<g id="Layer_14">
</g>
<g id="Layer_15">
</g>
<g id="Layer_16">
</g>
<g id="Layer_17">
</g>
<g id="Layer_18">
</g>
<g id="Layer_19">
</g>
<g id="Layer_20">
</g>
<g id="Layer_21">
	<g>
		<g>
			<g>
				<path d="M178.958,256H77c-1.381,0-2.5-1.119-2.5-2.5s1.119-2.5,2.5-2.5h101.958c1.381,0,2.5,1.119,2.5,2.5
					S180.339,256,178.958,256z"/>
			</g>
		</g>
	</g>
	<g>
		<g>
			<g>
				<g>
					<path class="st1" d="M158.648,153.265l-8.134-7.427c-0.753-0.687-1.917-0.646-2.619,0.092l-15.687,16.491
						c-0.77,0.81-0.78,2.078-0.022,2.899l8.157,8.837c0.936,1.014,2.552,0.97,3.431-0.094l15.054-18.223
						C159.465,155.071,159.385,153.938,158.648,153.265z"/>
				</g>
			</g>
		</g>
		<g>
			<g>
				<g>
					<path class="st1" d="M97.352,153.265l8.134-7.427c0.753-0.687,1.917-0.646,2.619,0.092l15.687,16.491
						c0.77,0.81,0.78,2.078,0.022,2.899l-8.157,8.837c-0.936,1.014-2.552,0.97-3.431-0.094L97.171,155.84
						C96.535,155.071,96.615,153.938,97.352,153.265z"/>
				</g>
			</g>
		</g>
		<g>
			<g>
				<g>
					<path class="st3" d="M110.855,140.972c0,2.204-0.568,4.32-1.589,6.18l14.525,15.27c0.294,0.309,0.475,0.685,0.547,1.078h7.323
						c0.072-0.393,0.253-0.769,0.547-1.078l14.525-15.27c-1.021-1.86-1.589-3.976-1.589-6.18v-6.335
						c-5.268,2.868-11.296,4.501-17.686,4.501h0c-5.959,0-11.597-1.427-16.604-3.945V140.972z"/>
				</g>
			</g>
		</g>
		<g>
			<g>
				<g>
					<path class="st1" d="M50.159,220h26.296v13H50.159c-1.217,0-2.204-0.987-2.204-2.204v-8.592
						C47.955,220.987,48.942,220,50.159,220z"/>
				</g>
			</g>
		</g>
		<g>
			<g>
				<g>
					<path class="st1" d="M205.841,220h-26.296v13h26.296c1.217,0,2.204-0.987,2.204-2.204v-8.592
						C208.045,220.987,207.058,220,205.841,220z"/>
				</g>
			</g>
		</g>
		<g>
			<g>
				<g>
					<path class="st3" d="M76.455,253.5V233H50.314l-0.939,16.19c-0.13,2.34,1.732,4.31,4.076,4.31H76.455z"/>
				</g>
			</g>
		</g>
		<g>
			<g>
				<g>
					<path class="st3" d="M202.549,253.5c2.344,0,4.207-1.969,4.076-4.31L205.686,233h-26.142v20.5H202.549z"/>
				</g>
			</g>
		</g>
		<g>
			<g>
				<g>
					<path class="st19" d="M76.455,253.5h103.09c0-8.151,0-28.17,0-33.5h25.388l-2.422-41.761
						c-0.357-6.417-4.846-11.856-11.078-13.425l-28.902-7.275l-3.638-1.794c-0.022,0.031-0.039,0.064-0.064,0.094l-15.054,18.224
						c-0.879,1.064-2.495,1.109-3.431,0.094l-8.157-8.837c-0.468-0.508-0.642-1.186-0.526-1.821h-7.323
						c0.116,0.635-0.057,1.314-0.526,1.821l-8.157,8.837c-0.936,1.014-2.552,0.97-3.431-0.094L97.171,155.84
						c-0.025-0.03-0.041-0.063-0.064-0.094l-3.638,1.794l-28.902,7.275c-6.233,1.569-10.721,7.008-11.078,13.425L51.067,220h25.388
						C76.455,230.086,76.455,242.689,76.455,253.5z"/>
				</g>
			</g>
		</g>
		<g>
			<g>
				<g>
					<path class="st10" d="M177,65.5H79c-3.038,0-5.5,2.462-5.5,5.5c0,3.038,2.462,5.5,5.5,5.5h98c3.038,0,5.5-2.462,5.5-5.5
						C182.5,67.962,180.038,65.5,177,65.5z"/>
				</g>
			</g>
		</g>
		<g>
			<g>
				<g>
					<path class="st3" d="M176.131,76.5h-11.457c0,6.553,0,20.441,0,25.423c0,0.839-0.038,1.67-0.094,2.496
						c0.81,0.13,1.635,0.217,2.482,0.217c8.581,0,15.537-6.956,15.537-15.537C182.599,83.906,180.043,79.322,176.131,76.5z"/>
				</g>
			</g>
		</g>
		<g>
			<g>
				<g>
					<g>
						<path class="st3" d="M90.244,76.5v25.423c0,20.468,16.747,37.215,37.215,37.215h0c20.468,0,37.215-16.747,37.215-37.215V76.5
							H90.244z"/>
					</g>
				</g>
			</g>
		</g>
		<g>
			<g>
				<g>
					<path class="st3" d="M90.244,76.5H79c-0.068,0-0.133-0.008-0.2-0.01c-3.92,2.821-6.482,7.41-6.482,12.608
						c0,8.581,6.956,15.537,15.538,15.537c0.847,0,1.672-0.086,2.482-0.217v-0.001c-0.055-0.826-0.094-1.656-0.094-2.495
						C90.244,98.481,90.244,84.84,90.244,76.5z"/>
				</g>
			</g>
		</g>
		<g>
			<g>
				<g>
					<g>
						<path class="st7" d="M144.5,65.5V20.854c0-4.594-3.759-8.354-8.354-8.354h-16.293c-4.594,0-8.354,3.759-8.354,8.354V65.5
							H144.5z"/>
					</g>
				</g>
			</g>
		</g>
		<g>
			<g>
				<g>
					<path class="st24" d="M111.646,19.335C94.097,25.83,81.5,42.765,81.5,62.5v3h30V20.854
						C111.5,20.334,111.554,19.828,111.646,19.335z"/>
				</g>
			</g>
		</g>
		<g>
			<g>
				<g>
					<path class="st24" d="M144.419,19.756c0.048,0.36,0.081,0.724,0.081,1.097V65.5h29v-3v0
						C173.5,43.168,161.408,26.534,144.419,19.756z"/>
				</g>
			</g>
		</g>
		<g>
			<g>
				<g>
					<path class="st25" d="M178.247,226c-7.592,0-13.747-6.155-13.747-13.747v-54.218l-1.969-0.496l-3.638-1.794
						c-0.022,0.031-0.039,0.064-0.064,0.094l-8.818,10.675v32.137c0,8.753-7.095,15.848-15.848,15.848h-11.326
						c-8.753,0-15.848-7.095-15.848-15.848v-30.927l-9.818-11.885c-0.025-0.03-0.041-0.063-0.064-0.094l-3.638,1.794l-1.969,0.496
						v54.218c0,7.592-6.155,13.747-13.747,13.747h-1.298c0,8.817,0,18.746,0,27.5h103.09c0-6.198,0-19.254,0-27.5H178.247z"/>
				</g>
			</g>
		</g>
		<g>
			<g>
				<g>
					<path class="st7" d="M76.455,233c0,6.858,0,14.002,0,20.5h103.09c0-4.628,0-13.081,0-20.5H76.455z"/>
				</g>
			</g>
		</g>
		<g>
			<g>
				<g>
					<rect x="91.5" y="174" class="st7" width="15.489" height="20.5"/>
				</g>
			</g>
		</g>
		<g>
			<g>
				<g>
					<rect x="150.011" y="174" class="st7" width="14.489" height="20.5"/>
				</g>
			</g>
		</g>
		<g>
			<g>
				<g>
					<path d="M179.545,255.04c-1.381,0-2.5-1.119-2.5-2.5v-56.644c0-1.381,1.119-2.5,2.5-2.5s2.5,1.119,2.5,2.5v56.644
						C182.045,253.92,180.926,255.04,179.545,255.04z"/>
				</g>
			</g>
		</g>
		<g>
			<g>
				<g>
					<path d="M76.455,255.04c-1.381,0-2.5-1.119-2.5-2.5v-56.644c0-1.381,1.119-2.5,2.5-2.5s2.5,1.119,2.5,2.5v56.644
						C78.955,253.92,77.836,255.04,76.455,255.04z"/>
				</g>
			</g>
		</g>
		<g>
			<g>
				<g>
					<path d="M128,118.573c-4.776,0-9.262-1.95-11.999-5.215c-0.887-1.058-0.748-2.635,0.31-3.522
						c1.06-0.887,2.636-0.747,3.522,0.31c1.798,2.146,4.852,3.427,8.167,3.427s6.369-1.281,8.167-3.426
						c0.887-1.058,2.464-1.197,3.522-0.31s1.197,2.464,0.31,3.522C137.262,116.624,132.776,118.573,128,118.573z"/>
				</g>
			</g>
		</g>
		<g>
			<g>
				<g>
					<circle cx="144.789" cy="90.816" r="5"/>
				</g>
			</g>
		</g>
		<g>
			<g>
				<g>
					<circle cx="111.211" cy="90.816" r="5"/>
				</g>
			</g>
		</g>
		<g>
			<g>
				<g>
					<path d="M142.018,177.391c-1.332,0-2.605-0.556-3.511-1.538l-8.157-8.836c-1.646-1.783-1.626-4.558,0.046-6.318l15.688-16.492
						c1.627-1.71,4.372-1.807,6.116-0.216l8.134,7.427h0c1.723,1.574,1.908,4.215,0.421,6.014l-15.053,18.223
						c-0.879,1.064-2.174,1.696-3.553,1.733C142.105,177.391,142.062,177.391,142.018,177.391z M134.265,163.887l7.744,8.39
						l14.512-17.568l-7.238-6.609L134.265,163.887z M156.96,155.109c0.001,0,0.001,0.001,0.002,0.002L156.96,155.109z"/>
				</g>
			</g>
		</g>
		<g>
			<g>
				<g>
					<path d="M113.982,177.391c-0.044,0-0.087,0-0.131-0.002c-1.379-0.038-2.674-0.669-3.553-1.733l-15.054-18.224
						c-1.486-1.798-1.301-4.439,0.422-6.013h0l8.134-7.427c1.745-1.592,4.489-1.497,6.116,0.216l15.687,16.491
						c1.673,1.76,1.693,4.535,0.047,6.318l-8.157,8.836C116.587,176.835,115.313,177.391,113.982,177.391z M99.479,154.708
						l14.512,17.568l7.744-8.39l-15.018-15.788L99.479,154.708z M99.038,155.111c0-0.001,0.001-0.001,0.002-0.002L99.038,155.111
						L99.038,155.111z"/>
				</g>
			</g>
		</g>
		<g>
			<g>
				<g>
					<path d="M146.35,148.892c-0.941,0-1.843-0.535-2.268-1.444c-0.954-2.046-1.437-4.225-1.437-6.476v-5.628
						c0-1.381,1.119-2.5,2.5-2.5s2.5,1.119,2.5,2.5v5.628c0,1.516,0.326,2.983,0.969,4.363c0.583,1.251,0.042,2.739-1.21,3.322
						C147.063,148.817,146.703,148.892,146.35,148.892z"/>
				</g>
			</g>
		</g>
		<g>
			<g>
				<g>
					<path d="M131,166h-6.083c-1.381,0-2.5-1.119-2.5-2.5s1.119-2.5,2.5-2.5H131c1.381,0,2.5,1.119,2.5,2.5S132.381,166,131,166z"/>
				</g>
			</g>
		</g>
		<g>
			<g>
				<g>
					<path d="M109.539,149.125c-0.37,0-0.745-0.082-1.099-0.256c-1.24-0.608-1.752-2.106-1.144-3.345
						c0.693-1.413,1.059-2.987,1.059-4.552v-5.014c0-1.381,1.119-2.5,2.5-2.5s2.5,1.119,2.5,2.5v5.014
						c0,2.324-0.543,4.659-1.57,6.753C111.351,148.611,110.462,149.125,109.539,149.125z"/>
				</g>
			</g>
		</g>
		<g>
			<g>
				<g>
					<path d="M75.708,235.5H50.159c-2.594,0-4.704-2.11-4.704-4.704v-8.592c0-2.594,2.11-4.704,4.704-4.704h25.258
						c1.381,0,2.5,1.119,2.5,2.5s-1.119,2.5-2.5,2.5H50.455v8h25.253c1.381,0,2.5,1.119,2.5,2.5S77.089,235.5,75.708,235.5z"/>
				</g>
			</g>
		</g>
		<g>
			<g>
				<g>
					<path d="M205.841,235.5H180.25c-1.381,0-2.5-1.119-2.5-2.5s1.119-2.5,2.5-2.5h25.295v-8h-25.107c-1.381,0-2.5-1.119-2.5-2.5
						s1.119-2.5,2.5-2.5h25.403c2.594,0,4.704,2.11,4.704,4.704v8.592C210.545,233.39,208.435,235.5,205.841,235.5z"/>
				</g>
			</g>
		</g>
		<g>
			<g>
				<g>
					<path d="M76.455,256H53.451c-1.802,0-3.545-0.75-4.783-2.06c-1.238-1.309-1.89-3.09-1.79-4.889l0.903-15.575
						c0.079-1.379,1.257-2.433,2.64-2.351c1.378,0.08,2.431,1.262,2.351,2.64l-0.903,15.569c-0.024,0.433,0.129,0.851,0.431,1.17
						c0.302,0.319,0.711,0.495,1.15,0.495h20.504v-17.25c0-1.381,1.119-2.5,2.5-2.5s2.5,1.119,2.5,2.5v19.75
						C78.955,254.881,77.836,256,76.455,256z"/>
				</g>
			</g>
		</g>
		<g>
			<g>
				<g>
					<path d="M202.549,256h-23.004c-1.381,0-2.5-1.119-2.5-2.5V234c0-1.381,1.119-2.5,2.5-2.5s2.5,1.119,2.5,2.5v17h20.504
						c0.439,0,0.848-0.176,1.15-0.495c0.302-0.319,0.455-0.737,0.43-1.175l-0.884-15.248c-0.08-1.378,0.973-2.561,2.351-2.64
						c1.366-0.084,2.561,0.972,2.64,2.351l0.885,15.253c0.101,1.804-0.552,3.586-1.79,4.895C206.094,255.25,204.351,256,202.549,256
						z"/>
				</g>
			</g>
		</g>
		<g>
			<g>
				<g>
					<path d="M204.865,221.372c-1.314,0-2.417-1.026-2.493-2.355l-2.356-40.633c-0.299-5.359-3.993-9.836-9.193-11.145
						l-28.902-7.274c-0.171-0.043-0.337-0.104-0.495-0.182l-2.875-1.418c-1.239-0.611-1.748-2.109-1.137-3.348
						s2.109-1.747,3.348-1.137l2.638,1.301l28.645,7.209c7.333,1.846,12.543,8.159,12.964,15.71l2.356,40.628
						c0.08,1.378-0.973,2.561-2.351,2.64C204.963,221.371,204.914,221.372,204.865,221.372z"/>
				</g>
			</g>
		</g>
		<g>
			<g>
				<g>
					<path d="M179.545,256H76.455c-1.381,0-2.5-1.119-2.5-2.5V220c0-1.381,1.119-2.5,2.5-2.5s2.5,1.119,2.5,2.5v31h98.09v-31
						c0-1.381,1.119-2.5,2.5-2.5s2.5,1.119,2.5,2.5v33.5C182.045,254.881,180.926,256,179.545,256z"/>
				</g>
			</g>
		</g>
		<g>
			<g>
				<g>
					<path d="M51.117,221.69c-0.049,0-0.098-0.001-0.147-0.004c-1.378-0.08-2.431-1.262-2.351-2.64l2.375-40.951
						c0.42-7.545,5.63-13.859,12.964-15.705l28.644-7.209l3.035-1.497c1.237-0.61,2.737-0.103,3.348,1.137
						c0.611,1.238,0.102,2.737-1.137,3.348l-3.272,1.614c-0.158,0.078-0.324,0.139-0.495,0.182l-28.901,7.274
						c-5.2,1.309-8.895,5.786-9.193,11.14l-2.375,40.957C53.533,220.664,52.431,221.69,51.117,221.69z"/>
				</g>
			</g>
		</g>
		<g>
			<g>
				<g>
					<path d="M177,79H79c-4.411,0-8-3.589-8-8s3.589-8,8-8h98c4.411,0,8,3.589,8,8S181.411,79,177,79z M79,68c-1.654,0-3,1.346-3,3
						s1.346,3,3,3h98c1.654,0,3-1.346,3-3s-1.346-3-3-3H79z"/>
				</g>
			</g>
		</g>
		<g>
			<g>
				<g>
					<path d="M167.062,107.136c-0.563,0-1.131-0.031-1.739-0.095c-1.373-0.145-2.369-1.375-2.224-2.749
						c0.145-1.373,1.375-2.367,2.749-2.224c0.432,0.046,0.83,0.068,1.215,0.068c7.189,0,13.038-5.849,13.038-13.038
						c0-3.862-1.709-7.505-4.689-9.995c-1.06-0.885-1.201-2.461-0.316-3.521c0.884-1.06,2.461-1.202,3.521-0.316
						c4.121,3.442,6.484,8.483,6.484,13.832C185.1,99.044,177.008,107.136,167.062,107.136z"/>
				</g>
			</g>
		</g>
		<g>
			<g>
				<g>
					<g>
						<path d="M127.459,141.638c-21.899,0-39.715-17.816-39.715-39.715V77.292c0-1.381,1.119-2.5,2.5-2.5s2.5,1.119,2.5,2.5v24.631
							c0,19.142,15.573,34.715,34.715,34.715s34.715-15.573,34.715-34.715V77.188c0-1.381,1.119-2.5,2.5-2.5s2.5,1.119,2.5,2.5
							v24.735C167.174,123.822,149.358,141.638,127.459,141.638z"/>
					</g>
				</g>
			</g>
		</g>
		<g>
			<g>
				<g>
					<path d="M87.856,107.136c-9.946,0-18.038-8.092-18.038-18.038c0-5.535,2.499-10.687,6.856-14.136
						c1.083-0.857,2.655-0.674,3.512,0.409c0.857,1.083,0.674,2.655-0.409,3.512c-3.152,2.495-4.96,6.218-4.96,10.215
						c0,7.189,5.849,13.038,13.038,13.038c0.438,0,0.89-0.028,1.381-0.086c1.372-0.16,2.614,0.818,2.776,2.189
						c0.162,1.372-0.818,2.614-2.189,2.776C89.135,107.096,88.492,107.136,87.856,107.136z"/>
				</g>
			</g>
		</g>
		<g>
			<g>
				<g>
					<g>
						<path d="M144.5,67.208c-1.381,0-2.5-1.119-2.5-2.5V20.854c0-3.228-2.626-5.854-5.854-5.854h-16.293
							c-3.228,0-5.854,2.626-5.854,5.854v43.771c0,1.381-1.119,2.5-2.5,2.5s-2.5-1.119-2.5-2.5V20.854
							C109,14.869,113.869,10,119.854,10h16.293C142.131,10,147,14.869,147,20.854v43.854C147,66.089,145.881,67.208,144.5,67.208z"
							/>
					</g>
				</g>
			</g>
		</g>
		<g>
			<g>
				<g>
					<path d="M81.5,67.125c-1.381,0-2.5-1.119-2.5-2.5V62.5c0-20.112,12.709-38.378,31.625-45.453
						c1.293-0.484,2.733,0.173,3.217,1.466c0.483,1.293-0.173,2.733-1.466,3.217C95.403,28.078,84,44.462,84,62.5v2.125
						C84,66.006,82.881,67.125,81.5,67.125z"/>
				</g>
			</g>
		</g>
		<g>
			<g>
				<g>
					<path d="M173.5,67.208c-1.381,0-2.5-1.119-2.5-2.5V62.5c0-17.528-10.503-33.274-26.758-40.114
						c-1.272-0.536-1.87-2.001-1.334-3.274c0.535-1.273,2-1.871,3.274-1.334C164.295,25.4,176,42.955,176,62.5v2.208
						C176,66.089,174.881,67.208,173.5,67.208z"/>
				</g>
			</g>
		</g>
		<g>
			<g>
				<g>
					<path d="M128,58.25c-1.381,0-2.5-1.119-2.5-2.5V21.984c0-1.381,1.119-2.5,2.5-2.5s2.5,1.119,2.5,2.5V55.75
						C130.5,57.131,129.381,58.25,128,58.25z"/>
				</g>
			</g>
		</g>
		<g>
			<g>
				<g>
					<path d="M128,255c-1.381,0-2.5-1.119-2.5-2.5v-40c0-1.381,1.119-2.5,2.5-2.5s2.5,1.119,2.5,2.5v40
						C130.5,253.881,129.381,255,128,255z"/>
				</g>
			</g>
		</g>
		<g>
			<g>
				<g>
					<path class="st7" d="M203.822,28.33c-4.498-0.838-8.043-4.31-8.898-8.716c-0.043-0.221-0.352-0.221-0.395,0
						c-0.855,4.406-4.4,7.879-8.898,8.716c-0.226,0.042-0.226,0.345,0,0.387c4.498,0.838,8.043,4.31,8.898,8.717
						c0.043,0.221,0.352,0.221,0.395,0c0.855-4.406,4.4-7.879,8.898-8.717C204.047,28.675,204.047,28.373,203.822,28.33z"/>
				</g>
			</g>
		</g>
		<g>
			<g>
				<g>
					<path class="st8" d="M202.515,112.101c-2.862-0.533-5.118-2.743-5.663-5.547c-0.027-0.141-0.224-0.141-0.251,0
						c-0.544,2.804-2.8,5.014-5.663,5.547c-0.144,0.027-0.144,0.219,0,0.246c2.862,0.533,5.118,2.743,5.663,5.547
						c0.027,0.141,0.224,0.141,0.251,0c0.544-2.804,2.8-5.014,5.663-5.547C202.658,112.32,202.658,112.128,202.515,112.101z"/>
				</g>
			</g>
		</g>
		<g>
			<g>
				<g>
					<path class="st6" d="M63.246,120.75h2.33v-2.33c0-1.744,1.413-3.157,3.157-3.157c1.744,0,3.157,1.413,3.157,3.157v2.33h2.329
						c1.744,0,3.157,1.413,3.157,3.157s-1.413,3.157-3.157,3.157h-2.329v2.33c0,1.744-1.413,3.157-3.157,3.157
						c-1.744,0-3.157-1.413-3.157-3.157v-2.33h-2.33c-1.744,0-3.157-1.413-3.157-3.157S61.502,120.75,63.246,120.75z"/>
				</g>
			</g>
		</g>
		<g>
			<g>
				<g>
					<circle class="st7" cx="53.755" cy="152.825" r="3.377"/>
				</g>
			</g>
		</g>
		<g>
			<g>
				<g>
					<circle class="st9" cx="177.755" cy="3.377" r="3.377"/>
				</g>
			</g>
		</g>
		<g>
			<g>
				<g>
					<path d="M134.163,217h-11.326c-10.117,0-18.348-8.231-18.348-18.348v-30.069c0-1.381,1.119-2.5,2.5-2.5s2.5,1.119,2.5,2.5
						v30.069c0,7.36,5.988,13.348,13.348,13.348h11.326c7.36,0,13.348-5.988,13.348-13.348v-31.214c0-1.381,1.119-2.5,2.5-2.5
						s2.5,1.119,2.5,2.5v31.214C152.511,208.769,144.28,217,134.163,217z"/>
				</g>
			</g>
		</g>
		<g>
			<g>
				<g>
					<path d="M179.063,228.5h-0.817c-8.958,0-16.247-7.288-16.247-16.247v-53.378c0-1.381,1.119-2.5,2.5-2.5s2.5,1.119,2.5,2.5
						v53.378c0,6.201,5.045,11.247,11.247,11.247h0.817c1.381,0,2.5,1.119,2.5,2.5S180.444,228.5,179.063,228.5z"/>
				</g>
			</g>
		</g>
		<g>
			<g>
				<g>
					<path d="M77.753,228.5h-0.69c-1.381,0-2.5-1.119-2.5-2.5s1.119-2.5,2.5-2.5h0.69c6.201,0,11.247-5.045,11.247-11.247v-53.42
						c0-1.381,1.119-2.5,2.5-2.5s2.5,1.119,2.5,2.5v53.42C94,221.212,86.712,228.5,77.753,228.5z"/>
				</g>
			</g>
		</g>
		<g>
			<g>
				<g>
					<path d="M178.875,235.5H77.125c-1.381,0-2.5-1.119-2.5-2.5s1.119-2.5,2.5-2.5h101.75c1.381,0,2.5,1.119,2.5,2.5
						S180.255,235.5,178.875,235.5z"/>
				</g>
			</g>
		</g>
		<g>
			<g>
				<g>
					<path d="M106.563,176.5H92c-1.381,0-2.5-1.119-2.5-2.5s1.119-2.5,2.5-2.5h14.563c1.381,0,2.5,1.119,2.5,2.5
						S107.944,176.5,106.563,176.5z"/>
				</g>
			</g>
		</g>
		<g>
			<g>
				<g>
					<path d="M106.333,197H92.094c-1.381,0-2.5-1.119-2.5-2.5s1.119-2.5,2.5-2.5h14.239c1.381,0,2.5,1.119,2.5,2.5
						S107.714,197,106.333,197z"/>
				</g>
			</g>
		</g>
		<g>
			<g>
				<g>
					<path d="M163.938,176.5h-13.313c-1.381,0-2.5-1.119-2.5-2.5s1.119-2.5,2.5-2.5h13.313c1.381,0,2.5,1.119,2.5,2.5
						S165.319,176.5,163.938,176.5z"/>
				</g>
			</g>
		</g>
		<g>
			<g>
				<g>
					<path d="M163.667,197h-12.875c-1.381,0-2.5-1.119-2.5-2.5s1.119-2.5,2.5-2.5h12.875c1.381,0,2.5,1.119,2.5,2.5
						S165.048,197,163.667,197z"/>
				</g>
			</g>
		</g>
	</g>
</g>
<g id="Layer_22">
</g>
<g id="Layer_23">
</g>
<g id="Layer_24">
</g>
<g id="Layer_25">
</g>
<g id="Layer_26">
</g>
<g id="Layer_27">
</g>
<g id="Layer_28">
</g>
<g id="Layer_29">
</g>
<g id="Layer_30">
</g>
<g id="Layer_31">
</g>
<g id="Layer_32">
</g>
<g id="Layer_33">
</g>
<g id="Layer_34">
</g>
<g id="Layer_35">
</g>
<g id="Layer_36">
</g>
<g id="Layer_37">
</g>
<g id="Layer_38">
</g>
<g id="Layer_39">
</g>
<g id="Layer_40">
</g>
<g id="Layer_41">
</g>
<g id="Layer_42">
</g>
<g id="Layer_43">
</g>
<g id="Layer_44">
</g>
<g id="Layer_45">
</g>
<g id="Layer_46">
</g>
<g id="Layer_47">
</g>
<g id="Layer_48">
</g>
<g id="Layer_49">
</g>
<g id="Layer_50">
</g>
<g id="Layer_51">
</g>
<g id="Layer_52">
</g>
<g id="Layer_53">
</g>
<g id="Layer_54">
</g>
<g id="Layer_55">
</g>
<g id="Layer_56">
</g>
<g id="Layer_57">
</g>
<g id="Layer_58">
</g>
<g id="Layer_59">
</g>
<g id="Layer_60">
</g>
<g id="Layer_61">
</g>
<g id="Layer_62">
</g>
<g id="Layer_63">
</g>
<g id="Layer_64">
</g>
<g id="Layer_65">
</g>
<g id="Layer_66">
</g>
<g id="Layer_67">
</g>
<g id="Layer_68">
</g>
<g id="Layer_69">
</g>
<g id="Layer_70">
</g>
<g id="Layer_71">
</g>
<g id="Layer_72">
</g>
<g id="Layer_73">
</g>
<g id="Layer_74">
</g>
<g id="Layer_75">
</g>
<g id="Layer_76">
</g>
<g id="Layer_77">
</g>
<g id="Layer_78">
</g>
<g id="Layer_79">
</g>
<g id="Layer_80">
</g>
</svg>
