<?xml version="1.0" encoding="utf-8"?>
<!-- Generator: Adobe Illustrator 24.0.0, SVG Export Plug-In . SVG Version: 6.00 Build 0)  -->
<svg version="1.1" xmlns="http://www.w3.org/2000/svg" xmlns:xlink="http://www.w3.org/1999/xlink" x="0px" y="0px"
	 viewBox="0 0 256 256" style="enable-background:new 0 0 256 256;" xml:space="preserve">
<style type="text/css">
	.st0{fill:#3A70BF;}
	.st1{fill:#EDF4FC;}
	.st2{fill:#C7D7E5;}
	.st3{fill:#F9D0B4;}
	.st4{fill:#5B5D60;}
	.st5{fill:#5290DB;}
	.st6{fill:#70D6F9;}
	.st7{fill:#F5C84C;}
	.st8{fill:#FC657E;}
	.st9{fill:#87D147;}
	.st10{fill:#FCDD86;}
	.st11{fill:#9BE5F9;}
	.st12{fill:#B2E26D;}
	.st13{fill:#754E34;}
	.st14{fill:#FCA265;}
	.st15{fill:#818182;}
	.st16{fill:#F94EED;}
	.st17{fill:#FFC197;}
	.st18{fill:#3CAADC;}
	.st19{fill:#DAE6F1;}
	.st20{fill:#57AF12;}
	.st21{fill:#EF4460;}
	.st22{fill:#FFF0CA;}
	.st23{fill:#F98FA6;}
	.st24{fill:#EDB311;}
	.st25{fill:#FC8C48;}
	.st26{fill:#FCB9CB;}
	.st27{fill:#96BC71;}
	.st28{fill:#78A352;}
	.st29{fill:#B8DD90;}
	.st30{fill:#6FAFEF;}
	.st31{fill:#29589F;}
	.st32{fill:#414344;}
	.st33{fill:#9B6B4B;}
	.st34{fill:#73B1EF;}
</style>
<g id="Layer_1">
</g>
<g id="Layer_2">
</g>
<g id="Layer_3">
</g>
<g id="Layer_4">
</g>
<g id="Layer_5">
</g>
<g id="Layer_6">
</g>
<g id="Layer_7">
</g>
<g id="Layer_8">
</g>
<g id="Layer_9">
</g>
<g id="Layer_10">
</g>
<g id="Layer_11">
</g>
<g id="Layer_12">
</g>
<g id="Layer_13">
</g>
<g id="Layer_14">
</g>
<g id="Layer_15">
</g>
<g id="Layer_16">
</g>
<g id="Layer_17">
</g>
<g id="Layer_18">
</g>
<g id="Layer_19">
</g>
<g id="Layer_20">
</g>
<g id="Layer_21">
</g>
<g id="Layer_22">
</g>
<g id="Layer_23">
</g>
<g id="Layer_24">
</g>
<g id="Layer_25">
</g>
<g id="Layer_26">
</g>
<g id="Layer_27">
</g>
<g id="Layer_28">
</g>
<g id="Layer_29">
</g>
<g id="Layer_30">
</g>
<g id="Layer_31">
</g>
<g id="Layer_32">
</g>
<g id="Layer_33">
</g>
<g id="Layer_34">
</g>
<g id="Layer_35">
</g>
<g id="Layer_36">
</g>
<g id="Layer_37">
</g>
<g id="Layer_38">
</g>
<g id="Layer_39">
</g>
<g id="Layer_40">
</g>
<g id="Layer_41">
</g>
<g id="Layer_42">
</g>
<g id="Layer_43">
</g>
<g id="Layer_44">
</g>
<g id="Layer_45">
</g>
<g id="Layer_46">
</g>
<g id="Layer_47">
</g>
<g id="Layer_48">
</g>
<g id="Layer_49">
</g>
<g id="Layer_50">
</g>
<g id="Layer_51">
</g>
<g id="Layer_52">
</g>
<g id="Layer_53">
</g>
<g id="Layer_54">
</g>
<g id="Layer_55">
</g>
<g id="Layer_56">
</g>
<g id="Layer_57">
</g>
<g id="Layer_58">
</g>
<g id="Layer_59">
	<g>
		<g>
			<g>
				<g>
					<path class="st3" d="M66.31,77.5v24.423c0,20.468,16.747,37.215,37.215,37.215h0c20.468,0,37.215-16.747,37.215-37.215V77.5
						H66.31z"/>
				</g>
			</g>
		</g>
		<g>
			<g>
				<g>
					<path class="st10" d="M56.046,61.5h96.04c0.669,0,1.288,0.198,1.818,0.525V49.973c0-11.692-9.566-21.258-21.258-21.258
						c-3.966,0-7.673,1.121-10.859,3.031c-3.722-6.211-10.502-10.405-18.23-10.405H92.641c-21.127,0-38.413,17.286-38.413,38.414
						v2.27C54.758,61.698,55.377,61.5,56.046,61.5z"/>
				</g>
			</g>
		</g>
		<g>
			<g>
				<path class="st3" d="M153.217,77.296c-0.356,0.123-0.733,0.204-1.131,0.204H140.74c0,6.875,0,19.682,0,24.423
					c0,0.839-0.038,1.67-0.094,2.496c0.81,0.13,1.635,0.217,2.482,0.217c8.581,0,15.537-6.956,15.537-15.537
					C158.665,84.371,156.547,80.146,153.217,77.296z"/>
			</g>
		</g>
		<g>
			<g>
				<path class="st3" d="M66.31,77.5H56.046c-0.671,0-1.292-0.199-1.824-0.528c-3.555,2.847-5.837,7.218-5.837,12.126
					c0,8.581,6.956,15.537,15.538,15.537c0.847,0,1.672-0.086,2.482-0.217v-0.001c-0.055-0.826-0.094-1.656-0.094-2.495
					C66.31,98.615,66.31,85.89,66.31,77.5z"/>
			</g>
		</g>
		<g>
			<g>
				<path class="st3" d="M119.852,245.228v-39.92c0-4.55,3.722-8.272,8.272-8.272h17.777c4.55,0,8.272,3.723,8.272,8.272v12.764
					h12.085h14.628l-2.31-39.833c-0.357-6.417-4.846-11.856-11.078-13.425l-20.978-5.28c-5.268-1.326-10.38-3.206-15.252-5.608
					l-2.886-1.423c-4.391-2.165-7.171-6.635-7.171-11.531v-6.335c-5.268,2.868-11.296,4.501-17.686,4.501h0
					c-5.959,0-11.597-1.427-16.604-3.945v5.778c0,4.895-2.78,9.366-7.171,11.531l-2.886,1.423
					c-4.872,2.402-9.985,4.282-15.252,5.608l-20.978,5.28c-6.233,1.569-10.721,7.008-11.078,13.425l-4.115,70.951
					c-0.13,2.34,1.732,4.31,4.076,4.31h98.607C123.574,253.5,119.852,249.777,119.852,245.228z"/>
			</g>
		</g>
		<g>
			<g>
				<path class="st3" d="M166.258,232.464h-12.085v12.763c0,4.55-3.722,8.272-8.272,8.272h32.714c2.344,0,4.207-1.969,4.076-4.31
					l-0.97-16.726H166.258z"/>
			</g>
		</g>
		<g>
			<g>
				<path class="st1" d="M152.086,61.5h-96.04c-1.922,0-3.48,1.558-3.48,3.48v9.04c0,1.922,1.558,3.48,3.48,3.48h96.04
					c1.922,0,3.48-1.558,3.48-3.48v-9.04C155.566,63.058,154.008,61.5,152.086,61.5z"/>
			</g>
		</g>
		<g>
			<g>
				<rect x="154.173" y="218.071" class="st19" width="42.071" height="14.393"/>
			</g>
		</g>
		<g>
			<g>
				<g>
					<path class="st8" d="M119.852,245.228v-39.92c0-4.55,3.722-8.272,8.272-8.272h17.777c0.052,0,0.101,0.007,0.153,0.008
						c-3.385-7.802-5.94-20.046-3.886-38.754c-3.736-1.178-7.382-2.63-10.899-4.364l-1.693-0.835
						C127.874,166.497,122.294,190,104.066,190s-23.808-23.503-25.509-36.909l-1.693,0.835c-3.517,1.734-7.164,3.186-10.9,4.364
						c4.505,41.03-13.148,51.043-13.148,51.043V253.5h75.308C123.574,253.5,119.852,249.777,119.852,245.228z"/>
				</g>
			</g>
		</g>
		<g>
			<g>
				<path class="st5" d="M145.901,197.036h-17.777c-4.55,0-8.272,3.723-8.272,8.272v39.92c0,4.55,3.722,8.272,8.272,8.272h17.777
					c4.55,0,8.272-3.723,8.272-8.272v-39.92C154.173,200.758,150.451,197.036,145.901,197.036z"/>
			</g>
		</g>
		<g>
			<g>
				<path class="st5" d="M222.294,197.036h-17.777c-4.55,0-8.272,3.723-8.272,8.272v39.92c0,4.55,3.722,8.272,8.272,8.272h17.777
					c4.55,0,8.272-3.723,8.272-8.272v-39.92C230.566,200.758,226.843,197.036,222.294,197.036z"/>
			</g>
		</g>
		<g>
			<g>
				<rect x="166.258" y="218.071" class="st5" width="17.901" height="14.393"/>
			</g>
		</g>
		<g>
			<g>
				<g>
					<path d="M103.524,141.639c-21.898,0-39.715-17.816-39.715-39.716V78.292c0-1.381,1.119-2.5,2.5-2.5s2.5,1.119,2.5,2.5v23.631
						c0,19.143,15.573,34.716,34.715,34.716s34.715-15.573,34.715-34.716V78.22c0-1.381,1.119-2.5,2.5-2.5s2.5,1.119,2.5,2.5v23.703
						C143.239,123.822,125.423,141.639,103.524,141.639z"/>
				</g>
			</g>
		</g>
		<g>
			<g>
				<g>
					<path d="M153.904,64c-1.381,0-2.5-1.119-2.5-2.5V49.973c0-10.343-8.415-18.758-18.758-18.758c-3.344,0-6.654,0.925-9.574,2.676
						c-0.569,0.34-1.251,0.443-1.893,0.28c-0.644-0.161-1.196-0.571-1.537-1.14c-3.396-5.668-9.561-9.189-16.086-9.189H92.641
						c-19.803,0-35.913,16.111-35.913,35.914v1.411c0,1.381-1.119,2.5-2.5,2.5s-2.5-1.119-2.5-2.5v-1.411
						c0-22.561,18.354-40.914,40.913-40.914h10.916c7.481,0,14.581,3.641,19.048,9.638c3.151-1.487,6.58-2.265,10.042-2.265
						c13.101,0,23.758,10.657,23.758,23.758V61.5C156.404,62.881,155.285,64,153.904,64z"/>
				</g>
			</g>
		</g>
		<g>
			<g>
				<path d="M52.815,255.04c-1.381,0-2.5-1.119-2.5-2.5v-56.645c0-1.381,1.119-2.5,2.5-2.5s2.5,1.119,2.5,2.5v56.645
					C55.315,253.921,54.196,255.04,52.815,255.04z"/>
			</g>
		</g>
		<g>
			<g>
				<path d="M143.128,107.136c-0.59,0-1.182-0.033-1.811-0.103c-1.372-0.151-2.362-1.387-2.211-2.76
					c0.151-1.372,1.38-2.354,2.76-2.211c0.444,0.05,0.857,0.073,1.262,0.073c7.188,0,13.037-5.849,13.037-13.038
					c0-3.624-1.46-6.994-4.111-9.487c-1.006-0.946-1.054-2.528-0.108-3.534c0.946-1.007,2.528-1.055,3.534-0.108
					c3.666,3.449,5.686,8.112,5.686,13.13C161.165,99.044,153.073,107.136,143.128,107.136z"/>
			</g>
		</g>
		<g>
			<g>
				<path d="M63.922,107.136c-9.946,0-18.038-8.092-18.038-18.038c0-5.218,2.266-10.179,6.217-13.611
					c1.043-0.908,2.621-0.796,3.526,0.247c0.906,1.042,0.795,2.621-0.247,3.526c-2.857,2.483-4.496,6.069-4.496,9.838
					c0,7.189,5.849,13.038,13.038,13.038c0.447,0,0.907-0.029,1.407-0.09c1.368-0.159,2.615,0.813,2.781,2.184
					c0.165,1.371-0.813,2.616-2.184,2.781C65.227,107.095,64.57,107.136,63.922,107.136z"/>
			</g>
		</g>
		<g>
			<g>
				<path d="M128.124,256H29.517c-1.801,0-3.544-0.75-4.781-2.059c-1.238-1.309-1.891-3.091-1.791-4.89l4.114-70.957
					c0.421-7.546,5.631-13.859,12.965-15.705l20.978-5.28c5.088-1.28,10.054-3.106,14.758-5.426l2.886-1.423
					c3.563-1.757,5.776-5.316,5.776-9.289v-5.158c0-1.381,1.119-2.5,2.5-2.5s2.5,1.119,2.5,2.5v5.158
					c0,5.891-3.282,11.168-8.565,13.773l-2.886,1.423c-5.02,2.476-10.318,4.424-15.748,5.791l-20.978,5.28
					c-5.201,1.309-8.896,5.785-9.193,11.139l-4.114,70.957c-0.024,0.434,0.129,0.851,0.431,1.17S29.077,251,29.517,251h98.607
					c1.381,0,2.5,1.119,2.5,2.5S129.505,256,128.124,256z"/>
			</g>
		</g>
		<g>
			<g>
				<path d="M180.83,219.624c-1.314,0-2.417-1.026-2.494-2.355l-2.255-38.885c-0.298-5.359-3.992-9.836-9.193-11.145l-20.978-5.28
					c-5.431-1.367-10.729-3.315-15.747-5.791l-2.887-1.423c-5.283-2.605-8.565-7.883-8.565-13.772v-5.515c0-1.381,1.119-2.5,2.5-2.5
					s2.5,1.119,2.5,2.5v5.515c0,3.972,2.214,7.531,5.776,9.288l2.887,1.423c4.703,2.319,9.668,4.146,14.757,5.426l20.978,5.28
					c7.334,1.846,12.544,8.159,12.965,15.711l2.255,38.879c0.08,1.378-0.973,2.561-2.352,2.641
					C180.928,219.623,180.879,219.624,180.83,219.624z"/>
			</g>
		</g>
		<g>
			<g>
				<path d="M178.615,256H145.9c-1.381,0-2.5-1.119-2.5-2.5s1.119-2.5,2.5-2.5h32.715c0.439,0,0.848-0.176,1.149-0.495
					s0.455-0.736,0.431-1.176l-0.912-15.728c-0.08-1.378,0.973-2.561,2.352-2.641c1.357-0.079,2.561,0.974,2.641,2.352l0.912,15.733
					c0.1,1.805-0.553,3.587-1.791,4.896C182.159,255.25,180.416,256,178.615,256z"/>
			</g>
		</g>
		<g>
			<g>
				<path d="M104.066,118.573c-4.777,0-9.263-1.95-11.999-5.216c-0.887-1.059-0.748-2.635,0.311-3.521
					c1.058-0.887,2.636-0.746,3.521,0.311c1.798,2.146,4.851,3.427,8.167,3.427c3.315,0,6.368-1.281,8.166-3.427
					c0.887-1.058,2.464-1.197,3.521-0.311c1.059,0.887,1.197,2.463,0.311,3.521C113.328,116.623,108.843,118.573,104.066,118.573z"
					/>
			</g>
		</g>
		<g>
			<g>
				<circle cx="120.855" cy="90.816" r="5"/>
			</g>
		</g>
		<g>
			<g>
				<circle cx="87.276" cy="90.816" r="5"/>
			</g>
		</g>
		<g>
			<g>
				<path d="M84.565,206h-8c-1.381,0-2.5-1.119-2.5-2.5s1.119-2.5,2.5-2.5h8c1.381,0,2.5,1.119,2.5,2.5S85.946,206,84.565,206z"/>
			</g>
		</g>
		<g>
			<g>
				<path d="M152.086,80h-96.04c-3.298,0-5.98-2.683-5.98-5.979v-9.041c0-3.297,2.683-5.979,5.98-5.979h96.04
					c3.297,0,5.979,2.683,5.979,5.979v9.041C158.065,77.317,155.383,80,152.086,80z M56.046,64c-0.541,0-0.98,0.439-0.98,0.979
					v9.041c0,0.54,0.439,0.979,0.98,0.979h96.04c0.54,0,0.979-0.439,0.979-0.979v-9.041c0-0.54-0.439-0.979-0.979-0.979H56.046z"/>
			</g>
		</g>
		<g>
			<g>
				<path d="M195.417,220.571h-40.334c-1.381,0-2.5-1.119-2.5-2.5s1.119-2.5,2.5-2.5h40.334c1.381,0,2.5,1.119,2.5,2.5
					S196.798,220.571,195.417,220.571z"/>
			</g>
		</g>
		<g>
			<g>
				<path d="M195.417,234.964h-40.334c-1.381,0-2.5-1.119-2.5-2.5s1.119-2.5,2.5-2.5h40.334c1.381,0,2.5,1.119,2.5,2.5
					S196.798,234.964,195.417,234.964z"/>
			</g>
		</g>
		<g>
			<g>
				<path d="M137.013,254.893c-1.381,0-2.5-1.119-2.5-2.5v-54.1c0-1.381,1.119-2.5,2.5-2.5s2.5,1.119,2.5,2.5v54.1
					C139.513,253.773,138.394,254.893,137.013,254.893z"/>
			</g>
		</g>
		<g>
			<g>
				<path d="M213.405,254.893c-1.381,0-2.5-1.119-2.5-2.5v-54.1c0-1.381,1.119-2.5,2.5-2.5s2.5,1.119,2.5,2.5v54.1
					C215.905,253.773,214.786,254.893,213.405,254.893z"/>
			</g>
		</g>
		<g>
			<g>
				<path class="st7" d="M157.547,28.33c4.498-0.838,8.043-4.31,8.898-8.716c0.043-0.221,0.352-0.221,0.395,0
					c0.855,4.406,4.4,7.879,8.898,8.716c0.226,0.042,0.226,0.345,0,0.387c-4.498,0.838-8.043,4.31-8.898,8.717
					c-0.043,0.221-0.352,0.221-0.395,0c-0.855-4.406-4.4-7.879-8.898-8.717C157.321,28.675,157.321,28.373,157.547,28.33z"/>
			</g>
		</g>
		<g>
			<g>
				<path class="st7" d="M38.854,121.101c2.862-0.533,5.118-2.743,5.663-5.547c0.027-0.141,0.224-0.141,0.251,0
					c0.544,2.804,2.8,5.014,5.663,5.547c0.144,0.027,0.144,0.219,0,0.246c-2.862,0.533-5.118,2.743-5.663,5.547
					c-0.027,0.141-0.224,0.141-0.251,0c-0.544-2.804-2.8-5.014-5.663-5.547C38.71,121.32,38.71,121.128,38.854,121.101z"/>
			</g>
		</g>
		<g>
			<g>
				<path class="st6" d="M190.122,140.75h-2.33v-2.33c0-1.744-1.413-3.157-3.157-3.157s-3.157,1.413-3.157,3.157v2.33h-2.329
					c-1.744,0-3.157,1.413-3.157,3.157c0,1.744,1.413,3.157,3.157,3.157h2.329v2.33c0,1.744,1.413,3.157,3.157,3.157
					s3.157-1.413,3.157-3.157v-2.33h2.33c1.744,0,3.157-1.413,3.157-3.157C193.279,142.163,191.866,140.75,190.122,140.75z"/>
			</g>
		</g>
		<g>
			<g>
				<circle class="st8" cx="199.614" cy="172.825" r="3.377"/>
			</g>
		</g>
		<g>
			<g>
				<circle class="st9" cx="145.614" cy="3.377" r="3.377"/>
			</g>
		</g>
		<g>
			<g>
				<circle class="st8" cx="29.614" cy="99.377" r="3.377"/>
			</g>
		</g>
		<g>
			<g>
				<g>
					<path d="M104.065,192.5c-14.592,0-24.481-13.496-27.845-38.003c-0.188-1.368,0.769-2.629,2.137-2.816
						c1.363-0.188,2.629,0.769,2.816,2.137c1.727,12.579,6.997,33.683,22.892,33.683c16.021,0,21.254-21.364,22.948-34.1
						c0.183-1.367,1.425-2.33,2.809-2.148c1.368,0.183,2.33,1.439,2.148,2.809C128.673,178.849,118.763,192.5,104.065,192.5z"/>
				</g>
			</g>
			<g>
				<g>
					<path d="M145.874,199.122c-0.976,0-1.902-0.575-2.305-1.53c-4.274-10.147-5.605-23.251-3.954-38.946
						c0.145-1.372,1.368-2.377,2.748-2.225c1.373,0.145,2.369,1.375,2.225,2.748c-1.562,14.847-0.354,27.12,3.589,36.481
						c0.536,1.272-0.061,2.738-1.333,3.274C146.526,199.059,146.197,199.122,145.874,199.122z"/>
				</g>
			</g>
			<g>
				<g>
					<path d="M53.564,211.325c-0.762,0-1.515-0.347-2.006-1.005c-0.825-1.106-0.598-2.673,0.509-3.499
						c2.541-1.896,15.038-13.092,11.506-47.371c-0.141-1.373,0.857-2.602,2.231-2.743c1.367-0.139,2.602,0.856,2.743,2.231
						c3.712,36.036-9.387,48.828-13.49,51.891C54.609,211.164,54.084,211.325,53.564,211.325z"/>
				</g>
			</g>
		</g>
		<g>
			<g>
				<path d="M145.9,256h-17.776c-5.94,0-10.772-4.832-10.772-10.772v-39.92c0-5.939,4.832-10.771,10.772-10.771H145.9
					c5.94,0,10.772,4.832,10.772,10.771v39.92C156.673,251.168,151.841,256,145.9,256z M128.124,199.536
					c-3.183,0-5.772,2.589-5.772,5.771v39.92c0,3.183,2.59,5.772,5.772,5.772H145.9c3.183,0,5.772-2.59,5.772-5.772v-39.92
					c0-3.183-2.59-5.771-5.772-5.771H128.124z"/>
			</g>
		</g>
		<g>
			<g>
				<path d="M222.294,256h-17.777c-5.94,0-10.772-4.832-10.772-10.772v-39.92c0-5.939,4.832-10.771,10.772-10.771h17.777
					c5.939,0,10.771,4.832,10.771,10.771v39.92C233.065,251.168,228.233,256,222.294,256z M204.517,199.536
					c-3.183,0-5.772,2.589-5.772,5.771v39.92c0,3.183,2.59,5.772,5.772,5.772h17.777c3.183,0,5.771-2.59,5.771-5.772v-39.92
					c0-3.183-2.589-5.771-5.771-5.771H204.517z"/>
			</g>
		</g>
		<g>
			<g>
				<path d="M184.159,234.167c-1.381,0-2.5-1.119-2.5-2.5v-12.584c0-1.381,1.119-2.5,2.5-2.5s2.5,1.119,2.5,2.5v12.584
					C186.659,233.048,185.54,234.167,184.159,234.167z"/>
			</g>
		</g>
		<g>
			<g>
				<path d="M166.258,234.167c-1.381,0-2.5-1.119-2.5-2.5v-12.792c0-1.381,1.119-2.5,2.5-2.5s2.5,1.119,2.5,2.5v12.792
					C168.758,233.048,167.639,234.167,166.258,234.167z"/>
			</g>
		</g>
	</g>
</g>
<g id="Layer_60">
</g>
<g id="Layer_61">
</g>
<g id="Layer_62">
</g>
<g id="Layer_63">
</g>
<g id="Layer_64">
</g>
<g id="Layer_65">
</g>
<g id="Layer_66">
</g>
<g id="Layer_67">
</g>
<g id="Layer_68">
</g>
<g id="Layer_69">
</g>
<g id="Layer_70">
</g>
<g id="Layer_71">
</g>
<g id="Layer_72">
</g>
<g id="Layer_73">
</g>
<g id="Layer_74">
</g>
<g id="Layer_75">
</g>
<g id="Layer_76">
</g>
<g id="Layer_77">
</g>
<g id="Layer_78">
</g>
<g id="Layer_79">
</g>
<g id="Layer_80">
</g>
</svg>
