<?xml version="1.0" encoding="utf-8"?>
<!-- Generator: Adobe Illustrator 24.0.0, SVG Export Plug-In . SVG Version: 6.00 Build 0)  -->
<svg version="1.1" xmlns="http://www.w3.org/2000/svg" xmlns:xlink="http://www.w3.org/1999/xlink" x="0px" y="0px"
	 viewBox="0 0 256 256" style="enable-background:new 0 0 256 256;" xml:space="preserve">
<style type="text/css">
	.st0{fill:#3A70BF;}
	.st1{fill:#EDF4FC;}
	.st2{fill:#C7D7E5;}
	.st3{fill:#F9D0B4;}
	.st4{fill:#5B5D60;}
	.st5{fill:#5290DB;}
	.st6{fill:#70D6F9;}
	.st7{fill:#F5C84C;}
	.st8{fill:#FC657E;}
	.st9{fill:#87D147;}
	.st10{fill:#FCDD86;}
	.st11{fill:#9BE5F9;}
	.st12{fill:#B2E26D;}
	.st13{fill:#754E34;}
	.st14{fill:#FCA265;}
	.st15{fill:#818182;}
	.st16{fill:#F94EED;}
	.st17{fill:#FFC197;}
	.st18{fill:#3CAADC;}
	.st19{fill:#DAE6F1;}
	.st20{fill:#57AF12;}
	.st21{fill:#EF4460;}
	.st22{fill:#FFF0CA;}
	.st23{fill:#F98FA6;}
	.st24{fill:#EDB311;}
	.st25{fill:#FC8C48;}
	.st26{fill:#FCB9CB;}
	.st27{fill:#96BC71;}
	.st28{fill:#78A352;}
	.st29{fill:#B8DD90;}
	.st30{fill:#6FAFEF;}
	.st31{fill:#29589F;}
	.st32{fill:#414344;}
	.st33{fill:#9B6B4B;}
	.st34{fill:#73B1EF;}
</style>
<g id="Layer_1">
</g>
<g id="Layer_2">
</g>
<g id="Layer_3">
</g>
<g id="Layer_4">
</g>
<g id="Layer_5">
</g>
<g id="Layer_6">
</g>
<g id="Layer_7">
</g>
<g id="Layer_8">
</g>
<g id="Layer_9">
</g>
<g id="Layer_10">
</g>
<g id="Layer_11">
</g>
<g id="Layer_12">
</g>
<g id="Layer_13">
</g>
<g id="Layer_14">
</g>
<g id="Layer_15">
</g>
<g id="Layer_16">
</g>
<g id="Layer_17">
</g>
<g id="Layer_18">
</g>
<g id="Layer_19">
</g>
<g id="Layer_20">
</g>
<g id="Layer_21">
</g>
<g id="Layer_22">
</g>
<g id="Layer_23">
</g>
<g id="Layer_24">
</g>
<g id="Layer_25">
</g>
<g id="Layer_26">
</g>
<g id="Layer_27">
</g>
<g id="Layer_28">
</g>
<g id="Layer_29">
</g>
<g id="Layer_30">
</g>
<g id="Layer_31">
</g>
<g id="Layer_32">
</g>
<g id="Layer_33">
</g>
<g id="Layer_34">
</g>
<g id="Layer_35">
</g>
<g id="Layer_36">
</g>
<g id="Layer_37">
</g>
<g id="Layer_38">
</g>
<g id="Layer_39">
</g>
<g id="Layer_40">
</g>
<g id="Layer_41">
</g>
<g id="Layer_42">
</g>
<g id="Layer_43">
</g>
<g id="Layer_44">
</g>
<g id="Layer_45">
</g>
<g id="Layer_46">
</g>
<g id="Layer_47">
</g>
<g id="Layer_48">
</g>
<g id="Layer_49">
</g>
<g id="Layer_50">
</g>
<g id="Layer_51">
</g>
<g id="Layer_52">
</g>
<g id="Layer_53">
</g>
<g id="Layer_54">
</g>
<g id="Layer_55">
</g>
<g id="Layer_56">
</g>
<g id="Layer_57">
</g>
<g id="Layer_58">
</g>
<g id="Layer_59">
</g>
<g id="Layer_60">
	<g>
		<g>
			<g>
				<path class="st11" d="M136.371,219.036h-14.777c-4.55,0-8.272,3.723-8.272,8.272v17.92c0,4.55,3.722,8.272,8.272,8.272h14.777
					c4.55,0,8.272-3.723,8.272-8.272v-17.92C144.643,222.758,140.92,219.036,136.371,219.036z"/>
			</g>
		</g>
		<g>
			<g>
				<path class="st11" d="M205.763,219.036h-14.777c-4.55,0-8.272,3.723-8.272,8.272v17.92c0,4.55,3.722,8.272,8.272,8.272h14.777
					c4.55,0,8.272-3.723,8.272-8.272v-17.92C214.036,222.758,210.313,219.036,205.763,219.036z"/>
			</g>
		</g>
		<g>
			<g>
				<rect x="144.643" y="229.071" class="st6" width="38.071" height="14.393"/>
			</g>
		</g>
		<g>
			<g>
				<path class="st3" d="M113.321,245.228v-17.92c0-4.55,3.722-8.272,8.272-8.272h14.777c4.55,0,8.272,3.723,8.272,8.272v1.764
					h12.853c0.408-1.653,0.852-3.298,1.36-4.926l3.883-12.439v17.365h19.976v-1.764c0-4.204,3.18-7.694,7.252-8.202l-1.353-37.177
					c-0.347-6.223-4.699-11.497-10.743-13.019l-24.833-6.269c-2.075-0.522-4.089-1.263-6.009-2.209l-8.587-4.234
					c-3.298-1.626-5.386-4.984-5.386-8.66v-10.533c-4.92,2.682-10.551,4.208-16.52,4.208c-5.97,0-11.6-1.526-16.52-4.208v10.533
					c0,3.677-2.088,7.034-5.386,8.66l-8.587,4.234c-1.919,0.946-3.933,1.687-6.009,2.209l-24.833,6.269
					c-6.044,1.521-10.396,6.796-10.743,13.019l-2.491,68.465c-0.062,1.697,1.297,3.107,2.996,3.107h22.373
					c1.656,0,2.998-1.342,2.998-2.998v-38.795l3.883,12.439c2.539,8.133,3.83,16.604,3.83,25.124v1.233
					c0,1.656,1.342,2.998,2.998,2.998h40.55C117.044,253.5,113.321,249.777,113.321,245.228z"/>
			</g>
		</g>
		<g>
			<g>
				<path class="st3" d="M182.714,245.228v-1.763h-19.976v7.038c0,1.656,1.342,2.998,2.998,2.998h22.373
					c0.378,0,0.736-0.079,1.068-0.207C185.491,252.461,182.714,249.156,182.714,245.228z"/>
			</g>
		</g>
		<g>
			<g>
				<g>
					<path class="st23" d="M113.321,245.228v-17.92c0-4.55,3.722-8.272,8.272-8.272h14.777c4.55,0,8.272,3.723,8.272,8.272v1.764
						h12.853c0.408-1.653,0.852-3.298,1.36-4.926l3.883-12.439c0,0-1.588-27.511-5.735-48.064l-3.967-1.001
						c-2.075-0.522-4.089-1.263-6.009-2.209l-2.735-1.348c-1.04,11.306-5.254,29.924-21.144,40.722
						c-3.972,2.699-9.256,2.699-13.228,0c-15.89-10.798-20.104-29.417-21.144-40.722l-2.735,1.348
						c-1.919,0.946-3.933,1.687-6.009,2.209l-3.967,1.001c-4.147,20.553-5.735,48.064-5.735,48.064l3.883,12.439
						c2.539,8.133,3.83,16.604,3.83,25.124v1.233c0,1.656,1.342,2.998,2.998,2.998h40.55
						C117.044,253.5,113.321,249.777,113.321,245.228z"/>
				</g>
			</g>
		</g>
		<g>
			<g>
				<path class="st3" d="M153.496,80.011c-0.759,0-1.502,0.064-2.229,0.177c0,3.696,0,20.799,0,26.293v0v0
					c0,0.783-0.036,1.558-0.088,2.329c0.756,0.122,1.526,0.202,2.316,0.202c8.009,0,14.501-6.492,14.501-14.501
					C167.997,86.504,161.505,80.011,153.496,80.011z"/>
			</g>
		</g>
		<g>
			<g>
				<path class="st3" d="M133.148,68.668c-5.29,6.174-24.047,24.906-51.344,17.13v20.684c0,19.102,15.629,34.732,34.732,34.732l0,0
					c19.102,0,34.732-15.629,34.732-34.732v-28.06c0-1.276-0.893-2.358-2.136-2.646c-3.515-0.814-7.782-2.85-12.673-7.294
					C135.49,67.603,133.999,67.675,133.148,68.668z"/>
			</g>
		</g>
		<g>
			<g>
				<path class="st3" d="M81.804,85.798c-2.385-0.679-4.834-1.559-7.346-2.668c-1.619-0.715-3.511-0.386-4.803,0.825
					c-2.817,2.641-4.581,6.39-4.581,10.557c0,8.008,6.492,14.501,14.501,14.501c0.79,0,1.56-0.08,2.316-0.202
					c-0.052-0.771-0.088-1.546-0.088-2.329V85.798z"/>
			</g>
		</g>
		<g>
			<g>
				<g>
					<path class="st10" d="M69.655,83.955c1.291-1.211,3.183-1.54,4.803-0.825c2.512,1.109,4.961,1.988,7.346,2.668
						c27.297,7.776,46.055-10.956,51.344-17.13c0.85-0.992,2.342-1.065,3.309-0.186c4.892,4.445,9.159,6.48,12.673,7.294
						c1.243,0.288,2.136,1.37,2.136,2.646v1.766c0.727-0.113,1.47-0.177,2.229-0.177c4.012,0,7.643,1.63,10.268,4.263v-8.494
						c0-25.976-21.253-47.229-47.229-47.229c-25.976,0-47.229,21.253-47.229,47.229v8.535
						C69.425,84.197,69.533,84.069,69.655,83.955z"/>
				</g>
			</g>
		</g>
		<g>
			<g>
				<path class="st8" d="M116.536,28.552c4.434,0,8.726,0.633,12.802,1.789c-1.041-6.137-6.369-10.815-12.802-10.815
					s-11.761,4.678-12.802,10.815C107.81,29.185,112.101,28.552,116.536,28.552z"/>
			</g>
		</g>
		<g>
			<g>
				<g>
					<path class="st10" d="M184.069,95.922c-25.649-19.074-2.609-85.37-49.054-90.211c-19.744-2.058-26.165,11.495-28.112,18.116
						c2.375-2.635,5.804-4.301,9.633-4.301c6.434,0,11.761,4.678,12.802,10.815l-0.001,0c19.805,5.618,34.427,23.898,34.427,45.44
						v8.494c2.615,2.623,4.232,6.241,4.232,10.238c0,2.072-0.442,4.039-1.225,5.822c6.611,0.596,12.264,0.126,16.171-0.466
						C184.971,99.561,185.68,97.12,184.069,95.922z"/>
				</g>
			</g>
		</g>
		<g>
			<g>
				<path class="st8" d="M113.321,245.228V232.5H76.348c1.119,5.513,1.697,11.129,1.697,16.77v1.233
					c0,1.656,1.342,2.998,2.998,2.998h40.55C117.044,253.5,113.321,249.777,113.321,245.228z"/>
			</g>
		</g>
		<g>
			<g>
				<path class="st8" d="M144.643,243.464v1.763c0,4.55-3.722,8.272-8.272,8.272h15.657c1.656,0,2.998-1.342,2.998-2.998v-1.233
					c0-1.94,0.093-3.874,0.229-5.805H144.643z"/>
			</g>
		</g>
		<g>
			<g>
				<path d="M116.535,125.783c-4.776,0-9.262-1.949-11.998-5.215c-0.887-1.058-0.748-2.635,0.311-3.521
					c1.056-0.888,2.635-0.75,3.521,0.311c1.798,2.145,4.851,3.426,8.166,3.426s6.369-1.281,8.167-3.426
					c0.887-1.06,2.466-1.196,3.521-0.311c1.059,0.887,1.197,2.464,0.311,3.521C125.798,123.834,121.312,125.783,116.535,125.783z"/>
			</g>
		</g>
		<g>
			<g>
				<circle cx="131.646" cy="98.526" r="4.5"/>
			</g>
		</g>
		<g>
			<g>
				<circle cx="101.425" cy="98.526" r="4.5"/>
			</g>
		</g>
		<g>
			<g>
				<path d="M97.035,212h-8c-1.381,0-2.5-1.119-2.5-2.5s1.119-2.5,2.5-2.5h8c1.381,0,2.5,1.119,2.5,2.5S98.416,212,97.035,212z"/>
			</g>
		</g>
		<g>
			<g>
				<path d="M136.37,256h-14.776c-5.94,0-10.772-4.832-10.772-10.772v-17.92c0-5.939,4.832-10.771,10.772-10.771h14.776
					c5.94,0,10.772,4.832,10.772,10.771v17.92C147.143,251.168,142.311,256,136.37,256z M121.594,221.536
					c-3.183,0-5.772,2.589-5.772,5.771v17.92c0,3.183,2.59,5.772,5.772,5.772h14.776c3.183,0,5.772-2.59,5.772-5.772v-17.92
					c0-3.183-2.59-5.771-5.772-5.771H121.594z"/>
			</g>
		</g>
		<g>
			<g>
				<path d="M205.764,256h-14.777c-5.94,0-10.772-4.832-10.772-10.772v-17.92c0-5.939,4.832-10.771,10.772-10.771h14.777
					c5.939,0,10.771,4.832,10.771,10.771v17.92C216.535,251.168,211.703,256,205.764,256z M190.986,221.536
					c-3.183,0-5.772,2.589-5.772,5.771v17.92c0,3.183,2.59,5.772,5.772,5.772h14.777c3.183,0,5.771-2.59,5.771-5.772v-17.92
					c0-3.183-2.589-5.771-5.771-5.771H190.986z"/>
			</g>
		</g>
		<g>
			<g>
				<path d="M181.688,231.571h-35.876c-1.381,0-2.5-1.119-2.5-2.5s1.119-2.5,2.5-2.5h35.876c1.381,0,2.5,1.119,2.5,2.5
					S183.069,231.571,181.688,231.571z"/>
			</g>
		</g>
		<g>
			<g>
				<path d="M181.688,245.964h-35.876c-1.381,0-2.5-1.119-2.5-2.5s1.119-2.5,2.5-2.5h35.876c1.381,0,2.5,1.119,2.5,2.5
					S183.069,245.964,181.688,245.964z"/>
			</g>
		</g>
		<g>
			<g>
				<path d="M197.97,254.935c-1.381,0-2.5-1.119-2.5-2.5v-32.333c0-1.381,1.119-2.5,2.5-2.5s2.5,1.119,2.5,2.5v32.333
					C200.47,253.815,199.351,254.935,197.97,254.935z"/>
			</g>
		</g>
		<g>
			<g>
				<path d="M128.97,254.935c-1.381,0-2.5-1.119-2.5-2.5v-32.333c0-1.381,1.119-2.5,2.5-2.5s2.5,1.119,2.5,2.5v32.333
					C131.47,253.815,130.351,254.935,128.97,254.935z"/>
			</g>
		</g>
		<g>
			<g>
				<path class="st7" d="M185.178,139.331c4.498-0.838,8.043-4.31,8.898-8.716c0.043-0.221,0.352-0.221,0.395,0
					c0.855,4.406,4.4,7.879,8.898,8.716c0.226,0.042,0.226,0.345,0,0.387c-4.498,0.838-8.043,4.31-8.898,8.717
					c-0.043,0.221-0.352,0.221-0.395,0c-0.855-4.406-4.4-7.879-8.898-8.717C184.953,139.675,184.953,139.373,185.178,139.331z"/>
			</g>
		</g>
		<g>
			<g>
				<path class="st8" d="M47.485,112.101c2.862-0.533,5.118-2.743,5.663-5.547c0.027-0.141,0.224-0.141,0.251,0
					c0.544,2.804,2.8,5.014,5.663,5.547c0.144,0.027,0.144,0.219,0,0.246c-2.862,0.533-5.118,2.743-5.663,5.547
					c-0.027,0.141-0.224,0.141-0.251,0c-0.544-2.804-2.8-5.014-5.663-5.547C47.342,112.32,47.342,112.128,47.485,112.101z"/>
			</g>
		</g>
		<g>
			<g>
				<path class="st6" d="M64.754,25.75h-2.33v-2.33c0-1.744-1.413-3.157-3.157-3.157c-1.744,0-3.157,1.413-3.157,3.157v2.33H53.78
					c-1.744,0-3.157,1.413-3.157,3.157s1.413,3.157,3.157,3.157h2.329v2.33c0,1.744,1.413,3.157,3.157,3.157
					c1.744,0,3.157-1.413,3.157-3.157v-2.33h2.33c1.744,0,3.157-1.413,3.157-3.157S66.498,25.75,64.754,25.75z"/>
			</g>
		</g>
		<g>
			<g>
				<circle class="st9" cx="206.245" cy="168.825" r="3.377"/>
			</g>
		</g>
		<g>
			<g>
				<circle class="st7" cx="72.245" cy="3.377" r="3.377"/>
			</g>
		</g>
		<g>
			<g>
				<path d="M189.936,220.813c-1.339,0-2.447-1.061-2.496-2.409l-1.324-36.385c-0.285-5.11-3.845-9.424-8.855-10.685l-24.835-6.27
					c-2.244-0.564-4.433-1.37-6.503-2.392l-8.586-4.233c-4.183-2.062-6.78-6.239-6.78-10.902V138c0-1.381,1.119-2.5,2.5-2.5
					s2.5,1.119,2.5,2.5v9.538c0,2.745,1.529,5.204,3.991,6.418l8.587,4.233c1.756,0.866,3.61,1.549,5.514,2.027l24.835,6.27
					c7.142,1.798,12.217,7.948,12.627,15.304l1.326,36.433c0.051,1.38-1.027,2.539-2.407,2.589
					C189.997,220.813,189.967,220.813,189.936,220.813z"/>
			</g>
		</g>
		<g>
			<g>
				<path d="M162.738,230.792c-1.341,0-2.435-1.055-2.497-2.38c-0.04,0.152-0.08,0.307-0.119,0.463
					c-0.343,1.339-1.708,2.144-3.04,1.806c-1.338-0.342-2.146-1.702-1.806-3.04c0.395-1.546,0.784-2.933,1.192-4.24l3.883-12.438
					c0.369-1.179,1.546-1.913,2.764-1.727c1.221,0.187,2.123,1.236,2.123,2.472v16.585
					C165.238,229.673,164.119,230.792,162.738,230.792z"/>
			</g>
		</g>
		<g>
			<g>
				<path d="M67.335,256H44.962c-1.507,0-2.913-0.598-3.958-1.683c-1.046-1.084-1.591-2.511-1.535-4.016l2.491-68.464
					c0.412-7.403,5.487-13.554,12.631-15.353l24.831-6.268c1.905-0.479,3.76-1.162,5.515-2.028l8.588-4.233
					c2.462-1.214,3.991-3.673,3.991-6.418v-9.475c0-1.381,1.119-2.5,2.5-2.5s2.5,1.119,2.5,2.5v9.475
					c0,4.663-2.598,8.841-6.78,10.902l-8.587,4.233c-2.069,1.021-4.258,1.827-6.504,2.393l-24.831,6.268
					c-5.013,1.262-8.572,5.575-8.859,10.733l-2.489,68.417c-0.006,0.175,0.072,0.294,0.139,0.363
					c0.067,0.069,0.184,0.152,0.358,0.152h22.373c0.274,0,0.498-0.224,0.498-0.498v-38.795c0-1.381,1.119-2.5,2.5-2.5
					s2.5,1.119,2.5,2.5v38.795C72.833,253.533,70.366,256,67.335,256z"/>
			</g>
		</g>
		<g>
			<g>
				<path d="M188.109,256h-22.373c-3.031,0-5.498-2.467-5.498-5.498v-7.037c0-1.381,1.119-2.5,2.5-2.5h19.976
					c1.381,0,2.5,1.119,2.5,2.5v1.763c0,2.67,1.898,5.036,4.515,5.627c1.074,0.242,1.863,1.159,1.942,2.258
					c0.08,1.099-0.568,2.119-1.597,2.515C189.43,255.874,188.769,256,188.109,256z M165.238,245.965v4.537
					c0,0.274,0.224,0.498,0.498,0.498h16.184c-0.955-1.489-1.553-3.214-1.681-5.035H165.238z"/>
			</g>
		</g>
		<g>
			<g>
				<g>
					<path d="M116.536,204.318c-2.812,0-5.621-0.815-8.02-2.445c-8.71-5.919-19.618-17.912-22.117-41.437
						c-0.146-1.373,0.85-2.604,2.223-2.75c1.362-0.134,2.604,0.85,2.75,2.223c2.296,21.618,12.119,32.504,19.955,37.829
						c3.114,2.116,7.301,2.117,10.417,0c7.889-5.36,17.759-16.326,19.986-38.129c0.141-1.373,1.375-2.372,2.741-2.233
						c1.374,0.141,2.373,1.368,2.233,2.741c-1.095,10.718-5.429,30.394-22.15,41.756
						C122.156,203.503,119.346,204.318,116.536,204.318z"/>
				</g>
			</g>
			<g>
				<g>
					<path d="M162.736,214.207c-1.315,0-2.417-1.026-2.494-2.355c-0.016-0.268-1.589-26.959-5.551-47.021
						c-0.268-1.354,0.613-2.67,1.968-2.937c1.348-0.272,2.67,0.612,2.937,1.968c4.03,20.404,5.623,47.431,5.639,47.702
						c0.079,1.378-0.974,2.56-2.352,2.64C162.833,214.206,162.784,214.207,162.736,214.207z"/>
				</g>
			</g>
			<g>
				<g>
					<path d="M121.594,256H81.043c-3.031,0-5.497-2.467-5.497-5.498v-1.232c0-8.274-1.25-16.476-3.717-24.378l-3.883-12.439
						c-0.09-0.287-0.127-0.589-0.109-0.889c0.016-0.27,1.597-27.095,5.592-47.468c0.266-1.355,1.579-2.237,2.935-1.972
						c1.354,0.266,2.237,1.579,1.972,2.935c-3.646,18.596-5.254,42.757-5.479,46.342l3.746,12.001
						c2.616,8.386,3.943,17.089,3.943,25.868v1.232c0,0.274,0.223,0.498,0.497,0.498h40.551c1.381,0,2.5,1.119,2.5,2.5
						S122.975,256,121.594,256z"/>
				</g>
			</g>
		</g>
		<g>
			<g>
				<path d="M153.496,111.513c-0.486,0-0.978-0.024-1.501-0.075c-1.374-0.133-2.381-1.354-2.248-2.729
					c0.133-1.375,1.334-2.381,2.729-2.248c0.336,0.032,0.676,0.052,1.021,0.052c6.617,0,12.001-5.384,12.001-12.001
					s-5.384-12-12.001-12c-0.366,0-0.728,0.018-1.084,0.052c-1.379,0.13-2.597-0.874-2.729-2.248
					c-0.133-1.375,0.874-2.596,2.248-2.729c0.517-0.05,1.043-0.075,1.564-0.075c9.374,0,17.001,7.626,17.001,17
					S162.87,111.513,153.496,111.513z"/>
			</g>
		</g>
		<g>
			<g>
				<path d="M116.535,143.713c-20.529,0-37.231-16.702-37.231-37.231V85.798c0-0.784,0.368-1.522,0.994-1.995s1.44-0.625,2.19-0.409
					c25.921,7.384,43.876-10.649,48.762-16.353v0.001c0.849-0.991,2.032-1.582,3.333-1.663c1.284-0.077,2.591,0.374,3.556,1.252
					c3.952,3.592,7.84,5.849,11.557,6.71c2.397,0.556,4.072,2.646,4.072,5.081v28.06
					C153.768,127.011,137.065,143.713,116.535,143.713z M84.304,89.005v17.477c0,17.772,14.459,32.231,32.231,32.231
					c17.773,0,32.232-14.459,32.232-32.231v-28.06c0-0.113-0.101-0.187-0.201-0.21c-4.515-1.046-9.108-3.656-13.656-7.759
					C129.554,76.651,111.116,94.888,84.304,89.005z M133.148,68.668h0.01H133.148z"/>
			</g>
		</g>
		<g>
			<g>
				<path d="M79.575,111.513c-9.374,0-17.001-7.627-17.001-17.001c0-4.667,1.958-9.18,5.371-12.381
					c2.03-1.902,4.983-2.408,7.522-1.288c2.328,1.028,4.69,1.887,7.021,2.551c1.327,0.379,2.097,1.762,1.719,3.09
					c-0.379,1.327-1.758,2.098-3.09,1.719c-2.552-0.728-5.133-1.665-7.67-2.785c-0.702-0.31-1.518-0.167-2.083,0.361
					c-2.444,2.293-3.791,5.395-3.791,8.733c0,6.617,5.384,12.001,12.001,12.001c0.358,0,0.722-0.021,1.112-0.062
					c1.373-0.131,2.604,0.85,2.749,2.224c0.146,1.373-0.851,2.604-2.224,2.749C80.655,111.482,80.104,111.513,79.575,111.513z"/>
			</g>
		</g>
		<g>
			<g>
				<g>
					<path d="M163.765,86.167c-1.381,0-2.5-1.119-2.5-2.5v-7.886c0-24.663-20.065-44.729-44.729-44.729
						c-24.663,0-44.729,20.065-44.729,44.729v7.823c0,1.381-1.119,2.5-2.5,2.5s-2.5-1.119-2.5-2.5v-7.823
						c0-27.42,22.309-49.729,49.729-49.729c27.421,0,49.729,22.309,49.729,49.729v7.886
						C166.265,85.048,165.146,86.167,163.765,86.167z"/>
				</g>
			</g>
		</g>
		<g>
			<g>
				<path d="M129.281,32.544c-1.173,0-2.22-0.83-2.451-2.024c-0.953-4.921-5.283-8.493-10.295-8.493
					c-4.965,0-9.286,3.532-10.274,8.399c-0.275,1.353-1.593,2.229-2.948,1.952c-1.353-0.275-2.227-1.595-1.952-2.948
					c1.46-7.187,7.842-12.403,15.175-12.403c7.402,0,13.796,5.274,15.203,12.542c0.263,1.355-0.623,2.667-1.979,2.93
					C129.599,32.529,129.439,32.544,129.281,32.544z"/>
			</g>
		</g>
		<g>
			<g>
				<g>
					<path d="M172.893,103.108c-1.77,0-3.655-0.065-5.629-0.224c-1.376-0.11-2.403-1.315-2.293-2.691
						c0.11-1.377,1.333-2.396,2.691-2.293c5.918,0.476,10.972,0.055,14.332-0.42c-10.971-8.669-13.332-25.375-15.617-41.539
						c-3.278-23.2-6.375-45.112-31.621-47.744c-17.342-1.8-23.365,9.364-25.41,16.187c-0.396,1.322-1.787,2.078-3.112,1.677
						c-1.322-0.396-2.073-1.79-1.677-3.112c2.004-6.684,9.023-21.992,30.717-19.724c29.132,3.036,32.81,29.058,36.055,52.017
						c2.281,16.143,4.437,31.39,14.233,38.675c1.542,1.146,2.215,3.003,1.755,4.844c-0.469,1.879-2.039,3.284-4.001,3.58
						C180.769,102.726,177.167,103.108,172.893,103.108z"/>
				</g>
			</g>
		</g>
		<g>
			<g>
				<path d="M112.583,235H77.094c-1.381,0-2.5-1.119-2.5-2.5s1.119-2.5,2.5-2.5h35.489c1.381,0,2.5,1.119,2.5,2.5
					S113.964,235,112.583,235z"/>
			</g>
		</g>
		<g>
			<g>
				<path d="M152.028,256H136.37c-1.381,0-2.5-1.119-2.5-2.5s1.119-2.5,2.5-2.5h15.658c0.274,0,0.497-0.224,0.497-0.498v-1.232
					c0-1.486,0.053-3.069,0.16-4.842c0.083-1.379,1.244-2.454,2.646-2.344c1.378,0.083,2.428,1.269,2.344,2.646
					c-0.102,1.671-0.15,3.155-0.15,4.539v1.232C157.525,253.533,155.06,256,152.028,256z"/>
			</g>
		</g>
	</g>
</g>
<g id="Layer_61">
</g>
<g id="Layer_62">
</g>
<g id="Layer_63">
</g>
<g id="Layer_64">
</g>
<g id="Layer_65">
</g>
<g id="Layer_66">
</g>
<g id="Layer_67">
</g>
<g id="Layer_68">
</g>
<g id="Layer_69">
</g>
<g id="Layer_70">
</g>
<g id="Layer_71">
</g>
<g id="Layer_72">
</g>
<g id="Layer_73">
</g>
<g id="Layer_74">
</g>
<g id="Layer_75">
</g>
<g id="Layer_76">
</g>
<g id="Layer_77">
</g>
<g id="Layer_78">
</g>
<g id="Layer_79">
</g>
<g id="Layer_80">
</g>
</svg>
