<?xml version="1.0" encoding="utf-8"?>
<!-- Generator: Adobe Illustrator 24.0.0, SVG Export Plug-In . SVG Version: 6.00 Build 0)  -->
<svg version="1.1" xmlns="http://www.w3.org/2000/svg" xmlns:xlink="http://www.w3.org/1999/xlink" x="0px" y="0px"
	 viewBox="0 0 256 256" style="enable-background:new 0 0 256 256;" xml:space="preserve">
<style type="text/css">
	.st0{fill:#3A70BF;}
	.st1{fill:#EDF4FC;}
	.st2{fill:#C7D7E5;}
	.st3{fill:#F9D0B4;}
	.st4{fill:#5B5D60;}
	.st5{fill:#5290DB;}
	.st6{fill:#70D6F9;}
	.st7{fill:#F5C84C;}
	.st8{fill:#FC657E;}
	.st9{fill:#87D147;}
	.st10{fill:#FCDD86;}
	.st11{fill:#9BE5F9;}
	.st12{fill:#B2E26D;}
	.st13{fill:#754E34;}
	.st14{fill:#FCA265;}
	.st15{fill:#818182;}
	.st16{fill:#F94EED;}
	.st17{fill:#FFC197;}
	.st18{fill:#3CAADC;}
	.st19{fill:#DAE6F1;}
	.st20{fill:#57AF12;}
	.st21{fill:#EF4460;}
	.st22{fill:#FFF0CA;}
	.st23{fill:#F98FA6;}
	.st24{fill:#EDB311;}
	.st25{fill:#FC8C48;}
	.st26{fill:#FCB9CB;}
	.st27{fill:#96BC71;}
	.st28{fill:#78A352;}
	.st29{fill:#B8DD90;}
	.st30{fill:#6FAFEF;}
	.st31{fill:#29589F;}
	.st32{fill:#414344;}
	.st33{fill:#9B6B4B;}
	.st34{fill:#73B1EF;}
</style>
<g id="Layer_1">
</g>
<g id="Layer_2">
</g>
<g id="Layer_3">
</g>
<g id="Layer_4">
</g>
<g id="Layer_5">
</g>
<g id="Layer_6">
</g>
<g id="Layer_7">
</g>
<g id="Layer_8">
</g>
<g id="Layer_9">
</g>
<g id="Layer_10">
</g>
<g id="Layer_11">
</g>
<g id="Layer_12">
</g>
<g id="Layer_13">
</g>
<g id="Layer_14">
</g>
<g id="Layer_15">
</g>
<g id="Layer_16">
</g>
<g id="Layer_17">
</g>
<g id="Layer_18">
</g>
<g id="Layer_19">
</g>
<g id="Layer_20">
</g>
<g id="Layer_21">
</g>
<g id="Layer_22">
</g>
<g id="Layer_23">
</g>
<g id="Layer_24">
</g>
<g id="Layer_25">
</g>
<g id="Layer_26">
</g>
<g id="Layer_27">
</g>
<g id="Layer_28">
</g>
<g id="Layer_29">
</g>
<g id="Layer_30">
</g>
<g id="Layer_31">
</g>
<g id="Layer_32">
</g>
<g id="Layer_33">
</g>
<g id="Layer_34">
</g>
<g id="Layer_35">
</g>
<g id="Layer_36">
</g>
<g id="Layer_37">
</g>
<g id="Layer_38">
</g>
<g id="Layer_39">
</g>
<g id="Layer_40">
</g>
<g id="Layer_41">
</g>
<g id="Layer_42">
</g>
<g id="Layer_43">
</g>
<g id="Layer_44">
</g>
<g id="Layer_45">
</g>
<g id="Layer_46">
</g>
<g id="Layer_47">
</g>
<g id="Layer_48">
</g>
<g id="Layer_49">
</g>
<g id="Layer_50">
</g>
<g id="Layer_51">
</g>
<g id="Layer_52">
</g>
<g id="Layer_53">
</g>
<g id="Layer_54">
</g>
<g id="Layer_55">
</g>
<g id="Layer_56">
</g>
<g id="Layer_57">
</g>
<g id="Layer_58">
</g>
<g id="Layer_59">
</g>
<g id="Layer_60">
</g>
<g id="Layer_61">
</g>
<g id="Layer_62">
</g>
<g id="Layer_63">
</g>
<g id="Layer_64">
</g>
<g id="Layer_65">
</g>
<g id="Layer_66">
</g>
<g id="Layer_67">
</g>
<g id="Layer_68">
</g>
<g id="Layer_69">
</g>
<g id="Layer_70">
</g>
<g id="Layer_71">
</g>
<g id="Layer_72">
</g>
<g id="Layer_73">
</g>
<g id="Layer_74">
</g>
<g id="Layer_75">
</g>
<g id="Layer_76">
</g>
<g id="Layer_77">
</g>
<g id="Layer_78">
</g>
<g id="Layer_79">
	<g>
		<g>
			<g>
				<g>
					<path class="st5" d="M107.233,165.321c-0.376-0.408-0.562-0.926-0.561-1.443v0c-1.371,0.155-2.756,0.26-4.167,0.26h0
						c-1.043,0-2.072-0.058-3.094-0.143c-0.025,0.478-0.203,0.949-0.551,1.326l-3.784,4.1c1.76,2.513,4.67,4.161,7.971,4.161
						s6.211-1.647,7.971-4.161L107.233,165.321z"/>
				</g>
			</g>
		</g>
		<g>
			<g>
				<path class="st3" d="M120.191,134.916c-5.14,2.69-10.97,4.223-17.145,4.223h0c-6.174,0-12.005-1.533-17.145-4.223v6.057
					c0,2.204-0.568,4.32-1.589,6.18l14.525,15.27c0.417,0.438,0.603,1.01,0.573,1.573c1.022,0.085,2.051,0.143,3.094,0.143h0
					c1.411,0,2.796-0.104,4.167-0.26l0,0l0,0.004c0-0.526,0.194-1.052,0.583-1.461l14.525-15.27c-1.021-1.86-1.589-3.976-1.589-6.18
					V134.916z"/>
			</g>
		</g>
		<g>
			<g>
				<path d="M121.618,149.346c-0.906,0-1.781-0.495-2.225-1.357c-1.114-2.165-1.703-4.591-1.703-7.016v-5.163
					c0-1.381,1.119-2.5,2.5-2.5s2.5,1.119,2.5,2.5v5.163c0,1.633,0.397,3.268,1.148,4.729c0.632,1.228,0.148,2.735-1.079,3.366
					C122.395,149.256,122.003,149.346,121.618,149.346z"/>
			</g>
		</g>
		<g>
			<g>
				<path d="M102.505,166.639c-0.886,0-1.827-0.039-2.879-0.118c-1.376-0.104-2.408-1.306-2.304-2.683
					c0.104-1.376,1.309-2.415,2.683-2.304c0.924,0.07,1.742,0.104,2.5,0.104c1.016,0,2.097-0.06,3.306-0.183
					c1.382-0.141,2.601,0.862,2.74,2.234c0.14,1.374-0.861,2.601-2.234,2.74C104.937,166.57,103.69,166.639,102.505,166.639z"/>
			</g>
		</g>
		<g>
			<g>
				<path d="M84.545,149.205c-0.375,0-0.756-0.085-1.114-0.265c-1.235-0.616-1.737-2.117-1.12-3.353
					c0.714-1.431,1.091-3.026,1.091-4.615v-5.253c0-1.381,1.119-2.5,2.5-2.5s2.5,1.119,2.5,2.5v5.253
					c0,2.359-0.56,4.728-1.618,6.848C86.346,148.697,85.463,149.205,84.545,149.205z"/>
			</g>
		</g>
		<g>
			<g>
				<path class="st3" d="M134.944,57.412c-2.433-2.552-6.39-2.787-9.164-0.61c-4.386,3.443-11.975,7.698-22.693,7.698
					c-10.745,0-18.374-4.276-22.778-7.723c-2.771-2.169-6.72-1.926-9.149,0.621l-0.013,0.013c-3.413,3.579-5.316,8.334-5.316,13.279
					v31.233c0,20.468,16.747,37.215,37.215,37.215h0c20.468,0,37.215-16.747,37.215-37.215V70.691
					C140.261,65.746,138.357,60.99,134.944,57.412z"/>
			</g>
		</g>
		<g>
			<g>
				<path class="st3" d="M142.649,73.561c-0.813,0-1.609,0.069-2.388,0.189c0,3.96,0,22.286,0,28.173
					c0,0.839-0.038,1.67-0.094,2.496c0.81,0.13,1.635,0.217,2.482,0.217c8.581,0,15.537-6.956,15.537-15.537
					S151.23,73.561,142.649,73.561z"/>
			</g>
		</g>
		<g>
			<g>
				<path class="st3" d="M65.831,101.923c0-3.856,0-20.507,0-28.173c-0.779-0.121-1.575-0.189-2.388-0.189
					c-8.581,0-15.538,6.957-15.538,15.538s6.956,15.537,15.538,15.537c0.847,0,1.672-0.086,2.482-0.217v-0.001
					C65.869,103.593,65.831,102.762,65.831,101.923z"/>
			</g>
		</g>
		<g>
			<g>
				<path class="st13" d="M140.122,41.816c-1.246,0-2.327-0.961-2.344-2.207c-0.285-20.737-23.966-24.633-47.549-20.56
					c-19.994,3.453-34.608,20.791-34.608,41.081v15.559c2.299-1.344,4.966-2.128,7.821-2.128c0.813,0,1.609,0.068,2.388,0.189
					v-3.059c0-4.945,1.904-9.7,5.316-13.279l0.013-0.013c2.429-2.547,6.377-2.79,9.149-0.621c4.404,3.447,12.034,7.723,22.778,7.723
					c10.719,0,18.308-4.255,22.693-7.698c2.774-2.177,6.73-1.943,9.164,0.61c3.413,3.579,5.316,8.334,5.316,13.279v3.059
					c0.779-0.121,1.575-0.189,2.388-0.189c2.89,0,5.586,0.803,7.903,2.178c0-4.342,0-8.802,0-12.775
					C150.553,44.395,143.847,41.816,140.122,41.816z"/>
			</g>
		</g>
		<g>
			<g>
				<path d="M103.046,141.639c-21.898,0-39.715-17.816-39.715-39.716V70.69c0-5.614,2.134-10.942,6.008-15.004
					c3.326-3.489,8.698-3.86,12.511-0.878C86.041,58.089,93.128,62,103.087,62c9.938,0,16.986-3.896,21.149-7.165
					c3.818-2.993,9.2-2.628,12.517,0.852l0,0c3.874,4.062,6.008,9.39,6.008,15.004v31.232
					C142.761,123.822,124.944,141.639,103.046,141.639z M76.058,57.803c-1.135,0-2.254,0.446-3.088,1.321
					c-2.996,3.141-4.639,7.243-4.639,11.566v31.232c0,19.143,15.573,34.716,34.715,34.716s34.715-15.573,34.715-34.716V70.69
					c0-4.323-1.643-8.426-4.625-11.553c-0.001,0-0.001,0-0.001-0.001c-1.532-1.607-4.03-1.766-5.812-0.368
					C122.541,62.523,114.453,67,103.087,67c-11.384,0-19.509-4.488-24.319-8.254C77.96,58.114,77.004,57.803,76.058,57.803z"/>
			</g>
		</g>
		<g>
			<g>
				<path d="M142.649,107.136c-0.61,0-1.227-0.036-1.884-0.11c-1.372-0.155-2.358-1.394-2.203-2.766s1.385-2.362,2.766-2.203
					c0.469,0.054,0.901,0.079,1.321,0.079c7.188,0,13.037-5.849,13.037-13.037c0-7.189-5.849-13.038-13.037-13.038
					c-0.406,0-0.825,0.021-1.245,0.063c-1.363,0.152-2.598-0.866-2.734-2.24s0.866-2.599,2.24-2.734
					c0.584-0.059,1.169-0.088,1.739-0.088c9.945,0,18.037,8.092,18.037,18.038C160.687,99.044,152.595,107.136,142.649,107.136z"/>
			</g>
		</g>
		<g>
			<g>
				<path d="M63.442,107.136c-9.945,0-18.037-8.092-18.037-18.037c0-9.946,8.092-18.038,18.037-18.038
					c0.619,0,1.25,0.034,1.877,0.102c1.373,0.146,2.367,1.379,2.22,2.751c-0.146,1.374-1.387,2.371-2.751,2.22
					c-7.802-0.832-14.383,5.335-14.383,12.966c0,7.188,5.849,13.037,13.037,13.037c0.347,0,0.688-0.018,1.025-0.049
					c1.371-0.132,2.593,0.886,2.719,2.26c0.127,1.375-0.885,2.592-2.26,2.719C64.422,107.112,63.923,107.136,63.442,107.136z"/>
			</g>
		</g>
		<g>
			<g>
				<path d="M150.553,77.313c-1.381,0-2.5-1.119-2.5-2.5v-11.85c0-11.851-2.891-18.647-7.931-18.647
					c-2.637,0-4.81-2.097-4.844-4.674c-0.076-5.59-2.07-10.049-5.927-13.251c-7.323-6.081-21.43-7.859-38.696-4.879
					c-18.852,3.255-32.533,19.496-32.533,38.617v14.684c0,1.381-1.119,2.5-2.5,2.5s-2.5-1.119-2.5-2.5V60.129
					c0-21.561,15.427-39.874,36.682-43.545c18.713-3.232,34.29-1.059,42.742,5.96c4.972,4.129,7.571,9.771,7.728,16.772
					c4.845,0.064,12.779,3.285,12.779,23.646v11.85C153.053,76.193,151.934,77.313,150.553,77.313z"/>
			</g>
		</g>
		<g>
			<g>
				<path class="st4" d="M24.008,247.747l4.847-67.923c0.455-6.642,4.6-12.466,10.726-15.073l33.676-14.33
					c1.751-0.745,3.754,0.255,4.209,2.103L103.046,253.5H29.365C26.248,253.5,23.786,250.856,24.008,247.747z"/>
			</g>
		</g>
		<g>
			<g>
				<path class="st4" d="M178.805,201.802h-1.218c-1.536,0-2.782-1.246-2.782-2.783v-6.484c0-1.222-0.814-2.297-1.993-2.617
					c-3.209-0.869-6.251-2.143-9.07-3.762c-1.061-0.61-2.398-0.427-3.264,0.438l-4.59,4.59c-1.087,1.086-2.848,1.086-3.934,0
					l-7.526-7.526c-1.087-1.086-1.087-2.848,0-3.935l4.59-4.59c0.866-0.866,1.048-2.203,0.438-3.264
					c-1.619-2.818-2.893-5.86-3.762-9.069c-0.319-1.18-1.395-1.993-2.617-1.993h-6.485c-1.536,0-2.782-1.246-2.782-2.783v-7.188
					l-0.976-0.416c-1.751-0.745-3.754,0.255-4.209,2.103L103.046,253.5h73.681c3.117,0,5.579-2.644,5.357-5.753L178.805,201.802z"/>
			</g>
		</g>
		<g>
			<g>
				<path class="st15" d="M178.805,201.802h-1.218c-1.536,0-2.782-1.246-2.782-2.783v-6.484c0-1.222-0.814-2.297-1.993-2.617
					c-3.209-0.869-6.251-2.143-9.07-3.762c-1.061-0.61-2.398-0.427-3.264,0.438l-4.37,4.37c-0.99,2.768-1.517,5.709-1.517,8.709
					V253.5h22.136c3.117,0,5.579-2.644,5.357-5.753L178.805,201.802z"/>
			</g>
		</g>
		<g>
			<g>
				<path class="st15" d="M51.501,199.673c0-7.154-2.962-13.988-8.183-18.879l-11.005-10.31c-1.985,2.671-3.222,5.893-3.458,9.34
					l-4.847,67.923c-0.222,3.109,2.24,5.753,5.357,5.753h22.136V199.673z"/>
			</g>
		</g>
		<g>
			<g>
				<path class="st15" d="M77.466,152.525c-0.456-1.848-2.458-2.849-4.209-2.103l-7.211,3.069v40.542
					c0,0.859,0.593,1.605,1.43,1.798l9.42,2.174c1.12,0.259,1.734,1.468,1.281,2.525l-4.271,9.965
					c-0.547,1.277-0.525,2.726,0.061,3.986L92.116,253.5h10.93L77.466,152.525z"/>
			</g>
		</g>
		<g>
			<g>
				<path class="st15" d="M136.592,160.808c-1.536,0-2.782-1.246-2.782-2.783v-7.188l-0.976-0.416
					c-1.751-0.745-3.754,0.255-4.209,2.103L103.046,253.5h10.93l18.149-39.021c0.586-1.26,0.608-2.709,0.061-3.986l-4.271-9.965
					c-0.453-1.057,0.161-2.266,1.281-2.524l9.42-2.174c0.837-0.193,1.43-0.938,1.43-1.798v-33.225H136.592z"/>
			</g>
		</g>
		<g>
			<g>
				<path class="st11" d="M77.466,152.525L81,166.472l6.271,7.591c0.879,1.064,2.495,1.109,3.431,0.094l8.157-8.837
					c0.758-0.821,0.748-2.089-0.022-2.899L83.15,145.931c-0.702-0.738-1.866-0.779-2.619-0.092l-4.983,4.55
					C76.461,150.732,77.211,151.487,77.466,152.525z"/>
			</g>
		</g>
		<g>
			<g>
				<path class="st11" d="M115.39,174.158c0.936,1.014,2.552,0.97,3.431-0.094l6.271-7.591l3.533-13.948
					c0.256-1.038,1.005-1.792,1.918-2.136l-4.983-4.55c-0.753-0.687-1.917-0.646-2.619,0.092l-15.687,16.492
					c-0.77,0.81-0.78,2.078-0.022,2.899L115.39,174.158z"/>
			</g>
		</g>
		<g>
			<g>
				<g>
					<path class="st6" d="M118.821,174.063c-0.879,1.064-2.495,1.109-3.431,0.094l-4.373-4.737c-1.76,2.513-4.67,4.161-7.971,4.161
						s-6.211-1.647-7.971-4.161l-4.373,4.737c-0.936,1.014-2.552,0.97-3.431-0.094L81,166.472l22.046,87.028l22.046-87.028
						L118.821,174.063z"/>
				</g>
			</g>
		</g>
		<g>
			<g>
				<path class="st5" d="M102.92,253.001l0.382-0.509l9.356-36.934l-4.591-43.383c-1.467,0.886-3.181,1.406-5.021,1.406
					s-3.553-0.519-5.021-1.406l-4.591,43.383L102.92,253.001z"/>
			</g>
		</g>
		<g>
			<g>
				<path d="M103.046,118.573c-4.776,0-9.262-1.949-11.999-5.216c-0.887-1.058-0.748-2.635,0.31-3.521
					c1.061-0.887,2.637-0.748,3.522,0.31c1.799,2.146,4.852,3.428,8.167,3.428s6.368-1.281,8.167-3.428
					c0.888-1.059,2.464-1.196,3.522-0.31c1.058,0.887,1.196,2.464,0.31,3.521C112.308,116.624,107.822,118.573,103.046,118.573z"/>
			</g>
		</g>
		<g>
			<g>
				<path d="M103.046,256H29.365c-2.177,0-4.276-0.914-5.76-2.507c-1.484-1.594-2.246-3.753-2.092-5.924l0,0l4.848-67.923
					c0.522-7.613,5.213-14.204,12.241-17.195l33.677-14.331c1.511-0.641,3.218-0.589,4.685,0.144
					c1.469,0.733,2.537,2.068,2.93,3.662l25.576,100.96c0.189,0.748,0.022,1.541-0.451,2.149
					C104.545,255.645,103.817,256,103.046,256z M26.502,247.925c-0.058,0.804,0.213,1.571,0.762,2.161
					c0.55,0.589,1.296,0.914,2.102,0.914h70.469l-24.791-97.861c-0.058-0.234-0.201-0.347-0.313-0.402
					c-0.112-0.056-0.286-0.104-0.494-0.015L40.56,167.053c-5.288,2.25-8.817,7.209-9.21,12.942L26.502,247.925z"/>
			</g>
		</g>
		<g>
			<g>
				<path d="M176.727,256h-73.681c-0.771,0-1.499-0.355-1.973-0.965c-0.474-0.608-0.641-1.401-0.451-2.149l25.579-100.976
					c0.39-1.579,1.458-2.913,2.927-3.646c1.466-0.733,3.175-0.784,4.687-0.142c1.271,0.541,1.861,2.009,1.32,3.279
					c-0.54,1.271-2.013,1.863-3.279,1.32c-0.208-0.088-0.384-0.04-0.494,0.016c-0.111,0.055-0.255,0.167-0.31,0.386L106.258,251
					h70.469c0.806,0,1.552-0.325,2.102-0.914c0.549-0.59,0.819-1.357,0.762-2.161l-3.211-44.985
					c-0.098-1.377,0.938-2.573,2.316-2.671c1.361-0.104,2.572,0.938,2.672,2.315l3.211,44.985c0.154,2.171-0.607,4.33-2.092,5.924
					C181.003,255.086,178.903,256,176.727,256z"/>
			</g>
		</g>
		<g>
			<g>
				<path d="M154.591,254.925c-1.381,0-2.5-1.119-2.5-2.5v-52.752c0-3.133,0.521-6.235,1.548-9.222
					c0.449-1.305,1.871-1.999,3.178-1.551c1.306,0.449,2,1.872,1.551,3.178c-0.847,2.461-1.276,5.017-1.276,7.595v52.752
					C157.091,253.806,155.972,254.925,154.591,254.925z"/>
			</g>
		</g>
		<g>
			<g>
				<path d="M51.501,254.925c-1.381,0-2.5-1.119-2.5-2.5v-52.752c0-6.438-2.694-12.653-7.392-17.054l-10.39-9.733
					c-1.008-0.943-1.06-2.525-0.115-3.533c0.943-1.007,2.525-1.061,3.533-0.115l10.39,9.733c5.703,5.342,8.974,12.888,8.974,20.702
					v52.752C54.001,253.806,52.882,254.925,51.501,254.925z"/>
			</g>
		</g>
		<g>
			<g>
				<path d="M91.775,255.265c-0.942,0-1.845-0.536-2.269-1.446L71.7,215.534c-0.885-1.902-0.918-4.099-0.092-6.026l3.962-9.244
					l-8.657-1.998c-1.982-0.458-3.367-2.198-3.367-4.233v-40c0-1.381,1.119-2.5,2.5-2.5s2.5,1.119,2.5,2.5v39.479l8.912,2.057
					c1.258,0.29,2.314,1.117,2.898,2.269c0.583,1.151,0.626,2.491,0.118,3.677l-4.271,9.964c-0.268,0.623-0.257,1.333,0.029,1.947
					l17.807,38.284c0.582,1.252,0.04,2.739-1.212,3.321C92.486,255.189,92.128,255.265,91.775,255.265z"/>
			</g>
		</g>
		<g>
			<g>
				<path d="M114.206,255.502c-0.353,0-0.711-0.075-1.053-0.234c-1.252-0.582-1.794-2.069-1.212-3.321l17.917-38.521
					c0.286-0.614,0.297-1.324,0.03-1.946l-4.271-9.965c-0.509-1.187-0.465-2.527,0.119-3.679c0.585-1.151,1.642-1.978,2.899-2.268
					l8.91-2.056V161.31c0-1.381,1.119-2.5,2.5-2.5s2.5,1.119,2.5,2.5v32.723c0,2.035-1.385,3.775-3.367,4.233l-8.657,1.998
					l3.963,9.245c0.826,1.928,0.792,4.123-0.093,6.025l-17.917,38.521C116.051,254.966,115.148,255.502,114.206,255.502z"/>
			</g>
		</g>
		<g>
			<g>
				<path d="M89.028,177.391c-0.044,0-0.088,0-0.132-0.001c-1.379-0.038-2.674-0.67-3.553-1.733l-6.104-7.39
					c-0.879-1.064-0.729-2.64,0.336-3.52c1.063-0.878,2.638-0.73,3.52,0.336l5.942,7.193l7.744-8.39L81.763,148.1l-4.204,3.839
					c-1.021,0.932-2.602,0.857-3.532-0.161c-0.931-1.02-0.858-2.601,0.161-3.532l4.658-4.253c1.745-1.592,4.488-1.496,6.116,0.216
					l15.688,16.491c1.672,1.759,1.693,4.534,0.047,6.317l-8.157,8.837C91.632,176.836,90.359,177.391,89.028,177.391z"/>
			</g>
		</g>
		<g>
			<g>
				<path d="M117.064,177.391c-1.332,0-2.604-0.555-3.511-1.536l-8.158-8.838c-1.646-1.783-1.625-4.559,0.047-6.317l15.688-16.491
					c1.629-1.714,4.372-1.81,6.116-0.215l4.845,4.422c1.02,0.932,1.092,2.513,0.161,3.532c-0.93,1.019-2.512,1.092-3.532,0.161
					l-4.391-4.009l-15.019,15.787l7.744,8.39l6.042-7.314c0.879-1.066,2.456-1.215,3.52-0.336c1.064,0.88,1.215,2.455,0.336,3.52
					l-6.203,7.51c-0.878,1.063-2.173,1.695-3.552,1.733C117.153,177.391,117.108,177.391,117.064,177.391z"/>
			</g>
		</g>
		<g>
			<g>
				<path d="M112.609,217.635c-1.263,0-2.348-0.953-2.483-2.237l-4.48-42.346c-0.146-1.373,0.851-2.604,2.224-2.749
					c1.365-0.139,2.604,0.851,2.749,2.224l4.48,42.346c0.146,1.373-0.851,2.604-2.224,2.749
					C112.786,217.63,112.697,217.635,112.609,217.635z"/>
			</g>
		</g>
		<g>
			<g>
				<path d="M93.482,217.635c-0.088,0-0.177-0.005-0.266-0.014c-1.373-0.146-2.369-1.376-2.224-2.749l4.483-42.371
					c0.146-1.374,1.385-2.352,2.749-2.224c1.373,0.146,2.369,1.376,2.224,2.749l-4.483,42.371
					C95.83,216.682,94.745,217.635,93.482,217.635z"/>
			</g>
		</g>
		<g>
			<g>
				<g>
					<path d="M103.046,176.081c-3.616,0-7.028-1.593-9.36-4.368c-0.889-1.058-0.751-2.635,0.306-3.522
						c1.058-0.888,2.636-0.75,3.522,0.306c1.38,1.643,3.396,2.585,5.532,2.585s4.152-0.942,5.532-2.585
						c0.887-1.058,2.465-1.194,3.522-0.306c1.057,0.888,1.194,2.465,0.306,3.522C110.074,174.488,106.662,176.081,103.046,176.081z"
						/>
				</g>
			</g>
		</g>
		<g>
			<g>
				<g>
					<circle cx="119.835" cy="90.816" r="5"/>
				</g>
			</g>
			<g>
				<g>
					<circle cx="86.256" cy="90.816" r="5"/>
				</g>
			</g>
			<g>
				<g>
					<path d="M128.521,106.015h-9.237c-7.457,0-13.524-6.067-13.524-13.524v-6.39c0-5.577,4.538-10.115,10.115-10.115h16.057
						c5.577,0,10.114,4.538,10.114,10.115v6.39C142.046,99.947,135.979,106.015,128.521,106.015z M115.875,80.985
						c-2.82,0-5.115,2.295-5.115,5.115v6.39c0,4.7,3.824,8.524,8.524,8.524h9.237c4.7,0,8.524-3.824,8.524-8.524v-6.39
						c0-2.82-2.294-5.115-5.114-5.115H115.875z"/>
				</g>
			</g>
			<g>
				<g>
					<path d="M86.808,106.015H77.57c-7.457,0-13.524-6.067-13.524-13.524v-6.39c0-5.577,4.537-10.115,10.114-10.115h16.057
						c5.577,0,10.115,4.538,10.115,10.115v6.39C100.332,99.947,94.265,106.015,86.808,106.015z M74.16,80.985
						c-2.82,0-5.114,2.295-5.114,5.115v6.39c0,4.7,3.824,8.524,8.524,8.524h9.237c4.7,0,8.524-3.824,8.524-8.524v-6.39
						c0-2.82-2.295-5.115-5.115-5.115H74.16z"/>
				</g>
			</g>
			<g>
				<g>
					<path d="M107.218,89.925h-8.344c-1.381,0-2.5-1.119-2.5-2.5s1.119-2.5,2.5-2.5h8.344c1.381,0,2.5,1.119,2.5,2.5
						S108.599,89.925,107.218,89.925z"/>
				</g>
			</g>
		</g>
		<g>
			<g>
				<path class="st1" d="M229.224,144.601h-6.485c-1.222,0-2.297-0.814-2.617-1.993c-0.869-3.209-2.143-6.251-3.763-9.07
					c-0.61-1.061-0.427-2.397,0.438-3.263l4.59-4.591c1.087-1.086,1.087-2.848,0-3.935l-7.525-7.525
					c-1.086-1.086-2.848-1.086-3.934,0l-4.59,4.589c-0.866,0.866-2.202,1.048-3.264,0.438c-2.819-1.62-5.86-2.893-9.069-3.762
					c-1.179-0.319-1.993-1.395-1.993-2.617v-6.485c0-1.537-1.246-2.782-2.782-2.782h-10.643c-1.537,0-2.782,1.245-2.782,2.782v6.485
					c0,1.222-0.814,2.298-1.993,2.617c-3.209,0.869-6.251,2.142-9.07,3.762c-1.061,0.61-2.398,0.427-3.264-0.438l-4.59-4.589
					c-1.087-1.086-2.848-1.086-3.934,0l-7.526,7.525c-1.087,1.087-1.087,2.849,0,3.935l4.59,4.591
					c0.866,0.866,1.048,2.202,0.438,3.263c-1.619,2.819-2.893,5.861-3.762,9.07c-0.319,1.179-1.395,1.993-2.617,1.993h-6.485
					c-1.536,0-2.782,1.245-2.782,2.782v10.643c0,1.537,1.245,2.783,2.782,2.783h6.485c1.222,0,2.297,0.813,2.617,1.993
					c0.869,3.209,2.143,6.251,3.762,9.069c0.61,1.061,0.427,2.398-0.438,3.264l-4.59,4.59c-1.087,1.086-1.087,2.849,0,3.935
					l7.525,7.525c1.086,1.086,2.848,1.086,3.934,0l4.59-4.59c0.866-0.866,2.202-1.048,3.264-0.438
					c2.819,1.619,5.861,2.893,9.07,3.762c1.179,0.32,1.993,1.395,1.993,2.617v6.485c0,1.537,1.245,2.782,2.782,2.782h10.643
					c1.537,0,2.782-1.246,2.782-2.782v-6.485c0-1.222,0.814-2.297,1.993-2.617c3.209-0.869,6.251-2.143,9.069-3.762
					c1.061-0.61,2.398-0.427,3.264,0.438l4.59,4.59c1.086,1.086,2.848,1.086,3.934,0l7.526-7.525c1.087-1.086,1.087-2.849,0-3.935
					l-4.59-4.59c-0.866-0.866-1.048-2.202-0.438-3.264c1.619-2.819,2.893-5.86,3.763-9.069c0.319-1.18,1.395-1.993,2.617-1.993
					h6.485c1.536,0,2.782-1.246,2.782-2.783v-10.643C232.006,145.846,230.76,144.601,229.224,144.601z"/>
			</g>
		</g>
		<g>
			<g>
				<circle class="st10" cx="182.908" cy="152.704" r="26"/>
			</g>
		</g>
		<g>
			<g>
				<path class="st7" d="M182.194,135.784c-7.693,0.358-13.984,6.754-14.225,14.452c-0.166,5.32,2.454,10.027,6.506,12.801
					c1.121,0.767,1.766,2.06,1.766,3.418v1.556c0,1.533,1.243,2.777,2.777,2.777h7.779c1.533,0,2.777-1.243,2.777-2.777v-1.556
					c0-1.365,0.655-2.656,1.78-3.427c3.923-2.692,6.5-7.197,6.5-12.314C197.854,142.223,190.773,135.385,182.194,135.784z"/>
			</g>
		</g>
		<g>
			<g>
				<path class="st6" d="M186.797,170.788h-7.779c-0.485,0-0.934-0.135-1.331-0.354v7.745c1.686,0.344,3.432,0.525,5.22,0.525
					s3.534-0.181,5.22-0.525v-7.745C187.731,170.653,187.282,170.788,186.797,170.788z"/>
			</g>
		</g>
		<g>
			<g>
				<path d="M188.229,204.302h-10.643c-2.913,0-5.282-2.369-5.282-5.282v-6.485c0-0.097-0.061-0.18-0.146-0.203
					c-3.37-0.913-6.621-2.262-9.661-4.008c-0.082-0.046-0.182-0.031-0.25,0.037l-4.592,4.591c-0.996,0.998-2.323,1.548-3.734,1.548
					s-2.737-0.55-3.735-1.548l-7.525-7.525c-2.06-2.06-2.06-5.41,0-7.47l4.59-4.59c0.068-0.068,0.084-0.172,0.039-0.251
					c-1.746-3.04-3.095-6.29-4.008-9.661c-0.023-0.086-0.107-0.146-0.204-0.146h-6.484c-2.913,0-5.282-2.369-5.282-5.282v-10.643
					c0-2.913,2.369-5.282,5.282-5.282h6.484c0.097,0,0.181-0.062,0.205-0.148c0.912-3.369,2.26-6.619,4.006-9.659
					c0.047-0.081,0.031-0.182-0.038-0.251l-4.59-4.591c-2.059-2.059-2.06-5.409-0.001-7.469l7.526-7.525
					c0.998-0.998,2.324-1.548,3.735-1.548s2.738,0.55,3.735,1.549l4.59,4.587c0.069,0.069,0.17,0.083,0.25,0.04
					c3.037-1.746,6.288-3.095,9.662-4.009c0.087-0.023,0.146-0.106,0.146-0.203v-6.485c0-2.912,2.369-5.281,5.282-5.281h10.643
					c2.913,0,5.282,2.369,5.282,5.281v6.485c0,0.097,0.06,0.18,0.145,0.202c3.374,0.914,6.624,2.263,9.663,4.009
					c0.08,0.045,0.182,0.03,0.25-0.037l4.591-4.59c0.998-0.998,2.324-1.548,3.735-1.548s2.738,0.55,3.735,1.549l7.524,7.523
					c0.998,0.998,1.548,2.324,1.548,3.735s-0.55,2.738-1.549,3.735l-4.589,4.59c-0.068,0.069-0.084,0.171-0.038,0.251
					c1.746,3.039,3.095,6.289,4.008,9.661c0.023,0.086,0.107,0.146,0.204,0.146h6.484c2.913,0,5.282,2.369,5.282,5.282v10.643
					c0,2.913-2.369,5.282-5.282,5.282h-6.484c-0.097,0-0.181,0.061-0.204,0.146c-0.913,3.373-2.262,6.623-4.009,9.661
					c-0.045,0.078-0.028,0.183,0.04,0.252l4.59,4.589c2.06,2.06,2.06,5.41,0,7.47l-7.526,7.525
					c-0.996,0.998-2.323,1.548-3.734,1.548s-2.737-0.55-3.735-1.548l-4.59-4.59c-0.069-0.069-0.172-0.083-0.25-0.039
					c-3.043,1.748-6.294,3.097-9.662,4.009c-0.086,0.023-0.146,0.106-0.146,0.203v6.485
					C193.512,201.933,191.143,204.302,188.229,204.302z M162.402,183.299c0.887,0,1.779,0.226,2.586,0.689
					c2.668,1.532,5.521,2.716,8.477,3.517c2.261,0.612,3.84,2.68,3.84,5.029v6.485c0,0.155,0.127,0.282,0.282,0.282h10.643
					c0.155,0,0.282-0.127,0.282-0.282v-6.485c0-2.35,1.579-4.417,3.84-5.029c2.954-0.8,5.807-1.983,8.478-3.518
					c2.034-1.168,4.616-0.824,6.277,0.84l4.589,4.589c0.11,0.108,0.288,0.108,0.398,0.001l7.527-7.526
					c0.109-0.11,0.109-0.289,0-0.399l-4.591-4.59c-1.661-1.663-2.006-4.244-0.839-6.277c1.533-2.667,2.717-5.519,3.518-8.477
					c0.612-2.261,2.681-3.84,5.03-3.84h6.484c0.155,0,0.282-0.127,0.282-0.282v-10.643c0-0.155-0.127-0.282-0.282-0.282h-6.484
					c-2.35,0-4.418-1.579-5.03-3.84c-0.801-2.958-1.984-5.81-3.518-8.478c-1.167-2.033-0.822-4.613,0.838-6.275l4.591-4.592
					c0.055-0.056,0.083-0.122,0.083-0.199c0-0.078-0.028-0.145-0.083-0.2l-7.525-7.524c-0.112-0.11-0.289-0.109-0.399,0l-4.59,4.589
					c-1.662,1.662-4.243,2.007-6.277,0.838c-2.667-1.532-5.519-2.716-8.477-3.517c-2.26-0.61-3.84-2.679-3.84-5.029v-6.485
					c0-0.155-0.127-0.281-0.282-0.281h-10.643c-0.155,0-0.282,0.126-0.282,0.281v6.485c0,2.351-1.58,4.419-3.842,5.03
					c-2.957,0.801-5.81,1.984-8.475,3.516c-2.036,1.172-4.617,0.825-6.278-0.839l-4.59-4.587c-0.113-0.112-0.289-0.11-0.399-0.001
					l-7.525,7.524c-0.109,0.11-0.109,0.289,0,0.399l4.59,4.591c1.663,1.662,2.008,4.244,0.838,6.277
					c-1.531,2.668-2.715,5.52-3.516,8.477c-0.614,2.262-2.683,3.84-5.03,3.84h-6.484c-0.155,0-0.282,0.127-0.282,0.282v10.643
					c0,0.155,0.127,0.282,0.282,0.282h6.484c2.348,0,4.416,1.578,5.03,3.838c0.801,2.959,1.984,5.812,3.517,8.479
					c1.169,2.033,0.824,4.614-0.839,6.277l-4.59,4.59c-0.109,0.11-0.109,0.289,0,0.399l7.525,7.525
					c0.11,0.108,0.287,0.108,0.398,0.001l4.592-4.591C159.714,183.822,161.052,183.299,162.402,183.299z"/>
			</g>
		</g>
		<g>
			<g>
				<path d="M182.908,171.352c-1.381,0-2.5-1.119-2.5-2.5v-13c0-1.381,1.119-2.5,2.5-2.5s2.5,1.119,2.5,2.5v13
					C185.408,170.232,184.289,171.352,182.908,171.352z"/>
			</g>
		</g>
		<g>
			<g>
				<path d="M185.908,157.352h-6c-1.381,0-2.5-1.119-2.5-2.5s1.119-2.5,2.5-2.5h6c1.381,0,2.5,1.119,2.5,2.5
					S187.289,157.352,185.908,157.352z"/>
			</g>
		</g>
		<g>
			<g>
				<path d="M182.908,181.204c-15.715,0-28.5-12.785-28.5-28.5s12.785-28.5,28.5-28.5s28.5,12.785,28.5,28.5
					S198.623,181.204,182.908,181.204z M182.908,129.204c-12.958,0-23.5,10.542-23.5,23.5s10.542,23.5,23.5,23.5
					s23.5-10.542,23.5-23.5S195.866,129.204,182.908,129.204z"/>
			</g>
		</g>
		<g>
			<g>
				<path d="M186.798,173.288h-7.779c-2.909,0-5.276-2.367-5.276-5.276v-1.556c0-0.558-0.254-1.065-0.679-1.356
					c-4.941-3.382-7.78-8.968-7.593-14.941c0.282-9.04,7.577-16.45,16.607-16.871l0,0c4.846-0.229,9.395,1.483,12.875,4.807
					c3.483,3.324,5.401,7.807,5.401,12.62c0,5.743-2.836,11.117-7.586,14.376c-0.435,0.298-0.694,0.809-0.694,1.365v1.557
					C192.074,170.921,189.707,173.288,186.798,173.288z M182.311,138.281c-6.439,0.3-11.641,5.586-11.842,12.033
					c-0.134,4.261,1.892,8.245,5.419,10.66c1.787,1.224,2.854,3.272,2.854,5.481v1.556c0,0.152,0.124,0.276,0.276,0.276h7.779
					c0.152,0,0.276-0.124,0.276-0.276v-1.557c0-2.206,1.071-4.258,2.866-5.488c3.39-2.326,5.414-6.159,5.414-10.253
					c0-3.434-1.368-6.632-3.854-9.004C189.017,139.339,185.729,138.133,182.311,138.281L182.311,138.281z"/>
			</g>
		</g>
		<g>
			<g>
				<path d="M188.128,180.135c-1.381,0-2.5-1.119-2.5-2.5v-6.251c0-1.381,1.119-2.5,2.5-2.5s2.5,1.119,2.5,2.5v6.251
					C190.628,179.016,189.509,180.135,188.128,180.135z"/>
			</g>
		</g>
		<g>
			<g>
				<path d="M177.688,180.13c-1.381,0-2.5-1.119-2.5-2.5v-6.382c0-1.381,1.119-2.5,2.5-2.5s2.5,1.119,2.5,2.5v6.382
					C180.188,179.011,179.069,180.13,177.688,180.13z"/>
			</g>
		</g>
		<g>
			<g>
				<path class="st7" d="M45.709,117.33c-4.498-0.838-8.043-4.31-8.898-8.716c-0.043-0.221-0.352-0.221-0.395,0
					c-0.855,4.406-4.4,7.879-8.898,8.716c-0.226,0.042-0.226,0.345,0,0.387c4.498,0.838,8.043,4.31,8.898,8.717
					c0.043,0.221,0.352,0.221,0.395,0c0.855-4.406,4.4-7.879,8.898-8.717C45.935,117.675,45.935,117.373,45.709,117.33z"/>
			</g>
		</g>
		<g>
			<g>
				<path class="st8" d="M180.402,83.101c-2.862-0.533-5.118-2.743-5.663-5.547c-0.027-0.141-0.224-0.141-0.251,0
					c-0.544,2.804-2.8,5.014-5.663,5.547c-0.144,0.027-0.144,0.219,0,0.246c2.862,0.533,5.118,2.743,5.663,5.547
					c0.027,0.141,0.224,0.141,0.251,0c0.544-2.804,2.8-5.014,5.663-5.547C180.546,83.32,180.546,83.128,180.402,83.101z"/>
			</g>
		</g>
		<g>
			<g>
				<path class="st6" d="M153.134,14.75h2.33v-2.33c0-1.744,1.413-3.157,3.157-3.157c1.744,0,3.157,1.413,3.157,3.157v2.33h2.329
					c1.744,0,3.157,1.413,3.157,3.157s-1.413,3.157-3.157,3.157h-2.329v2.33c0,1.744-1.413,3.157-3.157,3.157
					c-1.744,0-3.157-1.413-3.157-3.157v-2.33h-2.33c-1.744,0-3.157-1.413-3.157-3.157S151.39,14.75,153.134,14.75z"/>
			</g>
		</g>
		<g>
			<g>
				<circle class="st9" cx="25.642" cy="148.825" r="3.377"/>
			</g>
		</g>
		<g>
			<g>
				<circle class="st7" cx="135.642" cy="3.377" r="3.377"/>
			</g>
		</g>
	</g>
</g>
<g id="Layer_80">
</g>
</svg>
