<?xml version="1.0" encoding="utf-8"?>
<!-- Generator: Adobe Illustrator 24.0.0, SVG Export Plug-In . SVG Version: 6.00 Build 0)  -->
<svg version="1.1" xmlns="http://www.w3.org/2000/svg" xmlns:xlink="http://www.w3.org/1999/xlink" x="0px" y="0px"
	 viewBox="0 0 256 256" style="enable-background:new 0 0 256 256;" xml:space="preserve">
<style type="text/css">
	.st0{fill:#3A70BF;}
	.st1{fill:#EDF4FC;}
	.st2{fill:#C7D7E5;}
	.st3{fill:#F9D0B4;}
	.st4{fill:#5B5D60;}
	.st5{fill:#5290DB;}
	.st6{fill:#70D6F9;}
	.st7{fill:#F5C84C;}
	.st8{fill:#FC657E;}
	.st9{fill:#87D147;}
	.st10{fill:#FCDD86;}
	.st11{fill:#9BE5F9;}
	.st12{fill:#B2E26D;}
	.st13{fill:#754E34;}
	.st14{fill:#FCA265;}
	.st15{fill:#818182;}
	.st16{fill:#F94EED;}
	.st17{fill:#FFC197;}
	.st18{fill:#3CAADC;}
	.st19{fill:#DAE6F1;}
	.st20{fill:#57AF12;}
	.st21{fill:#EF4460;}
	.st22{fill:#FFF0CA;}
	.st23{fill:#F98FA6;}
	.st24{fill:#EDB311;}
	.st25{fill:#FC8C48;}
	.st26{fill:#FCB9CB;}
	.st27{fill:#96BC71;}
	.st28{fill:#78A352;}
	.st29{fill:#B8DD90;}
	.st30{fill:#6FAFEF;}
	.st31{fill:#29589F;}
	.st32{fill:#414344;}
	.st33{fill:#9B6B4B;}
	.st34{fill:#73B1EF;}
</style>
<g id="Layer_1">
</g>
<g id="Layer_2">
</g>
<g id="Layer_3">
</g>
<g id="Layer_4">
</g>
<g id="Layer_5">
</g>
<g id="Layer_6">
</g>
<g id="Layer_7">
</g>
<g id="Layer_8">
</g>
<g id="Layer_9">
</g>
<g id="Layer_10">
</g>
<g id="Layer_11">
</g>
<g id="Layer_12">
</g>
<g id="Layer_13">
</g>
<g id="Layer_14">
</g>
<g id="Layer_15">
</g>
<g id="Layer_16">
</g>
<g id="Layer_17">
</g>
<g id="Layer_18">
</g>
<g id="Layer_19">
</g>
<g id="Layer_20">
</g>
<g id="Layer_21">
</g>
<g id="Layer_22">
</g>
<g id="Layer_23">
</g>
<g id="Layer_24">
</g>
<g id="Layer_25">
</g>
<g id="Layer_26">
</g>
<g id="Layer_27">
</g>
<g id="Layer_28">
</g>
<g id="Layer_29">
</g>
<g id="Layer_30">
</g>
<g id="Layer_31">
</g>
<g id="Layer_32">
</g>
<g id="Layer_33">
</g>
<g id="Layer_34">
</g>
<g id="Layer_35">
</g>
<g id="Layer_36">
</g>
<g id="Layer_37">
</g>
<g id="Layer_38">
</g>
<g id="Layer_39">
</g>
<g id="Layer_40">
</g>
<g id="Layer_41">
</g>
<g id="Layer_42">
</g>
<g id="Layer_43">
</g>
<g id="Layer_44">
</g>
<g id="Layer_45">
</g>
<g id="Layer_46">
</g>
<g id="Layer_47">
</g>
<g id="Layer_48">
</g>
<g id="Layer_49">
</g>
<g id="Layer_50">
</g>
<g id="Layer_51">
</g>
<g id="Layer_52">
</g>
<g id="Layer_53">
</g>
<g id="Layer_54">
</g>
<g id="Layer_55">
</g>
<g id="Layer_56">
</g>
<g id="Layer_57">
</g>
<g id="Layer_58">
</g>
<g id="Layer_59">
</g>
<g id="Layer_60">
</g>
<g id="Layer_61">
</g>
<g id="Layer_62">
</g>
<g id="Layer_63">
</g>
<g id="Layer_64">
</g>
<g id="Layer_65">
</g>
<g id="Layer_66">
</g>
<g id="Layer_67">
</g>
<g id="Layer_68">
</g>
<g id="Layer_69">
</g>
<g id="Layer_70">
</g>
<g id="Layer_71">
</g>
<g id="Layer_72">
</g>
<g id="Layer_73">
</g>
<g id="Layer_74">
</g>
<g id="Layer_75">
</g>
<g id="Layer_76">
</g>
<g id="Layer_77">
</g>
<g id="Layer_78">
</g>
<g id="Layer_79">
</g>
<g id="Layer_80">
	<g>
		<g>
			<g>
				<path class="st1" d="M225.112,144.601h-6.485c-1.222,0-2.297-0.814-2.617-1.993c-0.869-3.209-2.143-6.251-3.763-9.07
					c-0.61-1.061-0.427-2.397,0.438-3.263l4.59-4.591c1.087-1.086,1.087-2.848,0-3.935l-7.525-7.525
					c-1.086-1.086-2.848-1.086-3.934,0l-4.59,4.589c-0.866,0.866-2.202,1.048-3.264,0.438c-2.819-1.62-5.86-2.893-9.069-3.762
					c-1.179-0.319-1.993-1.395-1.993-2.617v-6.485c0-1.537-1.246-2.782-2.782-2.782h-10.643c-1.537,0-2.782,1.245-2.782,2.782v6.485
					c0,1.222-0.814,2.298-1.993,2.617c-3.209,0.869-6.251,2.142-9.07,3.762c-1.061,0.61-2.398,0.427-3.264-0.438l-4.59-4.589
					c-1.087-1.086-2.848-1.086-3.934,0l-7.526,7.525c-1.087,1.087-1.087,2.849,0,3.935l4.59,4.591
					c0.866,0.866,1.048,2.202,0.438,3.263c-1.619,2.819-2.893,5.861-3.762,9.07c-0.32,1.179-1.395,1.993-2.617,1.993h-6.485
					c-1.536,0-2.782,1.245-2.782,2.782v10.643c0,1.537,1.245,2.783,2.782,2.783h6.485c1.222,0,2.297,0.813,2.617,1.993
					c0.869,3.209,2.143,6.251,3.762,9.069c0.61,1.061,0.427,2.398-0.438,3.264l-4.59,4.59c-1.087,1.086-1.087,2.849,0,3.935
					l7.525,7.525c1.086,1.086,2.848,1.086,3.934,0l4.59-4.59c0.866-0.866,2.202-1.048,3.264-0.438
					c2.819,1.619,5.861,2.893,9.07,3.762c1.179,0.32,1.993,1.395,1.993,2.617v6.485c0,1.537,1.245,2.782,2.782,2.782h10.643
					c1.537,0,2.782-1.246,2.782-2.782v-6.485c0-1.222,0.814-2.297,1.993-2.617c3.209-0.869,6.251-2.143,9.069-3.762
					c1.061-0.61,2.398-0.427,3.264,0.438l4.59,4.59c1.086,1.086,2.848,1.086,3.934,0l7.526-7.525c1.087-1.086,1.087-2.849,0-3.935
					l-4.59-4.59c-0.866-0.866-1.048-2.202-0.438-3.264c1.619-2.819,2.893-5.86,3.763-9.069c0.319-1.18,1.395-1.993,2.617-1.993
					h6.485c1.536,0,2.782-1.246,2.782-2.783v-10.643C227.894,145.846,226.649,144.601,225.112,144.601z"/>
			</g>
		</g>
		<g>
			<g>
				<path class="st3" d="M139.895,71.985c-0.759,0-1.502,0.064-2.229,0.177c0,3.696,0,20.799,0,26.293v0v0
					c0,0.783-0.036,1.558-0.088,2.329c0.756,0.122,1.526,0.202,2.316,0.202c8.009,0,14.501-6.492,14.501-14.501
					C154.396,78.477,147.903,71.985,139.895,71.985z"/>
			</g>
		</g>
		<g>
			<g>
				<path class="st3" d="M119.547,60.642c-5.29,6.174-24.047,24.906-51.344,17.13v20.684c0,19.102,15.629,34.732,34.732,34.732l0,0
					c19.102,0,34.732-15.629,34.732-34.732v-28.06c0-1.276-0.893-2.358-2.136-2.646c-3.514-0.814-7.782-2.85-12.673-7.294
					C121.889,59.577,120.397,59.649,119.547,60.642z"/>
			</g>
		</g>
		<g>
			<g>
				<path class="st3" d="M68.203,77.771c-2.385-0.679-4.834-1.559-7.346-2.668c-1.619-0.715-3.511-0.386-4.803,0.825
					c-2.817,2.641-4.581,6.39-4.581,10.557c0,8.008,6.492,14.501,14.501,14.501c0.79,0,1.56-0.08,2.316-0.202
					c-0.052-0.771-0.088-1.546-0.088-2.329V77.771z"/>
			</g>
		</g>
		<g>
			<g>
				<g>
					<path class="st13" d="M56.054,75.929c1.291-1.211,3.183-1.54,4.803-0.825c2.512,1.109,4.961,1.988,7.346,2.668
						c27.297,7.776,46.055-10.956,51.344-17.13c0.85-0.992,2.342-1.065,3.309-0.186c4.892,4.445,9.159,6.48,12.673,7.294
						c1.243,0.288,2.136,1.37,2.136,2.646v1.766c0.727-0.113,1.47-0.177,2.229-0.177c4.012,0,7.643,1.63,10.268,4.263v-8.494
						c0-25.976-21.253-47.229-47.229-47.229c-25.976,0-47.229,21.253-47.229,47.229v8.535
						C55.824,76.171,55.932,76.043,56.054,75.929z"/>
				</g>
			</g>
		</g>
		<g>
			<g>
				<path class="st3" d="M173.475,201.802c-1.536,0-2.782-1.246-2.782-2.783v-6.484c0-1.222-0.814-2.297-1.993-2.617
					c-3.209-0.869-6.251-2.143-9.07-3.762c-1.061-0.61-2.398-0.427-3.264,0.438l-4.59,4.59c-1.087,1.086-2.848,1.086-3.934,0
					l-7.526-7.526c-1.087-1.086-1.087-2.848,0-3.935l4.59-4.59c0.866-0.866,1.048-2.203,0.438-3.264
					c-1.619-2.818-2.893-5.86-3.762-9.069c-0.319-1.18-1.395-1.993-2.617-1.993h-6.485c-1.536,0-2.782-1.246-2.782-2.783v-7.457
					l-4.859-2.396c-3.298-1.626-5.386-4.983-5.386-8.66v-10.533c-4.92,2.682-10.551,4.208-16.52,4.208
					c-5.97,0-11.6-1.526-16.52-4.208v10.533c0,3.677-2.088,7.034-5.386,8.66l-8.587,4.234c-1.919,0.946-3.933,1.687-6.009,2.209
					L41.6,160.884c-6.044,1.521-10.396,6.796-10.743,13.019l-2.745,75.418c-0.126,2.269,1.68,4.179,3.953,4.179h21.99
					c1.478,0,2.677-1.198,2.677-2.677v-47.143l3.883,12.438c2.539,8.133,3.83,16.604,3.83,25.125v9.58
					c0,1.479,1.198,2.677,2.677,2.677h30.345h10.937h30.345c1.478,0,2.677-1.198,2.677-2.677v-9.58
					c0-8.521,1.291-16.991,3.83-25.125l3.883-12.438v47.143c0,1.479,1.198,2.677,2.677,2.677h21.99c2.273,0,4.079-1.91,3.953-4.179
					l-1.729-47.519H173.475z"/>
			</g>
		</g>
		<g>
			<g>
				<path class="st4" d="M173.475,201.802c-1.536,0-2.782-1.246-2.782-2.783v-6.484c0-1.222-0.814-2.297-1.993-2.617
					c-3.209-0.869-6.251-2.143-9.07-3.762c-1.061-0.61-2.398-0.427-3.264,0.438l-4.59,4.59c-1.087,1.086-2.848,1.086-3.934,0
					l-7.526-7.526c-1.087-1.086-1.087-2.848,0-3.935l4.59-4.59c0.866-0.866,1.048-2.203,0.438-3.264
					c-1.619-2.818-2.893-5.86-3.762-9.069c-0.319-1.18-1.395-1.993-2.617-1.993h-6.485c-1.536,0-2.782-1.246-2.782-2.783v-7.457
					l-4.859-2.396c-0.274-0.135-0.526-0.298-0.782-0.457l-20.446,79.733c-0.449,1.75-0.677,3.577-0.677,5.415V253.5h5.468h30.345
					c1.478,0,2.677-1.198,2.677-2.677v-9.58c0-8.521,1.291-16.991,3.83-25.125l3.883-12.438v47.143c0,1.479,1.198,2.677,2.677,2.677
					h21.99c2.273,0,4.079-1.91,3.953-4.179l-1.729-47.519H173.475z"/>
			</g>
		</g>
		<g>
			<g>
				<path class="st4" d="M81.811,147.715c-0.256,0.158-0.508,0.322-0.782,0.457l-8.587,4.234c-1.919,0.946-3.933,1.687-6.009,2.209
					L41.6,160.884c-6.044,1.521-10.396,6.796-10.743,13.019l-2.744,75.418c-0.127,2.269,1.68,4.179,3.953,4.179h21.99
					c1.478,0,2.677-1.198,2.677-2.677v-47.143l3.883,12.439c2.539,8.133,3.83,16.604,3.83,25.124v9.58
					c0,1.478,1.198,2.677,2.677,2.677h30.345h5.468v-20.636c0-1.838-0.229-3.664-0.677-5.415L81.811,147.715z"/>
			</g>
		</g>
		<g>
			<g>
				<path class="st11" d="M102.257,227.449c0.148,0.576,0.263,1.163,0.362,1.753c0.021,0.124,0.04,0.248,0.059,0.373
					c0.089,0.586,0.16,1.176,0.201,1.771v0l0,0c0.035,0.504,0.056,1.011,0.056,1.518c0-0.508,0.021-1.014,0.056-1.518l0,0v0
					c0.041-0.595,0.112-1.185,0.201-1.771c0.019-0.125,0.038-0.248,0.059-0.373c0.1-0.59,0.215-1.177,0.362-1.753l15.02-58.572
					c-4.525,2.921-9.91,4.623-15.697,4.623c-5.787,0-11.172-1.703-15.697-4.623L102.257,227.449z"/>
			</g>
		</g>
		<g>
			<g>
				<path class="st13" d="M129.699,147.382c0-1.537,1.246-2.782,2.782-2.782h6.485c1.222,0,2.297-0.814,2.617-1.993
					c0.869-3.209,2.143-6.25,3.762-9.07c0.61-1.061,0.427-2.397-0.438-3.263l-4.59-4.591c-1.086-1.086-1.086-2.848,0-3.935
					l7.526-7.525c0.043-0.043,0.093-0.073,0.138-0.112c1.609-6.717,1.35-12.085,0.55-15.996c-2.414,1.795-5.395,2.871-8.634,2.871
					c-0.79,0-1.56-0.081-2.316-0.202c-0.816,12.152-7.945,22.646-18.124,28.194v10.533c0,3.677,2.088,7.034,5.386,8.66l4.859,2.396
					V147.382z"/>
			</g>
		</g>
		<g>
			<g>
				<path class="st13" d="M66.433,154.615c2.075-0.523,4.089-1.263,6.009-2.209l8.587-4.234c3.298-1.626,5.386-4.984,5.386-8.66
					v-10.533c-10.179-5.548-17.308-16.042-18.124-28.194c-0.756,0.122-1.526,0.202-2.316,0.202c-3.239,0-6.22-1.075-8.634-2.87
					c-1.075,5.253-1.18,13.133,2.92,23.384c4.655,11.637-12.887,21.309-11.338,37.536L66.433,154.615z"/>
			</g>
		</g>
		<g>
			<g>
				<path class="st15" d="M139.887,168.629l-1.142-7.822h-6.265c-1.536,0-2.782-1.246-2.782-2.783v-7.457l-4.859-2.396
					c-0.274-0.135-0.526-0.298-0.782-0.457l-20.446,79.733c-0.325,1.267-0.531,2.575-0.621,3.896l31.937-39.785
					c0.578-0.72,0.706-1.828,0.315-2.722l-4.727-10.796c-0.529-1.207-0.092-2.719,0.933-3.229l7.311-3.643
					C139.572,170.766,140.044,169.703,139.887,168.629z"/>
			</g>
		</g>
		<g>
			<g>
				<path class="st15" d="M102.257,227.449L81.81,147.715c-0.256,0.158-0.508,0.322-0.782,0.457l-8.587,4.234
					c-1.402,0.691-2.856,1.27-4.346,1.737l-2.114,14.487c-0.157,1.074,0.315,2.136,1.128,2.541l7.31,3.643
					c1.025,0.511,1.462,2.022,0.933,3.23l-4.727,10.796c-0.391,0.894-0.263,2.002,0.315,2.722l31.937,39.785
					C102.787,230.023,102.582,228.716,102.257,227.449z"/>
			</g>
		</g>
		<g>
			<g>
				<path d="M139.895,103.486c-0.512,0-1.044-0.028-1.581-0.084c-1.373-0.142-2.372-1.369-2.229-2.743
					c0.141-1.373,1.356-2.385,2.743-2.229c0.367,0.037,0.727,0.057,1.067,0.057c6.617,0,12.001-5.383,12.001-12
					s-5.384-12.001-12.001-12.001c-0.367,0-0.729,0.019-1.088,0.053c-1.394,0.125-2.594-0.88-2.724-2.255
					c-0.129-1.375,0.88-2.594,2.255-2.724c0.524-0.049,1.049-0.074,1.557-0.074c9.374,0,17.001,7.627,17.001,17.001
					S149.269,103.486,139.895,103.486z"/>
			</g>
		</g>
		<g>
			<g>
				<path d="M102.935,135.687c-20.53,0-37.232-16.702-37.232-37.231V77.771c0-0.784,0.368-1.522,0.994-1.995s1.44-0.624,2.19-0.409
					c25.92,7.384,43.876-10.649,48.762-16.353l0,0c0.85-0.991,2.034-1.581,3.335-1.662c1.292-0.081,2.59,0.376,3.555,1.254
					c3.951,3.59,7.839,5.847,11.556,6.708c2.397,0.556,4.072,2.646,4.072,5.081v28.06
					C140.166,118.984,123.464,135.687,102.935,135.687z M70.702,80.979v17.477c0,17.772,14.459,32.231,32.232,32.231
					c17.772,0,32.231-14.459,32.231-32.231v-28.06c0-0.113-0.101-0.187-0.201-0.21c-4.514-1.046-9.108-3.656-13.656-7.759
					C115.951,68.626,97.514,86.863,70.702,80.979z M121.176,62.307L121.176,62.307L121.176,62.307z M121.445,62.269L121.445,62.269
					C121.444,62.27,121.444,62.27,121.445,62.269L121.445,62.269z"/>
			</g>
		</g>
		<g>
			<g>
				<path d="M65.974,103.486c-9.374,0-17-7.626-17-17c0-4.669,1.957-9.182,5.37-12.382c2.032-1.903,4.983-2.406,7.522-1.288
					c2.328,1.028,4.69,1.887,7.021,2.551c1.327,0.379,2.097,1.762,1.719,3.09c-0.379,1.327-1.759,2.099-3.09,1.719
					c-2.552-0.728-5.133-1.665-7.67-2.785c-0.7-0.308-1.519-0.167-2.083,0.362c-2.444,2.291-3.79,5.393-3.79,8.733
					c0,6.617,5.383,12,12,12c0.356,0,0.708-0.021,1.055-0.055c1.366-0.141,2.6,0.865,2.736,2.238
					c0.138,1.373-0.864,2.599-2.238,2.736C66.998,103.459,66.476,103.486,65.974,103.486z"/>
			</g>
		</g>
		<g>
			<g>
				<g>
					<path d="M55.705,78.465c-1.381,0-2.5-1.119-2.5-2.5v-8.21c0-27.42,22.309-49.729,49.729-49.729
						c27.42,0,49.729,22.309,49.729,49.729v7.787c0,1.381-1.119,2.5-2.5,2.5s-2.5-1.119-2.5-2.5v-7.787
						c0-24.663-20.065-44.729-44.729-44.729c-24.664,0-44.729,20.065-44.729,44.729v8.21C58.205,77.346,57.086,78.465,55.705,78.465
						z"/>
				</g>
			</g>
		</g>
		<g>
			<g>
				<path d="M129.182,152.814c-0.371,0-0.748-0.083-1.104-0.259l-4.344-2.142c-4.183-2.063-6.78-6.24-6.78-10.902v-9.514
					c0-1.381,1.119-2.5,2.5-2.5s2.5,1.119,2.5,2.5v9.514c0,2.744,1.529,5.204,3.991,6.418l4.344,2.142
					c1.238,0.61,1.747,2.109,1.137,3.348C130.99,152.302,130.104,152.814,129.182,152.814z"/>
			</g>
		</g>
		<g>
			<g>
				<path d="M173.804,256h-21.989c-2.854,0-5.177-2.322-5.177-5.177v-30.476c-1.802,6.816-2.713,13.828-2.713,20.896v9.579
					c0,2.854-2.322,5.177-5.177,5.177H67.121c-2.854,0-5.177-2.322-5.177-5.177v-9.579c0-7.068-0.911-14.081-2.713-20.896v30.476
					c0,2.854-2.322,5.177-5.177,5.177H32.065c-1.768,0-3.479-0.736-4.693-2.021c-1.215-1.284-1.854-3.033-1.756-4.798l2.742-75.369
					c0.412-7.403,5.487-13.554,12.631-15.353l24.831-6.268c1.903-0.479,3.759-1.161,5.516-2.027l8.587-4.234
					c2.462-1.214,3.991-3.673,3.991-6.418v-9.921c0-1.381,1.119-2.5,2.5-2.5s2.5,1.119,2.5,2.5v9.921
					c0,4.663-2.598,8.841-6.78,10.902l-8.587,4.234c-2.072,1.022-4.261,1.827-6.504,2.392l-24.831,6.268
					c-5.013,1.262-8.572,5.575-8.859,10.733l-2.742,75.37c-0.032,0.595,0.233,0.962,0.395,1.132
					c0.161,0.171,0.514,0.457,1.061,0.457h21.989c0.098,0,0.177-0.079,0.177-0.177v-47.143c0-1.235,0.902-2.285,2.123-2.472
					c1.22-0.188,2.395,0.547,2.764,1.727l3.883,12.438c2.616,8.382,3.943,17.086,3.943,25.87v9.579c0,0.098,0.079,0.177,0.177,0.177
					h71.627c0.098,0,0.177-0.079,0.177-0.177v-9.579c0-8.784,1.327-17.488,3.943-25.87l3.883-12.438
					c0.369-1.179,1.545-1.915,2.764-1.727c1.221,0.187,2.123,1.236,2.123,2.472v47.143c0,0.098,0.079,0.177,0.177,0.177h21.989
					c0.547,0,0.898-0.286,1.06-0.456c0.161-0.171,0.428-0.539,0.397-1.085l-1.711-47c-0.051-1.38,1.027-2.539,2.407-2.589
					c1.355-0.048,2.539,1.027,2.589,2.407l1.709,46.952c0.096,1.718-0.545,3.466-1.76,4.75C177.281,255.264,175.571,256,173.804,256
					z"/>
			</g>
		</g>
		<g>
			<g>
				<path d="M102.935,117.757c-4.776,0-9.263-1.949-11.999-5.215c-0.887-1.058-0.748-2.635,0.311-3.521s2.636-0.749,3.521,0.311
					c1.798,2.145,4.852,3.426,8.167,3.426s6.368-1.281,8.167-3.427c0.89-1.058,2.465-1.195,3.522-0.31
					c1.058,0.888,1.196,2.464,0.31,3.522C112.195,115.808,107.71,117.757,102.935,117.757z"/>
			</g>
		</g>
		<g>
			<g>
				<path d="M102.935,254.831c-1.381,0-2.5-1.119-2.5-2.5v-19.468c0-1.631-0.201-3.243-0.6-4.792l-20.181-78.697
					c-0.343-1.338,0.464-2.7,1.801-3.043c1.333-0.336,2.699,0.464,3.043,1.801l20.181,78.696c0.501,1.954,0.756,3.985,0.756,6.035
					v19.468C105.435,253.712,104.315,254.831,102.935,254.831z"/>
			</g>
		</g>
		<g>
			<g>
				<path d="M102.935,176c-5.811,0-11.497-1.604-16.444-4.64c-1.177-0.722-1.545-2.262-0.823-3.438
					c0.723-1.177,2.264-1.543,3.438-0.823c4.159,2.553,8.941,3.901,13.829,3.901c4.932,0,9.748-1.37,13.93-3.963
					c1.173-0.725,2.714-0.367,3.442,0.808c0.728,1.174,0.366,2.715-0.808,3.442C114.526,174.37,108.798,176,102.935,176z"/>
			</g>
		</g>
		<g>
			<g>
				<path d="M148.066,116.251c-0.187,0-0.376-0.021-0.565-0.065c-1.345-0.311-2.184-1.653-1.872-2.999
					c1.116-4.825,1.329-9.395,0.635-13.58c-0.227-1.361,0.694-2.649,2.057-2.875c1.363-0.237,2.648,0.694,2.875,2.057
					c0.804,4.835,0.569,10.059-0.695,15.525C150.232,115.469,149.204,116.251,148.066,116.251z"/>
			</g>
		</g>
		<g>
			<g>
				<path d="M48.879,161.063c-1.298,0-2.395-1.002-2.49-2.317c-0.634-8.643,3.51-15.414,7.165-21.39
					c3.882-6.346,6.171-10.462,4.385-14.927c-3.453-8.633-4.523-16.75-3.182-24.126c0.247-1.358,1.548-2.256,2.907-2.013
					c1.358,0.247,2.26,1.549,2.013,2.907c-0.806,4.426-0.955,11.726,2.904,21.374c2.808,7.02-1.041,13.311-4.763,19.394
					c-3.421,5.593-6.959,11.376-6.443,18.415c0.101,1.377-0.934,2.575-2.311,2.676C49.002,161.061,48.94,161.063,48.879,161.063z"/>
			</g>
		</g>
		<g>
			<g>
				<path d="M102.989,233.846c-0.305,0-0.612-0.056-0.909-0.172c-1.018-0.397-1.659-1.409-1.584-2.499
					c0.103-1.487,0.336-2.949,0.694-4.348l20.259-79.005c0.344-1.338,1.713-2.139,3.043-1.801c1.337,0.343,2.144,1.705,1.801,3.043
					l-18.56,72.379l25.245-31.448c-0.008-0.002-0.005-0.104-0.026-0.152l-4.727-10.797c-1.075-2.452-0.13-5.355,2.108-6.47
					l7.083-3.529c0-0.018-0.001-0.036-0.004-0.056l-1.011-6.925c-0.199-1.366,0.746-2.636,2.112-2.835
					c1.37-0.202,2.635,0.747,2.835,2.112l1.011,6.924c0.313,2.141-0.709,4.255-2.486,5.141l-7.084,3.53
					c-0.001,0.035,0.003,0.073,0.015,0.101l4.728,10.797c0.771,1.759,0.514,3.835-0.655,5.29l-31.938,39.785
					C104.455,233.515,103.731,233.846,102.989,233.846z"/>
			</g>
		</g>
		<g>
			<g>
				<path d="M102.564,233.451c-0.732,0-1.458-0.319-1.951-0.935l-31.621-39.391c-1.168-1.454-1.426-3.53-0.657-5.288l4.729-10.798
					c0.012-0.027,0.017-0.065,0.016-0.102l-7.084-3.53c-1.776-0.885-2.799-2.998-2.487-5.139l1.999-13.694
					c0.199-1.365,1.462-2.314,2.835-2.112c1.366,0.199,2.312,1.469,2.112,2.835l-1.999,13.693c-0.003,0.02-0.004,0.038-0.004,0.055
					l7.084,3.53c2.236,1.113,3.183,4.016,2.108,6.469l-4.728,10.797c-0.021,0.049-0.019,0.15,0.001,0.192l31.595,39.352
					c0.864,1.077,0.692,2.65-0.384,3.515C103.666,233.271,103.113,233.451,102.564,233.451z M68.467,169.136h0.011H68.467z"/>
			</g>
		</g>
		<g>
			<g>
				<circle cx="120.224" cy="90.816" r="4"/>
			</g>
		</g>
		<g>
			<g>
				<circle cx="86.645" cy="90.816" r="4"/>
			</g>
		</g>
		<g>
			<g>
				<path d="M106.826,91.172h-7.783c-1.381,0-2.5-1.119-2.5-2.5s1.119-2.5,2.5-2.5h7.783c1.381,0,2.5,1.119,2.5,2.5
					S108.207,91.172,106.826,91.172z"/>
			</g>
		</g>
		<g>
			<g>
				<path d="M126.701,106.182h-8.617c-7.05,0-12.785-5.735-12.785-12.784v-5.961c0-5.296,4.309-9.604,9.604-9.604h14.979
					c5.296,0,9.604,4.309,9.604,9.604v5.961C139.486,100.446,133.751,106.182,126.701,106.182z M114.902,82.832
					c-2.538,0-4.604,2.065-4.604,4.604v5.961c0,4.292,3.492,7.784,7.785,7.784h8.617c4.293,0,7.785-3.492,7.785-7.784v-5.961
					c0-2.539-2.065-4.604-4.604-4.604H114.902z"/>
			</g>
		</g>
		<g>
			<g>
				<path d="M87.785,106.182h-8.617c-7.05,0-12.785-5.735-12.785-12.784v-5.961c0-5.296,4.309-9.604,9.604-9.604h14.979
					c5.295,0,9.604,4.309,9.604,9.604v5.961C100.569,100.446,94.834,106.182,87.785,106.182z M75.986,82.832
					c-2.538,0-4.604,2.065-4.604,4.604v5.961c0,4.292,3.492,7.784,7.785,7.784h8.617c4.292,0,7.784-3.492,7.784-7.784v-5.961
					c0-2.539-2.065-4.604-4.604-4.604H75.986z"/>
			</g>
		</g>
		<g>
			<g>
				<circle class="st10" cx="178.796" cy="152.704" r="26"/>
			</g>
		</g>
		<g>
			<g>
				<path class="st7" d="M178.083,135.784c-7.693,0.358-13.984,6.754-14.225,14.452c-0.166,5.32,2.454,10.027,6.506,12.801
					c1.121,0.767,1.766,2.06,1.766,3.418v1.556c0,1.533,1.243,2.777,2.777,2.777h7.779c1.534,0,2.777-1.243,2.777-2.777v-1.556
					c0-1.365,0.655-2.656,1.78-3.427c3.923-2.692,6.5-7.197,6.5-12.314C193.743,142.223,186.662,135.385,178.083,135.784z"/>
			</g>
		</g>
		<g>
			<g>
				<path class="st6" d="M182.686,170.788h-7.779c-0.485,0-0.934-0.135-1.331-0.354v7.745c1.686,0.344,3.432,0.525,5.22,0.525
					s3.534-0.181,5.22-0.525v-7.745C183.62,170.653,183.171,170.788,182.686,170.788z"/>
			</g>
		</g>
		<g>
			<g>
				<path d="M184.118,204.302h-10.644c-2.912,0-5.281-2.369-5.281-5.282v-6.485c0-0.097-0.061-0.18-0.146-0.203
					c-3.37-0.913-6.621-2.262-9.661-4.008c-0.081-0.045-0.182-0.029-0.252,0.038l-4.59,4.59c-2.059,2.063-5.411,2.061-7.47,0
					l-7.525-7.525c-0.998-0.996-1.548-2.323-1.548-3.734c0-1.412,0.55-2.739,1.549-3.736l4.589-4.589
					c0.068-0.068,0.084-0.172,0.039-0.251c-1.748-3.042-3.097-6.292-4.009-9.661c-0.023-0.086-0.106-0.146-0.203-0.146h-6.485
					c-2.912,0-5.281-2.369-5.281-5.282v-10.643c0-2.913,2.369-5.282,5.281-5.282h6.485c0.097,0,0.18-0.061,0.203-0.146
					c0.912-3.368,2.261-6.619,4.008-9.661c0.047-0.081,0.031-0.182-0.038-0.251l-4.59-4.591c-0.998-0.996-1.548-2.323-1.548-3.734
					s0.55-2.737,1.548-3.735l7.525-7.524c2.06-2.063,5.412-2.06,7.47,0l4.59,4.589c0.069,0.067,0.171,0.082,0.251,0.039
					c3.037-1.746,6.288-3.095,9.662-4.009c0.086-0.023,0.146-0.108,0.146-0.203v-6.485c0-2.912,2.369-5.281,5.282-5.281h10.643
					c2.913,0,5.282,2.369,5.282,5.281v6.485c0,0.095,0.061,0.18,0.145,0.203c3.373,0.913,6.624,2.262,9.663,4.008
					c0.082,0.049,0.182,0.03,0.251-0.038l4.59-4.589c0.998-0.998,2.324-1.548,3.735-1.548s2.738,0.55,3.735,1.549l7.524,7.523
					c0.998,0.998,1.548,2.324,1.548,3.735s-0.55,2.738-1.549,3.735l-4.589,4.59c-0.068,0.069-0.084,0.171-0.038,0.251
					c1.747,3.042,3.096,6.293,4.008,9.661c0.023,0.086,0.106,0.146,0.203,0.146h6.485c2.913,0,5.282,2.369,5.282,5.282v10.643
					c0,2.913-2.369,5.282-5.282,5.282h-6.485c-0.097,0-0.18,0.061-0.203,0.146c-0.912,3.369-2.261,6.619-4.008,9.66
					c-0.046,0.079-0.029,0.184,0.039,0.253l4.589,4.589c0.998,0.996,1.548,2.323,1.548,3.735c0,1.411-0.55,2.738-1.549,3.735
					l-7.524,7.524c-0.996,0.998-2.323,1.548-3.734,1.548s-2.737-0.55-3.735-1.548l-4.59-4.59c-0.068-0.068-0.169-0.085-0.25-0.039
					c-3.044,1.748-6.294,3.097-9.663,4.009c-0.086,0.023-0.146,0.106-0.146,0.203v6.485
					C189.4,201.933,187.031,204.302,184.118,204.302z M158.292,183.299c0.887,0,1.779,0.226,2.585,0.689
					c2.668,1.532,5.521,2.716,8.477,3.517c2.261,0.612,3.84,2.681,3.84,5.029v6.485c0,0.155,0.126,0.282,0.281,0.282h10.644
					c0.155,0,0.282-0.127,0.282-0.282v-6.485c0-2.349,1.578-4.417,3.839-5.029c2.955-0.8,5.808-1.983,8.479-3.518
					c2.035-1.17,4.614-0.823,6.276,0.839l4.59,4.59c0.109,0.108,0.287,0.108,0.398,0.001l7.526-7.526
					c0.055-0.056,0.083-0.122,0.083-0.199c0-0.078-0.028-0.145-0.082-0.199l-4.591-4.591c-1.661-1.663-2.006-4.244-0.839-6.277
					c1.534-2.67,2.717-5.521,3.518-8.477c0.612-2.261,2.68-3.84,5.029-3.84h6.485c0.155,0,0.282-0.127,0.282-0.282v-10.643
					c0-0.155-0.127-0.282-0.282-0.282h-6.485c-2.349,0-4.417-1.579-5.029-3.84c-0.8-2.954-1.983-5.807-3.518-8.478
					c-1.167-2.033-0.822-4.613,0.838-6.275l4.591-4.592c0.055-0.056,0.083-0.122,0.083-0.199c0-0.078-0.028-0.145-0.083-0.2
					l-7.525-7.524c-0.113-0.11-0.29-0.109-0.399,0l-4.59,4.589c-1.663,1.662-4.246,2.007-6.277,0.838
					c-2.667-1.532-5.52-2.716-8.478-3.517c-2.26-0.61-3.839-2.679-3.839-5.029v-6.485c0-0.155-0.127-0.281-0.282-0.281h-10.643
					c-0.155,0-0.282,0.126-0.282,0.281v6.485c0,2.351-1.58,4.419-3.841,5.029c-2.958,0.802-5.811,1.985-8.476,3.517
					c-2.034,1.172-4.615,0.824-6.278-0.838l-4.59-4.589c-0.109-0.109-0.288-0.109-0.399,0l-7.525,7.524
					c-0.055,0.056-0.083,0.122-0.083,0.2c0,0.077,0.028,0.144,0.082,0.198l4.591,4.592c1.663,1.662,2.008,4.244,0.838,6.277
					c-1.533,2.67-2.717,5.522-3.517,8.477c-0.612,2.261-2.681,3.84-5.029,3.84h-6.485c-0.155,0-0.281,0.127-0.281,0.282v10.643
					c0,0.155,0.126,0.282,0.281,0.282h6.485c2.35,0,4.417,1.579,5.029,3.84c0.801,2.955,1.983,5.807,3.518,8.477
					c1.169,2.033,0.824,4.614-0.839,6.277l-4.59,4.59c-0.055,0.056-0.083,0.122-0.083,0.2c0,0.077,0.028,0.144,0.082,0.198
					l7.526,7.526c0.111,0.109,0.288,0.11,0.399,0l4.59-4.59C155.603,183.822,156.94,183.299,158.292,183.299z"/>
			</g>
		</g>
		<g>
			<g>
				<path d="M178.797,171.352c-1.381,0-2.5-1.119-2.5-2.5v-13c0-1.381,1.119-2.5,2.5-2.5s2.5,1.119,2.5,2.5v13
					C181.297,170.232,180.178,171.352,178.797,171.352z"/>
			</g>
		</g>
		<g>
			<g>
				<path d="M181.797,157.352h-6c-1.381,0-2.5-1.119-2.5-2.5s1.119-2.5,2.5-2.5h6c1.381,0,2.5,1.119,2.5,2.5
					S183.178,157.352,181.797,157.352z"/>
			</g>
		</g>
		<g>
			<g>
				<path d="M178.797,181.204c-15.715,0-28.5-12.785-28.5-28.5s12.785-28.5,28.5-28.5s28.5,12.785,28.5,28.5
					S194.512,181.204,178.797,181.204z M178.797,129.204c-12.958,0-23.5,10.542-23.5,23.5s10.542,23.5,23.5,23.5
					s23.5-10.542,23.5-23.5S191.755,129.204,178.797,129.204z"/>
			</g>
		</g>
		<g>
			<g>
				<path d="M182.686,173.288h-7.778c-2.909,0-5.276-2.367-5.276-5.276v-1.556c0-0.558-0.254-1.065-0.679-1.356
					c-4.941-3.382-7.78-8.968-7.594-14.941c0.282-9.04,7.577-16.45,16.608-16.871l0,0c4.839-0.229,9.395,1.483,12.875,4.807
					c3.483,3.324,5.401,7.807,5.401,12.62c0,5.742-2.836,11.116-7.585,14.376c-0.436,0.298-0.695,0.809-0.695,1.365v1.557
					C187.963,170.921,185.596,173.288,182.686,173.288z M178.199,138.281c-6.439,0.3-11.642,5.586-11.843,12.033
					c-0.133,4.261,1.893,8.245,5.42,10.66c1.787,1.224,2.854,3.272,2.854,5.481v1.556c0,0.152,0.124,0.276,0.276,0.276h7.778
					c0.153,0,0.277-0.124,0.277-0.276v-1.557c0-2.206,1.071-4.258,2.866-5.488c3.39-2.326,5.414-6.159,5.414-10.253
					c0-3.434-1.368-6.632-3.854-9.004C184.905,139.339,181.614,138.133,178.199,138.281L178.199,138.281z"/>
			</g>
		</g>
		<g>
			<g>
				<path d="M178.797,181.204c-1.921,0-3.846-0.193-5.72-0.576c-1.165-0.237-2.001-1.261-2.001-2.449v-7.745
					c0-0.884,0.467-1.702,1.228-2.152c0.763-0.449,1.705-0.462,2.478-0.038c0.024,0.014,0.086,0.045,0.126,0.045h7.778
					c0.04,0,0.1-0.03,0.123-0.043c0.775-0.428,1.716-0.415,2.479,0.036c0.762,0.449,1.229,1.268,1.229,2.152v7.745
					c0,1.188-0.836,2.212-2.001,2.449C182.642,181.011,180.718,181.204,178.797,181.204z M176.076,176.048
					c1.804,0.207,3.637,0.207,5.44,0v-2.76h-5.44V176.048z"/>
			</g>
		</g>
		<g>
			<g>
				<path class="st7" d="M38.822,94.33c-4.498-0.838-8.043-4.31-8.898-8.716c-0.043-0.221-0.352-0.221-0.395,0
					c-0.855,4.406-4.4,7.879-8.898,8.716c-0.226,0.042-0.226,0.345,0,0.387c4.498,0.838,8.043,4.31,8.898,8.717
					c0.043,0.221,0.352,0.221,0.395,0c0.855-4.406,4.4-7.879,8.898-8.717C39.047,94.675,39.047,94.373,38.822,94.33z"/>
			</g>
		</g>
		<g>
			<g>
				<path class="st8" d="M183.515,80.101c-2.862-0.533-5.118-2.743-5.663-5.547c-0.027-0.141-0.224-0.141-0.251,0
					c-0.544,2.804-2.8,5.014-5.663,5.547c-0.144,0.027-0.144,0.219,0,0.246c2.862,0.533,5.118,2.743,5.663,5.547
					c0.027,0.141,0.224,0.141,0.251,0c0.544-2.804,2.8-5.014,5.663-5.547C183.658,80.32,183.658,80.128,183.515,80.101z"/>
			</g>
		</g>
		<g>
			<g>
				<path class="st6" d="M152.246,25.75h2.33v-2.33c0-1.744,1.413-3.157,3.157-3.157s3.157,1.413,3.157,3.157v2.33h2.329
					c1.744,0,3.157,1.413,3.157,3.157s-1.413,3.157-3.157,3.157h-2.329v2.33c0,1.744-1.413,3.157-3.157,3.157
					s-3.157-1.413-3.157-3.157v-2.33h-2.33c-1.744,0-3.157-1.413-3.157-3.157S150.502,25.75,152.246,25.75z"/>
			</g>
		</g>
		<g>
			<g>
				<circle class="st9" cx="23.755" cy="128.825" r="3.377"/>
			</g>
		</g>
		<g>
			<g>
				<circle class="st7" cx="144.755" cy="3.377" r="3.377"/>
			</g>
		</g>
	</g>
</g>
</svg>
