<?xml version="1.0" encoding="utf-8"?>
<!-- Generator: Adobe Illustrator 24.0.0, SVG Export Plug-In . SVG Version: 6.00 Build 0)  -->
<svg version="1.1" xmlns="http://www.w3.org/2000/svg" xmlns:xlink="http://www.w3.org/1999/xlink" x="0px" y="0px"
	 viewBox="0 0 256 256" style="enable-background:new 0 0 256 256;" xml:space="preserve">
<style type="text/css">
	.st0{fill:#3A70BF;}
	.st1{fill:#EDF4FC;}
	.st2{fill:#C7D7E5;}
	.st3{fill:#F9D0B4;}
	.st4{fill:#5B5D60;}
	.st5{fill:#5290DB;}
	.st6{fill:#70D6F9;}
	.st7{fill:#F5C84C;}
	.st8{fill:#FC657E;}
	.st9{fill:#87D147;}
	.st10{fill:#FCDD86;}
	.st11{fill:#9BE5F9;}
	.st12{fill:#B2E26D;}
	.st13{fill:#754E34;}
	.st14{fill:#FCA265;}
	.st15{fill:#818182;}
	.st16{fill:#F94EED;}
	.st17{fill:#FFC197;}
	.st18{fill:#3CAADC;}
	.st19{fill:#DAE6F1;}
	.st20{fill:#57AF12;}
	.st21{fill:#EF4460;}
	.st22{fill:#FFF0CA;}
	.st23{fill:#F98FA6;}
	.st24{fill:#EDB311;}
	.st25{fill:#FC8C48;}
	.st26{fill:#FCB9CB;}
	.st27{fill:#96BC71;}
	.st28{fill:#78A352;}
	.st29{fill:#B8DD90;}
	.st30{fill:#6FAFEF;}
	.st31{fill:#29589F;}
	.st32{fill:#414344;}
	.st33{fill:#9B6B4B;}
	.st34{fill:#73B1EF;}
</style>
<g id="Layer_1">
</g>
<g id="Layer_2">
</g>
<g id="Layer_3">
</g>
<g id="Layer_4">
</g>
<g id="Layer_5">
</g>
<g id="Layer_6">
</g>
<g id="Layer_7">
</g>
<g id="Layer_8">
</g>
<g id="Layer_9">
</g>
<g id="Layer_10">
</g>
<g id="Layer_11">
</g>
<g id="Layer_12">
</g>
<g id="Layer_13">
</g>
<g id="Layer_14">
</g>
<g id="Layer_15">
</g>
<g id="Layer_16">
</g>
<g id="Layer_17">
</g>
<g id="Layer_18">
</g>
<g id="Layer_19">
</g>
<g id="Layer_20">
</g>
<g id="Layer_21">
</g>
<g id="Layer_22">
</g>
<g id="Layer_23">
</g>
<g id="Layer_24">
</g>
<g id="Layer_25">
</g>
<g id="Layer_26">
</g>
<g id="Layer_27">
</g>
<g id="Layer_28">
</g>
<g id="Layer_29">
</g>
<g id="Layer_30">
</g>
<g id="Layer_31">
</g>
<g id="Layer_32">
</g>
<g id="Layer_33">
</g>
<g id="Layer_34">
</g>
<g id="Layer_35">
</g>
<g id="Layer_36">
</g>
<g id="Layer_37">
</g>
<g id="Layer_38">
</g>
<g id="Layer_39">
</g>
<g id="Layer_40">
</g>
<g id="Layer_41">
</g>
<g id="Layer_42">
</g>
<g id="Layer_43">
</g>
<g id="Layer_44">
</g>
<g id="Layer_45">
</g>
<g id="Layer_46">
</g>
<g id="Layer_47">
</g>
<g id="Layer_48">
</g>
<g id="Layer_49">
</g>
<g id="Layer_50">
</g>
<g id="Layer_51">
</g>
<g id="Layer_52">
</g>
<g id="Layer_53">
</g>
<g id="Layer_54">
</g>
<g id="Layer_55">
</g>
<g id="Layer_56">
</g>
<g id="Layer_57">
</g>
<g id="Layer_58">
</g>
<g id="Layer_59">
</g>
<g id="Layer_60">
</g>
<g id="Layer_61">
</g>
<g id="Layer_62">
</g>
<g id="Layer_63">
</g>
<g id="Layer_64">
</g>
<g id="Layer_65">
</g>
<g id="Layer_66">
</g>
<g id="Layer_67">
</g>
<g id="Layer_68">
</g>
<g id="Layer_69">
</g>
<g id="Layer_70">
	<g>
		<g>
			<g>
				<path class="st4" d="M80.528,139.512v-10.533c-10.179-5.548-17.308-16.042-18.124-28.194c-0.756,0.122-1.526,0.202-2.316,0.202
					c-3.897,0-7.427-1.545-10.032-4.046c-1.508,8.692-4.54,20.198-10.64,31.327c-1.112,2.029-0.572,4.566,1.303,5.922
					c4.92,3.557,16.083,9.666,36.93,12.174C79.452,144.579,80.528,142.133,80.528,139.512z"/>
			</g>
		</g>
		<g>
			<g>
				<path class="st4" d="M134.223,137.926c0-8.355,6.773-15.128,15.127-15.128h2.588c-4.3-9.343-6.636-18.585-7.897-25.858
					c-2.605,2.501-6.135,4.046-10.032,4.046c-0.79,0-1.56-0.081-2.316-0.202c-0.816,12.152-7.945,22.646-18.124,28.194v10.533
					c0,2.621,1.076,5.067,2.88,6.853c7.335-0.883,13.448-2.215,18.535-3.721C134.496,141.158,134.223,139.575,134.223,137.926z"/>
			</g>
		</g>
		<g>
			<g>
				<path class="st3" d="M134.009,71.985c-0.759,0-1.502,0.064-2.229,0.177c0,3.696,0,20.799,0,26.293v0v0
					c0,0.783-0.036,1.558-0.088,2.329c0.756,0.122,1.526,0.202,2.316,0.202c8.009,0,14.501-6.492,14.501-14.501
					C148.509,78.477,142.017,71.985,134.009,71.985z"/>
			</g>
		</g>
		<g>
			<g>
				<path class="st3" d="M113.661,60.642c-5.29,6.174-24.047,24.906-51.344,17.13v20.684c0,19.102,15.629,34.732,34.732,34.732l0,0
					c19.102,0,34.732-15.629,34.732-34.732v-28.06c0-1.276-0.893-2.358-2.136-2.646c-3.515-0.814-7.782-2.85-12.673-7.294
					C116.003,59.577,114.511,59.649,113.661,60.642z"/>
			</g>
		</g>
		<g>
			<g>
				<path class="st3" d="M62.316,77.771c-2.385-0.679-4.834-1.559-7.346-2.668c-1.619-0.715-3.511-0.386-4.803,0.825
					c-2.817,2.641-4.581,6.39-4.581,10.557c0,8.008,6.492,14.501,14.501,14.501c0.79,0,1.56-0.08,2.316-0.202
					c-0.052-0.771-0.088-1.546-0.088-2.329V77.771z"/>
			</g>
		</g>
		<g>
			<g>
				<g>
					<path class="st4" d="M50.168,75.929c1.291-1.211,3.183-1.54,4.803-0.825c2.512,1.109,4.961,1.988,7.346,2.668
						c27.297,7.776,46.055-10.956,51.344-17.13c0.85-0.992,2.342-1.065,3.309-0.186c4.892,4.445,9.159,6.48,12.673,7.294
						c1.243,0.288,2.136,1.37,2.136,2.646v1.766c0.727-0.113,1.47-0.177,2.229-0.177c4.012,0,7.643,1.63,10.268,4.263v-8.494
						c0-25.976-21.253-47.229-47.229-47.229c-25.976,0-47.229,21.253-47.229,47.229v8.535
						C49.937,76.171,50.046,76.043,50.168,75.929z"/>
				</g>
			</g>
		</g>
		<g>
			<g>
				<path class="st5" d="M167.227,186.469c-3.69,1.189-7.645-0.837-8.835-4.526l-7.393-22.923l-17.449-4.405
					c-0.272-0.068-0.539-0.151-0.809-0.227c-2.094,8.503-6.996,20.17-18.47,29.253c-2.486,1.969-3.972,4.939-3.972,8.11V253.5
					h22.563c1.478,0,2.677-1.198,2.677-2.677v-9.58c0-8.52,1.291-16.991,3.83-25.124l3.883-12.439v47.143
					c0,1.479,1.198,2.677,2.677,2.677h21.99c2.273,0,4.079-1.91,3.953-4.179l-2.333-64.122
					C168.872,185.749,168.098,186.188,167.227,186.469z"/>
			</g>
		</g>
		<g>
			<g>
				<path class="st5" d="M50.845,250.823v-47.143l3.883,12.439c2.539,8.133,3.83,16.604,3.83,25.124v9.58
					c0,1.479,1.198,2.677,2.677,2.677h22.563v-61.748c0-3.171-1.486-6.142-3.972-8.11c-11.475-9.083-16.376-20.75-18.47-29.253
					c-0.27,0.076-0.537,0.158-0.809,0.227l-24.833,6.269c-6.044,1.521-10.396,6.796-10.743,13.019l-2.745,75.418
					c-0.126,2.269,1.68,4.179,3.953,4.179h21.99C49.647,253.5,50.845,252.302,50.845,250.823z"/>
			</g>
		</g>
		<g>
			<g>
				<path class="st3" d="M79.826,183.642c2.486,1.969,3.972,4.939,3.972,8.11V253.5h7.782h10.937h7.782v-61.748
					c0-3.171,1.486-6.142,3.972-8.11c11.475-9.083,16.376-20.75,18.47-29.253c-1.789-0.503-3.532-1.16-5.2-1.983l-8.587-4.234
					c-3.298-1.626-5.386-4.984-5.386-8.66v-10.533c-4.92,2.682-10.551,4.208-16.52,4.208c-5.97,0-11.6-1.526-16.52-4.208v10.533
					c0,3.677-2.088,7.034-5.386,8.66l-8.587,4.234c-1.668,0.823-3.411,1.479-5.2,1.983
					C63.449,162.891,68.351,174.559,79.826,183.642z"/>
			</g>
		</g>
		<g>
			<g>
				<g>
					<path class="st1" d="M97.048,193.187c-4.717,0-9.22-0.956-13.33-2.679c0.051,0.41,0.08,0.825,0.08,1.244V253.5h7.782h10.937
						h7.782v-61.748c0-0.419,0.03-0.834,0.08-1.244C106.268,192.231,101.765,193.187,97.048,193.187z"/>
				</g>
			</g>
		</g>
		<g>
			<g>
				<path class="st1" d="M181.478,119.155c-2.223,1.354-3.58,3.768-3.58,6.37c0,8.674,0,16.127,0,24.801
					c0,2.602,1.357,5.017,3.58,6.37l25.774,15.689v-34.459v-34.459L181.478,119.155z"/>
			</g>
		</g>
		<g>
			<g>
				<path class="st8" d="M177.898,150.327c0-8.674,0-16.127,0-24.801c0-0.948,0.185-1.87,0.521-2.727h-29.069
					c-8.355,0-15.128,6.773-15.128,15.128s6.773,15.128,15.128,15.128h29.068C178.082,152.197,177.898,151.275,177.898,150.327z"/>
			</g>
		</g>
		<g>
			<g>
				<path class="st2" d="M210.96,130.545h-3.708v7.381v7.381h3.708c4.076,0,7.381-3.305,7.381-7.381S215.036,130.545,210.96,130.545
					z"/>
			</g>
		</g>
		<g>
			<g>
				<path class="st1" d="M163.826,153.054h-14.475c-0.095,0-0.186-0.012-0.28-0.014l9.321,28.903c1.19,3.69,5.146,5.716,8.835,4.526
					c3.69-1.19,5.716-5.146,4.526-8.835L163.826,153.054z"/>
			</g>
		</g>
		<g>
			<g>
				<path class="st11" d="M201.6,64.5h-19.104c-3.271,0-5.948,2.677-5.948,5.948v12.104c0,3.271,2.677,5.948,5.948,5.948h7.286
					c1.006,0,1.822,0.815,1.822,1.822v2.526c0,1.003,1.199,1.521,1.929,0.832l4.964-4.683c0.338-0.319,0.785-0.497,1.25-0.497h1.854
					c3.271,0,5.948-2.677,5.948-5.948V70.448C207.548,67.177,204.871,64.5,201.6,64.5z"/>
			</g>
		</g>
		<g>
			<g>
				<path class="st8" d="M180.546,38.996c-1.983-1.395-4.717-1.024-6.401,0.721l-0.506,0.524c-0.188,0.195-0.5,0.195-0.688,0
					l-0.506-0.524c-1.684-1.745-4.417-2.116-6.401-0.721c-2.499,1.758-2.758,5.276-0.719,7.388l6.488,6.723
					c0.809,0.839,2.153,0.839,2.962,0l6.488-6.723C183.304,44.272,183.046,40.754,180.546,38.996z"/>
			</g>
		</g>
		<g>
			<g>
				<path class="st23" d="M178.419,122.799h-14.56v30.255h14.56c-0.337-0.857-0.521-1.779-0.521-2.727c0-8.674,0-16.127,0-24.801
					C177.898,124.577,178.082,123.655,178.419,122.799z"/>
			</g>
		</g>
		<g>
			<g>
				<path d="M76.983,148.782c-0.104,0-0.208-0.006-0.313-0.02c-21.115-2.645-32.506-8.996-37.416-12.548
					c-2.877-2.079-3.749-6.013-2.03-9.148c6.011-10.967,8.896-22.33,10.259-29.932c0.243-1.358,1.539-2.263,2.902-2.02
					c1.358,0.244,2.263,1.543,2.02,2.902c-2.078,11.59-5.71,22.172-10.796,31.451c-0.51,0.931-0.263,2.089,0.575,2.694
					c4.523,3.271,15.099,9.132,35.107,11.639c1.37,0.172,2.342,1.421,2.17,2.791C79.303,147.857,78.226,148.782,76.983,148.782z"/>
			</g>
		</g>
		<g>
			<g>
				<path d="M117.134,148.779c-1.242,0-2.319-0.925-2.478-2.188c-0.172-1.37,0.799-2.62,2.169-2.792
					c6.088-0.764,11.802-1.913,16.982-3.417c1.325-0.383,2.713,0.379,3.098,1.705c0.385,1.325-0.379,2.713-1.705,3.098
					c-5.432,1.576-11.404,2.779-17.752,3.575C117.343,148.773,117.237,148.779,117.134,148.779z"/>
			</g>
		</g>
		<g>
			<g>
				<path d="M151.79,124.971c-0.95,0-1.857-0.544-2.277-1.465c-3.592-7.888-6.239-16.554-7.869-25.759
					c-0.24-1.359,0.667-2.656,2.026-2.897c1.357-0.249,2.656,0.666,2.897,2.026c1.556,8.79,4.078,17.053,7.496,24.558
					c0.572,1.257,0.018,2.739-1.239,3.312C152.488,124.897,152.136,124.971,151.79,124.971z"/>
			</g>
		</g>
		<g>
			<g>
				<path d="M97.048,117.757c-4.775,0-9.261-1.949-11.999-5.214c-0.887-1.059-0.748-2.635,0.31-3.522
					c1.058-0.887,2.634-0.749,3.522,0.31c1.799,2.146,4.852,3.427,8.167,3.427s6.369-1.281,8.167-3.426
					c0.888-1.06,2.466-1.196,3.521-0.311c1.059,0.887,1.197,2.464,0.311,3.521C106.311,115.808,101.824,117.757,97.048,117.757z"/>
			</g>
		</g>
		<g>
			<g>
				<circle cx="112.159" cy="90.5" r="4.5"/>
			</g>
		</g>
		<g>
			<g>
				<circle cx="81.938" cy="90.5" r="4.5"/>
			</g>
		</g>
		<g>
			<g>
				<path d="M134.009,103.486c-0.509,0-1.035-0.027-1.564-0.081c-1.374-0.14-2.374-1.367-2.234-2.74
					c0.14-1.375,1.368-2.37,2.74-2.234c0.349,0.035,0.701,0.056,1.059,0.056c6.617,0,12.001-5.383,12.001-12
					s-5.384-12.001-12.001-12.001c-0.371,0-0.753,0.02-1.137,0.058c-1.383,0.121-2.599-0.869-2.734-2.242
					c-0.136-1.374,0.868-2.598,2.242-2.734c0.547-0.054,1.095-0.081,1.629-0.081c9.374,0,17.001,7.627,17.001,17.001
					S143.383,103.486,134.009,103.486z"/>
			</g>
		</g>
		<g>
			<g>
				<path d="M97.048,135.687c-20.529,0-37.231-16.702-37.231-37.231V77.771c0-0.784,0.368-1.522,0.994-1.995s1.441-0.625,2.19-0.409
					c25.916,7.383,43.873-10.648,48.761-16.352l0,0c0.85-0.991,2.033-1.582,3.335-1.663c1.302-0.075,2.591,0.377,3.556,1.255
					c3.951,3.589,7.84,5.846,11.556,6.707c2.397,0.556,4.072,2.646,4.072,5.081v28.06
					C134.28,118.984,117.578,135.687,97.048,135.687z M64.816,80.979v17.477c0,17.772,14.459,32.231,32.231,32.231
					c17.773,0,32.232-14.459,32.232-32.231v-28.06c0-0.113-0.101-0.187-0.201-0.21c-4.514-1.046-9.107-3.656-13.656-7.758
					C110.064,68.627,91.628,86.861,64.816,80.979z M113.661,60.642h0.01H113.661z"/>
			</g>
		</g>
		<g>
			<g>
				<path d="M97.048,165.995c-10.809,0-20.953-5.352-27.138-14.314c-0.784-1.137-0.499-2.693,0.638-3.478
					c1.135-0.783,2.692-0.501,3.478,0.638c5.251,7.61,13.857,12.154,23.022,12.154c9.146,0,17.742-4.529,22.995-12.114
					c0.786-1.137,2.346-1.42,3.479-0.633c1.136,0.786,1.419,2.344,0.633,3.479C117.967,160.661,107.834,165.995,97.048,165.995z"/>
			</g>
		</g>
		<g>
			<g>
				<path d="M60.088,103.486c-9.374,0-17.001-7.626-17.001-17c0-4.668,1.958-9.181,5.371-12.382c2.03-1.902,4.983-2.409,7.522-1.288
					c2.328,1.028,4.69,1.887,7.021,2.551c1.327,0.379,2.097,1.762,1.719,3.09c-0.379,1.327-1.759,2.099-3.09,1.719
					c-2.552-0.728-5.133-1.665-7.67-2.785c-0.702-0.31-1.519-0.167-2.083,0.361c-2.444,2.293-3.791,5.395-3.791,8.734
					c0,6.617,5.384,12,12.001,12c0.352,0,0.712-0.02,1.103-0.061c1.375-0.143,2.604,0.854,2.746,2.227
					c0.144,1.373-0.854,2.603-2.227,2.746C61.146,103.458,60.614,103.486,60.088,103.486z"/>
			</g>
		</g>
		<g>
			<g>
				<g>
					<path d="M144.277,78.438c-1.381,0-2.5-1.119-2.5-2.5v-8.183c0-24.663-20.065-44.729-44.729-44.729
						c-24.663,0-44.729,20.065-44.729,44.729v8.174c0,1.381-1.119,2.5-2.5,2.5s-2.5-1.119-2.5-2.5v-8.174
						c0-27.42,22.309-49.729,49.729-49.729c27.421,0,49.729,22.309,49.729,49.729v8.183
						C146.777,77.318,145.658,78.438,144.277,78.438z"/>
				</g>
			</g>
		</g>
		<g>
			<g>
				<path d="M150.652,161.433c-0.203,0-0.408-0.025-0.614-0.077l-17.101-4.316c-0.216-0.055-0.432-0.116-0.647-0.179l-0.229-0.065
					c-1.329-0.376-2.102-1.758-1.727-3.086c0.376-1.328,1.754-2.097,3.086-1.727l0.261,0.075c0.159,0.046,0.318,0.093,0.479,0.133
					l17.103,4.317c1.338,0.338,2.149,1.697,1.812,3.036C152.788,160.677,151.771,161.433,150.652,161.433z"/>
			</g>
		</g>
		<g>
			<g>
				<path d="M167.918,256h-21.99c-2.854,0-5.177-2.322-5.177-5.177v-30.476c-1.802,6.815-2.713,13.828-2.713,20.896v9.58
					c0,2.854-2.322,5.177-5.177,5.177h-22.563c-1.381,0-2.5-1.119-2.5-2.5s1.119-2.5,2.5-2.5h22.563
					c0.098,0,0.177-0.079,0.177-0.177v-9.58c0-8.783,1.327-17.487,3.943-25.869l3.883-12.438c0.368-1.179,1.543-1.907,2.764-1.727
					c1.221,0.187,2.123,1.236,2.123,2.472v47.143c0,0.098,0.079,0.177,0.177,0.177h21.99c0.546,0,0.898-0.286,1.06-0.456
					c0.161-0.171,0.427-0.538,0.396-1.084l-2.318-63.705c-0.051-1.38,1.027-2.539,2.407-2.589c1.384-0.042,2.539,1.027,2.589,2.407
					l2.316,63.656c0.097,1.716-0.543,3.465-1.758,4.749C171.396,255.264,169.686,256,167.918,256z"/>
			</g>
		</g>
		<g>
			<g>
				<path d="M83.798,256H61.235c-2.854,0-5.177-2.322-5.177-5.177v-9.58c0-7.064-0.911-14.077-2.713-20.895v30.475
					c0,2.854-2.322,5.177-5.177,5.177h-21.99c-1.767,0-3.478-0.736-4.691-2.021c-1.215-1.284-1.855-3.033-1.758-4.798l2.743-75.37
					c0.412-7.403,5.487-13.554,12.631-15.353l24.831-6.268c0.162-0.041,0.321-0.088,0.48-0.134l0.261-0.075
					c1.326-0.373,2.71,0.397,3.086,1.727c0.375,1.328-0.397,2.71-1.727,3.086l-0.229,0.065c-0.216,0.063-0.432,0.124-0.649,0.18
					l-24.831,6.268c-5.013,1.262-8.572,5.575-8.859,10.733l-2.743,75.37c-0.032,0.594,0.234,0.962,0.396,1.133
					c0.161,0.17,0.514,0.456,1.06,0.456h21.99c0.098,0,0.177-0.079,0.177-0.177v-47.143c0-1.235,0.902-2.285,2.123-2.472
					c1.221-0.189,2.396,0.547,2.764,1.727l3.883,12.438c2.616,8.386,3.943,17.089,3.943,25.869v9.58
					c0,0.098,0.079,0.177,0.177,0.177h22.563c1.381,0,2.5,1.119,2.5,2.5S85.179,256,83.798,256z"/>
			</g>
		</g>
		<g>
			<g>
				<path d="M110.298,256h-26.5c-1.381,0-2.5-1.119-2.5-2.5v-61.748c0-2.387-1.103-4.629-3.023-6.15
					c-12.122-9.596-17.212-21.945-19.347-30.615c-0.322-1.31,0.452-2.639,1.75-3.004c1.678-0.473,3.283-1.085,4.772-1.818
					l8.587-4.234c2.462-1.214,3.991-3.673,3.991-6.418v-10.22c0-1.381,1.119-2.5,2.5-2.5s2.5,1.119,2.5,2.5v10.22
					c0,4.663-2.598,8.841-6.78,10.902l-8.587,4.234c-1.049,0.517-2.144,0.982-3.274,1.391c2.245,7.701,6.984,17.722,16.991,25.643
					c3.127,2.476,4.92,6.146,4.92,10.07V251h21.5v-59.248c0-3.924,1.794-7.594,4.921-10.07c10.007-7.921,14.746-17.941,16.99-25.643
					c-1.129-0.408-2.225-0.873-3.273-1.391l-8.587-4.234c-4.183-2.062-6.78-6.239-6.78-10.902v-10.153c0-1.381,1.119-2.5,2.5-2.5
					s2.5,1.119,2.5,2.5v10.153c0,2.745,1.529,5.204,3.991,6.418l8.587,4.234c1.49,0.734,3.096,1.347,4.772,1.818
					c1.298,0.365,2.072,1.694,1.75,3.004c-2.135,8.67-7.225,21.02-19.347,30.615c-1.922,1.522-3.024,3.764-3.024,6.15V253.5
					C112.798,254.881,111.679,256,110.298,256z"/>
			</g>
		</g>
		<g>
			<g>
				<g>
					<path d="M97.048,195.688c-4.831,0-9.546-0.927-14.012-2.756c-1.277-0.523-1.89-1.983-1.366-3.261s1.981-1.888,3.261-1.366
						c3.862,1.581,7.938,2.383,12.117,2.383c4.111,0,8.129-0.777,11.94-2.311c1.279-0.518,2.736,0.104,3.252,1.387
						c0.516,1.28-0.105,2.736-1.387,3.252C106.446,194.788,101.802,195.688,97.048,195.688z"/>
				</g>
			</g>
		</g>
		<g>
			<g>
				<path d="M206.758,174.586c-0.443,0-0.892-0.117-1.298-0.364l-25.282-15.39c-2.948-1.795-4.78-5.054-4.78-8.505v-24.802
					c0-3.451,1.831-6.71,4.78-8.505l25.411-15.468c1.18-0.717,2.718-0.344,3.436,0.836s0.344,2.718-0.836,3.436l-25.411,15.467
					c-1.468,0.894-2.38,2.517-2.38,4.234v24.802c0,1.718,0.912,3.34,2.38,4.233l25.282,15.39c1.18,0.718,1.554,2.256,0.836,3.436
					C208.425,174.159,207.601,174.586,206.758,174.586z"/>
			</g>
		</g>
		<g>
			<g>
				<path d="M178.021,155.554h-28.67c-9.72,0-17.627-7.908-17.627-17.628s7.907-17.627,17.627-17.627h28.547
					c1.381,0,2.5,1.119,2.5,2.5s-1.119,2.5-2.5,2.5h-28.547c-6.963,0-12.627,5.664-12.627,12.627s5.664,12.628,12.627,12.628h28.67
					c1.381,0,2.5,1.119,2.5,2.5S179.401,155.554,178.021,155.554z"/>
			</g>
		</g>
		<g>
			<g>
				<path d="M207.252,176.162c-1.381,0-2.5-1.119-2.5-2.5V102.19c0-1.381,1.119-2.5,2.5-2.5s2.5,1.119,2.5,2.5v71.472
					C209.752,175.043,208.633,176.162,207.252,176.162z"/>
			</g>
		</g>
		<g>
			<g>
				<path d="M210.96,147.808h-3.179c-1.381,0-2.5-1.119-2.5-2.5s1.119-2.5,2.5-2.5h3.179c2.691,0,4.881-2.19,4.881-4.882
					s-2.189-4.881-4.881-4.881h-3.271c-1.381,0-2.5-1.119-2.5-2.5s1.119-2.5,2.5-2.5h3.271c5.448,0,9.881,4.433,9.881,9.881
					C220.841,143.375,216.408,147.808,210.96,147.808z"/>
			</g>
		</g>
		<g>
			<g>
				<path d="M165.063,189.313c-1.489,0-2.968-0.354-4.331-1.053c-2.263-1.159-3.939-3.13-4.72-5.55l-9.225-28.607
					c-0.424-1.314,0.298-2.723,1.611-3.146c1.311-0.428,2.724,0.297,3.146,1.611l9.226,28.607c0.765,2.373,3.319,3.678,5.688,2.914
					c2.371-0.765,3.679-3.317,2.914-5.689l-7.82-24.249c-0.424-1.314,0.298-2.723,1.611-3.146c1.311-0.428,2.724,0.297,3.146,1.611
					l7.821,24.25c1.61,4.996-1.143,10.371-6.138,11.982C167.032,189.158,166.045,189.313,165.063,189.313z"/>
			</g>
		</g>
		<g>
			<g>
				<path d="M192.747,96.492c-0.486,0-0.978-0.098-1.442-0.298c-1.337-0.577-2.201-1.891-2.201-3.347V91h-6.607
					c-4.658,0-8.448-3.79-8.448-8.448V70.448c0-4.658,3.79-8.448,8.448-8.448H201.6c4.658,0,8.448,3.79,8.448,8.448v12.104
					c0,4.658-3.79,8.448-8.448,8.448h-1.585l-4.767,4.498C194.558,96.149,193.659,96.492,192.747,96.492z M182.496,67
					c-1.901,0-3.448,1.547-3.448,3.448v12.104c0,1.901,1.547,3.448,3.448,3.448h7.286c2.186,0,3.998,1.631,4.282,3.74l2.716-2.563
					c0.807-0.76,1.859-1.178,2.966-1.178h1.854c1.901,0,3.448-1.547,3.448-3.448V70.448c0-1.901-1.547-3.448-3.448-3.448H182.496z"
					/>
			</g>
		</g>
		<g>
			<g>
				<path d="M173.296,56.235c-1.23,0-2.426-0.508-3.28-1.393l-6.488-6.723c-1.495-1.55-2.234-3.674-2.029-5.828
					c0.205-2.148,1.338-4.095,3.109-5.341c2.595-1.825,6.133-1.69,8.688,0.197c2.556-1.889,6.095-2.022,8.688-0.197l0,0
					c0.001,0,0.001,0,0.001,0c1.771,1.246,2.904,3.191,3.109,5.34c0.206,2.154-0.534,4.279-2.029,5.829l-6.488,6.723
					C175.722,55.728,174.526,56.235,173.296,56.235z M168.774,40.643c-0.459,0-0.909,0.13-1.289,0.397
					c-0.788,0.555-0.971,1.32-1.01,1.727c-0.066,0.698,0.17,1.385,0.649,1.881l6.171,6.394l6.171-6.394
					c0.479-0.497,0.716-1.183,0.649-1.882c-0.039-0.406-0.222-1.171-1.008-1.725c-0.001,0-0.001,0-0.001,0
					c-0.939-0.663-2.299-0.484-3.163,0.412l-0.506,0.523c-1.107,1.154-3.173,1.158-4.29-0.004l-0.501-0.521
					C170.134,40.921,169.445,40.643,168.774,40.643z M171.843,38.503c-0.002,0.002-0.005,0.005-0.007,0.007L171.843,38.503z
					 M174.745,38.499l0.006,0.007C174.749,38.503,174.747,38.501,174.745,38.499z"/>
			</g>
		</g>
		<g>
			<g>
				<path d="M233.78,140h-5c-1.381,0-2.5-1.119-2.5-2.5s1.119-2.5,2.5-2.5h5c1.381,0,2.5,1.119,2.5,2.5S235.161,140,233.78,140z"/>
			</g>
		</g>
		<g>
			<g>
				<path d="M224.094,128.687c-0.64,0-1.279-0.244-1.768-0.732c-0.977-0.977-0.977-2.559,0-3.535l3.536-3.536
					c0.977-0.977,2.559-0.977,3.535,0s0.977,2.559,0,3.535l-3.536,3.536C225.373,128.442,224.733,128.687,224.094,128.687z"/>
			</g>
		</g>
		<g>
			<g>
				<path d="M227.63,154.85c-0.64,0-1.279-0.244-1.768-0.732l-3.536-3.536c-0.977-0.977-0.977-2.559,0-3.535s2.559-0.977,3.535,0
					l3.536,3.536c0.977,0.977,0.977,2.559,0,3.535C228.909,154.605,228.27,154.85,227.63,154.85z"/>
			</g>
		</g>
		<g>
			<g>
				<path d="M163.859,154.938c-1.381,0-2.5-1.119-2.5-2.5v-28.896c0-1.381,1.119-2.5,2.5-2.5s2.5,1.119,2.5,2.5v28.896
					C166.359,153.818,165.24,154.938,163.859,154.938z"/>
			</g>
		</g>
		<g>
			<g>
				<path class="st8" d="M36.822,100.33c-4.498-0.838-8.043-4.31-8.898-8.716c-0.043-0.221-0.352-0.221-0.395,0
					c-0.855,4.406-4.4,7.879-8.898,8.716c-0.226,0.042-0.226,0.345,0,0.387c4.498,0.838,8.043,4.31,8.898,8.717
					c0.043,0.221,0.352,0.221,0.395,0c0.855-4.406,4.4-7.879,8.898-8.717C37.047,100.675,37.047,100.373,36.822,100.33z"/>
			</g>
		</g>
		<g>
			<g>
				<path class="st7" d="M195.515,187.101c-2.862-0.533-5.118-2.743-5.663-5.547c-0.027-0.141-0.224-0.141-0.251,0
					c-0.544,2.804-2.8,5.014-5.663,5.547c-0.144,0.027-0.144,0.219,0,0.246c2.862,0.533,5.118,2.743,5.663,5.547
					c0.027,0.141,0.224,0.141,0.251,0c0.544-2.804,2.8-5.014,5.663-5.547C195.658,187.32,195.658,187.128,195.515,187.101z"/>
			</g>
		</g>
		<g>
			<g>
				<path class="st6" d="M147.246,25.75h2.33v-2.33c0-1.744,1.413-3.157,3.157-3.157s3.157,1.413,3.157,3.157v2.33h2.329
					c1.744,0,3.157,1.413,3.157,3.157s-1.413,3.157-3.157,3.157h-2.329v2.33c0,1.744-1.413,3.157-3.157,3.157
					s-3.157-1.413-3.157-3.157v-2.33h-2.33c-1.744,0-3.157-1.413-3.157-3.157S145.502,25.75,147.246,25.75z"/>
			</g>
		</g>
		<g>
			<g>
				<circle class="st9" cx="18.755" cy="136.825" r="3.377"/>
			</g>
		</g>
		<g>
			<g>
				<circle class="st7" cx="139.755" cy="3.377" r="3.377"/>
			</g>
		</g>
	</g>
</g>
<g id="Layer_71">
</g>
<g id="Layer_72">
</g>
<g id="Layer_73">
</g>
<g id="Layer_74">
</g>
<g id="Layer_75">
</g>
<g id="Layer_76">
</g>
<g id="Layer_77">
</g>
<g id="Layer_78">
</g>
<g id="Layer_79">
</g>
<g id="Layer_80">
</g>
</svg>
