<?xml version="1.0" encoding="utf-8"?>
<!-- Generator: Adobe Illustrator 24.0.0, SVG Export Plug-In . SVG Version: 6.00 Build 0)  -->
<svg version="1.1" xmlns="http://www.w3.org/2000/svg" xmlns:xlink="http://www.w3.org/1999/xlink" x="0px" y="0px"
	 viewBox="0 0 256 256" style="enable-background:new 0 0 256 256;" xml:space="preserve">
<style type="text/css">
	.st0{fill:#3A70BF;}
	.st1{fill:#EDF4FC;}
	.st2{fill:#C7D7E5;}
	.st3{fill:#F9D0B4;}
	.st4{fill:#5B5D60;}
	.st5{fill:#5290DB;}
	.st6{fill:#70D6F9;}
	.st7{fill:#F5C84C;}
	.st8{fill:#FC657E;}
	.st9{fill:#87D147;}
	.st10{fill:#FCDD86;}
	.st11{fill:#9BE5F9;}
	.st12{fill:#B2E26D;}
	.st13{fill:#754E34;}
	.st14{fill:#FCA265;}
	.st15{fill:#818182;}
	.st16{fill:#F94EED;}
	.st17{fill:#FFC197;}
	.st18{fill:#3CAADC;}
	.st19{fill:#DAE6F1;}
	.st20{fill:#57AF12;}
	.st21{fill:#EF4460;}
	.st22{fill:#FFF0CA;}
	.st23{fill:#F98FA6;}
	.st24{fill:#EDB311;}
	.st25{fill:#FC8C48;}
	.st26{fill:#FCB9CB;}
	.st27{fill:#96BC71;}
	.st28{fill:#78A352;}
	.st29{fill:#B8DD90;}
	.st30{fill:#6FAFEF;}
	.st31{fill:#29589F;}
	.st32{fill:#414344;}
	.st33{fill:#9B6B4B;}
	.st34{fill:#73B1EF;}
</style>
<g id="Layer_1">
</g>
<g id="Layer_2">
</g>
<g id="Layer_3">
</g>
<g id="Layer_4">
</g>
<g id="Layer_5">
</g>
<g id="Layer_6">
</g>
<g id="Layer_7">
</g>
<g id="Layer_8">
</g>
<g id="Layer_9">
</g>
<g id="Layer_10">
</g>
<g id="Layer_11">
</g>
<g id="Layer_12">
</g>
<g id="Layer_13">
</g>
<g id="Layer_14">
</g>
<g id="Layer_15">
</g>
<g id="Layer_16">
</g>
<g id="Layer_17">
</g>
<g id="Layer_18">
</g>
<g id="Layer_19">
</g>
<g id="Layer_20">
</g>
<g id="Layer_21">
</g>
<g id="Layer_22">
</g>
<g id="Layer_23">
</g>
<g id="Layer_24">
</g>
<g id="Layer_25">
</g>
<g id="Layer_26">
</g>
<g id="Layer_27">
</g>
<g id="Layer_28">
</g>
<g id="Layer_29">
</g>
<g id="Layer_30">
</g>
<g id="Layer_31">
</g>
<g id="Layer_32">
</g>
<g id="Layer_33">
</g>
<g id="Layer_34">
</g>
<g id="Layer_35">
</g>
<g id="Layer_36">
</g>
<g id="Layer_37">
</g>
<g id="Layer_38">
</g>
<g id="Layer_39">
</g>
<g id="Layer_40">
</g>
<g id="Layer_41">
</g>
<g id="Layer_42">
</g>
<g id="Layer_43">
</g>
<g id="Layer_44">
</g>
<g id="Layer_45">
</g>
<g id="Layer_46">
</g>
<g id="Layer_47">
</g>
<g id="Layer_48">
</g>
<g id="Layer_49">
</g>
<g id="Layer_50">
</g>
<g id="Layer_51">
</g>
<g id="Layer_52">
</g>
<g id="Layer_53">
</g>
<g id="Layer_54">
</g>
<g id="Layer_55">
</g>
<g id="Layer_56">
</g>
<g id="Layer_57">
</g>
<g id="Layer_58">
</g>
<g id="Layer_59">
</g>
<g id="Layer_60">
</g>
<g id="Layer_61">
</g>
<g id="Layer_62">
</g>
<g id="Layer_63">
</g>
<g id="Layer_64">
</g>
<g id="Layer_65">
</g>
<g id="Layer_66">
</g>
<g id="Layer_67">
</g>
<g id="Layer_68">
</g>
<g id="Layer_69">
	<g>
		<g>
			<g>
				<path class="st3" d="M131.799,57.412c-2.433-2.552-6.39-2.787-9.164-0.61c-4.386,3.443-11.975,7.698-22.693,7.698
					c-10.745,0-18.374-4.276-22.778-7.723c-2.771-2.169-6.72-1.926-9.149,0.621l-0.013,0.013c-3.413,3.579-5.316,8.334-5.316,13.279
					v31.233c0,20.468,16.747,37.215,37.215,37.215h0c20.468,0,37.215-16.747,37.215-37.215V70.691
					C137.116,65.746,135.212,60.99,131.799,57.412z"/>
			</g>
		</g>
		<g>
			<g>
				<path class="st3" d="M139.504,73.561c-0.813,0-1.609,0.069-2.388,0.189c0,3.96,0,22.286,0,28.173
					c0,0.839-0.038,1.67-0.094,2.496c0.81,0.13,1.635,0.217,2.482,0.217c8.581,0,15.537-6.956,15.537-15.537
					S148.085,73.561,139.504,73.561z"/>
			</g>
		</g>
		<g>
			<g>
				<path class="st3" d="M62.686,101.923c0-3.856,0-20.507,0-28.173c-0.779-0.121-1.575-0.189-2.388-0.189
					c-8.581,0-15.538,6.957-15.538,15.538s6.956,15.537,15.538,15.537c0.847,0,1.672-0.086,2.482-0.217v-0.001
					C62.724,103.593,62.686,102.762,62.686,101.923z"/>
			</g>
		</g>
		<g>
			<g>
				<path class="st4" d="M136.977,41.816c-1.246,0-2.327-0.961-2.344-2.207c-0.285-20.737-23.966-24.633-47.549-20.56
					C67.09,22.501,52.476,39.839,52.476,60.129v15.559c2.299-1.344,4.966-2.128,7.821-2.128c0.813,0,1.609,0.068,2.388,0.189v-3.059
					c0-4.945,1.904-9.7,5.316-13.279l0.013-0.013c2.429-2.547,6.377-2.79,9.149-0.621c4.404,3.447,12.034,7.723,22.778,7.723
					c10.719,0,18.308-4.255,22.693-7.698c2.774-2.177,6.73-1.943,9.164,0.61c3.413,3.579,5.316,8.334,5.316,13.279v3.059
					c0.779-0.121,1.575-0.189,2.388-0.189c2.89,0,5.586,0.803,7.903,2.178c0-4.342,0-8.802,0-12.775
					C147.407,44.395,140.702,41.816,136.977,41.816z"/>
			</g>
		</g>
		<g>
			<g>
				<path class="st1" d="M130.549,154.265l-8.134-7.427c-0.753-0.687-1.917-0.646-2.619,0.092l-15.687,16.491
					c-0.77,0.81-0.78,2.078-0.022,2.899l8.157,8.837c0.936,1.014,2.552,0.97,3.431-0.094l15.054-18.223
					C131.365,156.071,131.286,154.938,130.549,154.265z"/>
			</g>
		</g>
		<g>
			<g>
				<path class="st1" d="M69.252,154.265l8.134-7.427c0.753-0.687,1.917-0.646,2.619,0.092l15.687,16.491
					c0.77,0.81,0.78,2.078,0.022,2.899l-8.157,8.837c-0.936,1.014-2.552,0.97-3.431-0.094L69.071,156.84
					C68.436,156.071,68.515,154.938,69.252,154.265z"/>
			</g>
		</g>
		<g>
			<g>
				<path class="st3" d="M82.756,140.972c0,2.453-0.699,4.8-1.948,6.802l14.884,15.648c0.294,0.309,0.475,0.685,0.547,1.078h7.323
					c0.072-0.393,0.253-0.769,0.547-1.078l14.884-15.648c-1.249-2.003-1.948-4.349-1.948-6.802v-6.057
					c-5.14,2.69-10.97,4.223-17.145,4.223h0c-6.174,0-12.005-1.532-17.145-4.223V140.972z"/>
			</g>
		</g>
		<g>
			<g>
				<path class="st19" d="M75.401,253.5h49v-88.998l-8.725,10.562c-0.879,1.064-2.495,1.109-3.431,0.094l-8.157-8.837
					c-0.468-0.508-0.642-1.186-0.526-1.821h-7.323c0.116,0.635-0.057,1.313-0.526,1.821l-8.157,8.837
					c-0.936,1.014-2.552,0.97-3.431-0.094l-8.725-10.562V253.5z"/>
			</g>
		</g>
		<g>
			<g>
				<path class="st5" d="M75.401,164.502l-6.329-7.662c-0.227-0.274-0.358-0.596-0.406-0.925l-3.296,1.625l-28.902,7.274
					c-6.233,1.569-10.721,7.008-11.078,13.425l-4.115,70.951c-0.13,2.34,1.732,4.31,4.076,4.31h50.049V164.502z"/>
			</g>
		</g>
		<g>
			<g>
				<g>
					<path class="st5" d="M170.079,186.469c-3.69,1.189-7.645-0.837-8.835-4.526l-6.197-19.214l-20.616-5.189l-3.296-1.625
						c-0.047,0.33-0.179,0.651-0.406,0.925l-6.329,7.662V253.5h50.049c2.344,0,4.207-1.969,4.076-4.31l-3.904-67.317
						C173.965,183.977,172.336,185.741,170.079,186.469z"/>
				</g>
			</g>
		</g>
		<g>
			<g>
				<path class="st1" d="M184.33,119.155c-2.223,1.354-3.58,3.768-3.58,6.37c0,8.674,0,16.127,0,24.801
					c0,2.602,1.357,5.017,3.58,6.37l25.774,15.689v-34.459v-34.459L184.33,119.155z"/>
			</g>
		</g>
		<g>
			<g>
				<path class="st8" d="M180.75,150.327c0-8.674,0-16.127,0-24.801c0-0.948,0.185-1.87,0.521-2.727h-29.069
					c-8.355,0-15.128,6.773-15.128,15.128s6.773,15.128,15.128,15.128h29.068C180.935,152.197,180.75,151.275,180.75,150.327z"/>
			</g>
		</g>
		<g>
			<g>
				<path class="st2" d="M213.813,130.545h-3.708v7.381v7.381h3.708c4.076,0,7.381-3.305,7.381-7.381
					S217.889,130.545,213.813,130.545z"/>
			</g>
		</g>
		<g>
			<g>
				<path class="st1" d="M166.678,153.054h-14.475c-0.095,0-0.186-0.012-0.28-0.014l9.321,28.903c1.19,3.69,5.146,5.716,8.835,4.526
					c3.69-1.19,5.716-5.146,4.526-8.835L166.678,153.054z"/>
			</g>
		</g>
		<g>
			<g>
				<path class="st11" d="M204.452,64.5h-19.104c-3.271,0-5.948,2.677-5.948,5.948v12.104c0,3.271,2.677,5.948,5.948,5.948h7.286
					c1.006,0,1.822,0.815,1.822,1.822v2.526c0,1.003,1.199,1.521,1.929,0.832l4.964-4.683c0.338-0.319,0.785-0.497,1.25-0.497h1.854
					c3.271,0,5.948-2.677,5.948-5.948V70.448C210.401,67.177,207.724,64.5,204.452,64.5z"/>
			</g>
		</g>
		<g>
			<g>
				<path class="st8" d="M183.399,38.996c-1.983-1.395-4.717-1.024-6.401,0.721l-0.506,0.524c-0.188,0.195-0.5,0.195-0.688,0
					l-0.506-0.524c-1.684-1.745-4.417-2.116-6.401-0.721c-2.499,1.758-2.758,5.276-0.719,7.388l6.488,6.723
					c0.809,0.839,2.153,0.839,2.962,0l6.488-6.723C186.157,44.272,185.898,40.754,183.399,38.996z"/>
			</g>
		</g>
		<g>
			<g>
				<path class="st23" d="M181.272,122.799h-14.56v30.255h14.56c-0.337-0.857-0.521-1.779-0.521-2.727c0-8.674,0-16.127,0-24.801
					C180.75,124.577,180.935,123.655,181.272,122.799z"/>
			</g>
		</g>
		<g>
			<g>
				<path d="M99.9,141.639c-21.898,0-39.715-17.816-39.715-39.716V70.69c0-5.613,2.134-10.941,6.007-15.004
					c3.328-3.489,8.699-3.86,12.512-0.878C82.896,58.089,89.984,62,99.941,62c9.938,0,16.986-3.896,21.149-7.165
					c3.818-2.993,9.2-2.627,12.517,0.852l0,0c3.874,4.062,6.008,9.39,6.008,15.004v31.232
					C139.615,123.822,121.799,141.639,99.9,141.639z M72.912,57.803c-1.135,0-2.254,0.446-3.088,1.321
					c-2.996,3.142-4.639,7.244-4.639,11.566v31.232c0,19.143,15.573,34.716,34.715,34.716s34.715-15.573,34.715-34.716V70.69
					c0-4.323-1.643-8.426-4.625-11.553c-0.001,0-0.001,0-0.001-0.001c-1.531-1.607-4.03-1.766-5.812-0.368
					C119.396,62.523,111.308,67,99.941,67c-11.382,0-19.507-4.488-24.319-8.254C74.814,58.114,73.858,57.803,72.912,57.803z"/>
			</g>
		</g>
		<g>
			<g>
				<path d="M139.504,107.136c-0.631,0-1.266-0.038-1.939-0.117c-1.372-0.161-2.353-1.403-2.192-2.774
					c0.161-1.371,1.402-2.34,2.774-2.192c0.479,0.057,0.924,0.084,1.357,0.084c7.188,0,13.037-5.849,13.037-13.037
					c0-7.189-5.849-13.038-13.037-13.038c-0.388,0-0.771,0.019-1.148,0.054c-1.371,0.141-2.593-0.885-2.72-2.259
					c-0.127-1.375,0.884-2.593,2.259-2.72c10.677-0.972,19.646,7.487,19.646,17.963C157.541,99.044,149.449,107.136,139.504,107.136
					z"/>
			</g>
		</g>
		<g>
			<g>
				<path d="M60.298,107.136c-9.946,0-18.038-8.092-18.038-18.037c0-9.946,8.092-18.038,18.038-18.038
					c0.603,0,1.225,0.033,1.85,0.099c1.373,0.144,2.369,1.373,2.226,2.747c-0.144,1.373-1.367,2.375-2.747,2.226
					c-0.452-0.047-0.899-0.071-1.328-0.071c-7.189,0-13.038,5.849-13.038,13.038c0,7.188,5.849,13.037,13.038,13.037
					c0.419,0,0.851-0.025,1.318-0.079c1.381-0.145,2.61,0.832,2.766,2.203s-0.831,2.609-2.203,2.766
					C61.522,107.1,60.907,107.136,60.298,107.136z"/>
			</g>
		</g>
		<g>
			<g>
				<path d="M100.441,118.573c-4.776,0-9.262-1.949-11.999-5.216c-0.887-1.058-0.748-2.635,0.31-3.521
					c1.061-0.887,2.637-0.748,3.522,0.31c1.799,2.146,4.852,3.428,8.167,3.428c3.316,0,6.369-1.281,8.167-3.427
					c0.886-1.058,2.465-1.197,3.521-0.311c1.059,0.887,1.197,2.463,0.311,3.521C109.704,116.623,105.219,118.573,100.441,118.573z"
					/>
			</g>
		</g>
		<g>
			<g>
				<circle cx="117.231" cy="90.816" r="5"/>
			</g>
		</g>
		<g>
			<g>
				<circle cx="83.652" cy="90.816" r="5"/>
			</g>
		</g>
		<g>
			<g>
				<path d="M147.407,77.938c-1.381,0-2.5-1.119-2.5-2.5V62.963c0-11.851-2.891-18.647-7.931-18.647
					c-2.635,0-4.808-2.096-4.844-4.672c-0.076-5.592-2.07-10.051-5.927-13.253c-7.324-6.081-21.429-7.86-38.696-4.879
					c-18.852,3.255-32.533,19.496-32.533,38.617v15.142c0,1.381-1.119,2.5-2.5,2.5s-2.5-1.119-2.5-2.5V60.129
					c0-21.561,15.427-39.874,36.682-43.545c18.712-3.231,34.291-1.059,42.742,5.96c4.972,4.129,7.571,9.771,7.728,16.772
					c4.845,0.064,12.779,3.285,12.779,23.646v12.475C149.907,76.818,148.788,77.938,147.407,77.938z"/>
			</g>
		</g>
		<g>
			<g>
				<path d="M151.445,255.04c-1.381,0-2.5-1.119-2.5-2.5v-56.645c0-1.381,1.119-2.5,2.5-2.5s2.5,1.119,2.5,2.5v56.645
					C153.945,253.921,152.826,255.04,151.445,255.04z"/>
			</g>
		</g>
		<g>
			<g>
				<path d="M48.355,255.04c-1.381,0-2.5-1.119-2.5-2.5v-56.645c0-1.381,1.119-2.5,2.5-2.5s2.5,1.119,2.5,2.5v56.645
					C50.855,253.921,49.736,255.04,48.355,255.04z"/>
			</g>
		</g>
		<g>
			<g>
				<path d="M113.919,178.391c-1.332,0-2.604-0.555-3.511-1.536l-8.158-8.838c-1.646-1.784-1.625-4.56,0.049-6.318l15.686-16.49
					c1.628-1.714,4.372-1.81,6.116-0.215l8.134,7.425c1.724,1.573,1.909,4.215,0.423,6.014l-15.054,18.224
					c-0.878,1.063-2.173,1.695-3.552,1.733C114.008,178.391,113.963,178.391,113.919,178.391z M106.166,164.888l7.743,8.389
					l14.513-17.568l-7.238-6.608L106.166,164.888z M128.861,156.109c0.001,0,0.001,0.001,0.002,0.002l0,0L128.861,156.109z"/>
			</g>
		</g>
		<g>
			<g>
				<path d="M85.883,178.391c-0.044,0-0.088,0-0.132-0.001c-1.379-0.038-2.674-0.67-3.553-1.733l-15.055-18.225
					c-1.485-1.798-1.3-4.439,0.422-6.013c0,0,0.001,0,0.001-0.001l8.134-7.426c1.745-1.592,4.488-1.496,6.116,0.216l15.688,16.491
					c1.672,1.759,1.693,4.534,0.047,6.317l-8.157,8.837C88.486,177.836,87.214,178.391,85.883,178.391z M71.379,155.708
					l14.513,17.568l7.744-8.39L78.617,149.1L71.379,155.708z M70.938,156.11c0-0.001,0.001-0.001,0.001-0.002L70.938,156.11z"/>
			</g>
		</g>
		<g>
			<g>
				<path d="M103.083,167h-6.5c-1.381,0-2.5-1.119-2.5-2.5s1.119-2.5,2.5-2.5h6.5c1.381,0,2.5,1.119,2.5,2.5
					S104.464,167,103.083,167z"/>
			</g>
		</g>
		<g>
			<g>
				<path d="M81.131,149.724c-0.412,0-0.829-0.102-1.214-0.315c-1.207-0.672-1.64-2.194-0.969-3.4
					c0.855-1.536,1.308-3.278,1.308-5.036v-5.315c0-1.381,1.119-2.5,2.5-2.5s2.5,1.119,2.5,2.5v5.315
					c0,2.607-0.67,5.189-1.938,7.468C82.86,149.261,82.008,149.724,81.131,149.724z"/>
			</g>
		</g>
		<g>
			<g>
				<path d="M118.688,149.757c-0.875,0-1.725-0.46-2.184-1.278c-1.281-2.289-1.959-4.885-1.959-7.507v-5.408
					c0-1.381,1.119-2.5,2.5-2.5s2.5,1.119,2.5,2.5v5.408c0,1.769,0.457,3.52,1.322,5.063c0.674,1.205,0.245,2.729-0.96,3.403
					C119.521,149.654,119.103,149.757,118.688,149.757z"/>
			</g>
		</g>
		<g>
			<g>
				<path d="M124.4,256h-49c-1.381,0-2.5-1.119-2.5-2.5s1.119-2.5,2.5-2.5h49c1.381,0,2.5,1.119,2.5,2.5S125.781,256,124.4,256z"/>
			</g>
		</g>
		<g>
			<g>
				<path d="M75.4,256H25.352c-1.802,0-3.545-0.751-4.783-2.06c-1.237-1.309-1.89-3.091-1.789-4.89l4.114-70.956
					c0.421-7.546,5.631-13.859,12.965-15.705l28.645-7.21l2.405-1.186c1.239-0.613,2.738-0.102,3.348,1.137
					c0.61,1.239,0.102,2.737-1.137,3.348l-2.644,1.303c-0.158,0.078-0.324,0.14-0.495,0.183l-28.901,7.275
					c-5.201,1.308-8.896,5.784-9.193,11.139l-4.114,70.957c-0.024,0.434,0.128,0.851,0.43,1.17S24.912,251,25.352,251H72.9v-86.394
					c0-1.381,1.119-2.5,2.5-2.5s2.5,1.119,2.5,2.5V253.5C77.9,254.881,76.781,256,75.4,256z"/>
			</g>
		</g>
		<g>
			<g>
				<g>
					<path d="M154.59,165.114c-0.202,0-0.407-0.025-0.612-0.076l-20.156-5.074c-0.171-0.043-0.337-0.104-0.494-0.183l-2.729-1.345
						c-1.239-0.609-1.748-2.108-1.138-3.347s2.112-1.75,3.347-1.138l2.492,1.228l19.899,5.009c1.339,0.338,2.151,1.696,1.814,3.035
						C156.727,164.357,155.708,165.114,154.59,165.114z"/>
				</g>
			</g>
			<g>
				<g>
					<path d="M174.449,256H124.4c-1.381,0-2.5-1.119-2.5-2.5v-88.641c0-1.381,1.119-2.5,2.5-2.5s2.5,1.119,2.5,2.5V251h47.549
						c0.439,0,0.849-0.176,1.15-0.495s0.455-0.736,0.431-1.176l-3.87-66.715c-0.08-1.378,0.973-2.561,2.352-2.641
						c1.391-0.082,2.561,0.974,2.641,2.352l3.87,66.721c0.1,1.805-0.553,3.587-1.791,4.896C177.994,255.25,176.251,256,174.449,256z
						"/>
				</g>
			</g>
		</g>
		<g>
			<g>
				<path d="M99.9,186.274c-1.381,0-2.5-1.119-2.5-2.5v-1.247c0-1.381,1.119-2.5,2.5-2.5s2.5,1.119,2.5,2.5v1.247
					C102.4,185.155,101.281,186.274,99.9,186.274z"/>
			</g>
		</g>
		<g>
			<g>
				<path d="M99.9,200.181c-1.381,0-2.5-1.119-2.5-2.5v-1.247c0-1.381,1.119-2.5,2.5-2.5s2.5,1.119,2.5,2.5v1.247
					C102.4,199.062,101.281,200.181,99.9,200.181z"/>
			</g>
		</g>
		<g>
			<g>
				<path d="M99.9,214.088c-1.381,0-2.5-1.119-2.5-2.5v-1.247c0-1.381,1.119-2.5,2.5-2.5s2.5,1.119,2.5,2.5v1.247
					C102.4,212.969,101.281,214.088,99.9,214.088z"/>
			</g>
		</g>
		<g>
			<g>
				<path d="M99.9,227.994c-1.381,0-2.5-1.119-2.5-2.5v-1.247c0-1.381,1.119-2.5,2.5-2.5s2.5,1.119,2.5,2.5v1.247
					C102.4,226.875,101.281,227.994,99.9,227.994z"/>
			</g>
		</g>
		<g>
			<g>
				<path d="M99.9,241.9c-1.381,0-2.5-1.119-2.5-2.5v-1.246c0-1.381,1.119-2.5,2.5-2.5s2.5,1.119,2.5,2.5v1.246
					C102.4,240.781,101.281,241.9,99.9,241.9z"/>
			</g>
		</g>
		<g>
			<g>
				<path d="M209.708,174.646c-0.443,0-0.892-0.117-1.298-0.364l-25.38-15.449c-2.948-1.795-4.78-5.054-4.78-8.505v-24.802
					c0-3.451,1.831-6.71,4.78-8.505l25.397-15.46c1.18-0.716,2.718-0.344,3.436,0.836s0.344,2.718-0.836,3.436l-25.397,15.459
					c-1.468,0.894-2.38,2.517-2.38,4.234v24.802c0,1.718,0.912,3.34,2.38,4.233l25.38,15.449c1.18,0.718,1.554,2.256,0.836,3.436
					C211.375,174.219,210.551,174.646,209.708,174.646z"/>
			</g>
		</g>
		<g>
			<g>
				<path d="M180.75,155.554h-28.547c-9.72,0-17.628-7.908-17.628-17.628s7.908-17.627,17.628-17.627h28.688
					c1.381,0,2.5,1.119,2.5,2.5s-1.119,2.5-2.5,2.5h-28.688c-6.963,0-12.628,5.664-12.628,12.627s5.665,12.628,12.628,12.628h28.547
					c1.381,0,2.5,1.119,2.5,2.5S182.131,155.554,180.75,155.554z"/>
			</g>
		</g>
		<g>
			<g>
				<path d="M210.104,176.162c-1.381,0-2.5-1.119-2.5-2.5V102.19c0-1.381,1.119-2.5,2.5-2.5s2.5,1.119,2.5,2.5v71.472
					C212.604,175.043,211.485,176.162,210.104,176.162z"/>
			</g>
		</g>
		<g>
			<g>
				<path d="M213.813,147.808h-2.938c-1.381,0-2.5-1.119-2.5-2.5s1.119-2.5,2.5-2.5h2.938c2.691,0,4.881-2.19,4.881-4.882
					s-2.189-4.881-4.881-4.881h-3.021c-1.381,0-2.5-1.119-2.5-2.5s1.119-2.5,2.5-2.5h3.021c5.448,0,9.881,4.433,9.881,9.881
					C223.693,143.375,219.261,147.808,213.813,147.808z"/>
			</g>
		</g>
		<g>
			<g>
				<path d="M167.915,189.313c-1.489,0-2.968-0.354-4.331-1.053c-2.263-1.159-3.939-3.13-4.72-5.55l-9.154-28.389
					c-0.424-1.314,0.298-2.723,1.611-3.146c1.311-0.428,2.724,0.297,3.146,1.611l9.155,28.389c0.765,2.373,3.319,3.678,5.688,2.914
					c2.371-0.765,3.679-3.317,2.914-5.689l-7.846-24.327c-0.424-1.314,0.298-2.723,1.611-3.146c1.311-0.428,2.724,0.297,3.146,1.611
					l7.847,24.328c1.61,4.996-1.143,10.371-6.138,11.982C169.885,189.158,168.897,189.313,167.915,189.313z"/>
			</g>
		</g>
		<g>
			<g>
				<path d="M195.6,96.492c-0.486,0-0.978-0.098-1.442-0.298c-1.337-0.577-2.201-1.891-2.201-3.347V91h-6.607
					c-4.658,0-8.448-3.79-8.448-8.448V70.448c0-4.658,3.79-8.448,8.448-8.448h19.104c4.658,0,8.448,3.79,8.448,8.448v12.104
					c0,4.658-3.79,8.448-8.448,8.448h-1.585l-4.767,4.498C197.41,96.149,196.512,96.492,195.6,96.492z M185.349,67
					c-1.901,0-3.448,1.547-3.448,3.448v12.104c0,1.901,1.547,3.448,3.448,3.448h7.286c2.186,0,3.998,1.631,4.282,3.74l2.716-2.563
					c0.807-0.76,1.859-1.178,2.966-1.178h1.854c1.901,0,3.448-1.547,3.448-3.448V70.448c0-1.901-1.547-3.448-3.448-3.448H185.349z"
					/>
			</g>
		</g>
		<g>
			<g>
				<path d="M176.148,56.235c-1.23,0-2.426-0.508-3.28-1.393l-6.488-6.723c-1.495-1.549-2.235-3.673-2.029-5.827
					c0.204-2.148,1.338-4.095,3.109-5.342c2.595-1.825,6.133-1.69,8.688,0.197c2.556-1.889,6.095-2.022,8.688-0.197l0,0
					c0.001,0,0.001,0,0.001,0c1.771,1.246,2.904,3.191,3.109,5.34c0.206,2.154-0.534,4.279-2.029,5.829l-6.488,6.723
					C178.574,55.728,177.379,56.235,176.148,56.235z M171.627,40.643c-0.459,0-0.909,0.13-1.289,0.397
					c-0.789,0.555-0.972,1.32-1.01,1.728c-0.067,0.698,0.17,1.383,0.649,1.88l6.171,6.394l6.171-6.394
					c0.479-0.497,0.716-1.183,0.649-1.882c-0.039-0.406-0.222-1.171-1.008-1.725c-0.001,0-0.001,0-0.001,0
					c-0.939-0.663-2.3-0.484-3.163,0.412l-0.506,0.523c-1.107,1.154-3.173,1.158-4.29-0.004l-0.501-0.521
					C172.986,40.921,172.298,40.643,171.627,40.643z M174.695,38.503c-0.002,0.002-0.005,0.005-0.007,0.007L174.695,38.503z
					 M177.598,38.499l0.006,0.007C177.602,38.503,177.6,38.501,177.598,38.499z"/>
			</g>
		</g>
		<g>
			<g>
				<path d="M234.731,140h-5c-1.381,0-2.5-1.119-2.5-2.5s1.119-2.5,2.5-2.5h5c1.381,0,2.5,1.119,2.5,2.5S236.112,140,234.731,140z"
					/>
			</g>
		</g>
		<g>
			<g>
				<path d="M225.045,128.687c-0.64,0-1.279-0.244-1.768-0.732c-0.977-0.976-0.977-2.559,0-3.535l3.535-3.536
					c0.975-0.977,2.559-0.977,3.535,0c0.977,0.976,0.977,2.559,0,3.535l-3.535,3.536
					C226.325,128.442,225.685,128.687,225.045,128.687z"/>
			</g>
		</g>
		<g>
			<g>
				<path d="M228.58,154.85c-0.64,0-1.28-0.244-1.768-0.732l-3.535-3.536c-0.977-0.977-0.977-2.56,0-3.535
					c0.977-0.977,2.561-0.977,3.535,0l3.535,3.536c0.977,0.977,0.977,2.56,0,3.535C229.859,154.605,229.22,154.85,228.58,154.85z"/>
			</g>
		</g>
		<g>
			<g>
				<path d="M166.711,154.75c-1.381,0-2.5-1.119-2.5-2.5v-28.708c0-1.381,1.119-2.5,2.5-2.5s2.5,1.119,2.5,2.5v28.708
					C169.211,153.631,168.092,154.75,166.711,154.75z"/>
			</g>
		</g>
		<g>
			<g>
				<path class="st8" d="M45.709,117.33c-4.498-0.838-8.043-4.31-8.898-8.716c-0.043-0.221-0.352-0.221-0.395,0
					c-0.855,4.406-4.4,7.879-8.898,8.716c-0.226,0.042-0.226,0.345,0,0.387c4.498,0.838,8.043,4.31,8.898,8.717
					c0.043,0.221,0.352,0.221,0.395,0c0.855-4.406,4.4-7.879,8.898-8.717C45.935,117.675,45.935,117.373,45.709,117.33z"/>
			</g>
		</g>
		<g>
			<g>
				<path class="st7" d="M200.402,187.101c-2.862-0.533-5.118-2.743-5.663-5.547c-0.027-0.141-0.224-0.141-0.251,0
					c-0.544,2.804-2.8,5.014-5.663,5.547c-0.144,0.027-0.144,0.219,0,0.246c2.862,0.533,5.118,2.743,5.663,5.547
					c0.027,0.141,0.224,0.141,0.251,0c0.544-2.804,2.8-5.014,5.663-5.547C200.546,187.32,200.546,187.128,200.402,187.101z"/>
			</g>
		</g>
		<g>
			<g>
				<path class="st6" d="M153.134,14.75h2.33v-2.33c0-1.744,1.413-3.157,3.157-3.157c1.744,0,3.157,1.413,3.157,3.157v2.33h2.329
					c1.744,0,3.157,1.413,3.157,3.157s-1.413,3.157-3.157,3.157h-2.329v2.33c0,1.744-1.413,3.157-3.157,3.157
					c-1.744,0-3.157-1.413-3.157-3.157v-2.33h-2.33c-1.744,0-3.157-1.413-3.157-3.157S151.39,14.75,153.134,14.75z"/>
			</g>
		</g>
		<g>
			<g>
				<circle class="st9" cx="25.642" cy="148.825" r="3.377"/>
			</g>
		</g>
		<g>
			<g>
				<circle class="st7" cx="135.642" cy="3.377" r="3.377"/>
			</g>
		</g>
	</g>
</g>
<g id="Layer_70">
</g>
<g id="Layer_71">
</g>
<g id="Layer_72">
</g>
<g id="Layer_73">
</g>
<g id="Layer_74">
</g>
<g id="Layer_75">
</g>
<g id="Layer_76">
</g>
<g id="Layer_77">
</g>
<g id="Layer_78">
</g>
<g id="Layer_79">
</g>
<g id="Layer_80">
</g>
</svg>
