<?xml version="1.0" encoding="utf-8"?>
<!-- Generator: Adobe Illustrator 24.0.0, SVG Export Plug-In . SVG Version: 6.00 Build 0)  -->
<svg version="1.1" xmlns="http://www.w3.org/2000/svg" xmlns:xlink="http://www.w3.org/1999/xlink" x="0px" y="0px"
	 viewBox="0 0 256 256" style="enable-background:new 0 0 256 256;" xml:space="preserve">
<style type="text/css">
	.st0{fill:#3A70BF;}
	.st1{fill:#EDF4FC;}
	.st2{fill:#C7D7E5;}
	.st3{fill:#F9D0B4;}
	.st4{fill:#5B5D60;}
	.st5{fill:#5290DB;}
	.st6{fill:#70D6F9;}
	.st7{fill:#F5C84C;}
	.st8{fill:#FC657E;}
	.st9{fill:#87D147;}
	.st10{fill:#FCDD86;}
	.st11{fill:#9BE5F9;}
	.st12{fill:#B2E26D;}
	.st13{fill:#754E34;}
	.st14{fill:#FCA265;}
	.st15{fill:#818182;}
	.st16{fill:#F94EED;}
	.st17{fill:#FFC197;}
	.st18{fill:#3CAADC;}
	.st19{fill:#DAE6F1;}
	.st20{fill:#57AF12;}
	.st21{fill:#EF4460;}
	.st22{fill:#FFF0CA;}
	.st23{fill:#F98FA6;}
	.st24{fill:#EDB311;}
	.st25{fill:#FC8C48;}
	.st26{fill:#FCB9CB;}
	.st27{fill:#96BC71;}
	.st28{fill:#78A352;}
	.st29{fill:#B8DD90;}
	.st30{fill:#6FAFEF;}
	.st31{fill:#29589F;}
	.st32{fill:#414344;}
	.st33{fill:#9B6B4B;}
	.st34{fill:#73B1EF;}
</style>
<g id="Layer_1">
</g>
<g id="Layer_2">
</g>
<g id="Layer_3">
</g>
<g id="Layer_4">
</g>
<g id="Layer_5">
</g>
<g id="Layer_6">
</g>
<g id="Layer_7">
</g>
<g id="Layer_8">
</g>
<g id="Layer_9">
</g>
<g id="Layer_10">
</g>
<g id="Layer_11">
</g>
<g id="Layer_12">
</g>
<g id="Layer_13">
</g>
<g id="Layer_14">
</g>
<g id="Layer_15">
</g>
<g id="Layer_16">
</g>
<g id="Layer_17">
</g>
<g id="Layer_18">
</g>
<g id="Layer_19">
</g>
<g id="Layer_20">
</g>
<g id="Layer_21">
</g>
<g id="Layer_22">
</g>
<g id="Layer_23">
</g>
<g id="Layer_24">
</g>
<g id="Layer_25">
</g>
<g id="Layer_26">
</g>
<g id="Layer_27">
</g>
<g id="Layer_28">
</g>
<g id="Layer_29">
</g>
<g id="Layer_30">
</g>
<g id="Layer_31">
</g>
<g id="Layer_32">
</g>
<g id="Layer_33">
</g>
<g id="Layer_34">
</g>
<g id="Layer_35">
</g>
<g id="Layer_36">
</g>
<g id="Layer_37">
</g>
<g id="Layer_38">
</g>
<g id="Layer_39">
</g>
<g id="Layer_40">
</g>
<g id="Layer_41">
</g>
<g id="Layer_42">
</g>
<g id="Layer_43">
</g>
<g id="Layer_44">
</g>
<g id="Layer_45">
</g>
<g id="Layer_46">
</g>
<g id="Layer_47">
</g>
<g id="Layer_48">
	<g>
		<g>
			<g>
				<path class="st3" d="M164.96,71.985c-0.759,0-1.502,0.064-2.229,0.177c0,3.696,0,20.799,0,26.293v0v0
					c0,0.783-0.036,1.558-0.088,2.329c0.756,0.122,1.526,0.202,2.316,0.202c8.009,0,14.501-6.492,14.501-14.501
					C179.461,78.477,172.969,71.985,164.96,71.985z"/>
			</g>
		</g>
		<g>
			<g>
				<path class="st3" d="M144.613,60.642c-5.29,6.174-24.047,24.906-51.344,17.13v20.684c0,19.102,15.629,34.732,34.732,34.732l0,0
					c19.102,0,34.732-15.629,34.732-34.732v-28.06c0-1.276-0.893-2.358-2.136-2.646c-3.515-0.814-7.782-2.85-12.673-7.294
					C146.955,59.577,145.463,59.649,144.613,60.642z"/>
			</g>
		</g>
		<g>
			<g>
				<path class="st3" d="M93.268,77.771c-2.385-0.679-4.834-1.559-7.346-2.668c-1.619-0.715-3.511-0.386-4.803,0.825
					c-2.817,2.641-4.581,6.39-4.581,10.557c0,8.008,6.492,14.501,14.501,14.501c0.79,0,1.56-0.08,2.316-0.202
					c-0.052-0.771-0.088-1.546-0.088-2.329V77.771z"/>
			</g>
		</g>
		<g>
			<g>
				<g>
					<path class="st13" d="M81.12,75.929c1.291-1.211,3.183-1.54,4.803-0.825c2.512,1.109,4.961,1.988,7.346,2.668
						c27.297,7.776,46.055-10.956,51.344-17.13c0.85-0.992,2.342-1.065,3.309-0.186c4.892,4.445,9.159,6.48,12.673,7.294
						c1.243,0.288,2.136,1.37,2.136,2.646v1.766c0.727-0.113,1.47-0.177,2.229-0.177c4.012,0,7.643,1.63,10.268,4.263v-8.494
						c0-25.976-21.253-47.229-47.229-47.229c-25.976,0-47.229,21.253-47.229,47.229v8.535C80.889,76.171,80.998,76.043,81.12,75.929
						z"/>
				</g>
			</g>
		</g>
		<g>
			<g>
				<path class="st13" d="M170.675,121.5c4.1-10.251,3.995-18.131,2.92-23.384c-2.414,1.795-5.395,2.871-8.634,2.871
					c-0.79,0-1.56-0.08-2.316-0.202c-0.816,12.152-7.945,22.647-18.124,28.194v10.533c0,3.677,2.088,7.034,5.386,8.66l8.587,4.234
					c1.919,0.946,3.934,1.687,6.009,2.209l17.511,4.42C183.561,142.809,166.02,133.137,170.675,121.5z"/>
			</g>
		</g>
		<g>
			<g>
				<path class="st13" d="M91.499,154.615c2.075-0.523,4.089-1.263,6.009-2.209l8.587-4.234c3.298-1.626,5.386-4.984,5.386-8.66
					v-10.533c-10.179-5.548-17.308-16.042-18.124-28.194c-0.756,0.122-1.526,0.202-2.316,0.202c-3.239,0-6.22-1.075-8.634-2.87
					c-1.075,5.253-1.18,13.133,2.92,23.384c4.655,11.637-12.887,21.309-11.338,37.536L91.499,154.615z"/>
			</g>
		</g>
		<g>
			<g>
				<g>
					<path class="st3" d="M128,152.841c9.352,0,17.343,5.801,20.587,13.998l12.005-13.506c-0.71-0.285-1.413-0.588-2.1-0.927
						l-8.587-4.234c-3.298-1.626-5.386-4.984-5.386-8.66v-10.533c-4.92,2.682-10.551,4.208-16.52,4.208
						c-5.97,0-11.6-1.526-16.52-4.208v10.533c0,3.677-2.088,7.034-5.386,8.66l-8.587,4.234c-0.687,0.339-1.39,0.642-2.1,0.927
						l12.005,13.506C110.657,158.642,118.649,152.841,128,152.841z"/>
				</g>
			</g>
		</g>
		<g>
			<g>
				<path class="st6" d="M116.859,231.828c-2.18,0-3.947-1.767-3.947-3.947v-5.582h-5.071c-2.532,0-4.585-2.053-4.585-4.585v-22.085
					c0-2.532,2.053-4.585,4.585-4.585h4.931c-4.254-4.034-6.911-9.736-6.911-16.062c0-2.876,0.554-5.621,1.552-8.141l-12.005-13.506
					c-1.273,0.512-2.576,0.947-3.909,1.282l-24.833,6.269c-6.044,1.521-10.396,6.796-10.743,13.019l-2.744,75.418
					c-0.127,2.269,1.68,4.179,3.953,4.179h21.99c1.478,0,2.677-1.198,2.677-2.677v-47.143l3.883,12.439
					c2.539,8.133,3.83,16.604,3.83,25.124v9.58c0,1.479,1.198,2.677,2.677,2.677c8.626,0,17.826,0,27.116,0v-21.672H116.859z"/>
			</g>
		</g>
		<g>
			<g>
				<path class="st6" d="M200.078,173.902c-0.347-6.223-4.699-11.497-10.743-13.019l-24.833-6.269
					c-1.332-0.335-2.635-0.77-3.909-1.282l-12.005,13.506c0.998,2.521,1.552,5.266,1.552,8.141c0,6.326-2.657,12.028-6.911,16.062
					h4.931c2.532,0,4.585,2.053,4.585,4.585v22.085c0,2.532-2.053,4.585-4.585,4.585h-5.071v5.582c0,2.18-1.767,3.947-3.947,3.947
					h-2.443V253.5c9.433,0,18.646,0,27.116,0c1.478,0,2.677-1.198,2.677-2.677v-9.58c0-8.52,1.291-16.991,3.83-25.124l3.883-12.439
					v47.143c0,1.479,1.198,2.677,2.677,2.677h21.99c2.273,0,4.079-1.91,3.953-4.179L200.078,173.902z"/>
			</g>
		</g>
		<g>
			<g>
				<path class="st23" d="M148.159,191.043h-40.318c-2.532,0-4.585,2.053-4.585,4.585v22.085c0,2.532,2.053,4.585,4.585,4.585
					h40.318c2.532,0,4.585-2.053,4.585-4.585v-22.085C152.744,193.096,150.691,191.043,148.159,191.043z"/>
			</g>
		</g>
		<g>
			<g>
				<path class="st15" d="M112.772,191.043h30.456c4.254-4.035,6.911-9.736,6.911-16.062c0-12.227-9.912-22.14-22.14-22.14
					s-22.14,9.912-22.14,22.14C105.86,181.307,108.518,187.008,112.772,191.043z"/>
			</g>
		</g>
		<g>
			<g>
				<rect x="119.302" y="231.828" class="st1" width="17.395" height="21.672"/>
			</g>
		</g>
		<g>
			<g>
				<path class="st2" d="M112.912,222.298v5.582c0,2.18,1.767,3.947,3.947,3.947h22.281c2.18,0,3.947-1.767,3.947-3.947v-5.582
					H112.912z"/>
			</g>
		</g>
		<g>
			<g>
				<path class="st8" d="M142.902,199.725h-29.804c-0.641,0-1.16,0.519-1.16,1.16v11.571c0,0.641,0.519,1.16,1.16,1.16h29.804
					c0.641,0,1.16-0.52,1.16-1.16v-11.571C144.062,200.244,143.543,199.725,142.902,199.725z"/>
			</g>
		</g>
		<g>
			<g>
				<path d="M164.961,103.487c-0.529,0-1.063-0.029-1.632-0.089c-1.373-0.145-2.369-1.375-2.225-2.748
					c0.145-1.373,1.367-2.365,2.748-2.225c0.393,0.042,0.756,0.062,1.108,0.062c6.617,0,12-5.384,12-12.001s-5.383-12-12-12
					c-0.379,0-0.752,0.02-1.121,0.056c-1.365,0.133-2.596-0.871-2.731-2.245c-0.134-1.374,0.871-2.597,2.245-2.731
					c0.537-0.052,1.078-0.079,1.607-0.079c9.374,0,17,7.626,17,17C181.961,95.86,174.335,103.487,164.961,103.487z"/>
			</g>
		</g>
		<g>
			<g>
				<path d="M128,135.687c-20.53,0-37.232-16.702-37.232-37.232V77.771c0-0.784,0.368-1.523,0.994-1.995
					c0.626-0.473,1.438-0.624,2.191-0.409c25.921,7.385,43.876-10.65,48.761-16.352l0,0c0.849-0.991,2.033-1.581,3.334-1.663
					c1.304-0.078,2.591,0.376,3.556,1.253c3.951,3.59,7.839,5.848,11.557,6.709c2.397,0.556,4.071,2.646,4.071,5.081v28.06
					C165.231,118.985,148.529,135.687,128,135.687z M95.768,80.979v17.476c0,17.773,14.459,32.232,32.232,32.232
					c17.772,0,32.231-14.459,32.231-32.232v-28.06c0-0.113-0.101-0.187-0.2-0.21c-4.516-1.046-9.109-3.656-13.657-7.759
					C141.018,68.626,122.587,86.86,95.768,80.979z"/>
			</g>
		</g>
		<g>
			<g>
				<path d="M91.04,103.487c-9.374,0-17-7.626-17-17.001c0-4.668,1.958-9.181,5.371-12.381c2.031-1.904,4.982-2.408,7.523-1.288
					c2.331,1.029,4.693,1.888,7.02,2.55c1.328,0.378,2.098,1.761,1.72,3.089c-0.378,1.329-1.764,2.099-3.089,1.72
					c-2.548-0.726-5.129-1.663-7.671-2.785c-0.702-0.31-1.52-0.168-2.083,0.361c-2.444,2.292-3.791,5.394-3.791,8.733
					c0,6.617,5.383,12.001,12,12.001c0.317,0,0.631-0.017,0.941-0.045c1.368-0.131,2.592,0.884,2.719,2.259
					c0.127,1.375-0.884,2.592-2.259,2.719C91.979,103.463,91.512,103.487,91.04,103.487z"/>
			</g>
		</g>
		<g>
			<g>
				<g>
					<path d="M80.771,78.645c-1.381,0-2.5-1.119-2.5-2.5v-8.39c0-27.421,22.308-49.729,49.729-49.729
						c27.42,0,49.729,22.308,49.729,49.729V75.5c0,1.381-1.119,2.5-2.5,2.5s-2.5-1.119-2.5-2.5v-7.745
						c0-24.664-20.065-44.729-44.729-44.729c-24.664,0-44.729,20.065-44.729,44.729v8.39C83.271,77.526,82.152,78.645,80.771,78.645
						z"/>
				</g>
			</g>
		</g>
		<g>
			<g>
				<path d="M182.043,161.218c-0.067,0-0.136-0.002-0.204-0.008c-1.376-0.111-2.401-1.316-2.291-2.692
					c0.573-7.103-2.988-12.923-6.433-18.553c-3.721-6.083-7.569-12.374-4.762-19.393c3.071-7.678,4.058-14.814,2.934-21.212
					c-0.239-1.36,0.669-2.656,2.029-2.895c1.364-0.234,2.656,0.669,2.895,2.03c1.288,7.328,0.206,15.38-3.215,23.934
					c-1.786,4.465,0.503,8.581,4.385,14.927c3.682,6.018,7.854,12.839,7.151,21.563
					C184.427,160.227,183.332,161.218,182.043,161.218z"/>
			</g>
		</g>
		<g>
			<g>
				<path d="M73.953,161.17c-1.292,0-2.387-0.995-2.489-2.305c-0.682-8.699,3.482-15.505,7.156-21.51
					c3.882-6.346,6.171-10.462,4.385-14.927c-3.462-8.655-4.529-16.792-3.171-24.184c0.25-1.359,1.55-2.256,2.911-2.007
					c1.358,0.25,2.257,1.553,2.007,2.911c-0.815,4.435-0.974,11.751,2.896,21.424c2.808,7.02-1.041,13.311-4.762,19.394
					c-3.438,5.618-6.991,11.428-6.437,18.51c0.108,1.376-0.92,2.58-2.297,2.688C74.085,161.168,74.019,161.17,73.953,161.17z"/>
			</g>
		</g>
		<g>
			<g>
				<path d="M128,117.757c-4.776,0-9.262-1.95-11.999-5.215c-0.887-1.058-0.748-2.635,0.31-3.522
					c1.059-0.887,2.635-0.747,3.522,0.31c1.798,2.146,4.852,3.427,8.167,3.427s6.368-1.281,8.167-3.427
					c0.89-1.058,2.465-1.196,3.522-0.31c1.058,0.887,1.196,2.464,0.31,3.522C137.262,115.808,132.775,117.757,128,117.757z"/>
			</g>
		</g>
		<g>
			<g>
				<circle cx="143.111" cy="90.5" r="4.5"/>
			</g>
		</g>
		<g>
			<g>
				<circle cx="112.889" cy="90.5" r="4.5"/>
			</g>
		</g>
		<g>
			<g>
				<g>
					<path d="M107.234,169.138c-0.689,0-1.375-0.283-1.87-0.839l-11.826-13.305c-0.541-0.608-0.751-1.442-0.565-2.234
						s0.747-1.444,1.502-1.747c0.752-0.302,1.364-0.572,1.926-0.849l8.587-4.234c2.462-1.214,3.991-3.674,3.991-6.418v-9.761
						c0-1.381,1.119-2.5,2.5-2.5s2.5,1.119,2.5,2.5v9.761c0,4.663-2.598,8.84-6.78,10.903l-7.678,3.785l9.58,10.777
						c0.917,1.032,0.824,2.612-0.208,3.53C108.418,168.93,107.825,169.138,107.234,169.138z"/>
				</g>
			</g>
			<g>
				<g>
					<path d="M148.954,168.925c-0.591,0-1.184-0.208-1.66-0.631c-1.031-0.917-1.125-2.498-0.207-3.53l9.391-10.564l-7.677-3.786
						c-4.183-2.063-6.78-6.24-6.78-10.903v-10.158c0-1.381,1.119-2.5,2.5-2.5s2.5,1.119,2.5,2.5v10.158
						c0,2.745,1.529,5.204,3.991,6.418l8.586,4.234c0.563,0.277,1.175,0.547,1.927,0.849c0.755,0.303,1.315,0.955,1.502,1.747
						s-0.024,1.625-0.565,2.234l-11.638,13.092C150.33,168.642,149.644,168.925,148.954,168.925z"/>
				</g>
			</g>
		</g>
		<g>
			<g>
				<path d="M119.302,256H92.187c-2.854,0-5.177-2.322-5.177-5.177v-9.58c0-7.067-0.912-14.079-2.713-20.896v30.476
					c0,2.854-2.322,5.177-5.176,5.177h-21.99c-1.768,0-3.478-0.736-4.693-2.021c-1.214-1.284-1.854-3.033-1.756-4.798l2.742-75.37
					c0.412-7.403,5.487-13.554,12.631-15.352l24.832-6.268c1.172-0.295,2.378-0.691,3.587-1.178
					c1.279-0.516,2.736,0.105,3.252,1.386c0.515,1.281-0.105,2.737-1.386,3.252c-1.418,0.571-2.842,1.038-4.231,1.387l-24.832,6.268
					c-5.012,1.262-8.571,5.575-8.859,10.734l-2.742,75.37c-0.033,0.594,0.233,0.961,0.395,1.132c0.161,0.17,0.513,0.457,1.06,0.457
					h21.99c0.097,0,0.176-0.079,0.176-0.177v-47.143c0-1.235,0.902-2.285,2.123-2.472c1.22-0.184,2.396,0.548,2.763,1.727
					l3.883,12.439c2.617,8.383,3.944,17.086,3.944,25.869v9.58c0,0.098,0.079,0.177,0.177,0.177h27.115c1.381,0,2.5,1.119,2.5,2.5
					S120.683,256,119.302,256z"/>
			</g>
		</g>
		<g>
			<g>
				<path d="M198.869,256H176.88c-2.854,0-5.177-2.322-5.177-5.177v-30.475c-1.802,6.816-2.713,13.828-2.713,20.896v9.58
					c0,2.854-2.322,5.177-5.177,5.177h-27.116c-1.381,0-2.5-1.119-2.5-2.5s1.119-2.5,2.5-2.5h27.116
					c0.098,0,0.177-0.079,0.177-0.177v-9.58c0-8.784,1.327-17.487,3.943-25.869l3.883-12.439c0.368-1.179,1.542-1.906,2.764-1.727
					c1.221,0.187,2.123,1.236,2.123,2.472v47.143c0,0.098,0.079,0.177,0.177,0.177h21.989c0.547,0,0.899-0.286,1.061-0.457
					s0.427-0.538,0.396-1.083l-2.746-75.467c-0.286-5.11-3.846-9.424-8.855-10.685l-24.836-6.269
					c-1.386-0.349-2.81-0.816-4.229-1.387c-1.281-0.515-1.902-1.971-1.387-3.252s1.972-1.901,3.252-1.386
					c1.211,0.487,2.417,0.883,3.586,1.177l24.836,6.269c7.141,1.797,12.216,7.948,12.627,15.303l2.746,75.467
					c0.097,1.716-0.543,3.464-1.758,4.749C202.348,255.263,200.638,256,198.869,256z"/>
			</g>
		</g>
		<g>
			<g>
				<path d="M148.159,224.798h-40.318c-3.907,0-7.085-3.178-7.085-7.085v-22.085c0-3.907,3.178-7.085,7.085-7.085h40.318
					c3.906,0,7.085,3.179,7.085,7.085v22.085C155.244,221.62,152.065,224.798,148.159,224.798z M107.841,193.542
					c-1.149,0-2.085,0.936-2.085,2.085v22.085c0,1.149,0.936,2.085,2.085,2.085h40.318c1.149,0,2.085-0.936,2.085-2.085v-22.085
					c0-1.15-0.936-2.085-2.085-2.085H107.841z"/>
			</g>
		</g>
		<g>
			<g>
				<path d="M143.641,193.141c-0.641,0-1.28-0.245-1.769-0.733c-0.976-0.977-0.975-2.56,0.002-3.536
					c3.718-3.713,5.766-8.646,5.766-13.892c0-10.829-8.811-19.639-19.64-19.639s-19.64,8.81-19.64,19.639
					c0,5.217,2.028,10.131,5.712,13.838c0.973,0.979,0.968,2.562-0.011,3.536c-0.979,0.973-2.562,0.968-3.536-0.011
					c-4.621-4.649-7.165-10.815-7.165-17.362c0-13.586,11.053-24.639,24.64-24.639c13.586,0,24.64,11.053,24.64,24.639
					c0,6.582-2.568,12.772-7.232,17.43C144.919,192.897,144.28,193.141,143.641,193.141z"/>
			</g>
		</g>
		<g>
			<g>
				<path d="M136.697,256h-17.395c-1.381,0-2.5-1.119-2.5-2.5v-20.656c0-1.381,1.119-2.5,2.5-2.5s2.5,1.119,2.5,2.5V251h12.395
					v-18.219c0-1.381,1.119-2.5,2.5-2.5s2.5,1.119,2.5,2.5V253.5C139.197,254.881,138.078,256,136.697,256z"/>
			</g>
		</g>
		<g>
			<g>
				<path d="M139.141,234.328h-22.281c-3.555,0-6.447-2.892-6.447-6.447v-4.755c0-1.381,1.119-2.5,2.5-2.5s2.5,1.119,2.5,2.5v4.755
					c0,0.798,0.649,1.447,1.447,1.447h22.281c0.798,0,1.447-0.649,1.447-1.447v-4.568c0-1.381,1.119-2.5,2.5-2.5s2.5,1.119,2.5,2.5
					v4.568C145.588,231.436,142.695,234.328,139.141,234.328z"/>
			</g>
		</g>
		<g>
			<g>
				<path class="st7" d="M63.822,125.33c-4.498-0.838-8.043-4.31-8.898-8.716c-0.043-0.221-0.352-0.221-0.395,0
					c-0.855,4.406-4.4,7.879-8.898,8.716c-0.226,0.042-0.226,0.345,0,0.387c4.498,0.838,8.043,4.31,8.898,8.717
					c0.043,0.221,0.352,0.221,0.395,0c0.855-4.406,4.4-7.879,8.898-8.717C64.047,125.675,64.047,125.373,63.822,125.33z"/>
			</g>
		</g>
		<g>
			<g>
				<path class="st8" d="M201.515,112.101c-2.862-0.533-5.118-2.743-5.663-5.547c-0.027-0.141-0.224-0.141-0.251,0
					c-0.544,2.804-2.8,5.014-5.663,5.547c-0.144,0.027-0.144,0.219,0,0.246c2.862,0.533,5.118,2.743,5.663,5.547
					c0.027,0.141,0.224,0.141,0.251,0c0.544-2.804,2.8-5.014,5.663-5.547C201.658,112.32,201.658,112.128,201.515,112.101z"/>
			</g>
		</g>
		<g>
			<g>
				<path class="st6" d="M184.246,25.75h2.33v-2.33c0-1.744,1.413-3.157,3.157-3.157s3.157,1.413,3.157,3.157v2.33h2.329
					c1.744,0,3.157,1.413,3.157,3.157s-1.413,3.157-3.157,3.157h-2.329v2.33c0,1.744-1.413,3.157-3.157,3.157
					s-3.157-1.413-3.157-3.157v-2.33h-2.33c-1.744,0-3.157-1.413-3.157-3.157S182.502,25.75,184.246,25.75z"/>
			</g>
		</g>
		<g>
			<g>
				<circle class="st9" cx="42.755" cy="154.825" r="3.377"/>
			</g>
		</g>
		<g>
			<g>
				<circle class="st7" cx="176.755" cy="3.377" r="3.377"/>
			</g>
		</g>
		<g>
			<g>
				<path d="M142.902,216.116h-29.804c-2.018,0-3.66-1.642-3.66-3.66v-11.571c0-2.019,1.642-3.661,3.66-3.661h29.804
					c2.019,0,3.66,1.642,3.66,3.661v11.571C146.562,214.474,144.921,216.116,142.902,216.116z M114.438,211.116h27.124v-8.892
					h-27.124V211.116z M142.902,202.225h0.01H142.902z"/>
			</g>
		</g>
	</g>
</g>
<g id="Layer_49">
</g>
<g id="Layer_50">
</g>
<g id="Layer_51">
</g>
<g id="Layer_52">
</g>
<g id="Layer_53">
</g>
<g id="Layer_54">
</g>
<g id="Layer_55">
</g>
<g id="Layer_56">
</g>
<g id="Layer_57">
</g>
<g id="Layer_58">
</g>
<g id="Layer_59">
</g>
<g id="Layer_60">
</g>
<g id="Layer_61">
</g>
<g id="Layer_62">
</g>
<g id="Layer_63">
</g>
<g id="Layer_64">
</g>
<g id="Layer_65">
</g>
<g id="Layer_66">
</g>
<g id="Layer_67">
</g>
<g id="Layer_68">
</g>
<g id="Layer_69">
</g>
<g id="Layer_70">
</g>
<g id="Layer_71">
</g>
<g id="Layer_72">
</g>
<g id="Layer_73">
</g>
<g id="Layer_74">
</g>
<g id="Layer_75">
</g>
<g id="Layer_76">
</g>
<g id="Layer_77">
</g>
<g id="Layer_78">
</g>
<g id="Layer_79">
</g>
<g id="Layer_80">
</g>
</svg>
