<?xml version="1.0" encoding="utf-8"?>
<!-- Generator: Adobe Illustrator 24.0.0, SVG Export Plug-In . SVG Version: 6.00 Build 0)  -->
<svg version="1.1" xmlns="http://www.w3.org/2000/svg" xmlns:xlink="http://www.w3.org/1999/xlink" x="0px" y="0px"
	 viewBox="0 0 256 256" style="enable-background:new 0 0 256 256;" xml:space="preserve">
<style type="text/css">
	.st0{fill:#3A70BF;}
	.st1{fill:#EDF4FC;}
	.st2{fill:#C7D7E5;}
	.st3{fill:#F9D0B4;}
	.st4{fill:#5B5D60;}
	.st5{fill:#5290DB;}
	.st6{fill:#70D6F9;}
	.st7{fill:#F5C84C;}
	.st8{fill:#FC657E;}
	.st9{fill:#87D147;}
	.st10{fill:#FCDD86;}
	.st11{fill:#9BE5F9;}
	.st12{fill:#B2E26D;}
	.st13{fill:#754E34;}
	.st14{fill:#FCA265;}
	.st15{fill:#818182;}
	.st16{fill:#F94EED;}
	.st17{fill:#FFC197;}
	.st18{fill:#3CAADC;}
	.st19{fill:#DAE6F1;}
	.st20{fill:#57AF12;}
	.st21{fill:#EF4460;}
	.st22{fill:#FFF0CA;}
	.st23{fill:#F98FA6;}
	.st24{fill:#EDB311;}
	.st25{fill:#FC8C48;}
	.st26{fill:#FCB9CB;}
	.st27{fill:#96BC71;}
	.st28{fill:#78A352;}
	.st29{fill:#B8DD90;}
	.st30{fill:#6FAFEF;}
	.st31{fill:#29589F;}
	.st32{fill:#414344;}
	.st33{fill:#9B6B4B;}
	.st34{fill:#73B1EF;}
</style>
<g id="Layer_1">
</g>
<g id="Layer_2">
</g>
<g id="Layer_3">
</g>
<g id="Layer_4">
</g>
<g id="Layer_5">
</g>
<g id="Layer_6">
</g>
<g id="Layer_7">
</g>
<g id="Layer_8">
</g>
<g id="Layer_9">
</g>
<g id="Layer_10">
</g>
<g id="Layer_11">
</g>
<g id="Layer_12">
</g>
<g id="Layer_13">
</g>
<g id="Layer_14">
</g>
<g id="Layer_15">
</g>
<g id="Layer_16">
</g>
<g id="Layer_17">
</g>
<g id="Layer_18">
</g>
<g id="Layer_19">
</g>
<g id="Layer_20">
</g>
<g id="Layer_21">
</g>
<g id="Layer_22">
</g>
<g id="Layer_23">
</g>
<g id="Layer_24">
</g>
<g id="Layer_25">
</g>
<g id="Layer_26">
</g>
<g id="Layer_27">
</g>
<g id="Layer_28">
</g>
<g id="Layer_29">
</g>
<g id="Layer_30">
</g>
<g id="Layer_31">
</g>
<g id="Layer_32">
</g>
<g id="Layer_33">
</g>
<g id="Layer_34">
</g>
<g id="Layer_35">
</g>
<g id="Layer_36">
</g>
<g id="Layer_37">
</g>
<g id="Layer_38">
</g>
<g id="Layer_39">
</g>
<g id="Layer_40">
</g>
<g id="Layer_41">
</g>
<g id="Layer_42">
</g>
<g id="Layer_43">
</g>
<g id="Layer_44">
</g>
<g id="Layer_45">
</g>
<g id="Layer_46">
</g>
<g id="Layer_47">
	<g>
		<g>
			<g>
				<path class="st3" d="M133.032,56.772c-13.593,17.094-33.644,14.681-40.386,13.27c-1.225-0.256-2.401,0.667-2.402,1.919
					c0,0.008,0,0.017,0,0.025v29.936c0,20.468,16.747,37.215,37.215,37.215h0c20.468,0,37.215-16.747,37.215-37.215V68.772
					c0-0.194-0.002-0.388-0.006-0.582c-0.021-1.055-0.866-1.925-1.921-1.956c-15.46-0.453-23.606-6.581-26.736-9.649
					C135.156,55.747,133.777,55.836,133.032,56.772z"/>
			</g>
		</g>
		<g>
			<g>
				<g>
					<path class="st13" d="M87.856,73.561c0.813,0,1.609,0.069,2.388,0.189v-1.763c0-0.008,0-0.017,0-0.025
						c0.001-1.252,1.177-2.175,2.402-1.919c6.742,1.411,26.794,3.823,40.386-13.27c0.745-0.937,2.124-1.025,2.978-0.187
						c3.13,3.068,11.276,9.196,26.736,9.649c1.055,0.031,1.9,0.901,1.921,1.956c0.004,0.194,0.006,0.388,0.006,0.582v4.978
						c0.779-0.121,1.575-0.189,2.388-0.189c4.188,0,7.982,1.665,10.777,4.36V49.973c0-11.692-9.566-21.258-21.258-21.258
						c-3.966,0-7.673,1.121-10.859,3.031c-3.722-6.211-10.502-10.405-18.23-10.405h-10.916c-21.127,0-38.413,17.286-38.413,38.413
						v17.212C80.82,74.84,84.186,73.561,87.856,73.561z"/>
				</g>
			</g>
		</g>
		<g>
			<g>
				<path class="st3" d="M167.062,73.561c-0.813,0-1.609,0.069-2.388,0.189c0,3.96,0,22.286,0,28.173
					c0,0.839-0.038,1.67-0.094,2.496c0.81,0.13,1.635,0.217,2.482,0.217c8.581,0,15.537-6.956,15.537-15.537
					S175.643,73.561,167.062,73.561z"/>
			</g>
		</g>
		<g>
			<g>
				<path class="st3" d="M90.244,101.923c0-3.856,0-20.507,0-28.173c-0.779-0.121-1.575-0.189-2.388-0.189
					c-8.581,0-15.538,6.957-15.538,15.538s6.956,15.537,15.538,15.537c0.847,0,1.672-0.086,2.482-0.217v-0.001
					C90.282,103.593,90.244,102.762,90.244,101.923z"/>
			</g>
		</g>
		<g>
			<g>
				<path class="st11" d="M158.648,154.265l-8.134-7.427c-0.753-0.687-1.917-0.646-2.619,0.092l-8.581,9.021
					c4.681,2.79,8.246,7.255,9.865,12.57l9.65-11.682C159.465,156.071,159.385,154.938,158.648,154.265z"/>
			</g>
		</g>
		<g>
			<g>
				<path class="st11" d="M116.685,155.951l-8.581-9.021c-0.702-0.739-1.866-0.779-2.619-0.092l-8.134,7.427
					c-0.737,0.673-0.817,1.806-0.181,2.575l9.65,11.682C108.44,163.206,112.004,158.741,116.685,155.951z"/>
			</g>
		</g>
		<g>
			<g>
				<path class="st3" d="M128,152.841c4.135,0,8.003,1.137,11.315,3.11l7.778-8.177c-1.249-2.003-1.948-4.349-1.948-6.802v-6.335
					c-5.268,2.868-11.296,4.501-17.686,4.501h0c-5.959,0-11.597-1.427-16.604-3.945v5.778c0,2.453-0.699,4.8-1.948,6.802
					l7.778,8.177C119.997,153.978,123.865,152.841,128,152.841z"/>
			</g>
		</g>
		<g>
			<g>
				<path class="st6" d="M116.859,231.828c-2.18,0-3.947-1.767-3.947-3.947v-5.582h-5.071c-2.532,0-4.585-2.053-4.585-4.585v-22.085
					c0-2.532,2.053-4.585,4.585-4.585h4.931c-4.254-4.034-6.911-9.736-6.911-16.062c0-2.247,0.337-4.415,0.96-6.459l-9.65-11.682
					c-0.227-0.274-0.358-0.596-0.406-0.925l-3.296,1.625l-28.902,7.274c-6.233,1.569-10.721,7.008-11.078,13.425L50.98,221.5h25.475
					v32h42.847v-21.672H116.859z"/>
			</g>
		</g>
		<g>
			<g>
				<path class="st6" d="M202.511,178.239c-0.357-6.417-4.846-11.856-11.078-13.425l-28.902-7.274l-3.296-1.625
					c-0.047,0.33-0.179,0.651-0.406,0.925l-9.65,11.682c0.623,2.044,0.96,4.212,0.96,6.459c0,6.326-2.657,12.028-6.911,16.062h4.931
					c2.532,0,4.585,2.053,4.585,4.585v22.085c0,2.532-2.053,4.585-4.585,4.585h-5.071v5.582c0,2.18-1.767,3.947-3.947,3.947h-2.443
					V253.5h42.847v-32h25.475L202.511,178.239z"/>
			</g>
		</g>
		<g>
			<g>
				<path class="st3" d="M179.545,253.5h23.004c2.344,0,4.207-1.969,4.076-4.31l-1.606-27.69h-25.475V253.5z"/>
			</g>
		</g>
		<g>
			<g>
				<path class="st3" d="M53.451,253.5h23.004v-32H50.98l-1.606,27.69C49.244,251.531,51.107,253.5,53.451,253.5z"/>
			</g>
		</g>
		<g>
			<g>
				<path class="st23" d="M148.159,191.043h-40.318c-2.532,0-4.585,2.053-4.585,4.585v22.085c0,2.532,2.053,4.585,4.585,4.585
					h40.318c2.532,0,4.585-2.053,4.585-4.585v-22.085C152.744,193.096,150.691,191.043,148.159,191.043z"/>
			</g>
		</g>
		<g>
			<g>
				<path class="st15" d="M112.772,191.043h30.456c4.254-4.035,6.911-9.736,6.911-16.062c0-12.227-9.912-22.14-22.14-22.14
					s-22.14,9.912-22.14,22.14C105.86,181.307,108.518,187.008,112.772,191.043z"/>
			</g>
		</g>
		<g>
			<g>
				<rect x="119.302" y="231.828" class="st1" width="17.395" height="21.672"/>
			</g>
		</g>
		<g>
			<g>
				<path class="st2" d="M112.912,222.298v5.582c0,2.18,1.767,3.947,3.947,3.947h22.281c2.18,0,3.947-1.767,3.947-3.947v-5.582
					H112.912z"/>
			</g>
		</g>
		<g>
			<g>
				<path class="st8" d="M142.902,199.725h-29.804c-0.641,0-1.16,0.519-1.16,1.16v11.571c0,0.641,0.519,1.16,1.16,1.16h29.804
					c0.641,0,1.16-0.52,1.16-1.16v-11.571C144.062,200.244,143.543,199.725,142.902,199.725z"/>
			</g>
		</g>
		<g>
			<g>
				<path d="M127.459,141.638c-21.899,0-39.715-17.816-39.715-39.715V71.987c0.001-1.371,0.603-2.628,1.65-3.479
					c1.059-0.859,2.432-1.191,3.764-0.912c7.237,1.513,25.418,3.339,37.917-12.38v0c0.796-1,1.982-1.619,3.253-1.698
					c1.274-0.081,2.521,0.388,3.432,1.281c2.593,2.542,10.226,8.501,25.06,8.936c2.391,0.071,4.3,2.006,4.348,4.406
					c0.004,0.209,0.006,0.42,0.006,0.632v33.151C167.174,123.822,149.358,141.638,127.459,141.638z M92.744,72.613v29.311
					c0,19.142,15.573,34.715,34.715,34.715c19.142,0,34.715-15.573,34.715-34.715V68.772c0-0.019,0-0.038,0-0.056
					c-15.154-0.563-23.626-6.308-27.522-9.97C120.464,76.143,99.732,73.962,92.744,72.613z M134.988,58.329
					c0,0.001,0,0.001-0.001,0.002C134.987,58.33,134.988,58.33,134.988,58.329L134.988,58.329z"/>
			</g>
		</g>
		<g>
			<g>
				<g>
					<path d="M177.838,79.625c-1.381,0-2.5-1.119-2.5-2.5V49.973c0-10.343-8.415-18.758-18.758-18.758
						c-3.344,0-6.655,0.925-9.574,2.675c-0.569,0.34-1.251,0.44-1.893,0.281c-0.644-0.161-1.196-0.571-1.537-1.14
						c-3.396-5.668-9.56-9.19-16.086-9.19h-10.916c-19.803,0-35.913,16.111-35.913,35.914v16.525c0,1.381-1.119,2.5-2.5,2.5
						s-2.5-1.119-2.5-2.5V59.755c0-22.56,18.354-40.914,40.913-40.914h10.916c7.481,0,14.582,3.641,19.048,9.638
						c3.15-1.487,6.58-2.264,10.042-2.264c13.1,0,23.758,10.658,23.758,23.758v27.152C180.338,78.506,179.219,79.625,177.838,79.625
						z"/>
				</g>
			</g>
		</g>
		<g>
			<g>
				<path d="M179.545,255.04c-1.381,0-2.5-1.119-2.5-2.5v-56.644c0-1.381,1.119-2.5,2.5-2.5s2.5,1.119,2.5,2.5v56.644
					C182.045,253.92,180.926,255.04,179.545,255.04z"/>
			</g>
		</g>
		<g>
			<g>
				<path d="M76.455,255.04c-1.381,0-2.5-1.119-2.5-2.5v-56.644c0-1.381,1.119-2.5,2.5-2.5s2.5,1.119,2.5,2.5v56.644
					C78.955,253.92,77.836,255.04,76.455,255.04z"/>
			</g>
		</g>
		<g>
			<g>
				<path d="M167.062,107.136c-0.697,0-1.409-0.048-2.176-0.146c-1.37-0.175-2.337-1.428-2.162-2.797
					c0.175-1.37,1.425-2.341,2.797-2.162c0.555,0.071,1.059,0.105,1.541,0.105c7.189,0,13.038-5.849,13.038-13.038
					s-5.849-13.038-13.038-13.038c-0.413,0-0.837,0.021-1.26,0.064c-1.375,0.139-2.6-0.862-2.739-2.236
					c-0.139-1.374,0.862-2.6,2.236-2.739c0.589-0.06,1.182-0.09,1.763-0.09c9.946,0,18.038,8.092,18.038,18.038
					S177.008,107.136,167.062,107.136z"/>
			</g>
		</g>
		<g>
			<g>
				<path d="M87.856,107.136c-9.946,0-18.038-8.092-18.038-18.038s8.092-18.038,18.038-18.038c0.687,0,1.395,0.043,2.104,0.127
					c1.371,0.164,2.35,1.408,2.186,2.779c-0.164,1.37-1.409,2.348-2.779,2.186c-0.513-0.061-1.021-0.092-1.511-0.092
					c-7.189,0-13.038,5.849-13.038,13.038s5.849,13.038,13.038,13.038c0.493,0,1.008-0.036,1.574-0.11
					c1.374-0.176,2.625,0.786,2.804,2.154c0.179,1.369-0.785,2.624-2.154,2.804C89.296,107.086,88.569,107.136,87.856,107.136z"/>
			</g>
		</g>
		<g>
			<g>
				<path d="M128,118.573c-4.776,0-9.262-1.95-11.999-5.215c-0.887-1.058-0.748-2.635,0.31-3.522c1.06-0.888,2.636-0.747,3.522,0.31
					c1.798,2.146,4.852,3.427,8.167,3.427s6.369-1.281,8.167-3.426c0.887-1.058,2.464-1.198,3.522-0.31
					c1.058,0.887,1.197,2.464,0.31,3.522C137.262,116.624,132.776,118.573,128,118.573z"/>
			</g>
		</g>
		<g>
			<g>
				<circle cx="144.789" cy="90.816" r="5"/>
			</g>
		</g>
		<g>
			<g>
				<circle cx="111.211" cy="90.816" r="5"/>
			</g>
		</g>
		<g>
			<g>
				<path d="M149.327,170.841c-0.561,0-1.125-0.188-1.591-0.573c-1.064-0.879-1.214-2.455-0.335-3.52l9.12-11.041l-7.238-6.609
					l-7.923,8.329c-0.952,1-2.534,1.04-3.535,0.088c-1-0.952-1.04-2.534-0.088-3.535l8.347-8.774
					c1.628-1.711,4.372-1.807,6.116-0.216l8.134,7.427c1.724,1.574,1.909,4.215,0.422,6.014l-9.5,11.5
					C150.762,170.531,150.047,170.841,149.327,170.841z"/>
			</g>
		</g>
		<g>
			<g>
				<path d="M106.611,170.767c-0.72,0-1.435-0.309-1.929-0.908l-9.439-11.427c-1.486-1.798-1.301-4.439,0.422-6.013l8.134-7.427
					c1.744-1.593,4.489-1.497,6.116,0.216l8.394,8.823c0.952,1,0.912,2.583-0.088,3.535c-1.001,0.952-2.583,0.912-3.535-0.088
					l-7.97-8.378l-7.238,6.609l9.059,10.966c0.879,1.064,0.729,2.641-0.335,3.52C107.736,170.579,107.172,170.767,106.611,170.767z"
					/>
			</g>
		</g>
		<g>
			<g>
				<path d="M146.742,149.672c-0.882,0-1.737-0.467-2.192-1.294c-1.246-2.262-1.904-4.823-1.904-7.406v-5.347
					c0-1.381,1.119-2.5,2.5-2.5s2.5,1.119,2.5,2.5v5.347c0,1.742,0.444,3.468,1.284,4.994c0.666,1.209,0.226,2.729-0.984,3.396
					C147.563,149.572,147.149,149.672,146.742,149.672z"/>
			</g>
		</g>
		<g>
			<g>
				<path d="M109.173,149.824c-0.418,0-0.843-0.105-1.233-0.327c-1.2-0.683-1.62-2.209-0.938-3.409
					c0.885-1.556,1.353-3.325,1.353-5.116v-4.555c0-1.381,1.119-2.5,2.5-2.5s2.5,1.119,2.5,2.5v4.555
					c0,2.656-0.694,5.279-2.006,7.587C110.888,149.37,110.043,149.824,109.173,149.824z"/>
			</g>
		</g>
		<g>
			<g>
				<path d="M119.302,256H76.455c-1.381,0-2.5-1.119-2.5-2.5V224H50.98c-0.688,0-1.346-0.284-1.818-0.784
					c-0.472-0.5-0.717-1.173-0.677-1.86l2.509-43.261c0.42-7.545,5.63-13.859,12.964-15.705l28.644-7.209l2.477-1.222
					c1.24-0.611,2.737-0.102,3.348,1.136s0.102,2.737-1.136,3.348l-2.715,1.339c-0.159,0.078-0.325,0.139-0.496,0.182l-28.901,7.274
					c-5.2,1.309-8.895,5.786-9.193,11.14L53.63,219h22.825c1.381,0,2.5,1.119,2.5,2.5V251h40.347c1.381,0,2.5,1.119,2.5,2.5
					S120.683,256,119.302,256z"/>
			</g>
		</g>
		<g>
			<g>
				<path d="M179.545,256h-42.847c-1.381,0-2.5-1.119-2.5-2.5s1.119-2.5,2.5-2.5h40.347v-29.5c0-1.381,1.119-2.5,2.5-2.5h22.825
					l-2.355-40.617c-0.299-5.359-3.993-9.836-9.193-11.145l-28.902-7.274c-0.171-0.043-0.337-0.104-0.495-0.182l-2.824-1.392
					c-1.238-0.61-1.748-2.109-1.137-3.348c0.61-1.238,2.109-1.747,3.348-1.137l2.586,1.274l28.645,7.21
					c7.333,1.846,12.543,8.159,12.964,15.71l2.508,43.256c0.04,0.687-0.205,1.36-0.677,1.86c-0.473,0.5-1.13,0.784-1.818,0.784
					h-22.975v29.5C182.045,254.881,180.926,256,179.545,256z"/>
			</g>
		</g>
		<g>
			<g>
				<path d="M202.549,256h-23.004c-1.381,0-2.5-1.119-2.5-2.5s1.119-2.5,2.5-2.5h23.004c0.439,0,0.848-0.176,1.15-0.495
					c0.302-0.319,0.455-0.737,0.43-1.175l-1.605-27.685c-0.08-1.378,0.973-2.561,2.351-2.64c1.359-0.081,2.561,0.972,2.64,2.351
					l1.606,27.69c0.101,1.804-0.552,3.586-1.79,4.895C206.094,255.25,204.351,256,202.549,256z"/>
			</g>
		</g>
		<g>
			<g>
				<path d="M76.455,256H53.451c-1.802,0-3.545-0.75-4.783-2.06c-1.238-1.309-1.89-3.09-1.79-4.889l1.606-27.696
					c0.079-1.378,1.257-2.433,2.64-2.351c1.378,0.08,2.431,1.262,2.351,2.64l-1.606,27.69c-0.024,0.433,0.129,0.851,0.431,1.17
					c0.302,0.319,0.711,0.495,1.15,0.495h23.004c1.381,0,2.5,1.119,2.5,2.5S77.836,256,76.455,256z"/>
			</g>
		</g>
		<g>
			<g>
				<path class="st7" d="M203.822,28.33c-4.498-0.838-8.043-4.31-8.898-8.716c-0.043-0.221-0.352-0.221-0.395,0
					c-0.855,4.406-4.4,7.879-8.898,8.716c-0.226,0.042-0.226,0.345,0,0.387c4.498,0.838,8.043,4.31,8.898,8.717
					c0.043,0.221,0.352,0.221,0.395,0c0.855-4.406,4.4-7.879,8.898-8.717C204.047,28.675,204.047,28.373,203.822,28.33z"/>
			</g>
		</g>
		<g>
			<g>
				<path class="st9" d="M202.515,112.101c-2.862-0.533-5.118-2.743-5.663-5.547c-0.027-0.141-0.224-0.141-0.251,0
					c-0.544,2.804-2.8,5.014-5.663,5.547c-0.144,0.027-0.144,0.219,0,0.246c2.862,0.533,5.118,2.743,5.663,5.547
					c0.027,0.141,0.224,0.141,0.251,0c0.544-2.804,2.8-5.014,5.663-5.547C202.658,112.32,202.658,112.128,202.515,112.101z"/>
			</g>
		</g>
		<g>
			<g>
				<path class="st6" d="M63.246,120.75h2.33v-2.33c0-1.744,1.413-3.157,3.157-3.157c1.744,0,3.157,1.413,3.157,3.157v2.33h2.329
					c1.744,0,3.157,1.413,3.157,3.157s-1.413,3.157-3.157,3.157h-2.329v2.33c0,1.744-1.413,3.157-3.157,3.157
					c-1.744,0-3.157-1.413-3.157-3.157v-2.33h-2.33c-1.744,0-3.157-1.413-3.157-3.157S61.502,120.75,63.246,120.75z"/>
			</g>
		</g>
		<g>
			<g>
				<circle class="st7" cx="53.755" cy="152.825" r="3.377"/>
			</g>
		</g>
		<g>
			<g>
				<circle class="st8" cx="177.755" cy="3.377" r="3.377"/>
			</g>
		</g>
		<g>
			<g>
				<path d="M148.159,224.798h-40.318c-3.907,0-7.085-3.178-7.085-7.085v-22.085c0-3.907,3.178-7.085,7.085-7.085h40.318
					c3.907,0,7.085,3.179,7.085,7.085v22.085C155.244,221.62,152.066,224.798,148.159,224.798z M107.841,193.542
					c-1.149,0-2.085,0.936-2.085,2.085v22.085c0,1.149,0.936,2.085,2.085,2.085h40.318c1.149,0,2.085-0.936,2.085-2.085v-22.085
					c0-1.15-0.936-2.085-2.085-2.085H107.841z"/>
			</g>
		</g>
		<g>
			<g>
				<path d="M143.672,193.109c-0.639,0-1.277-0.243-1.766-0.73c-0.978-0.975-0.979-2.558-0.004-3.536
					c3.7-3.709,5.737-8.633,5.737-13.863c0-10.829-8.811-19.639-19.64-19.639s-19.64,8.81-19.64,19.639
					c0,5.196,2.015,10.097,5.673,13.798c0.97,0.982,0.961,2.565-0.021,3.536c-0.982,0.971-2.564,0.961-3.536-0.021
					c-4.589-4.644-7.116-10.792-7.116-17.313c0-13.586,11.053-24.639,24.64-24.639s24.64,11.053,24.64,24.639
					c0,6.564-2.556,12.741-7.197,17.395C144.954,192.864,144.313,193.109,143.672,193.109z"/>
			</g>
		</g>
		<g>
			<g>
				<path d="M136.698,256h-17.396c-1.381,0-2.5-1.119-2.5-2.5v-20.708c0-1.381,1.119-2.5,2.5-2.5s2.5,1.119,2.5,2.5V251h12.396
					v-18.292c0-1.381,1.119-2.5,2.5-2.5s2.5,1.119,2.5,2.5V253.5C139.198,254.881,138.079,256,136.698,256z"/>
			</g>
		</g>
		<g>
			<g>
				<path d="M139.141,234.328h-22.281c-3.555,0-6.447-2.892-6.447-6.447v-4.922c0-1.381,1.119-2.5,2.5-2.5s2.5,1.119,2.5,2.5v4.922
					c0,0.798,0.649,1.447,1.447,1.447h22.281c0.798,0,1.447-0.649,1.447-1.447v-5.088c0-1.381,1.119-2.5,2.5-2.5s2.5,1.119,2.5,2.5
					v5.088C145.588,231.436,142.696,234.328,139.141,234.328z"/>
			</g>
		</g>
		<g>
			<g>
				<path d="M142.902,216.116h-29.804c-2.018,0-3.66-1.642-3.66-3.66v-11.571c0-2.019,1.642-3.661,3.66-3.661h29.804
					c2.018,0,3.66,1.642,3.66,3.661v11.571C146.562,214.474,144.92,216.116,142.902,216.116z M114.438,211.116h27.124v-8.892
					h-27.124V211.116z M142.902,202.225h0.01H142.902z"/>
			</g>
		</g>
	</g>
</g>
<g id="Layer_48">
</g>
<g id="Layer_49">
</g>
<g id="Layer_50">
</g>
<g id="Layer_51">
</g>
<g id="Layer_52">
</g>
<g id="Layer_53">
</g>
<g id="Layer_54">
</g>
<g id="Layer_55">
</g>
<g id="Layer_56">
</g>
<g id="Layer_57">
</g>
<g id="Layer_58">
</g>
<g id="Layer_59">
</g>
<g id="Layer_60">
</g>
<g id="Layer_61">
</g>
<g id="Layer_62">
</g>
<g id="Layer_63">
</g>
<g id="Layer_64">
</g>
<g id="Layer_65">
</g>
<g id="Layer_66">
</g>
<g id="Layer_67">
</g>
<g id="Layer_68">
</g>
<g id="Layer_69">
</g>
<g id="Layer_70">
</g>
<g id="Layer_71">
</g>
<g id="Layer_72">
</g>
<g id="Layer_73">
</g>
<g id="Layer_74">
</g>
<g id="Layer_75">
</g>
<g id="Layer_76">
</g>
<g id="Layer_77">
</g>
<g id="Layer_78">
</g>
<g id="Layer_79">
</g>
<g id="Layer_80">
</g>
</svg>
