<?xml version="1.0" encoding="utf-8"?>
<!-- Generator: Adobe Illustrator 24.0.0, SVG Export Plug-In . SVG Version: 6.00 Build 0)  -->
<svg version="1.1" xmlns="http://www.w3.org/2000/svg" xmlns:xlink="http://www.w3.org/1999/xlink" x="0px" y="0px"
	 viewBox="0 0 256 256" style="enable-background:new 0 0 256 256;" xml:space="preserve">
<style type="text/css">
	.st0{fill:#3A70BF;}
	.st1{fill:#EDF4FC;}
	.st2{fill:#C7D7E5;}
	.st3{fill:#F9D0B4;}
	.st4{fill:#5B5D60;}
	.st5{fill:#5290DB;}
	.st6{fill:#70D6F9;}
	.st7{fill:#F5C84C;}
	.st8{fill:#FC657E;}
	.st9{fill:#87D147;}
	.st10{fill:#FCDD86;}
	.st11{fill:#9BE5F9;}
	.st12{fill:#B2E26D;}
	.st13{fill:#754E34;}
	.st14{fill:#FCA265;}
	.st15{fill:#818182;}
	.st16{fill:#F94EED;}
	.st17{fill:#FFC197;}
	.st18{fill:#3CAADC;}
	.st19{fill:#DAE6F1;}
	.st20{fill:#57AF12;}
	.st21{fill:#EF4460;}
	.st22{fill:#FFF0CA;}
	.st23{fill:#F98FA6;}
	.st24{fill:#EDB311;}
	.st25{fill:#FC8C48;}
	.st26{fill:#FCB9CB;}
	.st27{fill:#96BC71;}
	.st28{fill:#78A352;}
	.st29{fill:#B8DD90;}
	.st30{fill:#6FAFEF;}
	.st31{fill:#29589F;}
	.st32{fill:#414344;}
	.st33{fill:#9B6B4B;}
	.st34{fill:#73B1EF;}
</style>
<g id="Layer_1">
</g>
<g id="Layer_2">
</g>
<g id="Layer_3">
</g>
<g id="Layer_4">
</g>
<g id="Layer_5">
</g>
<g id="Layer_6">
</g>
<g id="Layer_7">
</g>
<g id="Layer_8">
</g>
<g id="Layer_9">
</g>
<g id="Layer_10">
</g>
<g id="Layer_11">
</g>
<g id="Layer_12">
</g>
<g id="Layer_13">
</g>
<g id="Layer_14">
</g>
<g id="Layer_15">
</g>
<g id="Layer_16">
</g>
<g id="Layer_17">
</g>
<g id="Layer_18">
</g>
<g id="Layer_19">
</g>
<g id="Layer_20">
</g>
<g id="Layer_21">
</g>
<g id="Layer_22">
</g>
<g id="Layer_23">
</g>
<g id="Layer_24">
</g>
<g id="Layer_25">
</g>
<g id="Layer_26">
</g>
<g id="Layer_27">
</g>
<g id="Layer_28">
</g>
<g id="Layer_29">
</g>
<g id="Layer_30">
</g>
<g id="Layer_31">
</g>
<g id="Layer_32">
</g>
<g id="Layer_33">
</g>
<g id="Layer_34">
</g>
<g id="Layer_35">
</g>
<g id="Layer_36">
</g>
<g id="Layer_37">
</g>
<g id="Layer_38">
</g>
<g id="Layer_39">
</g>
<g id="Layer_40">
</g>
<g id="Layer_41">
</g>
<g id="Layer_42">
</g>
<g id="Layer_43">
</g>
<g id="Layer_44">
</g>
<g id="Layer_45">
</g>
<g id="Layer_46">
</g>
<g id="Layer_47">
</g>
<g id="Layer_48">
</g>
<g id="Layer_49">
</g>
<g id="Layer_50">
	<g>
		<g>
			<g>
				<path class="st3" d="M186.544,71.985c-0.759,0-1.502,0.064-2.229,0.177c0,3.696,0,20.799,0,26.293v0v0
					c0,0.783-0.036,1.558-0.088,2.329c0.756,0.122,1.526,0.202,2.316,0.202c8.009,0,14.501-6.492,14.501-14.501
					C201.044,78.477,194.552,71.985,186.544,71.985z"/>
			</g>
		</g>
		<g>
			<g>
				<path class="st3" d="M166.196,60.642c-5.29,6.174-24.047,24.906-51.344,17.13v20.684c0,19.102,15.629,34.732,34.732,34.732l0,0
					c19.102,0,34.732-15.629,34.732-34.732v-28.06c0-1.276-0.893-2.358-2.136-2.646c-3.515-0.814-7.782-2.85-12.673-7.294
					C168.538,59.577,167.046,59.649,166.196,60.642z"/>
			</g>
		</g>
		<g>
			<g>
				<path class="st3" d="M114.852,77.771c-2.385-0.679-4.834-1.559-7.346-2.668c-1.619-0.715-3.511-0.386-4.803,0.825
					c-2.817,2.641-4.581,6.39-4.581,10.557c0,8.008,6.492,14.501,14.501,14.501c0.79,0,1.56-0.08,2.316-0.202
					c-0.052-0.771-0.088-1.546-0.088-2.329V77.771z"/>
			</g>
		</g>
		<g>
			<g>
				<g>
					<path class="st2" d="M102.703,75.929c1.291-1.211,3.183-1.54,4.803-0.825c2.512,1.109,4.961,1.988,7.346,2.668
						c27.297,7.776,46.055-10.956,51.344-17.13c0.85-0.992,2.342-1.065,3.309-0.186c4.892,4.445,9.159,6.48,12.673,7.294
						c1.243,0.288,2.136,1.37,2.136,2.646v1.766c0.727-0.113,1.47-0.177,2.229-0.177c4.012,0,7.643,1.63,10.268,4.263v-8.494
						c0-25.976-21.253-47.229-47.229-47.229c-25.976,0-47.229,21.253-47.229,47.229v8.535
						C102.473,76.171,102.581,76.043,102.703,75.929z"/>
				</g>
			</g>
		</g>
		<g>
			<g>
				<path class="st19" d="M148.46,202.124c0.733,1.133,1.123,2.454,1.123,3.803v-0.124c0-1.349,0.39-2.67,1.123-3.803l31.484-48.661
					c-0.715-0.287-1.423-0.592-2.115-0.933l-8.587-4.234c-3.298-1.626-5.386-4.984-5.386-8.66v-10.533
					c-4.92,2.682-10.551,4.208-16.52,4.208c-5.97,0-11.6-1.526-16.52-4.208v10.533c0,3.677-2.088,7.034-5.386,8.66l-8.587,4.234
					c-0.712,0.351-1.442,0.664-2.178,0.958L148.46,202.124z"/>
			</g>
		</g>
		<g>
			<g>
				<path class="st4" d="M77.763,175.177c1.808,0,3.274,1.466,3.274,3.274v3.897c0,1.808-1.466,3.274-3.274,3.274h-0.626v11.034
					h50.659c0.166,0,0.322,0.034,0.484,0.049l-25.543-39.479l-14.488,3.657c-6.044,1.521-10.396,6.796-10.743,13.019l-0.046,1.274
					H77.763z"/>
			</g>
		</g>
		<g>
			<g>
				<path class="st4" d="M132.717,203.564c-0.703,2.053-2.629,3.539-4.921,3.539H77.137v11.034l0.626,0
					c1.808,0,3.274,1.466,3.274,3.274v3.898c0,1.808-1.466,3.421-3.274,3.421h4.354c3.199,0,5.816,2.764,5.816,5.963v8.39
					c-0.097-0.009-0.19-0.029-0.29-0.029c1.808,0,3.274,1.466,3.274,3.274v3.898c0,1.808-1.466,3.274-3.274,3.274h47.939v-45.507
					L132.717,203.564z"/>
			</g>
		</g>
		<g>
			<g>
				<path class="st4" d="M221.661,173.902c-0.347-6.223-4.699-11.497-10.743-13.019l-14.557-3.675l-32.778,50.66V253.5h56.869
					c2.273,0,4.079-1.91,3.953-4.179L221.661,173.902z"/>
			</g>
		</g>
		<g>
			<g>
				<path class="st2" d="M133.063,139.512v-10.533c-10.179-5.548-17.308-16.042-18.124-28.194c-0.756,0.122-1.526,0.202-2.316,0.202
					c-3.897,0-7.427-1.545-10.032-4.046c-1.508,8.692-4.54,20.198-10.64,31.327c-1.112,2.029-0.572,4.566,1.303,5.922
					c4.92,3.557,16.083,9.666,36.929,12.174C131.988,144.579,133.063,142.133,133.063,139.512z"/>
			</g>
		</g>
		<g>
			<g>
				<path class="st2" d="M207.216,128.268c-6.1-11.129-9.132-22.635-10.64-31.327c-2.606,2.501-6.136,4.046-10.032,4.046
					c-0.79,0-1.56-0.08-2.316-0.202c-0.816,12.152-7.945,22.647-18.124,28.194v10.533c0,2.621,1.076,5.068,2.88,6.853
					c20.847-2.508,32.009-8.617,36.93-12.174C207.788,132.834,208.328,130.297,207.216,128.268z"/>
			</g>
		</g>
		<g>
			<g>
				<path class="st3" d="M173.505,149.166l-2.016-0.994c-3.298-1.626-5.386-4.984-5.386-8.66v-10.533
					c-4.92,2.682-10.551,4.208-16.52,4.208c-5.97,0-11.6-1.526-16.52-4.208v10.533c0,3.677-2.088,7.034-5.386,8.66l-2.016,0.994
					c5.728,6.864,14.336,11.252,23.921,11.252S167.777,156.03,173.505,149.166z"/>
			</g>
		</g>
		<g>
			<g>
				<path class="st15" d="M148.46,202.124l-31.548-48.759c-1.248,0.498-2.525,0.922-3.83,1.251l-10.345,2.611l25.543,39.479
					c2.654,0.248,4.74,2.455,4.74,5.174c0,0.593-0.12,1.153-0.302,1.684l2.866,4.429V253.5h14v-47.574
					C149.583,204.577,149.194,203.256,148.46,202.124z"/>
			</g>
		</g>
		<g>
			<g>
				<path class="st15" d="M149.583,253.5h14v-45.631l32.778-50.66l-10.276-2.594c-1.327-0.334-2.626-0.767-3.894-1.276L150.706,202
					c-0.733,1.133-1.123,2.454-1.123,3.803V253.5z"/>
			</g>
		</g>
		<g>
			<g>
				<path class="st1" d="M163.17,174.613c1.171,1.129,2.749,1.647,4.282,1.504l14.738-22.779c-0.716-0.285-1.423-0.591-2.115-0.932
					l-6.571-3.24c-5.283,6.331-13.018,10.546-21.707,11.164C155.171,166.372,160.011,171.566,163.17,174.613z"/>
			</g>
		</g>
		<g>
			<g>
				<path class="st1" d="M131.624,176.102c1.562,0.173,3.179-0.336,4.373-1.488c3.159-3.047,7.999-8.241,11.373-14.283
					c-8.69-0.618-16.425-4.833-21.707-11.164l-6.571,3.24c-0.712,0.351-1.441,0.666-2.178,0.958L131.624,176.102z"/>
			</g>
		</g>
		<g>
			<g>
				<path class="st7" d="M87.644,243.054H34.862c-1.808,0-3.274,1.466-3.274,3.274v3.898c0,1.808,1.466,3.274,3.274,3.274h52.782
					c1.808,0,3.274-1.466,3.274-3.274v-3.898C90.918,244.52,89.453,243.054,87.644,243.054z"/>
			</g>
		</g>
		<g>
			<g>
				<path class="st13" d="M77.763,218.137h-33.02c-1.808,0-3.274,1.466-3.274,3.274v3.898c0,1.808,1.466,3.421,3.274,3.421h33.02
					c1.808,0,3.274-1.613,3.274-3.421v-3.898C81.038,219.603,79.572,218.137,77.763,218.137z"/>
			</g>
		</g>
		<g>
			<g>
				<path class="st13" d="M77.763,175.177h-33.02c-1.808,0-3.274,1.466-3.274,3.274v3.898c0,1.808,1.466,3.274,3.274,3.274h33.02
					c1.808,0,3.274-1.466,3.274-3.274v-3.898C81.038,176.643,79.572,175.177,77.763,175.177z"/>
			</g>
		</g>
		<g>
			<g>
				<g>
					<path class="st33" d="M34.862,243.054h52.782c0.099,0,0.193,0.021,0.29,0.029v-8.39c0-3.199-2.617-5.963-5.816-5.963H40.389
						c-3.199,0-5.816,2.764-5.816,5.963v8.39C34.67,243.074,34.763,243.054,34.862,243.054z"/>
				</g>
			</g>
		</g>
		<g>
			<g>
				<g>
					<rect x="45.369" y="185.623" class="st33" width="31.768" height="32.514"/>
				</g>
			</g>
		</g>
		<g>
			<g>
				<path class="st13" d="M127.796,196.657H77.137v10.446h50.659c2.885,0,5.223-2.338,5.223-5.223S130.681,196.657,127.796,196.657z
					"/>
			</g>
		</g>
		<g>
			<g>
				<path d="M149.583,117.757c-4.775,0-9.262-1.949-11.999-5.215c-0.887-1.058-0.748-2.635,0.31-3.522
					c1.059-0.886,2.633-0.749,3.522,0.31c1.799,2.146,4.852,3.427,8.167,3.427s6.369-1.281,8.167-3.427
					c0.887-1.058,2.466-1.196,3.521-0.31c1.059,0.887,1.197,2.463,0.311,3.522C158.846,115.808,154.36,117.757,149.583,117.757z"/>
			</g>
		</g>
		<g>
			<g>
				<circle cx="164.694" cy="90.5" r="4.5"/>
			</g>
		</g>
		<g>
			<g>
				<circle cx="134.473" cy="90.5" r="4.5"/>
			</g>
		</g>
		<g>
			<g>
				<path d="M186.544,103.487c-0.543,0-1.092-0.031-1.677-0.093c-1.373-0.147-2.366-1.38-2.219-2.753
					c0.147-1.372,1.371-2.364,2.752-2.219c0.406,0.044,0.78,0.065,1.144,0.065c6.617,0,12.001-5.384,12.001-12.001
					s-5.384-12-12.001-12c-0.313,0-0.621,0.013-0.928,0.038c-1.351,0.108-2.581-0.916-2.691-2.292s0.916-2.582,2.293-2.692
					c0.438-0.035,0.879-0.054,1.326-0.054c9.374,0,17.001,7.626,17.001,17C203.545,95.86,195.918,103.487,186.544,103.487z"/>
			</g>
		</g>
		<g>
			<g>
				<path d="M149.583,135.687c-20.529,0-37.231-16.702-37.231-37.232V77.771c0-0.784,0.368-1.523,0.994-1.995
					c0.626-0.473,1.44-0.625,2.19-0.409c25.917,7.381,43.873-10.647,48.761-16.351l0,0c0.849-0.991,2.032-1.582,3.333-1.663
					c1.291-0.083,2.592,0.375,3.557,1.252c3.952,3.59,7.841,5.848,11.557,6.709c2.397,0.556,4.072,2.645,4.072,5.081v28.06
					C186.815,118.985,170.113,135.687,149.583,135.687z M117.352,80.979v17.476c0,17.773,14.459,32.232,32.231,32.232
					c17.773,0,32.232-14.459,32.232-32.232v-28.06c0-0.113-0.101-0.187-0.201-0.21c-4.514-1.046-9.107-3.656-13.656-7.758
					C162.6,68.626,144.164,86.86,117.352,80.979z M166.196,60.642h0.01H166.196z"/>
			</g>
		</g>
		<g>
			<g>
				<path d="M112.623,103.487c-9.374,0-17.001-7.626-17.001-17.001c0-4.668,1.958-9.181,5.371-12.381
					c2.03-1.904,4.982-2.41,7.523-1.288c2.331,1.029,4.692,1.887,7.02,2.55c1.328,0.378,2.098,1.761,1.72,3.089
					c-0.377,1.328-1.762,2.099-3.089,1.72c-2.548-0.726-5.129-1.663-7.671-2.785c-0.701-0.309-1.518-0.168-2.083,0.361
					c-2.444,2.292-3.791,5.394-3.791,8.734c0,6.617,5.384,12.001,12.001,12.001c0.402,0,0.82-0.026,1.276-0.081
					c1.375-0.16,2.614,0.818,2.776,2.189s-0.817,2.614-2.188,2.777C113.834,103.449,113.224,103.487,112.623,103.487z"/>
			</g>
		</g>
		<g>
			<g>
				<g>
					<path d="M102.354,78.266c-1.381,0-2.5-1.119-2.5-2.5v-8.011c0-27.421,22.309-49.729,49.729-49.729
						c27.421,0,49.729,22.308,49.729,49.729V75.5c0,1.381-1.119,2.5-2.5,2.5s-2.5-1.119-2.5-2.5v-7.745
						c0-24.664-20.065-44.729-44.729-44.729c-24.663,0-44.729,20.065-44.729,44.729v8.011
						C104.854,77.147,103.735,78.266,102.354,78.266z"/>
				</g>
			</g>
		</g>
		<g>
			<g>
				<path d="M77.482,177.087c-0.031,0-0.063,0-0.095-0.002c-1.38-0.051-2.457-1.211-2.405-2.591l0.025-0.685
					c0.412-7.401,5.487-13.552,12.631-15.35l14.485-3.657c1.337-0.338,2.697,0.473,3.036,1.812c0.338,1.338-0.474,2.698-1.812,3.036
					l-14.487,3.657c-5.013,1.262-8.572,5.575-8.859,10.734l-0.023,0.638C79.929,176.028,78.82,177.087,77.482,177.087z"/>
			</g>
		</g>
		<g>
			<g>
				<path d="M135.583,256H87.645c-1.381,0-2.5-1.119-2.5-2.5s1.119-2.5,2.5-2.5h45.438v-42.269l-2.28-3.526
					c-0.75-1.159-0.419-2.707,0.741-3.457c1.155-0.75,2.707-0.419,3.456,0.741l2.682,4.146c0.262,0.405,0.401,0.876,0.401,1.358
					V253.5C138.083,254.881,136.964,256,135.583,256z"/>
			</g>
		</g>
		<g>
			<g>
				<path d="M220.453,256h-56.87c-1.381,0-2.5-1.119-2.5-2.5s1.119-2.5,2.5-2.5h56.87c0.547,0,0.898-0.286,1.06-0.457
					s0.427-0.538,0.396-1.083l-2.746-75.467c-0.285-5.11-3.845-9.424-8.855-10.685l-14.559-3.675
					c-1.338-0.338-2.149-1.697-1.812-3.036s1.696-2.146,3.036-1.812l14.557,3.674c7.142,1.798,12.217,7.948,12.627,15.303
					l2.746,75.467c0.097,1.716-0.543,3.465-1.758,4.749S222.221,256,220.453,256z"/>
			</g>
		</g>
		<g>
			<g>
				<path d="M129.63,148.796c-0.103,0-0.207-0.006-0.312-0.02c-21.183-2.636-32.605-9.001-37.529-12.561
					c-2.877-2.08-3.749-6.014-2.03-9.149c6.069-11.074,8.96-22.562,10.315-30.249c0.24-1.36,1.537-2.266,2.896-2.028
					c1.359,0.24,2.268,1.537,2.027,2.896c-1.421,8.058-4.458,20.112-10.854,31.784c-0.51,0.93-0.263,2.088,0.575,2.694
					c4.535,3.279,15.142,9.153,35.217,11.651c1.37,0.17,2.343,1.419,2.172,2.79C131.95,147.87,130.873,148.796,129.63,148.796z"/>
			</g>
		</g>
		<g>
			<g>
				<path d="M169.489,148.802c-1.244,0-2.321-0.927-2.479-2.193c-0.17-1.37,0.804-2.619,2.174-2.789
					c20.104-2.494,30.723-8.374,35.264-11.657c0.838-0.606,1.085-1.764,0.575-2.694c-5.087-9.281-8.721-19.87-10.8-31.471
					c-0.243-1.359,0.661-2.658,2.02-2.902c1.356-0.243,2.658,0.661,2.902,2.02c1.955,10.911,5.504,21.268,10.263,29.949
					c1.719,3.136,0.847,7.069-2.03,9.149c-4.93,3.564-16.366,9.935-37.578,12.567C169.695,148.796,169.592,148.802,169.489,148.802z
					"/>
			</g>
		</g>
		<g>
			<g>
				<path d="M149.583,162.918c-9.979,0-19.397-4.429-25.841-12.151c-0.49-0.588-0.685-1.37-0.525-2.12
					c0.158-0.75,0.652-1.385,1.34-1.724l2.016-0.994c2.462-1.214,3.991-3.674,3.991-6.418v-9.719c0-1.381,1.119-2.5,2.5-2.5
					s2.5,1.119,2.5,2.5v9.719c0,4.294-2.204,8.178-5.82,10.375c5.331,5.138,12.404,8.031,19.84,8.031s14.509-2.894,19.84-8.031
					c-3.615-2.198-5.819-6.081-5.819-10.375v-9.699c0-1.381,1.119-2.5,2.5-2.5s2.5,1.119,2.5,2.5v9.699
					c0,2.745,1.529,5.204,3.991,6.418l2.016,0.994c0.688,0.339,1.182,0.975,1.34,1.724c0.159,0.75-0.035,1.531-0.526,2.12
					C168.98,158.49,159.562,162.918,149.583,162.918z"/>
			</g>
		</g>
		<g>
			<g>
				<path d="M197.278,254.761c-1.381,0-2.5-1.119-2.5-2.5v-62.592c0-1.381,1.119-2.5,2.5-2.5s2.5,1.119,2.5,2.5v62.592
					C199.778,253.642,198.659,254.761,197.278,254.761z"/>
			</g>
		</g>
		<g>
			<g>
				<path d="M101.889,254.761c-1.381,0-2.5-1.119-2.5-2.5v-44.719c0-1.381,1.119-2.5,2.5-2.5s2.5,1.119,2.5,2.5v44.719
					C104.389,253.642,103.27,254.761,101.889,254.761z"/>
			</g>
		</g>
		<g>
			<g>
				<path d="M101.889,198.625c-1.381,0-2.5-1.119-2.5-2.5v-6.456c0-1.381,1.119-2.5,2.5-2.5s2.5,1.119,2.5,2.5v6.456
					C104.389,197.506,103.27,198.625,101.889,198.625z"/>
			</g>
		</g>
		<g>
			<g>
				<path d="M87.645,256H34.862c-3.184,0-5.774-2.59-5.774-5.774v-3.897c0-3.184,2.591-5.774,5.774-5.774h52.782
					c3.184,0,5.774,2.59,5.774,5.774v3.897C93.419,253.41,90.828,256,87.645,256z M34.862,245.554c-0.427,0-0.774,0.347-0.774,0.774
					v3.897c0,0.427,0.348,0.774,0.774,0.774h52.782c0.427,0,0.774-0.347,0.774-0.774v-3.897c0-0.427-0.348-0.774-0.774-0.774H34.862
					z"/>
			</g>
		</g>
		<g>
			<g>
				<path d="M77.764,231.23H44.743c-3.13,0-5.774-2.711-5.774-5.921v-3.898c0-3.184,2.591-5.774,5.774-5.774h33.021
					c3.184,0,5.774,2.59,5.774,5.774v3.898C83.538,228.519,80.894,231.23,77.764,231.23z M44.743,220.637
					c-0.427,0-0.774,0.347-0.774,0.774v3.898c0,0.456,0.391,0.921,0.774,0.921h33.021c0.384,0,0.774-0.465,0.774-0.921v-3.898
					c0-0.427-0.348-0.774-0.774-0.774H44.743z"/>
			</g>
		</g>
		<g>
			<g>
				<path d="M77.764,188.123H44.743c-3.184,0-5.774-2.59-5.774-5.774v-3.897c0-3.184,2.591-5.774,5.774-5.774h33.021
					c3.184,0,5.774,2.59,5.774,5.774v3.897C83.538,185.533,80.947,188.123,77.764,188.123z M44.743,177.677
					c-0.427,0-0.774,0.347-0.774,0.774v3.897c0,0.427,0.348,0.774,0.774,0.774h33.021c0.427,0,0.774-0.347,0.774-0.774v-3.897
					c0-0.427-0.348-0.774-0.774-0.774H44.743z"/>
			</g>
		</g>
		<g>
			<g>
				<g>
					<path d="M34.573,245.063c-1.381,0-2.5-1.119-2.5-2.5v-7.87c0-4.587,3.808-8.463,8.315-8.463h41.729
						c4.508,0,8.315,3.876,8.315,8.463v7.775c0,1.381-1.119,2.5-2.5,2.5s-2.5-1.119-2.5-2.5v-7.775c0-1.845-1.549-3.463-3.315-3.463
						H40.389c-1.767,0-3.315,1.618-3.315,3.463v7.87C37.073,243.944,35.954,245.063,34.573,245.063z"/>
				</g>
			</g>
		</g>
		<g>
			<g>
				<g>
					<path d="M77.137,219.625c-1.381,0-2.5-1.119-2.5-2.5v-30.5c0-1.381,1.119-2.5,2.5-2.5s2.5,1.119,2.5,2.5v30.5
						C79.637,218.506,78.518,219.625,77.137,219.625z"/>
				</g>
			</g>
			<g>
				<g>
					<path d="M45.369,219.625c-1.381,0-2.5-1.119-2.5-2.5v-30.687c0-1.381,1.119-2.5,2.5-2.5s2.5,1.119,2.5,2.5v30.687
						C47.869,218.505,46.75,219.625,45.369,219.625z"/>
				</g>
			</g>
		</g>
		<g>
			<g>
				<path d="M127.797,209.603H77.75c-1.381,0-2.5-1.119-2.5-2.5s1.119-2.5,2.5-2.5h50.047c1.501,0,2.723-1.222,2.723-2.723
					s-1.222-2.723-2.723-2.723H77.969c-1.381,0-2.5-1.119-2.5-2.5s1.119-2.5,2.5-2.5h49.828c4.258,0,7.723,3.464,7.723,7.723
					S132.055,209.603,127.797,209.603z"/>
			</g>
		</g>
		<g>
			<g>
				<path d="M149.583,256h-14c-1.381,0-2.5-1.119-2.5-2.5v-44.769l-2.28-3.526c-0.75-1.159-0.419-2.707,0.741-3.457
					c1.155-0.75,2.707-0.419,3.456,0.741l2.682,4.146c0.262,0.405,0.401,0.876,0.401,1.358V251h9v-45.074
					c0-0.87-0.25-1.715-0.722-2.444l-30.466-47.086c-0.74,0.246-1.477,0.46-2.203,0.644l-6.962,1.757l23.488,36.304
					c0.75,1.159,0.419,2.707-0.74,3.457c-1.159,0.748-2.707,0.419-3.457-0.741l-25.384-39.232c-0.438-0.676-0.522-1.523-0.228-2.273
					s0.933-1.312,1.714-1.509l10.346-2.611c1.146-0.289,2.328-0.675,3.516-1.149c1.109-0.443,2.377-0.039,3.025,0.964l31.548,48.759
					c0.997,1.54,1.524,3.325,1.524,5.161V253.5C152.083,254.881,150.964,256,149.583,256z"/>
			</g>
		</g>
		<g>
			<g>
				<path d="M163.583,256h-14c-1.381,0-2.5-1.119-2.5-2.5v-47.698c0-1.836,0.527-3.621,1.524-5.162l31.484-48.66
					c0.649-1.004,1.919-1.408,3.03-0.962c1.208,0.485,2.41,0.879,3.573,1.172l10.278,2.595c0.781,0.197,1.419,0.759,1.714,1.509
					c0.295,0.75,0.211,1.596-0.228,2.272l-32.377,50.04V253.5C166.083,254.881,164.964,256,163.583,256z M152.083,251h9v-43.131
					c0-0.482,0.14-0.954,0.401-1.358l30.883-47.731l-6.895-1.741c-0.746-0.188-1.505-0.41-2.269-0.665l-30.399,46.983
					c-0.472,0.73-0.722,1.575-0.722,2.445V251z"/>
			</g>
		</g>
		<g>
			<g>
				<path class="st7" d="M213.178,104.33c4.498-0.838,8.043-4.31,8.898-8.716c0.043-0.221,0.352-0.221,0.395,0
					c0.855,4.406,4.4,7.879,8.898,8.716c0.226,0.042,0.226,0.345,0,0.387c-4.498,0.838-8.043,4.31-8.898,8.717
					c-0.043,0.221-0.352,0.221-0.395,0c-0.855-4.406-4.4-7.879-8.898-8.717C212.953,104.675,212.953,104.373,213.178,104.33z"/>
			</g>
		</g>
		<g>
			<g>
				<path class="st8" d="M73.485,112.101c2.862-0.533,5.118-2.743,5.663-5.547c0.027-0.141,0.224-0.141,0.251,0
					c0.544,2.804,2.8,5.014,5.663,5.547c0.144,0.027,0.144,0.219,0,0.246c-2.862,0.533-5.118,2.743-5.663,5.547
					c-0.027,0.141-0.224,0.141-0.251,0c-0.544-2.804-2.8-5.014-5.663-5.547C73.341,112.32,73.341,112.128,73.485,112.101z"/>
			</g>
		</g>
		<g>
			<g>
				<path class="st6" d="M99.754,25.75h-2.33v-2.33c0-1.744-1.413-3.157-3.157-3.157c-1.744,0-3.157,1.413-3.157,3.157v2.33H88.78
					c-1.744,0-3.157,1.413-3.157,3.157s1.413,3.157,3.157,3.157h2.329v2.33c0,1.744,1.413,3.157,3.157,3.157
					c1.744,0,3.157-1.413,3.157-3.157v-2.33h2.33c1.744,0,3.157-1.413,3.157-3.157S101.498,25.75,99.754,25.75z"/>
			</g>
		</g>
		<g>
			<g>
				<circle class="st9" cx="233.245" cy="140.825" r="3.377"/>
			</g>
		</g>
		<g>
			<g>
				<circle class="st7" cx="119.245" cy="3.377" r="3.377"/>
			</g>
		</g>
		<g>
			<g>
				<path d="M166.877,178.64c-0.013,0-0.024,0-0.036,0c-2.027-0.028-3.947-0.819-5.406-2.227c-3.332-3.213-8.027-8.296-11.48-14.267
					c-0.691-1.195-0.282-2.725,0.912-3.416c1.197-0.691,2.726-0.283,3.416,0.913c3.162,5.468,7.522,10.181,10.623,13.171
					c0.542,0.522,1.254,0.816,2.006,0.827c1.381,0.02,2.484,1.154,2.465,2.535C169.356,177.544,168.241,178.64,166.877,178.64z"/>
			</g>
		</g>
		<g>
			<g>
				<path d="M116.913,155.864c-0.996,0-1.938-0.599-2.326-1.582c-0.508-1.284,0.122-2.736,1.406-3.244
					c0.736-0.292,1.389-0.578,1.993-0.875l6.57-3.24c1.238-0.611,2.736-0.102,3.348,1.137c0.61,1.238,0.102,2.737-1.137,3.348
					l-6.571,3.24c-0.729,0.359-1.502,0.699-2.365,1.04C117.529,155.808,117.219,155.864,116.913,155.864z"/>
			</g>
		</g>
		<g>
			<g>
				<path d="M132.224,178.634c-0.04,0-0.08,0-0.12-0.001c-1.38-0.02-2.482-1.156-2.463-2.536c0.021-1.368,1.136-2.463,2.499-2.463
					c0.027-0.001,0.055,0,0.082,0c0.767,0,1.489-0.29,2.039-0.82c3.042-2.935,7.332-7.562,10.487-12.937
					c0.699-1.191,2.233-1.588,3.422-0.89c1.19,0.699,1.589,2.231,0.891,3.421c-3.443,5.864-8.062,10.853-11.329,14.004
					C136.244,177.848,134.292,178.634,132.224,178.634z"/>
			</g>
		</g>
		<g>
			<g>
				<path d="M182.19,155.839c-0.308,0-0.621-0.057-0.924-0.178c-0.849-0.338-1.6-0.669-2.296-1.012l-6.571-3.24
					c-1.238-0.61-1.747-2.109-1.137-3.348c0.611-1.238,2.108-1.748,3.348-1.137l6.571,3.24c0.577,0.284,1.21,0.563,1.935,0.852
					c1.283,0.511,1.908,1.965,1.397,3.248C184.124,155.243,183.184,155.839,182.19,155.839z"/>
			</g>
		</g>
	</g>
</g>
<g id="Layer_51">
</g>
<g id="Layer_52">
</g>
<g id="Layer_53">
</g>
<g id="Layer_54">
</g>
<g id="Layer_55">
</g>
<g id="Layer_56">
</g>
<g id="Layer_57">
</g>
<g id="Layer_58">
</g>
<g id="Layer_59">
</g>
<g id="Layer_60">
</g>
<g id="Layer_61">
</g>
<g id="Layer_62">
</g>
<g id="Layer_63">
</g>
<g id="Layer_64">
</g>
<g id="Layer_65">
</g>
<g id="Layer_66">
</g>
<g id="Layer_67">
</g>
<g id="Layer_68">
</g>
<g id="Layer_69">
</g>
<g id="Layer_70">
</g>
<g id="Layer_71">
</g>
<g id="Layer_72">
</g>
<g id="Layer_73">
</g>
<g id="Layer_74">
</g>
<g id="Layer_75">
</g>
<g id="Layer_76">
</g>
<g id="Layer_77">
</g>
<g id="Layer_78">
</g>
<g id="Layer_79">
</g>
<g id="Layer_80">
</g>
</svg>
