<?xml version="1.0" encoding="utf-8"?>
<!-- Generator: Adobe Illustrator 24.0.0, SVG Export Plug-In . SVG Version: 6.00 Build 0)  -->
<svg version="1.1" xmlns="http://www.w3.org/2000/svg" xmlns:xlink="http://www.w3.org/1999/xlink" x="0px" y="0px"
	 viewBox="0 0 256 256" style="enable-background:new 0 0 256 256;" xml:space="preserve">
<style type="text/css">
	.st0{fill:#3A70BF;}
	.st1{fill:#EDF4FC;}
	.st2{fill:#C7D7E5;}
	.st3{fill:#F9D0B4;}
	.st4{fill:#5B5D60;}
	.st5{fill:#5290DB;}
	.st6{fill:#70D6F9;}
	.st7{fill:#F5C84C;}
	.st8{fill:#FC657E;}
	.st9{fill:#87D147;}
	.st10{fill:#FCDD86;}
	.st11{fill:#9BE5F9;}
	.st12{fill:#B2E26D;}
	.st13{fill:#754E34;}
	.st14{fill:#FCA265;}
	.st15{fill:#818182;}
	.st16{fill:#F94EED;}
	.st17{fill:#FFC197;}
	.st18{fill:#3CAADC;}
	.st19{fill:#DAE6F1;}
	.st20{fill:#57AF12;}
	.st21{fill:#EF4460;}
	.st22{fill:#FFF0CA;}
	.st23{fill:#F98FA6;}
	.st24{fill:#EDB311;}
	.st25{fill:#FC8C48;}
	.st26{fill:#FCB9CB;}
	.st27{fill:#96BC71;}
	.st28{fill:#78A352;}
	.st29{fill:#B8DD90;}
	.st30{fill:#6FAFEF;}
	.st31{fill:#29589F;}
	.st32{fill:#414344;}
	.st33{fill:#9B6B4B;}
	.st34{fill:#73B1EF;}
</style>
<g id="Layer_1">
</g>
<g id="Layer_2">
</g>
<g id="Layer_3">
</g>
<g id="Layer_4">
</g>
<g id="Layer_5">
</g>
<g id="Layer_6">
</g>
<g id="Layer_7">
</g>
<g id="Layer_8">
</g>
<g id="Layer_9">
</g>
<g id="Layer_10">
</g>
<g id="Layer_11">
</g>
<g id="Layer_12">
</g>
<g id="Layer_13">
</g>
<g id="Layer_14">
</g>
<g id="Layer_15">
</g>
<g id="Layer_16">
</g>
<g id="Layer_17">
</g>
<g id="Layer_18">
</g>
<g id="Layer_19">
</g>
<g id="Layer_20">
</g>
<g id="Layer_21">
</g>
<g id="Layer_22">
</g>
<g id="Layer_23">
</g>
<g id="Layer_24">
</g>
<g id="Layer_25">
</g>
<g id="Layer_26">
</g>
<g id="Layer_27">
</g>
<g id="Layer_28">
</g>
<g id="Layer_29">
</g>
<g id="Layer_30">
</g>
<g id="Layer_31">
</g>
<g id="Layer_32">
</g>
<g id="Layer_33">
</g>
<g id="Layer_34">
</g>
<g id="Layer_35">
</g>
<g id="Layer_36">
</g>
<g id="Layer_37">
</g>
<g id="Layer_38">
</g>
<g id="Layer_39">
</g>
<g id="Layer_40">
</g>
<g id="Layer_41">
</g>
<g id="Layer_42">
</g>
<g id="Layer_43">
</g>
<g id="Layer_44">
</g>
<g id="Layer_45">
</g>
<g id="Layer_46">
</g>
<g id="Layer_47">
</g>
<g id="Layer_48">
</g>
<g id="Layer_49">
	<g>
		<g>
			<g>
				<path class="st19" d="M146.811,202.124c0.733,1.133,1.123,2.454,1.123,3.803v-0.124c0-1.349,0.39-2.67,1.123-3.803
					l29.889-46.195l-0.119-0.059c-0.022,0.031-0.039,0.064-0.063,0.094l-15.054,18.224c-0.879,1.064-2.495,1.109-3.431,0.094
					l-4.373-4.737c-1.76,2.513-4.67,4.161-7.971,4.161s-6.211-1.647-7.971-4.161l-4.373,4.737c-0.936,1.014-2.552,0.97-3.431-0.094
					l-15.054-18.224c-0.025-0.03-0.041-0.063-0.063-0.094l-0.18,0.089L146.811,202.124z"/>
			</g>
		</g>
		<g>
			<g>
				<path class="st4" d="M130.727,203.036c-0.528,2.326-2.599,4.067-5.085,4.067H74.983v11.034l0.626,0
					c1.808,0,3.274,1.466,3.274,3.274v3.898c0,1.808-1.466,3.421-3.274,3.421h4.354c3.199,0,5.816,2.764,5.816,5.963v8.39
					c-0.097-0.009-0.19-0.029-0.29-0.029c1.808,0,3.274,1.466,3.274,3.274v3.898c0,1.808-1.466,3.274-3.274,3.274h48.444v-45.507
					L130.727,203.036z"/>
			</g>
		</g>
		<g>
			<g>
				<path class="st4" d="M222.445,178.239c-0.357-6.417-4.846-11.856-11.078-13.425l-18.554-4.67l-30.879,47.725V253.5h60.549
					c2.344,0,4.207-1.969,4.076-4.31L222.445,178.239z"/>
			</g>
		</g>
		<g>
			<g>
				<path class="st4" d="M102.986,160.162l-18.484,4.652c-5.21,1.312-9.191,5.332-10.569,10.363h1.677
					c1.808,0,3.274,1.466,3.274,3.274v3.897c0,1.808-1.466,3.274-3.274,3.274h-0.626v11.034h50.659c0.351,0,0.692,0.037,1.024,0.103
					L102.986,160.162z"/>
			</g>
		</g>
		<g>
			<g>
				<path d="M133.934,256H85.49c-1.381,0-2.5-1.119-2.5-2.5s1.119-2.5,2.5-2.5h48.443c1.381,0,2.5,1.119,2.5,2.5
					S135.314,256,133.934,256z"/>
			</g>
		</g>
		<g>
			<g>
				<path d="M222.483,256h-60.55c-1.381,0-2.5-1.119-2.5-2.5s1.119-2.5,2.5-2.5h60.55c0.439,0,0.848-0.176,1.149-0.495
					c0.302-0.32,0.455-0.737,0.431-1.176l-4.114-70.946c-0.298-5.359-3.993-9.836-9.193-11.145l-18.554-4.67
					c-1.339-0.337-2.151-1.696-1.814-3.035c0.338-1.339,1.694-2.152,3.035-1.814l18.554,4.67c7.334,1.846,12.544,8.159,12.965,15.71
					l4.114,70.946c0.1,1.805-0.553,3.587-1.791,4.896C226.027,255.25,224.284,256,222.483,256z"/>
			</g>
		</g>
		<g>
			<g>
				<path d="M74.05,177.276c-0.241,0-0.486-0.035-0.729-0.109c-1.321-0.402-2.065-1.799-1.663-3.12
					c1.746-5.73,6.435-10.197,12.234-11.657l18.484-4.652c1.341-0.34,2.697,0.476,3.035,1.814c0.337,1.339-0.476,2.698-1.814,3.035
					l-18.484,4.652c-4.111,1.035-7.434,4.202-8.672,8.266C76.112,176.582,75.121,177.276,74.05,177.276z"/>
			</g>
		</g>
		<g>
			<g>
				<path class="st3" d="M179.292,57.412c-2.433-2.552-6.39-2.787-9.164-0.61c-4.386,3.443-11.975,7.698-22.693,7.698
					c-10.745,0-18.374-4.276-22.778-7.723c-2.771-2.169-6.72-1.926-9.149,0.621l-0.013,0.013c-3.413,3.579-5.316,8.334-5.316,13.279
					v31.233c0,20.468,16.747,37.215,37.215,37.215h0c20.468,0,37.215-16.747,37.215-37.215V70.691
					C184.608,65.746,182.704,60.99,179.292,57.412z"/>
			</g>
		</g>
		<g>
			<g>
				<path class="st3" d="M186.996,73.561c-0.813,0-1.609,0.069-2.388,0.189c0,3.96,0,22.286,0,28.173
					c0,0.839-0.038,1.67-0.094,2.496c0.81,0.13,1.635,0.217,2.482,0.217c8.581,0,15.537-6.956,15.537-15.537
					S195.577,73.561,186.996,73.561z"/>
			</g>
		</g>
		<g>
			<g>
				<path class="st3" d="M110.178,101.923c0-3.856,0-20.507,0-28.173c-0.779-0.121-1.575-0.189-2.388-0.189
					c-8.581,0-15.538,6.957-15.538,15.538s6.956,15.537,15.538,15.537c0.847,0,1.672-0.086,2.482-0.217v-0.001
					C110.216,103.593,110.178,102.762,110.178,101.923z"/>
			</g>
		</g>
		<g>
			<g>
				<path class="st2" d="M184.469,41.816c-1.246,0-2.327-0.961-2.344-2.207c-0.285-20.737-23.966-24.633-47.549-20.56
					c-19.994,3.453-34.608,20.791-34.608,41.081v15.559c2.299-1.344,4.966-2.128,7.821-2.128c0.813,0,1.609,0.068,2.388,0.189
					v-3.059c0-4.945,1.904-9.7,5.316-13.279l0.013-0.013c2.429-2.547,6.377-2.79,9.149-0.621c4.404,3.447,12.034,7.723,22.778,7.723
					c10.719,0,18.308-4.255,22.693-7.698c2.774-2.177,6.73-1.943,9.164,0.61c3.413,3.579,5.316,8.334,5.316,13.279v3.059
					c0.779-0.121,1.575-0.189,2.388-0.189c2.89,0,5.586,0.803,7.903,2.178c0-4.342,0-8.802,0-12.775
					C194.9,44.395,188.194,41.816,184.469,41.816z"/>
			</g>
		</g>
		<g>
			<g>
				<g>
					<path class="st8" d="M152.121,165.321c-0.376-0.408-0.562-0.926-0.561-1.443v0c-1.371,0.155-2.756,0.26-4.167,0.26h0
						c-1.043,0-2.072-0.058-3.094-0.143c-0.025,0.478-0.203,0.949-0.551,1.326l-3.784,4.1c1.76,2.513,4.67,4.161,7.971,4.161
						s6.211-1.647,7.971-4.161L152.121,165.321z"/>
				</g>
			</g>
		</g>
		<g>
			<g>
				<path class="st1" d="M178.582,153.265l-8.134-7.427c-0.753-0.687-1.917-0.646-2.619,0.092l-15.687,16.491
					c-0.77,0.81-0.78,2.078-0.022,2.899l8.157,8.837c0.936,1.014,2.552,0.97,3.431-0.094l15.054-18.223
					C179.399,155.071,179.319,153.938,178.582,153.265z"/>
			</g>
		</g>
		<g>
			<g>
				<path class="st1" d="M117.286,153.265l8.134-7.427c0.753-0.687,1.917-0.646,2.619,0.092l15.687,16.491
					c0.77,0.81,0.78,2.078,0.022,2.899l-8.157,8.837c-0.936,1.014-2.552,0.97-3.431-0.094l-15.054-18.223
					C116.469,155.071,116.549,153.938,117.286,153.265z"/>
			</g>
		</g>
		<g>
			<g>
				<path class="st3" d="M143.726,162.422c0.417,0.438,0.603,1.01,0.573,1.573c1.022,0.085,2.051,0.143,3.094,0.143h0
					c1.411,0,2.796-0.104,4.167-0.26l0,0c0,0.001,0,0.003,0,0.004c0-0.526,0.194-1.052,0.583-1.461l14.525-15.27
					c-1.021-1.86-1.589-3.976-1.589-6.18v-6.335c-5.268,2.868-11.296,4.501-17.686,4.501h0c-5.959,0-11.597-1.427-16.604-3.945
					v5.778c0,2.204-0.568,4.32-1.589,6.18L143.726,162.422z"/>
			</g>
		</g>
		<g>
			<g>
				<path class="st15" d="M146.811,202.124l-29.95-46.289l-3.458,1.705l-10.417,2.622l23.68,36.598
					c2.394,0.476,4.199,2.586,4.199,5.12c0,0.399-0.054,0.783-0.138,1.156l3.207,4.957V253.5h14v-47.574
					C147.934,204.577,147.544,203.256,146.811,202.124z"/>
			</g>
		</g>
		<g>
			<g>
				<path class="st8" d="M146.811,202.124c0.733,1.133,1.123,2.454,1.123,3.803v-0.124c0-1.349,0.39-2.67,1.123-3.803l6.062-9.37
					l-2.164-20.455c-1.467,0.886-3.181,1.406-5.021,1.406s-3.553-0.52-5.021-1.406l-2.176,20.561L146.811,202.124z"/>
			</g>
		</g>
		<g>
			<g>
				<path class="st15" d="M147.934,205.802V253.5h14v-45.631l30.879-47.725l-10.348-2.604l-3.519-1.735L149.057,202
					C148.324,203.132,147.934,204.453,147.934,205.802z"/>
			</g>
		</g>
		<g>
			<g>
				<path class="st7" d="M85.49,243.054H32.708c-1.808,0-3.274,1.466-3.274,3.274v3.898c0,1.808,1.466,3.274,3.274,3.274H85.49
					c1.808,0,3.274-1.466,3.274-3.274v-3.898C88.764,244.52,87.298,243.054,85.49,243.054z"/>
			</g>
		</g>
		<g>
			<g>
				<path class="st13" d="M75.609,218.137h-33.02c-1.808,0-3.274,1.466-3.274,3.274v3.898c0,1.808,1.466,3.421,3.274,3.421h33.02
					c1.808,0,3.274-1.613,3.274-3.421v-3.898C78.884,219.603,77.418,218.137,75.609,218.137z"/>
			</g>
		</g>
		<g>
			<g>
				<path class="st13" d="M75.609,175.177h-33.02c-1.808,0-3.274,1.466-3.274,3.274v3.898c0,1.808,1.466,3.274,3.274,3.274h33.02
					c1.808,0,3.274-1.466,3.274-3.274v-3.898C78.884,176.643,77.418,175.177,75.609,175.177z"/>
			</g>
		</g>
		<g>
			<g>
				<g>
					<path class="st33" d="M32.708,243.054H85.49c0.099,0,0.193,0.021,0.29,0.029v-8.39c0-3.199-2.617-5.963-5.816-5.963H38.235
						c-3.199,0-5.816,2.764-5.816,5.963v8.39C32.516,243.074,32.609,243.054,32.708,243.054z"/>
				</g>
			</g>
		</g>
		<g>
			<g>
				<g>
					<rect x="43.215" y="185.623" class="st33" width="31.768" height="32.514"/>
				</g>
			</g>
		</g>
		<g>
			<g>
				<path class="st13" d="M125.642,196.657H74.983v10.446h50.659c2.885,0,5.223-2.338,5.223-5.223S128.527,196.657,125.642,196.657z
					"/>
			</g>
		</g>
		<g>
			<g>
				<path d="M147.393,141.638c-21.898,0-39.715-17.816-39.715-39.715V70.69c0-5.613,2.134-10.941,6.007-15.004
					c3.328-3.49,8.7-3.861,12.513-0.878C130.389,58.089,137.476,62,147.435,62c9.937,0,16.985-3.896,21.149-7.165
					c3.818-2.996,9.199-2.629,12.518,0.851l0,0c3.873,4.063,6.007,9.391,6.007,15.004v31.233
					C187.108,123.822,169.292,141.638,147.393,141.638z M120.404,57.802c-1.134,0-2.254,0.446-3.088,1.321
					c-2.996,3.142-4.639,7.245-4.639,11.567v31.233c0,19.142,15.573,34.715,34.715,34.715c19.143,0,34.716-15.573,34.716-34.715
					V70.69c0-4.322-1.643-8.425-4.626-11.554c-1.532-1.607-4.029-1.766-5.811-0.368C166.888,62.524,158.799,67,147.435,67
					c-11.384,0-19.508-4.489-24.319-8.254C122.308,58.113,121.352,57.802,120.404,57.802z"/>
			</g>
		</g>
		<g>
			<g>
				<path d="M186.996,107.136c-0.521,0-1.047-0.027-1.608-0.082c-1.374-0.135-2.379-1.357-2.245-2.731
					c0.135-1.374,1.345-2.373,2.731-2.245c0.369,0.036,0.743,0.058,1.122,0.058c7.188,0,13.037-5.849,13.037-13.038
					s-5.849-13.038-13.037-13.038c-0.429,0-0.873,0.024-1.321,0.07c-1.38,0.15-2.603-0.854-2.746-2.227
					c-0.144-1.373,0.854-2.603,2.227-2.746c0.62-0.065,1.239-0.098,1.841-0.098c9.945,0,18.037,8.092,18.037,18.038
					S196.941,107.136,186.996,107.136z"/>
			</g>
		</g>
		<g>
			<g>
				<path d="M107.79,107.136c-9.946,0-18.038-8.092-18.038-18.038s8.092-18.038,18.038-18.038c0.72,0,1.459,0.047,2.199,0.139
					c1.37,0.17,2.343,1.419,2.172,2.79c-0.17,1.37-1.416,2.347-2.789,2.172c-0.536-0.067-1.068-0.101-1.582-0.101
					c-7.189,0-13.038,5.849-13.038,13.038s5.849,13.038,13.038,13.038c0.413,0,0.842-0.025,1.312-0.078
					c1.374-0.155,2.608,0.833,2.763,2.206s-0.834,2.609-2.206,2.763C109.003,107.1,108.392,107.136,107.79,107.136z"/>
			</g>
		</g>
		<g>
			<g>
				<path d="M147.935,118.573c-4.777,0-9.263-1.95-11.999-5.215c-0.887-1.059-0.748-2.635,0.311-3.522
					c1.058-0.887,2.636-0.747,3.521,0.31c1.798,2.146,4.852,3.427,8.167,3.427s6.368-1.281,8.166-3.426
					c0.888-1.058,2.465-1.196,3.521-0.31c1.059,0.887,1.197,2.464,0.311,3.522C157.196,116.624,152.711,118.573,147.935,118.573z"/>
			</g>
		</g>
		<g>
			<g>
				<circle cx="164.724" cy="90.816" r="5"/>
			</g>
		</g>
		<g>
			<g>
				<circle cx="131.145" cy="90.816" r="5"/>
			</g>
		</g>
		<g>
			<g>
				<path d="M194.899,77.417c-1.381,0-2.5-1.119-2.5-2.5V62.963c0-11.851-2.891-18.647-7.931-18.647
					c-2.635,0-4.808-2.096-4.844-4.672c-0.076-5.592-2.07-10.051-5.927-13.252c-7.324-6.083-21.43-7.861-38.696-4.88
					c-18.852,3.255-32.533,19.497-32.533,38.618v14.746c0,1.381-1.119,2.5-2.5,2.5s-2.5-1.119-2.5-2.5V60.129
					c0-21.562,15.427-39.875,36.682-43.545c18.714-3.232,34.29-1.059,42.742,5.96c4.972,4.129,7.571,9.771,7.728,16.772
					c4.845,0.064,12.779,3.285,12.779,23.646v11.954C197.399,76.298,196.28,77.417,194.899,77.417z"/>
			</g>
		</g>
		<g>
			<g>
				<path d="M199.479,255.04c-1.381,0-2.5-1.119-2.5-2.5v-56.644c0-1.381,1.119-2.5,2.5-2.5s2.5,1.119,2.5,2.5v56.644
					C201.979,253.92,200.859,255.04,199.479,255.04z"/>
			</g>
		</g>
		<g>
			<g>
				<path d="M96.39,255.04c-1.381,0-2.5-1.119-2.5-2.5V207.5c0-1.381,1.119-2.5,2.5-2.5s2.5,1.119,2.5,2.5v45.04
					C98.89,253.92,97.771,255.04,96.39,255.04z"/>
			</g>
		</g>
		<g>
			<g>
				<g>
					<path d="M147.935,176.081c-3.48,0-6.807-1.494-9.126-4.098c-0.918-1.031-0.826-2.611,0.204-3.53
						c1.031-0.917,2.611-0.828,3.53,0.205c1.371,1.54,3.336,2.423,5.392,2.423c2.149,0,4.175-0.953,5.555-2.613
						c0.886-1.063,2.459-1.205,3.521-0.324c1.062,0.883,1.206,2.459,0.324,3.521C155.001,174.471,151.574,176.081,147.935,176.081z"
						/>
				</g>
			</g>
		</g>
		<g>
			<g>
				<path d="M133.916,177.391c-0.044,0-0.088,0-0.132-0.002c-1.379-0.038-2.674-0.67-3.553-1.734l-15.055-18.223
					c-1.486-1.798-1.3-4.439,0.424-6.013l8.134-7.427c1.741-1.592,4.486-1.497,6.115,0.214l15.688,16.492
					c1.673,1.759,1.693,4.534,0.047,6.318l-8.156,8.837C136.521,176.835,135.248,177.391,133.916,177.391z M119.413,154.708
					l14.513,17.568l7.743-8.39l-15.018-15.788L119.413,154.708z M117.286,153.265h0.01H117.286z"/>
			</g>
		</g>
		<g>
			<g>
				<path d="M147.393,166.638c-0.85,0-1.743-0.035-2.731-0.107c-1.377-0.1-2.412-1.298-2.312-2.675
					c0.101-1.377,1.317-2.413,2.675-2.311c0.866,0.063,1.641,0.094,2.368,0.094c1.021,0,2.108-0.06,3.325-0.184
					c1.366-0.144,2.6,0.861,2.739,2.235s-0.861,2.6-2.235,2.74C149.836,166.57,148.583,166.638,147.393,166.638z"/>
			</g>
		</g>
		<g>
			<g>
				<path d="M129.308,149.451c-0.393,0-0.79-0.093-1.162-0.288c-1.222-0.643-1.691-2.154-1.049-3.376
					c0.78-1.483,1.192-3.148,1.192-4.814v-5.191c0-1.381,1.119-2.5,2.5-2.5s2.5,1.119,2.5,2.5v5.191
					c0,2.474-0.611,4.944-1.767,7.142C131.075,148.964,130.206,149.451,129.308,149.451z"/>
			</g>
		</g>
		<g>
			<g>
				<path d="M166.3,148.927c-0.939,0-1.84-0.532-2.266-1.438c-0.966-2.058-1.455-4.25-1.455-6.516v-5.389c0-1.381,1.119-2.5,2.5-2.5
					s2.5,1.119,2.5,2.5v5.389c0,1.526,0.33,3.003,0.982,4.392c0.586,1.25,0.048,2.739-1.201,3.325
					C167.017,148.851,166.655,148.927,166.3,148.927z"/>
			</g>
		</g>
		<g>
			<g>
				<path d="M85.49,256H32.708c-3.184,0-5.773-2.59-5.773-5.774v-3.897c0-3.184,2.59-5.774,5.773-5.774H85.49
					c3.184,0,5.774,2.59,5.774,5.774v3.897C91.265,253.41,88.674,256,85.49,256z M32.708,245.554c-0.427,0-0.773,0.347-0.773,0.774
					v3.897c0,0.427,0.347,0.774,0.773,0.774H85.49c0.427,0,0.774-0.347,0.774-0.774v-3.897c0-0.427-0.348-0.774-0.774-0.774H32.708z
					"/>
			</g>
		</g>
		<g>
			<g>
				<path d="M75.609,231.23H42.589c-3.13,0-5.774-2.711-5.774-5.921v-3.898c0-3.184,2.591-5.774,5.774-5.774h33.021
					c3.184,0,5.774,2.59,5.774,5.774v3.898C81.384,228.519,78.739,231.23,75.609,231.23z M42.589,220.637
					c-0.427,0-0.774,0.347-0.774,0.774v3.898c0,0.456,0.391,0.921,0.774,0.921h33.021c0.384,0,0.774-0.465,0.774-0.921v-3.898
					c0-0.427-0.348-0.774-0.774-0.774H42.589z"/>
			</g>
		</g>
		<g>
			<g>
				<path d="M75.609,188.123H42.589c-3.184,0-5.774-2.59-5.774-5.774v-3.897c0-3.184,2.591-5.774,5.774-5.774h33.021
					c3.184,0,5.774,2.59,5.774,5.774v3.897C81.384,185.533,78.793,188.123,75.609,188.123z M42.589,177.677
					c-0.427,0-0.774,0.347-0.774,0.774v3.897c0,0.427,0.348,0.774,0.774,0.774h33.021c0.427,0,0.774-0.347,0.774-0.774v-3.897
					c0-0.427-0.348-0.774-0.774-0.774H42.589z"/>
			</g>
		</g>
		<g>
			<g>
				<g>
					<path d="M32.419,244.875c-1.381,0-2.5-1.119-2.5-2.5v-7.682c0-4.587,3.809-8.463,8.316-8.463h41.729
						c4.508,0,8.315,3.876,8.315,8.463v7.599c0,1.381-1.119,2.5-2.5,2.5s-2.5-1.119-2.5-2.5v-7.599c0-1.845-1.549-3.463-3.315-3.463
						H38.235c-1.767,0-3.316,1.618-3.316,3.463v7.682C34.919,243.756,33.8,244.875,32.419,244.875z"/>
				</g>
			</g>
		</g>
		<g>
			<g>
				<g>
					<path d="M74.983,220.063c-1.381,0-2.5-1.119-2.5-2.5v-31.407c0-1.381,1.119-2.5,2.5-2.5s2.5,1.119,2.5,2.5v31.407
						C77.483,218.944,76.364,220.063,74.983,220.063z"/>
				</g>
			</g>
			<g>
				<g>
					<path d="M43.216,219.833c-1.381,0-2.5-1.119-2.5-2.5v-30.896c0-1.381,1.119-2.5,2.5-2.5s2.5,1.119,2.5,2.5v30.896
						C45.716,218.714,44.597,219.833,43.216,219.833z"/>
				</g>
			</g>
		</g>
		<g>
			<g>
				<path d="M125.643,209.603H75.75c-1.381,0-2.5-1.119-2.5-2.5s1.119-2.5,2.5-2.5h49.893c1.501,0,2.723-1.222,2.723-2.723
					s-1.222-2.723-2.723-2.723H75.917c-1.381,0-2.5-1.119-2.5-2.5s1.119-2.5,2.5-2.5h49.726c4.258,0,7.723,3.464,7.723,7.723
					S129.9,209.603,125.643,209.603z"/>
			</g>
		</g>
		<g>
			<g>
				<path d="M147.935,256h-14c-1.381,0-2.5-1.119-2.5-2.5v-44.769l-2.668-4.124c-0.75-1.159-0.419-2.707,0.74-3.457
					c1.157-0.75,2.706-0.42,3.457,0.741l3.069,4.744c0.262,0.404,0.401,0.876,0.401,1.358V251h9v-45.074
					c0-0.87-0.25-1.715-0.722-2.444l-28.742-44.422l-1.462,0.721c-0.158,0.078-0.324,0.139-0.495,0.182l-7.032,1.77l21.525,33.27
					c0.75,1.159,0.419,2.707-0.74,3.457c-1.159,0.749-2.707,0.419-3.457-0.741l-23.422-36.2c-0.438-0.677-0.522-1.523-0.228-2.273
					c0.295-0.75,0.935-1.312,1.716-1.509l10.16-2.557l3.22-1.588c1.137-0.563,2.515-0.181,3.204,0.884l29.95,46.289
					c0.997,1.54,1.524,3.325,1.524,5.161V253.5C150.435,254.881,149.315,256,147.935,256z"/>
			</g>
		</g>
		<g>
			<g>
				<path d="M155.089,194.87c-1.263,0-2.348-0.953-2.483-2.237l-2.078-19.643c-0.146-1.373,0.851-2.604,2.224-2.75
					c1.367-0.142,2.604,0.85,2.749,2.223l2.078,19.643c0.146,1.373-0.851,2.604-2.224,2.75
					C155.266,194.866,155.177,194.87,155.089,194.87z"/>
			</g>
		</g>
		<g>
			<g>
				<path d="M140.771,194.956c-0.088,0-0.177-0.004-0.266-0.014c-1.373-0.146-2.369-1.376-2.224-2.75l2.081-19.667
					c0.146-1.373,1.384-2.366,2.749-2.223c1.373,0.146,2.369,1.376,2.224,2.75l-2.081,19.667
					C143.118,194.002,142.033,194.956,140.771,194.956z"/>
			</g>
		</g>
		<g>
			<g>
				<path d="M161.935,256h-14c-1.381,0-2.5-1.119-2.5-2.5v-47.698c0-1.836,0.527-3.621,1.524-5.162l29.889-46.194
					c0.688-1.065,2.065-1.447,3.204-0.884l3.28,1.618l10.091,2.54c0.781,0.197,1.421,0.758,1.716,1.509
					c0.295,0.75,0.211,1.597-0.228,2.273l-30.477,47.105V253.5C164.435,254.881,163.315,256,161.935,256z M150.435,251h9v-43.131
					c0-0.482,0.14-0.954,0.401-1.358l28.981-44.795l-6.963-1.752c-0.171-0.043-0.337-0.104-0.495-0.182l-1.523-0.751l-28.68,44.327
					c-0.472,0.73-0.722,1.575-0.722,2.445V251z"/>
			</g>
		</g>
		<g>
			<g>
				<path class="st7" d="M216.822,28.33c-4.498-0.838-8.043-4.31-8.898-8.716c-0.043-0.221-0.352-0.221-0.395,0
					c-0.855,4.406-4.4,7.879-8.898,8.716c-0.226,0.042-0.226,0.345,0,0.387c4.498,0.838,8.043,4.31,8.898,8.717
					c0.043,0.221,0.352,0.221,0.395,0c0.855-4.406,4.4-7.879,8.898-8.717C217.047,28.675,217.047,28.373,216.822,28.33z"/>
			</g>
		</g>
		<g>
			<g>
				<path class="st9" d="M215.515,112.101c-2.862-0.533-5.118-2.743-5.663-5.547c-0.027-0.141-0.224-0.141-0.251,0
					c-0.544,2.804-2.8,5.014-5.663,5.547c-0.144,0.027-0.144,0.219,0,0.246c2.862,0.533,5.118,2.743,5.663,5.547
					c0.027,0.141,0.224,0.141,0.251,0c0.544-2.804,2.8-5.014,5.663-5.547C215.658,112.32,215.658,112.128,215.515,112.101z"/>
			</g>
		</g>
		<g>
			<g>
				<path class="st6" d="M76.246,120.75h2.33v-2.33c0-1.744,1.413-3.157,3.157-3.157c1.744,0,3.157,1.413,3.157,3.157v2.33h2.329
					c1.744,0,3.157,1.413,3.157,3.157s-1.413,3.157-3.157,3.157h-2.329v2.33c0,1.744-1.413,3.157-3.157,3.157
					c-1.744,0-3.157-1.413-3.157-3.157v-2.33h-2.33c-1.744,0-3.157-1.413-3.157-3.157S74.502,120.75,76.246,120.75z"/>
			</g>
		</g>
		<g>
			<g>
				<circle class="st7" cx="66.755" cy="152.825" r="3.377"/>
			</g>
		</g>
		<g>
			<g>
				<circle class="st8" cx="190.755" cy="3.377" r="3.377"/>
			</g>
		</g>
		<g>
			<g>
				<path d="M161.952,177.391c-1.332,0-2.606-0.556-3.512-1.539l-8.156-8.835c-1.646-1.785-1.626-4.56,0.047-6.318l15.687-16.491
					c1.63-1.71,4.373-1.808,6.117-0.215l8.133,7.426c1.724,1.574,1.91,4.215,0.423,6.014l-15.054,18.223
					c-0.879,1.064-2.174,1.696-3.554,1.733C162.039,177.391,161.995,177.391,161.952,177.391z M154.199,163.887l7.744,8.389
					l14.512-17.567l-7.238-6.609L154.199,163.887z M176.896,155.111C176.896,155.111,176.896,155.111,176.896,155.111
					L176.896,155.111L176.896,155.111z"/>
			</g>
		</g>
	</g>
</g>
<g id="Layer_50">
</g>
<g id="Layer_51">
</g>
<g id="Layer_52">
</g>
<g id="Layer_53">
</g>
<g id="Layer_54">
</g>
<g id="Layer_55">
</g>
<g id="Layer_56">
</g>
<g id="Layer_57">
</g>
<g id="Layer_58">
</g>
<g id="Layer_59">
</g>
<g id="Layer_60">
</g>
<g id="Layer_61">
</g>
<g id="Layer_62">
</g>
<g id="Layer_63">
</g>
<g id="Layer_64">
</g>
<g id="Layer_65">
</g>
<g id="Layer_66">
</g>
<g id="Layer_67">
</g>
<g id="Layer_68">
</g>
<g id="Layer_69">
</g>
<g id="Layer_70">
</g>
<g id="Layer_71">
</g>
<g id="Layer_72">
</g>
<g id="Layer_73">
</g>
<g id="Layer_74">
</g>
<g id="Layer_75">
</g>
<g id="Layer_76">
</g>
<g id="Layer_77">
</g>
<g id="Layer_78">
</g>
<g id="Layer_79">
</g>
<g id="Layer_80">
</g>
</svg>
