<?xml version="1.0" encoding="utf-8"?>
<!-- Generator: Adobe Illustrator 24.0.0, SVG Export Plug-In . SVG Version: 6.00 Build 0)  -->
<svg version="1.1" xmlns="http://www.w3.org/2000/svg" xmlns:xlink="http://www.w3.org/1999/xlink" x="0px" y="0px"
	 viewBox="0 0 256 256" style="enable-background:new 0 0 256 256;" xml:space="preserve">
<style type="text/css">
	.st0{fill:#3A70BF;}
	.st1{fill:#EDF4FC;}
	.st2{fill:#C7D7E5;}
	.st3{fill:#F9D0B4;}
	.st4{fill:#5B5D60;}
	.st5{fill:#5290DB;}
	.st6{fill:#70D6F9;}
	.st7{fill:#F5C84C;}
	.st8{fill:#FC657E;}
	.st9{fill:#87D147;}
	.st10{fill:#FCDD86;}
	.st11{fill:#9BE5F9;}
	.st12{fill:#B2E26D;}
	.st13{fill:#754E34;}
	.st14{fill:#FCA265;}
	.st15{fill:#818182;}
	.st16{fill:#F94EED;}
	.st17{fill:#FFC197;}
	.st18{fill:#3CAADC;}
	.st19{fill:#DAE6F1;}
	.st20{fill:#57AF12;}
	.st21{fill:#EF4460;}
	.st22{fill:#FFF0CA;}
	.st23{fill:#F98FA6;}
	.st24{fill:#EDB311;}
	.st25{fill:#FC8C48;}
	.st26{fill:#FCB9CB;}
	.st27{fill:#96BC71;}
	.st28{fill:#78A352;}
	.st29{fill:#B8DD90;}
	.st30{fill:#6FAFEF;}
	.st31{fill:#29589F;}
	.st32{fill:#414344;}
	.st33{fill:#9B6B4B;}
	.st34{fill:#73B1EF;}
</style>
<g id="Layer_1">
</g>
<g id="Layer_2">
</g>
<g id="Layer_3">
</g>
<g id="Layer_4">
</g>
<g id="Layer_5">
</g>
<g id="Layer_6">
</g>
<g id="Layer_7">
</g>
<g id="Layer_8">
</g>
<g id="Layer_9">
</g>
<g id="Layer_10">
</g>
<g id="Layer_11">
</g>
<g id="Layer_12">
</g>
<g id="Layer_13">
</g>
<g id="Layer_14">
</g>
<g id="Layer_15">
</g>
<g id="Layer_16">
</g>
<g id="Layer_17">
</g>
<g id="Layer_18">
</g>
<g id="Layer_19">
</g>
<g id="Layer_20">
</g>
<g id="Layer_21">
</g>
<g id="Layer_22">
</g>
<g id="Layer_23">
</g>
<g id="Layer_24">
</g>
<g id="Layer_25">
</g>
<g id="Layer_26">
</g>
<g id="Layer_27">
</g>
<g id="Layer_28">
</g>
<g id="Layer_29">
</g>
<g id="Layer_30">
</g>
<g id="Layer_31">
</g>
<g id="Layer_32">
</g>
<g id="Layer_33">
</g>
<g id="Layer_34">
</g>
<g id="Layer_35">
</g>
<g id="Layer_36">
</g>
<g id="Layer_37">
</g>
<g id="Layer_38">
</g>
<g id="Layer_39">
</g>
<g id="Layer_40">
</g>
<g id="Layer_41">
</g>
<g id="Layer_42">
</g>
<g id="Layer_43">
</g>
<g id="Layer_44">
</g>
<g id="Layer_45">
</g>
<g id="Layer_46">
</g>
<g id="Layer_47">
</g>
<g id="Layer_48">
</g>
<g id="Layer_49">
</g>
<g id="Layer_50">
</g>
<g id="Layer_51">
	<g>
		<g>
			<g>
				<path class="st1" d="M138.081,153.265l-8.134-7.427c-0.753-0.687-1.917-0.646-2.619,0.092l-15.687,16.491
					c-0.77,0.81-0.78,2.078-0.022,2.899l8.157,8.837c0.936,1.014,2.552,0.97,3.431-0.094l15.054-18.223
					C138.897,155.071,138.818,153.938,138.081,153.265z"/>
			</g>
		</g>
		<g>
			<g>
				<path class="st1" d="M76.784,153.265l8.134-7.427c0.753-0.687,1.917-0.646,2.619,0.092l15.687,16.491
					c0.77,0.81,0.78,2.078,0.022,2.899l-8.157,8.837c-0.936,1.014-2.552,0.97-3.431-0.094L76.603,155.84
					C75.967,155.071,76.047,153.938,76.784,153.265z"/>
			</g>
		</g>
		<g>
			<g>
				<g>
					<path class="st19" d="M150.846,250.746v-4.077c0-1.521,1.233-2.754,2.754-2.754h1.145v-4.667
						c0-6.131,5.016-11.147,11.147-11.147h7.748v-57.25l0.001,0c-0.798-0.56-1.492-1.254-2.052-2.052h-26.717
						c-1.986,0-3.596-1.61-3.596-3.595v-2.394c0-1.986,1.61-3.595,3.596-3.595h3.745l-6.654-1.675
						c-1.38-0.698-2.568-1.289-3.626-1.811c-0.026,0.037-0.046,0.076-0.075,0.112l-15.054,18.224
						c-0.879,1.064-2.495,1.109-3.431,0.094l-8.157-8.837c-0.468-0.508-0.642-1.186-0.526-1.821h-7.323
						c0.116,0.635-0.057,1.313-0.526,1.821l-8.157,8.837c-0.936,1.014-2.552,0.97-3.431-0.094L76.603,155.84
						c-0.029-0.035-0.049-0.075-0.076-0.112c-1.058,0.522-2.246,1.114-3.626,1.812L44,164.814
						c-6.233,1.569-10.721,7.008-11.078,13.425l-4.115,70.951c-0.13,2.34,1.732,4.31,4.076,4.31c7.41,0,79.313,0,120.717,0
						C152.079,253.5,150.846,252.267,150.846,250.746z"/>
				</g>
			</g>
		</g>
		<g>
			<g>
				<path class="st3" d="M90.287,134.915v6.057c0,2.203-0.581,4.309-1.601,6.167l14.538,15.283c0.294,0.309,0.475,0.685,0.547,1.078
					h7.323c0.072-0.393,0.253-0.769,0.547-1.078l14.538-15.283c-1.021-1.858-1.601-3.964-1.601-6.167v-6.057
					C114.1,140.4,101.319,140.69,90.287,134.915z"/>
			</g>
		</g>
		<g>
			<g>
				<path class="st13" d="M203.265,243.915H153.6c-1.521,0-2.754,1.233-2.754,2.754v4.077c0,1.521,1.233,2.754,2.754,2.754h49.665
					c1.521,0,2.754-1.233,2.754-2.754v-4.077C206.019,245.148,204.786,243.915,203.265,243.915z"/>
			</g>
		</g>
		<g>
			<g>
				<circle class="st10" cx="178.432" cy="164.007" r="8.36"/>
			</g>
		</g>
		<g>
			<g>
				<path class="st7" d="M211.993,159.214h-26.717c0.953,1.358,1.516,3.008,1.516,4.793s-0.564,3.435-1.516,4.793h26.717
					c1.986,0,3.596-1.61,3.596-3.596v-2.394C215.588,160.824,213.979,159.214,211.993,159.214z"/>
			</g>
		</g>
		<g>
			<g>
				<path class="st7" d="M170.072,164.007c0-1.785,0.564-3.435,1.516-4.793h-26.717c-1.986,0-3.596,1.61-3.596,3.596v2.394
					c0,1.986,1.61,3.596,3.596,3.596h26.717C170.636,167.442,170.072,165.791,170.072,164.007z"/>
			</g>
		</g>
		<g>
			<g>
				<path class="st7" d="M183.225,228.101v-57.25c-1.358,0.952-3.008,1.516-4.793,1.516c-1.784,0-3.435-0.564-4.793-1.516v57.25
					H183.225z"/>
			</g>
		</g>
		<g>
			<g>
				<g>
					<path class="st10" d="M202.119,243.915v-4.667c0-6.131-5.016-11.147-11.147-11.147h-25.08c-6.131,0-11.147,5.016-11.147,11.147
						v4.667H202.119z"/>
				</g>
			</g>
		</g>
		<g>
			<g>
				<path class="st10" d="M224.833,200.53h-29.636c-1.307,0-2.367,1.06-2.367,2.367v2.3c0,6.131,5.016,11.147,11.147,11.147h12.076
					c6.131,0,11.147-5.016,11.147-11.147v-2.3C227.199,201.59,226.14,200.53,224.833,200.53z"/>
			</g>
		</g>
		<g>
			<g>
				<path class="st10" d="M161.668,200.53h-29.636c-1.307,0-2.367,1.06-2.367,2.367v2.3c0,6.131,5.016,11.147,11.147,11.147h12.076
					c6.131,0,11.147-5.016,11.147-11.147v-2.3C164.034,201.59,162.975,200.53,161.668,200.53z"/>
			</g>
		</g>
		<g>
			<g>
				<path class="st21" d="M97.697,171.332c2.235,2.947,5.751,4.868,9.735,4.868s7.5-1.921,9.735-4.868l-5.549-6.011
					c-0.468-0.508-0.642-1.186-0.526-1.821h-7.323c0.116,0.635-0.057,1.313-0.526,1.821L97.697,171.332z"/>
			</g>
		</g>
		<g>
			<g>
				<path class="st8" d="M112.642,175.011c-1.58,0.753-3.34,1.189-5.209,1.189s-3.629-0.437-5.209-1.189l-6.671,67.235l11.88,11.195
					l11.88-11.195L112.642,175.011z"/>
			</g>
		</g>
		<g>
			<g>
				<path d="M55.888,255.04c-1.381,0-2.5-1.119-2.5-2.5v-56.645c0-1.381,1.119-2.5,2.5-2.5s2.5,1.119,2.5,2.5v56.645
					C58.388,253.921,57.269,255.04,55.888,255.04z"/>
			</g>
		</g>
		<g>
			<g>
				<path class="st3" d="M139.331,57.412c-2.433-2.552-6.39-2.787-9.164-0.61c-4.386,3.443-11.975,7.698-22.693,7.698
					c-10.745,0-18.374-4.276-22.778-7.723c-2.771-2.169-6.72-1.926-9.149,0.621l-0.013,0.013c-3.413,3.579-5.316,8.334-5.316,13.279
					v31.233c0,20.468,16.747,37.215,37.215,37.215h0c20.468,0,37.215-16.747,37.215-37.215V70.691
					C144.647,65.746,142.743,60.99,139.331,57.412z"/>
			</g>
		</g>
		<g>
			<g>
				<path class="st3" d="M147.035,73.561c-0.813,0-1.609,0.069-2.388,0.189c0,3.96,0,22.286,0,28.173
					c0,0.839-0.038,1.67-0.094,2.496c0.81,0.13,1.635,0.217,2.482,0.217c8.581,0,15.537-6.956,15.537-15.537
					S155.617,73.561,147.035,73.561z"/>
			</g>
		</g>
		<g>
			<g>
				<path class="st3" d="M70.217,101.923c0-3.856,0-20.507,0-28.173c-0.779-0.121-1.575-0.189-2.388-0.189
					c-8.581,0-15.538,6.957-15.538,15.538s6.956,15.537,15.538,15.537c0.847,0,1.672-0.086,2.482-0.217v-0.001
					C70.256,103.593,70.217,102.762,70.217,101.923z"/>
			</g>
		</g>
		<g>
			<g>
				<path class="st13" d="M144.508,41.816c-1.246,0-2.327-0.961-2.344-2.207c-0.285-20.737-23.966-24.633-47.549-20.56
					c-19.994,3.453-34.608,20.791-34.608,41.081v15.559c2.299-1.344,4.966-2.128,7.821-2.128c0.813,0,1.609,0.068,2.388,0.189
					v-3.059c0-4.945,1.904-9.7,5.316-13.279l0.013-0.013c2.429-2.547,6.377-2.79,9.149-0.621C89.1,60.224,96.729,64.5,107.473,64.5
					c10.719,0,18.308-4.255,22.693-7.698c2.774-2.177,6.73-1.943,9.164,0.61c3.413,3.579,5.316,8.334,5.316,13.279v3.059
					c0.779-0.121,1.575-0.189,2.388-0.189c2.89,0,5.586,0.803,7.903,2.178c0-4.342,0-8.802,0-12.775
					C154.939,44.395,148.233,41.816,144.508,41.816z"/>
			</g>
		</g>
		<g>
			<g>
				<path d="M107.432,141.639c-21.899,0-39.715-17.816-39.715-39.716V70.69c0-5.613,2.133-10.942,6.007-15.004
					c3.327-3.489,8.701-3.86,12.511-0.878C90.428,58.089,97.515,62,107.474,62c9.938,0,16.986-3.896,21.149-7.165
					c3.819-2.994,9.2-2.629,12.518,0.853c3.874,4.062,6.007,9.39,6.007,15.003v31.232
					C147.147,123.822,129.331,141.639,107.432,141.639z M80.444,57.803c-1.134,0-2.254,0.446-3.088,1.321
					c-2.996,3.141-4.638,7.244-4.638,11.566v31.232c0,19.143,15.573,34.716,34.715,34.716c19.142,0,34.715-15.573,34.715-34.716
					V70.69c0-4.322-1.643-8.426-4.625-11.553c0,0,0,0,0-0.001c-1.532-1.607-4.031-1.767-5.811-0.368
					C126.928,62.523,118.84,67,107.474,67c-11.384,0-19.508-4.488-24.319-8.254C82.347,58.114,81.39,57.803,80.444,57.803z"/>
			</g>
		</g>
		<g>
			<g>
				<path d="M147.036,107.136c-0.623,0-1.253-0.038-1.927-0.116c-1.372-0.159-2.354-1.4-2.195-2.771s1.399-2.354,2.772-2.195
					c0.48,0.056,0.922,0.083,1.35,0.083c7.188,0,13.037-5.849,13.037-13.037c0-7.189-5.849-13.038-13.037-13.038
					c-0.438,0-0.894,0.024-1.354,0.074c-1.375,0.133-2.604-0.849-2.75-2.222c-0.146-1.373,0.848-2.604,2.221-2.751
					c0.635-0.067,1.269-0.102,1.883-0.102c9.946,0,18.037,8.092,18.037,18.038C165.073,99.044,156.981,107.136,147.036,107.136z"/>
			</g>
		</g>
		<g>
			<g>
				<path d="M67.829,107.136c-9.946,0-18.038-8.092-18.038-18.037c0-9.946,8.092-18.038,18.038-18.038
					c0.57,0,1.154,0.029,1.736,0.088c1.374,0.137,2.376,1.361,2.24,2.735c-0.137,1.375-1.362,2.386-2.736,2.239
					c-0.418-0.041-0.835-0.063-1.24-0.063c-7.189,0-13.038,5.849-13.038,13.038c0,7.188,5.849,13.037,13.038,13.037
					c0.346,0,0.688-0.018,1.025-0.049c1.379-0.142,2.593,0.886,2.719,2.26c0.127,1.375-0.885,2.593-2.26,2.719
					C68.808,107.112,68.309,107.136,67.829,107.136z"/>
			</g>
		</g>
		<g>
			<g>
				<path d="M107.974,118.573c-4.777,0-9.262-1.95-11.999-5.216c-0.887-1.058-0.748-2.635,0.31-3.521
					c1.06-0.888,2.636-0.748,3.522,0.311c1.798,2.146,4.852,3.427,8.167,3.427s6.368-1.281,8.167-3.427
					c0.887-1.057,2.464-1.198,3.522-0.311c1.058,0.887,1.197,2.464,0.31,3.521C117.235,116.623,112.75,118.573,107.974,118.573z"/>
			</g>
		</g>
		<g>
			<g>
				<path d="M154.939,77.583c-1.381,0-2.5-1.119-2.5-2.5v-12.12c0-11.851-2.891-18.647-7.931-18.647
					c-2.635,0-4.808-2.096-4.844-4.673c-0.077-5.591-2.071-10.05-5.927-13.252c-7.324-6.081-21.427-7.859-38.697-4.879
					C76.19,24.768,62.508,41.008,62.508,60.129v14.777c0,1.381-1.119,2.5-2.5,2.5s-2.5-1.119-2.5-2.5V60.129
					c0-21.561,15.427-39.874,36.683-43.545c18.711-3.232,34.29-1.059,42.742,5.96c4.972,4.129,7.571,9.771,7.728,16.772
					c4.845,0.064,12.779,3.285,12.779,23.646v12.12C157.439,76.464,156.32,77.583,154.939,77.583z"/>
			</g>
		</g>
		<g>
			<g>
				<path d="M121.45,177.391c-1.332,0-2.604-0.555-3.511-1.536l-8.157-8.838c-1.646-1.784-1.626-4.559,0.047-6.317l15.687-16.491
					c1.629-1.713,4.373-1.808,6.117-0.215l8.133,7.425c0,0,0,0.001,0,0.001c1.723,1.573,1.908,4.215,0.422,6.013l-15.054,18.224
					c-0.878,1.063-2.173,1.695-3.552,1.734C121.539,177.391,121.494,177.391,121.45,177.391z M113.697,163.887l7.744,8.39
					l14.513-17.568l-7.239-6.608L113.697,163.887z M136.393,155.109c0.001,0,0.001,0.001,0.002,0.001L136.393,155.109z"/>
			</g>
		</g>
		<g>
			<g>
				<path d="M93.414,177.391c-0.044,0-0.088,0-0.132-0.002c-1.379-0.038-2.674-0.67-3.552-1.733l-15.054-18.224
					c-1.486-1.799-1.301-4.44,0.423-6.014l8.134-7.426c1.744-1.593,4.488-1.496,6.116,0.216l15.687,16.491
					c1.673,1.758,1.694,4.533,0.048,6.317l-8.158,8.837C96.019,176.835,94.746,177.391,93.414,177.391z M78.911,154.708
					l14.512,17.568l7.744-8.39L86.149,148.1L78.911,154.708z M78.472,155.109l-0.002,0.002
					C78.469,155.111,78.47,155.109,78.472,155.109z M76.784,153.265h0.01H76.784z"/>
			</g>
		</g>
		<g>
			<g>
				<g>
					<path d="M153.6,256H32.883c-1.801,0-3.544-0.751-4.782-2.06s-1.89-3.091-1.79-4.889l4.115-70.957
						c0.42-7.546,5.63-13.859,12.964-15.705l28.632-7.207c1.058-0.534,2.003-1.006,2.863-1.432c1.236-0.616,2.737-0.109,3.351,1.128
						s0.108,2.737-1.129,3.351c-0.917,0.455-1.93,0.961-3.077,1.541c-0.165,0.083-0.338,0.147-0.518,0.193l-28.902,7.275
						c-5.2,1.309-8.895,5.785-9.193,11.139l-4.115,70.957c-0.024,0.434,0.129,0.851,0.431,1.17c0.302,0.319,0.71,0.495,1.15,0.495
						H153.6c1.381,0,2.5,1.119,2.5,2.5S154.981,256,153.6,256z"/>
				</g>
			</g>
			<g>
				<g>
					<path d="M148.619,161.716c-0.202,0-0.408-0.025-0.612-0.077l-6.654-1.676c-0.179-0.045-0.353-0.109-0.518-0.192
						c-1.146-0.58-2.16-1.086-3.075-1.539c-1.237-0.612-1.744-2.111-1.132-3.35c0.612-1.237,2.112-1.745,3.35-1.131
						c0.86,0.426,1.806,0.897,2.865,1.432l6.385,1.608c1.339,0.337,2.151,1.695,1.814,3.034
						C150.755,160.959,149.737,161.716,148.619,161.716z"/>
				</g>
			</g>
		</g>
		<g>
			<g>
				<path d="M125.883,149.066c-0.926,0-1.816-0.517-2.249-1.405c-1.033-2.118-1.557-4.369-1.557-6.689v-5.18
					c0-1.381,1.119-2.5,2.5-2.5s2.5,1.119,2.5,2.5v5.18c0,1.555,0.354,3.067,1.051,4.498c0.605,1.241,0.09,2.737-1.151,3.343
					C126.625,148.984,126.251,149.066,125.883,149.066z"/>
			</g>
		</g>
		<g>
			<g>
				<path d="M110.708,166h-6.583c-1.381,0-2.5-1.119-2.5-2.5s1.119-2.5,2.5-2.5h6.583c1.381,0,2.5,1.119,2.5,2.5
					S112.088,166,110.708,166z"/>
			</g>
		</g>
		<g>
			<g>
				<path d="M88.937,149.157c-0.374,0-0.754-0.085-1.111-0.263c-1.236-0.615-1.74-2.115-1.125-3.352
					c0.722-1.451,1.087-2.988,1.087-4.571v-5.44c0-1.381,1.119-2.5,2.5-2.5s2.5,1.119,2.5,2.5v5.44c0,2.362-0.542,4.649-1.611,6.798
					C90.74,148.648,89.855,149.157,88.937,149.157z"/>
			</g>
		</g>
		<g>
			<g>
				<circle cx="124.222" cy="90.816" r="5"/>
			</g>
		</g>
		<g>
			<g>
				<circle cx="90.643" cy="90.816" r="5"/>
			</g>
		</g>
		<g>
			<g>
				<path d="M132.908,106.015h-9.237c-7.458,0-13.524-6.067-13.524-13.524v-6.39c0-5.577,4.538-10.115,10.115-10.115h16.057
					c5.577,0,10.114,4.538,10.114,10.115v6.39C146.432,99.947,140.365,106.015,132.908,106.015z M120.261,80.985
					c-2.82,0-5.115,2.295-5.115,5.115v6.39c0,4.7,3.824,8.524,8.524,8.524h9.237c4.7,0,8.524-3.824,8.524-8.524v-6.39
					c0-2.82-2.294-5.115-5.114-5.115H120.261z"/>
			</g>
		</g>
		<g>
			<g>
				<path d="M91.194,106.015h-9.237c-7.458,0-13.524-6.067-13.524-13.524v-6.39c0-5.577,4.538-10.115,10.115-10.115h16.057
					c5.577,0,10.115,4.538,10.115,10.115v6.39C104.718,99.947,98.651,106.015,91.194,106.015z M78.547,80.985
					c-2.82,0-5.115,2.295-5.115,5.115v6.39c0,4.7,3.824,8.524,8.524,8.524h9.237c4.7,0,8.524-3.824,8.524-8.524v-6.39
					c0-2.82-2.294-5.115-5.115-5.115H78.547z"/>
			</g>
		</g>
		<g>
			<g>
				<path d="M111.604,89.925h-8.343c-1.381,0-2.5-1.119-2.5-2.5s1.119-2.5,2.5-2.5h8.343c1.381,0,2.5,1.119,2.5,2.5
					S112.984,89.925,111.604,89.925z"/>
			</g>
		</g>
		<g>
			<g>
				<path d="M88.932,202h-20c-1.381,0-2.5-1.119-2.5-2.5s1.119-2.5,2.5-2.5h20c1.381,0,2.5,1.119,2.5,2.5S90.313,202,88.932,202z"/>
			</g>
		</g>
		<g>
			<g>
				<path d="M75.932,213c-1.381,0-2.5-1.119-2.5-2.5v-15c0-1.381,1.119-2.5,2.5-2.5s2.5,1.119,2.5,2.5v15
					C78.432,211.881,77.313,213,75.932,213z"/>
			</g>
		</g>
		<g>
			<g>
				<path d="M203.265,256H153.6c-2.897,0-5.254-2.356-5.254-5.254v-4.077c0-2.897,2.357-5.254,5.254-5.254h49.665
					c2.897,0,5.254,2.356,5.254,5.254v4.077C208.519,253.644,206.162,256,203.265,256z M153.6,246.415
					c-0.14,0-0.254,0.114-0.254,0.254v4.077c0,0.14,0.114,0.254,0.254,0.254h49.665c0.14,0,0.254-0.114,0.254-0.254v-4.077
					c0-0.14-0.114-0.254-0.254-0.254H153.6z"/>
			</g>
		</g>
		<g>
			<g>
				<path d="M178.432,174.867c-5.988,0-10.86-4.872-10.86-10.86s4.872-10.86,10.86-10.86s10.86,4.872,10.86,10.86
					S184.42,174.867,178.432,174.867z M178.432,158.146c-3.231,0-5.86,2.629-5.86,5.86s2.629,5.86,5.86,5.86
					c3.231,0,5.86-2.629,5.86-5.86S181.664,158.146,178.432,158.146z"/>
			</g>
		</g>
		<g>
			<g>
				<path d="M211.993,171.3h-26.138c-1.381,0-2.5-1.119-2.5-2.5s1.119-2.5,2.5-2.5h26.138c0.604,0,1.096-0.491,1.096-1.096v-2.395
					c0-0.604-0.492-1.096-1.096-1.096h-26.034c-1.381,0-2.5-1.119-2.5-2.5s1.119-2.5,2.5-2.5h26.034
					c3.361,0,6.096,2.734,6.096,6.096v2.395C218.088,168.565,215.354,171.3,211.993,171.3z"/>
			</g>
		</g>
		<g>
			<g>
				<path d="M170.979,171.3h-26.106c-3.361,0-6.096-2.734-6.096-6.096v-2.395c0-3.361,2.734-6.096,6.096-6.096h26.149
					c1.381,0,2.5,1.119,2.5,2.5s-1.119,2.5-2.5,2.5h-26.149c-0.604,0-1.096,0.491-1.096,1.096v2.395
					c0,0.604,0.492,1.096,1.096,1.096h26.106c1.381,0,2.5,1.119,2.5,2.5S172.359,171.3,170.979,171.3z"/>
			</g>
		</g>
		<g>
			<g>
				<path d="M178.432,157.218c-1.381,0-2.5-1.119-2.5-2.5v-5.573c0-1.381,1.119-2.5,2.5-2.5s2.5,1.119,2.5,2.5v5.573
					C180.932,156.099,179.813,157.218,178.432,157.218z"/>
			</g>
		</g>
		<g>
			<g>
				<path d="M183.225,229.583c-1.381,0-2.5-1.119-2.5-2.5v-55.646c0-1.381,1.119-2.5,2.5-2.5s2.5,1.119,2.5,2.5v55.646
					C185.725,228.464,184.606,229.583,183.225,229.583z"/>
			</g>
		</g>
		<g>
			<g>
				<path d="M173.64,229.583c-1.381,0-2.5-1.119-2.5-2.5v-55.75c0-1.381,1.119-2.5,2.5-2.5s2.5,1.119,2.5,2.5v55.75
					C176.14,228.464,175.021,229.583,173.64,229.583z"/>
			</g>
		</g>
		<g>
			<g>
				<g>
					<path d="M202.119,245.875c-1.381,0-2.5-1.119-2.5-2.5v-4.127c0-4.769-3.879-8.647-8.646-8.647h-25.081
						c-4.768,0-8.646,3.879-8.646,8.647v4.127c0,1.381-1.119,2.5-2.5,2.5s-2.5-1.119-2.5-2.5v-4.127
						c0-7.525,6.122-13.647,13.646-13.647h25.081c7.525,0,13.646,6.122,13.646,13.647v4.127
						C204.619,244.756,203.5,245.875,202.119,245.875z"/>
				</g>
			</g>
		</g>
		<g>
			<g>
				<path d="M196.08,201.983c-0.351,0-0.708-0.075-1.048-0.231c-1.253-0.58-1.799-2.065-1.22-3.318l13.933-30.136
					c0.58-1.254,2.065-1.797,3.318-1.221c1.253,0.58,1.799,2.065,1.22,3.318l-13.933,30.136
					C197.928,201.445,197.024,201.983,196.08,201.983z"/>
			</g>
		</g>
		<g>
			<g>
				<path d="M223.95,201.983c-0.944,0-1.848-0.538-2.271-1.452l-13.934-30.136c-0.58-1.253-0.033-2.738,1.22-3.318
					c1.255-0.576,2.74-0.033,3.318,1.221l13.934,30.136c0.58,1.253,0.033,2.738-1.22,3.318
					C224.658,201.908,224.301,201.983,223.95,201.983z"/>
			</g>
		</g>
		<g>
			<g>
				<path d="M132.915,201.983c-0.351,0-0.708-0.075-1.048-0.231c-1.253-0.58-1.799-2.065-1.22-3.318l13.933-30.136
					c0.58-1.254,2.065-1.797,3.318-1.221c1.253,0.58,1.799,2.065,1.22,3.318l-13.933,30.136
					C134.763,201.445,133.859,201.983,132.915,201.983z"/>
			</g>
		</g>
		<g>
			<g>
				<path d="M160.785,201.983c-0.944,0-1.848-0.538-2.271-1.452l-13.934-30.136c-0.58-1.253-0.033-2.738,1.22-3.318
					c1.254-0.576,2.739-0.033,3.318,1.221l13.934,30.136c0.58,1.253,0.033,2.738-1.22,3.318
					C161.493,201.908,161.136,201.983,160.785,201.983z"/>
			</g>
		</g>
		<g>
			<g>
				<path d="M216.053,218.844h-12.076c-7.525,0-13.647-6.122-13.647-13.646v-2.301c0-2.684,2.184-4.866,4.867-4.866h29.635
					c2.684,0,4.867,2.183,4.867,4.866v2.301C229.7,212.722,223.578,218.844,216.053,218.844z M195.33,203.03v2.167
					c0,4.768,3.879,8.646,8.647,8.646h12.076c4.768,0,8.647-3.879,8.647-8.646v-2.167H195.33z M224.833,203.03h0.01H224.833z"/>
			</g>
		</g>
		<g>
			<g>
				<path d="M152.888,218.844h-12.076c-7.525,0-13.647-6.122-13.647-13.646v-2.301c0-2.684,2.184-4.866,4.867-4.866h29.635
					c2.684,0,4.867,2.183,4.867,4.866v2.301C166.534,212.722,160.413,218.844,152.888,218.844z M132.165,203.03v2.167
					c0,4.768,3.879,8.646,8.647,8.646h12.076c4.768,0,8.646-3.879,8.646-8.646v-2.167H132.165z M161.667,203.03h0.01H161.667z"/>
			</g>
		</g>
		<g>
			<g>
				<path d="M107.432,178.7c-4.362,0-8.479-1.938-11.296-5.316c-0.884-1.061-0.742-2.637,0.319-3.521
					c1.06-0.885,2.637-0.742,3.521,0.319c1.864,2.235,4.582,3.518,7.456,3.518c2.805,0,5.479-1.231,7.337-3.377
					c0.904-1.044,2.483-1.158,3.526-0.255c1.044,0.904,1.158,2.482,0.254,3.526C115.742,176.84,111.689,178.7,107.432,178.7z"/>
			</g>
		</g>
		<g>
			<g>
				<path d="M107.432,255.94c-0.617,0-1.233-0.227-1.714-0.681l-11.88-11.195c-0.564-0.531-0.85-1.295-0.773-2.066l6.613-66.654
					c0.136-1.374,1.363-2.381,2.735-2.24c1.374,0.136,2.377,1.36,2.241,2.734l-6.492,65.431l9.271,8.736l9.271-8.736l-6.488-65.398
					c-0.136-1.374,0.867-2.599,2.241-2.734c1.37-0.141,2.598,0.866,2.734,2.24l6.61,66.622c0.077,0.771-0.209,1.535-0.773,2.066
					l-11.88,11.195C108.665,255.714,108.049,255.94,107.432,255.94z"/>
			</g>
		</g>
		<g>
			<g>
				<path class="st8" d="M183.822,28.33c-4.498-0.838-8.043-4.31-8.898-8.716c-0.043-0.221-0.352-0.221-0.395,0
					c-0.855,4.406-4.4,7.879-8.898,8.716c-0.226,0.042-0.226,0.345,0,0.387c4.498,0.838,8.043,4.31,8.898,8.717
					c0.043,0.221,0.352,0.221,0.395,0c0.855-4.406,4.4-7.879,8.898-8.717C184.047,28.675,184.047,28.373,183.822,28.33z"/>
			</g>
		</g>
		<g>
			<g>
				<path class="st7" d="M187.515,113.101c-2.862-0.533-5.118-2.743-5.663-5.547c-0.027-0.141-0.224-0.141-0.251,0
					c-0.544,2.804-2.8,5.014-5.663,5.547c-0.144,0.027-0.144,0.219,0,0.246c2.862,0.533,5.118,2.743,5.663,5.547
					c0.027,0.141,0.224,0.141,0.251,0c0.544-2.804,2.8-5.014,5.663-5.547C187.658,113.32,187.658,113.128,187.515,113.101z"/>
			</g>
		</g>
		<g>
			<g>
				<circle class="st8" cx="25.755" cy="154.825" r="3.377"/>
			</g>
		</g>
		<g>
			<g>
				<circle class="st9" cx="160.755" cy="3.377" r="3.377"/>
			</g>
		</g>
		<g>
			<g>
				<path class="st6" d="M32.246,122.75h2.33v-2.33c0-1.744,1.413-3.157,3.157-3.157c1.744,0,3.157,1.413,3.157,3.157v2.33h2.329
					c1.744,0,3.157,1.413,3.157,3.157s-1.413,3.157-3.157,3.157h-2.329v2.33c0,1.744-1.413,3.157-3.157,3.157
					c-1.744,0-3.157-1.413-3.157-3.157v-2.33h-2.33c-1.744,0-3.157-1.413-3.157-3.157S30.502,122.75,32.246,122.75z"/>
			</g>
		</g>
	</g>
</g>
<g id="Layer_52">
</g>
<g id="Layer_53">
</g>
<g id="Layer_54">
</g>
<g id="Layer_55">
</g>
<g id="Layer_56">
</g>
<g id="Layer_57">
</g>
<g id="Layer_58">
</g>
<g id="Layer_59">
</g>
<g id="Layer_60">
</g>
<g id="Layer_61">
</g>
<g id="Layer_62">
</g>
<g id="Layer_63">
</g>
<g id="Layer_64">
</g>
<g id="Layer_65">
</g>
<g id="Layer_66">
</g>
<g id="Layer_67">
</g>
<g id="Layer_68">
</g>
<g id="Layer_69">
</g>
<g id="Layer_70">
</g>
<g id="Layer_71">
</g>
<g id="Layer_72">
</g>
<g id="Layer_73">
</g>
<g id="Layer_74">
</g>
<g id="Layer_75">
</g>
<g id="Layer_76">
</g>
<g id="Layer_77">
</g>
<g id="Layer_78">
</g>
<g id="Layer_79">
</g>
<g id="Layer_80">
</g>
</svg>
