<?xml version="1.0" encoding="utf-8"?>
<!-- Generator: Adobe Illustrator 24.0.0, SVG Export Plug-In . SVG Version: 6.00 Build 0)  -->
<svg version="1.1" xmlns="http://www.w3.org/2000/svg" xmlns:xlink="http://www.w3.org/1999/xlink" x="0px" y="0px"
	 viewBox="0 0 256 256" style="enable-background:new 0 0 256 256;" xml:space="preserve">
<style type="text/css">
	.st0{fill:#3A70BF;}
	.st1{fill:#EDF4FC;}
	.st2{fill:#C7D7E5;}
	.st3{fill:#F9D0B4;}
	.st4{fill:#5B5D60;}
	.st5{fill:#5290DB;}
	.st6{fill:#70D6F9;}
	.st7{fill:#F5C84C;}
	.st8{fill:#FC657E;}
	.st9{fill:#87D147;}
	.st10{fill:#FCDD86;}
	.st11{fill:#9BE5F9;}
	.st12{fill:#B2E26D;}
	.st13{fill:#754E34;}
	.st14{fill:#FCA265;}
	.st15{fill:#818182;}
	.st16{fill:#F94EED;}
	.st17{fill:#FFC197;}
	.st18{fill:#3CAADC;}
	.st19{fill:#DAE6F1;}
	.st20{fill:#57AF12;}
	.st21{fill:#EF4460;}
	.st22{fill:#FFF0CA;}
	.st23{fill:#F98FA6;}
	.st24{fill:#EDB311;}
	.st25{fill:#FC8C48;}
	.st26{fill:#FCB9CB;}
	.st27{fill:#96BC71;}
	.st28{fill:#78A352;}
	.st29{fill:#B8DD90;}
	.st30{fill:#6FAFEF;}
	.st31{fill:#29589F;}
	.st32{fill:#414344;}
	.st33{fill:#9B6B4B;}
	.st34{fill:#73B1EF;}
</style>
<g id="Layer_1">
</g>
<g id="Layer_2">
</g>
<g id="Layer_3">
</g>
<g id="Layer_4">
</g>
<g id="Layer_5">
</g>
<g id="Layer_6">
</g>
<g id="Layer_7">
</g>
<g id="Layer_8">
</g>
<g id="Layer_9">
</g>
<g id="Layer_10">
</g>
<g id="Layer_11">
</g>
<g id="Layer_12">
</g>
<g id="Layer_13">
</g>
<g id="Layer_14">
</g>
<g id="Layer_15">
</g>
<g id="Layer_16">
</g>
<g id="Layer_17">
</g>
<g id="Layer_18">
</g>
<g id="Layer_19">
</g>
<g id="Layer_20">
</g>
<g id="Layer_21">
</g>
<g id="Layer_22">
</g>
<g id="Layer_23">
</g>
<g id="Layer_24">
</g>
<g id="Layer_25">
</g>
<g id="Layer_26">
</g>
<g id="Layer_27">
</g>
<g id="Layer_28">
</g>
<g id="Layer_29">
</g>
<g id="Layer_30">
</g>
<g id="Layer_31">
</g>
<g id="Layer_32">
</g>
<g id="Layer_33">
</g>
<g id="Layer_34">
</g>
<g id="Layer_35">
</g>
<g id="Layer_36">
</g>
<g id="Layer_37">
</g>
<g id="Layer_38">
</g>
<g id="Layer_39">
</g>
<g id="Layer_40">
</g>
<g id="Layer_41">
</g>
<g id="Layer_42">
</g>
<g id="Layer_43">
</g>
<g id="Layer_44">
</g>
<g id="Layer_45">
</g>
<g id="Layer_46">
</g>
<g id="Layer_47">
</g>
<g id="Layer_48">
</g>
<g id="Layer_49">
</g>
<g id="Layer_50">
</g>
<g id="Layer_51">
</g>
<g id="Layer_52">
	<g>
		<g>
			<g>
				<g>
					<path class="st19" d="M149.811,250.746v-4.077c0-1.521,1.233-2.754,2.754-2.754h1.145v-4.667
						c0-6.131,5.016-11.147,11.147-11.147h7.748v-57.25c0,0,0,0,0,0c-0.798-0.559-1.492-1.254-2.052-2.052l0,0h-26.717
						c-1.986,0-3.596-1.61-3.596-3.595v-2.394c0-1.986,1.61-3.595,3.596-3.595h15.549l-18.22-4.599
						c-1.806-0.455-3.562-1.084-5.253-1.861c-0.022,0.385-0.155,0.767-0.419,1.086l-15.054,18.224
						c-0.879,1.064-2.495,1.109-3.431,0.094l-8.157-8.837c-0.468-0.508-0.642-1.186-0.526-1.821h-7.323
						c0.116,0.635-0.057,1.313-0.526,1.821l-8.157,8.837c-0.936,1.014-2.552,0.97-3.431-0.094L73.835,153.84
						c-0.264-0.319-0.397-0.701-0.419-1.086c-1.691,0.777-3.447,1.407-5.253,1.861l-24.833,6.269
						c-6.044,1.521-10.396,6.796-10.743,13.019l-2.744,75.418c-0.127,2.269,1.68,4.179,3.953,4.179h118.77
						C151.044,253.5,149.811,252.267,149.811,250.746z"/>
				</g>
			</g>
		</g>
		<g>
			<g>
				<path class="st13" d="M202.229,243.915h-49.665c-1.521,0-2.754,1.233-2.754,2.754v4.077c0,1.521,1.233,2.754,2.754,2.754h49.665
					c1.521,0,2.754-1.233,2.754-2.754v-4.077C204.983,245.148,203.75,243.915,202.229,243.915z"/>
			</g>
		</g>
		<g>
			<g>
				<circle class="st10" cx="177.397" cy="164.007" r="8.36"/>
			</g>
		</g>
		<g>
			<g>
				<path class="st7" d="M210.957,159.214h-26.717c0.953,1.358,1.516,3.008,1.516,4.793s-0.564,3.435-1.516,4.793h26.717
					c1.986,0,3.596-1.61,3.596-3.596v-2.394C214.553,160.824,212.943,159.214,210.957,159.214z"/>
			</g>
		</g>
		<g>
			<g>
				<path class="st7" d="M169.037,164.007c0-1.785,0.564-3.435,1.516-4.793h-26.717c-1.986,0-3.596,1.61-3.596,3.596v2.394
					c0,1.986,1.61,3.596,3.596,3.596h26.717C169.601,167.442,169.037,165.791,169.037,164.007z"/>
			</g>
		</g>
		<g>
			<g>
				<path class="st7" d="M182.19,228.101v-57.25c-1.358,0.952-3.008,1.516-4.793,1.516c-1.784,0-3.435-0.564-4.793-1.516v57.25
					H182.19z"/>
			</g>
		</g>
		<g>
			<g>
				<g>
					<path class="st10" d="M201.084,243.915v-4.667c0-6.131-5.016-11.147-11.147-11.147h-25.08c-6.131,0-11.147,5.016-11.147,11.147
						v4.667H201.084z"/>
				</g>
			</g>
		</g>
		<g>
			<g>
				<path class="st10" d="M223.797,200.53h-29.636c-1.307,0-2.367,1.06-2.367,2.367v2.3c0,6.131,5.016,11.147,11.147,11.147h12.076
					c6.131,0,11.147-5.016,11.147-11.147v-2.3C226.164,201.59,225.105,200.53,223.797,200.53z"/>
			</g>
		</g>
		<g>
			<g>
				<path class="st10" d="M160.632,200.53h-29.636c-1.307,0-2.367,1.06-2.367,2.367v2.3c0,6.131,5.016,11.147,11.147,11.147h12.076
					c6.131,0,11.147-5.016,11.147-11.147v-2.3C162.999,201.59,161.939,200.53,160.632,200.53z"/>
			</g>
		</g>
		<g>
			<g>
				<path class="st1" d="M135.313,151.265l-8.134-7.427c-0.753-0.687-1.917-0.646-2.619,0.092l-15.687,16.491
					c-0.77,0.81-0.78,2.078-0.022,2.899l8.157,8.837c0.936,1.014,2.552,0.97,3.431-0.094l15.054-18.223
					C136.129,153.071,136.049,151.938,135.313,151.265z"/>
			</g>
		</g>
		<g>
			<g>
				<path class="st1" d="M74.016,151.265l8.134-7.427c0.753-0.687,1.917-0.646,2.619,0.092l15.687,16.491
					c0.77,0.81,0.78,2.078,0.022,2.899l-8.157,8.837c-0.936,1.014-2.552,0.97-3.431-0.094L73.835,153.84
					C73.199,153.071,73.279,151.938,74.016,151.265z"/>
			</g>
		</g>
		<g>
			<g>
				<path class="st8" d="M104.664,173.5c-3.789,0-7.1-2.014-8.946-5.023l-1.786,1.934l-12.248,33.453
					c-0.631,1.723,0.255,3.632,1.978,4.262l7.312,2.677c1.723,0.631,3.631-0.255,4.262-1.978l13.193-36.033
					C107.259,173.243,105.993,173.5,104.664,173.5z"/>
			</g>
		</g>
		<g>
			<g>
				<path class="st8" d="M127.644,203.865l-12.248-33.453l-1.786-1.934c-1.199,1.954-3.014,3.482-5.181,4.316l-3.765,10.283
					l9.428,25.75c0.631,1.723,2.539,2.609,4.262,1.978l7.312-2.677C127.389,207.496,128.275,205.588,127.644,203.865z"/>
			</g>
		</g>
		<g>
			<g>
				<path class="st23" d="M95.718,168.477c1.846,3.009,5.157,5.023,8.946,5.023s7.1-2.014,8.946-5.023l-4.759-5.156
					c-0.468-0.508-0.642-1.186-0.526-1.821h-7.323c0.116,0.635-0.057,1.313-0.526,1.821L95.718,168.477z"/>
			</g>
		</g>
		<g>
			<g>
				<path class="st3" d="M141.625,71.985c-0.759,0-1.502,0.064-2.229,0.177c0,3.696,0,20.799,0,26.293v0v0
					c0,0.783-0.036,1.558-0.088,2.329c0.756,0.122,1.526,0.202,2.316,0.202c8.009,0,14.501-6.492,14.501-14.501
					C156.125,78.477,149.633,71.985,141.625,71.985z"/>
			</g>
		</g>
		<g>
			<g>
				<path class="st3" d="M121.277,60.642c-5.29,6.174-24.047,24.906-51.344,17.13v20.684c0,19.102,15.629,34.732,34.732,34.732l0,0
					c19.102,0,34.732-15.629,34.732-34.732v-28.06c0-1.276-0.893-2.358-2.136-2.646c-3.515-0.814-7.782-2.85-12.673-7.294
					C123.619,59.577,122.127,59.649,121.277,60.642z"/>
			</g>
		</g>
		<g>
			<g>
				<path class="st3" d="M69.933,77.771c-2.385-0.679-4.834-1.559-7.346-2.668c-1.619-0.715-3.511-0.386-4.803,0.825
					c-2.817,2.641-4.581,6.39-4.581,10.557c0,8.008,6.492,14.501,14.501,14.501c0.79,0,1.56-0.08,2.316-0.202
					c-0.052-0.771-0.088-1.546-0.088-2.329V77.771z"/>
			</g>
		</g>
		<g>
			<g>
				<g>
					<path class="st13" d="M57.784,75.929c1.291-1.211,3.183-1.54,4.803-0.825c2.512,1.109,4.961,1.988,7.346,2.668
						c27.297,7.776,46.055-10.956,51.344-17.13c0.85-0.992,2.342-1.065,3.309-0.186c4.892,4.445,9.159,6.48,12.673,7.294
						c1.243,0.288,2.136,1.37,2.136,2.646v1.766c0.727-0.113,1.47-0.177,2.229-0.177c4.012,0,7.643,1.63,10.268,4.263v-8.494
						c0-25.976-21.253-47.229-47.229-47.229c-25.976,0-47.229,21.253-47.229,47.229v8.535
						C57.553,76.171,57.662,76.043,57.784,75.929z"/>
				</g>
			</g>
		</g>
		<g>
			<g>
				<path class="st13" d="M141.625,100.987c-0.79,0-1.56-0.081-2.316-0.202c-0.816,12.152-7.945,22.646-18.124,28.194v2.521h14.98
					c12.703,0,23-10.297,23-23c0-5.5-1.933-10.546-5.153-14.504C151.468,98.182,146.88,100.987,141.625,100.987z"/>
			</g>
		</g>
		<g>
			<g>
				<path class="st13" d="M73.164,131.5h14.98v-2.521c-10.179-5.548-17.308-16.042-18.124-28.194
					c-0.756,0.122-1.526,0.202-2.316,0.202c-5.255,0-9.844-2.805-12.387-6.99c-3.22,3.958-5.153,9.004-5.153,14.504
					C50.164,121.203,60.462,131.5,73.164,131.5z"/>
			</g>
		</g>
		<g>
			<g>
				<path class="st3" d="M100.456,160.422c0.294,0.309,0.475,0.685,0.547,1.078h7.323c0.072-0.393,0.253-0.769,0.547-1.078
					l14.317-15.051c-1.267-1.655-2.005-3.696-2.005-5.86v-10.533c-4.92,2.682-10.551,4.208-16.52,4.208
					c-5.97,0-11.6-1.526-16.52-4.208v10.533c0,2.163-0.738,4.205-2.005,5.86L100.456,160.422z"/>
			</g>
		</g>
		<g>
			<g>
				<path d="M104.664,117.757c-4.776,0-9.261-1.949-11.999-5.214c-0.887-1.059-0.748-2.636,0.31-3.522
					c1.059-0.887,2.636-0.748,3.522,0.31c1.798,2.146,4.852,3.427,8.167,3.427c3.315,0,6.369-1.281,8.167-3.427
					c0.887-1.059,2.463-1.197,3.522-0.31c1.058,0.887,1.197,2.464,0.31,3.522C113.926,115.808,109.44,117.757,104.664,117.757z"/>
			</g>
		</g>
		<g>
			<g>
				<path d="M57.22,254.717c-1.381,0-2.5-1.119-2.5-2.5V188.65c0-1.381,1.119-2.5,2.5-2.5s2.5,1.119,2.5,2.5v63.566
					C59.72,253.598,58.601,254.717,57.22,254.717z"/>
			</g>
		</g>
		<g>
			<g>
				<path d="M152.565,256H33.795c-1.768,0-3.478-0.736-4.692-2.021c-1.215-1.284-1.855-3.033-1.757-4.798l2.742-75.37
					c0.412-7.403,5.487-13.554,12.631-15.353l24.832-6.268c1.466-0.369,2.939-0.878,4.38-1.511c1.263-0.558,2.738,0.017,3.295,1.282
					c0.556,1.264-0.019,2.738-1.282,3.294c-1.696,0.746-3.435,1.346-5.17,1.782l-24.832,6.269
					c-5.012,1.262-8.571,5.575-8.859,10.733l-2.742,75.37c-0.033,0.594,0.233,0.962,0.395,1.132c0.161,0.171,0.514,0.457,1.06,0.457
					h118.77c1.381,0,2.5,1.119,2.5,2.5S153.946,256,152.565,256z"/>
			</g>
		</g>
		<g>
			<g>
				<path d="M159.387,161.716c-0.203,0-0.409-0.025-0.614-0.077l-18.22-4.6c-1.789-0.45-3.58-1.072-5.321-1.848
					c-1.261-0.563-1.829-2.04-1.267-3.302c0.562-1.261,2.039-1.825,3.301-1.267c1.48,0.659,2.997,1.187,4.509,1.568l18.221,4.6
					c1.339,0.338,2.15,1.697,1.812,3.036C161.523,160.96,160.505,161.716,159.387,161.716z"/>
			</g>
		</g>
		<g>
			<g>
				<circle cx="121.954" cy="90.816" r="4"/>
			</g>
		</g>
		<g>
			<g>
				<circle cx="88.375" cy="90.816" r="4"/>
			</g>
		</g>
		<g>
			<g>
				<path d="M108.556,91.172h-7.783c-1.381,0-2.5-1.119-2.5-2.5s1.119-2.5,2.5-2.5h7.783c1.381,0,2.5,1.119,2.5,2.5
					S109.937,91.172,108.556,91.172z"/>
			</g>
		</g>
		<g>
			<g>
				<path d="M128.431,106.182h-8.618c-7.049,0-12.785-5.735-12.785-12.784v-5.961c0-5.296,4.308-9.604,9.604-9.604h14.979
					c5.296,0,9.604,4.309,9.604,9.604v5.961C141.216,100.446,135.48,106.182,128.431,106.182z M116.633,82.832
					c-2.539,0-4.604,2.065-4.604,4.604v5.961c0,4.292,3.492,7.784,7.785,7.784h8.618c4.292,0,7.785-3.492,7.785-7.784v-5.961
					c0-2.539-2.065-4.604-4.604-4.604H116.633z"/>
			</g>
		</g>
		<g>
			<g>
				<path d="M89.515,106.182h-8.618c-7.049,0-12.785-5.735-12.785-12.784v-5.961c0-5.296,4.308-9.604,9.604-9.604h14.979
					c5.296,0,9.604,4.309,9.604,9.604v5.961C102.3,100.446,96.564,106.182,89.515,106.182z M77.716,82.832
					c-2.539,0-4.604,2.065-4.604,4.604v5.961c0,4.292,3.492,7.784,7.785,7.784h8.618c4.292,0,7.785-3.492,7.785-7.784v-5.961
					c0-2.539-2.065-4.604-4.604-4.604H77.716z"/>
			</g>
		</g>
		<g>
			<g>
				<path d="M104.664,254.946c-1.381,0-2.5-1.119-2.5-2.5V211.5c0-1.381,1.119-2.5,2.5-2.5s2.5,1.119,2.5,2.5v40.946
					C107.164,253.827,106.045,254.946,104.664,254.946z"/>
			</g>
		</g>
		<g>
			<g>
				<path d="M202.229,256h-49.665c-2.897,0-5.254-2.356-5.254-5.254v-4.077c0-2.897,2.357-5.254,5.254-5.254h49.665
					c2.897,0,5.254,2.356,5.254,5.254v4.077C207.483,253.644,205.126,256,202.229,256z M152.565,246.415
					c-0.14,0-0.254,0.114-0.254,0.254v4.077c0,0.14,0.114,0.254,0.254,0.254h49.665c0.14,0,0.254-0.114,0.254-0.254v-4.077
					c0-0.14-0.114-0.254-0.254-0.254H152.565z"/>
			</g>
		</g>
		<g>
			<g>
				<path d="M177.397,174.867c-5.988,0-10.86-4.872-10.86-10.86s4.872-10.86,10.86-10.86s10.86,4.872,10.86,10.86
					S183.385,174.867,177.397,174.867z M177.397,158.146c-3.231,0-5.86,2.629-5.86,5.86s2.629,5.86,5.86,5.86
					c3.231,0,5.86-2.629,5.86-5.86S180.628,158.146,177.397,158.146z"/>
			</g>
		</g>
		<g>
			<g>
				<path d="M210.958,171.3h-26.291c-1.381,0-2.5-1.119-2.5-2.5s1.119-2.5,2.5-2.5h26.291c0.604,0,1.096-0.491,1.096-1.096v-2.395
					c0-0.604-0.492-1.096-1.096-1.096h-26.145c-1.381,0-2.5-1.119-2.5-2.5s1.119-2.5,2.5-2.5h26.145
					c3.361,0,6.096,2.734,6.096,6.096v2.395C217.053,168.565,214.319,171.3,210.958,171.3z"/>
			</g>
		</g>
		<g>
			<g>
				<path d="M169.844,171.3h-26.007c-3.361,0-6.095-2.734-6.095-6.096v-2.395c0-3.361,2.734-6.096,6.095-6.096h25.976
					c1.381,0,2.5,1.119,2.5,2.5s-1.119,2.5-2.5,2.5h-25.976c-0.604,0-1.095,0.491-1.095,1.096v2.395
					c0,0.604,0.491,1.096,1.095,1.096h26.007c1.381,0,2.5,1.119,2.5,2.5S171.225,171.3,169.844,171.3z"/>
			</g>
		</g>
		<g>
			<g>
				<path d="M177.397,157.218c-1.381,0-2.5-1.119-2.5-2.5v-5.573c0-1.381,1.119-2.5,2.5-2.5s2.5,1.119,2.5,2.5v5.573
					C179.897,156.099,178.778,157.218,177.397,157.218z"/>
			</g>
		</g>
		<g>
			<g>
				<path d="M182.189,229.792c-1.381,0-2.5-1.119-2.5-2.5V171.5c0-1.381,1.119-2.5,2.5-2.5s2.5,1.119,2.5,2.5v55.792
					C184.689,228.673,183.57,229.792,182.189,229.792z"/>
			</g>
		</g>
		<g>
			<g>
				<path d="M172.604,229.792c-1.381,0-2.5-1.119-2.5-2.5v-55.854c0-1.381,1.119-2.5,2.5-2.5s2.5,1.119,2.5,2.5v55.854
					C175.104,228.673,173.985,229.792,172.604,229.792z"/>
			</g>
		</g>
		<g>
			<g>
				<g>
					<path d="M153.71,245.75c-1.381,0-2.5-1.119-2.5-2.5v-4.002c0-7.525,6.122-13.647,13.647-13.647h25.08
						c7.525,0,13.647,6.122,13.647,13.647v3.814c0,1.381-1.119,2.5-2.5,2.5s-2.5-1.119-2.5-2.5v-3.814
						c0-4.769-3.879-8.647-8.647-8.647h-25.08c-4.768,0-8.647,3.879-8.647,8.647v4.002C156.21,244.631,155.091,245.75,153.71,245.75
						z"/>
				</g>
			</g>
		</g>
		<g>
			<g>
				<path d="M195.044,201.983c-0.351,0-0.708-0.075-1.048-0.231c-1.253-0.58-1.799-2.065-1.22-3.318l13.934-30.136
					c0.579-1.254,2.066-1.797,3.318-1.221c1.253,0.58,1.799,2.065,1.22,3.318l-13.934,30.136
					C196.893,201.445,195.989,201.983,195.044,201.983z"/>
			</g>
		</g>
		<g>
			<g>
				<path d="M222.915,201.983c-0.944,0-1.848-0.538-2.271-1.452l-13.934-30.136c-0.58-1.253-0.033-2.738,1.22-3.318
					c1.255-0.576,2.739-0.033,3.318,1.221l13.934,30.136c0.58,1.253,0.033,2.738-1.22,3.318
					C223.623,201.908,223.266,201.983,222.915,201.983z"/>
			</g>
		</g>
		<g>
			<g>
				<path d="M131.879,201.983c-0.351,0-0.708-0.075-1.048-0.231c-1.253-0.58-1.799-2.065-1.22-3.318l13.934-30.136
					c0.58-1.254,2.066-1.797,3.318-1.221c1.253,0.58,1.799,2.065,1.22,3.318l-13.934,30.136
					C133.728,201.445,132.824,201.983,131.879,201.983z"/>
			</g>
		</g>
		<g>
			<g>
				<path d="M159.75,201.983c-0.944,0-1.848-0.538-2.271-1.452l-13.934-30.136c-0.58-1.253-0.033-2.738,1.22-3.318
					c1.255-0.576,2.739-0.033,3.318,1.221l13.934,30.136c0.58,1.253,0.033,2.738-1.22,3.318
					C160.458,201.908,160.101,201.983,159.75,201.983z"/>
			</g>
		</g>
		<g>
			<g>
				<path d="M215.018,218.844h-12.076c-7.525,0-13.647-6.122-13.647-13.646v-2.301c0-2.684,2.183-4.866,4.867-4.866h29.636
					c2.684,0,4.867,2.183,4.867,4.866v2.301C228.664,212.722,222.542,218.844,215.018,218.844z M194.295,203.03v2.167
					c0,4.768,3.879,8.646,8.647,8.646h12.076c4.768,0,8.646-3.879,8.646-8.646v-2.167H194.295z M223.797,203.03h0.01H223.797z"/>
			</g>
		</g>
		<g>
			<g>
				<path d="M151.853,218.844h-12.076c-7.525,0-13.647-6.122-13.647-13.646v-2.301c0-2.684,2.183-4.866,4.867-4.866h29.636
					c2.684,0,4.867,2.183,4.867,4.866v2.301C165.499,212.722,159.377,218.844,151.853,218.844z M131.13,203.03v2.167
					c0,4.768,3.879,8.646,8.647,8.646h12.076c4.768,0,8.646-3.879,8.646-8.646v-2.167H131.13z M160.632,203.03h0.01H160.632z"/>
			</g>
		</g>
		<g>
			<g>
				<path d="M118.682,175.391c-1.332,0-2.604-0.555-3.511-1.536l-8.157-8.838c-1.646-1.784-1.626-4.559,0.047-6.317l15.687-16.491
					c1.629-1.714,4.374-1.808,6.117-0.215l8.133,7.425c0,0,0,0.001,0,0.001c1.722,1.572,1.908,4.214,0.423,6.013l-15.055,18.224
					c-0.878,1.063-2.173,1.695-3.552,1.734C118.771,175.391,118.726,175.391,118.682,175.391z M110.929,161.887l7.744,8.39
					l14.513-17.568l-7.239-6.608L110.929,161.887z M133.625,153.109l0.002,0.001L133.625,153.109z"/>
			</g>
		</g>
		<g>
			<g>
				<path d="M90.646,175.391c-0.044,0-0.088,0-0.132-0.002c-1.379-0.038-2.674-0.67-3.552-1.733l-15.054-18.224
					c-1.486-1.799-1.301-4.44,0.423-6.014l8.134-7.426c1.744-1.593,4.488-1.495,6.116,0.216l15.687,16.491
					c1.673,1.758,1.694,4.533,0.048,6.317l-8.158,8.837C93.251,174.835,91.978,175.391,90.646,175.391z M76.143,152.708
					l14.512,17.568l7.744-8.39L83.381,146.1L76.143,152.708z M75.704,153.109l-0.002,0.002
					C75.702,153.112,75.702,153.11,75.704,153.109z M74.016,151.265h0.01H74.016z"/>
			</g>
		</g>
		<g>
			<g>
				<path d="M92.11,213.507c-0.664,0-1.337-0.114-1.996-0.355l-7.312-2.677c-3.015-1.104-4.569-4.454-3.466-7.47l12.089-33.018
					c0.476-1.296,1.914-1.96,3.207-1.488c1.297,0.475,1.963,1.911,1.488,3.207l-12.089,33.018c-0.156,0.426,0.063,0.899,0.489,1.056
					l7.312,2.677c0.427,0.156,0.899-0.063,1.055-0.489l12.948-35.364c0.475-1.296,1.914-1.959,3.207-1.488
					c1.297,0.475,1.963,1.911,1.488,3.207l-12.948,35.364C96.721,212.042,94.485,213.507,92.11,213.507z"/>
			</g>
		</g>
		<g>
			<g>
				<path d="M117.218,213.507c-2.375,0-4.61-1.465-5.474-3.821l-9.217-25.176c-0.475-1.297,0.191-2.732,1.488-3.207
					c1.293-0.472,2.732,0.192,3.207,1.488l9.217,25.176c0.156,0.426,0.629,0.645,1.056,0.489l7.312-2.677
					c0.426-0.156,0.645-0.63,0.489-1.056l-12.089-33.018c-0.475-1.296,0.191-2.732,1.488-3.207c1.293-0.472,2.732,0.192,3.207,1.488
					l12.089,33.018c1.104,3.016-0.451,6.366-3.466,7.47l-7.312,2.677C118.556,213.393,117.881,213.507,117.218,213.507z"/>
			</g>
		</g>
		<g>
			<g>
				<path d="M104.664,176c-4.216,0-8.188-2.066-10.624-5.528c-0.794-1.129-0.523-2.688,0.605-3.483
					c1.128-0.795,2.688-0.524,3.483,0.606c1.501,2.132,3.944,3.405,6.535,3.405c2.551,0,4.973-1.242,6.477-3.322
					c0.809-1.117,2.373-1.367,3.491-0.562c1.119,0.81,1.37,2.372,0.561,3.491C112.751,173.984,108.815,176,104.664,176z"/>
			</g>
		</g>
		<g>
			<g>
				<path d="M141.625,103.486c-0.472,0-0.938-0.023-1.398-0.065c-1.375-0.125-2.388-1.341-2.263-2.716s1.343-2.396,2.717-2.263
					c0.311,0.028,0.625,0.044,0.944,0.044c6.617,0,12.001-5.383,12.001-12s-5.384-12.001-12.001-12.001
					c-0.387,0-0.786,0.021-1.186,0.063c-1.377,0.139-2.602-0.857-2.743-2.231c-0.142-1.373,0.857-2.602,2.23-2.743
					c10.139-1.045,18.699,6.981,18.699,16.913C158.625,95.86,150.999,103.486,141.625,103.486z"/>
			</g>
		</g>
		<g>
			<g>
				<path d="M104.664,135.687c-20.529,0-37.231-16.702-37.231-37.231V77.771c0-0.784,0.368-1.522,0.994-1.995
					c0.626-0.472,1.437-0.624,2.191-0.409c25.918,7.383,43.875-10.649,48.761-16.353h0c0.85-0.991,2.034-1.581,3.335-1.662
					c1.282-0.08,2.589,0.377,3.554,1.254c3.951,3.59,7.839,5.847,11.556,6.708c2.397,0.556,4.072,2.646,4.072,5.081v28.06
					C141.896,118.984,125.194,135.687,104.664,135.687z M72.433,80.979v17.477c0,17.772,14.459,32.231,32.231,32.231
					c17.773,0,32.232-14.459,32.232-32.231v-28.06c0-0.113-0.101-0.187-0.201-0.21c-4.515-1.046-9.109-3.656-13.657-7.759
					C117.681,68.626,99.246,86.862,72.433,80.979z M123.175,62.269l-0.001,0.001C123.174,62.27,123.174,62.27,123.175,62.269
					L123.175,62.269z"/>
			</g>
		</g>
		<g>
			<g>
				<path d="M67.704,103.486c-9.374,0-17-7.626-17-17c0-4.668,1.958-9.181,5.371-12.381c2.03-1.904,4.983-2.411,7.522-1.289
					c2.328,1.028,4.69,1.887,7.021,2.551c1.328,0.378,2.098,1.762,1.719,3.09c-0.378,1.327-1.761,2.098-3.089,1.719
					c-2.553-0.728-5.133-1.665-7.671-2.785c-0.701-0.311-1.518-0.167-2.083,0.362c-2.444,2.292-3.791,5.394-3.791,8.733
					c0,6.617,5.383,12,12,12c0.378,0,0.763-0.022,1.176-0.067c1.374-0.161,2.608,0.838,2.76,2.209
					c0.152,1.373-0.837,2.608-2.21,2.76C68.832,103.454,68.268,103.486,67.704,103.486z"/>
			</g>
		</g>
		<g>
			<g>
				<g>
					<path d="M57.436,78.422c-1.381,0-2.5-1.119-2.5-2.5v-8.167c0-27.42,22.308-49.729,49.729-49.729
						c27.421,0,49.729,22.309,49.729,49.729v8.016c0,1.381-1.119,2.5-2.5,2.5s-2.5-1.119-2.5-2.5v-8.016
						c0-24.663-20.065-44.729-44.729-44.729S59.936,43.092,59.936,67.755v8.167C59.936,77.303,58.816,78.422,57.436,78.422z"/>
				</g>
			</g>
		</g>
		<g>
			<g>
				<path d="M136.164,134h-14.372c-1.381,0-2.5-1.119-2.5-2.5s1.119-2.5,2.5-2.5h14.372c11.304,0,20.5-9.196,20.5-20.5
					c0-4.509-1.438-8.787-4.157-12.373c-0.834-1.101-0.619-2.668,0.481-3.503c1.099-0.835,2.668-0.619,3.502,0.481
					c3.384,4.462,5.173,9.786,5.173,15.395C161.664,122.561,150.225,134,136.164,134z"/>
			</g>
		</g>
		<g>
			<g>
				<path d="M87.391,134H73.164c-14.061,0-25.5-11.439-25.5-25.5c0-5.58,1.772-10.881,5.125-15.329
					c0.832-1.102,2.398-1.323,3.501-0.491c1.103,0.831,1.323,2.398,0.492,3.501c-2.694,3.574-4.118,7.834-4.118,12.319
					c0,11.304,9.196,20.5,20.5,20.5h14.227c1.381,0,2.5,1.119,2.5,2.5S88.772,134,87.391,134z"/>
			</g>
		</g>
		<g>
			<g>
				<path d="M122.967,147.566c-0.784,0-1.557-0.368-2.043-1.058c-1.465-2.072-2.239-4.492-2.239-6.997v-9.855
					c0-1.381,1.119-2.5,2.5-2.5s2.5,1.119,2.5,2.5v9.855c0,1.466,0.457,2.888,1.322,4.112c0.797,1.127,0.529,2.688-0.599,3.484
					C123.969,147.418,123.466,147.566,122.967,147.566z"/>
			</g>
		</g>
		<g>
			<g>
				<path d="M107.896,164h-6.334c-1.381,0-2.5-1.119-2.5-2.5s1.119-2.5,2.5-2.5h6.334c1.381,0,2.5,1.119,2.5,2.5
					S109.277,164,107.896,164z"/>
			</g>
		</g>
		<g>
			<g>
				<path d="M86.635,147.158c-0.458,0-0.922-0.126-1.337-0.39c-1.166-0.739-1.511-2.284-0.771-3.45
					c0.731-1.152,1.118-2.469,1.118-3.807v-9.98c0-1.381,1.119-2.5,2.5-2.5s2.5,1.119,2.5,2.5v9.98c0,2.289-0.656,4.531-1.896,6.486
					C88.272,146.748,87.462,147.158,86.635,147.158z"/>
			</g>
		</g>
		<g>
			<g>
				<path class="st7" d="M46.822,125.33c-4.498-0.838-8.043-4.31-8.898-8.716c-0.043-0.221-0.352-0.221-0.395,0
					c-0.855,4.406-4.4,7.879-8.898,8.716c-0.226,0.042-0.226,0.345,0,0.387c4.498,0.838,8.043,4.31,8.898,8.717
					c0.043,0.221,0.352,0.221,0.395,0c0.855-4.406,4.4-7.879,8.898-8.717C47.047,125.675,47.047,125.373,46.822,125.33z"/>
			</g>
		</g>
		<g>
			<g>
				<path class="st9" d="M177.515,113.101c-2.862-0.533-5.118-2.743-5.663-5.547c-0.027-0.141-0.224-0.141-0.251,0
					c-0.544,2.804-2.8,5.014-5.663,5.547c-0.144,0.027-0.144,0.219,0,0.246c2.862,0.533,5.118,2.743,5.663,5.547
					c0.027,0.141,0.224,0.141,0.251,0c0.544-2.804,2.8-5.014,5.663-5.547C177.658,113.32,177.658,113.128,177.515,113.101z"/>
			</g>
		</g>
		<g>
			<g>
				<path class="st6" d="M158.246,25.75h2.33v-2.33c0-1.744,1.413-3.157,3.157-3.157s3.157,1.413,3.157,3.157v2.33h2.329
					c1.744,0,3.157,1.413,3.157,3.157s-1.413,3.157-3.157,3.157h-2.329v2.33c0,1.744-1.413,3.157-3.157,3.157
					s-3.157-1.413-3.157-3.157v-2.33h-2.33c-1.744,0-3.157-1.413-3.157-3.157S156.502,25.75,158.246,25.75z"/>
			</g>
		</g>
		<g>
			<g>
				<circle class="st6" cx="25.755" cy="154.825" r="3.377"/>
			</g>
		</g>
		<g>
			<g>
				<circle class="st8" cx="150.755" cy="3.377" r="3.377"/>
			</g>
		</g>
	</g>
</g>
<g id="Layer_53">
</g>
<g id="Layer_54">
</g>
<g id="Layer_55">
</g>
<g id="Layer_56">
</g>
<g id="Layer_57">
</g>
<g id="Layer_58">
</g>
<g id="Layer_59">
</g>
<g id="Layer_60">
</g>
<g id="Layer_61">
</g>
<g id="Layer_62">
</g>
<g id="Layer_63">
</g>
<g id="Layer_64">
</g>
<g id="Layer_65">
</g>
<g id="Layer_66">
</g>
<g id="Layer_67">
</g>
<g id="Layer_68">
</g>
<g id="Layer_69">
</g>
<g id="Layer_70">
</g>
<g id="Layer_71">
</g>
<g id="Layer_72">
</g>
<g id="Layer_73">
</g>
<g id="Layer_74">
</g>
<g id="Layer_75">
</g>
<g id="Layer_76">
</g>
<g id="Layer_77">
</g>
<g id="Layer_78">
</g>
<g id="Layer_79">
</g>
<g id="Layer_80">
</g>
</svg>
