<?xml version="1.0" encoding="utf-8"?>
<!-- Generator: Adobe Illustrator 24.0.0, SVG Export Plug-In . SVG Version: 6.00 Build 0)  -->
<svg version="1.1" xmlns="http://www.w3.org/2000/svg" xmlns:xlink="http://www.w3.org/1999/xlink" x="0px" y="0px"
	 viewBox="0 0 256 256" style="enable-background:new 0 0 256 256;" xml:space="preserve">
<style type="text/css">
	.st0{fill:#3A70BF;}
	.st1{fill:#EDF4FC;}
	.st2{fill:#C7D7E5;}
	.st3{fill:#F9D0B4;}
	.st4{fill:#5B5D60;}
	.st5{fill:#5290DB;}
	.st6{fill:#70D6F9;}
	.st7{fill:#F5C84C;}
	.st8{fill:#FC657E;}
	.st9{fill:#87D147;}
	.st10{fill:#FCDD86;}
	.st11{fill:#9BE5F9;}
	.st12{fill:#B2E26D;}
	.st13{fill:#754E34;}
	.st14{fill:#FCA265;}
	.st15{fill:#818182;}
	.st16{fill:#F94EED;}
	.st17{fill:#FFC197;}
	.st18{fill:#3CAADC;}
	.st19{fill:#DAE6F1;}
	.st20{fill:#57AF12;}
	.st21{fill:#EF4460;}
	.st22{fill:#FFF0CA;}
	.st23{fill:#F98FA6;}
	.st24{fill:#EDB311;}
	.st25{fill:#FC8C48;}
	.st26{fill:#FCB9CB;}
	.st27{fill:#96BC71;}
	.st28{fill:#78A352;}
	.st29{fill:#B8DD90;}
	.st30{fill:#6FAFEF;}
	.st31{fill:#29589F;}
	.st32{fill:#414344;}
	.st33{fill:#9B6B4B;}
	.st34{fill:#73B1EF;}
</style>
<g id="Layer_1">
</g>
<g id="Layer_2">
</g>
<g id="Layer_3">
</g>
<g id="Layer_4">
</g>
<g id="Layer_5">
</g>
<g id="Layer_6">
</g>
<g id="Layer_7">
</g>
<g id="Layer_8">
</g>
<g id="Layer_9">
</g>
<g id="Layer_10">
</g>
<g id="Layer_11">
</g>
<g id="Layer_12">
</g>
<g id="Layer_13">
</g>
<g id="Layer_14">
</g>
<g id="Layer_15">
</g>
<g id="Layer_16">
</g>
<g id="Layer_17">
</g>
<g id="Layer_18">
</g>
<g id="Layer_19">
</g>
<g id="Layer_20">
</g>
<g id="Layer_21">
</g>
<g id="Layer_22">
</g>
<g id="Layer_23">
</g>
<g id="Layer_24">
</g>
<g id="Layer_25">
</g>
<g id="Layer_26">
</g>
<g id="Layer_27">
</g>
<g id="Layer_28">
</g>
<g id="Layer_29">
</g>
<g id="Layer_30">
</g>
<g id="Layer_31">
</g>
<g id="Layer_32">
</g>
<g id="Layer_33">
</g>
<g id="Layer_34">
</g>
<g id="Layer_35">
</g>
<g id="Layer_36">
</g>
<g id="Layer_37">
</g>
<g id="Layer_38">
</g>
<g id="Layer_39">
</g>
<g id="Layer_40">
</g>
<g id="Layer_41">
</g>
<g id="Layer_42">
	<g>
		<g>
			<g>
				<path class="st2" d="M154.815,156.925l-9.149-2.31c-2.075-0.522-4.089-1.263-6.009-2.209l-8.587-4.234
					c-3.298-1.626-5.386-4.984-5.386-8.66v-10.533c-4.92,2.682-10.551,4.208-16.52,4.208c-5.97,0-11.6-1.526-16.52-4.208v10.533
					c0,3.677-2.088,7.034-5.386,8.66l-8.587,4.234c-1.919,0.946-3.933,1.687-6.009,2.209l-24.833,6.269
					c-6.044,1.521-10.396,6.796-10.743,13.019l-2.744,75.418c-0.127,2.269,1.68,4.179,3.953,4.179h21.99
					c1.478,0,2.677-1.198,2.677-2.677v-47.143l3.883,12.439c2.539,8.133,3.83,16.604,3.83,25.124v9.58
					c0,1.479,1.198,2.677,2.677,2.677h30.345h10.936h30.345c1.478,0,2.677-1.198,2.677-2.677v-9.58c0-8.52,1.291-16.991,3.83-25.124
					l3.33-10.669V156.925z"/>
			</g>
		</g>
		<g>
			<g>
				<g>
					<path class="st3" d="M130.288,147.715c-2.834-1.746-4.604-4.832-4.604-8.204v-10.533c-4.92,2.682-10.551,4.208-16.52,4.208
						c-5.97,0-11.6-1.526-16.52-4.208v10.533c0,3.372-1.769,6.458-4.604,8.204l1.447,5.641c5.376,4.403,12.228,7.062,19.677,7.062
						c7.449,0,14.302-2.659,19.677-7.062L130.288,147.715z"/>
				</g>
			</g>
		</g>
		<g>
			<g>
				<path class="st3" d="M146.125,71.985c-0.759,0-1.502,0.064-2.229,0.177c0,3.696,0,20.799,0,26.293v0v0
					c0,0.783-0.036,1.558-0.088,2.329c0.756,0.122,1.526,0.202,2.316,0.202c8.009,0,14.501-6.492,14.501-14.501
					C160.625,78.477,154.133,71.985,146.125,71.985z"/>
			</g>
		</g>
		<g>
			<g>
				<path class="st3" d="M125.777,60.642c-5.29,6.174-24.047,24.906-51.344,17.13v20.684c0,19.102,15.629,34.732,34.732,34.732l0,0
					c19.102,0,34.732-15.629,34.732-34.732v-28.06c0-1.276-0.893-2.358-2.136-2.646c-3.515-0.814-7.782-2.85-12.673-7.294
					C128.119,59.577,126.627,59.649,125.777,60.642z"/>
			</g>
		</g>
		<g>
			<g>
				<path class="st3" d="M74.433,77.771c-2.385-0.679-4.834-1.559-7.346-2.668c-1.619-0.715-3.511-0.386-4.803,0.825
					c-2.817,2.641-4.581,6.39-4.581,10.557c0,8.008,6.492,14.501,14.501,14.501c0.79,0,1.56-0.08,2.316-0.202
					c-0.052-0.771-0.088-1.546-0.088-2.329V77.771z"/>
			</g>
		</g>
		<g>
			<g>
				<g>
					<path class="st4" d="M62.284,75.929c1.291-1.211,3.183-1.54,4.803-0.825c2.512,1.109,4.961,1.988,7.346,2.668
						c27.297,7.776,46.055-10.956,51.344-17.13c0.85-0.992,2.342-1.065,3.309-0.186c4.892,4.445,9.159,6.48,12.673,7.294
						c1.243,0.288,2.136,1.37,2.136,2.646v1.766c0.727-0.113,1.47-0.177,2.229-0.177c4.012,0,7.643,1.63,10.268,4.263v-8.494
						c0-25.976-21.253-47.229-47.229-47.229c-25.976,0-47.229,21.253-47.229,47.229v8.535
						C62.053,76.171,62.162,76.043,62.284,75.929z"/>
				</g>
			</g>
		</g>
		<g>
			<g>
				<path class="st4" d="M154.815,155.61c0-3.611,2.928-6.539,6.539-6.539h0.468c-3.815-10.669-13.6-18.528-9.983-27.571
					c4.1-10.251,3.995-18.131,2.92-23.384c-2.414,1.795-5.395,2.871-8.634,2.871c-0.79,0-1.56-0.081-2.316-0.202
					c-0.816,12.152-7.945,22.646-18.124,28.194v10.533c0,3.677,2.088,7.034,5.386,8.66l8.587,4.234
					c1.919,0.946,3.934,1.687,6.009,2.209l9.149,2.31V155.61z"/>
			</g>
		</g>
		<g>
			<g>
				<path class="st4" d="M72.663,154.615c2.075-0.523,4.089-1.263,6.009-2.209l8.587-4.234c3.298-1.626,5.386-4.984,5.386-8.66
					v-10.533c-10.179-5.548-17.308-16.042-18.124-28.194c-0.756,0.122-1.526,0.202-2.316,0.202c-3.239,0-6.22-1.075-8.634-2.87
					c-1.075,5.253-1.18,13.133,2.92,23.384c4.655,11.637-12.887,21.309-11.338,37.536L72.663,154.615z"/>
			</g>
		</g>
		<g>
			<g>
				<path class="st31" d="M154.815,156.925l-9.149-2.31c-2.075-0.522-4.089-1.263-6.009-2.209l-8.587-4.234
					c-0.274-0.135-0.526-0.299-0.782-0.457l-20.446,79.734c-0.449,1.75-0.677,3.577-0.677,5.415V253.5h5.468h30.345
					c1.478,0,2.677-1.198,2.677-2.677v-9.58c0-8.52,1.291-16.991,3.83-25.124l3.33-10.669V156.925z"/>
			</g>
		</g>
		<g>
			<g>
				<path class="st0" d="M144.002,154.143c-1.49-0.467-2.944-1.045-4.346-1.737l-8.587-4.234c-0.274-0.135-0.526-0.299-0.782-0.457
					l-20.446,79.733c-0.325,1.267-0.53,2.574-0.621,3.897l31.937-39.785c0.578-0.72,0.706-1.828,0.315-2.722l-4.727-10.796
					c-0.529-1.207-0.092-2.719,0.933-3.23l7.31-3.643c0.813-0.405,1.285-1.468,1.128-2.541L144.002,154.143z"/>
			</g>
		</g>
		<g>
			<g>
				<path class="st31" d="M88.04,147.715c-0.256,0.158-0.508,0.322-0.782,0.457l-8.587,4.234c-1.919,0.946-3.933,1.687-6.009,2.209
					l-24.833,6.269c-6.044,1.521-10.396,6.796-10.743,13.019l-2.744,75.418c-0.127,2.269,1.68,4.179,3.953,4.179h21.99
					c1.478,0,2.677-1.198,2.677-2.677v-47.143l3.883,12.439c2.539,8.133,3.83,16.604,3.83,25.124v9.58
					c0,1.478,1.198,2.677,2.677,2.677h30.345h5.468v-20.636c0-1.838-0.229-3.664-0.677-5.415L88.04,147.715z"/>
			</g>
		</g>
		<g>
			<g>
				<path class="st0" d="M108.487,227.449L88.04,147.715c-0.256,0.158-0.508,0.322-0.782,0.457l-8.587,4.234
					c-1.402,0.691-2.856,1.27-4.346,1.737l-2.114,14.487c-0.157,1.074,0.315,2.136,1.128,2.541l7.31,3.643
					c1.025,0.511,1.462,2.022,0.933,3.23l-4.727,10.796c-0.391,0.894-0.263,2.002,0.315,2.722l31.937,39.785
					C109.017,230.023,108.812,228.716,108.487,227.449z"/>
			</g>
		</g>
		<g>
			<g>
				<g>
					<path class="st1" d="M122.751,174.613c0.166,0.16,0.349,0.293,0.53,0.429l5.559-21.677c-4.838,3.958-10.874,6.497-17.461,6.965
						C114.752,166.372,119.592,171.566,122.751,174.613z"/>
				</g>
			</g>
		</g>
		<g>
			<g>
				<g>
					<path class="st1" d="M95.048,175.042c0.181-0.135,0.364-0.269,0.53-0.429c3.159-3.047,7.999-8.241,11.373-14.283
						c-6.587-0.469-12.623-3.008-17.461-6.965L95.048,175.042z"/>
				</g>
			</g>
		</g>
		<g>
			<g>
				<path class="st1" d="M215.125,149.071h-53.772c-3.611,0-6.539,2.927-6.539,6.539v95.008c0,1.592,1.29,2.882,2.882,2.882h61.086
					c1.592,0,2.882-1.29,2.882-2.882V155.61C221.664,151.999,218.737,149.071,215.125,149.071z"/>
			</g>
		</g>
		<g>
			<g>
				<g>
					<path d="M130.072,150.08c-0.468,0-0.941-0.131-1.363-0.406c-3.459-2.255-5.524-6.054-5.524-10.162V129.5
						c0-1.381,1.119-2.5,2.5-2.5s2.5,1.119,2.5,2.5v10.012c0,2.412,1.217,4.645,3.255,5.974c1.157,0.754,1.483,2.303,0.729,3.459
						C131.689,149.68,130.889,150.08,130.072,150.08z"/>
				</g>
			</g>
			<g>
				<g>
					<path d="M109.164,162.918c-7.579,0-15.033-2.63-20.988-7.407c-1.077-0.864-1.25-2.437-0.386-3.514
						c0.864-1.077,2.438-1.25,3.514-0.386c5.145,4.126,11.321,6.307,17.86,6.307c6.526,0,12.692-2.173,17.831-6.284
						c1.077-0.862,2.651-0.689,3.514,0.391c0.862,1.078,0.688,2.651-0.391,3.514C124.169,160.297,116.728,162.918,109.164,162.918z"
						/>
				</g>
			</g>
			<g>
				<g>
					<path d="M88.363,150.01c-0.806,0-1.596-0.389-2.079-1.107c-0.769-1.147-0.463-2.7,0.683-3.469
						c1.989-1.334,3.177-3.548,3.177-5.921v-9.97c0-1.381,1.119-2.5,2.5-2.5s2.5,1.119,2.5,2.5v9.97
						c0,4.043-2.015,7.809-5.391,10.074C89.326,149.872,88.841,150.01,88.363,150.01z"/>
				</g>
			</g>
		</g>
		<g>
			<g>
				<path d="M146.125,103.487c-0.508,0-1.018-0.026-1.557-0.081c-1.374-0.139-2.375-1.365-2.236-2.739s1.367-2.373,2.739-2.236
					c0.347,0.035,0.698,0.056,1.054,0.056c6.617,0,12.001-5.384,12.001-12.001s-5.384-12-12.001-12
					c-0.366,0-0.728,0.018-1.084,0.052c-1.381,0.131-2.595-0.879-2.724-2.253c-0.13-1.375,0.879-2.594,2.253-2.724
					c10.067-0.949,18.556,7.042,18.556,16.926C163.125,95.86,155.499,103.487,146.125,103.487z"/>
			</g>
		</g>
		<g>
			<g>
				<path d="M109.164,135.687c-20.529,0-37.231-16.702-37.231-37.232V77.771c0-0.784,0.368-1.523,0.994-1.995
					s1.437-0.625,2.191-0.409c25.918,7.382,43.875-10.649,48.761-16.352l0,0c0.849-0.991,2.033-1.581,3.333-1.663
					c1.294-0.078,2.59,0.375,3.556,1.253c3.952,3.59,7.84,5.848,11.557,6.709c2.397,0.556,4.072,2.645,4.072,5.081v28.06
					C146.396,118.985,129.694,135.687,109.164,135.687z M76.933,80.979v17.476c0,17.773,14.459,32.232,32.231,32.232
					c17.773,0,32.232-14.459,32.232-32.232v-28.06c0-0.113-0.101-0.187-0.201-0.21c-4.515-1.046-9.109-3.656-13.656-7.759
					C122.181,68.626,103.753,86.861,76.933,80.979z M127.675,62.268C127.675,62.269,127.675,62.269,127.675,62.268L127.675,62.268z"
					/>
			</g>
		</g>
		<g>
			<g>
				<path d="M72.204,103.487c-9.374,0-17-7.626-17-17.001c0-4.667,1.958-9.18,5.371-12.381c2.03-1.904,4.982-2.409,7.523-1.288
					c2.331,1.029,4.693,1.888,7.02,2.55c1.328,0.378,2.098,1.761,1.72,3.089c-0.378,1.329-1.761,2.098-3.089,1.72
					c-2.549-0.726-5.129-1.663-7.671-2.785c-0.703-0.31-1.519-0.168-2.083,0.361c-2.444,2.292-3.791,5.394-3.791,8.733
					c0,6.617,5.383,12.001,12,12.001c0.318,0,0.631-0.017,0.941-0.045c1.375-0.127,2.592,0.885,2.719,2.259
					c0.127,1.375-0.885,2.592-2.259,2.719C73.143,103.463,72.677,103.487,72.204,103.487z"/>
			</g>
		</g>
		<g>
			<g>
				<g>
					<path d="M61.936,78.354c-1.381,0-2.5-1.119-2.5-2.5v-8.1c0-27.421,22.308-49.729,49.729-49.729
						c27.421,0,49.729,22.308,49.729,49.729v7.87c0,1.381-1.119,2.5-2.5,2.5s-2.5-1.119-2.5-2.5v-7.87
						c0-24.664-20.065-44.729-44.729-44.729S64.436,43.091,64.436,67.755v8.1C64.436,77.235,63.316,78.354,61.936,78.354z"/>
				</g>
			</g>
		</g>
		<g>
			<g>
				<path d="M109.164,117.757c-4.776,0-9.262-1.95-11.999-5.215c-0.887-1.058-0.748-2.635,0.31-3.522
					c1.059-0.887,2.635-0.747,3.522,0.31c1.798,2.146,4.852,3.427,8.167,3.427c3.315,0,6.369-1.281,8.167-3.427
					c0.887-1.058,2.463-1.197,3.522-0.31c1.058,0.887,1.197,2.464,0.31,3.522C118.426,115.808,113.94,117.757,109.164,117.757z"/>
			</g>
		</g>
		<g>
			<g>
				<circle cx="126.454" cy="90.816" r="4"/>
			</g>
		</g>
		<g>
			<g>
				<circle cx="92.875" cy="90.816" r="4"/>
			</g>
		</g>
		<g>
			<g>
				<path d="M113.056,91.171h-7.783c-1.381,0-2.5-1.119-2.5-2.5s1.119-2.5,2.5-2.5h7.783c1.381,0,2.5,1.119,2.5,2.5
					S114.437,91.171,113.056,91.171z"/>
			</g>
		</g>
		<g>
			<g>
				<path d="M132.931,106.182h-8.618c-7.049,0-12.785-5.735-12.785-12.785v-5.961c0-5.295,4.308-9.604,9.604-9.604h14.979
					c5.296,0,9.604,4.308,9.604,9.604v5.961C145.716,100.447,139.98,106.182,132.931,106.182z M121.133,82.833
					c-2.539,0-4.604,2.065-4.604,4.604v5.961c0,4.293,3.492,7.785,7.785,7.785h8.618c4.292,0,7.785-3.492,7.785-7.785v-5.961
					c0-2.539-2.065-4.604-4.604-4.604H121.133z"/>
			</g>
		</g>
		<g>
			<g>
				<path d="M94.015,106.182h-8.618c-7.049,0-12.785-5.735-12.785-12.785v-5.961c0-5.295,4.308-9.604,9.604-9.604h14.979
					c5.296,0,9.604,4.308,9.604,9.604v5.961C106.8,100.447,101.064,106.182,94.015,106.182z M82.216,82.833
					c-2.539,0-4.604,2.065-4.604,4.604v5.961c0,4.293,3.492,7.785,7.785,7.785h8.618c4.292,0,7.785-3.492,7.785-7.785v-5.961
					c0-2.539-2.065-4.604-4.604-4.604H82.216z"/>
			</g>
		</g>
		<g>
			<g>
				<path class="st2" d="M205.018,149.071v-11.963c0-1.813-1.47-3.282-3.282-3.282h-26.992c-1.813,0-3.282,1.469-3.282,3.282v11.963
					H205.018z"/>
			</g>
		</g>
		<g>
			<g>
				<path d="M218.782,256h-61.085c-2.968,0-5.382-2.414-5.382-5.382V155.61c0-4.984,4.055-9.039,9.039-9.039h53.772
					c4.984,0,9.039,4.055,9.039,9.039v95.008C224.164,253.586,221.75,256,218.782,256z M161.354,151.571
					c-2.227,0-4.039,1.812-4.039,4.039v95.008c0,0.21,0.171,0.382,0.382,0.382h61.085c0.21,0,0.382-0.171,0.382-0.382V155.61
					c0-2.227-1.812-4.039-4.039-4.039H161.354z"/>
			</g>
		</g>
		<g>
			<g>
				<path d="M205.018,151.104c-1.381,0-2.5-1.119-2.5-2.5v-11.496c0-0.431-0.351-0.782-0.783-0.782h-26.992
					c-0.431,0-0.782,0.351-0.782,0.782v11.059c0,1.381-1.119,2.5-2.5,2.5s-2.5-1.119-2.5-2.5v-11.059
					c0-3.188,2.594-5.782,5.782-5.782h26.992c3.188,0,5.783,2.594,5.783,5.782v11.496
					C207.518,149.985,206.399,151.104,205.018,151.104z"/>
			</g>
		</g>
		<g>
			<g>
				<path d="M188.239,135c-1.381,0-2.5-1.119-2.5-2.5v-20c0-1.381,1.119-2.5,2.5-2.5s2.5,1.119,2.5,2.5v20
					C190.739,133.881,189.62,135,188.239,135z"/>
			</g>
		</g>
		<g>
			<g>
				<path d="M207.773,167.5h-38.4c-1.381,0-2.5-1.119-2.5-2.5s1.119-2.5,2.5-2.5h38.4c1.381,0,2.5,1.119,2.5,2.5
					S209.154,167.5,207.773,167.5z"/>
			</g>
		</g>
		<g>
			<g>
				<path d="M207.773,178.214h-38.4c-1.381,0-2.5-1.119-2.5-2.5s1.119-2.5,2.5-2.5h38.4c1.381,0,2.5,1.119,2.5,2.5
					S209.154,178.214,207.773,178.214z"/>
			</g>
		</g>
		<g>
			<g>
				<path d="M207.773,188.929h-38.4c-1.381,0-2.5-1.119-2.5-2.5s1.119-2.5,2.5-2.5h38.4c1.381,0,2.5,1.119,2.5,2.5
					S209.154,188.929,207.773,188.929z"/>
			</g>
		</g>
		<g>
			<g>
				<path d="M207.773,199.643h-38.4c-1.381,0-2.5-1.119-2.5-2.5s1.119-2.5,2.5-2.5h38.4c1.381,0,2.5,1.119,2.5,2.5
					S209.154,199.643,207.773,199.643z"/>
			</g>
		</g>
		<g>
			<g>
				<path d="M207.773,210.357h-38.4c-1.381,0-2.5-1.119-2.5-2.5s1.119-2.5,2.5-2.5h38.4c1.381,0,2.5,1.119,2.5,2.5
					S209.154,210.357,207.773,210.357z"/>
			</g>
		</g>
		<g>
			<g>
				<path d="M207.773,221.071h-38.4c-1.381,0-2.5-1.119-2.5-2.5s1.119-2.5,2.5-2.5h38.4c1.381,0,2.5,1.119,2.5,2.5
					S209.154,221.071,207.773,221.071z"/>
			</g>
		</g>
		<g>
			<g>
				<path d="M207.773,231.786h-38.4c-1.381,0-2.5-1.119-2.5-2.5s1.119-2.5,2.5-2.5h38.4c1.381,0,2.5,1.119,2.5,2.5
					S209.154,231.786,207.773,231.786z"/>
			</g>
		</g>
		<g>
			<g>
				<path d="M207.773,242.5h-38.4c-1.381,0-2.5-1.119-2.5-2.5s1.119-2.5,2.5-2.5h38.4c1.381,0,2.5,1.119,2.5,2.5
					S209.154,242.5,207.773,242.5z"/>
			</g>
		</g>
		<g>
			<g>
				<path class="st7" d="M183.822,28.33c-4.498-0.838-8.043-4.31-8.898-8.716c-0.043-0.221-0.352-0.221-0.395,0
					c-0.855,4.406-4.4,7.879-8.898,8.716c-0.226,0.042-0.226,0.345,0,0.387c4.498,0.838,8.043,4.31,8.898,8.717
					c0.043,0.221,0.352,0.221,0.395,0c0.855-4.406,4.4-7.879,8.898-8.717C184.047,28.675,184.047,28.373,183.822,28.33z"/>
			</g>
		</g>
		<g>
			<g>
				<path class="st6" d="M179.515,106.101c-2.862-0.533-5.118-2.743-5.663-5.547c-0.027-0.141-0.224-0.141-0.251,0
					c-0.544,2.804-2.8,5.014-5.663,5.547c-0.144,0.027-0.144,0.219,0,0.246c2.862,0.533,5.118,2.743,5.663,5.547
					c0.027,0.141,0.224,0.141,0.251,0c0.544-2.804,2.8-5.014,5.663-5.547C179.658,106.32,179.658,106.128,179.515,106.101z"/>
			</g>
		</g>
		<g>
			<g>
				<circle class="st7" cx="25.755" cy="154.825" r="3.377"/>
			</g>
		</g>
		<g>
			<g>
				<circle class="st8" cx="160.755" cy="3.377" r="3.377"/>
			</g>
		</g>
		<g>
			<g>
				<path class="st9" d="M32.246,122.75h2.33v-2.33c0-1.744,1.413-3.157,3.157-3.157c1.744,0,3.157,1.413,3.157,3.157v2.33h2.329
					c1.744,0,3.157,1.413,3.157,3.157s-1.413,3.157-3.157,3.157h-2.329v2.33c0,1.744-1.413,3.157-3.157,3.157
					c-1.744,0-3.157-1.413-3.157-3.157v-2.33h-2.33c-1.744,0-3.157-1.413-3.157-3.157S30.502,122.75,32.246,122.75z"/>
			</g>
		</g>
		<g>
			<g>
				<path d="M161.627,151.042c-1.009,0-1.959-0.615-2.338-1.615c-1.263-3.333-3.168-6.448-5.01-9.46
					c-3.721-6.084-7.569-12.376-4.761-19.396c3.008-7.519,4.016-14.529,2.997-20.836c-0.22-1.363,0.706-2.646,2.069-2.867
					c1.367-0.223,2.646,0.706,2.867,2.069c1.166,7.215,0.059,15.119-3.29,23.491c-1.787,4.466,0.502,8.583,4.384,14.93
					c1.962,3.208,3.992,6.526,5.421,10.297c0.489,1.291-0.161,2.734-1.452,3.224C162.221,150.99,161.922,151.042,161.627,151.042z"
					/>
			</g>
		</g>
		<g>
			<g>
				<path d="M55.105,160.999c-1.301,0-2.399-1.007-2.491-2.325c-0.606-8.609,3.525-15.361,7.169-21.318
					c3.882-6.346,6.171-10.462,4.385-14.927c-3.423-8.557-4.504-16.614-3.213-23.945c0.239-1.359,1.534-2.265,2.896-2.028
					c1.36,0.239,2.268,1.536,2.028,2.896c-1.126,6.4-0.14,13.541,2.932,21.221c2.808,7.019-1.041,13.31-4.763,19.393
					c-3.412,5.578-6.94,11.345-6.447,18.358c0.097,1.377-0.941,2.572-2.318,2.669C55.223,160.997,55.164,160.999,55.105,160.999z"/>
			</g>
		</g>
		<g>
			<g>
				<path d="M144.978,256h-35.813c-1.381,0-2.5-1.119-2.5-2.5v-20.636c0-2.05,0.254-4.081,0.756-6.036l20.446-79.733
					c0.198-0.77,0.75-1.4,1.487-1.697c0.736-0.298,1.571-0.228,2.248,0.191l0.133,0.083c0.146,0.09,0.289,0.184,0.444,0.261
					l8.584,4.232c1.757,0.866,3.612,1.548,5.514,2.027l8.382,2.116c1.339,0.338,2.15,1.697,1.812,3.036
					c-0.338,1.339-1.698,2.15-3.036,1.812l-8.381-2.116c-2.241-0.564-4.43-1.369-6.502-2.391l-6.623-3.265l-19.665,76.687
					c-0.398,1.549-0.6,3.162-0.6,4.793V251h33.313c0.098,0,0.177-0.079,0.177-0.177v-9.58c0-8.784,1.327-17.487,3.944-25.869
					l3.278-10.501c0.412-1.318,1.815-2.051,3.131-1.641c1.318,0.411,2.053,1.813,1.641,3.131l-3.278,10.501
					c-2.466,7.899-3.716,16.101-3.716,24.379v9.58C150.154,253.678,147.832,256,144.978,256z"/>
			</g>
		</g>
		<g>
			<g>
				<path d="M109.502,233.493c-0.549,0-1.102-0.18-1.563-0.55c-1.077-0.864-1.249-2.438-0.385-3.515l31.654-39.432
					c-0.007-0.003-0.004-0.104-0.026-0.155l-4.727-10.795c-1.075-2.453-0.129-5.355,2.108-6.47l7.083-3.529
					c0-0.017,0-0.036-0.003-0.056l-2-13.705c-0.2-1.366,0.747-2.635,2.113-2.834c1.362-0.203,2.635,0.746,2.834,2.113l2,13.704
					c0.313,2.141-0.71,4.254-2.486,5.14l-7.084,3.53c0,0.036,0.003,0.074,0.016,0.102l4.727,10.796
					c0.77,1.759,0.512,3.835-0.655,5.29l-31.654,39.432C110.959,233.173,110.234,233.493,109.502,233.493z"/>
			</g>
		</g>
		<g>
			<g>
				<path d="M108.941,233.636c-0.732,0-1.457-0.32-1.951-0.935l-31.769-39.576c-1.168-1.454-1.425-3.531-0.655-5.29l4.727-10.796
					c0.012-0.027,0.016-0.065,0.015-0.102l-7.083-3.529c-1.777-0.885-2.8-2.999-2.487-5.141l2.021-13.846
					c0.199-1.367,1.468-2.316,2.834-2.113c1.366,0.199,2.313,1.468,2.113,2.834l-2.021,13.847c-0.003,0.02-0.004,0.039-0.003,0.056
					l7.083,3.529c2.236,1.115,3.182,4.017,2.108,6.47l-4.727,10.796c-0.022,0.05-0.019,0.15,0,0.192l31.744,39.538
					c0.864,1.077,0.692,2.65-0.385,3.515C110.043,233.456,109.491,233.636,108.941,233.636z M74.697,169.136h0.01H74.697z"/>
			</g>
		</g>
		<g>
			<g>
				<g>
					<path d="M122.75,177.113c-0.625,0-1.25-0.233-1.735-0.701c-3.294-3.178-7.945-8.207-11.392-14.114
						c-0.696-1.192-0.293-2.724,0.899-3.419c1.193-0.696,2.724-0.292,3.419,0.899c3.158,5.414,7.478,10.077,10.545,13.035
						c0.994,0.958,1.022,2.541,0.063,3.535C124.06,176.857,123.406,177.113,122.75,177.113z"/>
				</g>
			</g>
		</g>
		<g>
			<g>
				<g>
					<path d="M95.578,177.113c-0.655,0-1.31-0.256-1.8-0.765c-0.958-0.994-0.929-2.577,0.064-3.535
						c3.066-2.957,7.384-7.618,10.544-13.034c0.695-1.193,2.227-1.595,3.419-0.899c1.193,0.696,1.595,2.227,0.899,3.419
						c-3.448,5.911-8.099,10.938-11.392,14.114C96.828,176.881,96.202,177.113,95.578,177.113z"/>
				</g>
			</g>
		</g>
		<g>
			<g>
				<path d="M109.164,256H73.351c-2.854,0-5.177-2.322-5.177-5.177v-9.58c0-7.066-0.912-14.079-2.713-20.896v30.475
					c0,2.854-2.322,5.177-5.177,5.177h-21.99c-1.768,0-3.478-0.736-4.693-2.021c-1.214-1.284-1.854-3.033-1.756-4.797l2.742-75.37
					c0.412-7.403,5.487-13.554,12.631-15.352l24.832-6.268c1.903-0.479,3.758-1.161,5.515-2.027l8.587-4.234
					c0.154-0.076,0.297-0.17,0.443-0.26l0.132-0.082c0.676-0.418,1.512-0.488,2.248-0.191c0.737,0.297,1.289,0.927,1.487,1.697
					l20.446,79.733c0.501,1.956,0.755,3.987,0.755,6.036V253.5C111.664,254.881,110.545,256,109.164,256z M62.963,201.181
					c1.078,0,2.055,0.699,2.384,1.755l3.883,12.438c2.617,8.384,3.944,17.088,3.944,25.87v9.58c0,0.098,0.079,0.177,0.177,0.177
					h33.313v-18.136c0-1.631-0.202-3.244-0.599-4.794L86.4,151.383l-6.623,3.266c-2.072,1.022-4.26,1.826-6.503,2.391l-24.832,6.268
					c-5.012,1.262-8.571,5.575-8.859,10.734l-2.742,75.37c-0.033,0.594,0.233,0.961,0.395,1.132c0.161,0.17,0.513,0.457,1.06,0.457
					h21.99c0.098,0,0.177-0.079,0.177-0.177v-47.143c0-1.235,0.902-2.285,2.123-2.472C62.711,201.19,62.838,201.181,62.963,201.181z
					"/>
			</g>
		</g>
	</g>
</g>
<g id="Layer_43">
</g>
<g id="Layer_44">
</g>
<g id="Layer_45">
</g>
<g id="Layer_46">
</g>
<g id="Layer_47">
</g>
<g id="Layer_48">
</g>
<g id="Layer_49">
</g>
<g id="Layer_50">
</g>
<g id="Layer_51">
</g>
<g id="Layer_52">
</g>
<g id="Layer_53">
</g>
<g id="Layer_54">
</g>
<g id="Layer_55">
</g>
<g id="Layer_56">
</g>
<g id="Layer_57">
</g>
<g id="Layer_58">
</g>
<g id="Layer_59">
</g>
<g id="Layer_60">
</g>
<g id="Layer_61">
</g>
<g id="Layer_62">
</g>
<g id="Layer_63">
</g>
<g id="Layer_64">
</g>
<g id="Layer_65">
</g>
<g id="Layer_66">
</g>
<g id="Layer_67">
</g>
<g id="Layer_68">
</g>
<g id="Layer_69">
</g>
<g id="Layer_70">
</g>
<g id="Layer_71">
</g>
<g id="Layer_72">
</g>
<g id="Layer_73">
</g>
<g id="Layer_74">
</g>
<g id="Layer_75">
</g>
<g id="Layer_76">
</g>
<g id="Layer_77">
</g>
<g id="Layer_78">
</g>
<g id="Layer_79">
</g>
<g id="Layer_80">
</g>
</svg>
