<?xml version="1.0" encoding="utf-8"?>
<!-- Generator: Adobe Illustrator 24.0.0, SVG Export Plug-In . SVG Version: 6.00 Build 0)  -->
<svg version="1.1" xmlns="http://www.w3.org/2000/svg" xmlns:xlink="http://www.w3.org/1999/xlink" x="0px" y="0px"
	 viewBox="0 0 256 256" style="enable-background:new 0 0 256 256;" xml:space="preserve">
<style type="text/css">
	.st0{fill:#3A70BF;}
	.st1{fill:#EDF4FC;}
	.st2{fill:#C7D7E5;}
	.st3{fill:#F9D0B4;}
	.st4{fill:#5B5D60;}
	.st5{fill:#5290DB;}
	.st6{fill:#70D6F9;}
	.st7{fill:#F5C84C;}
	.st8{fill:#FC657E;}
	.st9{fill:#87D147;}
	.st10{fill:#FCDD86;}
	.st11{fill:#9BE5F9;}
	.st12{fill:#B2E26D;}
	.st13{fill:#754E34;}
	.st14{fill:#FCA265;}
	.st15{fill:#818182;}
	.st16{fill:#F94EED;}
	.st17{fill:#FFC197;}
	.st18{fill:#3CAADC;}
	.st19{fill:#DAE6F1;}
	.st20{fill:#57AF12;}
	.st21{fill:#EF4460;}
	.st22{fill:#FFF0CA;}
	.st23{fill:#F98FA6;}
	.st24{fill:#EDB311;}
	.st25{fill:#FC8C48;}
	.st26{fill:#FCB9CB;}
	.st27{fill:#96BC71;}
	.st28{fill:#78A352;}
	.st29{fill:#B8DD90;}
	.st30{fill:#6FAFEF;}
	.st31{fill:#29589F;}
	.st32{fill:#414344;}
	.st33{fill:#9B6B4B;}
	.st34{fill:#73B1EF;}
</style>
<g id="Layer_1">
</g>
<g id="Layer_2">
</g>
<g id="Layer_3">
</g>
<g id="Layer_4">
</g>
<g id="Layer_5">
</g>
<g id="Layer_6">
</g>
<g id="Layer_7">
</g>
<g id="Layer_8">
</g>
<g id="Layer_9">
</g>
<g id="Layer_10">
</g>
<g id="Layer_11">
</g>
<g id="Layer_12">
</g>
<g id="Layer_13">
</g>
<g id="Layer_14">
</g>
<g id="Layer_15">
</g>
<g id="Layer_16">
</g>
<g id="Layer_17">
</g>
<g id="Layer_18">
</g>
<g id="Layer_19">
</g>
<g id="Layer_20">
</g>
<g id="Layer_21">
</g>
<g id="Layer_22">
</g>
<g id="Layer_23">
</g>
<g id="Layer_24">
</g>
<g id="Layer_25">
</g>
<g id="Layer_26">
</g>
<g id="Layer_27">
</g>
<g id="Layer_28">
</g>
<g id="Layer_29">
</g>
<g id="Layer_30">
</g>
<g id="Layer_31">
</g>
<g id="Layer_32">
</g>
<g id="Layer_33">
</g>
<g id="Layer_34">
</g>
<g id="Layer_35">
</g>
<g id="Layer_36">
</g>
<g id="Layer_37">
</g>
<g id="Layer_38">
</g>
<g id="Layer_39">
</g>
<g id="Layer_40">
</g>
<g id="Layer_41">
	<g>
		<g>
			<g>
				<path class="st1" d="M217.737,149.071h-53.772c-3.611,0-6.539,2.927-6.539,6.539v95.008c0,1.592,1.29,2.882,2.882,2.882h61.086
					c1.592,0,2.882-1.29,2.882-2.882V155.61C224.276,151.999,221.348,149.071,217.737,149.071z"/>
			</g>
		</g>
		<g>
			<g>
				<path class="st2" d="M207.63,149.071v-11.963c0-1.813-1.47-3.282-3.282-3.282h-26.992c-1.813,0-3.282,1.469-3.282,3.282v11.963
					H207.63z"/>
			</g>
		</g>
		<g>
			<g>
				<path class="st31" d="M31.738,247.747l4.847-67.923c0.455-6.642,4.6-12.466,10.726-15.073l33.676-14.33
					c1.751-0.745,3.754,0.255,4.209,2.103L110.776,253.5H37.095C33.978,253.5,31.516,250.856,31.738,247.747z"/>
			</g>
		</g>
		<g>
			<g>
				<path class="st3" d="M106.567,162.422c0.417,0.438,0.603,1.01,0.573,1.573c1.022,0.086,2.051,0.143,3.094,0.143h0
					c1.411,0,2.796-0.104,4.167-0.26v0c0,0.001,0,0.003,0,0.004c0-0.526,0.194-1.052,0.583-1.461l14.525-15.27
					c-1.021-1.86-1.589-3.976-1.589-6.18v-6.335c-5.268,2.868-11.296,4.501-17.686,4.501h0c-5.959,0-11.597-1.427-16.604-3.945
					v5.778c0,2.204-0.568,4.32-1.589,6.18L106.567,162.422z"/>
			</g>
		</g>
		<g>
			<g>
				<path class="st31" d="M157.426,250.618v-93.021l-16.862-7.175c-1.751-0.745-3.754,0.255-4.209,2.103L110.776,253.5h49.532
					C158.717,253.5,157.426,252.21,157.426,250.618z"/>
			</g>
		</g>
		<g>
			<g>
				<path class="st0" d="M59.231,199.673c0-7.154-2.962-13.988-8.183-18.879l-11.005-10.31c-1.985,2.671-3.222,5.893-3.458,9.34
					l-4.847,67.923c-0.222,3.109,2.24,5.753,5.357,5.753h22.136V199.673z"/>
			</g>
		</g>
		<g>
			<g>
				<path class="st0" d="M85.196,152.525c-0.456-1.848-2.458-2.849-4.209-2.103l-7.211,3.069v40.542c0,0.859,0.593,1.605,1.43,1.798
					l9.42,2.174c1.12,0.259,1.734,1.468,1.281,2.525l-4.271,9.965c-0.547,1.277-0.525,2.726,0.061,3.986L99.846,253.5h10.93
					L85.196,152.525z"/>
			</g>
		</g>
		<g>
			<g>
				<path class="st0" d="M121.706,253.5l18.149-39.021c0.586-1.26,0.608-2.709,0.061-3.986l-4.271-9.965
					c-0.453-1.057,0.161-2.266,1.281-2.525l9.42-2.174c0.837-0.193,1.43-0.939,1.43-1.798V153.49l-7.211-3.069
					c-1.751-0.745-3.754,0.255-4.209,2.103L110.776,253.5H121.706z"/>
			</g>
		</g>
		<g>
			<g>
				<path class="st19" d="M85.196,152.525l3.533,13.948l6.271,7.591c0.879,1.064,2.495,1.109,3.431,0.094l8.157-8.837
					c0.758-0.821,0.748-2.089-0.022-2.899L90.88,145.931c-0.702-0.738-1.866-0.779-2.619-0.092l-4.983,4.55
					C84.191,150.732,84.941,151.487,85.196,152.525z"/>
			</g>
		</g>
		<g>
			<g>
				<path class="st19" d="M123.12,174.158c0.936,1.014,2.552,0.97,3.431-0.094l6.271-7.591l3.533-13.948
					c0.256-1.038,1.005-1.792,1.918-2.136l-4.983-4.55c-0.753-0.687-1.917-0.646-2.619,0.092l-15.687,16.492
					c-0.77,0.81-0.78,2.078-0.022,2.899L123.12,174.158z"/>
			</g>
		</g>
		<g>
			<g>
				<g>
					<path class="st19" d="M126.551,174.063c-0.879,1.064-2.495,1.109-3.431,0.094l-4.373-4.737c-1.76,2.513-4.67,4.161-7.971,4.161
						s-6.211-1.647-7.971-4.161l-4.373,4.737c-0.936,1.014-2.552,0.97-3.431-0.094l-6.271-7.591l22.046,87.028l22.046-87.028
						L126.551,174.063z"/>
				</g>
			</g>
		</g>
		<g>
			<g>
				<path class="st8" d="M110.65,253.001l0.382-0.509l9.356-36.934l-4.591-43.383c-1.467,0.886-3.181,1.406-5.021,1.406
					s-3.553-0.519-5.021-1.406l-4.591,43.383L110.65,253.001z"/>
			</g>
		</g>
		<g>
			<g>
				<g>
					<path class="st8" d="M114.963,165.321c-0.376-0.408-0.562-0.926-0.561-1.443v0c-1.371,0.155-2.756,0.26-4.167,0.26h0
						c-1.043,0-2.072-0.058-3.094-0.143c-0.025,0.478-0.203,0.949-0.551,1.326l-3.784,4.1c1.76,2.513,4.67,4.161,7.971,4.161
						s6.211-1.647,7.971-4.161L114.963,165.321z"/>
				</g>
			</g>
		</g>
		<g>
			<g>
				<path d="M110.776,256H37.095c-2.177,0-4.276-0.914-5.76-2.507s-2.246-3.752-2.09-5.923l4.847-67.923
					c0.521-7.613,5.212-14.205,12.24-17.195l33.676-14.33c1.51-0.643,3.219-0.59,4.687,0.143c1.468,0.734,2.536,2.068,2.928,3.662
					l25.576,100.96c0.189,0.748,0.023,1.541-0.45,2.149C112.275,255.644,111.547,256,110.776,256z M82.197,152.673
					c-0.071,0-0.148,0.013-0.231,0.048l-33.676,14.33c-5.289,2.25-8.817,7.21-9.21,12.943l-4.848,67.93v0
					c-0.058,0.804,0.213,1.571,0.762,2.16c0.549,0.59,1.295,0.915,2.101,0.915h70.469l-24.791-97.862
					c-0.058-0.234-0.202-0.346-0.313-0.401C82.394,152.704,82.304,152.673,82.197,152.673z M31.738,247.747h0.01H31.738z"/>
			</g>
		</g>
		<g>
			<g>
				<path d="M129.275,149.201c-0.918,0-1.802-0.507-2.239-1.385c-1.056-2.119-1.615-4.485-1.615-6.844v-5.409
					c0-1.381,1.119-2.5,2.5-2.5s2.5,1.119,2.5,2.5v5.409c0,1.588,0.376,3.184,1.089,4.613c0.616,1.236,0.114,2.737-1.122,3.353
					C130.03,149.117,129.65,149.201,129.275,149.201z"/>
			</g>
		</g>
		<g>
			<g>
				<path d="M110.235,166.638c-0.849,0-1.743-0.035-2.731-0.107c-1.377-0.1-2.412-1.298-2.311-2.675
					c0.101-1.376,1.301-2.413,2.675-2.311c0.866,0.063,1.64,0.094,2.367,0.094c1.021,0,2.109-0.06,3.326-0.184
					c1.377-0.142,2.601,0.861,2.74,2.235c0.139,1.374-0.861,2.6-2.235,2.74C112.679,166.57,111.426,166.638,110.235,166.638z"/>
			</g>
		</g>
		<g>
			<g>
				<path d="M92.456,148.829c-0.349,0-0.704-0.073-1.042-0.229c-1.254-0.576-1.805-2.061-1.229-3.315
					c0.627-1.366,0.946-2.817,0.946-4.313v-5.097c0-1.381,1.119-2.5,2.5-2.5s2.5,1.119,2.5,2.5v5.097c0,2.221-0.472,4.374-1.402,6.4
					C94.308,148.289,93.402,148.829,92.456,148.829z"/>
			</g>
		</g>
		<g>
			<g>
				<path d="M160.308,256h-49.532c-0.771,0-1.499-0.356-1.973-0.964c-0.474-0.609-0.64-1.402-0.45-2.149l25.58-100.975
					c0.389-1.578,1.456-2.913,2.924-3.647c1.468-0.733,3.178-0.787,4.687-0.143l16.486,7.015c1.271,0.541,1.862,2.009,1.321,3.279
					c-0.541,1.271-2.009,1.864-3.279,1.321l-16.486-7.015c-0.205-0.086-0.383-0.041-0.494,0.015
					c-0.111,0.056-0.255,0.168-0.309,0.386L113.988,251h46.32c1.381,0,2.5,1.119,2.5,2.5S161.689,256,160.308,256z"/>
			</g>
		</g>
		<g>
			<g>
				<path d="M59.231,255.063c-1.381,0-2.5-1.119-2.5-2.5v-52.89c0-6.438-2.694-12.653-7.392-17.055l-10.553-9.886
					c-1.008-0.944-1.06-2.526-0.116-3.534c0.945-1.008,2.527-1.059,3.534-0.116l10.553,9.886c5.703,5.343,8.974,12.889,8.974,20.704
					v52.89C61.731,253.944,60.612,255.063,59.231,255.063z"/>
			</g>
		</g>
		<g>
			<g>
				<path d="M99.35,254.932c-0.942,0-1.845-0.535-2.268-1.446L79.43,215.534c-0.884-1.902-0.917-4.098-0.092-6.025l3.962-9.245
					l-8.656-1.998c-1.983-0.458-3.368-2.199-3.368-4.234v-39.907c0-1.381,1.119-2.5,2.5-2.5s2.5,1.119,2.5,2.5v39.386l8.912,2.057
					c1.257,0.29,2.313,1.116,2.897,2.267c0.584,1.151,0.628,2.492,0.12,3.678l-4.271,9.966c-0.267,0.623-0.256,1.333,0.03,1.947
					l17.651,37.951c0.583,1.252,0.04,2.739-1.212,3.321C100.062,254.856,99.703,254.932,99.35,254.932z"/>
			</g>
		</g>
		<g>
			<g>
				<path d="M122.153,255.037c-0.353,0-0.712-0.075-1.053-0.234c-1.252-0.582-1.795-2.069-1.212-3.321l17.701-38.057
					c0.285-0.614,0.296-1.324,0.029-1.947l-4.271-9.965c-0.508-1.187-0.465-2.527,0.12-3.679c0.584-1.15,1.641-1.977,2.898-2.267
					l8.911-2.057v-39.137c0-1.381,1.119-2.5,2.5-2.5s2.5,1.119,2.5,2.5v39.658c0,2.035-1.385,3.775-3.367,4.234l-8.657,1.998
					l3.962,9.245c0.826,1.927,0.792,4.123-0.091,6.024l-17.702,38.057C123.998,254.501,123.095,255.037,122.153,255.037z"/>
			</g>
		</g>
		<g>
			<g>
				<path d="M96.758,177.391c-0.044,0-0.087,0-0.131-0.002c-1.379-0.038-2.674-0.669-3.553-1.733l-6.122-7.411
					c-0.879-1.064-0.729-2.64,0.335-3.52c1.065-0.88,2.64-0.729,3.52,0.335l5.961,7.216l7.744-8.389l-15.018-15.788l-4.189,3.825
					c-1.019,0.932-2.6,0.86-3.532-0.161c-0.931-1.02-0.859-2.601,0.161-3.532l4.643-4.239c1.744-1.592,4.489-1.497,6.116,0.216
					l15.687,16.491c1.673,1.759,1.694,4.534,0.047,6.318l-8.157,8.836C99.363,176.835,98.089,177.391,96.758,177.391z"/>
			</g>
		</g>
		<g>
			<g>
				<path d="M124.794,177.391c-1.333,0-2.606-0.556-3.512-1.538l-8.157-8.836c-1.646-1.784-1.625-4.559,0.047-6.318l15.687-16.492
					c1.628-1.71,4.372-1.808,6.116-0.215l4.44,4.054c1.02,0.931,1.092,2.512,0.161,3.532c-0.931,1.02-2.512,1.092-3.532,0.161
					l-3.986-3.639l-15.018,15.788l7.744,8.389l5.71-6.913c0.879-1.064,2.455-1.215,3.52-0.335c1.064,0.879,1.214,2.455,0.335,3.52
					l-5.872,7.108c-0.879,1.064-2.174,1.696-3.554,1.733C124.881,177.391,124.837,177.391,124.794,177.391z"/>
			</g>
		</g>
		<g>
			<g>
				<path d="M120.371,217.93c-1.263,0-2.347-0.953-2.483-2.237l-4.228-39.96c-1.882,0.461-3.885,0.461-5.767,0l-4.228,39.953
					c-0.146,1.373-1.374,2.364-2.75,2.223c-1.373-0.146-2.368-1.376-2.223-2.75l4.576-43.247c0.09-0.85,0.608-1.596,1.375-1.976
					c0.766-0.38,1.673-0.344,2.404,0.1c2.265,1.368,5.192,1.368,7.457,0c0.731-0.443,1.639-0.479,2.404-0.1
					c0.766,0.38,1.284,1.126,1.375,1.976l4.577,43.255c0.145,1.373-0.85,2.604-2.223,2.75
					C120.547,217.926,120.458,217.93,120.371,217.93z"/>
			</g>
		</g>
		<g>
			<g>
				<g>
					<path d="M110.776,176.081c-3.66,0-7.098-1.624-9.433-4.456c-0.878-1.065-0.727-2.641,0.338-3.519
						c1.066-0.878,2.642-0.727,3.519,0.338c1.381,1.675,3.414,2.636,5.575,2.636c2.218,0,4.284-1.002,5.667-2.75
						c0.857-1.083,2.43-1.265,3.512-0.409c1.083,0.857,1.266,2.429,0.409,3.512C118.027,174.387,114.532,176.081,110.776,176.081z"
						/>
				</g>
			</g>
		</g>
		<g>
			<g>
				<path class="st3" d="M115.808,56.772c-13.593,17.094-33.644,14.681-40.386,13.27c-1.225-0.256-2.401,0.667-2.402,1.919
					c0,0.008,0,0.017,0,0.025v29.936c0,20.468,16.747,37.215,37.215,37.215h0c20.468,0,37.215-16.747,37.215-37.215V68.772
					c0-0.194-0.002-0.388-0.006-0.582c-0.021-1.055-0.866-1.925-1.921-1.956c-15.46-0.453-23.606-6.581-26.736-9.649
					C117.932,55.747,116.553,55.836,115.808,56.772z"/>
			</g>
		</g>
		<g>
			<g>
				<g>
					<path class="st4" d="M70.632,73.561c0.813,0,1.609,0.069,2.388,0.189v-1.763c0-0.008,0-0.017,0-0.025
						c0.001-1.252,1.177-2.175,2.402-1.919c6.742,1.411,26.794,3.823,40.386-13.27c0.745-0.937,2.124-1.025,2.978-0.187
						c3.13,3.068,11.276,9.196,26.736,9.649c1.055,0.031,1.9,0.901,1.921,1.956c0.004,0.194,0.006,0.388,0.006,0.582v4.978
						c0.779-0.121,1.575-0.189,2.388-0.189c4.188,0,7.982,1.665,10.777,4.36V49.973c0-11.692-9.566-21.258-21.258-21.258
						c-3.966,0-7.673,1.121-10.859,3.031c-3.722-6.211-10.502-10.405-18.23-10.405H99.351c-21.127,0-38.413,17.286-38.413,38.413
						v17.212C63.596,74.84,66.962,73.561,70.632,73.561z"/>
				</g>
			</g>
		</g>
		<g>
			<g>
				<path class="st3" d="M149.838,73.561c-0.813,0-1.609,0.069-2.388,0.189c0,3.96,0,22.286,0,28.173
					c0,0.839-0.038,1.67-0.094,2.496c0.81,0.13,1.635,0.217,2.482,0.217c8.581,0,15.537-6.956,15.537-15.537
					S158.419,73.561,149.838,73.561z"/>
			</g>
		</g>
		<g>
			<g>
				<path class="st3" d="M73.02,101.923c0-3.856,0-20.507,0-28.173c-0.779-0.121-1.575-0.189-2.388-0.189
					c-8.581,0-15.538,6.957-15.538,15.538s6.956,15.537,15.538,15.537c0.847,0,1.672-0.086,2.482-0.217v-0.001
					C73.058,103.593,73.02,102.762,73.02,101.923z"/>
			</g>
		</g>
		<g>
			<g>
				<path d="M110.235,141.638c-21.899,0-39.715-17.816-39.715-39.715V71.987c0.001-1.371,0.603-2.628,1.65-3.479
					c1.059-0.858,2.432-1.192,3.764-0.912c7.235,1.513,25.418,3.338,37.917-12.38v0c0.796-1,1.982-1.619,3.253-1.698
					c1.276-0.076,2.521,0.388,3.432,1.281c2.593,2.542,10.226,8.501,25.06,8.936c2.391,0.071,4.3,2.006,4.348,4.406
					c0.004,0.209,0.006,0.42,0.006,0.632v33.151C149.95,123.822,132.134,141.638,110.235,141.638z M75.52,72.613v29.311
					c0,19.142,15.573,34.715,34.715,34.715c19.142,0,34.715-15.573,34.715-34.715V68.772c0-0.019,0-0.038,0-0.056
					c-15.154-0.563-23.626-6.308-27.522-9.97C103.24,76.145,82.507,73.963,75.52,72.613z M117.764,58.329
					c0,0.001,0,0.001-0.001,0.002C117.763,58.33,117.764,58.33,117.764,58.329L117.764,58.329z"/>
			</g>
		</g>
		<g>
			<g>
				<g>
					<path d="M160.614,79.844c-1.381,0-2.5-1.119-2.5-2.5V49.973c0-10.343-8.415-18.758-18.758-18.758
						c-3.345,0-6.655,0.925-9.574,2.675c-0.569,0.341-1.251,0.44-1.893,0.281c-0.643-0.161-1.196-0.571-1.537-1.14
						c-3.396-5.668-9.56-9.19-16.086-9.19H99.351c-19.803,0-35.913,16.111-35.913,35.914v17.08c0,1.381-1.119,2.5-2.5,2.5
						s-2.5-1.119-2.5-2.5v-17.08c0-22.56,18.354-40.914,40.913-40.914h10.916c7.481,0,14.582,3.641,19.048,9.638
						c3.15-1.487,6.579-2.264,10.042-2.264c13.1,0,23.758,10.658,23.758,23.758v27.371
						C163.114,78.725,161.995,79.844,160.614,79.844z"/>
				</g>
			</g>
		</g>
		<g>
			<g>
				<path d="M149.838,107.136c-0.555,0-1.115-0.03-1.713-0.093c-1.373-0.143-2.37-1.372-2.227-2.746s1.363-2.378,2.746-2.227
					c0.424,0.044,0.814,0.065,1.195,0.065c7.189,0,13.038-5.849,13.038-13.038s-5.849-13.038-13.038-13.038
					c-0.392,0-0.779,0.019-1.162,0.055c-1.369,0.129-2.593-0.881-2.722-2.256c-0.128-1.375,0.882-2.593,2.256-2.722
					c10.665-0.995,19.665,7.48,19.665,17.961C167.875,99.044,159.784,107.136,149.838,107.136z"/>
			</g>
		</g>
		<g>
			<g>
				<path d="M70.632,107.136c-9.946,0-18.038-8.092-18.038-18.038s8.092-18.038,18.038-18.038c0.706,0,1.43,0.045,2.153,0.133
					c1.371,0.167,2.346,1.415,2.178,2.785c-0.168,1.37-1.409,2.349-2.785,2.178c-0.522-0.064-1.042-0.096-1.545-0.096
					c-7.189,0-13.038,5.849-13.038,13.038s5.849,13.038,13.038,13.038c0.432,0,0.88-0.028,1.37-0.085
					c1.372-0.159,2.612,0.823,2.772,2.194c0.16,1.371-0.823,2.612-2.194,2.772C71.896,107.097,71.259,107.136,70.632,107.136z"/>
			</g>
		</g>
		<g>
			<g>
				<path d="M110.776,118.573c-4.776,0-9.262-1.95-11.999-5.215c-0.887-1.058-0.748-2.635,0.31-3.522
					c1.06-0.887,2.636-0.747,3.522,0.31c1.798,2.146,4.852,3.427,8.167,3.427c3.315,0,6.368-1.281,8.167-3.427
					c0.886-1.057,2.463-1.196,3.522-0.309c1.058,0.887,1.196,2.464,0.309,3.522C120.037,116.624,115.551,118.573,110.776,118.573z"
					/>
			</g>
		</g>
		<g>
			<g>
				<path d="M221.394,256h-61.086c-2.968,0-5.382-2.414-5.382-5.382V155.61c0-4.984,4.055-9.039,9.039-9.039h53.772
					c4.984,0,9.039,4.055,9.039,9.039v95.008C226.776,253.586,224.362,256,221.394,256z M163.965,151.571
					c-2.227,0-4.039,1.812-4.039,4.039v95.008c0,0.21,0.171,0.382,0.382,0.382h61.086c0.21,0,0.382-0.171,0.382-0.382V155.61
					c0-2.227-1.812-4.039-4.039-4.039H163.965z"/>
			</g>
		</g>
		<g>
			<g>
				<path d="M207.629,150.687c-1.381,0-2.5-1.119-2.5-2.5v-11.078c0-0.431-0.351-0.782-0.782-0.782h-26.992
					c-0.431,0-0.782,0.351-0.782,0.782v10.849c0,1.381-1.119,2.5-2.5,2.5s-2.5-1.119-2.5-2.5v-10.849
					c0-3.188,2.594-5.782,5.782-5.782h26.992c3.188,0,5.782,2.594,5.782,5.782v11.078
					C210.129,149.567,209.01,150.687,207.629,150.687z"/>
			</g>
		</g>
		<g>
			<g>
				<path d="M190.851,135c-1.381,0-2.5-1.119-2.5-2.5v-20c0-1.381,1.119-2.5,2.5-2.5s2.5,1.119,2.5,2.5v20
					C193.351,133.881,192.232,135,190.851,135z"/>
			</g>
		</g>
		<g>
			<g>
				<path d="M210.384,167.5h-38.4c-1.381,0-2.5-1.119-2.5-2.5s1.119-2.5,2.5-2.5h38.4c1.381,0,2.5,1.119,2.5,2.5
					S211.765,167.5,210.384,167.5z"/>
			</g>
		</g>
		<g>
			<g>
				<path d="M210.384,178.214h-38.4c-1.381,0-2.5-1.119-2.5-2.5s1.119-2.5,2.5-2.5h38.4c1.381,0,2.5,1.119,2.5,2.5
					S211.765,178.214,210.384,178.214z"/>
			</g>
		</g>
		<g>
			<g>
				<path d="M210.384,188.929h-38.4c-1.381,0-2.5-1.119-2.5-2.5s1.119-2.5,2.5-2.5h38.4c1.381,0,2.5,1.119,2.5,2.5
					S211.765,188.929,210.384,188.929z"/>
			</g>
		</g>
		<g>
			<g>
				<path d="M210.384,199.643h-38.4c-1.381,0-2.5-1.119-2.5-2.5s1.119-2.5,2.5-2.5h38.4c1.381,0,2.5,1.119,2.5,2.5
					S211.765,199.643,210.384,199.643z"/>
			</g>
		</g>
		<g>
			<g>
				<path d="M210.384,210.357h-38.4c-1.381,0-2.5-1.119-2.5-2.5s1.119-2.5,2.5-2.5h38.4c1.381,0,2.5,1.119,2.5,2.5
					S211.765,210.357,210.384,210.357z"/>
			</g>
		</g>
		<g>
			<g>
				<path d="M210.384,221.071h-38.4c-1.381,0-2.5-1.119-2.5-2.5s1.119-2.5,2.5-2.5h38.4c1.381,0,2.5,1.119,2.5,2.5
					S211.765,221.071,210.384,221.071z"/>
			</g>
		</g>
		<g>
			<g>
				<path d="M210.384,231.786h-38.4c-1.381,0-2.5-1.119-2.5-2.5s1.119-2.5,2.5-2.5h38.4c1.381,0,2.5,1.119,2.5,2.5
					S211.765,231.786,210.384,231.786z"/>
			</g>
		</g>
		<g>
			<g>
				<path d="M210.384,242.5h-38.4c-1.381,0-2.5-1.119-2.5-2.5s1.119-2.5,2.5-2.5h38.4c1.381,0,2.5,1.119,2.5,2.5
					S211.765,242.5,210.384,242.5z"/>
			</g>
		</g>
		<g>
			<g>
				<circle cx="127.565" cy="90.816" r="5"/>
			</g>
		</g>
		<g>
			<g>
				<circle cx="93.986" cy="90.816" r="5"/>
			</g>
		</g>
		<g>
			<g>
				<path d="M136.251,106.014h-9.237c-7.457,0-13.524-6.067-13.524-13.524V86.1c0-5.577,4.538-10.114,10.115-10.114h16.056
					c5.577,0,10.115,4.537,10.115,10.114v6.39C149.776,99.947,143.709,106.014,136.251,106.014z M123.605,80.986
					c-2.82,0-5.115,2.294-5.115,5.114v6.39c0,4.7,3.824,8.524,8.524,8.524h9.237c4.7,0,8.524-3.824,8.524-8.524V86.1
					c0-2.82-2.294-5.114-5.115-5.114H123.605z"/>
			</g>
		</g>
		<g>
			<g>
				<path d="M94.537,106.014H85.3c-7.458,0-13.524-6.067-13.524-13.524V86.1c0-5.577,4.538-10.114,10.115-10.114h16.056
					c5.577,0,10.115,4.537,10.115,10.114v6.39C108.062,99.947,101.995,106.014,94.537,106.014z M81.891,80.986
					c-2.82,0-5.115,2.294-5.115,5.114v6.39c0,4.7,3.824,8.524,8.524,8.524h9.237c4.7,0,8.524-3.824,8.524-8.524V86.1
					c0-2.82-2.294-5.114-5.115-5.114H81.891z"/>
			</g>
		</g>
		<g>
			<g>
				<path d="M114.947,89.924h-8.343c-1.381,0-2.5-1.119-2.5-2.5s1.119-2.5,2.5-2.5h8.343c1.381,0,2.5,1.119,2.5,2.5
					S116.328,89.924,114.947,89.924z"/>
			</g>
		</g>
		<g>
			<g>
				<path class="st8" d="M183.822,28.33c-4.498-0.838-8.043-4.31-8.898-8.716c-0.043-0.221-0.352-0.221-0.395,0
					c-0.855,4.406-4.4,7.879-8.898,8.716c-0.226,0.042-0.226,0.345,0,0.387c4.498,0.838,8.043,4.31,8.898,8.717
					c0.043,0.221,0.352,0.221,0.395,0c0.855-4.406,4.4-7.879,8.898-8.717C184.047,28.675,184.047,28.373,183.822,28.33z"/>
			</g>
		</g>
		<g>
			<g>
				<path class="st7" d="M179.515,113.101c-2.862-0.533-5.118-2.743-5.663-5.547c-0.027-0.141-0.224-0.141-0.251,0
					c-0.544,2.804-2.8,5.014-5.663,5.547c-0.144,0.027-0.144,0.219,0,0.246c2.862,0.533,5.118,2.743,5.663,5.547
					c0.027,0.141,0.224,0.141,0.251,0c0.544-2.804,2.8-5.014,5.663-5.547C179.658,113.32,179.658,113.128,179.515,113.101z"/>
			</g>
		</g>
		<g>
			<g>
				<circle class="st9" cx="25.755" cy="154.825" r="3.377"/>
			</g>
		</g>
		<g>
			<g>
				<circle class="st7" cx="160.755" cy="3.377" r="3.377"/>
			</g>
		</g>
		<g>
			<g>
				<path class="st6" d="M32.246,122.75h2.33v-2.33c0-1.744,1.413-3.157,3.157-3.157c1.744,0,3.157,1.413,3.157,3.157v2.33h2.329
					c1.744,0,3.157,1.413,3.157,3.157s-1.413,3.157-3.157,3.157h-2.329v2.33c0,1.744-1.413,3.157-3.157,3.157
					c-1.744,0-3.157-1.413-3.157-3.157v-2.33h-2.33c-1.744,0-3.157-1.413-3.157-3.157S30.502,122.75,32.246,122.75z"/>
			</g>
		</g>
	</g>
</g>
<g id="Layer_42">
</g>
<g id="Layer_43">
</g>
<g id="Layer_44">
</g>
<g id="Layer_45">
</g>
<g id="Layer_46">
</g>
<g id="Layer_47">
</g>
<g id="Layer_48">
</g>
<g id="Layer_49">
</g>
<g id="Layer_50">
</g>
<g id="Layer_51">
</g>
<g id="Layer_52">
</g>
<g id="Layer_53">
</g>
<g id="Layer_54">
</g>
<g id="Layer_55">
</g>
<g id="Layer_56">
</g>
<g id="Layer_57">
</g>
<g id="Layer_58">
</g>
<g id="Layer_59">
</g>
<g id="Layer_60">
</g>
<g id="Layer_61">
</g>
<g id="Layer_62">
</g>
<g id="Layer_63">
</g>
<g id="Layer_64">
</g>
<g id="Layer_65">
</g>
<g id="Layer_66">
</g>
<g id="Layer_67">
</g>
<g id="Layer_68">
</g>
<g id="Layer_69">
</g>
<g id="Layer_70">
</g>
<g id="Layer_71">
</g>
<g id="Layer_72">
</g>
<g id="Layer_73">
</g>
<g id="Layer_74">
</g>
<g id="Layer_75">
</g>
<g id="Layer_76">
</g>
<g id="Layer_77">
</g>
<g id="Layer_78">
</g>
<g id="Layer_79">
</g>
<g id="Layer_80">
</g>
</svg>
