<?xml version="1.0" encoding="utf-8"?>
<!-- Generator: Adobe Illustrator 24.0.0, SVG Export Plug-In . SVG Version: 6.00 Build 0)  -->
<svg version="1.1" xmlns="http://www.w3.org/2000/svg" xmlns:xlink="http://www.w3.org/1999/xlink" x="0px" y="0px"
	 viewBox="0 0 256 256" style="enable-background:new 0 0 256 256;" xml:space="preserve">
<style type="text/css">
	.st0{fill:#3A70BF;}
	.st1{fill:#EDF4FC;}
	.st2{fill:#C7D7E5;}
	.st3{fill:#F9D0B4;}
	.st4{fill:#5B5D60;}
	.st5{fill:#5290DB;}
	.st6{fill:#70D6F9;}
	.st7{fill:#F5C84C;}
	.st8{fill:#FC657E;}
	.st9{fill:#87D147;}
	.st10{fill:#FCDD86;}
	.st11{fill:#9BE5F9;}
	.st12{fill:#B2E26D;}
	.st13{fill:#754E34;}
	.st14{fill:#FCA265;}
	.st15{fill:#818182;}
	.st16{fill:#F94EED;}
	.st17{fill:#FFC197;}
	.st18{fill:#3CAADC;}
	.st19{fill:#DAE6F1;}
	.st20{fill:#57AF12;}
	.st21{fill:#EF4460;}
	.st22{fill:#FFF0CA;}
	.st23{fill:#F98FA6;}
	.st24{fill:#EDB311;}
	.st25{fill:#FC8C48;}
	.st26{fill:#FCB9CB;}
	.st27{fill:#96BC71;}
	.st28{fill:#78A352;}
	.st29{fill:#B8DD90;}
	.st30{fill:#6FAFEF;}
	.st31{fill:#29589F;}
	.st32{fill:#414344;}
	.st33{fill:#9B6B4B;}
	.st34{fill:#73B1EF;}
</style>
<g id="Layer_1">
</g>
<g id="Layer_2">
</g>
<g id="Layer_3">
</g>
<g id="Layer_4">
</g>
<g id="Layer_5">
</g>
<g id="Layer_6">
</g>
<g id="Layer_7">
</g>
<g id="Layer_8">
	<g>
		<g>
			<g>
				<path class="st3" d="M141.923,71.985c-0.759,0-1.502,0.064-2.229,0.177c0,3.696,0,20.799,0,26.293v0v0
					c0,0.783-0.036,1.558-0.088,2.329c0.756,0.122,1.526,0.202,2.316,0.202c8.009,0,14.501-6.492,14.501-14.501
					C156.424,78.477,149.932,71.985,141.923,71.985z"/>
			</g>
		</g>
		<g>
			<g>
				<path class="st3" d="M121.575,60.642c-5.29,6.174-24.047,24.906-51.344,17.13v20.684c0,19.102,15.629,34.732,34.732,34.732l0,0
					c19.102,0,34.732-15.629,34.732-34.732v-28.06c0-1.276-0.893-2.358-2.136-2.646c-3.515-0.814-7.782-2.85-12.673-7.294
					C123.917,59.577,122.426,59.649,121.575,60.642z"/>
			</g>
		</g>
		<g>
			<g>
				<path class="st3" d="M70.231,77.771c-2.385-0.679-4.834-1.559-7.346-2.668c-1.619-0.715-3.511-0.386-4.803,0.825
					c-2.817,2.641-4.581,6.39-4.581,10.557c0,8.008,6.492,14.501,14.501,14.501c0.79,0,1.56-0.08,2.316-0.202
					c-0.052-0.771-0.088-1.546-0.088-2.329V77.771z"/>
			</g>
		</g>
		<g>
			<g>
				<g>
					<path class="st10" d="M58.082,75.929c1.291-1.211,3.183-1.54,4.803-0.825c2.512,1.109,4.961,1.988,7.346,2.668
						c27.297,7.776,46.055-10.956,51.344-17.13c0.85-0.992,2.342-1.065,3.309-0.186c4.892,4.445,9.159,6.48,12.673,7.294
						c1.243,0.288,2.136,1.37,2.136,2.646v1.766c0.727-0.113,1.47-0.177,2.229-0.177c4.012,0,7.643,1.63,10.268,4.263v-8.494
						c0-25.976-21.253-47.229-47.229-47.229c-25.976,0-47.229,21.253-47.229,47.229v8.535C57.852,76.171,57.96,76.043,58.082,75.929
						z"/>
				</g>
			</g>
		</g>
		<g>
			<g>
				<g>
					<path class="st3" d="M142.863,218.131c-17.562-17.562-18.867-45.208-3.944-64.286c-1.182-0.41-2.341-0.885-3.464-1.439
						l-8.587-4.234c-3.298-1.626-5.386-4.984-5.386-8.66v-10.533c-4.92,2.682-10.551,4.208-16.52,4.208
						c-5.97,0-11.6-1.526-16.52-4.208v10.533c0,3.677-2.088,7.034-5.386,8.66l-8.587,4.234c-1.919,0.946-3.933,1.687-6.009,2.209
						l-24.833,6.269c-6.044,1.521-10.396,6.796-10.743,13.019l-2.744,75.418c-0.127,2.269,1.68,4.179,3.953,4.179h21.99
						c1.478,0,2.677-1.198,2.677-2.677v-47.143l3.883,12.439c2.539,8.133,3.83,16.604,3.83,25.124v9.58
						c0,1.478,1.198,2.677,2.677,2.677h30.345h10.936h30.345c1.478,0,2.677-1.198,2.677-2.677v-9.58
						c0-6.849,0.849-13.662,2.495-20.298C144.891,220.055,143.858,219.125,142.863,218.131z"/>
				</g>
			</g>
		</g>
		<g>
			<g>
				<path class="st19" d="M151.165,224.783v26.04c0,1.478,1.198,2.677,2.677,2.677h21.99c2.273,0,4.079-1.91,3.953-4.179
					l-0.618-16.995C169.455,232.708,159.657,230.191,151.165,224.783z"/>
			</g>
		</g>
		<g>
			<g>
				<path class="st10" d="M56.529,124.533c-1.971,3.678-5.097,11.894,0.259,20.374c2.921,4.625,7.43,7.595,12.542,9.466
					c0.265-0.075,0.531-0.147,0.794-0.229l0,0c1.325-0.415,3.044-1.095,4.346-1.737c10.303-5.125,8.318-4.043,9.369-4.691l0,0
					c2.834-1.746,4.604-4.832,4.604-8.204v-10.533c-10.179-5.548-17.309-16.042-18.124-28.194c-0.756,0.122-1.526,0.202-2.316,0.202
					c-5.17,0-9.695-2.714-12.262-6.786c-2.926,5.721-6.06,15.851,0.574,26.254C57.102,121.692,57.222,123.241,56.529,124.533z"/>
			</g>
		</g>
		<g>
			<g>
				<path class="st10" d="M138.919,153.845c1.212-1.549,2.518-3.049,3.944-4.476c3.731-3.731,7.923-6.718,12.386-8.983
					c2.148-6.765-0.237-12.837-1.854-15.854c-0.693-1.292-0.573-2.841,0.215-4.077c6.634-10.404,3.501-20.533,0.574-26.254
					c-2.568,4.072-7.093,6.786-12.263,6.786c-0.79,0-1.56-0.08-2.316-0.202c-0.816,12.152-7.945,22.647-18.124,28.194v10.533
					c0,3.372,1.769,6.458,4.604,8.204c1.136,0.7-0.306-0.122,9.369,4.691C136.485,152.914,137.769,153.44,138.919,153.845z"/>
			</g>
		</g>
		<g>
			<g>
				<path class="st19" d="M142.863,218.131c-17.562-17.562-18.867-45.208-3.944-64.286c-1.182-0.41-2.341-0.885-3.464-1.439
					l-8.587-4.234c-0.274-0.135-0.526-0.299-0.782-0.457l-20.446,79.734c-0.449,1.75-0.677,3.577-0.677,5.415V253.5h5.468h30.345
					c1.478,0,2.677-1.198,2.677-2.677v-9.58c0-6.849,0.849-13.662,2.495-20.298C144.891,220.055,143.858,219.125,142.863,218.131z"
					/>
			</g>
		</g>
		<g>
			<g>
				<path class="st19" d="M83.839,147.715c-0.256,0.158-0.508,0.322-0.782,0.457l-8.587,4.234c-1.919,0.946-3.933,1.687-6.009,2.209
					l-24.833,6.269c-6.044,1.521-10.396,6.796-10.743,13.019l-2.744,75.418c-0.127,2.269,1.68,4.179,3.953,4.179h21.99
					c1.478,0,2.677-1.198,2.677-2.677v-47.143l3.883,12.439c2.539,8.133,3.83,16.604,3.83,25.124v9.58
					c0,1.478,1.198,2.677,2.677,2.677h30.345h5.468v-20.636c0-1.838-0.229-3.664-0.677-5.415L83.839,147.715z"/>
			</g>
		</g>
		<g>
			<g>
				<path class="st1" d="M138.929,153.833c-1.184-0.41-2.349-0.872-3.474-1.427l-8.587-4.234c-0.274-0.135-0.526-0.299-0.782-0.457
					l-20.446,79.733c-0.325,1.267-0.53,2.574-0.621,3.897l26.033-32.43C126.117,183.843,128.742,166.846,138.929,153.833z"/>
			</g>
		</g>
		<g>
			<g>
				<path class="st1" d="M104.285,227.449l-20.446-79.733c-0.256,0.158-0.508,0.322-0.782,0.457l-8.587,4.234
					c-1.402,0.691-2.856,1.27-4.346,1.737L68.01,168.63c-0.157,1.074,0.315,2.136,1.128,2.541l7.31,3.643
					c1.025,0.511,1.462,2.022,0.933,3.23l-4.727,10.796c-0.391,0.894-0.263,2.002,0.315,2.722l31.937,39.785
					C104.815,230.023,104.61,228.716,104.285,227.449z"/>
			</g>
		</g>
		<g>
			<g>
				<path class="st18" d="M104.285,227.449c0.148,0.576,0.263,1.163,0.362,1.753c0.021,0.124,0.04,0.248,0.059,0.373
					c0.089,0.586,0.16,1.176,0.201,1.771v0l0,0c0.035,0.504,0.056,1.011,0.056,1.518c0-0.508,0.021-1.014,0.056-1.518l0,0v0
					c0.041-0.595,0.112-1.185,0.201-1.771c0.019-0.125,0.038-0.248,0.059-0.373c0.1-0.59,0.215-1.177,0.362-1.753l15.02-58.572
					c-4.525,2.921-9.91,4.623-15.697,4.623c-5.787,0-11.172-1.703-15.697-4.623L104.285,227.449z"/>
			</g>
		</g>
		<g>
			<g>
				<circle class="st6" cx="177.244" cy="183.75" r="48.622"/>
			</g>
		</g>
		<g>
			<g>
				<path class="st1" d="M167.285,212.818l-19.109-19.109c-0.9-0.9-2.359-0.9-3.259,0l-3.431,3.431c-0.9,0.9-0.9,2.359,0,3.259
					l19.109,19.109c0.9,0.9,2.359,0.9,3.259,0l3.431-3.431C168.185,215.177,168.185,213.718,167.285,212.818z"/>
			</g>
		</g>
		<g>
			<g>
				<path class="st10" d="M166.651,212.184l22.975-22.975c3.323-3.323,3.323-8.71,0-12.033l-5.808-5.808
					c-3.323-3.323-8.71-3.323-12.033,0l-22.975,22.975L166.651,212.184z"/>
			</g>
		</g>
		<g>
			<g>
				<path class="st1" d="M138.388,212.969c1.354,1.796,2.839,3.525,4.475,5.162c1.636,1.636,3.365,3.121,5.162,4.475l7.834-7.834
					l-9.637-9.637L138.388,212.969z"/>
			</g>
		</g>
		<g>
			<g>
				<path class="st7" d="M183.818,171.368l5.808,5.808c0.262,0.262,0.495,0.54,0.716,0.826l4.434-4.434
					c0.989-0.989,0.989-2.592,0-3.58l-3.769-3.769c-0.989-0.989-2.592-0.989-3.58,0l-4.434,4.434
					C183.278,170.873,183.557,171.107,183.818,171.368z"/>
			</g>
		</g>
		<g>
			<g>
				<path d="M141.923,103.487c-0.514,0-1.033-0.027-1.587-0.084c-1.373-0.141-2.373-1.368-2.232-2.742
					c0.141-1.373,1.36-2.38,2.742-2.232c0.383,0.039,0.735,0.058,1.077,0.058c6.617,0,12.001-5.384,12.001-12.001
					s-5.384-12-12.001-12c-0.312,0-0.621,0.013-0.926,0.038c-1.371,0.107-2.581-0.916-2.692-2.292
					c-0.11-1.376,0.916-2.582,2.292-2.692c0.438-0.035,0.88-0.054,1.326-0.054c9.374,0,17.001,7.626,17.001,17
					C158.924,95.86,151.297,103.487,141.923,103.487z"/>
			</g>
		</g>
		<g>
			<g>
				<path d="M104.962,135.687c-20.529,0-37.231-16.702-37.231-37.232V77.771c0-0.784,0.368-1.523,0.994-1.995
					c0.626-0.473,1.438-0.625,2.191-0.409c25.915,7.384,43.875-10.649,48.761-16.352l0,0c0.848-0.991,2.032-1.581,3.333-1.663
					c1.294-0.082,2.591,0.375,3.557,1.252c3.952,3.591,7.84,5.848,11.557,6.709c2.397,0.556,4.072,2.645,4.072,5.081v28.06
					C142.194,118.985,125.492,135.687,104.962,135.687z M72.731,80.979v17.476c0,17.773,14.459,32.232,32.231,32.232
					c17.773,0,32.232-14.459,32.232-32.232v-28.06c0-0.113-0.101-0.187-0.201-0.21c-4.515-1.046-9.108-3.656-13.656-7.759
					C117.98,68.625,99.55,86.859,72.731,80.979z M121.575,60.642h0.01H121.575z"/>
			</g>
		</g>
		<g>
			<g>
				<path d="M68.002,103.487c-9.374,0-17-7.626-17-17.001c0-4.667,1.958-9.18,5.371-12.381c2.03-1.904,4.983-2.411,7.523-1.288
					c2.332,1.029,4.694,1.887,7.021,2.55c1.328,0.378,2.098,1.761,1.72,3.089c-0.378,1.329-1.762,2.099-3.089,1.72
					c-2.548-0.726-5.129-1.663-7.671-2.785c-0.702-0.311-1.519-0.168-2.083,0.361c-2.444,2.292-3.791,5.394-3.791,8.733
					c0,6.617,5.383,12.001,12,12.001c0.362,0,0.734-0.021,1.139-0.065c1.372-0.143,2.606,0.845,2.753,2.218
					c0.147,1.373-0.845,2.605-2.218,2.753C69.092,103.456,68.544,103.487,68.002,103.487z"/>
			</g>
		</g>
		<g>
			<g>
				<g>
					<path d="M57.734,78.146c-1.381,0-2.5-1.119-2.5-2.5v-7.891c0-27.421,22.308-49.729,49.729-49.729s49.729,22.308,49.729,49.729
						v7.62c0,1.381-1.119,2.5-2.5,2.5s-2.5-1.119-2.5-2.5v-7.62c0-24.664-20.065-44.729-44.729-44.729S60.234,43.091,60.234,67.755
						v7.891C60.234,77.027,59.115,78.146,57.734,78.146z"/>
				</g>
			</g>
		</g>
		<g>
			<g>
				<g>
					<path d="M138.141,156.064c-0.292,0-0.589-0.051-0.878-0.16c-1.012-0.379-1.991-0.802-2.913-1.255l-8.587-4.235
						c-4.182-2.062-6.78-6.24-6.78-10.902v-9.73c0-1.381,1.119-2.5,2.5-2.5s2.5,1.119,2.5,2.5v9.73c0,2.745,1.529,5.204,3.991,6.418
						l8.587,4.234c0.772,0.381,1.6,0.737,2.458,1.059c1.292,0.484,1.947,1.925,1.463,3.218
						C140.105,155.445,139.152,156.064,138.141,156.064z"/>
				</g>
			</g>
			<g>
				<g>
					<path d="M140.775,256H69.149c-2.854,0-5.177-2.322-5.177-5.177v-9.58c0-7.066-0.912-14.079-2.713-20.896v30.475
						c0,2.854-2.322,5.177-5.177,5.177h-21.99c-1.768,0-3.478-0.737-4.693-2.021c-1.214-1.284-1.854-3.033-1.756-4.797l2.742-75.37
						c0.412-7.403,5.487-13.554,12.631-15.352l24.832-6.268c1.903-0.479,3.758-1.161,5.515-2.027l8.587-4.234
						c2.462-1.214,3.991-3.673,3.991-6.418v-9.762c0-1.381,1.119-2.5,2.5-2.5s2.5,1.119,2.5,2.5v9.762
						c0,4.663-2.598,8.84-6.78,10.902l-8.587,4.234c-2.072,1.022-4.26,1.826-6.503,2.391l-24.832,6.268
						c-5.012,1.262-8.571,5.575-8.859,10.734l-2.742,75.37c-0.033,0.594,0.233,0.961,0.395,1.132S33.547,251,34.093,251h21.99
						c0.098,0,0.177-0.079,0.177-0.177v-47.143c0-1.235,0.902-2.285,2.123-2.472c1.22-0.186,2.395,0.548,2.763,1.727l3.883,12.438
						c2.617,8.384,3.944,17.088,3.944,25.87v9.58c0,0.098,0.079,0.177,0.177,0.177h71.626c0.098,0,0.177-0.079,0.177-0.177v-9.58
						c0-6.784,0.813-13.605,2.416-20.274c0.322-1.342,1.672-2.169,3.015-1.846c1.343,0.323,2.17,1.672,1.847,3.015
						c-1.511,6.287-2.277,12.715-2.277,19.105v9.58C145.952,253.678,143.63,256,140.775,256z"/>
				</g>
			</g>
		</g>
		<g>
			<g>
				<path d="M104.962,117.757c-4.776,0-9.261-1.949-11.999-5.215c-0.887-1.058-0.748-2.635,0.31-3.522
					c1.059-0.886,2.635-0.748,3.522,0.31c1.799,2.146,4.852,3.427,8.167,3.427c3.315,0,6.369-1.281,8.167-3.427
					c0.887-1.058,2.463-1.197,3.522-0.31c1.058,0.887,1.197,2.464,0.31,3.522C114.225,115.808,109.739,117.757,104.962,117.757z"/>
			</g>
		</g>
		<g>
			<g>
				<circle cx="120.073" cy="90.5" r="4.5"/>
			</g>
		</g>
		<g>
			<g>
				<circle cx="89.852" cy="90.5" r="4.5"/>
			</g>
		</g>
		<g>
			<g>
				<path d="M175.832,256h-21.99c-2.854,0-5.177-2.322-5.177-5.177v-25.406c0-1.381,1.119-2.5,2.5-2.5s2.5,1.119,2.5,2.5v25.406
					c0,0.098,0.079,0.177,0.177,0.177h21.99c0.546,0,0.898-0.286,1.06-0.457s0.428-0.538,0.397-1.084l-0.589-16.155
					c-0.051-1.379,1.027-2.539,2.407-2.589c1.36-0.044,2.539,1.027,2.589,2.408l0.587,16.107c0.096,1.717-0.545,3.465-1.76,4.75
					C179.31,255.264,177.599,256,175.832,256z"/>
			</g>
		</g>
		<g>
			<g>
				<path d="M68.407,156.521c-0.308,0-0.621-0.057-0.924-0.178c-5.7-2.271-10.009-5.669-12.808-10.101
					c-6.161-9.754-2.296-19.257-0.349-22.89c0.249-0.464,0.204-1.044-0.12-1.552c-7.271-11.403-3.73-22.548-0.973-28.177
					c0.608-1.239,2.105-1.752,3.345-1.145c1.24,0.607,1.752,2.105,1.145,3.345c-2.805,5.725-4.961,14.413,0.698,23.288
					c1.29,2.023,1.409,4.553,0.311,6.602c-1.905,3.554-4.416,10.599,0.169,17.858c2.223,3.521,5.733,6.254,10.431,8.126
					c1.283,0.511,1.908,1.965,1.397,3.248C70.34,155.924,69.401,156.521,68.407,156.521z"/>
			</g>
		</g>
		<g>
			<g>
				<path d="M155.375,142.479c-0.232,0-0.468-0.032-0.702-0.101c-1.325-0.387-2.086-1.775-1.698-3.101
					c1.685-5.768-0.394-10.974-1.782-13.564c-1.099-2.049-0.979-4.579,0.312-6.603c5.541-8.691,3.559-17.21,0.919-22.827
					c-0.587-1.25-0.05-2.739,1.199-3.326c1.251-0.59,2.739-0.049,3.326,1.199c4.486,9.547,4.05,19.363-1.229,27.642
					c-0.324,0.508-0.369,1.088-0.121,1.552c1.75,3.262,4.358,9.852,2.175,17.327C157.455,141.771,156.457,142.479,155.375,142.479z"
					/>
			</g>
		</g>
		<g>
			<g>
				<path d="M192.919,170.575c-0.64,0-1.279-0.244-1.768-0.732c-0.977-0.976-0.977-2.559,0-3.535l12.396-12.395
					c0.977-0.977,2.559-0.977,3.535,0c0.977,0.976,0.977,2.559,0,3.535l-12.396,12.395
					C194.198,170.331,193.559,170.575,192.919,170.575z"/>
			</g>
		</g>
		<g>
			<g>
				<path d="M185.56,193.451c-0.64,0-1.279-0.244-1.768-0.732l-2.973-2.973c-0.977-0.977-0.977-2.559,0-3.536
					c0.977-0.976,2.559-0.976,3.535,0l2.973,2.973c0.977,0.977,0.977,2.559,0,3.536C186.839,193.207,186.199,193.451,185.56,193.451
					z"/>
			</g>
		</g>
		<g>
			<g>
				<path d="M178.87,200.141c-0.64,0-1.279-0.244-1.768-0.732l-2.974-2.974c-0.977-0.976-0.977-2.559,0-3.535
					c0.977-0.977,2.559-0.977,3.535,0l2.974,2.974c0.977,0.976,0.977,2.559,0,3.535C180.149,199.897,179.51,200.141,178.87,200.141z
					"/>
			</g>
		</g>
		<g>
			<g>
				<path d="M172.18,206.832c-0.64,0-1.279-0.244-1.768-0.732l-2.974-2.974c-0.977-0.976-0.977-2.559,0-3.535
					c0.977-0.977,2.559-0.977,3.535,0l2.974,2.974c0.977,0.976,0.977,2.559,0,3.535C173.459,206.587,172.819,206.832,172.18,206.832
					z"/>
			</g>
		</g>
		<g>
			<g>
				<path class="st7" d="M41.822,125.33c-4.498-0.838-8.043-4.31-8.898-8.716c-0.043-0.221-0.352-0.221-0.395,0
					c-0.855,4.406-4.4,7.879-8.898,8.716c-0.226,0.042-0.226,0.345,0,0.387c4.498,0.838,8.043,4.31,8.898,8.717
					c0.043,0.221,0.352,0.221,0.395,0c0.855-4.406,4.4-7.879,8.898-8.717C42.047,125.675,42.047,125.373,41.822,125.33z"/>
			</g>
		</g>
		<g>
			<g>
				<path class="st8" d="M179.515,112.101c-2.862-0.533-5.118-2.743-5.663-5.547c-0.027-0.141-0.224-0.141-0.251,0
					c-0.544,2.804-2.8,5.014-5.663,5.547c-0.144,0.027-0.144,0.219,0,0.246c2.862,0.533,5.118,2.743,5.663,5.547
					c0.027,0.141,0.224,0.141,0.251,0c0.544-2.804,2.8-5.014,5.663-5.547C179.658,112.32,179.658,112.128,179.515,112.101z"/>
			</g>
		</g>
		<g>
			<g>
				<path class="st6" d="M162.246,25.75h2.33v-2.33c0-1.744,1.413-3.157,3.157-3.157s3.157,1.413,3.157,3.157v2.33h2.329
					c1.744,0,3.157,1.413,3.157,3.157s-1.413,3.157-3.157,3.157h-2.329v2.33c0,1.744-1.413,3.157-3.157,3.157
					s-3.157-1.413-3.157-3.157v-2.33h-2.33c-1.744,0-3.157-1.413-3.157-3.157S160.502,25.75,162.246,25.75z"/>
			</g>
		</g>
		<g>
			<g>
				<circle class="st6" cx="20.755" cy="154.825" r="3.377"/>
			</g>
		</g>
		<g>
			<g>
				<circle class="st9" cx="154.755" cy="3.377" r="3.377"/>
			</g>
		</g>
		<g>
			<g>
				<path d="M104.962,255c-1.381,0-2.5-1.119-2.5-2.5v-19.637c0-1.63-0.202-3.243-0.599-4.794l-20.274-79.06
					c-0.343-1.337,0.463-2.7,1.801-3.043c1.339-0.339,2.7,0.463,3.043,1.801l20.274,79.061c0.501,1.956,0.755,3.987,0.755,6.036
					V252.5C107.462,253.881,106.343,255,104.962,255z"/>
			</g>
		</g>
		<g>
			<g>
				<path d="M105.018,233.845c-0.305,0-0.613-0.056-0.909-0.171c-1.018-0.397-1.659-1.41-1.584-2.5
					c0.102-1.488,0.336-2.95,0.694-4.347l20.282-79.092c0.343-1.337,1.702-2.142,3.043-1.801c1.337,0.343,2.144,1.706,1.801,3.043
					l-18.583,72.467l18.809-23.431c0.864-1.077,2.436-1.249,3.515-0.385c1.076,0.864,1.248,2.438,0.384,3.515l-25.5,31.767
					C106.483,233.514,105.76,233.845,105.018,233.845z"/>
			</g>
		</g>
		<g>
			<g>
				<path d="M104.475,233.306c-0.732,0-1.457-0.32-1.951-0.935L71.02,193.125c-1.168-1.454-1.425-3.531-0.655-5.29l4.727-10.796
					c0.012-0.027,0.016-0.065,0.015-0.102l-7.083-3.529c-1.777-0.885-2.8-2.999-2.487-5.141l2.045-14.01
					c0.199-1.367,1.467-2.316,2.834-2.113c1.366,0.199,2.313,1.468,2.113,2.834l-2.045,14.011c-0.003,0.02-0.004,0.039-0.003,0.056
					l7.083,3.529c2.236,1.115,3.182,4.017,2.108,6.47l-4.727,10.796c-0.022,0.05-0.019,0.151,0,0.192l31.479,39.207
					c0.864,1.077,0.692,2.65-0.385,3.515C105.577,233.125,105.024,233.306,104.475,233.306z M70.495,169.136h0.01H70.495z"/>
			</g>
		</g>
		<g>
			<g>
				<path d="M104.962,176c-5.851,0-11.569-1.625-16.539-4.698c-1.174-0.726-1.538-2.267-0.811-3.441
					c0.726-1.174,2.267-1.537,3.441-0.811c4.179,2.584,8.988,3.95,13.909,3.95c4.928,0,9.741-1.368,13.921-3.957
					c1.175-0.727,2.715-0.365,3.442,0.809s0.365,2.715-0.809,3.442C116.545,174.373,110.821,176,104.962,176z"/>
			</g>
		</g>
		<g>
			<g>
				<path d="M177.244,234.848c-13.091,0-26.183-4.983-36.148-14.949c-19.933-19.932-19.933-52.365,0-72.297
					c19.932-19.933,52.365-19.933,72.297,0c9.656,9.655,14.974,22.493,14.974,36.148s-5.317,26.493-14.974,36.148
					C203.427,229.865,190.335,234.848,177.244,234.848z M177.244,137.65c-11.811,0-23.622,4.496-32.613,13.487
					c-17.983,17.983-17.983,47.244,0,65.227c8.99,8.99,20.804,13.485,32.613,13.487c11.813,0.001,23.62-4.495,32.613-13.487
					c8.711-8.711,13.509-20.293,13.509-32.613s-4.798-23.902-13.509-32.613C200.866,142.146,189.055,137.65,177.244,137.65z"/>
			</g>
		</g>
		<g>
			<g>
				<path d="M162.225,222.681c-1.23,0-2.461-0.468-3.397-1.404l-19.108-19.109c-0.907-0.907-1.408-2.114-1.408-3.397
					c0-1.284,0.501-2.491,1.408-3.398l3.431-3.431c1.873-1.873,4.922-1.873,6.795,0l19.108,19.109
					c0.908,0.907,1.408,2.114,1.408,3.397c0,1.284-0.501,2.491-1.408,3.398l-3.431,3.431
					C164.686,222.212,163.455,222.681,162.225,222.681z M143.393,198.77l18.832,18.833l3.154-3.155l-18.832-18.833L143.393,198.77z
					 M165.518,214.586h0.011H165.518z"/>
			</g>
		</g>
		<g>
			<g>
				<path d="M167.188,214.146c-0.64,0-1.279-0.244-1.768-0.732c-0.977-0.976-0.977-2.559,0-3.535l22.438-22.438
					c1.135-1.135,1.76-2.644,1.76-4.249s-0.625-3.114-1.76-4.249l-5.808-5.808c-2.344-2.342-6.154-2.342-8.498,0l-22.354,22.354
					c-0.977,0.977-2.559,0.977-3.535,0c-0.977-0.976-0.977-2.559,0-3.535l22.354-22.354c4.293-4.292,11.275-4.292,15.568,0
					l5.808,5.808c2.08,2.079,3.225,4.843,3.225,7.784c0,2.94-1.145,5.705-3.225,7.785l-22.438,22.437
					C168.468,213.902,167.828,214.146,167.188,214.146z"/>
			</g>
		</g>
		<g>
			<g>
				<path d="M138.929,214.928c-0.64,0-1.279-0.244-1.768-0.732c-0.977-0.976-0.977-2.559,0-3.535l6.616-6.616
					c0.977-0.977,2.559-0.977,3.535,0c0.977,0.976,0.977,2.559,0,3.535l-6.616,6.616
					C140.208,214.684,139.568,214.928,138.929,214.928z"/>
			</g>
		</g>
		<g>
			<g>
				<path d="M148.606,224.524c-0.64,0-1.279-0.244-1.768-0.732c-0.977-0.976-0.977-2.559,0-3.536l6.818-6.818
					c0.977-0.976,2.559-0.976,3.535,0c0.977,0.976,0.977,2.559,0,3.536l-6.818,6.818
					C149.886,224.28,149.246,224.524,148.606,224.524z"/>
			</g>
		</g>
		<g>
			<g>
				<path d="M190.952,179.891c-0.64,0-1.279-0.244-1.768-0.732c-0.977-0.976-0.977-2.559,0-3.535l3.823-3.823l-3.769-3.814
					l-3.993,3.948c-0.977,0.976-2.559,0.976-3.535,0c-0.977-0.976-0.977-2.559,0-3.536l3.948-3.948c1.961-1.961,5.154-1.961,7.115,0
					l3.769,3.769c0.95,0.95,1.475,2.213,1.475,3.558c0,1.345-0.524,2.608-1.476,3.559l-3.822,3.822
					C192.231,179.646,191.592,179.891,190.952,179.891z"/>
			</g>
		</g>
	</g>
</g>
<g id="Layer_9">
</g>
<g id="Layer_10">
</g>
<g id="Layer_11">
</g>
<g id="Layer_12">
</g>
<g id="Layer_13">
</g>
<g id="Layer_14">
</g>
<g id="Layer_15">
</g>
<g id="Layer_16">
</g>
<g id="Layer_17">
</g>
<g id="Layer_18">
</g>
<g id="Layer_19">
</g>
<g id="Layer_20">
</g>
<g id="Layer_21">
</g>
<g id="Layer_22">
</g>
<g id="Layer_23">
</g>
<g id="Layer_24">
</g>
<g id="Layer_25">
</g>
<g id="Layer_26">
</g>
<g id="Layer_27">
</g>
<g id="Layer_28">
</g>
<g id="Layer_29">
</g>
<g id="Layer_30">
</g>
<g id="Layer_31">
</g>
<g id="Layer_32">
</g>
<g id="Layer_33">
</g>
<g id="Layer_34">
</g>
<g id="Layer_35">
</g>
<g id="Layer_36">
</g>
<g id="Layer_37">
</g>
<g id="Layer_38">
</g>
<g id="Layer_39">
</g>
<g id="Layer_40">
</g>
<g id="Layer_41">
</g>
<g id="Layer_42">
</g>
<g id="Layer_43">
</g>
<g id="Layer_44">
</g>
<g id="Layer_45">
</g>
<g id="Layer_46">
</g>
<g id="Layer_47">
</g>
<g id="Layer_48">
</g>
<g id="Layer_49">
</g>
<g id="Layer_50">
</g>
<g id="Layer_51">
</g>
<g id="Layer_52">
</g>
<g id="Layer_53">
</g>
<g id="Layer_54">
</g>
<g id="Layer_55">
</g>
<g id="Layer_56">
</g>
<g id="Layer_57">
</g>
<g id="Layer_58">
</g>
<g id="Layer_59">
</g>
<g id="Layer_60">
</g>
<g id="Layer_61">
</g>
<g id="Layer_62">
</g>
<g id="Layer_63">
</g>
<g id="Layer_64">
</g>
<g id="Layer_65">
</g>
<g id="Layer_66">
</g>
<g id="Layer_67">
</g>
<g id="Layer_68">
</g>
<g id="Layer_69">
</g>
<g id="Layer_70">
</g>
<g id="Layer_71">
</g>
<g id="Layer_72">
</g>
<g id="Layer_73">
</g>
<g id="Layer_74">
</g>
<g id="Layer_75">
</g>
<g id="Layer_76">
</g>
<g id="Layer_77">
</g>
<g id="Layer_78">
</g>
<g id="Layer_79">
</g>
<g id="Layer_80">
</g>
</svg>
