<?xml version="1.0" encoding="utf-8"?>
<!-- Generator: Adobe Illustrator 24.0.0, SVG Export Plug-In . SVG Version: 6.00 Build 0)  -->
<svg version="1.1" xmlns="http://www.w3.org/2000/svg" xmlns:xlink="http://www.w3.org/1999/xlink" x="0px" y="0px"
	 viewBox="0 0 256 256" style="enable-background:new 0 0 256 256;" xml:space="preserve">
<style type="text/css">
	.st0{fill:#3A70BF;}
	.st1{fill:#EDF4FC;}
	.st2{fill:#C7D7E5;}
	.st3{fill:#F9D0B4;}
	.st4{fill:#5B5D60;}
	.st5{fill:#5290DB;}
	.st6{fill:#70D6F9;}
	.st7{fill:#F5C84C;}
	.st8{fill:#FC657E;}
	.st9{fill:#87D147;}
	.st10{fill:#FCDD86;}
	.st11{fill:#9BE5F9;}
	.st12{fill:#B2E26D;}
	.st13{fill:#754E34;}
	.st14{fill:#FCA265;}
	.st15{fill:#818182;}
	.st16{fill:#F94EED;}
	.st17{fill:#FFC197;}
	.st18{fill:#3CAADC;}
	.st19{fill:#DAE6F1;}
	.st20{fill:#57AF12;}
	.st21{fill:#EF4460;}
	.st22{fill:#FFF0CA;}
	.st23{fill:#F98FA6;}
	.st24{fill:#EDB311;}
	.st25{fill:#FC8C48;}
	.st26{fill:#FCB9CB;}
	.st27{fill:#96BC71;}
	.st28{fill:#78A352;}
	.st29{fill:#B8DD90;}
	.st30{fill:#6FAFEF;}
	.st31{fill:#29589F;}
	.st32{fill:#414344;}
	.st33{fill:#9B6B4B;}
	.st34{fill:#73B1EF;}
</style>
<g id="Layer_1">
</g>
<g id="Layer_2">
</g>
<g id="Layer_3">
</g>
<g id="Layer_4">
</g>
<g id="Layer_5">
</g>
<g id="Layer_6">
</g>
<g id="Layer_7">
	<g>
		<g>
			<g>
				<path class="st3" d="M111.896,56.772C98.303,73.866,78.252,71.454,71.51,70.043c-1.225-0.256-2.401,0.667-2.402,1.919
					c0,0.008,0,0.017,0,0.025v29.936c0,20.468,16.747,37.215,37.215,37.215h0c20.468,0,37.215-16.747,37.215-37.215V68.772
					c0-0.194-0.002-0.388-0.006-0.582c-0.021-1.055-0.866-1.925-1.921-1.956c-15.46-0.453-23.606-6.581-26.736-9.649
					C114.02,55.747,112.641,55.836,111.896,56.772z"/>
			</g>
		</g>
		<g>
			<g>
				<g>
					<path class="st10" d="M66.72,73.561c0.813,0,1.609,0.069,2.388,0.189v-1.763c0-0.008,0-0.017,0-0.025
						c0.001-1.252,1.177-2.175,2.402-1.919c6.742,1.411,26.794,3.823,40.386-13.27c0.745-0.937,2.124-1.025,2.978-0.187
						c3.13,3.068,11.276,9.196,26.736,9.649c1.055,0.031,1.9,0.901,1.921,1.956c0.004,0.194,0.006,0.388,0.006,0.582v4.978
						c0.779-0.121,1.575-0.189,2.388-0.189c4.188,0,7.982,1.665,10.777,4.36V49.973c0-11.692-9.566-21.258-21.258-21.258
						c-3.966,0-7.673,1.121-10.859,3.031c-3.722-6.211-10.502-10.405-18.23-10.405H95.439c-21.127,0-38.413,17.286-38.413,38.413
						v17.212C59.684,74.84,63.05,73.561,66.72,73.561z"/>
				</g>
			</g>
		</g>
		<g>
			<g>
				<path class="st3" d="M145.926,73.561c-0.813,0-1.609,0.069-2.388,0.189c0,3.96,0,22.286,0,28.173
					c0,0.839-0.038,1.67-0.094,2.496c0.81,0.13,1.635,0.217,2.482,0.217c8.581,0,15.537-6.956,15.537-15.537
					S154.507,73.561,145.926,73.561z"/>
			</g>
		</g>
		<g>
			<g>
				<path class="st3" d="M69.108,101.923c0-3.856,0-20.507,0-28.173c-0.779-0.121-1.575-0.189-2.388-0.189
					c-8.581,0-15.538,6.957-15.538,15.538s6.956,15.537,15.538,15.537c0.847,0,1.672-0.086,2.482-0.217v-0.001
					C69.146,103.593,69.108,102.762,69.108,101.923z"/>
			</g>
		</g>
		<g>
			<g>
				<g>
					<path class="st18" d="M106.186,216.654c0.148,0.463,0.263,0.935,0.363,1.409c0.021,0.099,0.04,0.199,0.058,0.299
						c0.089,0.471,0.16,0.945,0.201,1.423c0,0,0,0,0,0.001l0,0c0.035,0.405,0.056,0.812,0.056,1.22c0-0.408,0.021-0.815,0.056-1.22
						l0,0c0,0,0,0,0,0c0.041-0.478,0.112-0.952,0.201-1.423c0.019-0.1,0.038-0.199,0.058-0.299c0.1-0.474,0.215-0.946,0.363-1.409
						l21.039-65.86c-2.856-2.409-4.572-5.982-4.572-9.822v-6.335c-5.268,2.868-11.296,4.501-17.686,4.501h0
						c-5.959,0-11.597-1.427-16.604-3.945v5.778c0,3.84-1.716,7.412-4.572,9.822L106.186,216.654z"/>
				</g>
			</g>
		</g>
		<g>
			<g>
				<circle class="st6" cx="179.146" cy="183.75" r="48.622"/>
			</g>
		</g>
		<g>
			<g>
				<path class="st19" d="M144.765,218.131c-16.806-16.806-18.725-42.85-5.78-61.78l-7.805-3.848
					c-0.947-0.467-1.813-1.047-2.599-1.709l-21.039,65.86c-0.449,1.407-0.678,2.875-0.678,4.352V253.5h74.549
					c2.344,0,4.207-1.969,4.076-4.31l-0.993-17.124C170.336,233.626,155.622,228.988,144.765,218.131z"/>
			</g>
		</g>
		<g>
			<g>
				<path class="st19" d="M106.864,221.006c0-1.477-0.229-2.945-0.678-4.352l-21.039-65.86c-0.785,0.662-1.652,1.242-2.599,1.709
					l-10.215,5.037l-28.902,7.275c-6.233,1.569-10.721,7.008-11.078,13.425l-4.115,70.951c-0.13,2.34,1.732,4.31,4.076,4.31h74.549
					V221.006z"/>
			</g>
		</g>
		<g>
			<g>
				<path class="st1" d="M138.985,156.351l-7.805-3.848c-0.947-0.467-1.814-1.047-2.599-1.709l-21.039,65.86
					c-0.325,1.018-0.531,2.069-0.622,3.132l24.898-24.898C128.764,181.849,131.155,167.801,138.985,156.351z"/>
			</g>
		</g>
		<g>
			<g>
				<path class="st1" d="M70.997,171.423l7.319,2.928c1.026,0.411,1.464,1.625,0.934,2.596l-4.733,8.677
					c-0.392,0.718-0.264,1.609,0.315,2.187l31.975,31.975c-0.091-1.063-0.297-2.113-0.622-3.132l-21.039-65.86
					c-0.785,0.662-1.652,1.242-2.599,1.709l-10.215,5.037l-0.328,0.083l-2.138,11.759C69.711,170.243,70.183,171.097,70.997,171.423
					z"/>
			</g>
		</g>
		<g>
			<g>
				<g>
					<path class="st3" d="M111.073,161.422l14.195-14.922c-0.811-1.696-1.258-3.576-1.258-5.528v-6.335
						c-5.268,2.868-11.296,4.501-17.686,4.501h0c-5.959,0-11.597-1.427-16.604-3.945v5.778c0,1.951-0.447,3.832-1.258,5.528
						l14.195,14.922c0.417,0.438,0.603,1.01,0.573,1.573c1.022,0.086,2.051,0.143,3.094,0.143h0c1.411,0,2.796-0.104,4.167-0.26
						C110.491,162.354,110.685,161.83,111.073,161.422z"/>
				</g>
			</g>
		</g>
		<g>
			<g>
				<path class="st6" d="M125.267,146.5l-14.195,14.922c-0.77,0.81-0.78,2.078-0.022,2.899l8.157,8.837
					c0.535,0.58,1.291,0.802,2.006,0.697l7.367-23.061C127.176,149.609,126.052,148.141,125.267,146.5z"/>
			</g>
		</g>
		<g>
			<g>
				<path class="st6" d="M88.461,146.5c-0.785,1.641-1.909,3.109-3.314,4.294l7.367,23.061c0.715,0.105,1.471-0.117,2.006-0.697
					l8.157-8.837c0.758-0.821,0.748-2.089-0.022-2.899L88.461,146.5z"/>
			</g>
		</g>
		<g>
			<g>
				<path class="st0" d="M107.18,218.063c0.1-0.474,0.215-0.946,0.363-1.409l8.2-25.671l-3.858-19.808
					c-1.467,0.886-3.181,1.406-5.021,1.406s-3.553-0.519-5.021-1.406l-3.858,19.808l8.2,25.671c0.148,0.463,0.263,0.935,0.363,1.409
					c0.021,0.099,0.04,0.199,0.058,0.299c0.089,0.471,0.16,0.945,0.201,1.423c0,0,0,0,0,0.001c0.035,0.405,0.056,0.812,0.056,1.22
					c0-0.408,0.021-0.815,0.056-1.22c0,0,0,0,0,0c0.041-0.478,0.112-0.952,0.201-1.423
					C107.14,218.262,107.159,218.162,107.18,218.063z"/>
			</g>
		</g>
		<g>
			<g>
				<g>
					<path class="st0" d="M111.051,164.321c-0.376-0.408-0.562-0.926-0.561-1.443v0c-1.371,0.155-2.756,0.26-4.167,0.26h0
						c-1.043,0-2.072-0.058-3.094-0.143c-0.025,0.478-0.203,0.949-0.551,1.326l-3.784,4.1c1.76,2.513,4.67,4.161,7.971,4.161
						s6.211-1.647,7.971-4.161L111.051,164.321z"/>
				</g>
			</g>
		</g>
		<g>
			<g>
				<path class="st1" d="M169.187,212.818l-19.109-19.109c-0.9-0.9-2.359-0.9-3.259,0l-3.431,3.431c-0.9,0.9-0.9,2.359,0,3.259
					l19.109,19.109c0.9,0.9,2.359,0.9,3.259,0l3.431-3.431C170.087,215.177,170.087,213.718,169.187,212.818z"/>
			</g>
		</g>
		<g>
			<g>
				<path class="st10" d="M168.553,212.184l22.975-22.975c3.323-3.323,3.323-8.71,0-12.033l-5.808-5.808
					c-3.323-3.323-8.71-3.323-12.033,0l-22.975,22.975L168.553,212.184z"/>
			</g>
		</g>
		<g>
			<g>
				<path class="st1" d="M140.29,212.969c1.354,1.796,2.839,3.525,4.475,5.162c1.636,1.636,3.365,3.121,5.162,4.475l7.834-7.834
					l-9.637-9.637L140.29,212.969z"/>
			</g>
		</g>
		<g>
			<g>
				<path class="st7" d="M185.72,171.368l5.808,5.808c0.262,0.262,0.495,0.54,0.716,0.826l4.434-4.434
					c0.989-0.989,0.989-2.592,0-3.58l-3.769-3.769c-0.989-0.989-2.592-0.989-3.58,0l-4.434,4.434
					C185.18,170.873,185.458,171.107,185.72,171.368z"/>
			</g>
		</g>
		<g>
			<g>
				<path d="M106.323,141.638c-21.899,0-39.715-17.816-39.715-39.715V71.987c0.001-1.371,0.603-2.628,1.65-3.479
					c1.059-0.859,2.432-1.192,3.764-0.912c7.236,1.514,25.418,3.34,37.917-12.38v0c0.796-1,1.982-1.619,3.253-1.698
					c1.272-0.08,2.521,0.389,3.432,1.281c2.593,2.542,10.226,8.501,25.06,8.936c2.391,0.071,4.3,2.006,4.348,4.406
					c0.004,0.209,0.006,0.42,0.006,0.632v33.151C146.038,123.822,128.222,141.638,106.323,141.638z M71.608,72.613v29.311
					c0,19.142,15.573,34.715,34.715,34.715c19.142,0,34.715-15.573,34.715-34.715V68.772c0-0.019,0-0.038,0-0.056
					c-15.154-0.563-23.626-6.308-27.522-9.97C99.329,76.145,78.596,73.963,71.608,72.613z M113.853,58.329
					c0,0.001,0,0.001-0.001,0.002C113.852,58.33,113.852,58.33,113.853,58.329L113.853,58.329z"/>
			</g>
		</g>
		<g>
			<g>
				<g>
					<path d="M156.703,79.375c-1.381,0-2.5-1.119-2.5-2.5V49.973c0-10.343-8.415-18.758-18.758-18.758
						c-3.345,0-6.655,0.925-9.574,2.675c-0.569,0.341-1.251,0.44-1.893,0.281c-0.643-0.161-1.196-0.571-1.537-1.14
						c-3.396-5.668-9.56-9.19-16.086-9.19H95.439c-19.803,0-35.914,16.111-35.914,35.914v16.62c0,1.381-1.119,2.5-2.5,2.5
						s-2.5-1.119-2.5-2.5v-16.62c0-22.56,18.354-40.914,40.914-40.914h10.916c7.481,0,14.582,3.641,19.048,9.638
						c3.15-1.487,6.579-2.264,10.042-2.264c13.1,0,23.758,10.658,23.758,23.758v26.902
						C159.203,78.256,158.083,79.375,156.703,79.375z"/>
				</g>
			</g>
		</g>
		<g>
			<g>
				<path d="M158.409,255.04c-1.381,0-2.5-1.119-2.5-2.5v-24.352c0-1.381,1.119-2.5,2.5-2.5s2.5,1.119,2.5,2.5v24.352
					C160.909,253.92,159.79,255.04,158.409,255.04z"/>
			</g>
		</g>
		<g>
			<g>
				<path d="M55.319,255.04c-1.381,0-2.5-1.119-2.5-2.5v-56.644c0-1.381,1.119-2.5,2.5-2.5s2.5,1.119,2.5,2.5v56.644
					C57.819,253.92,56.7,255.04,55.319,255.04z"/>
			</g>
		</g>
		<g>
			<g>
				<path d="M145.926,107.136c-0.565,0-1.133-0.031-1.737-0.095c-1.373-0.146-2.368-1.376-2.223-2.75
					c0.146-1.373,1.378-2.363,2.75-2.223c0.427,0.045,0.823,0.067,1.21,0.067c7.189,0,13.038-5.849,13.038-13.038
					s-5.849-13.038-13.038-13.038c-0.336,0-0.668,0.014-0.998,0.041c-1.37,0.112-2.582-0.916-2.692-2.292
					c-0.11-1.376,0.916-2.582,2.292-2.692c0.461-0.037,0.927-0.057,1.398-0.057c9.946,0,18.038,8.092,18.038,18.038
					S155.872,107.136,145.926,107.136z"/>
			</g>
		</g>
		<g>
			<g>
				<path d="M66.72,107.136c-9.946,0-18.038-8.092-18.038-18.038s8.092-18.038,18.038-18.038c0.61,0,1.236,0.034,1.861,0.1
					c1.373,0.146,2.368,1.376,2.222,2.75c-0.146,1.373-1.37,2.368-2.75,2.222c-0.451-0.047-0.899-0.072-1.333-0.072
					c-7.189,0-13.038,5.849-13.038,13.038s5.849,13.038,13.038,13.038c0.417,0,0.849-0.026,1.321-0.08
					c1.377-0.149,2.61,0.832,2.766,2.203c0.155,1.372-0.831,2.61-2.203,2.766C67.943,107.1,67.327,107.136,66.72,107.136z"/>
			</g>
		</g>
		<g>
			<g>
				<path d="M106.864,118.573c-4.776,0-9.262-1.95-11.999-5.215c-0.887-1.058-0.748-2.635,0.31-3.522
					c1.06-0.888,2.636-0.747,3.522,0.31c1.798,2.146,4.852,3.427,8.167,3.427c3.315,0,6.368-1.281,8.167-3.427
					c0.886-1.057,2.463-1.197,3.522-0.309c1.058,0.887,1.196,2.464,0.309,3.522C116.125,116.624,111.64,118.573,106.864,118.573z"/>
			</g>
		</g>
		<g>
			<g>
				<circle cx="123.654" cy="90.816" r="5"/>
			</g>
		</g>
		<g>
			<g>
				<circle cx="90.075" cy="90.816" r="5"/>
			</g>
		</g>
		<g>
			<g>
				<g>
					<path d="M85.149,153.294c-0.711,0-1.417-0.302-1.912-0.888c-0.891-1.056-0.757-2.633,0.298-3.523
						c2.341-1.976,3.684-4.859,3.684-7.911v-4.931c0-1.381,1.119-2.5,2.5-2.5s2.5,1.119,2.5,2.5v4.931
						c0,4.529-1.99,8.805-5.459,11.732C86.291,153.101,85.718,153.294,85.149,153.294z"/>
				</g>
			</g>
			<g>
				<g>
					<path d="M128.58,153.294c-0.569,0-1.141-0.193-1.61-0.589c-3.47-2.927-5.46-7.203-5.46-11.732v-5.305
						c0-1.381,1.119-2.5,2.5-2.5s2.5,1.119,2.5,2.5v5.305c0,3.053,1.343,5.936,3.684,7.911c1.056,0.89,1.189,2.467,0.299,3.522
						C129.998,152.992,129.291,153.294,128.58,153.294z"/>
				</g>
			</g>
		</g>
		<g>
			<g>
				<path d="M179.146,234.848c-13.093,0.001-26.181-4.981-36.148-14.949c-9.656-9.655-14.974-22.493-14.974-36.148
					s5.318-26.493,14.974-36.148c19.932-19.933,52.364-19.933,72.296,0l0,0l0,0c9.656,9.655,14.974,22.493,14.974,36.148
					s-5.318,26.493-14.974,36.148C205.329,229.864,192.235,234.847,179.146,234.848z M179.146,137.65
					c-11.811,0-23.621,4.496-32.613,13.487c-8.711,8.711-13.509,20.293-13.509,32.613s4.797,23.902,13.509,32.613
					c17.984,17.982,47.243,17.983,65.226,0c8.711-8.711,13.509-20.293,13.509-32.613s-4.797-23.902-13.509-32.613l0,0
					C202.767,142.146,190.957,137.65,179.146,137.65z"/>
			</g>
		</g>
		<g>
			<g>
				<path d="M194.821,170.575c-0.64,0-1.28-0.244-1.768-0.732c-0.977-0.976-0.977-2.559,0-3.535l12.396-12.395
					c0.976-0.977,2.56-0.977,3.535,0c0.977,0.976,0.977,2.559,0,3.535l-12.396,12.395
					C196.101,170.331,195.46,170.575,194.821,170.575z"/>
			</g>
		</g>
		<g>
			<g>
				<path d="M187.462,193.451c-0.64,0-1.279-0.244-1.768-0.732l-2.974-2.973c-0.977-0.977-0.977-2.559,0-3.536
					c0.977-0.977,2.559-0.976,3.536,0l2.974,2.973c0.977,0.977,0.977,2.559,0,3.536
					C188.742,193.207,188.102,193.451,187.462,193.451z"/>
			</g>
		</g>
		<g>
			<g>
				<path d="M180.771,200.141c-0.64,0-1.28-0.244-1.768-0.732l-2.974-2.974c-0.977-0.976-0.977-2.559,0-3.535
					c0.976-0.977,2.56-0.977,3.535,0l2.974,2.974c0.977,0.976,0.977,2.559,0,3.535C182.051,199.897,181.411,200.141,180.771,200.141
					z"/>
			</g>
		</g>
		<g>
			<g>
				<path d="M174.081,206.832c-0.64,0-1.28-0.244-1.768-0.732l-2.974-2.974c-0.977-0.976-0.977-2.559,0-3.535
					c0.976-0.977,2.56-0.977,3.535,0l2.974,2.974c0.977,0.976,0.977,2.559,0,3.535C175.361,206.587,174.721,206.832,174.081,206.832
					z"/>
			</g>
		</g>
		<g>
			<g>
				<path class="st7" d="M184.822,28.33c-4.498-0.838-8.043-4.31-8.898-8.716c-0.043-0.221-0.352-0.221-0.395,0
					c-0.855,4.406-4.4,7.879-8.898,8.716c-0.226,0.042-0.226,0.345,0,0.387c4.498,0.838,8.043,4.31,8.898,8.717
					c0.043,0.221,0.352,0.221,0.395,0c0.855-4.406,4.4-7.879,8.898-8.717C185.047,28.675,185.047,28.373,184.822,28.33z"/>
			</g>
		</g>
		<g>
			<g>
				<path class="st8" d="M183.515,112.101c-2.862-0.533-5.118-2.743-5.663-5.547c-0.027-0.141-0.224-0.141-0.251,0
					c-0.544,2.804-2.8,5.014-5.663,5.547c-0.144,0.027-0.144,0.219,0,0.246c2.862,0.533,5.118,2.743,5.663,5.547
					c0.027,0.141,0.224,0.141,0.251,0c0.544-2.804,2.8-5.014,5.663-5.547C183.658,112.32,183.658,112.128,183.515,112.101z"/>
			</g>
		</g>
		<g>
			<g>
				<path class="st6" d="M44.246,120.75h2.33v-2.33c0-1.744,1.413-3.157,3.157-3.157c1.744,0,3.157,1.413,3.157,3.157v2.33h2.329
					c1.744,0,3.157,1.413,3.157,3.157s-1.413,3.157-3.157,3.157h-2.329v2.33c0,1.744-1.413,3.157-3.157,3.157
					c-1.744,0-3.157-1.413-3.157-3.157v-2.33h-2.33c-1.744,0-3.157-1.413-3.157-3.157S42.502,120.75,44.246,120.75z"/>
			</g>
		</g>
		<g>
			<g>
				<circle class="st8" cx="34.755" cy="152.825" r="3.377"/>
			</g>
		</g>
		<g>
			<g>
				<circle class="st9" cx="158.755" cy="3.377" r="3.377"/>
			</g>
		</g>
		<g>
			<g>
				<path d="M181.413,256h-74.549c-1.381,0-2.5-1.119-2.5-2.5v-32.494c0-1.739,0.268-3.459,0.797-5.113l21.039-65.859
					c0.254-0.794,0.887-1.41,1.689-1.642c0.803-0.23,1.666-0.046,2.303,0.491c0.658,0.554,1.362,1.018,2.093,1.378l7.274,3.587
					c1.238,0.61,1.748,2.109,1.137,3.348c-0.61,1.238-2.11,1.747-3.348,1.137l-7.274-3.586c-0.038-0.019-0.076-0.038-0.113-0.056
					l-20.038,62.726c-0.371,1.162-0.56,2.37-0.56,3.591V251h72.049c0.439,0,0.848-0.176,1.15-0.495
					c0.302-0.319,0.455-0.737,0.43-1.175l-0.927-15.986c-0.08-1.378,0.973-2.561,2.351-2.641c1.381-0.078,2.561,0.972,2.641,2.351
					l0.928,15.992c0.101,1.805-0.552,3.586-1.79,4.895C184.958,255.25,183.215,256,181.413,256z"/>
			</g>
		</g>
		<g>
			<g>
				<path d="M106.864,256H32.315c-1.802,0-3.545-0.75-4.783-2.06c-1.238-1.309-1.89-3.09-1.79-4.889l4.115-70.957
					c0.42-7.545,5.63-13.859,12.964-15.705l28.644-7.209l9.977-4.919c0.732-0.361,1.436-0.825,2.094-1.378
					c0.637-0.538,1.5-0.721,2.303-0.491c0.802,0.231,1.435,0.847,1.689,1.642l21.039,65.86c0.529,1.656,0.797,3.376,0.797,5.113
					V253.5C109.364,254.881,108.245,256,106.864,256z M83.767,154.689c-0.038,0.019-0.076,0.038-0.114,0.057l-10.214,5.036
					c-0.158,0.078-0.324,0.139-0.495,0.182l-28.901,7.274c-5.2,1.309-8.895,5.786-9.193,11.14l-4.115,70.957
					c-0.024,0.433,0.129,0.851,0.431,1.17c0.302,0.319,0.711,0.495,1.15,0.495h72.049v-29.994c0-1.22-0.188-2.428-0.56-3.591
					L83.767,154.689z"/>
			</g>
		</g>
		<g>
			<g>
				<path d="M107.126,222.08c-0.64,0-1.28-0.244-1.768-0.732c-0.977-0.976-0.977-2.559,0-3.535l23.977-23.977
					c0.976-0.977,2.56-0.977,3.535,0c0.977,0.976,0.977,2.559,0,3.535l-23.977,23.977
					C108.406,221.835,107.766,222.08,107.126,222.08z"/>
			</g>
		</g>
		<g>
			<g>
				<path d="M106.26,221.737c-0.64,0-1.28-0.244-1.768-0.732l-31.427-31.427c-1.354-1.354-1.659-3.473-0.742-5.153l4.378-8.028
					l-6.634-2.653c-1.909-0.764-3.028-2.787-2.661-4.811l2.006-11.032c0.247-1.358,1.546-2.265,2.907-2.012
					c1.358,0.247,2.259,1.548,2.012,2.907l-1.91,10.505l6.822,2.729c1.152,0.461,2.054,1.395,2.474,2.563
					c0.42,1.167,0.32,2.462-0.274,3.551l-4.498,8.246l31.08,31.08c0.977,0.976,0.977,2.559,0,3.535
					C107.54,221.493,106.899,221.737,106.26,221.737z"/>
			</g>
		</g>
		<g>
			<g>
				<path d="M120.336,176.318c-0.191,0-0.386-0.022-0.581-0.068c-0.919-0.219-1.744-0.702-2.385-1.396l-8.157-8.836
					c-1.646-1.784-1.625-4.559,0.047-6.318l13.768-14.474c0.953-1,2.535-1.039,3.535-0.088c1,0.952,1.04,2.534,0.088,3.535
					l-13.522,14.216l7.864,8.519c1.296,0.353,2.086,1.674,1.773,2.99C122.493,175.545,121.468,176.318,120.336,176.318z"/>
			</g>
		</g>
		<g>
			<g>
				<path d="M93.211,176.353c-1.212,0-2.276-0.883-2.468-2.118c-0.207-1.335,0.684-2.586,2-2.838l7.856-8.511l-13.555-14.249
					c-0.952-1-0.912-2.583,0.088-3.535c1.001-0.952,2.583-0.912,3.535,0.088l13.8,14.507c1.673,1.76,1.693,4.535,0.047,6.318
					l-8.157,8.836c-0.734,0.795-1.688,1.304-2.76,1.47C93.467,176.343,93.338,176.353,93.211,176.353z"/>
			</g>
		</g>
		<g>
			<g>
				<path d="M115.614,192.835c-1.172,0-2.218-0.829-2.451-2.022l-3.586-18.415c-0.264-1.355,0.621-2.668,1.976-2.932
					c1.355-0.262,2.667,0.62,2.932,1.976l3.586,18.415c0.264,1.355-0.621,2.668-1.976,2.932
					C115.933,192.82,115.772,192.835,115.614,192.835z"/>
			</g>
		</g>
		<g>
			<g>
				<path d="M98.11,192.859c-0.159,0-0.319-0.015-0.481-0.046c-1.355-0.264-2.24-1.577-1.976-2.932l3.603-18.499
					c0.264-1.356,1.577-2.239,2.932-1.976c1.355,0.264,2.24,1.577,1.976,2.932l-3.603,18.499
					C100.328,192.031,99.282,192.859,98.11,192.859z"/>
			</g>
		</g>
		<g>
			<g>
				<g>
					<path d="M106.323,165.638c-0.818,0-1.677-0.033-2.625-0.1c-1.377-0.097-2.415-1.292-2.318-2.669
						c0.097-1.377,1.288-2.42,2.669-2.318c0.831,0.059,1.575,0.087,2.274,0.087c1.02,0,2.109-0.06,3.332-0.184
						c1.378-0.14,2.601,0.862,2.739,2.235c0.139,1.374-0.862,2.6-2.235,2.739C108.768,165.57,107.513,165.638,106.323,165.638z"/>
				</g>
			</g>
			<g>
				<g>
					<path d="M106.864,175.081c-3.612,0-7.021-1.589-9.354-4.36c-0.889-1.057-0.753-2.634,0.303-3.522
						c1.057-0.89,2.634-0.753,3.522,0.303c1.38,1.64,3.395,2.58,5.528,2.58c2.15,0,4.175-0.952,5.555-2.613
						c0.884-1.061,2.459-1.206,3.521-0.324c1.062,0.883,1.207,2.459,0.324,3.521C113.93,173.472,110.504,175.081,106.864,175.081z"
						/>
				</g>
			</g>
		</g>
		<g>
			<g>
				<path d="M164.126,222.681c-1.23,0-2.46-0.468-3.397-1.405l-19.109-19.109c-1.874-1.873-1.874-4.921,0-6.794l3.431-3.431
					c1.873-1.874,4.921-1.875,6.794,0l19.108,19.109c0.908,0.907,1.408,2.114,1.408,3.397c0,1.284-0.5,2.491-1.408,3.398
					l-3.43,3.431C166.587,222.212,165.356,222.681,164.126,222.681z M145.293,198.77l18.833,18.833l3.155-3.155l-18.832-18.833
					L145.293,198.77z M167.419,214.586h0.01H167.419z"/>
			</g>
		</g>
		<g>
			<g>
				<path d="M169.071,214.166c-0.64,0-1.28-0.244-1.768-0.732c-0.977-0.976-0.977-2.559,0-3.535l22.456-22.457
					c1.135-1.135,1.76-2.644,1.76-4.249s-0.625-3.114-1.76-4.249l-5.808-5.808c-2.342-2.342-6.155-2.343-8.498,0l-22.456,22.456
					c-0.976,0.977-2.56,0.977-3.535,0c-0.977-0.976-0.977-2.559,0-3.535l22.456-22.456c4.292-4.291,11.277-4.292,15.569,0
					l5.808,5.808c2.079,2.079,3.224,4.843,3.224,7.784s-1.145,5.705-3.225,7.785l-22.456,22.456
					C170.351,213.921,169.711,214.166,169.071,214.166z"/>
			</g>
		</g>
		<g>
			<g>
				<path d="M140.801,214.958c-0.64,0-1.28-0.244-1.768-0.732c-0.977-0.976-0.977-2.559,0-3.535l6.787-6.787
					c0.976-0.977,2.56-0.977,3.535,0c0.977,0.976,0.977,2.559,0,3.535l-6.787,6.787
					C142.081,214.713,141.441,214.958,140.801,214.958z"/>
			</g>
		</g>
		<g>
			<g>
				<path d="M150.712,224.321c-0.64,0-1.28-0.244-1.768-0.732c-0.977-0.976-0.977-2.559,0-3.535l6.451-6.451
					c0.976-0.977,2.56-0.977,3.535,0c0.977,0.976,0.977,2.559,0,3.535l-6.451,6.451
					C151.992,224.077,151.352,224.321,150.712,224.321z"/>
			</g>
		</g>
		<g>
			<g>
				<path d="M192.825,179.919c-0.64,0-1.28-0.244-1.768-0.732c-0.977-0.976-0.977-2.559,0-3.535l3.852-3.852l-3.769-3.814
					l-4.037,3.993c-0.977,0.977-2.559,0.976-3.536,0c-0.977-0.977-0.977-2.56,0-3.536l3.992-3.993c1.963-1.961,5.154-1.961,7.116,0
					l3.769,3.77c0.95,0.95,1.474,2.214,1.474,3.558c0,1.344-0.524,2.608-1.475,3.558l-3.852,3.852
					C194.105,179.675,193.465,179.919,192.825,179.919z"/>
			</g>
		</g>
	</g>
</g>
<g id="Layer_8">
</g>
<g id="Layer_9">
</g>
<g id="Layer_10">
</g>
<g id="Layer_11">
</g>
<g id="Layer_12">
</g>
<g id="Layer_13">
</g>
<g id="Layer_14">
</g>
<g id="Layer_15">
</g>
<g id="Layer_16">
</g>
<g id="Layer_17">
</g>
<g id="Layer_18">
</g>
<g id="Layer_19">
</g>
<g id="Layer_20">
</g>
<g id="Layer_21">
</g>
<g id="Layer_22">
</g>
<g id="Layer_23">
</g>
<g id="Layer_24">
</g>
<g id="Layer_25">
</g>
<g id="Layer_26">
</g>
<g id="Layer_27">
</g>
<g id="Layer_28">
</g>
<g id="Layer_29">
</g>
<g id="Layer_30">
</g>
<g id="Layer_31">
</g>
<g id="Layer_32">
</g>
<g id="Layer_33">
</g>
<g id="Layer_34">
</g>
<g id="Layer_35">
</g>
<g id="Layer_36">
</g>
<g id="Layer_37">
</g>
<g id="Layer_38">
</g>
<g id="Layer_39">
</g>
<g id="Layer_40">
</g>
<g id="Layer_41">
</g>
<g id="Layer_42">
</g>
<g id="Layer_43">
</g>
<g id="Layer_44">
</g>
<g id="Layer_45">
</g>
<g id="Layer_46">
</g>
<g id="Layer_47">
</g>
<g id="Layer_48">
</g>
<g id="Layer_49">
</g>
<g id="Layer_50">
</g>
<g id="Layer_51">
</g>
<g id="Layer_52">
</g>
<g id="Layer_53">
</g>
<g id="Layer_54">
</g>
<g id="Layer_55">
</g>
<g id="Layer_56">
</g>
<g id="Layer_57">
</g>
<g id="Layer_58">
</g>
<g id="Layer_59">
</g>
<g id="Layer_60">
</g>
<g id="Layer_61">
</g>
<g id="Layer_62">
</g>
<g id="Layer_63">
</g>
<g id="Layer_64">
</g>
<g id="Layer_65">
</g>
<g id="Layer_66">
</g>
<g id="Layer_67">
</g>
<g id="Layer_68">
</g>
<g id="Layer_69">
</g>
<g id="Layer_70">
</g>
<g id="Layer_71">
</g>
<g id="Layer_72">
</g>
<g id="Layer_73">
</g>
<g id="Layer_74">
</g>
<g id="Layer_75">
</g>
<g id="Layer_76">
</g>
<g id="Layer_77">
</g>
<g id="Layer_78">
</g>
<g id="Layer_79">
</g>
<g id="Layer_80">
</g>
</svg>
