<?xml version="1.0" encoding="utf-8"?>
<!-- Generator: Adobe Illustrator 24.0.0, SVG Export Plug-In . SVG Version: 6.00 Build 0)  -->
<svg version="1.1" xmlns="http://www.w3.org/2000/svg" xmlns:xlink="http://www.w3.org/1999/xlink" x="0px" y="0px"
	 viewBox="0 0 256 256" style="enable-background:new 0 0 256 256;" xml:space="preserve">
<style type="text/css">
	.st0{fill:#3A70BF;}
	.st1{fill:#EDF4FC;}
	.st2{fill:#C7D7E5;}
	.st3{fill:#F9D0B4;}
	.st4{fill:#5B5D60;}
	.st5{fill:#5290DB;}
	.st6{fill:#70D6F9;}
	.st7{fill:#F5C84C;}
	.st8{fill:#FC657E;}
	.st9{fill:#87D147;}
	.st10{fill:#FCDD86;}
	.st11{fill:#9BE5F9;}
	.st12{fill:#B2E26D;}
	.st13{fill:#754E34;}
	.st14{fill:#FCA265;}
	.st15{fill:#818182;}
	.st16{fill:#F94EED;}
	.st17{fill:#FFC197;}
	.st18{fill:#3CAADC;}
	.st19{fill:#DAE6F1;}
	.st20{fill:#57AF12;}
	.st21{fill:#EF4460;}
	.st22{fill:#FFF0CA;}
	.st23{fill:#F98FA6;}
	.st24{fill:#EDB311;}
	.st25{fill:#FC8C48;}
	.st26{fill:#FCB9CB;}
	.st27{fill:#96BC71;}
	.st28{fill:#78A352;}
	.st29{fill:#B8DD90;}
	.st30{fill:#6FAFEF;}
	.st31{fill:#29589F;}
	.st32{fill:#414344;}
	.st33{fill:#9B6B4B;}
	.st34{fill:#73B1EF;}
</style>
<g id="Layer_1">
</g>
<g id="Layer_2">
</g>
<g id="Layer_3">
</g>
<g id="Layer_4">
</g>
<g id="Layer_5">
</g>
<g id="Layer_6">
</g>
<g id="Layer_7">
</g>
<g id="Layer_8">
</g>
<g id="Layer_9">
</g>
<g id="Layer_10">
</g>
<g id="Layer_11">
</g>
<g id="Layer_12">
</g>
<g id="Layer_13">
</g>
<g id="Layer_14">
</g>
<g id="Layer_15">
</g>
<g id="Layer_16">
</g>
<g id="Layer_17">
</g>
<g id="Layer_18">
</g>
<g id="Layer_19">
</g>
<g id="Layer_20">
</g>
<g id="Layer_21">
</g>
<g id="Layer_22">
</g>
<g id="Layer_23">
</g>
<g id="Layer_24">
</g>
<g id="Layer_25">
</g>
<g id="Layer_26">
</g>
<g id="Layer_27">
</g>
<g id="Layer_28">
</g>
<g id="Layer_29">
</g>
<g id="Layer_30">
</g>
<g id="Layer_31">
</g>
<g id="Layer_32">
</g>
<g id="Layer_33">
</g>
<g id="Layer_34">
</g>
<g id="Layer_35">
</g>
<g id="Layer_36">
</g>
<g id="Layer_37">
</g>
<g id="Layer_38">
</g>
<g id="Layer_39">
</g>
<g id="Layer_40">
</g>
<g id="Layer_41">
</g>
<g id="Layer_42">
</g>
<g id="Layer_43">
</g>
<g id="Layer_44">
</g>
<g id="Layer_45">
</g>
<g id="Layer_46">
</g>
<g id="Layer_47">
</g>
<g id="Layer_48">
</g>
<g id="Layer_49">
</g>
<g id="Layer_50">
</g>
<g id="Layer_51">
</g>
<g id="Layer_52">
</g>
<g id="Layer_53">
</g>
<g id="Layer_54">
</g>
<g id="Layer_55">
</g>
<g id="Layer_56">
</g>
<g id="Layer_57">
</g>
<g id="Layer_58">
</g>
<g id="Layer_59">
</g>
<g id="Layer_60">
</g>
<g id="Layer_61">
</g>
<g id="Layer_62">
</g>
<g id="Layer_63">
</g>
<g id="Layer_64">
</g>
<g id="Layer_65">
</g>
<g id="Layer_66">
	<g>
		<g>
			<g>
				<path class="st13" d="M138.8,100.987c-0.79,0-1.56-0.081-2.316-0.202c-0.816,12.152-7.945,22.646-18.124,28.194v2.521h14.98
					c12.703,0,23-10.297,23-23c0-5.5-1.933-10.546-5.153-14.504C148.644,98.182,144.055,100.987,138.8,100.987z"/>
			</g>
		</g>
		<g>
			<g>
				<path class="st13" d="M70.34,131.5h14.98v-2.521c-10.179-5.548-17.308-16.042-18.124-28.194
					c-0.756,0.122-1.526,0.202-2.316,0.202c-5.255,0-9.844-2.805-12.387-6.99C49.272,97.954,47.34,103,47.34,108.5
					C47.34,121.203,57.637,131.5,70.34,131.5z"/>
			</g>
		</g>
		<g>
			<g>
				<path class="st3" d="M138.8,71.985c-0.759,0-1.502,0.064-2.229,0.177c0,3.696,0,20.799,0,26.293v0v0
					c0,0.783-0.036,1.558-0.088,2.329c0.756,0.122,1.526,0.202,2.316,0.202c8.009,0,14.501-6.492,14.501-14.501
					C153.301,78.477,146.809,71.985,138.8,71.985z"/>
			</g>
		</g>
		<g>
			<g>
				<path class="st3" d="M118.452,60.642c-5.29,6.174-24.047,24.906-51.344,17.13v20.684c0,19.102,15.629,34.732,34.732,34.732l0,0
					c19.102,0,34.732-15.629,34.732-34.732v-28.06c0-1.276-0.893-2.358-2.136-2.646c-3.515-0.814-7.782-2.85-12.673-7.294
					C120.794,59.577,119.303,59.649,118.452,60.642z"/>
			</g>
		</g>
		<g>
			<g>
				<path class="st3" d="M67.108,77.771c-2.385-0.679-4.834-1.559-7.346-2.668c-1.619-0.715-3.511-0.386-4.803,0.825
					c-2.817,2.641-4.581,6.39-4.581,10.557c0,8.008,6.492,14.501,14.501,14.501c0.79,0,1.56-0.08,2.316-0.202
					c-0.052-0.771-0.088-1.546-0.088-2.329V77.771z"/>
			</g>
		</g>
		<g>
			<g>
				<g>
					<path class="st13" d="M54.959,75.929c1.291-1.211,3.183-1.54,4.803-0.825c2.512,1.109,4.961,1.988,7.346,2.668
						c27.297,7.776,46.055-10.956,51.344-17.13c0.85-0.992,2.342-1.065,3.309-0.186c4.892,4.445,9.159,6.48,12.673,7.294
						c1.243,0.288,2.136,1.37,2.136,2.646v1.766c0.727-0.113,1.47-0.177,2.229-0.177c4.012,0,7.643,1.63,10.268,4.263v-8.494
						c0-25.976-21.253-47.229-47.229-47.229c-25.976,0-47.229,21.253-47.229,47.229v8.535
						C54.729,76.171,54.837,76.043,54.959,75.929z"/>
				</g>
			</g>
		</g>
		<g>
			<g>
				<path class="st8" d="M89.444,207.219c7.148-8.317,16.83-12.893,26.772-13.745c2.68-0.23,5.012-1.944,6.062-4.42
					c1.534-3.621,3.774-7.013,6.726-9.965c10.363-10.363,23.852-9.711,35.049-1.751l8.58-8.58c-1.763-3.84-5.184-6.798-9.459-7.875
					l-24.833-6.269c-2.075-0.522-4.089-1.263-6.009-2.209l-8.587-4.234c-3.298-1.626-5.386-4.984-5.386-8.66v-10.533
					c-4.92,2.682-10.551,4.208-16.52,4.208c-5.97,0-11.6-1.526-16.52-4.208v10.533c0,3.677-2.088,7.034-5.386,8.66l-8.587,4.234
					c-1.919,0.946-3.933,1.687-6.009,2.209l-24.833,6.269c-6.044,1.521-10.396,6.796-10.743,13.019l-2.744,75.418
					c-0.127,2.269,1.68,4.179,3.953,4.179h21.99c1.478,0,2.677-1.198,2.677-2.677v-47.143l3.883,12.439
					c2.539,8.133,3.83,16.604,3.83,25.124v9.58c0,1.479,1.198,2.677,2.677,2.677h19.559
					C76.995,239.141,78.196,220.308,89.444,207.219z"/>
			</g>
		</g>
		<g>
			<g>
				<path class="st8" d="M175.245,221.912c-3.3,3.834-7.281,6.66-11.585,8.488c-2.51,1.066-4.214,3.432-4.452,6.149
					c-0.517,5.904-2.357,11.71-5.505,16.95h19.005c2.273,0,4.079-1.91,3.953-4.179l-1.015-27.895
					C175.513,221.588,175.384,221.751,175.245,221.912z"/>
			</g>
		</g>
		<g>
			<g>
				<path class="st3" d="M101.839,147.043c6.16,0,12.011-1.383,17.269-3.84c-0.478-1.152-0.748-2.399-0.748-3.691v-10.533
					c-4.92,2.682-10.551,4.208-16.52,4.208c-5.97,0-11.6-1.526-16.52-4.208v10.533c0,1.292-0.271,2.539-0.749,3.691
					C89.829,145.66,95.679,147.043,101.839,147.043z"/>
			</g>
		</g>
		<g>
			<g>
				<path class="st1" d="M225.151,137.879l-10.341-10.341c-1.898-1.898-5.005-1.898-6.903,0l-12.719,12.719
					c-1.898,1.898-1.898,5.005,0,6.903l10.341,10.341c1.898,1.898,5.005,1.898,6.903,0l12.719-12.719
					C227.049,142.884,227.049,139.778,225.151,137.879z"/>
			</g>
		</g>
		<g>
			<g>
				<path class="st14" d="M149.184,214.803c-0.7-2.626-2.065-5.112-4.125-7.173s-4.546-3.426-7.173-4.125l26.167-26.167
					c-11.198-7.959-24.687-8.611-35.049,1.751c-2.952,2.952-5.192,6.344-6.726,9.965c-1.049,2.477-3.382,4.191-6.062,4.42
					c-9.942,0.852-19.624,5.428-26.772,13.745c-11.249,13.088-12.45,31.922-3.859,46.281h68.118
					c3.148-5.24,4.988-11.046,5.505-16.95c0.238-2.717,1.942-5.083,4.452-6.149c4.304-1.828,8.285-4.654,11.585-8.488
					c8.84-10.27,7.25-22.393-0.077-33.094L149.184,214.803z"/>
			</g>
		</g>
		<g>
			<g>
				<path class="st15" d="M124.321,246.354l-17.986-17.986c-0.78-0.78-2.046-0.78-2.826,0l-2.526,2.526
					c-0.78,0.78-0.78,2.046,0,2.826l17.986,17.986c0.78,0.78,2.046,0.78,2.826,0l2.526-2.526
					C125.101,248.4,125.101,247.135,124.321,246.354z"/>
			</g>
		</g>
		<g>
			<g>
				<path class="st19" d="M205.528,157.502l-10.341-10.341c-0.163-0.163-0.306-0.337-0.441-0.516l-56.86,56.86
					c2.626,0.7,5.112,2.065,7.173,4.125c2.06,2.06,3.425,4.546,4.125,7.173l56.86-56.86
					C205.866,157.808,205.691,157.664,205.528,157.502z"/>
			</g>
		</g>
		<g>
			<g>
				<circle class="st15" cx="133.761" cy="218.928" r="15.977"/>
			</g>
		</g>
		<g>
			<g>
				<path d="M133.339,134h-13.995c-1.381,0-2.5-1.119-2.5-2.5s1.119-2.5,2.5-2.5h13.995c11.304,0,20.5-9.196,20.5-20.5
					c0-4.592-1.486-8.934-4.297-12.555c-0.846-1.091-0.648-2.661,0.442-3.508c1.092-0.848,2.661-0.648,3.508,0.441
					c3.498,4.507,5.347,9.909,5.347,15.621C158.839,122.561,147.4,134,133.339,134z"/>
			</g>
		</g>
		<g>
			<g>
				<path d="M84.979,134h-14.64c-14.061,0-25.5-11.439-25.5-25.5c0-5.76,1.877-11.196,5.427-15.724
					c0.852-1.088,2.422-1.277,3.51-0.424c1.086,0.852,1.276,2.423,0.424,3.51c-2.854,3.638-4.362,8.008-4.362,12.638
					c0,11.304,9.196,20.5,20.5,20.5h14.64c1.381,0,2.5,1.119,2.5,2.5S86.36,134,84.979,134z"/>
			</g>
		</g>
		<g>
			<g>
				<path d="M138.8,103.486c-0.516,0-1.036-0.027-1.592-0.084c-1.374-0.141-2.373-1.367-2.233-2.741
					c0.14-1.373,1.368-2.366,2.741-2.233c0.385,0.039,0.74,0.059,1.084,0.059c6.617,0,12.001-5.383,12.001-12
					s-5.384-12.001-12.001-12.001c-0.278,0-0.553,0.011-0.826,0.03c-1.383,0.098-2.575-0.933-2.676-2.311
					c-0.101-1.377,0.934-2.575,2.311-2.676c0.393-0.029,0.79-0.044,1.191-0.044c9.375,0,17.001,7.627,17.001,17.001
					S148.174,103.486,138.8,103.486z"/>
			</g>
		</g>
		<g>
			<g>
				<path d="M101.839,135.687c-20.529,0-37.231-16.702-37.231-37.231V77.771c0-0.784,0.368-1.522,0.994-1.995
					c0.626-0.472,1.436-0.624,2.191-0.409c25.92,7.384,43.875-10.649,48.761-16.353h0c0.85-0.991,2.034-1.581,3.335-1.662
					c1.284-0.075,2.59,0.377,3.554,1.254c3.951,3.59,7.839,5.847,11.556,6.708c2.397,0.556,4.072,2.646,4.072,5.081v28.06
					C139.071,118.984,122.369,135.687,101.839,135.687z M69.608,80.979v17.477c0,17.772,14.459,32.231,32.231,32.231
					c17.773,0,32.232-14.459,32.232-32.231v-28.06c0-0.113-0.101-0.187-0.201-0.21c-4.515-1.046-9.109-3.656-13.657-7.759
					C114.856,68.626,96.422,86.861,69.608,80.979z"/>
			</g>
		</g>
		<g>
			<g>
				<path d="M64.879,103.486c-9.374,0-17-7.626-17-17c0-4.668,1.958-9.181,5.371-12.381c2.03-1.904,4.983-2.411,7.522-1.289
					c2.328,1.028,4.69,1.887,7.021,2.551c1.328,0.378,2.098,1.762,1.719,3.09c-0.378,1.328-1.763,2.099-3.089,1.719
					c-2.553-0.728-5.133-1.665-7.671-2.785c-0.7-0.311-1.518-0.166-2.083,0.362c-2.444,2.292-3.791,5.394-3.791,8.733
					c0,6.617,5.383,12,12,12c0.349,0,0.693-0.02,1.033-0.053c1.379-0.141,2.599,0.864,2.736,2.239
					c0.137,1.374-0.866,2.599-2.24,2.735C65.89,103.46,65.375,103.486,64.879,103.486z"/>
			</g>
		</g>
		<g>
			<g>
				<g>
					<path d="M54.611,78.476c-1.381,0-2.5-1.119-2.5-2.5v-8.221c0-27.42,22.308-49.729,49.729-49.729
						c27.421,0,49.729,22.309,49.729,49.729v8.057c0,1.381-1.119,2.5-2.5,2.5s-2.5-1.119-2.5-2.5v-8.057
						c0-24.663-20.065-44.729-44.729-44.729S57.111,43.092,57.111,67.755v8.221C57.111,77.356,55.992,78.476,54.611,78.476z"/>
				</g>
			</g>
		</g>
		<g>
			<g>
				<path d="M172.283,170.545c-0.897,0-1.764-0.484-2.212-1.333c-1.555-2.942-4.291-5.094-7.506-5.904l-24.835-6.269
					c-2.241-0.564-4.43-1.368-6.502-2.391l-8.587-4.234c-4.182-2.063-6.78-6.239-6.78-10.902v-9.855c0-1.381,1.119-2.5,2.5-2.5
					s2.5,1.119,2.5,2.5v9.855c0,2.745,1.529,5.204,3.991,6.418l8.587,4.234c1.757,0.866,3.612,1.548,5.514,2.026l24.835,6.27
					c4.586,1.155,8.489,4.223,10.705,8.416c0.645,1.221,0.178,2.733-1.042,3.378C173.077,170.451,172.677,170.545,172.283,170.545z"
					/>
			</g>
		</g>
		<g>
			<g>
				<path d="M85.585,256H66.026c-2.854,0-5.177-2.322-5.177-5.177v-9.58c0-7.066-0.911-14.078-2.713-20.896v30.476
					c0,2.854-2.322,5.177-5.177,5.177H30.97c-1.768,0-3.478-0.736-4.693-2.021c-1.215-1.284-1.854-3.033-1.756-4.798l2.742-75.369
					c0.412-7.403,5.487-13.554,12.631-15.353l24.832-6.268c1.903-0.479,3.758-1.161,5.515-2.027l8.586-4.234
					c2.462-1.214,3.992-3.673,3.992-6.418v-9.929c0-1.381,1.119-2.5,2.5-2.5s2.5,1.119,2.5,2.5v9.929
					c0,4.663-2.598,8.841-6.78,10.902l-8.586,4.234c-2.073,1.022-4.262,1.826-6.504,2.392l-24.832,6.268
					c-5.012,1.262-8.571,5.575-8.859,10.733l-2.742,75.37c-0.033,0.595,0.233,0.962,0.394,1.132c0.161,0.171,0.514,0.457,1.06,0.457
					h21.99c0.098,0,0.177-0.079,0.177-0.177v-47.143c0-1.235,0.902-2.285,2.123-2.472c1.22-0.189,2.396,0.547,2.763,1.727
					l3.883,12.438c2.617,8.384,3.944,17.087,3.944,25.869v9.58c0,0.098,0.079,0.177,0.177,0.177h19.559c1.381,0,2.5,1.119,2.5,2.5
					S86.966,256,85.585,256z"/>
			</g>
		</g>
		<g>
			<g>
				<path d="M172.709,256h-19.005c-1.381,0-2.5-1.119-2.5-2.5s1.119-2.5,2.5-2.5h19.005c0.546,0,0.898-0.286,1.06-0.456
					c0.161-0.171,0.427-0.538,0.397-1.085l-0.986-27.09c-0.05-1.38,1.028-2.539,2.408-2.589c1.404-0.051,2.539,1.028,2.589,2.407
					l0.984,27.042c0.096,1.717-0.544,3.466-1.759,4.75C176.187,255.264,174.477,256,172.709,256z"/>
			</g>
		</g>
		<g>
			<g>
				<path d="M101.839,117.757c-4.776,0-9.261-1.949-11.999-5.214c-0.887-1.059-0.748-2.636,0.31-3.522
					c1.06-0.887,2.635-0.748,3.522,0.31c1.798,2.146,4.852,3.427,8.167,3.427c3.315,0,6.369-1.281,8.167-3.427
					c0.887-1.058,2.464-1.196,3.522-0.31s1.197,2.464,0.31,3.522C111.101,115.808,106.616,117.757,101.839,117.757z"/>
			</g>
		</g>
		<g>
			<g>
				<circle cx="116.95" cy="90.5" r="4.5"/>
			</g>
		</g>
		<g>
			<g>
				<circle cx="86.729" cy="90.5" r="4.5"/>
			</g>
		</g>
		<g>
			<g>
				<path d="M228.989,156.109c-0.64,0-1.279-0.244-1.768-0.732l-5.946-5.945c-0.977-0.976-0.977-2.559,0-3.535
					c0.977-0.977,2.559-0.977,3.536,0l5.946,5.945c0.977,0.976,0.977,2.559,0,3.535
					C230.269,155.865,229.628,156.109,228.989,156.109z"/>
			</g>
		</g>
		<g>
			<g>
				<path d="M221.854,163.245c-0.64,0-1.28-0.244-1.768-0.732l-5.946-5.946c-0.977-0.977-0.977-2.559,0-3.535
					c0.976-0.977,2.56-0.977,3.535,0l5.946,5.946c0.977,0.977,0.977,2.559,0,3.535C223.133,163.001,222.493,163.245,221.854,163.245
					z"/>
			</g>
		</g>
		<g>
			<g>
				<path d="M205.204,132.325c-0.64,0-1.28-0.244-1.768-0.732l-5.946-5.946c-0.976-0.977-0.976-2.56,0-3.535
					c0.976-0.977,2.559-0.977,3.536,0l5.946,5.946c0.976,0.977,0.976,2.56,0,3.535C206.484,132.081,205.844,132.325,205.204,132.325
					z"/>
			</g>
		</g>
		<g>
			<g>
				<path d="M198.069,139.461c-0.64,0-1.28-0.244-1.768-0.732l-5.946-5.946c-0.977-0.977-0.977-2.559,0-3.535
					c0.976-0.977,2.56-0.977,3.535,0l5.946,5.946c0.977,0.977,0.977,2.559,0,3.535C199.349,139.217,198.708,139.461,198.069,139.461
					z"/>
			</g>
		</g>
		<g>
			<g>
				<path d="M115.923,239.267c-0.64,0-1.28-0.244-1.768-0.732c-0.977-0.977-0.977-2.559,0-3.535l83.841-83.841
					c0.976-0.977,2.56-0.977,3.535,0c0.977,0.977,0.977,2.559,0,3.535l-83.841,83.841
					C117.203,239.022,116.563,239.267,115.923,239.267z"/>
			</g>
		</g>
		<g>
			<g>
				<path d="M110.274,233.618c-0.64,0-1.28-0.244-1.768-0.732c-0.977-0.977-0.977-2.559,0-3.535l83.841-83.841
					c0.976-0.977,2.56-0.977,3.535,0c0.977,0.977,0.977,2.559,0,3.535l-83.841,83.841
					C111.554,233.374,110.914,233.618,110.274,233.618z"/>
			</g>
		</g>
		<g>
			<g>
				<path d="M121.572,244.916c-0.64,0-1.28-0.244-1.768-0.732c-0.977-0.977-0.977-2.559,0-3.535l83.841-83.841
					c0.976-0.977,2.56-0.977,3.535,0c0.977,0.977,0.977,2.559,0,3.535l-83.841,83.841
					C122.852,244.672,122.211,244.916,121.572,244.916z"/>
			</g>
		</g>
		<g>
			<g>
				<path d="M198.023,166.858c-0.64,0-1.28-0.244-1.768-0.732l-10.108-10.108c-0.977-0.977-0.977-2.559,0-3.535
					c0.976-0.977,2.56-0.977,3.535,0l10.108,10.108c0.977,0.977,0.977,2.559,0,3.535
					C199.303,166.614,198.663,166.858,198.023,166.858z"/>
			</g>
		</g>
		<g>
			<g>
				<path d="M188.83,176.053c-0.64,0-1.28-0.244-1.768-0.732l-10.108-10.109c-0.976-0.977-0.976-2.56,0-3.535
					c0.976-0.977,2.559-0.977,3.536,0l10.108,10.109c0.976,0.977,0.976,2.56,0,3.535
					C190.109,175.809,189.469,176.053,188.83,176.053z"/>
			</g>
		</g>
		<g>
			<g>
				<path d="M179.636,185.246c-0.64,0-1.28-0.244-1.768-0.732l-10.108-10.108c-0.977-0.977-0.977-2.559,0-3.535
					c0.976-0.977,2.56-0.977,3.535,0l10.108,10.108c0.977,0.977,0.977,2.559,0,3.535
					C180.916,185.002,180.275,185.246,179.636,185.246z"/>
			</g>
		</g>
		<g>
			<g>
				<path d="M170.442,194.439c-0.64,0-1.28-0.244-1.768-0.732l-10.109-10.108c-0.977-0.976-0.977-2.559,0-3.535
					c0.976-0.977,2.56-0.977,3.535,0l10.109,10.108c0.977,0.976,0.977,2.559,0,3.535
					C171.722,194.195,171.082,194.439,170.442,194.439z"/>
			</g>
		</g>
		<g>
			<g>
				<path d="M161.249,203.633c-0.64,0-1.28-0.244-1.768-0.732l-10.108-10.108c-0.977-0.977-0.977-2.559,0-3.535
					c0.976-0.977,2.56-0.977,3.535,0l10.108,10.108c0.977,0.977,0.977,2.559,0,3.535
					C162.528,203.389,161.888,203.633,161.249,203.633z"/>
			</g>
		</g>
		<g>
			<g>
				<path class="st7" d="M162.547,135.331c4.498-0.838,8.043-4.31,8.898-8.716c0.043-0.221,0.352-0.221,0.395,0
					c0.855,4.406,4.4,7.879,8.898,8.716c0.226,0.042,0.226,0.345,0,0.387c-4.498,0.838-8.043,4.31-8.898,8.717
					c-0.043,0.221-0.352,0.221-0.395,0c-0.855-4.406-4.4-7.879-8.898-8.717C162.321,135.675,162.321,135.373,162.547,135.331z"/>
			</g>
		</g>
		<g>
			<g>
				<path class="st7" d="M30.854,129.101c2.862-0.533,5.118-2.743,5.663-5.547c0.027-0.141,0.224-0.141,0.251,0
					c0.544,2.804,2.8,5.014,5.663,5.547c0.144,0.027,0.144,0.219,0,0.246c-2.862,0.533-5.118,2.743-5.663,5.547
					c-0.027,0.141-0.224,0.141-0.251,0c-0.544-2.804-2.8-5.014-5.663-5.547C30.71,129.32,30.71,129.128,30.854,129.101z"/>
			</g>
		</g>
		<g>
			<g>
				<path class="st6" d="M154.86,23.75h2.33v-2.33c0-1.744,1.413-3.157,3.157-3.157s3.157,1.413,3.157,3.157v2.33h2.329
					c1.744,0,3.157,1.413,3.157,3.157s-1.413,3.157-3.157,3.157h-2.329v2.33c0,1.744-1.413,3.157-3.157,3.157
					s-3.157-1.413-3.157-3.157v-2.33h-2.33c-1.744,0-3.157-1.413-3.157-3.157S153.116,23.75,154.86,23.75z"/>
			</g>
		</g>
		<g>
			<g>
				<circle class="st8" cx="26.368" cy="149.825" r="3.377"/>
			</g>
		</g>
		<g>
			<g>
				<circle class="st9" cx="131.614" cy="3.377" r="3.377"/>
			</g>
		</g>
		<g>
			<g>
				<circle class="st8" cx="196.614" cy="192.377" r="3.377"/>
			</g>
		</g>
		<g>
			<g>
				<path d="M101.839,149.543c-6.226,0-12.26-1.31-17.934-3.894c-1.256-0.572-1.811-2.055-1.239-3.312
					c0.572-1.257,2.055-1.813,3.312-1.239c5.019,2.285,10.355,3.444,15.862,3.444c5.374,0,10.591-1.105,15.507-3.284
					c1.262-0.563,2.739,0.009,3.299,1.272c0.56,1.262-0.01,2.738-1.272,3.298C113.814,148.294,107.915,149.543,101.839,149.543z"/>
			</g>
		</g>
		<g>
			<g>
				<path d="M208.98,161.428c-1.89,0-3.78-0.719-5.219-2.158l-10.34-10.341c-2.878-2.878-2.878-7.561,0-10.438l12.719-12.719
					c2.878-2.879,7.561-2.879,10.438,0l10.341,10.34l0,0c1.391,1.391,2.156,3.244,2.156,5.22s-0.766,3.829-2.157,5.22
					l-12.719,12.719C212.76,160.709,210.87,161.428,208.98,161.428z M211.358,128.61c-0.61,0-1.22,0.232-1.684,0.696l-12.719,12.719
					c-0.928,0.929-0.928,2.439,0,3.368l10.34,10.341c0.929,0.928,2.439,0.928,3.368,0l12.719-12.72
					c0.446-0.446,0.691-1.044,0.691-1.684c0-0.641-0.246-1.238-0.691-1.685l-10.341-10.34
					C212.578,128.843,211.968,128.61,211.358,128.61z"/>
			</g>
		</g>
		<g>
			<g>
				<path d="M153.704,256H85.585c-0.879,0-1.694-0.462-2.146-1.217c-9.37-15.662-7.719-35.432,4.108-49.194
					c7.281-8.47,17.386-13.657,28.455-14.605c1.755-0.15,3.278-1.264,3.974-2.905c1.706-4.026,4.149-7.646,7.26-10.757
					c10.308-10.308,24.712-11.263,37.591-2.491c1.141,0.777,1.437,2.332,0.659,3.474c-0.778,1.142-2.333,1.435-3.474,0.659
					c-10.932-7.444-22.61-6.736-31.241,1.894c-2.654,2.655-4.737,5.741-6.192,9.173c-1.42,3.352-4.542,5.626-8.149,5.937
					c-9.758,0.835-18.668,5.41-25.09,12.883C81.221,220.623,79.559,237.393,87.033,251h65.225c2.475-4.504,4.012-9.546,4.461-14.669
					c0.319-3.649,2.604-6.805,5.964-8.231c4.119-1.75,7.708-4.38,10.668-7.818c9.646-11.208,4.243-23.257,0.164-29.441
					c-0.76-1.153-0.442-2.703,0.71-3.464s2.704-0.442,3.463,0.71c8.264,12.528,8.064,25.451-0.548,35.457
					c-3.466,4.025-7.672,7.106-12.503,9.158c-1.654,0.703-2.78,2.262-2.938,4.066c-0.556,6.341-2.58,12.571-5.853,18.02
					C155.395,255.54,154.581,256,153.704,256z"/>
			</g>
		</g>
		<g>
			<g>
				<path d="M120.382,254.789c-1.152,0-2.303-0.438-3.18-1.314l-17.986-17.987c-1.754-1.754-1.754-4.606,0-6.36l2.525-2.526
					c1.754-1.754,4.608-1.753,6.362,0l17.985,17.986c0.85,0.85,1.318,1.979,1.318,3.181c0,1.201-0.468,2.33-1.318,3.18l-2.525,2.526
					C122.687,254.351,121.534,254.789,120.382,254.789z M103.107,232.307l17.275,17.277l1.815-1.816l-17.275-17.277L103.107,232.307
					z M122.554,248.123h0.01H122.554z"/>
			</g>
		</g>
		<g>
			<g>
				<path d="M133.761,237.405c-4.936,0-9.576-1.922-13.066-5.412c-7.204-7.204-7.204-18.926,0-26.13
					c3.49-3.49,8.13-5.413,13.065-5.413s9.576,1.923,13.066,5.413c7.204,7.204,7.204,18.926,0,26.13
					C143.337,235.483,138.697,237.405,133.761,237.405z M133.761,205.45c-3.6,0-6.984,1.402-9.53,3.948
					c-5.255,5.255-5.255,13.805,0,19.06c2.546,2.546,5.93,3.947,9.53,3.947s6.984-1.401,9.53-3.947c0,0,0,0,0,0
					c5.254-5.255,5.254-13.805,0-19.06C140.746,206.853,137.361,205.45,133.761,205.45z"/>
			</g>
		</g>
	</g>
</g>
<g id="Layer_67">
</g>
<g id="Layer_68">
</g>
<g id="Layer_69">
</g>
<g id="Layer_70">
</g>
<g id="Layer_71">
</g>
<g id="Layer_72">
</g>
<g id="Layer_73">
</g>
<g id="Layer_74">
</g>
<g id="Layer_75">
</g>
<g id="Layer_76">
</g>
<g id="Layer_77">
</g>
<g id="Layer_78">
</g>
<g id="Layer_79">
</g>
<g id="Layer_80">
</g>
</svg>
