<?xml version="1.0" encoding="utf-8"?>
<!-- Generator: Adobe Illustrator 24.0.0, SVG Export Plug-In . SVG Version: 6.00 Build 0)  -->
<svg version="1.1" xmlns="http://www.w3.org/2000/svg" xmlns:xlink="http://www.w3.org/1999/xlink" x="0px" y="0px"
	 viewBox="0 0 256 256" style="enable-background:new 0 0 256 256;" xml:space="preserve">
<style type="text/css">
	.st0{fill:#3A70BF;}
	.st1{fill:#EDF4FC;}
	.st2{fill:#C7D7E5;}
	.st3{fill:#F9D0B4;}
	.st4{fill:#5B5D60;}
	.st5{fill:#5290DB;}
	.st6{fill:#70D6F9;}
	.st7{fill:#F5C84C;}
	.st8{fill:#FC657E;}
	.st9{fill:#87D147;}
	.st10{fill:#FCDD86;}
	.st11{fill:#9BE5F9;}
	.st12{fill:#B2E26D;}
	.st13{fill:#754E34;}
	.st14{fill:#FCA265;}
	.st15{fill:#818182;}
	.st16{fill:#F94EED;}
	.st17{fill:#FFC197;}
	.st18{fill:#3CAADC;}
	.st19{fill:#DAE6F1;}
	.st20{fill:#57AF12;}
	.st21{fill:#EF4460;}
	.st22{fill:#FFF0CA;}
	.st23{fill:#F98FA6;}
	.st24{fill:#EDB311;}
	.st25{fill:#FC8C48;}
	.st26{fill:#FCB9CB;}
	.st27{fill:#96BC71;}
	.st28{fill:#78A352;}
	.st29{fill:#B8DD90;}
	.st30{fill:#6FAFEF;}
	.st31{fill:#29589F;}
	.st32{fill:#414344;}
	.st33{fill:#9B6B4B;}
	.st34{fill:#73B1EF;}
</style>
<g id="Layer_1">
</g>
<g id="Layer_2">
</g>
<g id="Layer_3">
</g>
<g id="Layer_4">
</g>
<g id="Layer_5">
</g>
<g id="Layer_6">
</g>
<g id="Layer_7">
</g>
<g id="Layer_8">
</g>
<g id="Layer_9">
</g>
<g id="Layer_10">
</g>
<g id="Layer_11">
</g>
<g id="Layer_12">
</g>
<g id="Layer_13">
</g>
<g id="Layer_14">
</g>
<g id="Layer_15">
</g>
<g id="Layer_16">
</g>
<g id="Layer_17">
</g>
<g id="Layer_18">
</g>
<g id="Layer_19">
</g>
<g id="Layer_20">
</g>
<g id="Layer_21">
</g>
<g id="Layer_22">
</g>
<g id="Layer_23">
</g>
<g id="Layer_24">
</g>
<g id="Layer_25">
</g>
<g id="Layer_26">
</g>
<g id="Layer_27">
</g>
<g id="Layer_28">
</g>
<g id="Layer_29">
</g>
<g id="Layer_30">
</g>
<g id="Layer_31">
</g>
<g id="Layer_32">
</g>
<g id="Layer_33">
</g>
<g id="Layer_34">
</g>
<g id="Layer_35">
</g>
<g id="Layer_36">
</g>
<g id="Layer_37">
</g>
<g id="Layer_38">
</g>
<g id="Layer_39">
</g>
<g id="Layer_40">
</g>
<g id="Layer_41">
</g>
<g id="Layer_42">
</g>
<g id="Layer_43">
</g>
<g id="Layer_44">
</g>
<g id="Layer_45">
</g>
<g id="Layer_46">
</g>
<g id="Layer_47">
</g>
<g id="Layer_48">
</g>
<g id="Layer_49">
</g>
<g id="Layer_50">
</g>
<g id="Layer_51">
</g>
<g id="Layer_52">
</g>
<g id="Layer_53">
</g>
<g id="Layer_54">
</g>
<g id="Layer_55">
</g>
<g id="Layer_56">
</g>
<g id="Layer_57">
</g>
<g id="Layer_58">
</g>
<g id="Layer_59">
</g>
<g id="Layer_60">
</g>
<g id="Layer_61">
</g>
<g id="Layer_62">
</g>
<g id="Layer_63">
</g>
<g id="Layer_64">
</g>
<g id="Layer_65">
	<g>
		<g>
			<g>
				<path class="st19" d="M207.43,157.502l-10.341-10.341c-0.163-0.163-0.306-0.337-0.441-0.516l-56.86,56.86
					c2.626,0.7,5.112,2.065,7.173,4.125c2.06,2.06,3.425,4.546,4.125,7.173l56.86-56.86
					C207.767,157.808,207.593,157.664,207.43,157.502z"/>
			</g>
		</g>
		<g>
			<g>
				<path class="st3" d="M108.773,56.772c-13.593,17.094-33.644,14.681-40.386,13.27c-1.225-0.256-2.401,0.667-2.402,1.919
					c0,0.008,0,0.017,0,0.025v29.936c0,20.468,16.747,37.215,37.215,37.215h0c20.468,0,37.215-16.747,37.215-37.215V68.772
					c0-0.194-0.002-0.388-0.006-0.582c-0.021-1.055-0.866-1.925-1.921-1.956c-15.46-0.453-23.606-6.581-26.736-9.649
					C110.897,55.747,109.518,55.836,108.773,56.772z"/>
			</g>
		</g>
		<g>
			<g>
				<g>
					<path class="st13" d="M63.597,73.561c0.813,0,1.609,0.069,2.388,0.189v-1.763c0-0.008,0-0.017,0-0.025
						c0.001-1.252,1.177-2.175,2.402-1.919c6.742,1.411,26.794,3.823,40.386-13.27c0.745-0.937,2.124-1.025,2.978-0.187
						c3.13,3.068,11.276,9.196,26.736,9.649c1.055,0.031,1.9,0.901,1.921,1.956c0.004,0.194,0.006,0.388,0.006,0.582v4.978
						c0.779-0.121,1.575-0.189,2.388-0.189c4.188,0,7.982,1.665,10.777,4.36V49.973c0-11.692-9.566-21.258-21.258-21.258
						c-3.966,0-7.673,1.121-10.859,3.031c-3.722-6.211-10.502-10.405-18.23-10.405H92.316c-21.127,0-38.413,17.286-38.413,38.413
						v17.212C56.561,74.84,59.927,73.561,63.597,73.561z"/>
				</g>
			</g>
		</g>
		<g>
			<g>
				<path class="st3" d="M142.803,73.561c-0.813,0-1.609,0.069-2.388,0.189c0,3.96,0,22.286,0,28.173
					c0,0.839-0.038,1.67-0.094,2.496c0.81,0.13,1.635,0.217,2.482,0.217c8.581,0,15.537-6.956,15.537-15.537
					S151.384,73.561,142.803,73.561z"/>
			</g>
		</g>
		<g>
			<g>
				<path class="st3" d="M65.985,101.923c0-3.856,0-20.507,0-28.173c-0.779-0.121-1.575-0.189-2.388-0.189
					c-8.581,0-15.538,6.957-15.538,15.538s6.956,15.537,15.538,15.537c0.847,0,1.672-0.086,2.482-0.217v-0.001
					C66.023,103.593,65.985,102.762,65.985,101.923z"/>
			</g>
		</g>
		<g>
			<g>
				<path class="st3" d="M103.2,139.138L103.2,139.138c-5.959,0-11.597-1.427-16.604-3.945v5.778c0,2.453-0.699,4.8-1.948,6.802
					l14.884,15.648c0.294,0.309,0.475,0.685,0.547,1.078h7.323c0.072-0.393,0.253-0.769,0.547-1.078l14.884-15.648
					c-1.249-2.003-1.948-4.349-1.948-6.802v-6.335C115.618,137.506,109.59,139.138,103.2,139.138z"/>
			</g>
		</g>
		<g>
			<g>
				<path class="st8" d="M177.147,221.912c-3.3,3.834-7.281,6.66-11.585,8.488c-2.51,1.066-4.214,3.432-4.452,6.149
					c-0.517,5.904-2.357,11.71-5.505,16.95h22.685c2.344,0,4.207-1.969,4.076-4.31l-1.864-32.14
					C179.619,218.707,178.508,220.332,177.147,221.912z"/>
			</g>
		</g>
		<g>
			<g>
				<path class="st8" d="M91.346,207.219c7.148-8.317,16.83-12.893,26.772-13.745c2.68-0.23,5.012-1.944,6.062-4.42
					c1.534-3.621,3.774-7.013,6.726-9.965c10.363-10.363,23.852-9.711,35.049-1.751l8.333-8.333c-1.878-2-4.318-3.488-7.115-4.191
					l-28.902-7.274l-3.296-1.625c-0.047,0.33-0.179,0.651-0.406,0.925l-15.054,18.224c-0.879,1.064-2.495,1.109-3.431,0.094
					l-8.157-8.837c-0.469-0.508-0.642-1.186-0.526-1.821h-7.323c0.116,0.635-0.057,1.313-0.526,1.821l-8.157,8.837
					c-0.936,1.014-2.552,0.97-3.431-0.094L72.912,156.84c-0.227-0.274-0.358-0.596-0.406-0.925l-3.296,1.625l-28.902,7.274
					c-6.233,1.569-10.721,7.008-11.078,13.425l-4.115,70.951c-0.13,2.34,1.732,4.31,4.076,4.31h58.295
					C78.896,239.141,80.097,220.308,91.346,207.219z"/>
			</g>
		</g>
		<g>
			<g>
				<path class="st1" d="M134.39,154.265l-8.134-7.427c-0.753-0.687-1.917-0.646-2.619,0.092l-15.687,16.491
					c-0.77,0.81-0.78,2.078-0.022,2.899l8.157,8.837c0.936,1.014,2.552,0.97,3.431-0.094l15.054-18.223
					C135.206,156.071,135.126,154.938,134.39,154.265z"/>
			</g>
		</g>
		<g>
			<g>
				<path class="st1" d="M73.093,154.265l8.134-7.427c0.753-0.687,1.917-0.646,2.619,0.092l15.687,16.491
					c0.77,0.81,0.78,2.078,0.022,2.899l-8.157,8.837c-0.936,1.014-2.552,0.97-3.431-0.094L72.912,156.84
					C72.276,156.071,72.356,154.938,73.093,154.265z"/>
			</g>
		</g>
		<g>
			<g>
				<path class="st19" d="M92.206,174.282c3.273,1.788,7.02,2.806,10.994,2.806h0c4.264,0,8.264-1.176,11.7-3.214l-6.972-7.553
					c-0.469-0.508-0.642-1.186-0.526-1.821h-7.323c0.116,0.635-0.057,1.313-0.526,1.821L92.206,174.282z"/>
			</g>
		</g>
		<g>
			<g>
				<path class="st14" d="M151.086,214.803c-0.7-2.626-2.065-5.112-4.125-7.173s-4.546-3.426-7.172-4.125l26.167-26.167
					c-11.198-7.959-24.687-8.611-35.049,1.751c-2.952,2.952-5.192,6.344-6.726,9.965c-1.049,2.477-3.382,4.191-6.062,4.42
					c-9.942,0.852-19.624,5.428-26.772,13.745c-11.249,13.088-12.45,31.922-3.859,46.281h68.118
					c3.148-5.24,4.988-11.046,5.505-16.95c0.238-2.717,1.942-5.083,4.452-6.149c4.304-1.828,8.285-4.654,11.585-8.488
					c8.84-10.27,7.25-22.393-0.077-33.094L151.086,214.803z"/>
			</g>
		</g>
		<g>
			<g>
				<path class="st15" d="M126.223,246.354l-17.986-17.986c-0.78-0.78-2.046-0.78-2.826,0l-2.526,2.526
					c-0.78,0.78-0.78,2.046,0,2.826l17.986,17.986c0.78,0.78,2.046,0.78,2.826,0l2.526-2.526
					C127.003,248.4,127.003,247.135,126.223,246.354z"/>
			</g>
		</g>
		<g>
			<g>
				<path class="st1" d="M227.052,137.879l-10.341-10.341c-1.898-1.898-5.005-1.898-6.903,0l-12.719,12.719
					c-1.898,1.898-1.898,5.005,0,6.903l10.341,10.341c1.898,1.898,5.005,1.898,6.903,0l12.719-12.719
					C228.951,142.884,228.951,139.778,227.052,137.879z"/>
			</g>
		</g>
		<g>
			<g>
				<circle class="st15" cx="135.663" cy="218.928" r="15.977"/>
			</g>
		</g>
		<g>
			<g>
				<path d="M103.2,141.638c-21.898,0-39.715-17.816-39.715-39.715V71.987c0.001-1.371,0.603-2.629,1.65-3.479
					c1.059-0.858,2.428-1.192,3.764-0.911c7.237,1.514,25.417,3.339,37.917-12.38c0.796-1.001,1.981-1.62,3.253-1.699
					c1.28-0.081,2.521,0.39,3.433,1.282c2.593,2.541,10.225,8.5,25.06,8.936c2.388,0.068,4.298,2.003,4.347,4.404
					c0.005,0.21,0.007,0.422,0.007,0.633v33.15C142.915,123.821,125.099,141.638,103.2,141.638z M68.485,72.613v29.31
					c0,19.142,15.573,34.715,34.715,34.715s34.715-15.573,34.715-34.715v-33.15c0-0.019,0-0.037,0-0.056
					c-15.155-0.564-23.626-6.309-27.521-9.971C96.207,76.144,75.474,73.963,68.485,72.613z M108.773,56.772h0.01H108.773z"/>
			</g>
		</g>
		<g>
			<g>
				<g>
					<path d="M153.58,79.875c-1.381,0-2.5-1.119-2.5-2.5V49.974c0-10.343-8.415-18.758-18.758-18.758
						c-3.346,0-6.656,0.925-9.573,2.675c-0.57,0.341-1.252,0.442-1.894,0.28c-0.644-0.161-1.196-0.57-1.537-1.14
						c-3.397-5.668-9.562-9.189-16.086-9.189H92.316c-19.803,0-35.914,16.11-35.914,35.913v16.828c0,1.381-1.119,2.5-2.5,2.5
						s-2.5-1.119-2.5-2.5V59.755c0-22.56,18.354-40.913,40.914-40.913h10.916c7.48,0,14.58,3.641,19.048,9.638
						c3.149-1.486,6.579-2.264,10.042-2.264c13.101,0,23.758,10.657,23.758,23.758v27.401
						C156.08,78.756,154.961,79.875,153.58,79.875z"/>
				</g>
			</g>
		</g>
		<g>
			<g>
				<path d="M52.196,255.04c-1.381,0-2.5-1.119-2.5-2.5v-56.645c0-1.381,1.119-2.5,2.5-2.5s2.5,1.119,2.5,2.5v56.645
					C54.696,253.921,53.577,255.04,52.196,255.04z"/>
			</g>
		</g>
		<g>
			<g>
				<path d="M142.803,107.136c-0.67,0-1.352-0.044-2.086-0.135c-1.37-0.17-2.343-1.419-2.174-2.789
					c0.17-1.37,1.423-2.337,2.789-2.174c0.527,0.065,1.009,0.098,1.471,0.098c7.189,0,13.038-5.849,13.038-13.037
					c0-7.189-5.849-13.038-13.038-13.038c-0.461,0-0.938,0.027-1.416,0.081c-1.375,0.154-2.609-0.834-2.764-2.205
					c-0.154-1.372,0.833-2.609,2.205-2.764c0.664-0.074,1.328-0.112,1.975-0.112c9.946,0,18.038,8.092,18.038,18.038
					C160.841,99.044,152.749,107.136,142.803,107.136z"/>
			</g>
		</g>
		<g>
			<g>
				<path d="M63.597,107.136c-9.945,0-18.037-8.092-18.037-18.037c0-10.579,9.159-19.107,19.965-17.932
					c1.372,0.15,2.363,1.385,2.213,2.758c-0.15,1.372-1.384,2.359-2.758,2.213c-0.466-0.051-0.932-0.077-1.383-0.077
					c-7.188,0-13.037,5.849-13.037,13.038c0,7.188,5.849,13.037,13.037,13.037c0.462,0,0.944-0.032,1.474-0.098
					c1.36-0.163,2.618,0.804,2.788,2.175c0.169,1.37-0.804,2.618-2.175,2.788C64.949,107.092,64.267,107.136,63.597,107.136z"/>
			</g>
		</g>
		<g>
			<g>
				<path d="M103.741,118.573c-4.776,0-9.262-1.949-11.999-5.216c-0.887-1.058-0.748-2.635,0.31-3.521
					c1.061-0.887,2.637-0.747,3.522,0.31c1.799,2.146,4.852,3.428,8.167,3.428s6.368-1.281,8.167-3.428
					c0.888-1.059,2.464-1.195,3.522-0.31c1.058,0.887,1.196,2.464,0.31,3.521C113.003,116.624,108.518,118.573,103.741,118.573z"/>
			</g>
		</g>
		<g>
			<g>
				<circle cx="120.531" cy="90.816" r="5"/>
			</g>
		</g>
		<g>
			<g>
				<circle cx="86.952" cy="90.816" r="5"/>
			</g>
		</g>
		<g>
			<g>
				<path d="M122.54,149.774c-0.873,0-1.722-0.458-2.181-1.273c-1.291-2.293-1.974-4.896-1.974-7.529v-5.305
					c0-1.381,1.119-2.5,2.5-2.5s2.5,1.119,2.5,2.5v5.305c0,1.774,0.46,3.53,1.331,5.076c0.677,1.203,0.251,2.728-0.952,3.405
					C123.377,149.671,122.956,149.774,122.54,149.774z"/>
			</g>
		</g>
		<g>
			<g>
				<path d="M106.906,167h-6.156c-1.381,0-2.5-1.119-2.5-2.5s1.119-2.5,2.5-2.5h6.156c1.381,0,2.5,1.119,2.5,2.5
					S108.287,167,106.906,167z"/>
			</g>
		</g>
		<g>
			<g>
				<path d="M84.924,149.809c-0.418,0-0.842-0.104-1.231-0.325c-1.201-0.681-1.622-2.207-0.941-3.408
					c0.881-1.553,1.346-3.317,1.346-5.104v-4.68c0-1.381,1.119-2.5,2.5-2.5s2.5,1.119,2.5,2.5v4.68c0,2.649-0.69,5.267-1.996,7.57
					C86.641,149.354,85.794,149.809,84.924,149.809z"/>
			</g>
		</g>
		<g>
			<g>
				<path d="M230.891,156.109c-0.64,0-1.279-0.244-1.768-0.732l-5.946-5.945c-0.977-0.976-0.977-2.559,0-3.535
					c0.975-0.977,2.559-0.977,3.535,0l5.946,5.945c0.977,0.976,0.977,2.559,0,3.535C232.171,155.865,231.53,156.109,230.891,156.109
					z"/>
			</g>
		</g>
		<g>
			<g>
				<path d="M223.755,163.245c-0.64,0-1.279-0.244-1.768-0.732l-5.946-5.946c-0.977-0.977-0.977-2.559,0-3.535s2.559-0.977,3.535,0
					l5.946,5.946c0.977,0.977,0.977,2.559,0,3.535C225.034,163.001,224.395,163.245,223.755,163.245z"/>
			</g>
		</g>
		<g>
			<g>
				<path d="M207.106,132.325c-0.64,0-1.279-0.244-1.768-0.732l-5.946-5.946c-0.977-0.977-0.977-2.559,0-3.535s2.559-0.977,3.535,0
					l5.946,5.946c0.977,0.977,0.977,2.559,0,3.535C208.386,132.081,207.746,132.325,207.106,132.325z"/>
			</g>
		</g>
		<g>
			<g>
				<path d="M199.971,139.461c-0.64,0-1.279-0.244-1.768-0.732l-5.946-5.946c-0.977-0.977-0.977-2.559,0-3.535s2.559-0.977,3.535,0
					l5.946,5.946c0.977,0.977,0.977,2.559,0,3.535C201.25,139.217,200.61,139.461,199.971,139.461z"/>
			</g>
		</g>
		<g>
			<g>
				<path d="M117.824,239.267c-0.64,0-1.279-0.244-1.768-0.732c-0.977-0.977-0.977-2.559,0-3.535l83.841-83.841
					c0.977-0.977,2.559-0.977,3.535,0s0.977,2.559,0,3.535l-83.841,83.841C119.104,239.022,118.464,239.267,117.824,239.267z"/>
			</g>
		</g>
		<g>
			<g>
				<path d="M112.176,233.618c-0.64,0-1.279-0.244-1.768-0.732c-0.977-0.977-0.977-2.559,0-3.535l83.841-83.841
					c0.977-0.977,2.559-0.977,3.535,0s0.977,2.559,0,3.535l-83.841,83.841C113.455,233.374,112.815,233.618,112.176,233.618z"/>
			</g>
		</g>
		<g>
			<g>
				<path d="M123.474,244.916c-0.64,0-1.279-0.244-1.768-0.732c-0.977-0.977-0.977-2.559,0-3.535l83.841-83.841
					c0.977-0.977,2.559-0.977,3.535,0s0.977,2.559,0,3.535l-83.841,83.841C124.753,244.672,124.113,244.916,123.474,244.916z"/>
			</g>
		</g>
		<g>
			<g>
				<path d="M199.925,166.858c-0.64,0-1.279-0.244-1.768-0.732l-10.108-10.108c-0.977-0.977-0.977-2.559,0-3.535
					s2.559-0.977,3.535,0l10.108,10.108c0.977,0.977,0.977,2.559,0,3.535C201.204,166.614,200.564,166.858,199.925,166.858z"/>
			</g>
		</g>
		<g>
			<g>
				<path d="M190.731,176.053c-0.64,0-1.279-0.244-1.768-0.732l-10.108-10.109c-0.977-0.977-0.977-2.56,0-3.535
					c0.977-0.977,2.559-0.977,3.535,0l10.108,10.109c0.977,0.977,0.977,2.56,0,3.535
					C192.011,175.809,191.371,176.053,190.731,176.053z"/>
			</g>
		</g>
		<g>
			<g>
				<path d="M181.537,185.246c-0.64,0-1.279-0.244-1.768-0.732l-10.108-10.108c-0.977-0.977-0.977-2.559,0-3.535
					s2.559-0.977,3.535,0l10.108,10.108c0.977,0.977,0.977,2.559,0,3.535C182.816,185.002,182.177,185.246,181.537,185.246z"/>
			</g>
		</g>
		<g>
			<g>
				<path d="M172.344,194.439c-0.64,0-1.279-0.244-1.768-0.732l-10.108-10.108c-0.977-0.977-0.977-2.559,0-3.535
					s2.559-0.977,3.535,0l10.108,10.108c0.977,0.977,0.977,2.559,0,3.535C173.623,194.195,172.983,194.439,172.344,194.439z"/>
			</g>
		</g>
		<g>
			<g>
				<path d="M163.15,203.633c-0.64,0-1.279-0.244-1.768-0.732l-10.108-10.108c-0.977-0.977-0.977-2.559,0-3.535s2.559-0.977,3.535,0
					l10.108,10.108c0.977,0.977,0.977,2.559,0,3.535C164.43,203.389,163.79,203.633,163.15,203.633z"/>
			</g>
		</g>
		<g>
			<g>
				<path d="M178.29,256h-22.685c-1.381,0-2.5-1.119-2.5-2.5s1.119-2.5,2.5-2.5h22.685c0.439,0,0.849-0.176,1.15-0.495
					s0.454-0.736,0.43-1.175l-1.822-31.431c-0.08-1.378,0.973-2.561,2.352-2.641c1.386-0.075,2.561,0.975,2.641,2.352l1.822,31.436
					c0.101,1.804-0.552,3.586-1.789,4.895C181.835,255.249,180.092,256,178.29,256z"/>
			</g>
		</g>
		<g>
			<g>
				<path d="M174.009,171.216c-0.644,0-1.287-0.247-1.775-0.74c-1.564-1.578-3.524-2.697-5.67-3.236l-28.901-7.275
					c-0.171-0.043-0.337-0.104-0.495-0.183l-2.557-1.26c-1.238-0.61-1.747-2.108-1.137-3.348c0.609-1.238,2.108-1.749,3.348-1.137
					l2.318,1.143l28.645,7.21c3.028,0.763,5.795,2.341,8,4.566c0.973,0.98,0.965,2.563-0.016,3.535
					C175.281,170.975,174.645,171.216,174.009,171.216z"/>
			</g>
		</g>
		<g>
			<g>
				<path d="M87.487,256H29.192c-1.802,0-3.545-0.751-4.783-2.06c-1.237-1.309-1.89-3.091-1.789-4.89l4.114-70.956
					c0.421-7.546,5.631-13.859,12.964-15.705l28.646-7.21l2.529-1.247c1.238-0.612,2.736-0.102,3.348,1.137
					c0.61,1.238,0.102,2.737-1.137,3.348l-2.768,1.364c-0.158,0.078-0.324,0.139-0.495,0.183l-28.902,7.275
					c-5.2,1.309-8.895,5.785-9.192,11.139l-4.114,70.957c-0.024,0.434,0.128,0.851,0.43,1.17S28.753,251,29.192,251h58.295
					c1.381,0,2.5,1.119,2.5,2.5S88.868,256,87.487,256z"/>
			</g>
		</g>
		<g>
			<g>
				<path class="st7" d="M157.547,28.33c4.498-0.838,8.043-4.31,8.898-8.716c0.043-0.221,0.352-0.221,0.395,0
					c0.855,4.406,4.4,7.879,8.898,8.716c0.226,0.042,0.226,0.345,0,0.387c-4.498,0.838-8.043,4.31-8.898,8.717
					c-0.043,0.221-0.352,0.221-0.395,0c-0.855-4.406-4.4-7.879-8.898-8.717C157.321,28.675,157.321,28.373,157.547,28.33z"/>
			</g>
		</g>
		<g>
			<g>
				<path class="st7" d="M165.854,141.101c2.862-0.533,5.118-2.743,5.663-5.547c0.027-0.141,0.224-0.141,0.251,0
					c0.544,2.804,2.8,5.014,5.663,5.547c0.144,0.027,0.144,0.219,0,0.246c-2.862,0.533-5.118,2.743-5.663,5.547
					c-0.027,0.141-0.224,0.141-0.251,0c-0.544-2.804-2.8-5.014-5.663-5.547C165.71,141.32,165.71,141.128,165.854,141.101z"/>
			</g>
		</g>
		<g>
			<g>
				<path class="st6" d="M39.86,121.75h2.33v-2.33c0-1.744,1.413-3.157,3.157-3.157s3.157,1.413,3.157,3.157v2.33h2.329
					c1.744,0,3.157,1.413,3.157,3.157s-1.413,3.157-3.157,3.157h-2.329v2.33c0,1.744-1.413,3.157-3.157,3.157
					s-3.157-1.413-3.157-3.157v-2.33h-2.33c-1.744,0-3.157-1.413-3.157-3.157S38.116,121.75,39.86,121.75z"/>
			</g>
		</g>
		<g>
			<g>
				<circle class="st8" cx="29.368" cy="146.825" r="3.377"/>
			</g>
		</g>
		<g>
			<g>
				<circle class="st9" cx="145.614" cy="3.377" r="3.377"/>
			</g>
		</g>
		<g>
			<g>
				<circle class="st8" cx="196.614" cy="192.377" r="3.377"/>
			</g>
		</g>
		<g>
			<g>
				<path d="M117.76,178.391c-1.332,0-2.604-0.555-3.511-1.536l-8.158-8.838c-1.646-1.783-1.625-4.559,0.047-6.317l15.688-16.491
					c1.628-1.713,4.372-1.81,6.116-0.215l8.134,7.425c1.724,1.573,1.909,4.215,0.423,6.014l-15.054,18.224
					c-0.878,1.063-2.173,1.695-3.552,1.733C117.849,178.391,117.804,178.391,117.76,178.391z M110.006,164.887l7.744,8.39
					l14.513-17.568l-7.238-6.608L110.006,164.887z M132.703,156.11L132.703,156.11L132.703,156.11L132.703,156.11z"/>
			</g>
		</g>
		<g>
			<g>
				<path d="M89.723,178.391c-0.044,0-0.089,0-0.133-0.002c-1.379-0.038-2.674-0.67-3.552-1.733l-15.054-18.224
					c-1.485-1.798-1.3-4.439,0.422-6.013c0,0,0.001,0,0.001-0.001l8.134-7.426c1.745-1.592,4.488-1.496,6.116,0.216l15.688,16.491
					c1.672,1.759,1.693,4.534,0.047,6.317l-8.157,8.837C92.327,177.836,91.055,178.391,89.723,178.391z M75.22,155.708
					l14.513,17.568l7.744-8.39L82.458,149.1L75.22,155.708z"/>
			</g>
		</g>
		<g>
			<g>
				<path d="M103.2,179.588c-4.041,0-8.072-0.978-11.657-2.828c-1.227-0.634-1.708-2.142-1.075-3.368
					c0.633-1.228,2.141-1.71,3.368-1.075c2.921,1.507,6.071,2.271,9.364,2.271c3.479,0,6.927-0.899,9.97-2.602
					c1.206-0.673,2.729-0.244,3.402,0.961s0.244,2.729-0.961,3.402C111.823,178.468,107.532,179.588,103.2,179.588z"/>
			</g>
		</g>
		<g>
			<g>
				<path d="M155.605,256H87.487c-0.879,0-1.694-0.462-2.146-1.217c-9.37-15.661-7.719-35.432,4.107-49.194
					c7.281-8.47,17.387-13.657,28.456-14.605c1.755-0.15,3.277-1.264,3.973-2.904c1.708-4.029,4.151-7.648,7.261-10.758
					c10.417-10.416,24.943-11.284,37.915-2.268c1.134,0.788,1.414,2.346,0.626,3.479c-0.788,1.135-2.349,1.413-3.479,0.626
					c-11.019-7.658-22.804-7.023-31.526,1.697c-2.653,2.653-4.736,5.739-6.192,9.173c-1.419,3.351-4.542,5.626-8.149,5.937
					c-9.758,0.835-18.668,5.41-25.091,12.883c-10.118,11.774-11.78,28.544-4.307,42.151h65.225
					c2.475-4.502,4.012-9.544,4.461-14.669c0.32-3.65,2.605-6.805,5.965-8.231c4.118-1.75,7.708-4.38,10.668-7.818
					c9.675-11.24,4.221-23.321,0.108-29.522c-0.763-1.151-0.448-2.702,0.702-3.466c1.152-0.761,2.702-0.449,3.466,0.702
					c8.326,12.558,8.149,25.515-0.487,35.548c-3.465,4.025-7.672,7.106-12.502,9.158c-1.654,0.703-2.781,2.262-2.939,4.067
					c-0.556,6.341-2.579,12.572-5.853,18.019C157.297,255.54,156.483,256,155.605,256z"/>
			</g>
		</g>
		<g>
			<g>
				<path d="M122.284,254.789c-1.152,0-2.304-0.438-3.181-1.315l-17.985-17.986c-1.754-1.754-1.754-4.606,0-6.36l2.524-2.526
					c1.756-1.754,4.608-1.754,6.362,0l17.985,17.986c1.754,1.754,1.754,4.606,0,6.36l-2.524,2.526
					C124.588,254.351,123.437,254.789,122.284,254.789z M105.009,232.307l17.275,17.277l1.815-1.816l-17.275-17.277L105.009,232.307
					z M124.455,248.122L124.455,248.122L124.455,248.122z"/>
			</g>
		</g>
		<g>
			<g>
				<path d="M210.882,161.426c-1.976,0-3.829-0.766-5.22-2.156l-10.34-10.341c-2.878-2.878-2.878-7.561,0-10.438l12.719-12.719
					c2.877-2.879,7.562-2.879,10.438,0l10.341,10.34l0,0c1.391,1.391,2.156,3.244,2.156,5.22s-0.766,3.829-2.156,5.22l-12.72,12.719
					C214.711,160.66,212.857,161.426,210.882,161.426z M213.26,128.61c-0.609,0-1.219,0.232-1.684,0.696l-12.719,12.719
					c-0.929,0.929-0.929,2.439,0,3.368l10.34,10.341c0.892,0.889,2.476,0.893,3.367,0l12.721-12.72
					c0.446-0.446,0.691-1.044,0.691-1.684c0-0.641-0.246-1.238-0.691-1.685l-10.341-10.34
					C214.479,128.843,213.87,128.61,213.26,128.61z"/>
			</g>
		</g>
		<g>
			<g>
				<path d="M135.663,237.405c-4.936,0-9.576-1.922-13.065-5.412c-7.204-7.204-7.204-18.926,0-26.13
					c3.489-3.49,8.13-5.413,13.065-5.413s9.575,1.923,13.065,5.413c7.204,7.204,7.204,18.926,0,26.13
					C145.238,235.483,140.599,237.405,135.663,237.405z M135.663,205.45c-3.601,0-6.984,1.402-9.53,3.948
					c-5.255,5.255-5.255,13.805,0,19.06c2.546,2.546,5.93,3.947,9.53,3.947c3.6,0,6.984-1.401,9.53-3.947
					c5.255-5.255,5.255-13.805,0-19.06C142.647,206.853,139.263,205.45,135.663,205.45z"/>
			</g>
		</g>
	</g>
</g>
<g id="Layer_66">
</g>
<g id="Layer_67">
</g>
<g id="Layer_68">
</g>
<g id="Layer_69">
</g>
<g id="Layer_70">
</g>
<g id="Layer_71">
</g>
<g id="Layer_72">
</g>
<g id="Layer_73">
</g>
<g id="Layer_74">
</g>
<g id="Layer_75">
</g>
<g id="Layer_76">
</g>
<g id="Layer_77">
</g>
<g id="Layer_78">
</g>
<g id="Layer_79">
</g>
<g id="Layer_80">
</g>
</svg>
