<?xml version="1.0" encoding="utf-8"?>
<!-- Generator: Adobe Illustrator 24.0.0, SVG Export Plug-In . SVG Version: 6.00 Build 0)  -->
<svg version="1.1" xmlns="http://www.w3.org/2000/svg" xmlns:xlink="http://www.w3.org/1999/xlink" x="0px" y="0px"
	 viewBox="0 0 256 256" style="enable-background:new 0 0 256 256;" xml:space="preserve">
<style type="text/css">
	.st0{fill:#3A70BF;}
	.st1{fill:#EDF4FC;}
	.st2{fill:#C7D7E5;}
	.st3{fill:#F9D0B4;}
	.st4{fill:#5B5D60;}
	.st5{fill:#5290DB;}
	.st6{fill:#70D6F9;}
	.st7{fill:#F5C84C;}
	.st8{fill:#FC657E;}
	.st9{fill:#87D147;}
	.st10{fill:#FCDD86;}
	.st11{fill:#9BE5F9;}
	.st12{fill:#B2E26D;}
	.st13{fill:#754E34;}
	.st14{fill:#FCA265;}
	.st15{fill:#818182;}
	.st16{fill:#F94EED;}
	.st17{fill:#FFC197;}
	.st18{fill:#3CAADC;}
	.st19{fill:#DAE6F1;}
	.st20{fill:#57AF12;}
	.st21{fill:#EF4460;}
	.st22{fill:#FFF0CA;}
	.st23{fill:#F98FA6;}
	.st24{fill:#EDB311;}
	.st25{fill:#FC8C48;}
	.st26{fill:#FCB9CB;}
	.st27{fill:#96BC71;}
	.st28{fill:#78A352;}
	.st29{fill:#B8DD90;}
	.st30{fill:#6FAFEF;}
	.st31{fill:#29589F;}
	.st32{fill:#414344;}
	.st33{fill:#9B6B4B;}
	.st34{fill:#73B1EF;}
</style>
<g id="Layer_1">
</g>
<g id="Layer_2">
</g>
<g id="Layer_3">
</g>
<g id="Layer_4">
</g>
<g id="Layer_5">
</g>
<g id="Layer_6">
</g>
<g id="Layer_7">
</g>
<g id="Layer_8">
</g>
<g id="Layer_9">
</g>
<g id="Layer_10">
</g>
<g id="Layer_11">
</g>
<g id="Layer_12">
</g>
<g id="Layer_13">
</g>
<g id="Layer_14">
</g>
<g id="Layer_15">
</g>
<g id="Layer_16">
</g>
<g id="Layer_17">
</g>
<g id="Layer_18">
</g>
<g id="Layer_19">
</g>
<g id="Layer_20">
</g>
<g id="Layer_21">
</g>
<g id="Layer_22">
</g>
<g id="Layer_23">
</g>
<g id="Layer_24">
</g>
<g id="Layer_25">
</g>
<g id="Layer_26">
</g>
<g id="Layer_27">
</g>
<g id="Layer_28">
</g>
<g id="Layer_29">
</g>
<g id="Layer_30">
</g>
<g id="Layer_31">
</g>
<g id="Layer_32">
</g>
<g id="Layer_33">
</g>
<g id="Layer_34">
</g>
<g id="Layer_35">
</g>
<g id="Layer_36">
</g>
<g id="Layer_37">
</g>
<g id="Layer_38">
</g>
<g id="Layer_39">
</g>
<g id="Layer_40">
</g>
<g id="Layer_41">
</g>
<g id="Layer_42">
</g>
<g id="Layer_43">
</g>
<g id="Layer_44">
</g>
<g id="Layer_45">
</g>
<g id="Layer_46">
</g>
<g id="Layer_47">
</g>
<g id="Layer_48">
</g>
<g id="Layer_49">
</g>
<g id="Layer_50">
</g>
<g id="Layer_51">
</g>
<g id="Layer_52">
</g>
<g id="Layer_53">
</g>
<g id="Layer_54">
</g>
<g id="Layer_55">
</g>
<g id="Layer_56">
</g>
<g id="Layer_57">
</g>
<g id="Layer_58">
</g>
<g id="Layer_59">
</g>
<g id="Layer_60">
</g>
<g id="Layer_61">
</g>
<g id="Layer_62">
</g>
<g id="Layer_63">
</g>
<g id="Layer_64">
</g>
<g id="Layer_65">
</g>
<g id="Layer_66">
</g>
<g id="Layer_67">
</g>
<g id="Layer_68">
</g>
<g id="Layer_69">
</g>
<g id="Layer_70">
</g>
<g id="Layer_71">
</g>
<g id="Layer_72">
	<g>
		<g>
			<g>
				<path class="st3" d="M149.44,71.985c-0.759,0-1.502,0.064-2.229,0.177c0,3.696,0,20.799,0,26.293v0v0
					c0,0.783-0.036,1.558-0.088,2.329c0.756,0.122,1.526,0.202,2.316,0.202c8.009,0,14.501-6.492,14.501-14.501
					C163.941,78.477,157.448,71.985,149.44,71.985z"/>
			</g>
		</g>
		<g>
			<g>
				<path class="st3" d="M129.092,60.642c-5.29,6.174-24.047,24.906-51.344,17.13v20.684c0,19.102,15.629,34.732,34.732,34.732l0,0
					c19.102,0,34.732-15.629,34.732-34.732v-28.06c0-1.276-0.893-2.358-2.136-2.646c-3.515-0.814-7.782-2.85-12.673-7.294
					C131.434,59.577,129.942,59.649,129.092,60.642z"/>
			</g>
		</g>
		<g>
			<g>
				<path class="st3" d="M77.748,77.771c-2.385-0.679-4.834-1.559-7.346-2.668c-1.619-0.715-3.511-0.386-4.803,0.825
					c-2.817,2.641-4.581,6.39-4.581,10.557c0,8.008,6.492,14.501,14.501,14.501c0.79,0,1.56-0.08,2.316-0.202
					c-0.052-0.771-0.088-1.546-0.088-2.329V77.771z"/>
			</g>
		</g>
		<g>
			<g>
				<g>
					<path class="st13" d="M65.599,75.929c1.291-1.211,3.183-1.54,4.803-0.825c2.512,1.109,4.961,1.988,7.346,2.668
						c27.297,7.776,46.055-10.956,51.344-17.13c0.85-0.992,2.342-1.065,3.309-0.186c4.892,4.445,9.159,6.48,12.673,7.294
						c1.243,0.288,2.136,1.37,2.136,2.646v1.766c0.727-0.113,1.47-0.177,2.229-0.177c4.012,0,7.643,1.63,10.268,4.263v-8.494
						c0-25.976-21.253-47.229-47.229-47.229c-25.976,0-47.229,21.253-47.229,47.229v8.535
						C65.369,76.171,65.477,76.043,65.599,75.929z"/>
				</g>
			</g>
		</g>
		<g>
			<g>
				<path class="st11" d="M143.128,150.265l-8.134-7.427c-0.753-0.687-1.917-0.646-2.619,0.092l-15.687,16.491
					c-0.77,0.81-0.78,2.078-0.022,2.899l8.157,8.837c0.936,1.014,2.552,0.97,3.431-0.094l15.054-18.223
					C143.944,152.071,143.865,150.938,143.128,150.265z"/>
			</g>
		</g>
		<g>
			<g>
				<path class="st11" d="M81.831,150.265l8.134-7.427c0.753-0.687,1.917-0.646,2.619,0.092l15.687,16.491
					c0.77,0.81,0.78,2.078,0.022,2.899l-8.157,8.837c-0.936,1.014-2.552,0.97-3.431-0.094L81.65,152.84
					C81.014,152.071,81.094,150.938,81.831,150.265z"/>
			</g>
		</g>
		<g>
			<g>
				<path class="st13" d="M170.112,128.268c-6.1-11.129-9.132-22.635-10.64-31.327c-2.606,2.5-6.136,4.046-10.032,4.046
					c-0.79,0-1.56-0.081-2.316-0.202c-0.816,12.152-7.945,22.646-18.124,28.194v10.533c0,1.92,0.582,3.744,1.6,5.285l1.775-1.866
					c0.702-0.738,1.866-0.779,2.619-0.092l2.903,2.65c17.002-2.853,26.491-8.102,30.912-11.299
					C170.684,132.834,171.224,130.297,170.112,128.268z"/>
			</g>
		</g>
		<g>
			<g>
				<path class="st13" d="M89.965,142.838c0.753-0.687,1.917-0.646,2.619,0.092l1.775,1.866c1.018-1.542,1.6-3.365,1.6-5.285
					v-10.533c-10.179-5.548-17.308-16.042-18.124-28.194c-0.756,0.122-1.526,0.202-2.316,0.202c-3.897,0-7.427-1.545-10.032-4.046
					c-1.508,8.692-4.54,20.198-10.64,31.327c-1.112,2.029-0.572,4.566,1.303,5.921c4.422,3.197,13.91,8.446,30.912,11.299
					L89.965,142.838z"/>
			</g>
		</g>
		<g>
			<g>
				<path class="st6" d="M144.316,247.513V231.28c0-3.399,2.781-6.181,6.181-6.181h0.004v-8.802h-0.004
					c-3.399,0-6.181-2.781-6.181-6.181v-16.233c0-3.399,2.781-6.181,6.181-6.181h0.004v-8.802h-0.004
					c-3.399,0-6.181-2.781-6.181-6.181v-16.233c0-1.136,0.316-2.2,0.857-3.118c-0.58-0.232-1.155-0.476-1.721-0.742
					c-0.045,0.073-0.088,0.146-0.143,0.213l-15.054,18.224c-0.879,1.064-2.495,1.108-3.431,0.094l-8.157-8.836
					c-0.468-0.508-0.642-1.186-0.526-1.821h-7.323c0.116,0.635-0.057,1.313-0.526,1.821l-8.157,8.836
					c-0.936,1.014-2.552,0.97-3.431-0.094L81.65,152.84c-0.056-0.067-0.099-0.14-0.143-0.213c-1.775,0.837-3.624,1.509-5.529,1.988
					l-24.833,6.269c-6.044,1.521-10.396,6.796-10.743,13.019l-2.744,75.418c-0.127,2.269,1.68,4.179,3.953,4.179H63.6
					c1.478,0,2.677-1.198,2.677-2.677v-47.143l3.883,12.438c2.539,8.133,3.83,16.604,3.83,25.125v9.58
					c0,1.479,1.198,2.677,2.677,2.677h30.345h10.936h30.345c0.173,0,0.34-0.02,0.504-0.051
					C146.218,252.706,144.316,250.323,144.316,247.513z"/>
			</g>
		</g>
		<g>
			<g>
				<path class="st3" d="M108.818,160.5h7.323c0.072-0.393,0.253-0.769,0.547-1.078l13.906-14.619
					c-1.014-1.545-1.595-3.371-1.595-5.291v-10.533c-4.92,2.682-10.551,4.208-16.52,4.208c-5.97,0-11.6-1.526-16.52-4.208v10.533
					c0,1.92-0.581,3.746-1.595,5.291l13.906,14.619C108.565,159.731,108.746,160.107,108.818,160.5z"/>
			</g>
		</g>
		<g>
			<g>
				<path class="st0" d="M217.462,225.099h-66.966c-3.399,0-6.181,2.781-6.181,6.181v16.233c0,3.4,2.781,6.181,6.181,6.181h66.966
					c3.399,0,6.181-2.781,6.181-6.181V231.28C223.643,227.88,220.862,225.099,217.462,225.099z"/>
			</g>
		</g>
		<g>
			<g>
				<path class="st0" d="M217.462,187.703h-66.966c-3.399,0-6.181,2.781-6.181,6.181v16.233c0,3.4,2.781,6.181,6.181,6.181h66.966
					c3.399,0,6.181-2.781,6.181-6.181v-16.233C223.643,190.484,220.862,187.703,217.462,187.703z"/>
			</g>
		</g>
		<g>
			<g>
				<path class="st0" d="M217.462,150.306h-66.966c-3.399,0-6.181,2.781-6.181,6.181v16.233c0,3.4,2.781,6.181,6.181,6.181h66.966
					c3.399,0,6.181-2.781,6.181-6.181v-16.233C223.643,153.087,220.862,150.306,217.462,150.306z"/>
			</g>
		</g>
		<g>
			<g>
				<rect x="150.5" y="216.297" class="st19" width="66.959" height="8.802"/>
			</g>
		</g>
		<g>
			<g>
				<rect x="150.5" y="178.901" class="st19" width="66.959" height="8.802"/>
			</g>
		</g>
		<g>
			<g>
				<path d="M112.479,117.757c-4.776,0-9.262-1.949-11.999-5.214c-0.887-1.059-0.748-2.636,0.31-3.522
					c1.06-0.887,2.636-0.748,3.522,0.31c1.798,2.146,4.852,3.427,8.167,3.427c3.315,0,6.368-1.281,8.167-3.427
					c0.886-1.058,2.464-1.196,3.522-0.31c1.058,0.888,1.196,2.464,0.309,3.522C121.741,115.808,117.255,117.757,112.479,117.757z"/>
			</g>
		</g>
		<g>
			<g>
				<circle cx="127.59" cy="90.5" r="4.5"/>
			</g>
		</g>
		<g>
			<g>
				<circle cx="97.369" cy="90.5" r="4.5"/>
			</g>
		</g>
		<g>
			<g>
				<path d="M149.44,103.486c-0.513,0-1.027-0.026-1.574-0.082c-1.374-0.139-2.375-1.365-2.236-2.738s1.369-2.375,2.739-2.236
					c0.352,0.035,0.709,0.057,1.071,0.057c6.617,0,12-5.383,12-12s-5.383-12.001-12-12.001c-0.343,0-0.682,0.017-1.017,0.046
					c-1.374,0.122-2.589-0.895-2.711-2.27c-0.122-1.375,0.894-2.589,2.27-2.711c0.48-0.043,0.966-0.065,1.458-0.065
					c9.374,0,17,7.627,17,17.001S158.814,103.486,149.44,103.486z"/>
			</g>
		</g>
		<g>
			<g>
				<path d="M112.479,135.687c-20.53,0-37.232-16.702-37.232-37.231V77.771c0-0.784,0.368-1.522,0.994-1.995
					c0.626-0.472,1.438-0.624,2.191-0.409c25.918,7.384,43.875-10.649,48.761-16.353h0c0.85-0.991,2.034-1.581,3.335-1.662
					c1.283-0.085,2.59,0.376,3.554,1.254c3.951,3.59,7.839,5.847,11.556,6.708c2.397,0.556,4.072,2.646,4.072,5.081v28.06
					C149.711,118.984,133.009,135.687,112.479,135.687z M80.248,80.979v17.477c0,17.772,14.459,32.231,32.232,32.231
					c17.772,0,32.231-14.459,32.231-32.231v-28.06c0-0.113-0.101-0.187-0.201-0.21c-4.515-1.046-9.109-3.656-13.657-7.759
					C125.496,68.626,107.064,86.862,80.248,80.979z"/>
			</g>
		</g>
		<g>
			<g>
				<path d="M75.519,103.486c-9.375,0-17.001-7.626-17.001-17c0-4.668,1.958-9.181,5.371-12.382c2.03-1.902,4.981-2.41,7.522-1.288
					c2.328,1.028,4.69,1.887,7.021,2.551c1.328,0.379,2.098,1.762,1.719,3.09c-0.378,1.328-1.763,2.1-3.089,1.719
					c-2.552-0.728-5.133-1.665-7.671-2.785c-0.7-0.312-1.518-0.167-2.082,0.361c-2.445,2.293-3.792,5.395-3.792,8.734
					c0,6.617,5.384,12,12.001,12c0.375,0,0.752-0.021,1.155-0.066c1.376-0.142,2.607,0.839,2.759,2.212
					c0.151,1.372-0.839,2.607-2.211,2.759C76.644,103.454,76.07,103.486,75.519,103.486z"/>
			</g>
		</g>
		<g>
			<g>
				<g>
					<path d="M65.25,78.512c-1.381,0-2.5-1.119-2.5-2.5v-8.257c0-27.42,22.308-49.729,49.729-49.729
						c27.42,0,49.729,22.309,49.729,49.729v7.964c0,1.381-1.119,2.5-2.5,2.5s-2.5-1.119-2.5-2.5v-7.964
						c0-24.663-20.065-44.729-44.729-44.729S67.75,43.092,67.75,67.755v8.257C67.75,77.393,66.631,78.512,65.25,78.512z"/>
				</g>
			</g>
		</g>
		<g>
			<g>
				<path d="M126.498,174.391c-1.332,0-2.605-0.556-3.511-1.536l-8.157-8.838c-1.646-1.784-1.625-4.559,0.047-6.317l15.687-16.491
					c1.629-1.712,4.372-1.809,6.117-0.215l8.133,7.425c1.724,1.573,1.909,4.215,0.423,6.014l-15.054,18.224
					c-0.878,1.063-2.172,1.695-3.552,1.733C126.586,174.391,126.542,174.391,126.498,174.391z M118.745,160.887l7.744,8.39
					L141,151.708l-7.238-6.608L118.745,160.887z M141.439,152.109c0.001,0,0.002,0.001,0.003,0.002h0L141.439,152.109z"/>
			</g>
		</g>
		<g>
			<g>
				<path d="M98.461,174.391c-0.044,0-0.088,0-0.133-0.001c-1.378-0.039-2.673-0.671-3.552-1.734l-15.054-18.224
					c-1.486-1.799-1.3-4.44,0.422-6.013c0,0,0-0.001,0-0.001l8.134-7.426c1.745-1.591,4.488-1.495,6.116,0.215l15.688,16.492
					c1.673,1.759,1.693,4.533,0.047,6.317l-8.157,8.837C101.066,173.836,99.792,174.391,98.461,174.391z M83.958,151.708
					l14.513,17.568l7.744-8.39L91.197,145.1L83.958,151.708z M83.517,152.11c0,0,0.001-0.001,0.002-0.001L83.517,152.11
					L83.517,152.11z"/>
			</g>
		</g>
		<g>
			<g>
				<path d="M138.5,147.886c-1.194,0-2.25-0.857-2.46-2.074c-0.235-1.36,0.677-2.654,2.037-2.89
					c16.455-2.846,25.399-7.962,29.267-10.759c0.838-0.605,1.085-1.764,0.575-2.694c-5.121-9.342-8.767-20.001-10.837-31.682
					c-0.241-1.359,0.666-2.657,2.025-2.898c1.358-0.237,2.657,0.665,2.897,2.025c1.358,7.661,4.247,19.111,10.299,30.151
					c1.719,3.137,0.846,7.07-2.03,9.15c-4.218,3.049-13.898,8.615-31.344,11.634C138.785,147.874,138.642,147.886,138.5,147.886z"/>
			</g>
		</g>
		<g>
			<g>
				<path d="M86.409,147.877c-0.142,0-0.286-0.012-0.43-0.037c-17.419-3.021-27.083-8.58-31.293-11.625
					c-2.876-2.079-3.75-6.012-2.031-9.148c4.748-8.662,8.292-18.991,10.249-29.87c0.244-1.359,1.548-2.256,2.903-2.019
					c1.359,0.245,2.263,1.545,2.018,2.903c-2.081,11.567-5.709,22.128-10.785,31.388c-0.51,0.931-0.262,2.089,0.576,2.694
					c3.861,2.793,12.79,7.901,29.218,10.751c1.36,0.235,2.272,1.529,2.036,2.89C88.658,147.02,87.602,147.877,86.409,147.877z"/>
			</g>
		</g>
		<g>
			<g>
				<path d="M148.292,256H76.666c-2.854,0-5.177-2.322-5.177-5.177v-9.579c0-7.068-0.912-14.081-2.713-20.896v30.476
					c0,2.854-2.322,5.177-5.177,5.177H41.61c-1.768,0-3.478-0.736-4.692-2.021c-1.215-1.284-1.855-3.033-1.757-4.798l2.742-75.37
					c0.412-7.403,5.487-13.554,12.631-15.353l24.832-6.268c1.488-0.375,2.974-0.889,4.419-1.527c1.265-0.555,2.74,0.016,3.297,1.276
					c0.558,1.264-0.013,2.739-1.276,3.298c-1.703,0.752-3.458,1.358-5.217,1.801l-24.833,6.269
					c-5.012,1.262-8.571,5.575-8.858,10.733l-2.742,75.37c-0.033,0.595,0.233,0.962,0.395,1.133c0.161,0.17,0.513,0.456,1.06,0.456
					H63.6c0.098,0,0.177-0.079,0.177-0.177v-47.143c0-1.235,0.902-2.285,2.123-2.472c1.222-0.188,2.395,0.547,2.763,1.727
					l3.883,12.438c2.617,8.382,3.944,17.086,3.944,25.87v9.579c0,0.098,0.079,0.177,0.177,0.177h71.626
					c1.356-0.263,2.683,0.628,2.942,1.983c0.259,1.356-0.613,2.662-1.969,2.922C148.93,255.969,148.612,256,148.292,256z"/>
			</g>
		</g>
		<g>
			<g>
				<path d="M94.678,146.789c-0.421,0-0.847-0.106-1.239-0.33c-1.199-0.686-1.614-2.213-0.929-3.411
					c0.621-1.086,0.949-2.309,0.949-3.536v-9.615c0-1.381,1.119-2.5,2.5-2.5s2.5,1.119,2.5,2.5v9.615
					c0,2.097-0.557,4.179-1.609,6.019C96.389,146.337,95.545,146.789,94.678,146.789z"/>
			</g>
		</g>
		<g>
			<g>
				<path d="M130.378,146.954c-0.851,0-1.679-0.434-2.147-1.216c-1.132-1.893-1.731-4.045-1.731-6.227v-9.793
					c0-1.381,1.119-2.5,2.5-2.5s2.5,1.119,2.5,2.5v9.793c0,1.277,0.353,2.542,1.021,3.658c0.709,1.186,0.324,2.721-0.861,3.43
					C131.257,146.84,130.814,146.954,130.378,146.954z"/>
			</g>
		</g>
		<g>
			<g>
				<path d="M115.683,163h-6.5c-1.381,0-2.5-1.119-2.5-2.5s1.119-2.5,2.5-2.5h6.5c1.381,0,2.5,1.119,2.5,2.5
					S117.063,163,115.683,163z"/>
			</g>
		</g>
		<g>
			<g>
				<path d="M112.479,246.829c-1.381,0-2.5-1.119-2.5-2.5v-72.658c0-1.381,1.119-2.5,2.5-2.5s2.5,1.119,2.5,2.5v72.658
					C114.979,245.71,113.86,246.829,112.479,246.829z"/>
			</g>
		</g>
		<g>
			<g>
				<path d="M217.462,256.194h-66.966c-4.787,0-8.681-3.895-8.681-8.682V231.28c0-4.786,3.894-8.681,8.681-8.681h66.966
					c4.787,0,8.681,3.895,8.681,8.681v16.232C226.143,252.3,222.249,256.194,217.462,256.194z M150.496,227.6
					c-2.029,0-3.681,1.651-3.681,3.681v16.232c0,2.03,1.651,3.682,3.681,3.682h66.966c2.029,0,3.681-1.651,3.681-3.682V231.28
					c0-2.029-1.651-3.681-3.681-3.681H150.496z"/>
			</g>
		</g>
		<g>
			<g>
				<path d="M217.462,218.798h-66.966c-4.787,0-8.681-3.895-8.681-8.682v-16.232c0-4.787,3.894-8.682,8.681-8.682h66.966
					c4.787,0,8.681,3.895,8.681,8.682v16.232C226.143,214.903,222.249,218.798,217.462,218.798z M150.496,190.202
					c-2.029,0-3.681,1.651-3.681,3.682v16.232c0,2.03,1.651,3.682,3.681,3.682h66.966c2.029,0,3.681-1.651,3.681-3.682v-16.232
					c0-2.03-1.651-3.682-3.681-3.682H150.496z"/>
			</g>
		</g>
		<g>
			<g>
				<path d="M217.462,181.4h-66.966c-4.787,0-8.681-3.895-8.681-8.681v-16.232c0-4.787,3.894-8.682,8.681-8.682h66.966
					c4.787,0,8.681,3.895,8.681,8.682v16.232C226.143,177.506,222.249,181.4,217.462,181.4z M150.496,152.806
					c-2.029,0-3.681,1.651-3.681,3.682v16.232c0,2.029,1.651,3.681,3.681,3.681h66.966c2.029,0,3.681-1.651,3.681-3.681v-16.232
					c0-2.03-1.651-3.682-3.681-3.682H150.496z"/>
			</g>
		</g>
		<g>
			<g>
				<path d="M217.459,227.094c-1.381,0-2.5-1.119-2.5-2.5v-7.75c0-1.381,1.119-2.5,2.5-2.5s2.5,1.119,2.5,2.5v7.75
					C219.959,225.975,218.84,227.094,217.459,227.094z"/>
			</g>
		</g>
		<g>
			<g>
				<path d="M150.5,227.208c-1.381,0-2.5-1.119-2.5-2.5v-7.938c0-1.381,1.119-2.5,2.5-2.5s2.5,1.119,2.5,2.5v7.938
					C153,226.089,151.881,227.208,150.5,227.208z"/>
			</g>
		</g>
		<g>
			<g>
				<path d="M150.5,189.563c-1.381,0-2.5-1.119-2.5-2.5v-7.688c0-1.381,1.119-2.5,2.5-2.5s2.5,1.119,2.5,2.5v7.688
					C153,188.443,151.881,189.563,150.5,189.563z"/>
			</g>
		</g>
		<g>
			<g>
				<path d="M217.459,189.5c-1.381,0-2.5-1.119-2.5-2.5v-7.604c0-1.381,1.119-2.5,2.5-2.5s2.5,1.119,2.5,2.5V187
					C219.959,188.381,218.84,189.5,217.459,189.5z"/>
			</g>
		</g>
		<g>
			<g>
				<path d="M202.729,133.75c-1.381,0-2.5-1.119-2.5-2.5V113.5c0-1.381,1.119-2.5,2.5-2.5s2.5,1.119,2.5,2.5v17.75
					C205.229,132.631,204.11,133.75,202.729,133.75z"/>
			</g>
		</g>
		<g>
			<g>
				<path d="M202.729,144c-1.381,0-2.5-1.119-2.5-2.5v-1.083c0-1.381,1.119-2.5,2.5-2.5s2.5,1.119,2.5,2.5v1.083
					C205.229,142.881,204.11,144,202.729,144z"/>
			</g>
		</g>
		<g>
			<g>
				<path d="M202.729,115c-4.411,0-8-3.589-8-8s3.589-8,8-8s8,3.589,8,8S207.141,115,202.729,115z M202.729,104
					c-1.654,0-3,1.346-3,3s1.346,3,3,3s3-1.346,3-3S204.384,104,202.729,104z"/>
			</g>
		</g>
		<g>
			<g>
				<path d="M223.229,133.75c-1.381,0-2.5-1.119-2.5-2.5v-7.75c0-1.381,1.119-2.5,2.5-2.5s2.5,1.119,2.5,2.5v7.75
					C225.729,132.631,224.61,133.75,223.229,133.75z"/>
			</g>
		</g>
		<g>
			<g>
				<path d="M223.229,144c-1.381,0-2.5-1.119-2.5-2.5v-1.083c0-1.381,1.119-2.5,2.5-2.5s2.5,1.119,2.5,2.5v1.083
					C225.729,142.881,224.61,144,223.229,144z"/>
			</g>
		</g>
		<g>
			<g>
				<path d="M182.229,133.75c-1.381,0-2.5-1.119-2.5-2.5V113.5c0-1.381,1.119-2.5,2.5-2.5s2.5,1.119,2.5,2.5v17.75
					C184.729,132.631,183.61,133.75,182.229,133.75z"/>
			</g>
		</g>
		<g>
			<g>
				<path d="M182.229,144c-1.381,0-2.5-1.119-2.5-2.5v-1.083c0-1.381,1.119-2.5,2.5-2.5s2.5,1.119,2.5,2.5v1.083
					C184.729,142.881,183.61,144,182.229,144z"/>
			</g>
		</g>
		<g>
			<g>
				<path d="M182.229,115c-4.411,0-8-3.589-8-8s3.589-8,8-8s8,3.589,8,8S186.641,115,182.229,115z M182.229,104
					c-1.654,0-3,1.346-3,3s1.346,3,3,3s3-1.346,3-3S183.884,104,182.229,104z"/>
			</g>
		</g>
		<g>
			<g>
				<path class="st7" d="M181.301,28.33c-4.498-0.838-8.043-4.31-8.898-8.716c-0.043-0.221-0.352-0.221-0.395,0
					c-0.855,4.406-4.4,7.879-8.898,8.716c-0.226,0.042-0.226,0.345,0,0.387c4.498,0.838,8.043,4.31,8.898,8.717
					c0.043,0.221,0.352,0.221,0.395,0c0.855-4.406,4.4-7.879,8.898-8.717C181.527,28.675,181.527,28.373,181.301,28.33z"/>
			</g>
		</g>
		<g>
			<g>
				<path class="st9" d="M187.994,79.101c-2.862-0.533-5.118-2.743-5.663-5.547c-0.027-0.141-0.224-0.141-0.251,0
					c-0.544,2.804-2.8,5.014-5.663,5.547c-0.144,0.027-0.144,0.219,0,0.246c2.862,0.533,5.118,2.743,5.663,5.547
					c0.027,0.141,0.224,0.141,0.251,0c0.544-2.804,2.8-5.014,5.663-5.547C188.138,79.32,188.138,79.128,187.994,79.101z"/>
			</g>
		</g>
		<g>
			<g>
				<path class="st6" d="M36.726,102.75h2.33v-2.33c0-1.744,1.413-3.157,3.157-3.157s3.157,1.413,3.157,3.157v2.33h2.329
					c1.744,0,3.157,1.413,3.157,3.157s-1.413,3.157-3.157,3.157H45.37v2.33c0,1.744-1.413,3.157-3.157,3.157
					s-3.157-1.413-3.157-3.157v-2.33h-2.33c-1.744,0-3.157-1.413-3.157-3.157S34.982,102.75,36.726,102.75z"/>
			</g>
		</g>
		<g>
			<g>
				<circle class="st7" cx="33.234" cy="134.825" r="3.377"/>
			</g>
		</g>
		<g>
			<g>
				<circle class="st8" cx="159.234" cy="3.377" r="3.377"/>
			</g>
		</g>
		<g>
			<g>
				<g>
					<path class="st5" d="M214.643,231.6h-61.327c-1.381,0-2.5,1.119-2.5,2.5v10.595c0,1.381,1.119,2.5,2.5,2.5h61.327
						c1.381,0,2.5-1.119,2.5-2.5V234.1C217.143,232.719,216.024,231.6,214.643,231.6z"/>
				</g>
			</g>
			<g>
				<g>
					<path class="st5" d="M214.643,194.202h-61.327c-1.381,0-2.5,1.119-2.5,2.5v10.596c0,1.381,1.119,2.5,2.5,2.5h61.327
						c1.381,0,2.5-1.119,2.5-2.5v-10.596C217.143,195.321,216.024,194.202,214.643,194.202z"/>
				</g>
			</g>
			<g>
				<g>
					<path class="st5" d="M214.643,156.806h-61.327c-1.381,0-2.5,1.119-2.5,2.5V169.9c0,1.381,1.119,2.5,2.5,2.5h61.327
						c1.381,0,2.5-1.119,2.5-2.5v-10.595C217.143,157.925,216.024,156.806,214.643,156.806z"/>
				</g>
			</g>
		</g>
		<g>
			<g>
				<path d="M160.345,167h-3.846c-1.381,0-2.5-1.119-2.5-2.5s1.119-2.5,2.5-2.5h3.846c1.381,0,2.5,1.119,2.5,2.5
					S161.726,167,160.345,167z"/>
			</g>
		</g>
		<g>
			<g>
				<path d="M173.46,167h-3.846c-1.381,0-2.5-1.119-2.5-2.5s1.119-2.5,2.5-2.5h3.846c1.381,0,2.5,1.119,2.5,2.5
					S174.841,167,173.46,167z"/>
			</g>
		</g>
		<g>
			<g>
				<path d="M211.242,167H183.49c-1.381,0-2.5-1.119-2.5-2.5s1.119-2.5,2.5-2.5h27.751c1.381,0,2.5,1.119,2.5,2.5
					S212.623,167,211.242,167z"/>
			</g>
		</g>
		<g>
			<g>
				<path d="M160.345,205h-3.846c-1.381,0-2.5-1.119-2.5-2.5s1.119-2.5,2.5-2.5h3.846c1.381,0,2.5,1.119,2.5,2.5
					S161.726,205,160.345,205z"/>
			</g>
		</g>
		<g>
			<g>
				<path d="M173.46,205h-3.846c-1.381,0-2.5-1.119-2.5-2.5s1.119-2.5,2.5-2.5h3.846c1.381,0,2.5,1.119,2.5,2.5
					S174.841,205,173.46,205z"/>
			</g>
		</g>
		<g>
			<g>
				<path d="M211.242,205H183.49c-1.381,0-2.5-1.119-2.5-2.5s1.119-2.5,2.5-2.5h27.751c1.381,0,2.5,1.119,2.5,2.5
					S212.623,205,211.242,205z"/>
			</g>
		</g>
		<g>
			<g>
				<path d="M160.345,242h-3.846c-1.381,0-2.5-1.119-2.5-2.5s1.119-2.5,2.5-2.5h3.846c1.381,0,2.5,1.119,2.5,2.5
					S161.726,242,160.345,242z"/>
			</g>
		</g>
		<g>
			<g>
				<path d="M173.46,242h-3.846c-1.381,0-2.5-1.119-2.5-2.5s1.119-2.5,2.5-2.5h3.846c1.381,0,2.5,1.119,2.5,2.5
					S174.841,242,173.46,242z"/>
			</g>
		</g>
		<g>
			<g>
				<path d="M211.242,242H183.49c-1.381,0-2.5-1.119-2.5-2.5s1.119-2.5,2.5-2.5h27.751c1.381,0,2.5,1.119,2.5,2.5
					S212.623,242,211.242,242z"/>
			</g>
		</g>
	</g>
</g>
<g id="Layer_73">
</g>
<g id="Layer_74">
</g>
<g id="Layer_75">
</g>
<g id="Layer_76">
</g>
<g id="Layer_77">
</g>
<g id="Layer_78">
</g>
<g id="Layer_79">
</g>
<g id="Layer_80">
</g>
</svg>
