<?xml version="1.0" encoding="utf-8"?>
<!-- Generator: Adobe Illustrator 24.0.0, SVG Export Plug-In . SVG Version: 6.00 Build 0)  -->
<svg version="1.1" xmlns="http://www.w3.org/2000/svg" xmlns:xlink="http://www.w3.org/1999/xlink" x="0px" y="0px"
	 viewBox="0 0 256 256" style="enable-background:new 0 0 256 256;" xml:space="preserve">
<style type="text/css">
	.st0{fill:#3A70BF;}
	.st1{fill:#EDF4FC;}
	.st2{fill:#C7D7E5;}
	.st3{fill:#F9D0B4;}
	.st4{fill:#5B5D60;}
	.st5{fill:#5290DB;}
	.st6{fill:#70D6F9;}
	.st7{fill:#F5C84C;}
	.st8{fill:#FC657E;}
	.st9{fill:#87D147;}
	.st10{fill:#FCDD86;}
	.st11{fill:#9BE5F9;}
	.st12{fill:#B2E26D;}
	.st13{fill:#754E34;}
	.st14{fill:#FCA265;}
	.st15{fill:#818182;}
	.st16{fill:#F94EED;}
	.st17{fill:#FFC197;}
	.st18{fill:#3CAADC;}
	.st19{fill:#DAE6F1;}
	.st20{fill:#57AF12;}
	.st21{fill:#EF4460;}
	.st22{fill:#FFF0CA;}
	.st23{fill:#F98FA6;}
	.st24{fill:#EDB311;}
	.st25{fill:#FC8C48;}
	.st26{fill:#FCB9CB;}
	.st27{fill:#96BC71;}
	.st28{fill:#78A352;}
	.st29{fill:#B8DD90;}
	.st30{fill:#6FAFEF;}
	.st31{fill:#29589F;}
	.st32{fill:#414344;}
	.st33{fill:#9B6B4B;}
	.st34{fill:#73B1EF;}
</style>
<g id="Layer_1">
</g>
<g id="Layer_2">
</g>
<g id="Layer_3">
</g>
<g id="Layer_4">
</g>
<g id="Layer_5">
</g>
<g id="Layer_6">
</g>
<g id="Layer_7">
</g>
<g id="Layer_8">
</g>
<g id="Layer_9">
</g>
<g id="Layer_10">
</g>
<g id="Layer_11">
</g>
<g id="Layer_12">
</g>
<g id="Layer_13">
</g>
<g id="Layer_14">
</g>
<g id="Layer_15">
</g>
<g id="Layer_16">
</g>
<g id="Layer_17">
</g>
<g id="Layer_18">
</g>
<g id="Layer_19">
</g>
<g id="Layer_20">
</g>
<g id="Layer_21">
</g>
<g id="Layer_22">
</g>
<g id="Layer_23">
</g>
<g id="Layer_24">
</g>
<g id="Layer_25">
</g>
<g id="Layer_26">
</g>
<g id="Layer_27">
</g>
<g id="Layer_28">
</g>
<g id="Layer_29">
</g>
<g id="Layer_30">
</g>
<g id="Layer_31">
</g>
<g id="Layer_32">
</g>
<g id="Layer_33">
</g>
<g id="Layer_34">
</g>
<g id="Layer_35">
</g>
<g id="Layer_36">
</g>
<g id="Layer_37">
</g>
<g id="Layer_38">
</g>
<g id="Layer_39">
</g>
<g id="Layer_40">
</g>
<g id="Layer_41">
</g>
<g id="Layer_42">
</g>
<g id="Layer_43">
</g>
<g id="Layer_44">
</g>
<g id="Layer_45">
</g>
<g id="Layer_46">
</g>
<g id="Layer_47">
</g>
<g id="Layer_48">
</g>
<g id="Layer_49">
</g>
<g id="Layer_50">
</g>
<g id="Layer_51">
</g>
<g id="Layer_52">
</g>
<g id="Layer_53">
</g>
<g id="Layer_54">
</g>
<g id="Layer_55">
</g>
<g id="Layer_56">
</g>
<g id="Layer_57">
</g>
<g id="Layer_58">
</g>
<g id="Layer_59">
</g>
<g id="Layer_60">
</g>
<g id="Layer_61">
</g>
<g id="Layer_62">
</g>
<g id="Layer_63">
</g>
<g id="Layer_64">
</g>
<g id="Layer_65">
</g>
<g id="Layer_66">
</g>
<g id="Layer_67">
</g>
<g id="Layer_68">
</g>
<g id="Layer_69">
</g>
<g id="Layer_70">
</g>
<g id="Layer_71">
	<g>
		<g>
			<g>
				<path class="st6" d="M143.57,247.513V231.28c0-3.399,2.781-6.181,6.181-6.181h0.004v-8.802h-0.004
					c-3.399,0-6.181-2.781-6.181-6.181v-16.233c0-3.399,2.781-6.181,6.181-6.181h0.004v-8.802h-0.004
					c-3.399,0-6.181-2.781-6.181-6.181v-16.233c0-0.091,0.01-0.179,0.014-0.269l-0.957-0.472c-0.022,0.031-0.039,0.064-0.064,0.094
					l-15.054,18.224c-0.879,1.064-2.495,1.108-3.431,0.094l-2.608-2.826c-2.235,2.947-5.751,4.868-9.735,4.868
					s-7.5-1.921-9.735-4.868l-2.608,2.826c-0.936,1.014-2.552,0.97-3.431-0.094L80.905,155.84c-0.025-0.03-0.041-0.063-0.064-0.094
					l-3.638,1.794l-28.902,7.274c-6.233,1.569-10.721,7.008-11.078,13.425l-4.115,70.951c-0.13,2.34,1.732,4.31,4.076,4.31h111.062
					C145.57,252.823,143.57,250.394,143.57,247.513z"/>
			</g>
		</g>
		<g>
			<g>
				<path class="st3" d="M116.766,56.772c-13.593,17.094-33.644,14.681-40.386,13.27c-1.225-0.256-2.401,0.667-2.402,1.919
					c0,0.008,0,0.017,0,0.025v29.936c0,20.468,16.747,37.215,37.215,37.215h0c20.468,0,37.215-16.747,37.215-37.215V68.772
					c0-0.194-0.002-0.388-0.006-0.582c-0.021-1.055-0.866-1.925-1.921-1.956c-15.46-0.453-23.606-6.581-26.736-9.649
					C118.89,55.747,117.511,55.836,116.766,56.772z"/>
			</g>
		</g>
		<g>
			<g>
				<g>
					<path class="st13" d="M71.59,73.561c0.813,0,1.609,0.069,2.388,0.189v-1.763c0-0.008,0-0.017,0-0.025
						c0.001-1.252,1.177-2.175,2.402-1.919c6.742,1.411,26.794,3.823,40.386-13.27c0.745-0.937,2.124-1.025,2.978-0.187
						c3.13,3.068,11.276,9.196,26.736,9.649c1.055,0.031,1.9,0.901,1.921,1.956c0.004,0.194,0.006,0.388,0.006,0.582v4.978
						c0.779-0.121,1.575-0.189,2.388-0.189c4.188,0,7.982,1.665,10.777,4.36V49.973c0-11.692-9.566-21.258-21.258-21.258
						c-3.966,0-7.673,1.121-10.859,3.031c-3.722-6.211-10.502-10.405-18.23-10.405h-10.916c-21.127,0-38.413,17.286-38.413,38.413
						v17.212C64.554,74.84,67.92,73.561,71.59,73.561z"/>
				</g>
			</g>
		</g>
		<g>
			<g>
				<path class="st3" d="M150.796,73.561c-0.813,0-1.609,0.069-2.388,0.189c0,3.96,0,22.286,0,28.173
					c0,0.839-0.038,1.67-0.094,2.496c0.81,0.13,1.635,0.217,2.482,0.217c8.581,0,15.537-6.956,15.537-15.537
					S159.377,73.561,150.796,73.561z"/>
			</g>
		</g>
		<g>
			<g>
				<path class="st3" d="M73.978,101.923c0-3.856,0-20.507,0-28.173c-0.779-0.121-1.575-0.189-2.388-0.189
					c-8.581,0-15.538,6.957-15.538,15.538s6.956,15.537,15.538,15.537c0.847,0,1.672-0.086,2.482-0.217v-0.001
					C74.016,103.593,73.978,102.762,73.978,101.923z"/>
			</g>
		</g>
		<g>
			<g>
				<path class="st11" d="M142.382,153.265l-8.134-7.427c-0.753-0.687-1.917-0.646-2.619,0.092l-15.687,16.491
					c-0.77,0.81-0.78,2.078-0.022,2.899l8.157,8.837c0.936,1.014,2.552,0.97,3.431-0.094l15.054-18.223
					C143.199,155.071,143.119,153.938,142.382,153.265z"/>
			</g>
		</g>
		<g>
			<g>
				<path class="st11" d="M81.086,153.265l8.134-7.427c0.753-0.687,1.917-0.646,2.619,0.092l15.687,16.491
					c0.77,0.81,0.78,2.078,0.022,2.899l-8.157,8.837c-0.936,1.014-2.552,0.97-3.431-0.094L80.905,155.84
					C80.269,155.071,80.349,153.938,81.086,153.265z"/>
			</g>
		</g>
		<g>
			<g>
				<path class="st5" d="M101.999,171.332c2.235,2.947,5.751,4.868,9.735,4.868s7.5-1.921,9.735-4.868l-5.549-6.011
					c-0.468-0.508-0.642-1.186-0.526-1.821h-7.323c0.116,0.635-0.057,1.313-0.526,1.821L101.999,171.332z"/>
			</g>
		</g>
		<g>
			<g>
				<path class="st5" d="M116.943,175.011c-1.58,0.753-3.34,1.189-5.209,1.189s-3.629-0.437-5.209-1.189l-6.671,67.235l11.88,11.195
					l11.88-11.195L116.943,175.011z"/>
			</g>
		</g>
		<g>
			<g>
				<path class="st3" d="M107.526,162.422c0.294,0.31,0.475,0.686,0.547,1.078l0,0h7.323l0,0c0.072-0.393,0.253-0.769,0.547-1.078
					l14.525-15.27c-1.021-1.86-1.589-3.976-1.589-6.18v-6.335c-5.268,2.868-11.296,4.501-17.686,4.501h0
					c-5.959,0-11.597-1.428-16.604-3.945v5.779c0,2.204-0.568,4.32-1.589,6.18L107.526,162.422z"/>
			</g>
		</g>
		<g>
			<g>
				<path class="st0" d="M216.717,225.099h-66.966c-3.399,0-6.181,2.781-6.181,6.181v16.233c0,3.4,2.781,6.181,6.181,6.181h66.966
					c3.399,0,6.181-2.781,6.181-6.181V231.28C222.898,227.88,220.116,225.099,216.717,225.099z"/>
			</g>
		</g>
		<g>
			<g>
				<path class="st0" d="M216.717,187.703h-66.966c-3.399,0-6.181,2.781-6.181,6.181v16.233c0,3.4,2.781,6.181,6.181,6.181h66.966
					c3.399,0,6.181-2.781,6.181-6.181v-16.233C222.898,190.484,220.116,187.703,216.717,187.703z"/>
			</g>
		</g>
		<g>
			<g>
				<path class="st0" d="M216.717,150.306h-66.966c-3.399,0-6.181,2.781-6.181,6.181v16.233c0,3.4,2.781,6.181,6.181,6.181h66.966
					c3.399,0,6.181-2.781,6.181-6.181v-16.233C222.898,153.087,220.116,150.306,216.717,150.306z"/>
			</g>
		</g>
		<g>
			<g>
				<g>
					<path class="st5" d="M213.898,231.6H152.57c-1.381,0-2.5,1.119-2.5,2.5v10.595c0,1.381,1.119,2.5,2.5,2.5h61.327
						c1.381,0,2.5-1.119,2.5-2.5V234.1C216.398,232.719,215.278,231.6,213.898,231.6z"/>
				</g>
			</g>
			<g>
				<g>
					<path class="st5" d="M213.898,194.202H152.57c-1.381,0-2.5,1.119-2.5,2.5v10.596c0,1.381,1.119,2.5,2.5,2.5h61.327
						c1.381,0,2.5-1.119,2.5-2.5v-10.596C216.398,195.321,215.278,194.202,213.898,194.202z"/>
				</g>
			</g>
			<g>
				<g>
					<path class="st5" d="M213.898,156.806H152.57c-1.381,0-2.5,1.119-2.5,2.5V169.9c0,1.381,1.119,2.5,2.5,2.5h61.327
						c1.381,0,2.5-1.119,2.5-2.5v-10.595C216.398,157.925,215.278,156.806,213.898,156.806z"/>
				</g>
			</g>
		</g>
		<g>
			<g>
				<rect x="149.754" y="216.297" class="st19" width="66.959" height="8.802"/>
			</g>
		</g>
		<g>
			<g>
				<rect x="149.754" y="178.901" class="st19" width="66.959" height="8.802"/>
			</g>
		</g>
		<g>
			<g>
				<path d="M111.193,141.638c-21.899,0-39.715-17.816-39.715-39.715V71.987c0.001-1.371,0.603-2.629,1.65-3.479
					c1.059-0.858,2.433-1.188,3.764-0.912c7.236,1.518,25.417,3.34,37.917-12.379c0.795-1.001,1.981-1.62,3.253-1.699
					c1.27-0.087,2.521,0.389,3.432,1.282c2.592,2.541,10.224,8.5,25.059,8.936c2.39,0.068,4.3,2.004,4.348,4.405
					c0.004,0.209,0.006,0.421,0.006,0.632v33.15C150.908,123.821,133.092,141.638,111.193,141.638z M76.478,72.613v29.31
					c0,19.142,15.573,34.715,34.715,34.715s34.715-15.573,34.715-34.715v-33.15c0-0.019,0-0.037,0-0.056
					c-15.155-0.564-23.626-6.309-27.521-9.971C104.198,76.146,83.468,73.962,76.478,72.613z M118.723,58.328 M116.766,56.772h0.01
					H116.766z"/>
			</g>
		</g>
		<g>
			<g>
				<g>
					<path d="M161.573,79.542c-1.381,0-2.5-1.119-2.5-2.5V49.974c0-10.343-8.415-18.758-18.758-18.758
						c-3.345,0-6.655,0.925-9.574,2.675c-0.569,0.341-1.25,0.444-1.893,0.28c-0.644-0.161-1.196-0.571-1.537-1.14
						c-3.396-5.668-9.56-9.189-16.085-9.189h-10.916c-19.803,0-35.914,16.11-35.914,35.913v16.537c0,1.381-1.119,2.5-2.5,2.5
						s-2.5-1.119-2.5-2.5V59.755c0-22.56,18.354-40.913,40.914-40.913h10.916c7.481,0,14.581,3.641,19.047,9.638
						c3.15-1.486,6.58-2.264,10.042-2.264c13.101,0,23.758,10.657,23.758,23.758v27.068
						C164.073,78.423,162.954,79.542,161.573,79.542z"/>
				</g>
			</g>
		</g>
		<g>
			<g>
				<path d="M60.189,255.04c-1.381,0-2.5-1.119-2.5-2.5v-56.645c0-1.381,1.119-2.5,2.5-2.5s2.5,1.119,2.5,2.5v56.645
					C62.689,253.921,61.57,255.04,60.189,255.04z"/>
			</g>
		</g>
		<g>
			<g>
				<path d="M150.796,107.136c-0.504,0-1.008-0.024-1.543-0.076c-1.375-0.131-2.382-1.352-2.251-2.726
					c0.131-1.375,1.356-2.377,2.726-2.251c0.352,0.033,0.708,0.053,1.068,0.053c7.189,0,13.038-5.849,13.038-13.037
					c0-7.189-5.849-13.038-13.038-13.038c-0.338,0-0.673,0.015-1.005,0.042c-1.365,0.093-2.582-0.913-2.693-2.29
					s0.914-2.583,2.29-2.694c0.464-0.037,0.934-0.058,1.408-0.058c9.946,0,18.038,8.092,18.038,18.038
					C168.833,99.044,160.742,107.136,150.796,107.136z"/>
			</g>
		</g>
		<g>
			<g>
				<path d="M71.59,107.136c-9.946,0-18.038-8.092-18.038-18.037c0-9.946,8.092-18.038,18.038-18.038
					c0.746,0,1.513,0.051,2.28,0.149c1.37,0.177,2.336,1.431,2.159,2.8c-0.177,1.369-1.428,2.328-2.8,2.159
					c-0.556-0.072-1.107-0.108-1.64-0.108c-7.189,0-13.038,5.849-13.038,13.038c0,7.188,5.849,13.037,13.038,13.037
					c0.434,0,0.877-0.027,1.356-0.084c1.378-0.148,2.614,0.821,2.774,2.192c0.161,1.371-0.82,2.613-2.191,2.774
					C72.854,107.098,72.22,107.136,71.59,107.136z"/>
			</g>
		</g>
		<g>
			<g>
				<path d="M111.734,118.573c-4.776,0-9.262-1.949-11.999-5.216c-0.887-1.058-0.748-2.635,0.31-3.521
					c1.059-0.887,2.635-0.748,3.522,0.31c1.799,2.146,4.852,3.428,8.167,3.428c3.315,0,6.369-1.281,8.167-3.427
					c0.887-1.058,2.464-1.197,3.522-0.311s1.197,2.464,0.31,3.521C120.996,116.623,116.511,118.573,111.734,118.573z"/>
			</g>
		</g>
		<g>
			<g>
				<circle cx="128.523" cy="90.816" r="5"/>
			</g>
		</g>
		<g>
			<g>
				<circle cx="94.945" cy="90.816" r="5"/>
			</g>
		</g>
		<g>
			<g>
				<path d="M125.752,177.391c-1.332,0-2.604-0.555-3.511-1.536l-8.157-8.838c-1.646-1.784-1.626-4.559,0.047-6.317l15.687-16.491
					c1.629-1.712,4.373-1.809,6.116-0.215l8.134,7.425l0,0.001c1.722,1.572,1.908,4.214,0.423,6.013l-15.055,18.224
					c-0.878,1.063-2.173,1.695-3.552,1.734C125.84,177.391,125.796,177.391,125.752,177.391z M117.999,163.887l7.744,8.39
					l14.513-17.568l-7.239-6.608L117.999,163.887z M140.694,155.109c0.001,0,0.001,0.001,0.001,0.001L140.694,155.109z"/>
			</g>
		</g>
		<g>
			<g>
				<path d="M97.716,177.391c-0.044,0-0.088,0-0.132-0.002c-1.379-0.038-2.674-0.67-3.552-1.733l-15.054-18.224
					c-1.486-1.799-1.301-4.44,0.423-6.014l8.134-7.426c1.744-1.593,4.488-1.496,6.116,0.216l15.687,16.491
					c1.673,1.759,1.694,4.533,0.048,6.317l-8.158,8.837C100.321,176.835,99.048,177.391,97.716,177.391z M83.213,154.708
					l14.512,17.568l7.744-8.39L90.451,148.1L83.213,154.708z M82.774,155.109l-0.002,0.002
					C82.771,155.111,82.771,155.109,82.774,155.109z M81.086,153.265h0.01H81.086z"/>
			</g>
		</g>
		<g>
			<g>
				<path d="M111.734,178.7c-4.309,0-8.394-1.898-11.207-5.209c-0.894-1.053-0.766-2.631,0.287-3.524
					c1.052-0.893,2.629-0.766,3.524,0.286c1.861,2.191,4.557,3.447,7.396,3.447s5.536-1.256,7.396-3.447
					c0.895-1.051,2.472-1.179,3.524-0.286c1.052,0.894,1.181,2.472,0.287,3.524C120.128,176.802,116.043,178.7,111.734,178.7z"/>
			</g>
		</g>
		<g>
			<g>
				<path d="M111.734,255.94c-0.617,0-1.233-0.227-1.714-0.681l-11.88-11.195c-0.564-0.531-0.85-1.295-0.773-2.066l6.6-66.517
					c0.136-1.373,1.363-2.389,2.735-2.24c1.374,0.136,2.377,1.36,2.241,2.734l-6.478,65.293l9.271,8.736l9.271-8.736l-6.482-65.335
					c-0.136-1.374,0.867-2.599,2.241-2.734c1.383-0.138,2.599,0.866,2.735,2.24l6.604,66.559c0.077,0.771-0.209,1.535-0.773,2.066
					l-11.88,11.195C112.967,255.714,112.351,255.94,111.734,255.94z"/>
			</g>
		</g>
		<g>
			<g>
				<path d="M130.264,149.263c-0.914,0-1.793-0.503-2.233-1.374c-1.08-2.138-1.651-4.529-1.651-6.916V135.5
					c0-1.381,1.119-2.5,2.5-2.5s2.5,1.119,2.5,2.5v5.473c0,1.607,0.385,3.219,1.114,4.662c0.623,1.231,0.128,2.735-1.104,3.358
					C131.028,149.176,130.643,149.263,130.264,149.263z"/>
			</g>
		</g>
		<g>
			<g>
				<path d="M114.922,166h-6.157c-1.381,0-2.5-1.119-2.5-2.5s1.119-2.5,2.5-2.5h6.157c1.381,0,2.5,1.119,2.5,2.5
					S116.303,166,114.922,166z"/>
			</g>
		</g>
		<g>
			<g>
				<path d="M93.345,148.975c-0.359,0-0.724-0.078-1.07-0.242c-1.248-0.592-1.779-2.083-1.187-3.331
					c0.664-1.398,1.001-2.889,1.001-4.429v-4.909c0-1.381,1.119-2.5,2.5-2.5s2.5,1.119,2.5,2.5v4.909
					c0,2.287-0.499,4.498-1.483,6.573C95.178,148.446,94.281,148.975,93.345,148.975z"/>
			</g>
		</g>
		<g>
			<g>
				<path d="M148.247,256H37.185c-1.801,0-3.544-0.75-4.782-2.059s-1.891-3.091-1.791-4.89l4.115-70.957
					c0.42-7.546,5.63-13.859,12.964-15.705l28.644-7.21l2.627-1.295c1.236-0.614,2.737-0.102,3.348,1.137
					c0.61,1.239,0.101,2.737-1.138,3.348l-2.865,1.412c-0.158,0.078-0.324,0.139-0.495,0.183l-28.901,7.275
					c-5.2,1.309-8.895,5.785-9.193,11.139l-4.115,70.957c-0.024,0.434,0.129,0.851,0.431,1.17c0.302,0.319,0.71,0.495,1.15,0.495
					h111.062c1.381,0,2.5,1.119,2.5,2.5S149.628,256,148.247,256z"/>
			</g>
		</g>
		<g>
			<g>
				<path d="M216.717,256.194h-66.966c-4.787,0-8.681-3.895-8.681-8.682V231.28c0-4.786,3.894-8.681,8.681-8.681h66.966
					c4.787,0,8.681,3.895,8.681,8.681v16.232C225.398,252.3,221.504,256.194,216.717,256.194z M149.751,227.6
					c-2.029,0-3.681,1.651-3.681,3.681v16.232c0,2.03,1.651,3.682,3.681,3.682h66.966c2.029,0,3.681-1.651,3.681-3.682V231.28
					c0-2.029-1.651-3.681-3.681-3.681H149.751z"/>
			</g>
		</g>
		<g>
			<g>
				<path d="M216.717,218.798h-66.966c-4.787,0-8.681-3.895-8.681-8.682v-16.232c0-4.787,3.894-8.682,8.681-8.682h66.966
					c4.787,0,8.681,3.895,8.681,8.682v16.232C225.398,214.903,221.504,218.798,216.717,218.798z M149.751,190.202
					c-2.029,0-3.681,1.651-3.681,3.682v16.232c0,2.03,1.651,3.682,3.681,3.682h66.966c2.029,0,3.681-1.651,3.681-3.682v-16.232
					c0-2.03-1.651-3.682-3.681-3.682H149.751z"/>
			</g>
		</g>
		<g>
			<g>
				<path d="M216.717,181.4h-66.966c-4.787,0-8.681-3.895-8.681-8.681v-16.232c0-4.787,3.894-8.682,8.681-8.682h66.966
					c4.787,0,8.681,3.895,8.681,8.682v16.232C225.398,177.506,221.504,181.4,216.717,181.4z M149.751,152.806
					c-2.029,0-3.681,1.651-3.681,3.682v16.232c0,2.029,1.651,3.681,3.681,3.681h66.966c2.029,0,3.681-1.651,3.681-3.681v-16.232
					c0-2.03-1.651-3.682-3.681-3.682H149.751z"/>
			</g>
		</g>
		<g>
			<g>
				<path d="M216.713,226.792c-1.381,0-2.5-1.119-2.5-2.5v-7.375c0-1.381,1.119-2.5,2.5-2.5s2.5,1.119,2.5,2.5v7.375
					C219.213,225.673,218.094,226.792,216.713,226.792z"/>
			</g>
		</g>
		<g>
			<g>
				<path d="M149.754,227.146c-1.381,0-2.5-1.119-2.5-2.5v-7.739c0-1.381,1.119-2.5,2.5-2.5s2.5,1.119,2.5,2.5v7.739
					C152.254,226.026,151.135,227.146,149.754,227.146z"/>
			</g>
		</g>
		<g>
			<g>
				<path d="M216.713,189.563c-1.381,0-2.5-1.119-2.5-2.5v-7.657c0-1.381,1.119-2.5,2.5-2.5s2.5,1.119,2.5,2.5v7.657
					C219.213,188.443,218.094,189.563,216.713,189.563z"/>
			</g>
		</g>
		<g>
			<g>
				<path d="M149.754,189.333c-1.381,0-2.5-1.119-2.5-2.5v-7.166c0-1.381,1.119-2.5,2.5-2.5s2.5,1.119,2.5,2.5v7.166
					C152.254,188.214,151.135,189.333,149.754,189.333z"/>
			</g>
		</g>
		<g>
			<g>
				<path d="M159.6,167h-3.846c-1.381,0-2.5-1.119-2.5-2.5s1.119-2.5,2.5-2.5h3.846c1.381,0,2.5,1.119,2.5,2.5S160.98,167,159.6,167
					z"/>
			</g>
		</g>
		<g>
			<g>
				<path d="M172.715,167h-3.846c-1.381,0-2.5-1.119-2.5-2.5s1.119-2.5,2.5-2.5h3.846c1.381,0,2.5,1.119,2.5,2.5
					S174.096,167,172.715,167z"/>
			</g>
		</g>
		<g>
			<g>
				<path d="M210.496,167h-27.751c-1.381,0-2.5-1.119-2.5-2.5s1.119-2.5,2.5-2.5h27.751c1.381,0,2.5,1.119,2.5,2.5
					S211.877,167,210.496,167z"/>
			</g>
		</g>
		<g>
			<g>
				<path d="M159.6,205h-3.846c-1.381,0-2.5-1.119-2.5-2.5s1.119-2.5,2.5-2.5h3.846c1.381,0,2.5,1.119,2.5,2.5S160.98,205,159.6,205
					z"/>
			</g>
		</g>
		<g>
			<g>
				<path d="M172.715,205h-3.846c-1.381,0-2.5-1.119-2.5-2.5s1.119-2.5,2.5-2.5h3.846c1.381,0,2.5,1.119,2.5,2.5
					S174.096,205,172.715,205z"/>
			</g>
		</g>
		<g>
			<g>
				<path d="M210.496,205h-27.751c-1.381,0-2.5-1.119-2.5-2.5s1.119-2.5,2.5-2.5h27.751c1.381,0,2.5,1.119,2.5,2.5
					S211.877,205,210.496,205z"/>
			</g>
		</g>
		<g>
			<g>
				<path d="M159.6,242h-3.846c-1.381,0-2.5-1.119-2.5-2.5s1.119-2.5,2.5-2.5h3.846c1.381,0,2.5,1.119,2.5,2.5S160.98,242,159.6,242
					z"/>
			</g>
		</g>
		<g>
			<g>
				<path d="M172.715,242h-3.846c-1.381,0-2.5-1.119-2.5-2.5s1.119-2.5,2.5-2.5h3.846c1.381,0,2.5,1.119,2.5,2.5
					S174.096,242,172.715,242z"/>
			</g>
		</g>
		<g>
			<g>
				<path d="M210.496,242h-27.751c-1.381,0-2.5-1.119-2.5-2.5s1.119-2.5,2.5-2.5h27.751c1.381,0,2.5,1.119,2.5,2.5
					S211.877,242,210.496,242z"/>
			</g>
		</g>
		<g>
			<g>
				<path d="M196.984,133.75c-1.381,0-2.5-1.119-2.5-2.5V113.5c0-1.381,1.119-2.5,2.5-2.5s2.5,1.119,2.5,2.5v17.75
					C199.484,132.631,198.365,133.75,196.984,133.75z"/>
			</g>
		</g>
		<g>
			<g>
				<path d="M196.984,144c-1.381,0-2.5-1.119-2.5-2.5v-1.083c0-1.381,1.119-2.5,2.5-2.5s2.5,1.119,2.5,2.5v1.083
					C199.484,142.881,198.365,144,196.984,144z"/>
			</g>
		</g>
		<g>
			<g>
				<path d="M196.984,115c-4.411,0-8-3.589-8-8s3.589-8,8-8s8,3.589,8,8S201.395,115,196.984,115z M196.984,104
					c-1.654,0-3,1.346-3,3s1.346,3,3,3s3-1.346,3-3S198.638,104,196.984,104z"/>
			</g>
		</g>
		<g>
			<g>
				<path d="M217.484,133.75c-1.381,0-2.5-1.119-2.5-2.5v-7.75c0-1.381,1.119-2.5,2.5-2.5s2.5,1.119,2.5,2.5v7.75
					C219.984,132.631,218.865,133.75,217.484,133.75z"/>
			</g>
		</g>
		<g>
			<g>
				<path d="M217.484,144c-1.381,0-2.5-1.119-2.5-2.5v-1.083c0-1.381,1.119-2.5,2.5-2.5s2.5,1.119,2.5,2.5v1.083
					C219.984,142.881,218.865,144,217.484,144z"/>
			</g>
		</g>
		<g>
			<g>
				<path d="M155.984,133.75c-1.381,0-2.5-1.119-2.5-2.5v-7.75c0-1.381,1.119-2.5,2.5-2.5s2.5,1.119,2.5,2.5v7.75
					C158.484,132.631,157.365,133.75,155.984,133.75z"/>
			</g>
		</g>
		<g>
			<g>
				<path d="M155.984,144c-1.381,0-2.5-1.119-2.5-2.5v-1.083c0-1.381,1.119-2.5,2.5-2.5s2.5,1.119,2.5,2.5v1.083
					C158.484,142.881,157.365,144,155.984,144z"/>
			</g>
		</g>
		<g>
			<g>
				<path d="M176.484,133.75c-1.381,0-2.5-1.119-2.5-2.5V113.5c0-1.381,1.119-2.5,2.5-2.5s2.5,1.119,2.5,2.5v17.75
					C178.984,132.631,177.865,133.75,176.484,133.75z"/>
			</g>
		</g>
		<g>
			<g>
				<path d="M176.484,144c-1.381,0-2.5-1.119-2.5-2.5v-1.083c0-1.381,1.119-2.5,2.5-2.5s2.5,1.119,2.5,2.5v1.083
					C178.984,142.881,177.865,144,176.484,144z"/>
			</g>
		</g>
		<g>
			<g>
				<path d="M176.484,115c-4.411,0-8-3.589-8-8s3.589-8,8-8s8,3.589,8,8S180.895,115,176.484,115z M176.484,104
					c-1.654,0-3,1.346-3,3s1.346,3,3,3s3-1.346,3-3S178.138,104,176.484,104z"/>
			</g>
		</g>
		<g>
			<g>
				<path class="st7" d="M190.556,28.33c-4.498-0.838-8.043-4.31-8.898-8.716c-0.043-0.221-0.352-0.221-0.395,0
					c-0.855,4.406-4.4,7.879-8.898,8.716c-0.226,0.042-0.226,0.345,0,0.387c4.498,0.838,8.043,4.31,8.898,8.717
					c0.043,0.221,0.352,0.221,0.395,0c0.855-4.406,4.4-7.879,8.898-8.717C190.781,28.675,190.781,28.373,190.556,28.33z"/>
			</g>
		</g>
		<g>
			<g>
				<path class="st9" d="M187.249,79.101c-2.862-0.533-5.118-2.743-5.663-5.547c-0.027-0.141-0.224-0.141-0.251,0
					c-0.544,2.804-2.8,5.014-5.663,5.547c-0.144,0.027-0.144,0.219,0,0.246c2.862,0.533,5.118,2.743,5.663,5.547
					c0.027,0.141,0.224,0.141,0.251,0c0.544-2.804,2.8-5.014,5.663-5.547C187.393,79.32,187.393,79.128,187.249,79.101z"/>
			</g>
		</g>
		<g>
			<g>
				<path class="st6" d="M44.98,120.75h2.33v-2.33c0-1.744,1.413-3.157,3.157-3.157c1.744,0,3.157,1.413,3.157,3.157v2.33h2.329
					c1.744,0,3.157,1.413,3.157,3.157s-1.413,3.157-3.157,3.157h-2.329v2.33c0,1.744-1.413,3.157-3.157,3.157
					c-1.744,0-3.157-1.413-3.157-3.157v-2.33h-2.33c-1.744,0-3.157-1.413-3.157-3.157S43.236,120.75,44.98,120.75z"/>
			</g>
		</g>
		<g>
			<g>
				<circle class="st7" cx="35.489" cy="152.825" r="3.377"/>
			</g>
		</g>
		<g>
			<g>
				<circle class="st8" cx="168.489" cy="3.377" r="3.377"/>
			</g>
		</g>
	</g>
</g>
<g id="Layer_72">
</g>
<g id="Layer_73">
</g>
<g id="Layer_74">
</g>
<g id="Layer_75">
</g>
<g id="Layer_76">
</g>
<g id="Layer_77">
</g>
<g id="Layer_78">
</g>
<g id="Layer_79">
</g>
<g id="Layer_80">
</g>
</svg>
