<?xml version="1.0" encoding="utf-8"?>
<!-- Generator: Adobe Illustrator 24.0.0, SVG Export Plug-In . SVG Version: 6.00 Build 0)  -->
<svg version="1.1" xmlns="http://www.w3.org/2000/svg" xmlns:xlink="http://www.w3.org/1999/xlink" x="0px" y="0px"
	 viewBox="0 0 256 256" style="enable-background:new 0 0 256 256;" xml:space="preserve">
<style type="text/css">
	.st0{fill:#3A70BF;}
	.st1{fill:#EDF4FC;}
	.st2{fill:#C7D7E5;}
	.st3{fill:#F9D0B4;}
	.st4{fill:#5B5D60;}
	.st5{fill:#5290DB;}
	.st6{fill:#70D6F9;}
	.st7{fill:#F5C84C;}
	.st8{fill:#FC657E;}
	.st9{fill:#87D147;}
	.st10{fill:#FCDD86;}
	.st11{fill:#9BE5F9;}
	.st12{fill:#B2E26D;}
	.st13{fill:#754E34;}
	.st14{fill:#FCA265;}
	.st15{fill:#818182;}
	.st16{fill:#F94EED;}
	.st17{fill:#FFC197;}
	.st18{fill:#3CAADC;}
	.st19{fill:#DAE6F1;}
	.st20{fill:#57AF12;}
	.st21{fill:#EF4460;}
	.st22{fill:#FFF0CA;}
	.st23{fill:#F98FA6;}
	.st24{fill:#EDB311;}
	.st25{fill:#FC8C48;}
	.st26{fill:#FCB9CB;}
	.st27{fill:#96BC71;}
	.st28{fill:#78A352;}
	.st29{fill:#B8DD90;}
	.st30{fill:#6FAFEF;}
	.st31{fill:#29589F;}
	.st32{fill:#414344;}
	.st33{fill:#9B6B4B;}
	.st34{fill:#73B1EF;}
</style>
<g id="Layer_1">
</g>
<g id="Layer_2">
</g>
<g id="Layer_3">
</g>
<g id="Layer_4">
</g>
<g id="Layer_5">
</g>
<g id="Layer_6">
</g>
<g id="Layer_7">
</g>
<g id="Layer_8">
</g>
<g id="Layer_9">
</g>
<g id="Layer_10">
</g>
<g id="Layer_11">
	<g>
		<g>
			<g>
				<path class="st3" d="M133.032,56.772c-13.593,17.094-33.644,14.681-40.386,13.27c-1.225-0.256-2.401,0.667-2.402,1.919
					c0,0.008,0,0.017,0,0.025v29.936c0,20.468,16.747,37.215,37.215,37.215h0c20.468,0,37.215-16.747,37.215-37.215V68.772
					c0-0.194-0.002-0.388-0.006-0.582c-0.021-1.055-0.866-1.925-1.921-1.956c-15.46-0.453-23.606-6.581-26.736-9.649
					C135.156,55.747,133.777,55.836,133.032,56.772z"/>
			</g>
		</g>
		<g>
			<g>
				<g>
					<path class="st13" d="M87.856,73.561c0.813,0,1.609,0.069,2.388,0.189v-1.763c0-0.008,0-0.017,0-0.025
						c0.001-1.252,1.177-2.175,2.402-1.919c6.742,1.411,26.794,3.823,40.386-13.27c0.745-0.937,2.124-1.025,2.978-0.187
						c3.13,3.068,11.276,9.196,26.736,9.649c1.055,0.031,1.9,0.901,1.921,1.956c0.004,0.194,0.006,0.388,0.006,0.582v4.978
						c0.779-0.121,1.575-0.189,2.388-0.189c4.188,0,7.982,1.665,10.777,4.36V49.973c0-11.692-9.566-21.258-21.258-21.258
						c-3.966,0-7.673,1.121-10.859,3.031c-3.722-6.211-10.502-10.405-18.23-10.405h-10.916c-21.127,0-38.413,17.286-38.413,38.413
						v17.212C80.82,74.84,84.186,73.561,87.856,73.561z"/>
				</g>
			</g>
		</g>
		<g>
			<g>
				<path class="st3" d="M167.062,73.561c-0.813,0-1.609,0.069-2.388,0.189c0,3.96,0,22.286,0,28.173
					c0,0.839-0.038,1.67-0.094,2.496c0.81,0.13,1.635,0.217,2.482,0.217c8.581,0,15.537-6.956,15.537-15.537
					S175.643,73.561,167.062,73.561z"/>
			</g>
		</g>
		<g>
			<g>
				<path class="st3" d="M90.244,101.923c0-3.856,0-20.507,0-28.173c-0.779-0.121-1.575-0.189-2.388-0.189
					c-8.581,0-15.538,6.957-15.538,15.538s6.956,15.537,15.538,15.537c0.847,0,1.672-0.086,2.482-0.217v-0.001
					C90.282,103.593,90.244,102.762,90.244,101.923z"/>
			</g>
		</g>
		<g>
			<g>
				<path class="st3" d="M145.145,140.972v-6.335c-5.268,2.868-11.296,4.501-17.686,4.501h0c-5.959,0-11.597-1.427-16.604-3.945
					v5.778c0,4.407-2.258,8.463-5.91,10.81L128,191.5l23.055-39.719C147.403,149.435,145.145,145.379,145.145,140.972z"/>
			</g>
		</g>
		<g>
			<g>
				<path class="st9" d="M202.511,178.239c-0.357-6.417-4.846-11.856-11.078-13.425l-28.687-7.22L143.17,191.5H128h-15.17
					l-19.576-33.906l-28.687,7.22c-6.233,1.569-10.721,7.008-11.078,13.425l-4.115,70.951c-0.13,2.34,1.732,4.31,4.076,4.31h149.098
					c2.344,0,4.207-1.969,4.076-4.31L202.511,178.239z"/>
			</g>
		</g>
		<g>
			<g>
				<path class="st12" d="M162.746,157.594l-0.215-0.054l-10.215-5.037c-0.438-0.216-0.856-0.461-1.261-0.721L128,191.5h15.17
					L162.746,157.594z"/>
			</g>
		</g>
		<g>
			<g>
				<path class="st12" d="M93.254,157.594L112.83,191.5H128l-23.055-39.719c-0.405,0.26-0.822,0.505-1.261,0.721l-10.215,5.037
					L93.254,157.594z"/>
			</g>
		</g>
		<g>
			<g>
				<path class="st3" d="M76.455,224.5H50.806l-1.432,24.69c-0.13,2.34,1.732,4.31,4.076,4.31h23.004V224.5z"/>
			</g>
		</g>
		<g>
			<g>
				<path class="st3" d="M205.194,224.5h-25.649v29h23.004c2.344,0,4.207-1.969,4.076-4.31L205.194,224.5z"/>
			</g>
		</g>
		<g>
			<g>
				<circle class="st8" cx="157.833" cy="209.5" r="13"/>
			</g>
		</g>
		<g>
			<g>
				<path d="M127.459,141.638c-21.899,0-39.715-17.816-39.715-39.715V71.987c0.001-1.371,0.603-2.628,1.65-3.479
					c1.059-0.859,2.431-1.193,3.764-0.912c7.238,1.514,25.418,3.339,37.917-12.38v0c0.796-1,1.982-1.619,3.253-1.698
					c1.272-0.078,2.521,0.389,3.432,1.281c2.593,2.542,10.226,8.501,25.06,8.936c2.391,0.071,4.3,2.006,4.348,4.406
					c0.004,0.209,0.006,0.42,0.006,0.632v33.151C167.174,123.822,149.358,141.638,127.459,141.638z M92.744,72.613v29.311
					c0,19.142,15.573,34.715,34.715,34.715c19.142,0,34.715-15.573,34.715-34.715V68.772c0-0.019,0-0.038,0-0.056
					c-15.154-0.563-23.626-6.308-27.522-9.97C120.464,76.144,99.731,73.963,92.744,72.613z M134.988,58.329
					c0,0.001,0,0.001-0.001,0.002C134.987,58.33,134.988,58.33,134.988,58.329L134.988,58.329z"/>
			</g>
		</g>
		<g>
			<g>
				<g>
					<path d="M177.838,79.438c-1.381,0-2.5-1.119-2.5-2.5V49.973c0-10.343-8.415-18.758-18.758-18.758
						c-3.344,0-6.655,0.925-9.574,2.675c-0.569,0.341-1.251,0.44-1.893,0.281c-0.644-0.161-1.196-0.571-1.537-1.14
						c-3.396-5.668-9.56-9.19-16.086-9.19h-10.916c-19.803,0-35.913,16.111-35.913,35.914v16.65c0,1.381-1.119,2.5-2.5,2.5
						s-2.5-1.119-2.5-2.5v-16.65c0-22.56,18.354-40.914,40.913-40.914h10.916c7.481,0,14.582,3.641,19.048,9.638
						c3.15-1.487,6.58-2.264,10.042-2.264c13.1,0,23.758,10.658,23.758,23.758v26.965C180.338,78.319,179.219,79.438,177.838,79.438
						z"/>
				</g>
			</g>
		</g>
		<g>
			<g>
				<path d="M179.545,255.04c-1.381,0-2.5-1.119-2.5-2.5v-56.644c0-1.381,1.119-2.5,2.5-2.5s2.5,1.119,2.5,2.5v56.644
					C182.045,253.92,180.926,255.04,179.545,255.04z"/>
			</g>
		</g>
		<g>
			<g>
				<path d="M76.455,255.04c-1.381,0-2.5-1.119-2.5-2.5v-56.644c0-1.381,1.119-2.5,2.5-2.5s2.5,1.119,2.5,2.5v56.644
					C78.955,253.92,77.836,255.04,76.455,255.04z"/>
			</g>
		</g>
		<g>
			<g>
				<path d="M167.062,107.136c-0.602,0-1.209-0.035-1.856-0.108c-1.372-0.154-2.36-1.391-2.206-2.763
					c0.154-1.372,1.391-2.363,2.763-2.206c0.461,0.052,0.886,0.077,1.3,0.077c7.189,0,13.038-5.849,13.038-13.038
					s-5.849-13.038-13.038-13.038c-0.409,0-0.829,0.021-1.249,0.063c-1.379,0.134-2.599-0.866-2.737-2.239
					c-0.137-1.374,0.865-2.599,2.239-2.737c0.584-0.058,1.172-0.088,1.747-0.088c9.946,0,18.038,8.092,18.038,18.038
					S177.008,107.136,167.062,107.136z"/>
			</g>
		</g>
		<g>
			<g>
				<path d="M87.856,107.136c-9.946,0-18.038-8.092-18.038-18.038s8.092-18.038,18.038-18.038c0.637,0,1.29,0.037,1.94,0.108
					c1.372,0.152,2.362,1.387,2.21,2.76c-0.152,1.372-1.391,2.363-2.76,2.21c-0.468-0.052-0.937-0.078-1.391-0.078
					c-7.189,0-13.038,5.849-13.038,13.038s5.849,13.038,13.038,13.038c0.346,0,0.688-0.018,1.025-0.049
					c1.379-0.133,2.593,0.885,2.719,2.26c0.127,1.375-0.885,2.592-2.26,2.719C88.835,107.112,88.336,107.136,87.856,107.136z"/>
			</g>
		</g>
		<g>
			<g>
				<path d="M104.947,154.282c-0.823,0-1.628-0.406-2.106-1.149c-0.746-1.162-0.409-2.708,0.752-3.455
					c2.981-1.915,4.761-5.169,4.761-8.706v-4.909c0-1.381,1.119-2.5,2.5-2.5s2.5,1.119,2.5,2.5v4.909
					c0,5.247-2.639,10.074-7.059,12.913C105.878,154.153,105.41,154.282,104.947,154.282z"/>
			</g>
		</g>
		<g>
			<g>
				<path d="M151.053,154.282c-0.462,0-0.931-0.128-1.349-0.397c-4.42-2.839-7.059-7.667-7.059-12.913v-5.43
					c0-1.381,1.119-2.5,2.5-2.5s2.5,1.119,2.5,2.5v5.43c0,3.536,1.78,6.791,4.761,8.706c1.162,0.747,1.499,2.293,0.752,3.455
					C152.681,153.876,151.875,154.282,151.053,154.282z"/>
			</g>
		</g>
		<g>
			<g>
				<path d="M202.549,256H53.451c-1.802,0-3.545-0.75-4.783-2.06c-1.238-1.309-1.89-3.09-1.79-4.889l4.115-70.957
					c0.42-7.545,5.63-13.859,12.964-15.705l28.687-7.22c1.341-0.34,2.698,0.475,3.035,1.814s-0.475,2.698-1.814,3.035l-28.687,7.22
					c-5.2,1.309-8.895,5.786-9.193,11.14l-4.115,70.957c-0.024,0.433,0.129,0.851,0.431,1.17c0.302,0.319,0.711,0.495,1.15,0.495
					h149.098c0.439,0,0.848-0.176,1.15-0.495c0.302-0.319,0.455-0.737,0.43-1.175l-4.114-70.946
					c-0.299-5.359-3.993-9.836-9.193-11.145l-28.687-7.22c-1.339-0.337-2.151-1.696-1.814-3.035
					c0.337-1.338,1.697-2.151,3.035-1.814l28.687,7.22c7.333,1.846,12.543,8.159,12.964,15.71l4.114,70.946
					c0.101,1.804-0.552,3.586-1.79,4.895C206.094,255.25,204.351,256,202.549,256z"/>
			</g>
		</g>
		<g>
			<g>
				<path d="M128,118.573c-4.776,0-9.262-1.95-11.999-5.215c-0.887-1.058-0.748-2.635,0.31-3.522c1.06-0.887,2.636-0.747,3.522,0.31
					c1.798,2.146,4.852,3.427,8.167,3.427s6.369-1.281,8.167-3.426c0.887-1.058,2.464-1.198,3.522-0.31
					c1.058,0.887,1.197,2.464,0.31,3.522C137.262,116.624,132.776,118.573,128,118.573z"/>
			</g>
		</g>
		<g>
			<g>
				<circle cx="144.789" cy="90.816" r="5"/>
			</g>
		</g>
		<g>
			<g>
				<circle cx="111.211" cy="90.816" r="5"/>
			</g>
		</g>
		<g>
			<g>
				<path d="M157.833,216.469c-1.381,0-2.5-1.119-2.5-2.5v-8.938c0-1.381,1.119-2.5,2.5-2.5s2.5,1.119,2.5,2.5v8.938
					C160.333,215.35,159.214,216.469,157.833,216.469z"/>
			</g>
		</g>
		<g>
			<g>
				<path d="M162.302,212h-8.938c-1.381,0-2.5-1.119-2.5-2.5s1.119-2.5,2.5-2.5h8.938c1.381,0,2.5,1.119,2.5,2.5
					S163.683,212,162.302,212z"/>
			</g>
		</g>
		<g>
			<g>
				<path class="st7" d="M203.822,28.33c-4.498-0.838-8.043-4.31-8.898-8.716c-0.043-0.221-0.352-0.221-0.395,0
					c-0.855,4.406-4.4,7.879-8.898,8.716c-0.226,0.042-0.226,0.345,0,0.387c4.498,0.838,8.043,4.31,8.898,8.717
					c0.043,0.221,0.352,0.221,0.395,0c0.855-4.406,4.4-7.879,8.898-8.717C204.047,28.675,204.047,28.373,203.822,28.33z"/>
			</g>
		</g>
		<g>
			<g>
				<path class="st8" d="M202.515,112.101c-2.862-0.533-5.118-2.743-5.663-5.547c-0.027-0.141-0.224-0.141-0.251,0
					c-0.544,2.804-2.8,5.014-5.663,5.547c-0.144,0.027-0.144,0.219,0,0.246c2.862,0.533,5.118,2.743,5.663,5.547
					c0.027,0.141,0.224,0.141,0.251,0c0.544-2.804,2.8-5.014,5.663-5.547C202.658,112.32,202.658,112.128,202.515,112.101z"/>
			</g>
		</g>
		<g>
			<g>
				<path class="st6" d="M63.246,120.75h2.33v-2.33c0-1.744,1.413-3.157,3.157-3.157c1.744,0,3.157,1.413,3.157,3.157v2.33h2.329
					c1.744,0,3.157,1.413,3.157,3.157s-1.413,3.157-3.157,3.157h-2.329v2.33c0,1.744-1.413,3.157-3.157,3.157
					c-1.744,0-3.157-1.413-3.157-3.157v-2.33h-2.33c-1.744,0-3.157-1.413-3.157-3.157S61.502,120.75,63.246,120.75z"/>
			</g>
		</g>
		<g>
			<g>
				<circle class="st7" cx="53.755" cy="152.825" r="3.377"/>
			</g>
		</g>
		<g>
			<g>
				<circle class="st9" cx="177.755" cy="3.377" r="3.377"/>
			</g>
		</g>
		<g>
			<g>
				<path d="M143.17,194H128c-0.894,0-1.72-0.478-2.167-1.252s-0.444-1.729,0.004-2.502l23.055-39.719
					c0.343-0.591,0.912-1.015,1.576-1.175c0.664-0.161,1.364-0.042,1.938,0.327c0.368,0.237,0.7,0.428,1.015,0.583l9.979,4.92
					c0.74,0.201,1.348,0.731,1.647,1.439c0.305,0.722,0.254,1.545-0.138,2.224l-19.576,33.906
					C144.888,193.523,144.063,194,143.17,194z M132.342,189h9.385l17.496-30.304L152,155.134L132.342,189z"/>
			</g>
		</g>
		<g>
			<g>
				<path d="M128,194h-15.17c-0.893,0-1.718-0.477-2.165-1.25l-19.576-33.906c-0.392-0.679-0.443-1.502-0.138-2.224
					c0.299-0.708,0.908-1.238,1.648-1.439l9.979-4.92c0.313-0.155,0.646-0.346,1.014-0.583c0.574-0.369,1.273-0.488,1.938-0.327
					c0.664,0.16,1.233,0.584,1.576,1.175l23.055,39.719c0.449,0.773,0.451,1.728,0.004,2.502S128.894,194,128,194z M114.273,189
					h9.385L104,155.134l-7.223,3.562L114.273,189z"/>
			</g>
		</g>
		<g>
			<g>
				<path d="M75.5,227H51.833c-1.381,0-2.5-1.119-2.5-2.5s1.119-2.5,2.5-2.5H75.5c1.381,0,2.5,1.119,2.5,2.5S76.881,227,75.5,227z"
					/>
			</g>
		</g>
		<g>
			<g>
				<path d="M204.5,227h-24.125c-1.381,0-2.5-1.119-2.5-2.5s1.119-2.5,2.5-2.5H204.5c1.381,0,2.5,1.119,2.5,2.5
					S205.881,227,204.5,227z"/>
			</g>
		</g>
		<g>
			<g>
				<path d="M157.833,225c-8.547,0-15.5-6.953-15.5-15.5s6.953-15.5,15.5-15.5s15.5,6.953,15.5,15.5S166.38,225,157.833,225z
					 M157.833,199c-5.79,0-10.5,4.71-10.5,10.5s4.71,10.5,10.5,10.5s10.5-4.71,10.5-10.5S163.623,199,157.833,199z"/>
			</g>
		</g>
	</g>
</g>
<g id="Layer_12">
</g>
<g id="Layer_13">
</g>
<g id="Layer_14">
</g>
<g id="Layer_15">
</g>
<g id="Layer_16">
</g>
<g id="Layer_17">
</g>
<g id="Layer_18">
</g>
<g id="Layer_19">
</g>
<g id="Layer_20">
</g>
<g id="Layer_21">
</g>
<g id="Layer_22">
</g>
<g id="Layer_23">
</g>
<g id="Layer_24">
</g>
<g id="Layer_25">
</g>
<g id="Layer_26">
</g>
<g id="Layer_27">
</g>
<g id="Layer_28">
</g>
<g id="Layer_29">
</g>
<g id="Layer_30">
</g>
<g id="Layer_31">
</g>
<g id="Layer_32">
</g>
<g id="Layer_33">
</g>
<g id="Layer_34">
</g>
<g id="Layer_35">
</g>
<g id="Layer_36">
</g>
<g id="Layer_37">
</g>
<g id="Layer_38">
</g>
<g id="Layer_39">
</g>
<g id="Layer_40">
</g>
<g id="Layer_41">
</g>
<g id="Layer_42">
</g>
<g id="Layer_43">
</g>
<g id="Layer_44">
</g>
<g id="Layer_45">
</g>
<g id="Layer_46">
</g>
<g id="Layer_47">
</g>
<g id="Layer_48">
</g>
<g id="Layer_49">
</g>
<g id="Layer_50">
</g>
<g id="Layer_51">
</g>
<g id="Layer_52">
</g>
<g id="Layer_53">
</g>
<g id="Layer_54">
</g>
<g id="Layer_55">
</g>
<g id="Layer_56">
</g>
<g id="Layer_57">
</g>
<g id="Layer_58">
</g>
<g id="Layer_59">
</g>
<g id="Layer_60">
</g>
<g id="Layer_61">
</g>
<g id="Layer_62">
</g>
<g id="Layer_63">
</g>
<g id="Layer_64">
</g>
<g id="Layer_65">
</g>
<g id="Layer_66">
</g>
<g id="Layer_67">
</g>
<g id="Layer_68">
</g>
<g id="Layer_69">
</g>
<g id="Layer_70">
</g>
<g id="Layer_71">
</g>
<g id="Layer_72">
</g>
<g id="Layer_73">
</g>
<g id="Layer_74">
</g>
<g id="Layer_75">
</g>
<g id="Layer_76">
</g>
<g id="Layer_77">
</g>
<g id="Layer_78">
</g>
<g id="Layer_79">
</g>
<g id="Layer_80">
</g>
</svg>
