<?xml version="1.0" encoding="utf-8"?>
<!-- Generator: Adobe Illustrator 24.0.0, SVG Export Plug-In . SVG Version: 6.00 Build 0)  -->
<svg version="1.1" xmlns="http://www.w3.org/2000/svg" xmlns:xlink="http://www.w3.org/1999/xlink" x="0px" y="0px"
	 viewBox="0 0 256 256" style="enable-background:new 0 0 256 256;" xml:space="preserve">
<style type="text/css">
	.st0{fill:#3A70BF;}
	.st1{fill:#EDF4FC;}
	.st2{fill:#C7D7E5;}
	.st3{fill:#F9D0B4;}
	.st4{fill:#5B5D60;}
	.st5{fill:#5290DB;}
	.st6{fill:#70D6F9;}
	.st7{fill:#F5C84C;}
	.st8{fill:#FC657E;}
	.st9{fill:#87D147;}
	.st10{fill:#FCDD86;}
	.st11{fill:#9BE5F9;}
	.st12{fill:#B2E26D;}
	.st13{fill:#754E34;}
	.st14{fill:#FCA265;}
	.st15{fill:#818182;}
	.st16{fill:#F94EED;}
	.st17{fill:#FFC197;}
	.st18{fill:#3CAADC;}
	.st19{fill:#DAE6F1;}
	.st20{fill:#57AF12;}
	.st21{fill:#EF4460;}
	.st22{fill:#FFF0CA;}
	.st23{fill:#F98FA6;}
	.st24{fill:#EDB311;}
	.st25{fill:#FC8C48;}
	.st26{fill:#FCB9CB;}
	.st27{fill:#96BC71;}
	.st28{fill:#78A352;}
	.st29{fill:#B8DD90;}
	.st30{fill:#6FAFEF;}
	.st31{fill:#29589F;}
	.st32{fill:#414344;}
	.st33{fill:#9B6B4B;}
	.st34{fill:#73B1EF;}
</style>
<g id="Layer_1">
</g>
<g id="Layer_2">
</g>
<g id="Layer_3">
</g>
<g id="Layer_4">
</g>
<g id="Layer_5">
</g>
<g id="Layer_6">
</g>
<g id="Layer_7">
</g>
<g id="Layer_8">
</g>
<g id="Layer_9">
</g>
<g id="Layer_10">
</g>
<g id="Layer_11">
</g>
<g id="Layer_12">
	<g>
		<g>
			<g>
				<path class="st3" d="M164.96,71.985c-0.759,0-1.502,0.064-2.229,0.177c0,3.696,0,20.799,0,26.293v0v0
					c0,0.783-0.036,1.558-0.088,2.329c0.756,0.122,1.526,0.202,2.316,0.202c8.009,0,14.501-6.492,14.501-14.501
					C179.461,78.477,172.969,71.985,164.96,71.985z"/>
			</g>
		</g>
		<g>
			<g>
				<path class="st3" d="M144.613,60.642c-5.29,6.174-24.047,24.906-51.344,17.13v20.684c0,19.102,15.629,34.732,34.732,34.732l0,0
					c19.102,0,34.732-15.629,34.732-34.732v-28.06c0-1.276-0.893-2.358-2.136-2.646c-3.515-0.814-7.782-2.85-12.673-7.294
					C146.955,59.577,145.463,59.649,144.613,60.642z"/>
			</g>
		</g>
		<g>
			<g>
				<path class="st3" d="M93.268,77.771c-2.385-0.679-4.834-1.559-7.346-2.668c-1.619-0.715-3.511-0.386-4.803,0.825
					c-2.817,2.641-4.581,6.39-4.581,10.557c0,8.008,6.492,14.501,14.501,14.501c0.79,0,1.56-0.08,2.316-0.202
					c-0.052-0.771-0.088-1.546-0.088-2.329V77.771z"/>
			</g>
		</g>
		<g>
			<g>
				<path class="st13" d="M111.48,139.512v-10.533c-10.179-5.548-17.308-16.042-18.124-28.194c-0.756,0.122-1.526,0.202-2.316,0.202
					c-3.897,0-7.427-1.545-10.032-4.046c-1.508,8.692-4.54,20.198-10.64,31.327c-1.112,2.029-0.572,4.566,1.303,5.922
					c4.92,3.557,16.083,9.666,36.93,12.174C110.404,144.579,111.48,142.133,111.48,139.512z"/>
			</g>
		</g>
		<g>
			<g>
				<path class="st13" d="M185.633,128.268c-6.1-11.129-9.132-22.635-10.64-31.327c-2.606,2.501-6.136,4.046-10.032,4.046
					c-0.79,0-1.56-0.08-2.316-0.202c-0.816,12.152-7.945,22.647-18.124,28.194v10.533c0,2.621,1.076,5.068,2.88,6.853
					c20.847-2.508,32.009-8.617,36.93-12.174C186.205,132.834,186.745,130.297,185.633,128.268z"/>
			</g>
		</g>
		<g>
			<g>
				<path class="st13" d="M169.91,51H86.09c-0.734,0-1.407-0.261-1.947-0.686c-2.166,5.404-3.371,11.287-3.371,17.441v8.535
					c0.118-0.119,0.226-0.246,0.348-0.361c1.291-1.211,3.183-1.54,4.803-0.825c2.512,1.109,4.961,1.988,7.346,2.668
					c27.297,7.776,46.055-10.956,51.344-17.13c0.85-0.992,2.342-1.065,3.309-0.186c4.892,4.445,9.159,6.48,12.673,7.294
					c1.243,0.288,2.136,1.37,2.136,2.646v1.766c0.727-0.113,1.47-0.177,2.229-0.177c4.012,0,7.643,1.63,10.268,4.263v-8.494
					c0-6.154-1.205-12.037-3.371-17.441C171.317,50.739,170.644,51,169.91,51z"/>
			</g>
		</g>
		<g>
			<g>
				<path class="st1" d="M172.351,18.5H83.649c-2.065,0-3.675,1.79-3.456,3.844l2.755,25.832C83.12,49.782,84.475,51,86.09,51h83.82
					c1.615,0,2.97-1.218,3.141-2.824l2.755-25.832C176.026,20.29,174.416,18.5,172.351,18.5z"/>
			</g>
		</g>
		<g>
			<g>
				<path class="st12" d="M161.529,153.7c-1.034-0.377-2.048-0.807-3.037-1.294l-8.587-4.234c-0.062-0.031-0.117-0.072-0.178-0.104
					L128,185.5h15.17L161.529,153.7z"/>
			</g>
		</g>
		<g>
			<g>
				<path class="st12" d="M94.471,153.7l18.36,31.8H128l-21.728-37.432c-0.061,0.032-0.116,0.073-0.178,0.104l-8.587,4.234
					C96.519,152.893,95.505,153.324,94.471,153.7z"/>
			</g>
		</g>
		<g>
			<g>
				<path class="st3" d="M144.52,139.512v-10.533c-4.92,2.682-10.551,4.208-16.52,4.208c-5.97,0-11.6-1.526-16.52-4.208v10.533
					c0,3.607-2.017,6.897-5.208,8.557L128,185.5l21.728-37.432C146.538,146.409,144.52,143.119,144.52,139.512z"/>
			</g>
		</g>
		<g>
			<g>
				<path class="st9" d="M200.078,173.902c-0.347-6.223-4.699-11.497-10.743-13.019l-24.833-6.269
					c-1.007-0.253-1.998-0.56-2.972-0.915l-18.36,31.8H128h-15.17l-18.36-31.8c-0.974,0.355-1.965,0.662-2.972,0.915l-24.833,6.269
					c-6.044,1.521-10.396,6.796-10.743,13.019l-2.744,75.418c-0.127,2.269,1.68,4.179,3.953,4.179h21.99
					c1.478,0,2.677-1.198,2.677-2.677v-47.143l3.883,12.439c2.539,8.133,3.83,16.604,3.83,25.124v9.58
					c0,1.478,1.198,2.677,2.677,2.677h30.345h10.936h30.345c1.478,0,2.677-1.198,2.677-2.677v-9.58c0-8.52,1.291-16.991,3.83-25.124
					l3.883-12.439v47.143c0,1.478,1.198,2.677,2.677,2.677h21.99c2.273,0,4.079-1.91,3.953-4.179L200.078,173.902z"/>
			</g>
		</g>
		<g>
			<g>
				<path class="st3" d="M174.203,250.823c0,1.478,1.198,2.677,2.677,2.677h21.99c2.273,0,4.079-1.91,3.953-4.179l-0.903-24.821
					h-27.716V250.823z"/>
			</g>
		</g>
		<g>
			<g>
				<path class="st3" d="M57.131,253.5h21.99c1.478,0,2.677-1.198,2.677-2.677V224.5H54.081l-0.903,24.821
					C53.051,251.59,54.858,253.5,57.131,253.5z"/>
			</g>
		</g>
		<g>
			<g>
				<circle class="st8" cx="149.833" cy="208.5" r="13"/>
			</g>
		</g>
		<g>
			<g>
				<path d="M128,117.757c-4.776,0-9.262-1.95-11.999-5.215c-0.887-1.058-0.748-2.635,0.31-3.522c1.06-0.887,2.636-0.747,3.522,0.31
					c1.798,2.146,4.852,3.427,8.167,3.427s6.369-1.281,8.167-3.427c0.887-1.058,2.464-1.197,3.522-0.31
					c1.058,0.887,1.197,2.464,0.31,3.522C137.262,115.808,132.776,117.757,128,117.757z"/>
			</g>
		</g>
		<g>
			<g>
				<circle cx="143.111" cy="90.5" r="4.5"/>
			</g>
		</g>
		<g>
			<g>
				<circle cx="112.889" cy="90.5" r="4.5"/>
			</g>
		</g>
		<g>
			<g>
				<path d="M164.96,103.487c-0.501,0-1.006-0.026-1.545-0.08c-1.374-0.137-2.377-1.361-2.24-2.735
					c0.137-1.375,1.367-2.375,2.735-2.24c0.345,0.035,0.695,0.055,1.05,0.055c6.617,0,12.001-5.384,12.001-12.001
					s-5.384-12-12.001-12c-0.381,0-0.777,0.021-1.174,0.061c-1.381,0.139-2.6-0.863-2.739-2.236c-0.139-1.374,0.862-2.6,2.236-2.739
					c0.564-0.057,1.128-0.086,1.677-0.086c9.375,0,17.001,7.626,17.001,17C181.961,95.86,174.335,103.487,164.96,103.487z"/>
			</g>
		</g>
		<g>
			<g>
				<path d="M128,135.687c-20.53,0-37.232-16.702-37.232-37.232V77.771c0-0.784,0.368-1.523,0.994-1.995s1.438-0.624,2.191-0.409
					c25.916,7.383,43.875-10.649,48.761-16.352c0.849-0.991,2.032-1.581,3.333-1.662c1.296-0.081,2.591,0.375,3.556,1.252
					c3.952,3.59,7.84,5.848,11.557,6.709c2.397,0.556,4.072,2.645,4.072,5.081v28.06C165.231,118.985,148.529,135.687,128,135.687z
					 M95.768,80.979v17.476c0,17.773,14.459,32.232,32.232,32.232c17.772,0,32.231-14.459,32.231-32.232v-28.06
					c0-0.113-0.101-0.187-0.201-0.21c-4.514-1.046-9.108-3.656-13.656-7.758C141.017,68.626,122.582,86.857,95.768,80.979z
					 M144.613,60.642h0.01H144.613z"/>
			</g>
		</g>
		<g>
			<g>
				<path d="M91.04,103.487c-9.374,0-17-7.626-17-17.001c0-4.668,1.958-9.181,5.371-12.381c2.031-1.904,4.981-2.409,7.523-1.288
					c2.331,1.029,4.693,1.888,7.02,2.55c1.328,0.378,2.098,1.761,1.72,3.089c-0.378,1.329-1.764,2.099-3.089,1.72
					c-2.548-0.726-5.129-1.663-7.671-2.785c-0.701-0.31-1.52-0.168-2.083,0.361c-2.444,2.292-3.791,5.394-3.791,8.733
					c0,6.617,5.383,12.001,12,12.001c0.317,0,0.631-0.017,0.941-0.045c1.369-0.13,2.592,0.884,2.719,2.259
					c0.127,1.375-0.884,2.592-2.259,2.719C91.979,103.463,91.512,103.487,91.04,103.487z"/>
			</g>
		</g>
		<g>
			<g>
				<path d="M107.882,148.776c-0.104,0-0.208-0.007-0.314-0.02c-21.082-2.648-32.458-8.994-37.362-12.541
					c-2.876-2.08-3.75-6.013-2.03-9.149c4.755-8.676,8.302-19.022,10.257-29.921c0.244-1.359,1.543-2.259,2.902-2.02
					c1.359,0.244,2.263,1.543,2.02,2.902c-2.079,11.588-5.711,22.167-10.794,31.442c-0.51,0.93-0.263,2.088,0.575,2.694
					c4.518,3.267,15.079,9.122,35.056,11.631c1.37,0.172,2.341,1.422,2.169,2.792C110.201,147.851,109.124,148.776,107.882,148.776z
					"/>
			</g>
		</g>
		<g>
			<g>
				<path d="M148.164,148.771c-1.242,0-2.318-0.924-2.478-2.188c-0.172-1.37,0.798-2.62,2.168-2.793
					c19.947-2.513,30.497-8.363,35.011-11.626c0.838-0.606,1.085-1.764,0.576-2.694c-5.115-9.332-8.759-19.979-10.831-31.646
					c-0.242-1.359,0.665-2.657,2.024-2.898c1.36-0.242,2.658,0.665,2.898,2.024c1.359,7.651,4.247,19.087,10.292,30.116
					c1.719,3.136,0.846,7.07-2.031,9.149c-4.9,3.543-16.265,9.883-37.315,12.535C148.373,148.764,148.268,148.771,148.164,148.771z"
					/>
			</g>
		</g>
		<g>
			<g>
				<path d="M175.229,78c-1.381,0-2.5-1.119-2.5-2.5v-7.745c0-5.435-0.988-10.771-2.937-15.861c-0.494-1.29,0.151-2.735,1.44-3.229
					c1.287-0.494,2.734,0.151,3.229,1.44c2.168,5.662,3.268,11.6,3.268,17.649V75.5C177.729,76.88,176.609,78,175.229,78z"/>
			</g>
		</g>
		<g>
			<g>
				<path d="M80.771,78.042c-1.381,0-2.5-1.119-2.5-2.5v-7.788c0-6.197,1.153-12.273,3.427-18.06
					c0.505-1.285,1.956-1.917,3.241-1.412c1.285,0.505,1.917,1.956,1.412,3.241c-2.044,5.202-3.081,10.662-3.081,16.23v7.788
					C83.271,76.923,82.152,78.042,80.771,78.042z"/>
			</g>
		</g>
		<g>
			<g>
				<path d="M169.91,53.5H86.09c-2.9,0-5.319-2.175-5.627-5.059l-2.755-25.832c-0.18-1.683,0.366-3.37,1.498-4.628
					C80.337,16.722,81.957,16,83.649,16h88.701c1.693,0,3.313,0.722,4.444,1.981c1.131,1.259,1.677,2.946,1.498,4.628l-2.755,25.832
					C175.229,51.325,172.811,53.5,169.91,53.5z M83.649,21c-0.378,0-0.617,0.203-0.726,0.323c-0.109,0.121-0.285,0.379-0.245,0.756
					l2.755,25.832c0.036,0.335,0.317,0.589,0.655,0.589h83.82c0.338,0,0.62-0.253,0.655-0.589l2.755-25.832
					c0.04-0.376-0.136-0.635-0.245-0.756c-0.108-0.121-0.347-0.323-0.726-0.323H83.649z"/>
			</g>
		</g>
		<g>
			<g>
				<path d="M163.035,52.815c-1.236,0-2.31-0.916-2.476-2.174c-1.53-11.612-7.015-21.632-16.302-29.783
					c-1.038-0.911-1.141-2.49-0.23-3.528s2.49-1.141,3.528-0.23c10.225,8.973,16.269,20.038,17.961,32.887
					c0.181,1.369-0.783,2.625-2.152,2.805C163.254,52.808,163.144,52.815,163.035,52.815z"/>
			</g>
		</g>
		<g>
			<g>
				<path d="M143.17,188H128c-0.894,0-1.72-0.478-2.167-1.252s-0.444-1.729,0.004-2.502l21.728-37.432
					c0.667-1.152,2.123-1.58,3.308-0.967c0.046,0.023,0.141,0.078,0.208,0.118l8.517,4.2c0.888,0.438,1.826,0.837,2.786,1.187
					c0.694,0.253,1.242,0.8,1.494,1.494c0.253,0.694,0.186,1.465-0.184,2.105l-18.359,31.8C144.888,187.523,144.063,188,143.17,188z
					 M132.342,183h9.385l16.215-28.085c-0.187-0.087-0.371-0.176-0.554-0.267l-6.677-3.292L132.342,183z"/>
			</g>
		</g>
		<g>
			<g>
				<path d="M128,188h-15.17c-0.893,0-1.718-0.477-2.165-1.25l-18.359-31.8c-0.37-0.64-0.437-1.411-0.184-2.105
					c0.252-0.694,0.8-1.241,1.494-1.494c0.96-0.35,1.898-0.749,2.786-1.187l8.522-4.203c0.069-0.041,0.162-0.094,0.203-0.115
					c1.184-0.613,2.639-0.186,3.308,0.967l21.728,37.432c0.449,0.773,0.451,1.728,0.004,2.502S128.894,188,128,188z M114.273,183
					h9.385l-18.368-31.644l-6.677,3.292c-0.183,0.09-0.368,0.179-0.554,0.267L114.273,183z"/>
			</g>
		</g>
		<g>
			<g>
				<path d="M106.274,150.569c-0.903,0-1.774-0.49-2.22-1.347c-0.637-1.225-0.161-2.734,1.064-3.372
					c2.382-1.239,3.861-3.668,3.861-6.339v-9.823c0-1.381,1.119-2.5,2.5-2.5s2.5,1.119,2.5,2.5v9.823
					c0,4.543-2.511,8.672-6.554,10.774C107.058,150.478,106.663,150.569,106.274,150.569z"/>
			</g>
		</g>
		<g>
			<g>
				<path d="M149.726,150.569c-0.389,0-0.783-0.091-1.152-0.283c-4.042-2.103-6.554-6.231-6.554-10.774v-9.792
					c0-1.381,1.119-2.5,2.5-2.5s2.5,1.119,2.5,2.5v9.792c0,2.671,1.479,5.1,3.861,6.339c1.225,0.637,1.701,2.146,1.064,3.372
					C151.5,150.078,150.628,150.569,149.726,150.569z"/>
			</g>
		</g>
		<g>
			<g>
				<path d="M198.869,256H176.88c-2.854,0-5.177-2.322-5.177-5.177v-30.476c-1.802,6.816-2.713,13.829-2.713,20.896v9.58
					c0,2.854-2.322,5.177-5.177,5.177H92.187c-2.854,0-5.177-2.322-5.177-5.177v-9.58c0-7.066-0.912-14.079-2.713-20.896v30.476
					c0,2.854-2.322,5.177-5.176,5.177h-21.99c-1.768,0-3.478-0.736-4.693-2.021c-1.214-1.284-1.855-3.033-1.756-4.797l2.742-75.37
					c0.412-7.403,5.487-13.554,12.631-15.352l24.832-6.268c0.904-0.228,1.822-0.51,2.729-0.84c1.296-0.472,2.732,0.197,3.204,1.494
					c0.472,1.297-0.197,2.732-1.494,3.204c-1.067,0.389-2.149,0.722-3.217,0.99l-24.832,6.268
					c-5.012,1.262-8.571,5.575-8.859,10.734l-2.742,75.37c-0.033,0.594,0.233,0.961,0.395,1.132c0.161,0.17,0.513,0.457,1.06,0.457
					h21.99c0.097,0,0.176-0.079,0.176-0.177v-47.143c0-1.235,0.902-2.285,2.123-2.472c1.22-0.185,2.395,0.548,2.763,1.727
					l3.883,12.438c2.617,8.384,3.944,17.087,3.944,25.87v9.58c0,0.098,0.079,0.177,0.177,0.177h71.626
					c0.098,0,0.177-0.079,0.177-0.177v-9.58c0-8.783,1.327-17.487,3.944-25.87l3.883-12.438c0.368-1.179,1.543-1.908,2.763-1.727
					c1.221,0.187,2.123,1.236,2.123,2.472v47.143c0,0.098,0.079,0.177,0.177,0.177h21.989c0.547,0,0.899-0.286,1.06-0.457
					c0.162-0.17,0.427-0.538,0.397-1.083l-2.747-75.467c-0.285-5.11-3.844-9.424-8.854-10.685l-24.835-6.269
					c-1.066-0.268-2.148-0.601-3.215-0.99c-1.297-0.472-1.966-1.907-1.494-3.204c0.472-1.297,1.909-1.967,3.204-1.494
					c0.907,0.33,1.825,0.613,2.728,0.84l24.835,6.269c7.142,1.798,12.217,7.948,12.627,15.303l2.747,75.467
					c0.096,1.716-0.544,3.465-1.759,4.749C202.347,255.264,200.637,256,198.869,256z"/>
			</g>
		</g>
		<g>
			<g>
				<path d="M149.833,215.469c-1.381,0-2.5-1.119-2.5-2.5v-8.938c0-1.381,1.119-2.5,2.5-2.5s2.5,1.119,2.5,2.5v8.938
					C152.333,214.35,151.214,215.469,149.833,215.469z"/>
			</g>
		</g>
		<g>
			<g>
				<path d="M154.302,211h-8.938c-1.381,0-2.5-1.119-2.5-2.5s1.119-2.5,2.5-2.5h8.938c1.381,0,2.5,1.119,2.5,2.5
					S155.683,211,154.302,211z"/>
			</g>
		</g>
		<g>
			<g>
				<path class="st8" d="M61.822,125.33c-4.498-0.838-8.043-4.31-8.898-8.716c-0.043-0.221-0.352-0.221-0.395,0
					c-0.855,4.406-4.4,7.879-8.898,8.716c-0.226,0.042-0.226,0.345,0,0.387c4.498,0.838,8.043,4.31,8.898,8.717
					c0.043,0.221,0.352,0.221,0.395,0c0.855-4.406,4.4-7.879,8.898-8.717C62.047,125.675,62.047,125.373,61.822,125.33z"/>
			</g>
		</g>
		<g>
			<g>
				<path class="st7" d="M206.515,112.101c-2.862-0.533-5.118-2.743-5.663-5.547c-0.027-0.141-0.224-0.141-0.251,0
					c-0.544,2.804-2.8,5.014-5.663,5.547c-0.144,0.027-0.144,0.219,0,0.246c2.862,0.533,5.118,2.743,5.663,5.547
					c0.027,0.141,0.224,0.141,0.251,0c0.544-2.804,2.8-5.014,5.663-5.547C206.658,112.32,206.658,112.128,206.515,112.101z"/>
			</g>
		</g>
		<g>
			<g>
				<path class="st6" d="M189.246,25.75h2.33v-2.33c0-1.744,1.413-3.157,3.157-3.157s3.157,1.413,3.157,3.157v2.33h2.329
					c1.744,0,3.157,1.413,3.157,3.157s-1.413,3.157-3.157,3.157h-2.329v2.33c0,1.744-1.413,3.157-3.157,3.157
					s-3.157-1.413-3.157-3.157v-2.33h-2.33c-1.744,0-3.157-1.413-3.157-3.157S187.502,25.75,189.246,25.75z"/>
			</g>
		</g>
		<g>
			<g>
				<circle class="st7" cx="40.755" cy="154.825" r="3.377"/>
			</g>
		</g>
		<g>
			<g>
				<circle class="st9" cx="181.755" cy="3.377" r="3.377"/>
			</g>
		</g>
		<g>
			<g>
				<path d="M200.937,227h-25.843c-1.381,0-2.5-1.119-2.5-2.5s1.119-2.5,2.5-2.5h25.843c1.381,0,2.5,1.119,2.5,2.5
					S202.318,227,200.937,227z"/>
			</g>
		</g>
		<g>
			<g>
				<path d="M80.812,227H55.125c-1.381,0-2.5-1.119-2.5-2.5s1.119-2.5,2.5-2.5h25.687c1.381,0,2.5,1.119,2.5,2.5
					S82.193,227,80.812,227z"/>
			</g>
		</g>
		<g>
			<g>
				<path d="M149.833,224c-8.547,0-15.5-6.953-15.5-15.5s6.953-15.5,15.5-15.5s15.5,6.953,15.5,15.5S158.38,224,149.833,224z
					 M149.833,198c-5.79,0-10.5,4.71-10.5,10.5s4.71,10.5,10.5,10.5s10.5-4.71,10.5-10.5S155.623,198,149.833,198z"/>
			</g>
		</g>
	</g>
</g>
<g id="Layer_13">
</g>
<g id="Layer_14">
</g>
<g id="Layer_15">
</g>
<g id="Layer_16">
</g>
<g id="Layer_17">
</g>
<g id="Layer_18">
</g>
<g id="Layer_19">
</g>
<g id="Layer_20">
</g>
<g id="Layer_21">
</g>
<g id="Layer_22">
</g>
<g id="Layer_23">
</g>
<g id="Layer_24">
</g>
<g id="Layer_25">
</g>
<g id="Layer_26">
</g>
<g id="Layer_27">
</g>
<g id="Layer_28">
</g>
<g id="Layer_29">
</g>
<g id="Layer_30">
</g>
<g id="Layer_31">
</g>
<g id="Layer_32">
</g>
<g id="Layer_33">
</g>
<g id="Layer_34">
</g>
<g id="Layer_35">
</g>
<g id="Layer_36">
</g>
<g id="Layer_37">
</g>
<g id="Layer_38">
</g>
<g id="Layer_39">
</g>
<g id="Layer_40">
</g>
<g id="Layer_41">
</g>
<g id="Layer_42">
</g>
<g id="Layer_43">
</g>
<g id="Layer_44">
</g>
<g id="Layer_45">
</g>
<g id="Layer_46">
</g>
<g id="Layer_47">
</g>
<g id="Layer_48">
</g>
<g id="Layer_49">
</g>
<g id="Layer_50">
</g>
<g id="Layer_51">
</g>
<g id="Layer_52">
</g>
<g id="Layer_53">
</g>
<g id="Layer_54">
</g>
<g id="Layer_55">
</g>
<g id="Layer_56">
</g>
<g id="Layer_57">
</g>
<g id="Layer_58">
</g>
<g id="Layer_59">
</g>
<g id="Layer_60">
</g>
<g id="Layer_61">
</g>
<g id="Layer_62">
</g>
<g id="Layer_63">
</g>
<g id="Layer_64">
</g>
<g id="Layer_65">
</g>
<g id="Layer_66">
</g>
<g id="Layer_67">
</g>
<g id="Layer_68">
</g>
<g id="Layer_69">
</g>
<g id="Layer_70">
</g>
<g id="Layer_71">
</g>
<g id="Layer_72">
</g>
<g id="Layer_73">
</g>
<g id="Layer_74">
</g>
<g id="Layer_75">
</g>
<g id="Layer_76">
</g>
<g id="Layer_77">
</g>
<g id="Layer_78">
</g>
<g id="Layer_79">
</g>
<g id="Layer_80">
</g>
</svg>
