<?xml version="1.0" encoding="utf-8"?>
<!-- Generator: Adobe Illustrator 24.0.0, SVG Export Plug-In . SVG Version: 6.00 Build 0)  -->
<svg version="1.1" xmlns="http://www.w3.org/2000/svg" xmlns:xlink="http://www.w3.org/1999/xlink" x="0px" y="0px"
	 viewBox="0 0 256 256" style="enable-background:new 0 0 256 256;" xml:space="preserve">
<style type="text/css">
	.st0{fill:#3A70BF;}
	.st1{fill:#EDF4FC;}
	.st2{fill:#C7D7E5;}
	.st3{fill:#F9D0B4;}
	.st4{fill:#5B5D60;}
	.st5{fill:#5290DB;}
	.st6{fill:#70D6F9;}
	.st7{fill:#F5C84C;}
	.st8{fill:#FC657E;}
	.st9{fill:#87D147;}
	.st10{fill:#FCDD86;}
	.st11{fill:#9BE5F9;}
	.st12{fill:#B2E26D;}
	.st13{fill:#754E34;}
	.st14{fill:#FCA265;}
	.st15{fill:#818182;}
	.st16{fill:#F94EED;}
	.st17{fill:#FFC197;}
	.st18{fill:#3CAADC;}
	.st19{fill:#DAE6F1;}
	.st20{fill:#57AF12;}
	.st21{fill:#EF4460;}
	.st22{fill:#FFF0CA;}
	.st23{fill:#F98FA6;}
	.st24{fill:#EDB311;}
	.st25{fill:#FC8C48;}
	.st26{fill:#FCB9CB;}
	.st27{fill:#96BC71;}
	.st28{fill:#78A352;}
	.st29{fill:#B8DD90;}
	.st30{fill:#6FAFEF;}
	.st31{fill:#29589F;}
	.st32{fill:#414344;}
	.st33{fill:#9B6B4B;}
	.st34{fill:#73B1EF;}
</style>
<g id="Layer_1">
</g>
<g id="Layer_2">
</g>
<g id="Layer_3">
</g>
<g id="Layer_4">
</g>
<g id="Layer_5">
</g>
<g id="Layer_6">
</g>
<g id="Layer_7">
</g>
<g id="Layer_8">
</g>
<g id="Layer_9">
</g>
<g id="Layer_10">
</g>
<g id="Layer_11">
</g>
<g id="Layer_12">
</g>
<g id="Layer_13">
</g>
<g id="Layer_14">
</g>
<g id="Layer_15">
</g>
<g id="Layer_16">
</g>
<g id="Layer_17">
</g>
<g id="Layer_18">
</g>
<g id="Layer_19">
</g>
<g id="Layer_20">
	<g>
		<g>
			<g>
				<path class="st13" d="M81.667,139.512v-10.533c-10.179-5.548-17.308-16.042-18.124-28.194c-0.756,0.122-1.526,0.202-2.316,0.202
					c-3.897,0-7.427-1.545-10.032-4.046c-1.508,8.692-4.54,20.198-10.64,31.327c-1.112,2.029-0.572,4.566,1.303,5.922
					c4.92,3.557,16.083,9.666,36.93,12.174C80.591,144.579,81.667,142.133,81.667,139.512z"/>
			</g>
		</g>
		<g>
			<g>
				<path d="M77.998,148.767c-0.104,0-0.21-0.007-0.315-0.02c-21.036-2.654-32.393-8.991-37.29-12.532
					c-2.877-2.08-3.749-6.013-2.03-9.149c6.029-11,8.916-22.402,10.276-30.03c0.242-1.359,1.539-2.267,2.899-2.022
					c1.359,0.242,2.265,1.541,2.022,2.9c-2.073,11.63-5.712,22.247-10.813,31.555c-0.51,0.93-0.263,2.088,0.575,2.694
					c4.511,3.261,15.054,9.108,34.985,11.623c1.37,0.173,2.341,1.423,2.168,2.793C80.316,147.843,79.239,148.767,77.998,148.767z"/>
			</g>
		</g>
		<g>
			<g>
				<path class="st3" d="M135.147,71.985c-0.759,0-1.502,0.064-2.229,0.177c0,3.696,0,20.799,0,26.293v0v0
					c0,0.783-0.036,1.558-0.088,2.329c0.756,0.122,1.526,0.202,2.316,0.202c8.009,0,14.501-6.492,14.501-14.501
					C149.648,78.477,143.156,71.985,135.147,71.985z"/>
			</g>
		</g>
		<g>
			<g>
				<path class="st3" d="M126.642,107.49c0-3.295,2.696-5.99,5.99-5.99h0.144c0.088-1.004,0.142-2.018,0.142-3.045v-28.06
					c0-1.276-0.893-2.358-2.136-2.646c-3.514-0.814-7.781-2.85-12.673-7.294c-0.968-0.879-2.459-0.807-3.31,0.186
					c-5.29,6.174-24.047,24.906-51.344,17.13v20.684c0,19.102,15.629,34.732,34.732,34.732c11.74,0,22.16-5.908,28.455-14.893
					V107.49z"/>
			</g>
		</g>
		<g>
			<g>
				<path class="st3" d="M63.455,77.771c-2.385-0.679-4.834-1.559-7.346-2.668c-1.619-0.715-3.511-0.386-4.803,0.825
					c-2.817,2.641-4.581,6.39-4.581,10.557c0,8.008,6.492,14.501,14.501,14.501c0.79,0,1.56-0.08,2.316-0.202
					c-0.052-0.771-0.088-1.546-0.088-2.329V77.771z"/>
			</g>
		</g>
		<g>
			<g>
				<g>
					<path class="st13" d="M51.306,75.929c1.291-1.211,3.183-1.54,4.803-0.825c2.512,1.109,4.961,1.988,7.346,2.668
						c27.297,7.776,46.055-10.956,51.344-17.13c0.85-0.992,2.342-1.065,3.309-0.186c4.892,4.445,9.159,6.48,12.673,7.294
						c1.243,0.288,2.136,1.37,2.136,2.646v1.766c0.727-0.113,1.47-0.177,2.229-0.177c4.012,0,7.643,1.63,10.268,4.263v-8.494
						c0-25.976-21.253-47.229-47.229-47.229c-25.976,0-47.229,21.253-47.229,47.229v8.535
						C51.076,76.171,51.184,76.043,51.306,75.929z"/>
				</g>
			</g>
		</g>
		<g>
			<g>
				<path class="st3" d="M126.642,247.51v-96.108l-6.549-3.229c-3.298-1.626-5.386-4.984-5.386-8.66v-10.533
					c-4.92,2.682-10.551,4.208-16.52,4.208c-5.97,0-11.6-1.526-16.52-4.208v10.533c0,3.677-2.088,7.034-5.386,8.66l-8.587,4.234
					c-1.919,0.946-3.933,1.687-6.009,2.209l-24.833,6.269c-6.044,1.521-10.396,6.796-10.743,13.019l-2.745,75.418
					c-0.126,2.269,1.68,4.179,3.953,4.179h21.99c1.478,0,2.677-1.198,2.677-2.677v-47.143l3.883,12.439
					c2.539,8.133,3.83,16.604,3.83,25.124v9.58c0,1.478,1.198,2.677,2.677,2.677h30.345h10.937h28.977
					C129.337,253.5,126.642,250.804,126.642,247.51z"/>
			</g>
		</g>
		<g>
			<g>
				<g>
					<path class="st13" d="M126.642,118.273c-3.093,4.423-7.174,8.111-11.935,10.706v10.533c0,2.621,1.076,5.068,2.88,6.853
						c3.26-0.392,6.256-0.88,9.055-1.425V118.273z"/>
				</g>
			</g>
		</g>
		<g>
			<g>
				<path class="st1" d="M226.652,101.5h-94.02c-3.295,0-5.99,2.696-5.99,5.99v140.02c0,3.295,2.696,5.99,5.99,5.99h94.02
					c3.295,0,5.99-2.696,5.99-5.99V107.49C232.642,104.196,229.946,101.5,226.652,101.5z"/>
			</g>
		</g>
		<g>
			<g>
				<rect x="136.642" y="111.5" class="st2" width="86" height="116"/>
			</g>
		</g>
		<g>
			<g>
				<rect x="136.642" y="227.5" class="st23" width="86" height="16"/>
			</g>
		</g>
		<g>
			<g>
				<path class="st19" d="M126.642,247.51v-96.108l-6.549-3.229c-0.274-0.135-0.526-0.299-0.782-0.457l-20.446,79.734
					c-0.449,1.75-0.677,3.577-0.677,5.415V253.5h5.468h28.977C129.337,253.5,126.642,250.804,126.642,247.51z"/>
			</g>
		</g>
		<g>
			<g>
				<path class="st19" d="M77.063,147.715c-0.256,0.158-0.508,0.322-0.782,0.457l-8.587,4.234c-1.919,0.946-3.933,1.687-6.009,2.209
					l-24.833,6.269c-6.044,1.521-10.396,6.796-10.743,13.019l-2.744,75.418c-0.127,2.269,1.68,4.179,3.953,4.179h21.99
					c1.478,0,2.677-1.198,2.677-2.677v-47.143l3.883,12.439c2.539,8.133,3.83,16.604,3.83,25.124v9.58
					c0,1.478,1.198,2.677,2.677,2.677h30.345h5.468v-20.636c0-1.838-0.229-3.664-0.677-5.415L77.063,147.715z"/>
			</g>
		</g>
		<g>
			<g>
				<path class="st1" d="M126.642,151.401l-6.549-3.229c-0.274-0.135-0.526-0.299-0.782-0.457l-20.446,79.733
					c-0.325,1.267-0.531,2.574-0.621,3.897l28.399-35.377V151.401z"/>
			</g>
		</g>
		<g>
			<g>
				<path class="st1" d="M97.509,227.449l-20.446-79.733c-0.256,0.158-0.508,0.322-0.782,0.457l-8.587,4.234
					c-1.402,0.691-2.856,1.27-4.346,1.737l-2.114,14.487c-0.157,1.074,0.315,2.136,1.128,2.541l7.31,3.643
					c1.025,0.511,1.462,2.022,0.933,3.23l-4.727,10.796c-0.391,0.894-0.263,2.002,0.315,2.722l31.937,39.785
					C98.04,230.023,97.834,228.716,97.509,227.449z"/>
			</g>
		</g>
		<g>
			<g>
				<path class="st8" d="M97.509,227.449c0.148,0.576,0.263,1.163,0.362,1.753c0.021,0.124,0.04,0.248,0.059,0.373
					c0.089,0.586,0.16,1.176,0.201,1.771v0l0,0c0.035,0.504,0.056,1.011,0.056,1.518c0-0.508,0.021-1.014,0.056-1.518l0,0v0
					c0.041-0.595,0.112-1.185,0.201-1.771c0.019-0.125,0.038-0.248,0.059-0.373c0.1-0.59,0.215-1.177,0.362-1.753l15.02-58.572
					c-4.525,2.921-9.91,4.623-15.697,4.623c-5.787,0-11.172-1.703-15.697-4.623L97.509,227.449z"/>
			</g>
		</g>
		<g>
			<g>
				<path d="M135.147,103.487c-0.472,0-0.945-0.023-1.446-0.07c-1.375-0.129-2.384-1.349-2.255-2.723
					c0.13-1.375,1.329-2.392,2.724-2.254c0.322,0.03,0.647,0.048,0.978,0.048c6.617,0,12-5.384,12-12.001s-5.383-12-12-12
					c-0.375,0-0.763,0.02-1.152,0.059c-1.383,0.134-2.599-0.866-2.735-2.24c-0.137-1.374,0.865-2.599,2.239-2.735
					c0.554-0.055,1.108-0.083,1.648-0.083c9.374,0,17,7.626,17,17C152.147,95.86,144.521,103.487,135.147,103.487z"/>
			</g>
		</g>
		<g>
			<g>
				<path d="M98.187,135.687c-20.529,0-37.231-16.702-37.231-37.232V77.771c0-0.784,0.368-1.523,0.994-1.995
					c0.626-0.473,1.44-0.625,2.19-0.409c25.92,7.386,43.876-10.649,48.761-16.352c0.849-0.991,2.033-1.581,3.334-1.663
					c1.302-0.081,2.591,0.376,3.556,1.253c3.951,3.59,7.839,5.848,11.557,6.709c2.397,0.556,4.071,2.645,4.071,5.081v28.06
					c0,0.813-0.031,1.665-0.094,2.529c-0.098,1.377-1.323,2.417-2.672,2.315c-1.377-0.099-2.413-1.295-2.314-2.672
					c0.054-0.756,0.08-1.467,0.08-2.172v-28.06c0-0.113-0.101-0.187-0.2-0.21c-4.516-1.046-9.109-3.656-13.657-7.759
					c-5.355,6.199-23.786,24.433-50.605,18.552v17.476c0,17.773,14.459,32.232,32.231,32.232c10.373,0,20.192-5.095,26.267-13.628
					c0.802-1.125,2.361-1.387,3.487-0.587c1.124,0.801,1.387,2.362,0.587,3.486C121.517,129.807,110.174,135.687,98.187,135.687z"/>
			</g>
		</g>
		<g>
			<g>
				<path d="M61.227,103.487c-9.374,0-17.001-7.626-17.001-17.001c0-4.668,1.958-9.181,5.371-12.381
					c2.03-1.904,4.983-2.409,7.522-1.288c2.332,1.029,4.693,1.888,7.021,2.55c1.328,0.378,2.098,1.761,1.72,3.089
					s-1.763,2.101-3.089,1.72c-2.548-0.726-5.129-1.663-7.671-2.785c-0.703-0.31-1.518-0.167-2.083,0.361
					c-2.444,2.292-3.791,5.394-3.791,8.734c0,6.617,5.384,12.001,12.001,12.001c0.349,0,0.707-0.02,1.098-0.061
					c1.39-0.14,2.603,0.855,2.745,2.229s-0.854,2.602-2.228,2.745C62.277,103.458,61.749,103.487,61.227,103.487z"/>
			</g>
		</g>
		<g>
			<g>
				<g>
					<path d="M50.958,78.531c-1.381,0-2.5-1.119-2.5-2.5v-8.276c0-27.421,22.309-49.729,49.729-49.729
						c27.421,0,49.729,22.308,49.729,49.729v7.62c0,1.381-1.119,2.5-2.5,2.5s-2.5-1.119-2.5-2.5v-7.62
						c0-24.664-20.065-44.729-44.729-44.729c-24.663,0-44.729,20.065-44.729,44.729v8.276
						C53.458,77.412,52.339,78.531,50.958,78.531z"/>
				</g>
			</g>
		</g>
		<g>
			<g>
				<path d="M126.059,153.615c-0.371,0-0.748-0.083-1.104-0.258l-5.968-2.943c-4.183-2.062-6.78-6.239-6.78-10.902v-9.719
					c0-1.381,1.119-2.5,2.5-2.5s2.5,1.119,2.5,2.5v9.719c0,2.745,1.529,5.204,3.991,6.418l5.968,2.943
					c1.238,0.611,1.747,2.109,1.137,3.348C127.867,153.103,126.98,153.615,126.059,153.615z"/>
			</g>
		</g>
		<g>
			<g>
				<path d="M132.632,256H62.373c-2.854,0-5.177-2.322-5.177-5.177v-9.58c0-7.067-0.911-14.08-2.713-20.896v30.476
					c0,2.854-2.322,5.177-5.177,5.177H27.317c-1.768,0-3.478-0.736-4.692-2.02c-1.215-1.284-1.854-3.033-1.757-4.798l2.743-75.371
					c0.412-7.403,5.486-13.554,12.63-15.352l24.832-6.268c1.902-0.479,3.758-1.161,5.516-2.027l8.587-4.234
					c2.462-1.214,3.991-3.673,3.991-6.418v-9.762c0-1.381,1.119-2.5,2.5-2.5s2.5,1.119,2.5,2.5v9.762
					c0,4.662-2.598,8.84-6.78,10.902l-8.587,4.234c-2.074,1.022-4.262,1.827-6.504,2.391l-24.832,6.268
					c-5.012,1.262-8.571,5.575-8.858,10.734l-2.743,75.37c-0.032,0.594,0.234,0.961,0.396,1.132S26.771,251,27.317,251h21.989
					c0.098,0,0.177-0.079,0.177-0.177v-47.143c0-1.235,0.902-2.285,2.123-2.472c1.221-0.184,2.396,0.548,2.764,1.727l3.883,12.438
					c2.616,8.382,3.943,17.086,3.943,25.87v9.58c0,0.098,0.079,0.177,0.177,0.177h70.259c1.381,0,2.5,1.119,2.5,2.5
					S134.013,256,132.632,256z"/>
			</g>
		</g>
		<g>
			<g>
				<path d="M98.187,117.757c-4.775,0-9.262-1.949-11.999-5.215c-0.887-1.058-0.748-2.635,0.31-3.522
					c1.059-0.886,2.633-0.749,3.522,0.31c1.799,2.146,4.852,3.427,8.167,3.427s6.369-1.281,8.167-3.427
					c0.888-1.058,2.466-1.196,3.521-0.31c1.059,0.887,1.197,2.463,0.311,3.522C107.449,115.808,102.964,117.757,98.187,117.757z"/>
			</g>
		</g>
		<g>
			<g>
				<circle cx="113.297" cy="90.5" r="4.5"/>
			</g>
		</g>
		<g>
			<g>
				<circle cx="83.076" cy="90.5" r="4.5"/>
			</g>
		</g>
		<g>
			<g>
				<g>
					<path d="M118.348,148.771c-1.241,0-2.317-0.923-2.478-2.187c-0.173-1.37,0.797-2.621,2.167-2.794
						c2.55-0.322,5.022-0.713,7.559-1.195c1.35-0.256,2.665,0.632,2.923,1.989c0.258,1.356-0.633,2.665-1.989,2.923
						c-2.639,0.501-5.211,0.908-7.865,1.244C118.558,148.764,118.452,148.771,118.348,148.771z"/>
				</g>
			</g>
		</g>
		<g>
			<g>
				<path d="M226.651,256h-94.02c-4.682,0-8.49-3.809-8.49-8.49V107.49c0-4.682,3.809-8.49,8.49-8.49h94.02
					c4.682,0,8.49,3.809,8.49,8.49v140.02C235.142,252.191,231.333,256,226.651,256z M132.632,104c-1.925,0-3.49,1.566-3.49,3.49
					v140.02c0,1.924,1.565,3.49,3.49,3.49h94.02c1.925,0,3.49-1.566,3.49-3.49V107.49c0-1.924-1.565-3.49-3.49-3.49H132.632z"/>
			</g>
		</g>
		<g>
			<g>
				<path d="M188.642,143.75h-18c-1.381,0-2.5-1.119-2.5-2.5v-28c0-1.381,1.119-2.5,2.5-2.5h18c1.381,0,2.5,1.119,2.5,2.5
					s-1.119,2.5-2.5,2.5h-15.5v23h15.5c1.381,0,2.5,1.119,2.5,2.5S190.022,143.75,188.642,143.75z"/>
			</g>
		</g>
		<g>
			<g>
				<path d="M188.142,129.75h-16c-1.381,0-2.5-1.119-2.5-2.5s1.119-2.5,2.5-2.5h16c1.381,0,2.5,1.119,2.5,2.5
					S189.522,129.75,188.142,129.75z"/>
			</g>
		</g>
		<g>
			<g>
				<path d="M160.124,171.01c-1.381,0-2.5-1.119-2.5-2.5v-17.166c0-1.381,1.119-2.5,2.5-2.5h11.035c1.381,0,2.5,1.119,2.5,2.5
					s-1.119,2.5-2.5,2.5h-8.535v14.666C162.624,169.891,161.505,171.01,160.124,171.01z"/>
			</g>
		</g>
		<g>
			<g>
				<path d="M170.853,162.427h-9.809c-1.381,0-2.5-1.119-2.5-2.5s1.119-2.5,2.5-2.5h9.809c1.381,0,2.5,1.119,2.5,2.5
					S172.233,162.427,170.853,162.427z"/>
			</g>
		</g>
		<g>
			<g>
				<g>
					<path d="M188.124,171.01c-1.381,0-2.5-1.119-2.5-2.5v-17.166c0-1.381,1.119-2.5,2.5-2.5h6.744c3.744,0,6.791,3.047,6.791,6.792
						s-3.047,6.792-6.791,6.792h-4.244v6.083C190.624,169.891,189.505,171.01,188.124,171.01z M190.624,157.427h4.244
						c0.987,0,1.791-0.804,1.791-1.792s-0.804-1.792-1.791-1.792h-4.244V157.427z"/>
				</g>
			</g>
		</g>
		<g>
			<g>
				<path d="M207.267,193h-10c-0.952,0-1.822-0.541-2.243-1.396s-0.319-1.874,0.262-2.629l6.904-8.976h-4.923
					c-1.381,0-2.5-1.119-2.5-2.5s1.119-2.5,2.5-2.5h10c0.952,0,1.822,0.541,2.243,1.396s0.319,1.874-0.262,2.629L202.344,188h4.923
					c1.381,0,2.5,1.119,2.5,2.5S208.647,193,207.267,193z"/>
			</g>
		</g>
		<g>
			<g>
				<path d="M162.017,179.5h-10c-1.381,0-2.5-1.119-2.5-2.5s1.119-2.5,2.5-2.5h10c1.381,0,2.5,1.119,2.5,2.5
					S163.397,179.5,162.017,179.5z"/>
			</g>
		</g>
		<g>
			<g>
				<path d="M157.017,193c-1.381,0-2.5-1.119-2.5-2.5v-12c0-1.381,1.119-2.5,2.5-2.5s2.5,1.119,2.5,2.5v12
					C159.517,191.881,158.397,193,157.017,193z"/>
			</g>
		</g>
		<g>
			<g>
				<path d="M179.642,193c-4.687,0-8.5-4.262-8.5-9.5s3.813-9.5,8.5-9.5s8.5,4.262,8.5,9.5S184.328,193,179.642,193z M179.642,179
					c-1.897,0-3.5,2.061-3.5,4.5s1.603,4.5,3.5,4.5s3.5-2.061,3.5-4.5S181.539,179,179.642,179z"/>
			</g>
		</g>
		<g>
			<g>
				<g>
					<path d="M151.392,207.875c-1.381,0-2.5-1.119-2.5-2.5v-5c0-1.381,1.119-2.5,2.5-2.5s2.5,1.119,2.5,2.5v5
						C153.892,206.756,152.772,207.875,151.392,207.875z"/>
				</g>
			</g>
			<g>
				<g>
					<path d="M170.226,207.875c-1.381,0-2.5-1.119-2.5-2.5v-5c0-1.381,1.119-2.5,2.5-2.5s2.5,1.119,2.5,2.5v5
						C172.726,206.756,171.606,207.875,170.226,207.875z"/>
				</g>
			</g>
			<g>
				<g>
					<path d="M189.059,207.875c-1.381,0-2.5-1.119-2.5-2.5v-5c0-1.381,1.119-2.5,2.5-2.5s2.5,1.119,2.5,2.5v5
						C191.559,206.756,190.439,207.875,189.059,207.875z"/>
				</g>
			</g>
			<g>
				<g>
					<path d="M207.892,207.875c-1.381,0-2.5-1.119-2.5-2.5v-5c0-1.381,1.119-2.5,2.5-2.5s2.5,1.119,2.5,2.5v5
						C210.392,206.756,209.272,207.875,207.892,207.875z"/>
				</g>
			</g>
		</g>
		<g>
			<g>
				<g>
					<path d="M150.119,221.103c-1.381,0-2.5-1.119-2.5-2.5v-3.455c0-1.381,1.119-2.5,2.5-2.5s2.5,1.119,2.5,2.5v3.455
						C152.619,219.983,151.5,221.103,150.119,221.103z"/>
				</g>
			</g>
			<g>
				<g>
					<path d="M164.881,221.103c-1.381,0-2.5-1.119-2.5-2.5v-3.455c0-1.381,1.119-2.5,2.5-2.5s2.5,1.119,2.5,2.5v3.455
						C167.381,219.983,166.262,221.103,164.881,221.103z"/>
				</g>
			</g>
			<g>
				<g>
					<path d="M179.642,221.103c-1.381,0-2.5-1.119-2.5-2.5v-3.455c0-1.381,1.119-2.5,2.5-2.5s2.5,1.119,2.5,2.5v3.455
						C182.142,219.983,181.022,221.103,179.642,221.103z"/>
				</g>
			</g>
			<g>
				<g>
					<path d="M194.403,221.103c-1.381,0-2.5-1.119-2.5-2.5v-3.455c0-1.381,1.119-2.5,2.5-2.5s2.5,1.119,2.5,2.5v3.455
						C196.903,219.983,195.784,221.103,194.403,221.103z"/>
				</g>
			</g>
			<g>
				<g>
					<path d="M209.164,221.103c-1.381,0-2.5-1.119-2.5-2.5v-3.455c0-1.381,1.119-2.5,2.5-2.5s2.5,1.119,2.5,2.5v3.455
						C211.664,219.983,210.545,221.103,209.164,221.103z"/>
				</g>
			</g>
		</g>
		<g>
			<g>
				<g>
					<path d="M150.119,243.103c-1.381,0-2.5-1.119-2.5-2.5v-3.455c0-1.381,1.119-2.5,2.5-2.5s2.5,1.119,2.5,2.5v3.455
						C152.619,241.983,151.5,243.103,150.119,243.103z"/>
				</g>
			</g>
			<g>
				<g>
					<path d="M161.929,243.103c-1.381,0-2.5-1.119-2.5-2.5v-3.455c0-1.381,1.119-2.5,2.5-2.5s2.5,1.119,2.5,2.5v3.455
						C164.429,241.983,163.31,243.103,161.929,243.103z"/>
				</g>
			</g>
			<g>
				<g>
					<path d="M173.737,243.103c-1.381,0-2.5-1.119-2.5-2.5v-3.455c0-1.381,1.119-2.5,2.5-2.5s2.5,1.119,2.5,2.5v3.455
						C176.237,241.983,175.118,243.103,173.737,243.103z"/>
				</g>
			</g>
			<g>
				<g>
					<path d="M185.546,243.103c-1.381,0-2.5-1.119-2.5-2.5v-3.455c0-1.381,1.119-2.5,2.5-2.5s2.5,1.119,2.5,2.5v3.455
						C188.046,241.983,186.927,243.103,185.546,243.103z"/>
				</g>
			</g>
			<g>
				<g>
					<path d="M197.355,243.103c-1.381,0-2.5-1.119-2.5-2.5v-3.455c0-1.381,1.119-2.5,2.5-2.5s2.5,1.119,2.5,2.5v3.455
						C199.855,241.983,198.736,243.103,197.355,243.103z"/>
				</g>
			</g>
			<g>
				<g>
					<path d="M209.164,243.103c-1.381,0-2.5-1.119-2.5-2.5v-3.455c0-1.381,1.119-2.5,2.5-2.5s2.5,1.119,2.5,2.5v3.455
						C211.664,241.983,210.545,243.103,209.164,243.103z"/>
				</g>
			</g>
		</g>
		<g>
			<g>
				<path d="M211.642,230h-64c-1.381,0-2.5-1.119-2.5-2.5s1.119-2.5,2.5-2.5h64c1.381,0,2.5,1.119,2.5,2.5S213.022,230,211.642,230z
					"/>
			</g>
		</g>
		<g>
			<g>
				<path class="st7" d="M34.822,117.33c-4.498-0.838-8.043-4.31-8.898-8.716c-0.043-0.221-0.352-0.221-0.395,0
					c-0.855,4.406-4.4,7.879-8.898,8.716c-0.226,0.042-0.226,0.345,0,0.387c4.498,0.838,8.043,4.31,8.898,8.717
					c0.043,0.221,0.352,0.221,0.395,0c0.855-4.406,4.4-7.879,8.898-8.717C35.047,117.675,35.047,117.373,34.822,117.33z"/>
			</g>
		</g>
		<g>
			<g>
				<path class="st7" d="M174.515,79.101c-2.862-0.533-5.118-2.743-5.663-5.547c-0.027-0.141-0.224-0.141-0.251,0
					c-0.544,2.804-2.8,5.014-5.663,5.547c-0.144,0.027-0.144,0.219,0,0.246c2.862,0.533,5.118,2.743,5.663,5.547
					c0.027,0.141,0.224,0.141,0.251,0c0.544-2.804,2.8-5.014,5.663-5.547C174.658,79.32,174.658,79.128,174.515,79.101z"/>
			</g>
		</g>
		<g>
			<g>
				<path class="st6" d="M151.246,25.75h2.33v-2.33c0-1.744,1.413-3.157,3.157-3.157s3.157,1.413,3.157,3.157v2.33h2.329
					c1.744,0,3.157,1.413,3.157,3.157s-1.413,3.157-3.157,3.157h-2.329v2.33c0,1.744-1.413,3.157-3.157,3.157
					s-3.157-1.413-3.157-3.157v-2.33h-2.33c-1.744,0-3.157-1.413-3.157-3.157S149.502,25.75,151.246,25.75z"/>
			</g>
		</g>
		<g>
			<g>
				<circle class="st8" cx="13.755" cy="146.825" r="3.377"/>
			</g>
		</g>
		<g>
			<g>
				<circle class="st9" cx="143.755" cy="3.377" r="3.377"/>
			</g>
		</g>
		<g>
			<g>
				<path d="M132.632,256H98.187c-1.381,0-2.5-1.119-2.5-2.5v-20.637c0-2.05,0.255-4.081,0.756-6.036l20.307-79.187
					c0.344-1.337,1.71-2.141,3.043-1.801c1.337,0.343,2.144,1.706,1.801,3.043l-20.307,79.188c-0.398,1.55-0.6,3.163-0.6,4.793V251
					h31.945c1.381,0,2.5,1.119,2.5,2.5S134.013,256,132.632,256z"/>
			</g>
		</g>
		<g>
			<g>
				<path d="M98.663,233.32c-0.549,0-1.102-0.18-1.563-0.55c-1.076-0.864-1.248-2.438-0.384-3.515l27.49-34.246
					c0.863-1.076,2.437-1.249,3.515-0.385c1.076,0.864,1.248,2.438,0.384,3.515l-27.49,34.246
					C100.121,233,99.396,233.32,98.663,233.32z"/>
			</g>
		</g>
		<g>
			<g>
				<path d="M98.132,233.845c-0.743,0-1.466-0.331-1.95-0.935l-31.938-39.785c-1.168-1.454-1.426-3.531-0.655-5.29l4.727-10.795
					c0.012-0.028,0.017-0.066,0.016-0.103l-7.084-3.529c-1.777-0.886-2.8-3-2.486-5.142l1.963-13.448
					c0.199-1.367,1.459-2.313,2.835-2.113c1.366,0.199,2.312,1.468,2.112,2.834l-1.963,13.449c-0.003,0.021-0.004,0.039-0.004,0.056
					l7.084,3.529c2.237,1.115,3.183,4.018,2.106,6.471l-4.726,10.794c-0.021,0.051-0.019,0.151,0,0.192l25.221,31.414
					l-18.484-72.079c-0.343-1.337,0.464-2.7,1.801-3.043c1.333-0.339,2.699,0.463,3.043,1.801l20.183,78.702
					c0.358,1.401,0.592,2.862,0.693,4.346c0.075,1.09-0.566,2.103-1.584,2.5C98.744,233.79,98.437,233.845,98.132,233.845z
					 M63.72,169.137h0.01H63.72z"/>
			</g>
		</g>
		<g>
			<g>
				<path d="M98.187,176c-5.881,0-11.625-1.64-16.611-4.743c-1.172-0.729-1.531-2.271-0.802-3.443
					c0.731-1.172,2.273-1.531,3.444-0.802C88.41,169.621,93.24,171,98.187,171c4.973,0,9.824-1.392,14.028-4.024
					c1.172-0.731,2.714-0.378,3.446,0.792s0.378,2.713-0.792,3.446C109.867,174.345,104.099,176,98.187,176z"/>
			</g>
		</g>
	</g>
</g>
<g id="Layer_21">
</g>
<g id="Layer_22">
</g>
<g id="Layer_23">
</g>
<g id="Layer_24">
</g>
<g id="Layer_25">
</g>
<g id="Layer_26">
</g>
<g id="Layer_27">
</g>
<g id="Layer_28">
</g>
<g id="Layer_29">
</g>
<g id="Layer_30">
</g>
<g id="Layer_31">
</g>
<g id="Layer_32">
</g>
<g id="Layer_33">
</g>
<g id="Layer_34">
</g>
<g id="Layer_35">
</g>
<g id="Layer_36">
</g>
<g id="Layer_37">
</g>
<g id="Layer_38">
</g>
<g id="Layer_39">
</g>
<g id="Layer_40">
</g>
<g id="Layer_41">
</g>
<g id="Layer_42">
</g>
<g id="Layer_43">
</g>
<g id="Layer_44">
</g>
<g id="Layer_45">
</g>
<g id="Layer_46">
</g>
<g id="Layer_47">
</g>
<g id="Layer_48">
</g>
<g id="Layer_49">
</g>
<g id="Layer_50">
</g>
<g id="Layer_51">
</g>
<g id="Layer_52">
</g>
<g id="Layer_53">
</g>
<g id="Layer_54">
</g>
<g id="Layer_55">
</g>
<g id="Layer_56">
</g>
<g id="Layer_57">
</g>
<g id="Layer_58">
</g>
<g id="Layer_59">
</g>
<g id="Layer_60">
</g>
<g id="Layer_61">
</g>
<g id="Layer_62">
</g>
<g id="Layer_63">
</g>
<g id="Layer_64">
</g>
<g id="Layer_65">
</g>
<g id="Layer_66">
</g>
<g id="Layer_67">
</g>
<g id="Layer_68">
</g>
<g id="Layer_69">
</g>
<g id="Layer_70">
</g>
<g id="Layer_71">
</g>
<g id="Layer_72">
</g>
<g id="Layer_73">
</g>
<g id="Layer_74">
</g>
<g id="Layer_75">
</g>
<g id="Layer_76">
</g>
<g id="Layer_77">
</g>
<g id="Layer_78">
</g>
<g id="Layer_79">
</g>
<g id="Layer_80">
</g>
</svg>
