<?xml version="1.0" encoding="utf-8"?>
<!-- Generator: Adobe Illustrator 24.0.0, SVG Export Plug-In . SVG Version: 6.00 Build 0)  -->
<svg version="1.1" xmlns="http://www.w3.org/2000/svg" xmlns:xlink="http://www.w3.org/1999/xlink" x="0px" y="0px"
	 viewBox="0 0 256 256" style="enable-background:new 0 0 256 256;" xml:space="preserve">
<style type="text/css">
	.st0{fill:#3A70BF;}
	.st1{fill:#EDF4FC;}
	.st2{fill:#C7D7E5;}
	.st3{fill:#F9D0B4;}
	.st4{fill:#5B5D60;}
	.st5{fill:#5290DB;}
	.st6{fill:#70D6F9;}
	.st7{fill:#F5C84C;}
	.st8{fill:#FC657E;}
	.st9{fill:#87D147;}
	.st10{fill:#FCDD86;}
	.st11{fill:#9BE5F9;}
	.st12{fill:#B2E26D;}
	.st13{fill:#754E34;}
	.st14{fill:#FCA265;}
	.st15{fill:#818182;}
	.st16{fill:#F94EED;}
	.st17{fill:#FFC197;}
	.st18{fill:#3CAADC;}
	.st19{fill:#DAE6F1;}
	.st20{fill:#57AF12;}
	.st21{fill:#EF4460;}
	.st22{fill:#FFF0CA;}
	.st23{fill:#F98FA6;}
	.st24{fill:#EDB311;}
	.st25{fill:#FC8C48;}
	.st26{fill:#FCB9CB;}
	.st27{fill:#96BC71;}
	.st28{fill:#78A352;}
	.st29{fill:#B8DD90;}
	.st30{fill:#6FAFEF;}
	.st31{fill:#29589F;}
	.st32{fill:#414344;}
	.st33{fill:#9B6B4B;}
	.st34{fill:#73B1EF;}
</style>
<g id="Layer_1">
</g>
<g id="Layer_2">
</g>
<g id="Layer_3">
</g>
<g id="Layer_4">
</g>
<g id="Layer_5">
</g>
<g id="Layer_6">
</g>
<g id="Layer_7">
</g>
<g id="Layer_8">
</g>
<g id="Layer_9">
</g>
<g id="Layer_10">
</g>
<g id="Layer_11">
</g>
<g id="Layer_12">
</g>
<g id="Layer_13">
</g>
<g id="Layer_14">
</g>
<g id="Layer_15">
</g>
<g id="Layer_16">
</g>
<g id="Layer_17">
</g>
<g id="Layer_18">
</g>
<g id="Layer_19">
	<g>
		<g>
			<g>
				<path class="st3" d="M128.543,107.49c0-3.295,2.696-5.99,5.99-5.99h2.229V70.691c0-4.945-1.904-9.7-5.316-13.279
					c-2.433-2.552-6.39-2.787-9.164-0.61c-4.386,3.443-11.975,7.698-22.693,7.698c-10.745,0-18.374-4.276-22.778-7.723
					c-2.771-2.169-6.72-1.926-9.149,0.621l-0.013,0.013c-3.413,3.579-5.316,8.334-5.316,13.279v31.233
					c0,20.468,16.747,37.215,37.215,37.215h0c11.691,0,22.161-5.469,28.996-13.968V107.49z"/>
			</g>
		</g>
		<g>
			<g>
				<path class="st3" d="M148.482,101.5c3.762-2.836,6.206-7.328,6.206-12.402c0-8.581-6.956-15.538-15.537-15.538
					c-0.813,0-1.609,0.068-2.388,0.189c0,3.871,0,21.461,0,27.75H148.482z"/>
			</g>
		</g>
		<g>
			<g>
				<path class="st3" d="M62.332,101.923c0-3.856,0-20.507,0-28.173c-0.779-0.121-1.575-0.189-2.388-0.189
					c-8.581,0-15.538,6.957-15.538,15.538s6.956,15.537,15.538,15.537c0.847,0,1.672-0.086,2.482-0.217v-0.001
					C62.371,103.593,62.332,102.762,62.332,101.923z"/>
			</g>
		</g>
		<g>
			<g>
				<g>
					<path class="st21" d="M99.41,216.654c0.148,0.463,0.263,0.935,0.363,1.409c0.021,0.099,0.04,0.199,0.058,0.299
						c0.089,0.471,0.16,0.945,0.201,1.423c0,0,0,0,0,0.001l0,0c0.035,0.405,0.056,0.812,0.056,1.22c0-0.408,0.021-0.815,0.056-1.22
						l0,0c0,0,0,0,0,0c0.041-0.478,0.112-0.952,0.201-1.423c0.019-0.1,0.038-0.199,0.058-0.299c0.1-0.474,0.215-0.946,0.363-1.409
						l21.039-65.86c-2.856-2.409-4.572-5.982-4.572-9.822v-6.335c-5.268,2.868-11.296,4.501-17.686,4.501h0
						c-5.959,0-11.597-1.427-16.604-3.945v5.778c0,3.84-1.716,7.412-4.572,9.822L99.41,216.654z"/>
				</g>
			</g>
		</g>
		<g>
			<g>
				<path class="st13" d="M136.623,41.816c-1.246,0-2.327-0.961-2.344-2.207c-0.285-20.737-23.966-24.633-47.549-20.56
					c-19.994,3.453-34.608,20.791-34.608,41.081v15.559c2.299-1.344,4.966-2.128,7.821-2.128c0.813,0,1.609,0.068,2.388,0.189
					v-3.059c0-4.945,1.904-9.7,5.316-13.279l0.013-0.013c2.429-2.547,6.377-2.79,9.149-0.621c4.404,3.447,12.034,7.723,22.778,7.723
					c10.719,0,18.308-4.255,22.693-7.698c2.774-2.177,6.73-1.943,9.164,0.61c3.413,3.579,5.316,8.334,5.316,13.279v3.059
					c0.779-0.121,1.575-0.189,2.388-0.189c2.89,0,5.586,0.803,7.903,2.178c0-4.342,0-8.802,0-12.775
					C147.054,44.395,140.348,41.816,136.623,41.816z"/>
			</g>
		</g>
		<g>
			<g>
				<path class="st1" d="M228.553,101.5h-94.02c-3.295,0-5.99,2.696-5.99,5.99v140.02c0,3.295,2.696,5.99,5.99,5.99h94.02
					c3.295,0,5.99-2.696,5.99-5.99V107.49C234.543,104.196,231.848,101.5,228.553,101.5z"/>
			</g>
		</g>
		<g>
			<g>
				<rect x="138.543" y="111.5" class="st2" width="86" height="116"/>
			</g>
		</g>
		<g>
			<g>
				<rect x="138.543" y="227.5" class="st23" width="86" height="16"/>
			</g>
		</g>
		<g>
			<g>
				<path class="st19" d="M128.543,247.51v-92.966l-4.139-2.041c-0.947-0.467-1.813-1.047-2.599-1.709l-21.039,65.86
					c-0.449,1.407-0.678,2.875-0.678,4.352V253.5h34.445C131.239,253.5,128.543,250.804,128.543,247.51z"/>
			</g>
		</g>
		<g>
			<g>
				<path class="st19" d="M100.088,221.006c0-1.477-0.229-2.945-0.678-4.352l-21.039-65.86c-0.785,0.662-1.652,1.242-2.599,1.709
					l-10.215,5.037l-28.902,7.275c-6.233,1.569-10.721,7.008-11.078,13.425l-4.115,70.951c-0.13,2.34,1.732,4.31,4.076,4.31h74.549
					V221.006z"/>
			</g>
		</g>
		<g>
			<g>
				<path class="st1" d="M128.543,154.544l-4.139-2.041c-0.947-0.467-1.813-1.047-2.599-1.709l-21.039,65.86
					c-0.325,1.018-0.531,2.069-0.622,3.132l28.399-28.399V154.544z"/>
			</g>
		</g>
		<g>
			<g>
				<path class="st1" d="M64.221,171.423l7.319,2.928c1.026,0.411,1.464,1.625,0.934,2.596l-4.733,8.677
					c-0.392,0.718-0.264,1.609,0.315,2.187l31.975,31.975c-0.091-1.063-0.297-2.113-0.622-3.132l-21.039-65.86
					c-0.785,0.662-1.652,1.242-2.599,1.709l-10.215,5.037l-0.328,0.083l-2.138,11.759C62.935,170.243,63.407,171.097,64.221,171.423
					z"/>
			</g>
		</g>
		<g>
			<g>
				<path class="st8" d="M118.491,146.5l-14.195,14.922c-0.77,0.81-0.78,2.078-0.022,2.899l8.157,8.837
					c0.535,0.58,1.291,0.802,2.006,0.697l7.367-23.061C120.401,149.609,119.276,148.141,118.491,146.5z"/>
			</g>
		</g>
		<g>
			<g>
				<path class="st8" d="M81.685,146.5c-0.785,1.641-1.909,3.109-3.314,4.294l7.367,23.061c0.715,0.105,1.471-0.117,2.006-0.697
					l8.157-8.837c0.758-0.821,0.748-2.089-0.022-2.899L81.685,146.5z"/>
			</g>
		</g>
		<g>
			<g>
				<g>
					<path class="st3" d="M104.297,161.422l14.195-14.922c-0.811-1.696-1.258-3.576-1.258-5.528v-6.335
						c-5.268,2.868-11.296,4.501-17.686,4.501h0c-5.959,0-11.597-1.427-16.604-3.945v5.778c0,1.951-0.447,3.832-1.258,5.528
						l14.195,14.922c0.417,0.438,0.603,1.01,0.573,1.573c1.022,0.086,2.051,0.143,3.094,0.143h0c1.411,0,2.796-0.104,4.167-0.26
						C103.715,162.354,103.909,161.83,104.297,161.422z"/>
				</g>
			</g>
		</g>
		<g>
			<g>
				<path class="st0" d="M100.404,218.063c0.1-0.474,0.215-0.946,0.363-1.409l8.2-25.671l-3.858-19.808
					c-1.467,0.886-3.181,1.406-5.021,1.406s-3.553-0.519-5.021-1.406l-3.858,19.808l8.2,25.671c0.148,0.463,0.263,0.935,0.363,1.409
					c0.021,0.099,0.04,0.199,0.058,0.299c0.089,0.471,0.16,0.945,0.201,1.423c0,0,0,0,0,0.001c0.035,0.405,0.056,0.812,0.056,1.22
					c0-0.408,0.021-0.815,0.056-1.22c0,0,0,0,0,0c0.041-0.478,0.112-0.952,0.201-1.423
					C100.364,218.262,100.383,218.162,100.404,218.063z"/>
			</g>
		</g>
		<g>
			<g>
				<g>
					<path class="st0" d="M104.275,164.321c-0.376-0.408-0.562-0.926-0.561-1.443v0c-1.371,0.155-2.756,0.26-4.167,0.26h0
						c-1.043,0-2.072-0.058-3.094-0.143c-0.025,0.478-0.203,0.949-0.551,1.326l-3.784,4.1c1.76,2.513,4.67,4.161,7.971,4.161
						s6.211-1.647,7.971-4.161L104.275,164.321z"/>
				</g>
			</g>
		</g>
		<g>
			<g>
				<path d="M99.547,141.638c-21.898,0-39.715-17.816-39.715-39.715V70.69c0-5.613,2.134-10.941,6.007-15.004
					c3.328-3.49,8.702-3.861,12.513-0.878C82.543,58.089,89.631,62,99.589,62c9.937,0,16.985-3.896,21.149-7.165
					c3.818-2.996,9.199-2.629,12.518,0.851c3.873,4.063,6.007,9.391,6.007,15.004v30.185c0,1.381-1.119,2.5-2.5,2.5
					s-2.5-1.119-2.5-2.5V70.69c0-4.322-1.643-8.425-4.626-11.554c-1.532-1.607-4.03-1.766-5.811-0.368
					C119.042,62.524,110.953,67,99.589,67c-11.383,0-19.508-4.488-24.319-8.254c-1.775-1.39-4.269-1.227-5.799,0.377
					c-2.996,3.142-4.639,7.245-4.639,11.567v31.233c0,19.142,15.573,34.715,34.715,34.715c10.434,0,20.237-4.683,26.896-12.847
					c0.872-1.069,2.447-1.231,3.518-0.357c1.07,0.873,1.229,2.448,0.357,3.518C122.705,136.285,111.489,141.638,99.547,141.638z"/>
			</g>
		</g>
		<g>
			<g>
				<path d="M48.544,255.04c-1.381,0-2.5-1.119-2.5-2.5v-56.644c0-1.381,1.119-2.5,2.5-2.5s2.5,1.119,2.5,2.5v56.644
					C51.044,253.92,49.925,255.04,48.544,255.04z"/>
			</g>
		</g>
		<g>
			<g>
				<path d="M149.035,103.564c-0.72,0-1.434-0.309-1.929-0.908c-0.879-1.064-0.729-2.64,0.335-3.52
					c3.017-2.492,4.746-6.151,4.746-10.039c0-7.189-5.849-13.038-13.037-13.038c-0.396,0-0.8,0.02-1.204,0.059
					c-1.386,0.135-2.596-0.874-2.729-2.248c-0.133-1.375,0.874-2.596,2.248-2.729c0.563-0.055,1.13-0.082,1.685-0.082
					c9.945,0,18.037,8.092,18.037,18.038c0,5.385-2.392,10.449-6.561,13.894C150.16,103.377,149.597,103.564,149.035,103.564z"/>
			</g>
		</g>
		<g>
			<g>
				<path d="M59.944,107.136c-9.946,0-18.038-8.092-18.038-18.038s8.092-18.038,18.038-18.038c0.678,0,1.377,0.042,2.077,0.124
					c1.371,0.161,2.353,1.403,2.191,2.774c-0.162,1.372-1.398,2.355-2.775,2.191c-0.507-0.06-1.01-0.09-1.493-0.09
					c-7.189,0-13.038,5.849-13.038,13.038s5.849,13.038,13.038,13.038c0.337,0,0.669-0.017,0.998-0.046
					c1.357-0.128,2.589,0.893,2.711,2.269c0.122,1.375-0.894,2.589-2.27,2.711C60.91,107.112,60.43,107.136,59.944,107.136z"/>
			</g>
		</g>
		<g>
			<g>
				<path d="M100.089,118.573c-4.777,0-9.263-1.95-11.999-5.215c-0.887-1.059-0.748-2.635,0.311-3.522
					c1.058-0.887,2.637-0.748,3.521,0.31c1.798,2.146,4.852,3.427,8.167,3.427s6.368-1.281,8.166-3.426
					c0.887-1.058,2.466-1.196,3.521-0.31c1.059,0.887,1.197,2.464,0.311,3.522C109.351,116.624,104.865,118.573,100.089,118.573z"/>
			</g>
		</g>
		<g>
			<g>
				<circle cx="116.878" cy="90.816" r="5"/>
			</g>
		</g>
		<g>
			<g>
				<circle cx="83.299" cy="90.816" r="5"/>
			</g>
		</g>
		<g>
			<g>
				<g>
					<path d="M78.372,153.294c-0.711,0-1.417-0.302-1.912-0.888c-0.89-1.055-0.756-2.632,0.299-3.522
						c2.342-1.976,3.685-4.859,3.685-7.911v-5.014c0-1.381,1.119-2.5,2.5-2.5c1.381,0,2.5,1.119,2.5,2.5v5.014
						c0,4.529-1.99,8.805-5.46,11.732C79.514,153.101,78.941,153.294,78.372,153.294z"/>
				</g>
			</g>
			<g>
				<g>
					<path d="M121.805,153.294c-0.569,0-1.142-0.193-1.611-0.589c-3.47-2.927-5.46-7.204-5.46-11.732v-5.598
						c0-1.381,1.119-2.5,2.5-2.5s2.5,1.119,2.5,2.5v5.598c0,3.052,1.343,5.936,3.685,7.911c1.055,0.89,1.188,2.467,0.299,3.522
						C123.222,152.992,122.516,153.294,121.805,153.294z"/>
				</g>
			</g>
		</g>
		<g>
			<g>
				<path d="M52.123,77.854c-1.381,0-2.5-1.119-2.5-2.5V60.129c0-21.562,15.427-39.875,36.682-43.545
					c18.712-3.232,34.291-1.06,42.742,5.96c4.972,4.129,7.571,9.771,7.728,16.772c4.845,0.064,12.779,3.285,12.779,23.646v12.318
					c0,1.381-1.119,2.5-2.5,2.5s-2.5-1.119-2.5-2.5V62.963c0-11.851-2.891-18.647-7.931-18.647c-2.635,0-4.808-2.096-4.844-4.672
					c-0.076-5.592-2.07-10.051-5.927-13.252c-7.324-6.083-21.43-7.861-38.696-4.88c-18.852,3.255-32.533,19.497-32.533,38.618
					v15.225C54.623,76.735,53.504,77.854,52.123,77.854z"/>
			</g>
		</g>
		<g>
			<g>
				<path d="M228.553,256h-94.02c-4.682,0-8.49-3.809-8.49-8.49V107.49c0-4.682,3.809-8.49,8.49-8.49h94.02
					c4.682,0,8.49,3.809,8.49,8.49v140.02C237.043,252.191,233.234,256,228.553,256z M134.533,104c-1.925,0-3.49,1.566-3.49,3.49
					v140.02c0,1.924,1.565,3.49,3.49,3.49h94.02c1.925,0,3.49-1.566,3.49-3.49V107.49c0-1.924-1.565-3.49-3.49-3.49H134.533z"/>
			</g>
		</g>
		<g>
			<g>
				<path d="M190.543,143.75h-18c-1.381,0-2.5-1.119-2.5-2.5v-28c0-1.381,1.119-2.5,2.5-2.5h18c1.381,0,2.5,1.119,2.5,2.5
					s-1.119,2.5-2.5,2.5h-15.5v23h15.5c1.381,0,2.5,1.119,2.5,2.5S191.924,143.75,190.543,143.75z"/>
			</g>
		</g>
		<g>
			<g>
				<path d="M190.043,129.75h-16c-1.381,0-2.5-1.119-2.5-2.5s1.119-2.5,2.5-2.5h16c1.381,0,2.5,1.119,2.5,2.5
					S191.424,129.75,190.043,129.75z"/>
			</g>
		</g>
		<g>
			<g>
				<path d="M162.025,171.01c-1.381,0-2.5-1.119-2.5-2.5v-17.166c0-1.381,1.119-2.5,2.5-2.5h11.035c1.381,0,2.5,1.119,2.5,2.5
					s-1.119,2.5-2.5,2.5h-8.535v14.666C164.525,169.891,163.406,171.01,162.025,171.01z"/>
			</g>
		</g>
		<g>
			<g>
				<path d="M172.755,162.427h-9.81c-1.381,0-2.5-1.119-2.5-2.5s1.119-2.5,2.5-2.5h9.81c1.381,0,2.5,1.119,2.5,2.5
					S174.136,162.427,172.755,162.427z"/>
			</g>
		</g>
		<g>
			<g>
				<g>
					<path d="M190.025,171.01c-1.381,0-2.5-1.119-2.5-2.5v-17.166c0-1.381,1.119-2.5,2.5-2.5h6.744c3.744,0,6.791,3.047,6.791,6.792
						s-3.047,6.792-6.791,6.792h-4.244v6.083C192.525,169.891,191.406,171.01,190.025,171.01z M192.525,157.427h4.244
						c0.987,0,1.791-0.804,1.791-1.792s-0.804-1.792-1.791-1.792h-4.244V157.427z"/>
				</g>
			</g>
		</g>
		<g>
			<g>
				<path d="M209.168,193h-10c-0.952,0-1.822-0.541-2.243-1.396s-0.319-1.874,0.262-2.629l6.904-8.976h-4.923
					c-1.381,0-2.5-1.119-2.5-2.5s1.119-2.5,2.5-2.5h10c0.952,0,1.822,0.541,2.243,1.396s0.319,1.874-0.262,2.629L204.245,188h4.923
					c1.381,0,2.5,1.119,2.5,2.5S210.549,193,209.168,193z"/>
			</g>
		</g>
		<g>
			<g>
				<path d="M163.918,179.5h-10c-1.381,0-2.5-1.119-2.5-2.5s1.119-2.5,2.5-2.5h10c1.381,0,2.5,1.119,2.5,2.5
					S165.299,179.5,163.918,179.5z"/>
			</g>
		</g>
		<g>
			<g>
				<path d="M158.918,193c-1.381,0-2.5-1.119-2.5-2.5v-12c0-1.381,1.119-2.5,2.5-2.5s2.5,1.119,2.5,2.5v12
					C161.418,191.881,160.299,193,158.918,193z"/>
			</g>
		</g>
		<g>
			<g>
				<path d="M181.543,193c-4.687,0-8.5-4.262-8.5-9.5s3.813-9.5,8.5-9.5s8.5,4.262,8.5,9.5S186.229,193,181.543,193z M181.543,179
					c-1.897,0-3.5,2.061-3.5,4.5s1.603,4.5,3.5,4.5c1.93,0,3.5-2.019,3.5-4.5S183.473,179,181.543,179z"/>
			</g>
		</g>
		<g>
			<g>
				<g>
					<path d="M153.293,207.875c-1.381,0-2.5-1.119-2.5-2.5v-5c0-1.381,1.119-2.5,2.5-2.5s2.5,1.119,2.5,2.5v5
						C155.793,206.756,154.674,207.875,153.293,207.875z"/>
				</g>
			</g>
			<g>
				<g>
					<path d="M172.127,207.875c-1.381,0-2.5-1.119-2.5-2.5v-5c0-1.381,1.119-2.5,2.5-2.5s2.5,1.119,2.5,2.5v5
						C174.627,206.756,173.508,207.875,172.127,207.875z"/>
				</g>
			</g>
			<g>
				<g>
					<path d="M190.96,207.875c-1.381,0-2.5-1.119-2.5-2.5v-5c0-1.381,1.119-2.5,2.5-2.5s2.5,1.119,2.5,2.5v5
						C193.46,206.756,192.341,207.875,190.96,207.875z"/>
				</g>
			</g>
			<g>
				<g>
					<path d="M209.793,207.875c-1.381,0-2.5-1.119-2.5-2.5v-5c0-1.381,1.119-2.5,2.5-2.5s2.5,1.119,2.5,2.5v5
						C212.293,206.756,211.174,207.875,209.793,207.875z"/>
				</g>
			</g>
		</g>
		<g>
			<g>
				<g>
					<path d="M152.021,221.103c-1.381,0-2.5-1.119-2.5-2.5v-3.455c0-1.381,1.119-2.5,2.5-2.5s2.5,1.119,2.5,2.5v3.455
						C154.521,219.983,153.402,221.103,152.021,221.103z"/>
				</g>
			</g>
			<g>
				<g>
					<path d="M166.782,221.103c-1.381,0-2.5-1.119-2.5-2.5v-3.455c0-1.381,1.119-2.5,2.5-2.5s2.5,1.119,2.5,2.5v3.455
						C169.282,219.983,168.163,221.103,166.782,221.103z"/>
				</g>
			</g>
			<g>
				<g>
					<path d="M181.543,221.103c-1.381,0-2.5-1.119-2.5-2.5v-3.455c0-1.381,1.119-2.5,2.5-2.5s2.5,1.119,2.5,2.5v3.455
						C184.043,219.983,182.924,221.103,181.543,221.103z"/>
				</g>
			</g>
			<g>
				<g>
					<path d="M196.305,221.103c-1.381,0-2.5-1.119-2.5-2.5v-3.455c0-1.381,1.119-2.5,2.5-2.5s2.5,1.119,2.5,2.5v3.455
						C198.805,219.983,197.686,221.103,196.305,221.103z"/>
				</g>
			</g>
			<g>
				<g>
					<path d="M211.065,221.103c-1.381,0-2.5-1.119-2.5-2.5v-3.455c0-1.381,1.119-2.5,2.5-2.5s2.5,1.119,2.5,2.5v3.455
						C213.565,219.983,212.446,221.103,211.065,221.103z"/>
				</g>
			</g>
		</g>
		<g>
			<g>
				<g>
					<path d="M152.021,243.103c-1.381,0-2.5-1.119-2.5-2.5v-3.455c0-1.381,1.119-2.5,2.5-2.5s2.5,1.119,2.5,2.5v3.455
						C154.521,241.983,153.402,243.103,152.021,243.103z"/>
				</g>
			</g>
			<g>
				<g>
					<path d="M163.83,243.103c-1.381,0-2.5-1.119-2.5-2.5v-3.455c0-1.381,1.119-2.5,2.5-2.5s2.5,1.119,2.5,2.5v3.455
						C166.33,241.983,165.211,243.103,163.83,243.103z"/>
				</g>
			</g>
			<g>
				<g>
					<path d="M175.639,243.103c-1.381,0-2.5-1.119-2.5-2.5v-3.455c0-1.381,1.119-2.5,2.5-2.5s2.5,1.119,2.5,2.5v3.455
						C178.139,241.983,177.02,243.103,175.639,243.103z"/>
				</g>
			</g>
			<g>
				<g>
					<path d="M187.448,243.103c-1.381,0-2.5-1.119-2.5-2.5v-3.455c0-1.381,1.119-2.5,2.5-2.5s2.5,1.119,2.5,2.5v3.455
						C189.948,241.983,188.829,243.103,187.448,243.103z"/>
				</g>
			</g>
			<g>
				<g>
					<path d="M199.257,243.103c-1.381,0-2.5-1.119-2.5-2.5v-3.455c0-1.381,1.119-2.5,2.5-2.5s2.5,1.119,2.5,2.5v3.455
						C201.757,241.983,200.638,243.103,199.257,243.103z"/>
				</g>
			</g>
			<g>
				<g>
					<path d="M211.065,243.103c-1.381,0-2.5-1.119-2.5-2.5v-3.455c0-1.381,1.119-2.5,2.5-2.5s2.5,1.119,2.5,2.5v3.455
						C213.565,241.983,212.446,243.103,211.065,243.103z"/>
				</g>
			</g>
		</g>
		<g>
			<g>
				<path d="M213.543,230h-64c-1.381,0-2.5-1.119-2.5-2.5s1.119-2.5,2.5-2.5h64c1.381,0,2.5,1.119,2.5,2.5S214.924,230,213.543,230z
					"/>
			</g>
		</g>
		<g>
			<g>
				<path class="st7" d="M170.822,26.33c-4.498-0.838-8.043-4.31-8.898-8.716c-0.043-0.221-0.352-0.221-0.395,0
					c-0.855,4.406-4.4,7.879-8.898,8.716c-0.226,0.042-0.226,0.345,0,0.387c4.498,0.838,8.043,4.31,8.898,8.717
					c0.043,0.221,0.352,0.221,0.395,0c0.855-4.406,4.4-7.879,8.898-8.717C171.047,26.675,171.047,26.373,170.822,26.33z"/>
			</g>
		</g>
		<g>
			<g>
				<path class="st8" d="M174.515,79.101c-2.862-0.533-5.118-2.743-5.663-5.547c-0.027-0.141-0.224-0.141-0.251,0
					c-0.544,2.804-2.8,5.014-5.663,5.547c-0.144,0.027-0.144,0.219,0,0.246c2.862,0.533,5.118,2.743,5.663,5.547
					c0.027,0.141,0.224,0.141,0.251,0c0.544-2.804,2.8-5.014,5.663-5.547C174.658,79.32,174.658,79.128,174.515,79.101z"/>
			</g>
		</g>
		<g>
			<g>
				<path class="st9" d="M24.246,116.75h2.33v-2.33c0-1.744,1.413-3.157,3.157-3.157s3.157,1.413,3.157,3.157v2.33h2.329
					c1.744,0,3.157,1.413,3.157,3.157s-1.413,3.157-3.157,3.157h-2.329v2.33c0,1.744-1.413,3.157-3.157,3.157
					s-3.157-1.413-3.157-3.157v-2.33h-2.33c-1.744,0-3.157-1.413-3.157-3.157S22.502,116.75,24.246,116.75z"/>
			</g>
		</g>
		<g>
			<g>
				<circle class="st7" cx="13.755" cy="146.825" r="3.377"/>
			</g>
		</g>
		<g>
			<g>
				<circle class="st6" cx="143.755" cy="3.377" r="3.377"/>
			</g>
		</g>
		<g>
			<g>
				<path d="M133.625,256h-33.536c-1.381,0-2.5-1.119-2.5-2.5s1.119-2.5,2.5-2.5h33.536c1.381,0,2.5,1.119,2.5,2.5
					S135.006,256,133.625,256z"/>
			</g>
		</g>
		<g>
			<g>
				<path d="M100.089,256h-74.55c-1.801,0-3.544-0.75-4.781-2.059c-1.238-1.309-1.891-3.091-1.791-4.89l4.114-70.957
					c0.421-7.545,5.631-13.859,12.965-15.705l28.645-7.209l9.977-4.919c0.732-0.361,1.437-0.824,2.093-1.378
					c0.637-0.539,1.5-0.722,2.304-0.491c0.802,0.231,1.436,0.847,1.689,1.642l21.039,65.86c0.528,1.657,0.797,3.377,0.797,5.113
					V253.5C102.589,254.881,101.47,256,100.089,256z M76.991,154.689c-0.038,0.019-0.076,0.038-0.113,0.057l-10.215,5.036
					c-0.158,0.078-0.324,0.139-0.495,0.182l-28.901,7.274c-5.2,1.309-8.896,5.786-9.193,11.14l-4.114,70.957
					c-0.024,0.433,0.129,0.851,0.431,1.17c0.302,0.319,0.71,0.495,1.149,0.495h72.05v-29.994c0-1.219-0.188-2.427-0.561-3.591
					L76.991,154.689z"/>
			</g>
		</g>
		<g>
			<g>
				<path d="M100.144,222.286c-0.356,0-0.716-0.076-1.054-0.233c-0.952-0.442-1.525-1.433-1.437-2.479
					c0.107-1.258,0.354-2.496,0.731-3.679l21.039-65.86c0.254-0.795,0.888-1.411,1.689-1.642c0.804-0.229,1.667-0.047,2.304,0.491
					c0.656,0.554,1.36,1.017,2.093,1.377l3.331,1.643c1.238,0.611,1.747,2.109,1.137,3.348s-2.108,1.748-3.348,1.137l-3.331-1.643
					c-0.038-0.019-0.075-0.037-0.113-0.056l-18.081,56.601l21.249-21.249c0.977-0.977,2.559-0.977,3.535,0
					c0.977,0.976,0.977,2.559,0,3.535l-27.977,27.977C101.433,222.033,100.793,222.286,100.144,222.286z"/>
			</g>
		</g>
		<g>
			<g>
				<path d="M99.89,222.143c-0.64,0-1.279-0.244-1.768-0.732l-31.833-31.833c-1.353-1.354-1.657-3.472-0.742-5.152l4.38-8.029
					l-6.634-2.653c-1.91-0.764-3.029-2.788-2.661-4.812l2.011-11.059c0.247-1.358,1.549-2.264,2.907-2.012
					c1.358,0.247,2.26,1.548,2.013,2.907L65.647,169.3l6.822,2.729c1.152,0.462,2.054,1.396,2.474,2.563s0.32,2.462-0.274,3.551
					l-4.497,8.247l31.485,31.485c0.977,0.976,0.977,2.559,0,3.535C101.169,221.899,100.529,222.143,99.89,222.143z"/>
			</g>
		</g>
		<g>
			<g>
				<path d="M113.686,176.344c-0.146,0-0.296-0.013-0.445-0.04c-1.023-0.184-1.938-0.685-2.645-1.45l-8.157-8.837
					c-1.646-1.785-1.626-4.56,0.047-6.318l14.194-14.922c0.951-1.001,2.534-1.039,3.534-0.088c1.001,0.952,1.04,2.534,0.089,3.535
					l-13.949,14.664l7.858,8.513c1.311,0.283,2.17,1.556,1.932,2.886C115.926,175.495,114.873,176.344,113.686,176.344z"/>
			</g>
		</g>
		<g>
			<g>
				<path d="M86.275,176.372c-1.285,0-2.378-0.986-2.488-2.29c-0.113-1.344,0.859-2.53,2.188-2.691l7.849-8.503l-11.738-12.34
					c-0.625,0.783-1.327,1.504-2.103,2.158c-1.055,0.889-2.633,0.757-3.522-0.299c-0.89-1.056-0.756-2.633,0.3-3.523
					c1.128-0.952,2.026-2.117,2.671-3.462c0.354-0.742,1.052-1.262,1.864-1.39c0.808-0.128,1.636,0.15,2.202,0.746l14.194,14.922
					c1.673,1.759,1.693,4.534,0.047,6.318l-8.156,8.837c-0.808,0.874-1.906,1.409-3.094,1.509
					C86.417,176.369,86.346,176.372,86.275,176.372z"/>
			</g>
		</g>
		<g>
			<g>
				<path d="M108.916,193.239c-1.172,0-2.219-0.829-2.451-2.022l-3.697-18.986c-0.264-1.355,0.621-2.668,1.977-2.932
					c1.354-0.264,2.668,0.621,2.932,1.976l3.697,18.986c0.264,1.355-0.621,2.668-1.977,2.932
					C109.235,193.224,109.074,193.239,108.916,193.239z"/>
			</g>
		</g>
		<g>
			<g>
				<path d="M91.265,193.219c-0.158,0-0.319-0.015-0.48-0.046c-1.355-0.264-2.24-1.577-1.977-2.932l3.726-19.13
					c0.265-1.355,1.579-2.24,2.932-1.976c1.355,0.264,2.24,1.577,1.977,2.932l-3.726,19.13
					C93.483,192.39,92.437,193.219,91.265,193.219z"/>
			</g>
		</g>
		<g>
			<g>
				<g>
					<path d="M99.547,165.638c-0.737,0-1.501-0.026-2.334-0.08c-1.378-0.089-2.423-1.278-2.334-2.656
						c0.09-1.377,1.266-2.433,2.656-2.333c0.725,0.046,1.383,0.069,2.012,0.069c1.043,0,2.16-0.063,3.416-0.193
						c1.362-0.142,2.601,0.856,2.743,2.23s-0.856,2.602-2.229,2.744C102.048,165.566,100.763,165.638,99.547,165.638z"/>
				</g>
			</g>
			<g>
				<g>
					<path d="M100.089,175.081c-3.673,0-7.119-1.633-9.455-4.481c-0.875-1.068-0.72-2.643,0.349-3.519
						c1.066-0.875,2.642-0.721,3.519,0.348c1.382,1.686,3.419,2.652,5.588,2.652c2.219,0,4.284-1.003,5.667-2.751
						c0.856-1.083,2.428-1.266,3.512-0.41c1.083,0.857,1.267,2.429,0.41,3.512C107.341,173.386,103.846,175.081,100.089,175.081z"/>
				</g>
			</g>
		</g>
	</g>
</g>
<g id="Layer_20">
</g>
<g id="Layer_21">
</g>
<g id="Layer_22">
</g>
<g id="Layer_23">
</g>
<g id="Layer_24">
</g>
<g id="Layer_25">
</g>
<g id="Layer_26">
</g>
<g id="Layer_27">
</g>
<g id="Layer_28">
</g>
<g id="Layer_29">
</g>
<g id="Layer_30">
</g>
<g id="Layer_31">
</g>
<g id="Layer_32">
</g>
<g id="Layer_33">
</g>
<g id="Layer_34">
</g>
<g id="Layer_35">
</g>
<g id="Layer_36">
</g>
<g id="Layer_37">
</g>
<g id="Layer_38">
</g>
<g id="Layer_39">
</g>
<g id="Layer_40">
</g>
<g id="Layer_41">
</g>
<g id="Layer_42">
</g>
<g id="Layer_43">
</g>
<g id="Layer_44">
</g>
<g id="Layer_45">
</g>
<g id="Layer_46">
</g>
<g id="Layer_47">
</g>
<g id="Layer_48">
</g>
<g id="Layer_49">
</g>
<g id="Layer_50">
</g>
<g id="Layer_51">
</g>
<g id="Layer_52">
</g>
<g id="Layer_53">
</g>
<g id="Layer_54">
</g>
<g id="Layer_55">
</g>
<g id="Layer_56">
</g>
<g id="Layer_57">
</g>
<g id="Layer_58">
</g>
<g id="Layer_59">
</g>
<g id="Layer_60">
</g>
<g id="Layer_61">
</g>
<g id="Layer_62">
</g>
<g id="Layer_63">
</g>
<g id="Layer_64">
</g>
<g id="Layer_65">
</g>
<g id="Layer_66">
</g>
<g id="Layer_67">
</g>
<g id="Layer_68">
</g>
<g id="Layer_69">
</g>
<g id="Layer_70">
</g>
<g id="Layer_71">
</g>
<g id="Layer_72">
</g>
<g id="Layer_73">
</g>
<g id="Layer_74">
</g>
<g id="Layer_75">
</g>
<g id="Layer_76">
</g>
<g id="Layer_77">
</g>
<g id="Layer_78">
</g>
<g id="Layer_79">
</g>
<g id="Layer_80">
</g>
</svg>
