<?xml version="1.0" encoding="utf-8"?>
<!-- Generator: Adobe Illustrator 24.0.0, SVG Export Plug-In . SVG Version: 6.00 Build 0)  -->
<svg version="1.1" xmlns="http://www.w3.org/2000/svg" xmlns:xlink="http://www.w3.org/1999/xlink" x="0px" y="0px"
	 viewBox="0 0 256 256" style="enable-background:new 0 0 256 256;" xml:space="preserve">
<style type="text/css">
	.st0{fill:#3A70BF;}
	.st1{fill:#EDF4FC;}
	.st2{fill:#C7D7E5;}
	.st3{fill:#F9D0B4;}
	.st4{fill:#5B5D60;}
	.st5{fill:#5290DB;}
	.st6{fill:#70D6F9;}
	.st7{fill:#F5C84C;}
	.st8{fill:#FC657E;}
	.st9{fill:#87D147;}
	.st10{fill:#FCDD86;}
	.st11{fill:#9BE5F9;}
	.st12{fill:#B2E26D;}
	.st13{fill:#754E34;}
	.st14{fill:#FCA265;}
	.st15{fill:#818182;}
	.st16{fill:#F94EED;}
	.st17{fill:#FFC197;}
	.st18{fill:#3CAADC;}
	.st19{fill:#DAE6F1;}
	.st20{fill:#57AF12;}
	.st21{fill:#EF4460;}
	.st22{fill:#FFF0CA;}
	.st23{fill:#F98FA6;}
	.st24{fill:#EDB311;}
	.st25{fill:#FC8C48;}
	.st26{fill:#FCB9CB;}
	.st27{fill:#96BC71;}
	.st28{fill:#78A352;}
	.st29{fill:#B8DD90;}
	.st30{fill:#6FAFEF;}
	.st31{fill:#29589F;}
	.st32{fill:#414344;}
	.st33{fill:#9B6B4B;}
	.st34{fill:#73B1EF;}
</style>
<g id="Layer_1">
</g>
<g id="Layer_2">
</g>
<g id="Layer_3">
</g>
<g id="Layer_4">
</g>
<g id="Layer_5">
</g>
<g id="Layer_6">
</g>
<g id="Layer_7">
</g>
<g id="Layer_8">
</g>
<g id="Layer_9">
</g>
<g id="Layer_10">
</g>
<g id="Layer_11">
</g>
<g id="Layer_12">
</g>
<g id="Layer_13">
</g>
<g id="Layer_14">
</g>
<g id="Layer_15">
</g>
<g id="Layer_16">
</g>
<g id="Layer_17">
</g>
<g id="Layer_18">
</g>
<g id="Layer_19">
</g>
<g id="Layer_20">
</g>
<g id="Layer_21">
</g>
<g id="Layer_22">
</g>
<g id="Layer_23">
</g>
<g id="Layer_24">
</g>
<g id="Layer_25">
</g>
<g id="Layer_26">
</g>
<g id="Layer_27">
</g>
<g id="Layer_28">
</g>
<g id="Layer_29">
</g>
<g id="Layer_30">
</g>
<g id="Layer_31">
</g>
<g id="Layer_32">
</g>
<g id="Layer_33">
</g>
<g id="Layer_34">
</g>
<g id="Layer_35">
</g>
<g id="Layer_36">
	<g>
		<g>
			<g>
				<path class="st3" d="M172.581,74.166c-3.027,2.021-6.332,3.787-9.85,5.297c0,6.563,0,15.341,0,18.992l0,0v0
					c0,0.783-0.036,1.558-0.088,2.329c0.756,0.122,1.526,0.202,2.316,0.202c8.009,0,14.501-6.492,14.501-14.501
					C179.461,81.277,176.705,76.723,172.581,74.166z"/>
			</g>
		</g>
		<g>
			<g>
				<path class="st3" d="M93.268,98.455L93.268,98.455c0-3.652,0-12.429,0-18.992c-3.517-1.51-6.823-3.275-9.85-5.297
					c-4.124,2.557-6.88,7.111-6.88,12.32c0,8.009,6.492,14.501,14.501,14.501c0.79,0,1.56-0.081,2.316-0.202
					C93.304,100.014,93.268,99.239,93.268,98.455L93.268,98.455z"/>
			</g>
		</g>
		<g>
			<g>
				<g>
					<path class="st3" d="M93.268,79.463v18.992c0,19.102,15.629,34.732,34.732,34.732s34.732-15.629,34.732-34.732V79.463
						C142,88.359,114.001,88.361,93.268,79.463z"/>
				</g>
			</g>
		</g>
		<g>
			<g>
				<path class="st10" d="M176.649,120.456c6.634-10.404,3.501-20.533,0.574-26.254c-2.568,4.072-7.093,6.786-12.263,6.786
					c-0.79,0-1.56-0.081-2.316-0.202c-0.816,12.152-7.945,22.646-18.124,28.194v10.533c0,2.165,0.736,4.206,2.008,5.856l1.367-1.437
					c0.702-0.739,1.866-0.779,2.619-0.092l8.134,7.427c0.432,0.395,0.631,0.947,0.6,1.492c1.168,0.528,2.505,1.046,3.59,1.386
					c0.263,0.083,0.529,0.154,0.794,0.229c5.111-1.87,9.621-4.841,12.542-9.466c5.356-8.48,2.23-16.696,0.259-20.374
					C175.741,123.241,175.86,121.692,176.649,120.456z"/>
			</g>
		</g>
		<g>
			<g>
				<path class="st5" d="M158.648,151.265l-8.134-7.427c-0.753-0.687-1.917-0.646-2.619,0.092l-15.687,16.491
					c-0.77,0.81-0.78,2.078-0.022,2.899l8.157,8.837c0.936,1.014,2.552,0.97,3.431-0.094l15.054-18.223
					C159.465,153.071,159.385,151.938,158.648,151.265z"/>
			</g>
		</g>
		<g>
			<g>
				<path class="st3" d="M128,133.187c-5.97,0-11.6-1.526-16.52-4.208v10.533c0,2.163-0.738,4.205-2.005,5.86l14.317,15.051
					c0.294,0.309,0.475,0.685,0.547,1.078h7.323c0.072-0.393,0.253-0.769,0.547-1.078l14.317-15.051
					c-1.267-1.655-2.005-3.696-2.005-5.86v-10.533C139.6,131.661,133.97,133.187,128,133.187z"/>
			</g>
		</g>
		<g>
			<g>
				<path class="st10" d="M97.352,151.265l8.134-7.427c0.753-0.687,1.917-0.646,2.619,0.092l1.367,1.437
					c1.272-1.65,2.008-3.691,2.008-5.856v-10.533c-10.179-5.548-17.309-16.042-18.124-28.194c-0.756,0.122-1.526,0.202-2.316,0.202
					c-5.17,0-9.695-2.714-12.262-6.786c-2.926,5.721-6.06,15.851,0.574,26.254c0.788,1.236,0.908,2.785,0.215,4.077
					c-1.971,3.677-5.097,11.894,0.259,20.374c2.921,4.625,7.43,7.595,12.542,9.466c0.265-0.075,0.531-0.147,0.794-0.229
					c1.085-0.34,2.422-0.857,3.59-1.386C96.72,152.212,96.92,151.659,97.352,151.265z"/>
			</g>
		</g>
		<g>
			<g>
				<path class="st4" d="M80.335,66.209v2.808c0,1.917,0.95,3.706,2.53,4.79c23.99,16.451,66.283,16.448,90.27,0
					c1.581-1.084,2.53-2.873,2.53-4.79v-2.808C148.44,57.675,110.64,56.71,80.335,66.209z"/>
			</g>
		</g>
		<g>
			<g>
				<path class="st19" d="M185.464,25.994L143.737,6.065c-9.953-4.753-21.521-4.753-31.473,0L70.536,25.995
					c-5.473,2.614-7.184,9.582-3.545,14.434l10.661,14.215c-0.302-1.632,0.539-3.264,2.059-3.966
					c7.722-3.567,15.858-6.155,24.157-7.831c5.012-1.013,10.558-1.652,16.212-1.961c-2.58-2.332-4.836-5.615-5.001-10.057
					c-0.013-0.342,0.097-0.678,0.295-0.957c0.983-1.387,3.958-6.032,3.096-10.357c-0.188-0.942,0.46-1.836,1.417-1.916
					c1.754-0.146,4.549-0.53,6.569-1.53c0.971-0.481,2.119-0.481,3.09,0c2.02,1,4.815,1.384,6.569,1.53
					c0.957,0.08,1.605,0.973,1.417,1.916c-0.863,4.325,2.113,8.97,3.096,10.357c0.198,0.279,0.307,0.615,0.295,0.957
					c-0.165,4.439-2.419,7.72-4.996,10.052c4.916,0.27,9.603,0.788,13.756,1.539c9.413,1.701,18.417,4.489,26.61,8.261
					c1.519,0.699,2.356,2.332,2.056,3.962l10.661-14.215C192.648,35.577,190.936,28.608,185.464,25.994z"/>
			</g>
		</g>
		<g>
			<g>
				<path class="st15" d="M176.292,50.681c-8.193-3.772-17.197-6.56-26.61-8.261c-4.153-0.751-8.84-1.269-13.756-1.539
					c-2.303,2.084-4.865,3.412-6.437,4.099c-0.951,0.416-2.026,0.416-2.977,0c-1.571-0.686-4.13-2.013-6.432-4.094
					c-5.653,0.309-11.199,0.948-16.212,1.961c-8.299,1.677-16.435,4.264-24.157,7.831c-1.571,0.726-2.428,2.446-2.035,4.132
					l2.659,11.4c30.305-9.499,68.105-8.534,95.33,0l2.659-11.397C178.717,53.127,177.863,51.405,176.292,50.681z"/>
			</g>
		</g>
		<g>
			<g>
				<path class="st5" d="M97.352,151.265l8.134-7.427c0.753-0.687,1.917-0.646,2.619,0.092l15.687,16.491
					c0.77,0.81,0.78,2.078,0.022,2.899l-8.157,8.837c-0.936,1.014-2.552,0.97-3.431-0.094L97.171,153.84
					C96.535,153.071,96.615,151.938,97.352,151.265z"/>
			</g>
		</g>
		<g>
			<g>
				<path class="st7" d="M140.627,29.872c-0.983-1.387-3.959-6.032-3.096-10.357c0.188-0.942-0.46-1.836-1.417-1.915
					c-1.753-0.146-4.549-0.53-6.569-1.53c-0.971-0.481-2.119-0.481-3.09,0c-2.02,1.001-4.816,1.384-6.569,1.53
					c-0.957,0.08-1.605,0.973-1.417,1.915c0.862,4.325-2.113,8.97-3.096,10.357c-0.198,0.279-0.307,0.615-0.295,0.957
					c0.313,8.405,8.102,12.696,11.433,14.151c0.951,0.415,2.026,0.415,2.977,0c3.331-1.455,11.12-5.746,11.433-14.151
					C140.934,30.487,140.825,30.151,140.627,29.872z"/>
			</g>
		</g>
		<g>
			<g>
				<path class="st0" d="M200.078,173.902c-0.347-6.223-4.699-11.497-10.743-13.019l-24.833-6.269
					c-1.806-0.455-3.562-1.084-5.253-1.861c-0.022,0.385-0.155,0.767-0.419,1.086l-15.054,18.224
					c-0.879,1.064-2.495,1.109-3.431,0.094l-8.157-8.837c-0.468-0.508-0.642-1.186-0.526-1.821h-7.323
					c0.116,0.635-0.057,1.313-0.526,1.821l-8.157,8.837c-0.936,1.014-2.552,0.97-3.431-0.094L97.171,153.84
					c-0.264-0.319-0.397-0.701-0.419-1.086c-1.691,0.777-3.447,1.406-5.253,1.861l-24.833,6.269
					c-6.044,1.521-10.396,6.796-10.743,13.019l-2.744,75.418c-0.127,2.269,1.68,4.179,3.953,4.179h21.99
					c1.478,0,2.677-1.198,2.677-2.677v-47.143l3.883,12.439c2.539,8.133,3.83,16.604,3.83,25.124v9.58
					c0,1.478,1.198,2.677,2.677,2.677h30.345h10.936h30.345c1.478,0,2.677-1.198,2.677-2.677v-9.58c0-8.52,1.291-16.991,3.83-25.124
					l3.883-12.439v47.143c0,1.478,1.198,2.677,2.677,2.677h21.99c2.273,0,4.079-1.91,3.953-4.179L200.078,173.902z"/>
			</g>
		</g>
		<g>
			<g>
				<path class="st5" d="M161.393,209h-15.785c-1.854,0-3.357-1.503-3.357-3.357v13c0,1.854,1.503,3.357,3.357,3.357h15.785
					c1.854,0,3.357-1.503,3.357-3.357v-13C164.75,207.497,163.247,209,161.393,209z"/>
			</g>
		</g>
		<g>
			<g>
				<path class="st5" d="M110.393,209H94.607c-1.854,0-3.357-1.503-3.357-3.357v13c0,1.854,1.503,3.357,3.357,3.357h15.785
					c1.854,0,3.357-1.503,3.357-3.357v-13C113.75,207.497,112.247,209,110.393,209z"/>
			</g>
		</g>
		<g>
			<g>
				<path class="st4" d="M118.855,168.692c2.193,2.623,5.458,4.315,9.145,4.315s6.952-1.692,9.145-4.315l-4.958-5.371
					c-0.468-0.508-0.642-1.186-0.526-1.821h-7.323c0.116,0.635-0.057,1.313-0.526,1.821L118.855,168.692z"/>
			</g>
		</g>
		<g>
			<g>
				<path class="st15" d="M133.092,171.844c-1.545,0.736-3.264,1.163-5.092,1.163s-3.547-0.427-5.092-1.163l-6.52,66.714L128,249.5
					l11.612-10.942L133.092,171.844z"/>
			</g>
		</g>
		<g>
			<g>
				<path class="st30" d="M161.393,196.5h-15.785c-1.854,0-3.357,1.503-3.357,3.357v5.785c0,1.854,1.503,3.357,3.357,3.357h15.785
					c1.854,0,3.357-1.503,3.357-3.357v-5.785C164.75,198.003,163.247,196.5,161.393,196.5z"/>
			</g>
		</g>
		<g>
			<g>
				<path class="st30" d="M110.393,196.5H94.607c-1.854,0-3.357,1.503-3.357,3.357v5.785c0,1.854,1.503,3.357,3.357,3.357h15.785
					c1.854,0,3.357-1.503,3.357-3.357v-5.785C113.75,198.003,112.247,196.5,110.393,196.5z"/>
			</g>
		</g>
		<g>
			<g>
				<path class="st5" d="M197.965,167.21l-6.643,5.435c-7.046,5.765-12.156,13.55-14.642,22.307l-2.478,8.729v47.143
					c0,1.478,1.198,2.677,2.677,2.677h21.99c2.273,0,4.079-1.91,3.953-4.179l-2.745-75.418
					C199.942,171.469,199.187,169.186,197.965,167.21z"/>
			</g>
		</g>
		<g>
			<g>
				<path class="st5" d="M58.035,167.21l6.643,5.435c7.046,5.765,12.156,13.55,14.642,22.307l2.478,8.729v47.143
					c0,1.478-1.198,2.677-2.677,2.677h-21.99c-2.273,0-4.079-1.91-3.953-4.179l2.745-75.418
					C56.058,171.469,56.813,169.186,58.035,167.21z"/>
			</g>
		</g>
		<g>
			<g>
				<path class="st7" d="M200.691,190.744c-0.424,0.038-0.845,0.132-1.235,0.325c-2.02,1-4.816,1.384-6.569,1.53
					c-0.957,0.08-1.605,0.973-1.417,1.916c0.862,4.325-2.113,8.97-3.096,10.357c-0.198,0.279-0.307,0.615-0.295,0.957
					c0.313,8.406,8.102,12.696,11.433,14.151c0.715,0.313,1.501,0.389,2.252,0.231L200.691,190.744z"/>
			</g>
		</g>
		<g>
			<g>
				<path d="M164.96,103.487c-0.567,0-1.139-0.033-1.748-0.102c-1.372-0.154-2.359-1.391-2.206-2.763
					c0.154-1.373,1.391-2.364,2.763-2.206c0.422,0.047,0.811,0.07,1.19,0.07c6.617,0,12-5.383,12-12
					c0-3.899-1.917-7.569-5.127-9.819c-1.131-0.792-1.405-2.352-0.613-3.482c0.792-1.131,2.352-1.406,3.482-0.613
					c4.544,3.185,7.258,8.386,7.258,13.914C181.961,95.86,174.334,103.487,164.96,103.487z"/>
			</g>
		</g>
		<g>
			<g>
				<path d="M91.04,103.487c-9.374,0-17-7.626-17-17c0-5.565,2.742-10.787,7.336-13.968c1.136-0.787,2.693-0.504,3.479,0.632
					c0.786,1.135,0.503,2.692-0.632,3.479c-3.245,2.248-5.183,5.933-5.183,9.858c0,6.617,5.383,12,12,12
					c0.409,0,0.831-0.027,1.29-0.082c1.377-0.157,2.616,0.814,2.78,2.185c0.164,1.371-0.814,2.616-2.185,2.78
					C92.266,103.448,91.649,103.487,91.04,103.487z"/>
			</g>
		</g>
		<g>
			<g>
				<g>
					<path d="M128,135.687c-20.529,0-37.231-16.702-37.231-37.231V80c0-1.381,1.119-2.5,2.5-2.5s2.5,1.119,2.5,2.5v18.456
						c0,17.772,14.459,32.231,32.231,32.231s32.231-14.459,32.231-32.231V80.406c0-1.381,1.119-2.5,2.5-2.5s2.5,1.119,2.5,2.5
						v18.049C165.231,118.985,148.529,135.687,128,135.687z"/>
				</g>
			</g>
		</g>
		<g>
			<g>
				<path d="M128,117.757c-4.776,0-9.262-1.95-11.999-5.215c-0.887-1.058-0.748-2.635,0.31-3.522c1.06-0.887,2.636-0.747,3.522,0.31
					c1.798,2.146,4.852,3.427,8.167,3.427s6.369-1.281,8.167-3.427c0.887-1.058,2.464-1.197,3.522-0.31
					c1.058,0.887,1.197,2.464,0.31,3.522C137.262,115.808,132.776,117.757,128,117.757z"/>
			</g>
		</g>
		<g>
			<g>
				<circle cx="143.111" cy="90.5" r="4.5"/>
			</g>
		</g>
		<g>
			<g>
				<circle cx="112.889" cy="90.5" r="4.5"/>
			</g>
		</g>
		<g>
			<g>
				<path d="M164.255,156.638c-1.002,0-1.948-0.606-2.332-1.597c-0.499-1.287,0.14-2.735,1.428-3.234
					c4.839-1.875,8.442-4.646,10.709-8.235c4.584-7.259,2.074-14.304,0.169-17.857c-1.098-2.05-0.979-4.58,0.311-6.603
					c5.573-8.74,3.545-17.304,0.862-22.95c-0.593-1.247-0.062-2.738,1.185-3.331c1.247-0.594,2.739-0.062,3.331,1.185
					c4.559,9.593,4.146,19.46-1.162,27.784c-0.324,0.508-0.369,1.088-0.12,1.552c1.947,3.633,5.811,13.136-0.349,22.889
					c-2.852,4.515-7.27,7.956-13.13,10.228C164.861,156.584,164.555,156.638,164.255,156.638z"/>
			</g>
		</g>
		<g>
			<g>
				<path d="M142.018,175.391c-1.332,0-2.605-0.556-3.511-1.538l-8.157-8.836c-1.646-1.783-1.626-4.558,0.046-6.318l15.688-16.492
					c1.627-1.711,4.372-1.808,6.116-0.216l8.134,7.427h0c1.723,1.574,1.908,4.215,0.421,6.014l-15.053,18.223
					c-0.879,1.064-2.174,1.696-3.553,1.733C142.105,175.391,142.062,175.391,142.018,175.391z M134.265,161.887l7.744,8.39
					l14.512-17.568l-7.238-6.609L134.265,161.887z M156.96,153.109c0.001,0,0.001,0.001,0.002,0.002L156.96,153.109z"/>
			</g>
		</g>
		<g>
			<g>
				<path d="M146.078,147.234c-0.82,0-1.623-0.403-2.101-1.142c-1.28-1.977-1.957-4.252-1.957-6.58v-9.823
					c0-1.381,1.119-2.5,2.5-2.5s2.5,1.119,2.5,2.5v9.823c0,1.361,0.399,2.697,1.154,3.863c0.75,1.159,0.419,2.707-0.74,3.457
					C147.014,147.104,146.543,147.234,146.078,147.234z"/>
			</g>
		</g>
		<g>
			<g>
				<path d="M131.094,164H125c-1.381,0-2.5-1.119-2.5-2.5s1.119-2.5,2.5-2.5h6.094c1.381,0,2.5,1.119,2.5,2.5
					S132.475,164,131.094,164z"/>
			</g>
		</g>
		<g>
			<g>
				<path d="M109.887,147.288c-0.471,0-0.947-0.133-1.37-0.411c-1.154-0.758-1.475-2.308-0.717-3.462
					c0.772-1.175,1.18-2.525,1.18-3.903v-9.823c0-1.381,1.119-2.5,2.5-2.5s2.5,1.119,2.5,2.5v9.823c0,2.356-0.692,4.655-2,6.648
					C111.499,146.891,110.701,147.288,109.887,147.288z"/>
			</g>
		</g>
		<g>
			<g>
				<path d="M91.519,156.55c-0.306,0-0.618-0.057-0.919-0.176c-5.739-2.271-10.075-5.681-12.888-10.133
					c-6.16-9.753-2.296-19.256-0.349-22.89c0.249-0.464,0.204-1.044-0.12-1.552c-7.308-11.462-3.706-22.656-0.908-28.309
					c0.613-1.237,2.112-1.745,3.35-1.132c1.238,0.613,1.744,2.112,1.132,3.35c-2.847,5.752-5.047,14.481,0.642,23.403
					c1.29,2.023,1.409,4.553,0.311,6.602c-1.905,3.554-4.416,10.599,0.169,17.858c2.234,3.537,5.767,6.28,10.5,8.153
					c1.284,0.508,1.913,1.961,1.405,3.245C93.456,155.951,92.514,156.55,91.519,156.55z"/>
			</g>
		</g>
		<g>
			<g>
				<path d="M128,88.622c-17.077,0.001-34.149-4.25-46.549-12.753c-2.264-1.553-3.616-4.114-3.616-6.852v-2.475
					c0-1.381,1.119-2.5,2.5-2.5s2.5,1.119,2.5,2.5v2.475c0,1.088,0.54,2.108,1.444,2.728c23.291,15.972,64.152,15.972,87.442,0
					c0.905-0.62,1.444-1.64,1.444-2.728v-2.676c0-1.381,1.119-2.5,2.5-2.5s2.5,1.119,2.5,2.5v2.676c0,2.738-1.352,5.299-3.617,6.852
					C162.151,84.37,145.073,88.621,128,88.622z"/>
			</g>
		</g>
		<g>
			<g>
				<path d="M178.511,56.923c-0.522,0-1.048-0.163-1.498-0.5c-1.104-0.829-1.329-2.396-0.5-3.5l10.496-13.995
					c1.283-1.711,1.727-3.883,1.217-5.96c-0.51-2.077-1.91-3.797-3.839-4.719L142.659,8.321c-9.316-4.449-20.002-4.449-29.318,0
					L71.614,28.25c-1.93,0.921-3.329,2.641-3.839,4.718s-0.067,4.25,1.216,5.96l10.359,13.813c0.829,1.104,0.604,2.671-0.5,3.5
					c-1.104,0.828-2.672,0.604-3.5-0.5L64.991,41.929c-2.186-2.915-2.941-6.616-2.072-10.153s3.253-6.467,6.54-8.037l41.727-19.93
					c10.686-5.104,22.942-5.103,33.628,0l41.727,19.929c3.287,1.57,5.671,4.5,6.54,8.038c0.869,3.538,0.114,7.238-2.072,10.153
					l-10.496,13.995C180.021,56.578,179.271,56.923,178.511,56.923z"/>
			</g>
		</g>
		<g>
			<g>
				<path d="M175.665,68.709c-0.251,0-0.503-0.038-0.748-0.114c-28.5-8.934-65.333-8.935-93.835,0
					c-0.664,0.208-1.384,0.129-1.987-0.215c-0.604-0.345-1.037-0.926-1.195-1.603l-2.659-11.4c-0.658-2.819,0.782-5.75,3.421-6.969
					c7.709-3.562,16.022-6.257,24.71-8.013c4.695-0.948,9.952-1.605,15.626-1.951c1.386-0.088,2.564,0.964,2.647,2.343
					c0.084,1.378-0.964,2.563-2.343,2.647c-5.444,0.333-10.471,0.959-14.94,1.862c-8.306,1.678-16.248,4.252-23.604,7.65
					c-0.498,0.229-0.77,0.774-0.649,1.294l2.054,8.805c28.162-8.181,63.512-8.181,91.672,0l2.053-8.802
					c0.122-0.521-0.149-1.064-0.643-1.292c-7.998-3.683-16.749-6.398-26.009-8.072c-3.861-0.697-8.18-1.191-12.838-1.468
					c-1.378-0.082-2.43-1.266-2.348-2.644c0.082-1.378,1.266-2.421,2.644-2.348c4.856,0.288,9.375,0.806,13.432,1.539
					c9.675,1.749,18.831,4.591,27.211,8.45c2.641,1.216,4.079,4.147,3.421,6.97L178.1,66.777c-0.158,0.677-0.591,1.258-1.195,1.603
					C176.523,68.598,176.096,68.709,175.665,68.709z"/>
			</g>
		</g>
		<g>
			<g>
				<path d="M102.5,223c-1.381,0-2.5-1.119-2.5-2.5v-10c0-1.381,1.119-2.5,2.5-2.5s2.5,1.119,2.5,2.5v10
					C105,221.881,103.881,223,102.5,223z"/>
			</g>
		</g>
		<g>
			<g>
				<path d="M153.5,223c-1.381,0-2.5-1.119-2.5-2.5v-10c0-1.381,1.119-2.5,2.5-2.5s2.5,1.119,2.5,2.5v10
					C156,221.881,154.881,223,153.5,223z"/>
			</g>
		</g>
		<g>
			<g>
				<path d="M128,239c-1.381,0-2.5-1.119-2.5-2.5v-3c0-1.381,1.119-2.5,2.5-2.5s2.5,1.119,2.5,2.5v3
					C130.5,237.881,129.381,239,128,239z"/>
			</g>
		</g>
		<g>
			<g>
				<path d="M69.999,178c-1.088,0-2.088-0.715-2.402-1.813c-0.379-1.328,0.39-2.711,1.717-3.091l35-10
					c1.327-0.379,2.711,0.389,3.091,1.717c0.379,1.328-0.39,2.711-1.717,3.091l-35,10C70.458,177.969,70.226,178,69.999,178z"/>
			</g>
		</g>
		<g>
			<g>
				<path d="M186.001,178c-0.228,0-0.458-0.031-0.688-0.097l-35-10c-1.327-0.379-2.096-1.763-1.717-3.091
					c0.379-1.327,1.762-2.094,3.091-1.717l35,10c1.327,0.379,2.096,1.763,1.717,3.091C188.09,177.285,187.089,178,186.001,178z"/>
			</g>
		</g>
		<g>
			<g>
				<path d="M113.982,175.391c-0.044,0-0.087,0-0.131-0.002c-1.379-0.038-2.674-0.669-3.553-1.733l-15.054-18.224
					c-1.486-1.798-1.301-4.439,0.422-6.013h0l8.134-7.427c1.745-1.592,4.489-1.497,6.116,0.216l15.687,16.491
					c1.673,1.76,1.693,4.535,0.047,6.318l-8.157,8.836C116.587,174.835,115.313,175.391,113.982,175.391z M99.479,152.708
					l14.512,17.568l7.744-8.39l-15.018-15.788L99.479,152.708z M99.038,153.111c0-0.001,0.001-0.001,0.002-0.002L99.038,153.111
					L99.038,153.111z"/>
			</g>
		</g>
		<g>
			<g>
				<path d="M128,47.789c-0.849,0-1.697-0.173-2.488-0.518c-3.767-1.646-12.566-6.534-12.931-16.35
					c-0.034-0.876,0.234-1.764,0.754-2.497c1.645-2.321,3.215-5.753,2.683-8.421c-0.23-1.155,0.041-2.354,0.745-3.288
					c0.696-0.925,1.76-1.511,2.917-1.607c2.392-0.2,4.404-0.654,5.667-1.279c1.661-0.823,3.647-0.823,5.309,0
					c1.261,0.625,3.274,1.079,5.667,1.279c1.156,0.096,2.22,0.682,2.916,1.607c0.704,0.935,0.975,2.133,0.745,3.289
					c-0.532,2.667,1.038,6.1,2.684,8.422l0.001,0.001c0.517,0.73,0.784,1.615,0.753,2.491c-0.366,9.82-9.165,14.707-12.931,16.353
					C129.698,47.616,128.849,47.789,128,47.789z M117.594,31.058c0.454,6.777,7.063,10.384,9.918,11.631
					c0.314,0.138,0.662,0.137,0.977,0c2.855-1.247,9.466-4.854,9.918-11.63c-1.373-1.997-3.951-6.441-3.474-11.063
					c-2.013-0.228-4.511-0.702-6.498-1.686c-0.272-0.135-0.598-0.135-0.87,0c-1.988,0.984-4.486,1.458-6.498,1.686
					C121.544,24.617,118.967,29.061,117.594,31.058z M138.586,31.316L138.586,31.316L138.586,31.316z"/>
			</g>
		</g>
		<g>
			<g>
				<path d="M198.87,256h-21.99c-2.854,0-5.177-2.322-5.177-5.177v-30.475c-1.802,6.816-2.713,13.828-2.713,20.896v9.58
					c0,2.854-2.322,5.177-5.177,5.177H92.187c-2.854,0-5.177-2.322-5.177-5.177v-9.58c0-7.067-0.912-14.079-2.713-20.896v30.475
					c0,2.854-2.322,5.177-5.176,5.177h-21.99c-1.768,0-3.478-0.736-4.693-2.021c-1.214-1.284-1.854-3.033-1.756-4.798l2.742-75.37
					c0.412-7.403,5.487-13.554,12.631-15.352l24.832-6.268c1.439-0.363,2.884-0.858,4.294-1.473
					c1.266-0.552,2.739,0.027,3.291,1.292c0.552,1.266-0.027,2.739-1.292,3.291c-1.661,0.724-3.366,1.309-5.07,1.738l-24.832,6.268
					c-5.012,1.262-8.571,5.575-8.859,10.734l-2.742,75.37c-0.033,0.594,0.233,0.961,0.394,1.132c0.162,0.17,0.514,0.457,1.061,0.457
					h21.99c0.097,0,0.176-0.079,0.176-0.177v-47.143c0-1.235,0.902-2.285,2.123-2.472c1.219-0.185,2.395,0.548,2.763,1.727
					l3.883,12.439c2.617,8.383,3.944,17.086,3.944,25.869v9.58c0,0.098,0.079,0.177,0.177,0.177h71.626
					c0.098,0,0.177-0.079,0.177-0.177v-9.58c0-8.784,1.327-17.487,3.944-25.869l3.883-12.439c0.368-1.179,1.544-1.91,2.763-1.727
					c1.221,0.187,2.123,1.236,2.123,2.472v47.143c0,0.098,0.079,0.177,0.177,0.177h21.99c0.546,0,0.898-0.286,1.06-0.457
					c0.162-0.17,0.427-0.538,0.397-1.083l-2.747-75.467c-0.285-5.11-3.844-9.424-8.854-10.685l-24.835-6.269
					c-1.758-0.442-3.52-1.052-5.235-1.81c-1.263-0.559-1.833-2.035-1.275-3.298c0.558-1.262,2.033-1.833,3.298-1.275
					c1.458,0.645,2.95,1.161,4.435,1.535l24.835,6.269c7.142,1.798,12.217,7.948,12.627,15.303l2.747,75.467
					c0.096,1.717-0.544,3.465-1.759,4.75C202.347,255.264,200.637,256,198.87,256z"/>
			</g>
		</g>
		<g>
			<g>
				<path d="M161.393,224.5h-15.785c-3.23,0-5.857-2.627-5.857-5.857v-13c0-1.381,1.119-2.5,2.5-2.5s2.5,1.119,2.5,2.5v13
					c0,0.473,0.385,0.857,0.857,0.857h15.785c0.473,0,0.857-0.385,0.857-0.857v-13c0-1.381,1.119-2.5,2.5-2.5s2.5,1.119,2.5,2.5v13
					C167.25,221.873,164.623,224.5,161.393,224.5z"/>
			</g>
		</g>
		<g>
			<g>
				<path d="M110.393,224.5H94.607c-3.23,0-5.857-2.627-5.857-5.857v-13c0-1.381,1.119-2.5,2.5-2.5s2.5,1.119,2.5,2.5v13
					c0,0.473,0.385,0.857,0.857,0.857h15.785c0.473,0,0.857-0.385,0.857-0.857v-13c0-1.381,1.119-2.5,2.5-2.5s2.5,1.119,2.5,2.5v13
					C116.25,221.873,113.623,224.5,110.393,224.5z"/>
			</g>
		</g>
		<g>
			<g>
				<path d="M128,175.507c-3.962,0-7.664-1.597-10.425-4.498c-0.952-1-0.913-2.582,0.087-3.534c1-0.953,2.583-0.913,3.534,0.087
					c1.808,1.899,4.225,2.945,6.804,2.945c2.589,0,5.012-1.052,6.822-2.963c0.95-1.003,2.532-1.045,3.534-0.096
					c1.002,0.949,1.045,2.532,0.096,3.534C135.688,173.9,131.976,175.507,128,175.507z"/>
			</g>
		</g>
		<g>
			<g>
				<path d="M128,252c-0.617,0-1.233-0.227-1.714-0.681l-11.611-10.941c-0.563-0.531-0.849-1.292-0.774-2.063l6.417-65.668
					c0.134-1.375,1.356-2.378,2.731-2.245c1.374,0.134,2.379,1.357,2.245,2.731l-6.298,64.447l9.004,8.484l9.004-8.484
					l-6.298-64.446c-0.134-1.374,0.871-2.597,2.245-2.731c1.381-0.131,2.597,0.871,2.731,2.245l6.417,65.667
					c0.075,0.77-0.21,1.532-0.774,2.063l-11.611,10.941C129.233,251.773,128.617,252,128,252z"/>
			</g>
		</g>
		<g>
			<g>
				<path d="M161.393,211.5h-15.785c-3.23,0-5.857-2.627-5.857-5.857v-5.785c0-3.23,2.627-5.857,5.857-5.857h15.785
					c3.23,0,5.857,2.627,5.857,5.857v5.785C167.25,208.873,164.623,211.5,161.393,211.5z M145.607,199
					c-0.473,0-0.857,0.385-0.857,0.857v5.785c0,0.473,0.385,0.857,0.857,0.857h15.785c0.473,0,0.857-0.385,0.857-0.857v-5.785
					c0-0.473-0.385-0.857-0.857-0.857H145.607z"/>
			</g>
		</g>
		<g>
			<g>
				<path d="M110.393,211.5H94.607c-3.23,0-5.857-2.627-5.857-5.857v-5.785c0-3.23,2.627-5.857,5.857-5.857h15.785
					c3.23,0,5.857,2.627,5.857,5.857v5.785C116.25,208.873,113.623,211.5,110.393,211.5z M94.607,199
					c-0.473,0-0.857,0.385-0.857,0.857v5.785c0,0.473,0.385,0.857,0.857,0.857h15.785c0.473,0,0.857-0.385,0.857-0.857v-5.785
					c0-0.473-0.385-0.857-0.857-0.857H94.607z"/>
			</g>
		</g>
		<g>
			<g>
				<path d="M174.205,206.181c-0.226,0-0.456-0.031-0.684-0.096c-1.328-0.377-2.1-1.759-1.722-3.087l2.478-8.729
					c2.639-9.294,7.986-17.441,15.463-23.56l5.714-4.676c1.068-0.874,2.643-0.716,3.518,0.352c0.874,1.068,0.717,2.644-0.352,3.518
					l-5.714,4.676c-6.683,5.468-11.461,12.749-13.82,21.055l-2.478,8.729C176.296,205.463,175.294,206.181,174.205,206.181z"/>
			</g>
		</g>
		<g>
			<g>
				<path d="M81.796,206.181c-1.089,0-2.091-0.718-2.403-1.818l-2.478-8.729c-2.358-8.307-7.138-15.587-13.82-21.055l-6.076-4.972
					c-1.069-0.875-1.226-2.45-0.352-3.518c0.875-1.068,2.449-1.227,3.518-0.352l6.076,4.972c7.478,6.118,12.825,14.265,15.464,23.56
					l2.478,8.729c0.377,1.328-0.394,2.71-1.722,3.087C82.252,206.15,82.022,206.181,81.796,206.181z"/>
			</g>
		</g>
		<g>
			<g>
				<path d="M201.004,222.791c-0.853,0-1.708-0.177-2.492-0.519c-3.768-1.646-12.567-6.532-12.932-16.35
					c-0.033-0.88,0.235-1.767,0.755-2.499c1.644-2.32,3.213-5.753,2.682-8.419c-0.23-1.157,0.042-2.356,0.746-3.29
					c0.697-0.925,1.76-1.51,2.917-1.606c2.392-0.2,4.404-0.654,5.667-1.279c0.392-0.194,0.817-0.343,1.265-0.443
					c1.344-0.302,2.685,0.544,2.987,1.891c0.303,1.347-0.544,2.685-1.891,2.987c-0.075,0.017-0.119,0.035-0.143,0.046
					c-1.986,0.984-4.485,1.458-6.497,1.686c0.478,4.62-2.101,9.065-3.473,11.063c0.453,6.776,7.063,10.383,9.919,11.63
					c0.175,0.076,0.361,0.113,0.551,0.1c1.384-0.073,2.556,0.986,2.629,2.364c0.073,1.379-0.985,2.556-2.364,2.629
					C201.22,222.788,201.112,222.791,201.004,222.791z M190.415,206.315c0,0-0.001,0.001-0.001,0.002
					C190.414,206.317,190.414,206.316,190.415,206.315z"/>
			</g>
		</g>
		<g>
			<g>
				<path class="st8" d="M61.822,125.33c-4.498-0.838-8.043-4.31-8.898-8.716c-0.043-0.221-0.352-0.221-0.395,0
					c-0.855,4.406-4.4,7.879-8.898,8.716c-0.226,0.042-0.226,0.345,0,0.387c4.498,0.838,8.043,4.31,8.898,8.717
					c0.043,0.221,0.352,0.221,0.395,0c0.855-4.406,4.4-7.879,8.898-8.717C62.047,125.675,62.047,125.373,61.822,125.33z"/>
			</g>
		</g>
		<g>
			<g>
				<path class="st6" d="M198.246,108.75h2.33v-2.33c0-1.744,1.413-3.157,3.157-3.157s3.157,1.413,3.157,3.157v2.33h2.329
					c1.744,0,3.157,1.413,3.157,3.157s-1.413,3.157-3.157,3.157h-2.329v2.33c0,1.744-1.413,3.157-3.157,3.157
					s-3.157-1.413-3.157-3.157v-2.33h-2.33c-1.744,0-3.157-1.413-3.157-3.157S196.502,108.75,198.246,108.75z"/>
			</g>
		</g>
		<g>
			<g>
				<circle class="st7" cx="40.755" cy="154.825" r="3.377"/>
			</g>
		</g>
		<g>
			<g>
				<circle class="st9" cx="181.755" cy="3.377" r="3.377"/>
			</g>
		</g>
		<g>
			<g>
				<path class="st7" d="M206.515,17.101c-2.862-0.533-5.118-2.743-5.663-5.547c-0.027-0.141-0.224-0.141-0.251,0
					c-0.544,2.804-2.8,5.014-5.663,5.547c-0.144,0.027-0.144,0.219,0,0.246c2.862,0.533,5.118,2.743,5.663,5.547
					c0.027,0.141,0.224,0.141,0.251,0c0.544-2.804,2.8-5.014,5.663-5.547C206.658,17.32,206.658,17.128,206.515,17.101z"/>
			</g>
		</g>
	</g>
</g>
<g id="Layer_37">
</g>
<g id="Layer_38">
</g>
<g id="Layer_39">
</g>
<g id="Layer_40">
</g>
<g id="Layer_41">
</g>
<g id="Layer_42">
</g>
<g id="Layer_43">
</g>
<g id="Layer_44">
</g>
<g id="Layer_45">
</g>
<g id="Layer_46">
</g>
<g id="Layer_47">
</g>
<g id="Layer_48">
</g>
<g id="Layer_49">
</g>
<g id="Layer_50">
</g>
<g id="Layer_51">
</g>
<g id="Layer_52">
</g>
<g id="Layer_53">
</g>
<g id="Layer_54">
</g>
<g id="Layer_55">
</g>
<g id="Layer_56">
</g>
<g id="Layer_57">
</g>
<g id="Layer_58">
</g>
<g id="Layer_59">
</g>
<g id="Layer_60">
</g>
<g id="Layer_61">
</g>
<g id="Layer_62">
</g>
<g id="Layer_63">
</g>
<g id="Layer_64">
</g>
<g id="Layer_65">
</g>
<g id="Layer_66">
</g>
<g id="Layer_67">
</g>
<g id="Layer_68">
</g>
<g id="Layer_69">
</g>
<g id="Layer_70">
</g>
<g id="Layer_71">
</g>
<g id="Layer_72">
</g>
<g id="Layer_73">
</g>
<g id="Layer_74">
</g>
<g id="Layer_75">
</g>
<g id="Layer_76">
</g>
<g id="Layer_77">
</g>
<g id="Layer_78">
</g>
<g id="Layer_79">
</g>
<g id="Layer_80">
</g>
</svg>
