<?xml version="1.0" encoding="utf-8"?>
<!-- Generator: Adobe Illustrator 24.0.0, SVG Export Plug-In . SVG Version: 6.00 Build 0)  -->
<svg version="1.1" xmlns="http://www.w3.org/2000/svg" xmlns:xlink="http://www.w3.org/1999/xlink" x="0px" y="0px"
	 viewBox="0 0 256 256" style="enable-background:new 0 0 256 256;" xml:space="preserve">
<style type="text/css">
	.st0{fill:#3A70BF;}
	.st1{fill:#EDF4FC;}
	.st2{fill:#C7D7E5;}
	.st3{fill:#F9D0B4;}
	.st4{fill:#5B5D60;}
	.st5{fill:#5290DB;}
	.st6{fill:#70D6F9;}
	.st7{fill:#F5C84C;}
	.st8{fill:#FC657E;}
	.st9{fill:#87D147;}
	.st10{fill:#FCDD86;}
	.st11{fill:#9BE5F9;}
	.st12{fill:#B2E26D;}
	.st13{fill:#754E34;}
	.st14{fill:#FCA265;}
	.st15{fill:#818182;}
	.st16{fill:#F94EED;}
	.st17{fill:#FFC197;}
	.st18{fill:#3CAADC;}
	.st19{fill:#DAE6F1;}
	.st20{fill:#57AF12;}
	.st21{fill:#EF4460;}
	.st22{fill:#FFF0CA;}
	.st23{fill:#F98FA6;}
	.st24{fill:#EDB311;}
	.st25{fill:#FC8C48;}
	.st26{fill:#FCB9CB;}
	.st27{fill:#96BC71;}
	.st28{fill:#78A352;}
	.st29{fill:#B8DD90;}
	.st30{fill:#6FAFEF;}
	.st31{fill:#29589F;}
	.st32{fill:#414344;}
	.st33{fill:#9B6B4B;}
	.st34{fill:#73B1EF;}
</style>
<g id="Layer_1">
</g>
<g id="Layer_2">
</g>
<g id="Layer_3">
</g>
<g id="Layer_4">
</g>
<g id="Layer_5">
</g>
<g id="Layer_6">
</g>
<g id="Layer_7">
</g>
<g id="Layer_8">
</g>
<g id="Layer_9">
</g>
<g id="Layer_10">
</g>
<g id="Layer_11">
</g>
<g id="Layer_12">
</g>
<g id="Layer_13">
</g>
<g id="Layer_14">
</g>
<g id="Layer_15">
</g>
<g id="Layer_16">
</g>
<g id="Layer_17">
</g>
<g id="Layer_18">
</g>
<g id="Layer_19">
</g>
<g id="Layer_20">
</g>
<g id="Layer_21">
</g>
<g id="Layer_22">
</g>
<g id="Layer_23">
</g>
<g id="Layer_24">
</g>
<g id="Layer_25">
</g>
<g id="Layer_26">
</g>
<g id="Layer_27">
</g>
<g id="Layer_28">
</g>
<g id="Layer_29">
</g>
<g id="Layer_30">
</g>
<g id="Layer_31">
</g>
<g id="Layer_32">
</g>
<g id="Layer_33">
</g>
<g id="Layer_34">
</g>
<g id="Layer_35">
	<g>
		<g>
			<g>
				<path class="st0" d="M205.542,230.5h-26.035v-12h25.339l-2.335-40.261c-0.357-6.417-4.846-11.856-11.078-13.425l-26.151-6.582
					l-2.75-0.692l-3.296-1.625c-0.047,0.33-0.179,0.651-0.406,0.925l-15.054,18.224c-0.879,1.064-2.495,1.109-3.431,0.094
					l-7.992-8.658h-8.704l-7.992,8.658c-0.936,1.014-2.552,0.97-3.431-0.094L97.171,156.84c-0.227-0.275-0.358-0.596-0.406-0.925
					l-3.296,1.625l-2.751,0.692l-26.151,6.582c-6.233,1.569-10.721,7.008-11.078,13.425L51.154,218.5h25.339v12H50.458l-1.084,18.69
					c-0.13,2.34,1.732,4.31,4.076,4.31h149.098c2.344,0,4.207-1.969,4.076-4.31L205.542,230.5z"/>
			</g>
		</g>
		<g>
			<g>
				<path class="st3" d="M179.52,230.5l-0.014,23h23.042c2.344,0,4.207-1.969,4.076-4.31l-1.084-18.69H179.52z"/>
			</g>
		</g>
		<g>
			<g>
				<path class="st3" d="M50.458,230.5l-1.084,18.69c-0.13,2.34,1.732,4.31,4.076,4.31h23.042l-0.014-23H50.458z"/>
			</g>
		</g>
		<g>
			<g>
				<path class="st3" d="M90.244,78.083c-2.383-1.166-4.644-2.465-6.775-3.885c-6.443,1.895-11.151,7.843-11.151,14.899
					c0,8.581,6.956,15.537,15.537,15.537c0.847,0,1.672-0.086,2.482-0.217v-0.001c-0.055-0.826-0.094-1.656-0.094-2.495
					C90.244,98.691,90.244,86.469,90.244,78.083z"/>
			</g>
		</g>
		<g>
			<g>
				<path class="st5" d="M204.846,218.5l-2.335-40.261c-0.201-3.604-1.705-6.899-4.089-9.374l-14.523,15.876
					c-2.8,3.061-4.355,7.059-4.357,11.208l-0.013,22.55H204.846z"/>
			</g>
		</g>
		<g>
			<g>
				<path class="st3" d="M179.52,230.5l-0.014,23h23.042c2.344,0,4.207-1.969,4.076-4.31l-1.084-18.69H179.52z"/>
			</g>
		</g>
		<g>
			<g>
				<path class="st5" d="M76.472,218.5l-0.013-22.55c-0.002-4.149-1.557-8.147-4.357-11.208l-14.523-15.876
					c-2.384,2.475-3.888,5.77-4.089,9.374L51.154,218.5H76.472z"/>
			</g>
		</g>
		<g>
			<g>
				<path class="st5" d="M158.648,154.265l-8.134-7.427c-0.753-0.687-1.917-0.646-2.619,0.092l-15.687,16.491
					c-0.77,0.81-0.78,2.078-0.022,2.899l8.157,8.837c0.936,1.014,2.552,0.97,3.431-0.094l15.054-18.223
					C159.465,156.071,159.385,154.938,158.648,154.265z"/>
			</g>
		</g>
		<g>
			<g>
				<path class="st5" d="M97.352,154.265l8.134-7.427c0.753-0.687,1.917-0.646,2.619,0.092l15.687,16.491
					c0.77,0.81,0.78,2.078,0.022,2.899l-8.157,8.837c-0.936,1.014-2.552,0.97-3.431-0.094L97.171,156.84
					C96.535,156.071,96.615,154.938,97.352,154.265z"/>
			</g>
		</g>
		<g>
			<g>
				<path class="st3" d="M123.813,166.321l-0.165,0.179h8.704l-0.165-0.179c-0.758-0.821-0.748-2.089,0.022-2.899l14.884-15.648
					c-1.249-2.003-1.948-4.349-1.948-6.803v-6.335c-5.268,2.868-11.296,4.501-17.686,4.501h0c-5.959,0-11.597-1.427-16.604-3.945
					v5.778c0,2.453-0.699,4.8-1.948,6.803l14.884,15.648C124.562,164.232,124.571,165.5,123.813,166.321z"/>
			</g>
		</g>
		<g>
			<g>
				<path class="st4" d="M80.335,66.209v2.808c0,1.917,0.95,3.706,2.53,4.79c23.99,16.451,66.283,16.448,90.27,0
					c1.581-1.084,2.53-2.873,2.53-4.79v-2.808C148.44,57.675,110.64,56.71,80.335,66.209z"/>
			</g>
		</g>
		<g>
			<g>
				<path class="st3" d="M172.166,74.436c-2.345,1.535-4.852,2.919-7.492,4.152c0,7.063,0,18.833,0,23.335
					c0,0.839-0.038,1.67-0.094,2.496c0.81,0.13,1.635,0.217,2.482,0.217c8.581,0,15.537-6.956,15.537-15.537
					C182.599,82.308,178.236,76.55,172.166,74.436z"/>
			</g>
		</g>
		<g>
			<g>
				<g>
					<path class="st3" d="M90.244,78.083v23.84c0,20.468,16.747,37.215,37.215,37.215h0c20.468,0,37.215-16.747,37.215-37.215
						V78.588C142.775,88.814,111.841,88.654,90.244,78.083z"/>
				</g>
			</g>
		</g>
		<g>
			<g>
				<path class="st19" d="M185.464,25.994L143.737,6.065c-9.953-4.753-21.521-4.753-31.473,0L70.536,25.995
					c-5.473,2.614-7.184,9.582-3.545,14.434l10.661,14.215c-0.302-1.632,0.539-3.264,2.059-3.966
					c7.722-3.567,15.858-6.155,24.157-7.831c5.012-1.013,10.558-1.652,16.212-1.961c-2.58-2.332-4.836-5.615-5.001-10.057
					c-0.013-0.342,0.097-0.678,0.295-0.957c0.983-1.387,3.958-6.032,3.096-10.357c-0.188-0.942,0.46-1.836,1.417-1.916
					c1.754-0.146,4.549-0.53,6.569-1.53c0.971-0.481,2.119-0.481,3.09,0c2.02,1,4.815,1.384,6.569,1.53
					c0.957,0.08,1.605,0.973,1.417,1.916c-0.863,4.325,2.113,8.97,3.096,10.357c0.198,0.279,0.307,0.615,0.295,0.957
					c-0.165,4.439-2.419,7.72-4.996,10.052c4.916,0.27,9.603,0.788,13.756,1.539c9.413,1.701,18.417,4.489,26.61,8.261
					c1.519,0.699,2.356,2.332,2.056,3.962l10.661-14.215C192.648,35.577,190.936,28.608,185.464,25.994z"/>
			</g>
		</g>
		<g>
			<g>
				<path class="st15" d="M176.292,50.681c-8.193-3.772-17.197-6.56-26.61-8.261c-4.153-0.751-8.84-1.269-13.756-1.539
					c-2.303,2.084-4.865,3.412-6.437,4.099c-0.951,0.416-2.026,0.416-2.977,0c-1.571-0.686-4.13-2.013-6.432-4.094
					c-5.653,0.309-11.199,0.948-16.212,1.961c-8.299,1.677-16.435,4.264-24.157,7.831c-1.571,0.726-2.428,2.446-2.035,4.132
					l2.659,11.4c30.305-9.499,68.105-8.534,95.33,0l2.659-11.397C178.717,53.127,177.863,51.405,176.292,50.681z"/>
			</g>
		</g>
		<g>
			<g>
				<path class="st7" d="M140.627,29.872c-0.983-1.387-3.959-6.032-3.096-10.357c0.188-0.942-0.46-1.836-1.417-1.915
					c-1.753-0.146-4.549-0.53-6.569-1.53c-0.971-0.481-2.119-0.481-3.09,0c-2.02,1.001-4.816,1.384-6.569,1.53
					c-0.957,0.08-1.605,0.973-1.417,1.915c0.862,4.325-2.113,8.97-3.096,10.357c-0.198,0.279-0.307,0.615-0.295,0.957
					c0.313,8.405,8.102,12.696,11.433,14.151c0.951,0.415,2.026,0.415,2.977,0c3.331-1.455,11.12-5.746,11.433-14.151
					C140.934,30.487,140.825,30.151,140.627,29.872z"/>
			</g>
		</g>
		<g>
			<g>
				<path class="st5" d="M166.393,207.75h-15.785c-1.854,0-3.357-1.503-3.357-3.357v13c0,1.854,1.503,3.357,3.357,3.357h15.785
					c1.854,0,3.357-1.503,3.357-3.357v-13C169.75,206.247,168.247,207.75,166.393,207.75z"/>
			</g>
		</g>
		<g>
			<g>
				<path class="st5" d="M105.393,207.75H89.607c-1.854,0-3.357-1.503-3.357-3.357v13c0,1.854,1.503,3.357,3.357,3.357h15.785
					c1.854,0,3.357-1.503,3.357-3.357v-13C108.75,206.247,107.247,207.75,105.393,207.75z"/>
			</g>
		</g>
		<g>
			<g>
				<path class="st30" d="M205.831,218.5h-26.325v12h26.325c1.478,0,2.675-1.198,2.675-2.676v-6.649
					C208.507,219.698,207.309,218.5,205.831,218.5z"/>
			</g>
		</g>
		<g>
			<g>
				<path class="st30" d="M50.169,218.5h26.325v12H50.169c-1.478,0-2.675-1.198-2.675-2.676v-6.649
					C47.493,219.698,48.691,218.5,50.169,218.5z"/>
			</g>
		</g>
		<g>
			<g>
				<path class="st30" d="M166.393,195.25h-15.785c-1.854,0-3.357,1.503-3.357,3.357v5.785c0,1.854,1.503,3.357,3.357,3.357h15.785
					c1.854,0,3.357-1.503,3.357-3.357v-5.785C169.75,196.753,168.247,195.25,166.393,195.25z"/>
			</g>
		</g>
		<g>
			<g>
				<path class="st30" d="M105.393,195.25H89.607c-1.854,0-3.357,1.503-3.357,3.357v5.785c0,1.854,1.503,3.357,3.357,3.357h15.785
					c1.854,0,3.357-1.503,3.357-3.357v-5.785C108.75,196.753,107.247,195.25,105.393,195.25z"/>
			</g>
		</g>
		<g>
			<g>
				<path class="st4" d="M137.583,172.167l-5.231-5.667h-8.704l-5.231,5.667c2.181,2.929,5.651,4.839,9.583,4.839
					S135.402,175.096,137.583,172.167z"/>
			</g>
		</g>
		<g>
			<g>
				<path class="st15" d="M133.092,175.844c-1.545,0.736-3.264,1.163-5.092,1.163s-3.547-0.427-5.092-1.163l-6.52,65.714L128,252.5
					l11.612-10.942L133.092,175.844z"/>
			</g>
		</g>
		<g>
			<g>
				<path class="st7" d="M203.013,186.895c-0.678-0.304-1.462-0.3-2.131,0.032c-1.451,0.719-3.459,0.994-4.719,1.099
					c-0.688,0.057-1.153,0.699-1.018,1.376c0.619,3.107-1.518,6.444-2.224,7.44c-0.142,0.2-0.221,0.442-0.212,0.687
					c0.225,6.038,5.82,9.12,8.213,10.166c0.683,0.298,1.456,0.298,2.139,0c0.323-0.141,0.708-0.323,1.127-0.541L203.013,186.895z"/>
			</g>
		</g>
		<g>
			<g>
				<path d="M87.855,107.136c-9.945,0-18.037-8.092-18.037-18.038c0-7.701,4.896-14.555,12.184-17.055
					c1.31-0.449,2.729,0.248,3.176,1.554c0.448,1.306-0.247,2.728-1.553,3.176c-5.268,1.807-8.807,6.76-8.807,12.326
					c0,7.189,5.849,13.038,13.037,13.038c0.347,0,0.688-0.018,1.025-0.049c1.373-0.13,2.593,0.885,2.719,2.26
					c0.127,1.375-0.885,2.592-2.26,2.719C88.835,107.112,88.336,107.136,87.855,107.136z"/>
			</g>
		</g>
		<g>
			<g>
				<path d="M128,118.573c-4.775,0-9.262-1.949-11.999-5.215c-0.887-1.058-0.748-2.635,0.31-3.522
					c1.058-0.886,2.633-0.749,3.522,0.31c1.799,2.146,4.852,3.427,8.167,3.427s6.368-1.281,8.167-3.427
					c0.889-1.058,2.464-1.195,3.522-0.309c1.058,0.887,1.196,2.464,0.31,3.522C137.261,116.624,132.775,118.573,128,118.573z"/>
			</g>
		</g>
		<g>
			<g>
				<circle cx="144.789" cy="90.816" r="5"/>
			</g>
		</g>
		<g>
			<g>
				<circle cx="111.211" cy="90.816" r="5"/>
			</g>
		</g>
		<g>
			<g>
				<path d="M179.527,221c-0.001,0-0.001,0-0.002,0c-1.38-0.001-2.499-1.121-2.498-2.501l0.014-22.55
					c0.002-4.784,1.782-9.363,5.013-12.895l13.982-15.285c0.932-1.019,2.513-1.089,3.532-0.157c1.019,0.932,1.089,2.513,0.157,3.532
					l-13.982,15.285c-2.386,2.608-3.7,5.989-3.702,9.522l-0.014,22.551C182.026,219.882,180.907,221,179.527,221z"/>
			</g>
		</g>
		<g>
			<g>
				<path d="M179.507,255.167c-0.001,0-0.001,0-0.002,0c-1.38-0.001-2.499-1.121-2.498-2.501l0.014-22.167
					c0.001-1.38,1.12-2.499,2.5-2.499c0,0,0.001,0,0.002,0c1.38,0.001,2.499,1.121,2.498,2.501l-0.014,22.167
					C182.006,254.049,180.887,255.167,179.507,255.167z"/>
			</g>
		</g>
		<g>
			<g>
				<path d="M76.473,221c-1.38,0-2.499-1.118-2.5-2.499l-0.014-22.55c-0.002-3.533-1.316-6.915-3.702-9.522l-13.98-15.283
					c-0.932-1.019-0.861-2.6,0.157-3.532s2.601-0.862,3.532,0.157l13.98,15.283c3.23,3.531,5.011,8.11,5.013,12.895l0.014,22.55
					c0.001,1.381-1.118,2.5-2.498,2.501C76.474,221,76.473,221,76.473,221z"/>
			</g>
		</g>
		<g>
			<g>
				<path d="M76.492,254.812c-1.38,0-2.499-1.118-2.5-2.499l-0.013-21.812c-0.001-1.381,1.118-2.5,2.499-2.501h0.001
					c1.38,0,2.499,1.118,2.5,2.499l0.013,21.812C78.993,253.691,77.874,254.811,76.492,254.812L76.492,254.812z"/>
			</g>
		</g>
		<g>
			<g>
				<path d="M142.019,178.391c-1.332,0-2.605-0.556-3.512-1.538l-8.157-8.836c-1.646-1.783-1.625-4.558,0.046-6.317l15.688-16.493
					c1.628-1.712,4.37-1.807,6.116-0.216l8.134,7.427c1.724,1.573,1.909,4.215,0.422,6.014l-15.053,18.223
					c-0.879,1.063-2.174,1.695-3.553,1.733C142.106,178.391,142.063,178.391,142.019,178.391z M134.265,164.887l7.744,8.39
					l14.513-17.568l-7.238-6.609L134.265,164.887z M156.962,156.111C156.963,156.111,156.963,156.111,156.962,156.111
					L156.962,156.111L156.962,156.111z"/>
			</g>
		</g>
		<g>
			<g>
				<path d="M113.981,178.391c-0.044,0-0.088,0-0.132-0.002c-1.379-0.038-2.674-0.67-3.553-1.734l-15.054-18.223
					c-1.486-1.798-1.301-4.44,0.423-6.013l8.134-7.427c1.745-1.592,4.488-1.496,6.116,0.216l15.688,16.491
					c1.672,1.76,1.692,4.535,0.047,6.318l-8.157,8.837C116.587,177.835,115.313,178.391,113.981,178.391z M99.479,155.708
					l14.513,17.568l7.744-8.39l-15.019-15.788L99.479,155.708z M99.038,156.111L99.038,156.111L99.038,156.111
					C99.037,156.111,99.037,156.111,99.038,156.111z M97.352,154.265h0.01H97.352z"/>
			</g>
		</g>
		<g>
			<g>
				<path d="M146.785,149.751c-0.875,0-1.725-0.46-2.183-1.279c-1.281-2.286-1.958-4.879-1.958-7.5v-5.847
					c0-1.381,1.119-2.5,2.5-2.5s2.5,1.119,2.5,2.5v5.847c0,1.767,0.456,3.515,1.319,5.057c0.675,1.205,0.246,2.728-0.959,3.403
					C147.618,149.648,147.199,149.751,146.785,149.751z"/>
			</g>
		</g>
		<g>
			<g>
				<path d="M131.813,169h-7.668c-1.381,0-2.5-1.119-2.5-2.5s1.119-2.5,2.5-2.5h7.668c1.381,0,2.5,1.119,2.5,2.5
					S133.194,169,131.813,169z"/>
			</g>
		</g>
		<g>
			<g>
				<path d="M109.215,149.752c-0.414,0-0.833-0.103-1.22-0.319c-1.204-0.674-1.634-2.198-0.96-3.403
					c0.864-1.542,1.32-3.291,1.32-5.058v-5.034c0-1.381,1.119-2.5,2.5-2.5s2.5,1.119,2.5,2.5v5.034c0,2.621-0.677,5.214-1.957,7.501
					C110.939,149.291,110.09,149.752,109.215,149.752z"/>
			</g>
		</g>
		<g>
			<g>
				<path d="M202.549,256H53.451c-1.802,0-3.545-0.751-4.783-2.06c-1.237-1.309-1.89-3.091-1.789-4.889l1.025-17.694
					c0.08-1.378,1.262-2.438,2.641-2.351c1.379,0.08,2.432,1.262,2.352,2.64l-1.025,17.689c-0.024,0.434,0.128,0.851,0.43,1.169
					c0.303,0.32,0.711,0.496,1.15,0.496h149.098c0.439,0,0.848-0.176,1.15-0.496c0.302-0.319,0.454-0.736,0.43-1.174l-1.018-17.551
					c-0.08-1.378,0.973-2.561,2.352-2.64c1.399-0.084,2.561,0.974,2.641,2.351l1.018,17.556c0.101,1.803-0.552,3.585-1.789,4.894
					C206.094,255.249,204.351,256,202.549,256z"/>
			</g>
		</g>
		<g>
			<g>
				<path d="M51.203,220.2c-0.049,0-0.098-0.001-0.146-0.004c-1.379-0.08-2.432-1.262-2.352-2.64l2.288-39.461
					c0.421-7.545,5.631-13.859,12.964-15.705l28.645-7.209l3.058-1.508c0.719-0.354,1.562-0.343,2.27,0.03
					c0.654,0.344,1.12,0.959,1.278,1.677l14.784,17.897l7.82-8.472c0.474-0.513,1.14-0.804,1.837-0.804h8.703
					c0.697,0,1.363,0.292,1.837,0.804l7.82,8.472l14.784-17.897c0.158-0.717,0.623-1.333,1.278-1.677
					c0.709-0.372,1.553-0.383,2.27-0.03l3.058,1.508l28.645,7.209c7.333,1.846,12.543,8.159,12.964,15.71l2.277,39.257
					c0.08,1.378-0.973,2.561-2.352,2.64c-1.406,0.078-2.562-0.973-2.641-2.351l-2.277-39.262c-0.298-5.359-3.992-9.836-9.192-11.145
					l-28.901-7.274c-0.171-0.043-0.337-0.104-0.495-0.182l-1.268-0.625l-14.455,17.499c-0.879,1.063-2.174,1.695-3.553,1.733
					c-1.367,0.052-2.708-0.522-3.644-1.536l-7.25-7.854h-6.514l-7.25,7.854c-0.936,1.014-2.271,1.589-3.644,1.536
					c-1.379-0.038-2.674-0.67-3.553-1.734l-14.454-17.499l-1.268,0.625c-0.158,0.078-0.324,0.139-0.495,0.182l-28.902,7.274
					c-5.2,1.309-8.895,5.786-9.192,11.14l-2.288,39.466C53.62,219.174,52.518,220.2,51.203,220.2z"/>
			</g>
		</g>
		<g>
			<g>
				<path d="M128,88.622c-17.077,0.001-34.148-4.25-46.549-12.753c-2.265-1.553-3.616-4.114-3.616-6.852v-2.454
					c0-1.381,1.119-2.5,2.5-2.5s2.5,1.119,2.5,2.5v2.454c0,1.088,0.54,2.108,1.444,2.728c23.289,15.972,64.15,15.972,87.441,0
					c0.904-0.62,1.444-1.64,1.444-2.728v-2.371c0-1.381,1.119-2.5,2.5-2.5s2.5,1.119,2.5,2.5v2.371c0,2.738-1.352,5.299-3.616,6.852
					C162.151,84.37,145.073,88.621,128,88.622z"/>
			</g>
		</g>
		<g>
			<g>
				<path d="M167.063,107.136c-0.629,0-1.265-0.039-1.943-0.118c-1.372-0.16-2.354-1.402-2.193-2.773
					c0.161-1.371,1.396-2.354,2.773-2.192c0.484,0.057,0.931,0.084,1.363,0.084c7.188,0,13.037-5.849,13.037-13.038
					c0-5.329-3.199-10.068-8.151-12.073c-1.279-0.519-1.897-1.976-1.379-3.256c0.518-1.279,1.977-1.897,3.256-1.379
					c6.849,2.773,11.274,9.332,11.274,16.708C185.1,99.044,177.008,107.136,167.063,107.136z"/>
			</g>
		</g>
		<g>
			<g>
				<g>
					<path d="M127.459,141.638c-21.898,0-39.715-17.816-39.715-39.715V78.75c0-1.381,1.119-2.5,2.5-2.5s2.5,1.119,2.5,2.5v23.173
						c0,19.142,15.573,34.715,34.715,34.715s34.715-15.573,34.715-34.715V79.042c0-1.381,1.119-2.5,2.5-2.5s2.5,1.119,2.5,2.5
						v22.881C167.174,123.822,149.357,141.638,127.459,141.638z"/>
				</g>
			</g>
		</g>
		<g>
			<g>
				<path d="M178.521,56.909c-0.522,0-1.048-0.163-1.498-0.5c-1.104-0.829-1.328-2.396-0.5-3.5l10.485-13.98
					c1.283-1.711,1.727-3.884,1.217-5.96c-0.511-2.077-1.91-3.796-3.839-4.718L142.659,8.321c-9.316-4.449-20.002-4.449-29.318,0
					L71.613,28.25c-1.929,0.921-3.328,2.641-3.838,4.717c-0.511,2.077-0.067,4.25,1.216,5.961l10.467,13.956
					c0.828,1.104,0.604,2.671-0.5,3.5c-1.104,0.828-2.672,0.604-3.5-0.5L64.991,41.929c-2.186-2.915-2.941-6.616-2.072-10.153
					s3.253-6.467,6.54-8.037l41.728-19.93c10.686-5.104,22.941-5.104,33.627,0l41.728,19.929c3.287,1.57,5.671,4.5,6.54,8.037
					c0.869,3.538,0.113,7.239-2.072,10.153l-10.485,13.98C180.032,56.564,179.281,56.909,178.521,56.909z"/>
			</g>
		</g>
		<g>
			<g>
				<path d="M175.665,68.709c-0.251,0-0.503-0.038-0.748-0.114c-28.498-8.934-65.332-8.934-93.834,0
					c-0.666,0.207-1.384,0.13-1.988-0.215c-0.604-0.345-1.036-0.926-1.194-1.603l-2.659-11.4c-0.657-2.82,0.782-5.75,3.422-6.969
					c7.71-3.562,16.023-6.257,24.71-8.013c4.876-0.985,10.351-1.654,16.273-1.99c1.428-0.064,2.56,0.977,2.638,2.355
					c0.078,1.378-0.977,2.559-2.354,2.637c-5.687,0.322-10.924,0.961-15.566,1.899c-8.306,1.678-16.247,4.252-23.604,7.65
					c-0.498,0.229-0.771,0.774-0.649,1.295l2.054,8.804c28.16-8.181,63.512-8.181,91.672,0l2.054-8.802
					c0.121-0.521-0.149-1.064-0.644-1.292c-7.998-3.683-16.749-6.398-26.009-8.072c-3.914-0.707-8.295-1.204-13.02-1.479
					c-1.379-0.08-2.432-1.262-2.352-2.64c0.08-1.378,1.269-2.429,2.641-2.351c4.926,0.286,9.508,0.807,13.619,1.55
					c9.676,1.749,18.831,4.591,27.212,8.45c2.64,1.216,4.079,4.147,3.421,6.969L178.1,66.777c-0.158,0.677-0.591,1.258-1.194,1.603
					C176.523,68.598,176.096,68.709,175.665,68.709z"/>
			</g>
		</g>
		<g>
			<g>
				<path class="st7" d="M204.822,108.33c-4.498-0.838-8.043-4.31-8.898-8.716c-0.043-0.221-0.352-0.221-0.395,0
					c-0.855,4.406-4.4,7.879-8.898,8.716c-0.226,0.042-0.226,0.345,0,0.387c4.498,0.838,8.043,4.31,8.898,8.717
					c0.043,0.221,0.352,0.221,0.395,0c0.855-4.406,4.4-7.879,8.898-8.717C205.047,108.675,205.047,108.373,204.822,108.33z"/>
			</g>
		</g>
		<g>
			<g>
				<path class="st8" d="M202.515,15.101c-2.862-0.533-5.118-2.743-5.663-5.547c-0.027-0.141-0.224-0.141-0.251,0
					c-0.544,2.804-2.8,5.014-5.663,5.547c-0.144,0.027-0.144,0.219,0,0.246c2.862,0.533,5.118,2.743,5.663,5.547
					c0.027,0.141,0.224,0.141,0.251,0c0.544-2.804,2.8-5.014,5.663-5.547C202.658,15.32,202.658,15.128,202.515,15.101z"/>
			</g>
		</g>
		<g>
			<g>
				<path class="st6" d="M58.246,120.75h2.33v-2.33c0-1.744,1.413-3.157,3.157-3.157s3.157,1.413,3.157,3.157v2.33h2.329
					c1.744,0,3.157,1.413,3.157,3.157s-1.413,3.157-3.157,3.157h-2.329v2.33c0,1.744-1.413,3.157-3.157,3.157
					s-3.157-1.413-3.157-3.157v-2.33h-2.33c-1.744,0-3.157-1.413-3.157-3.157S56.502,120.75,58.246,120.75z"/>
			</g>
		</g>
		<g>
			<g>
				<circle class="st9" cx="48.755" cy="152.825" r="3.377"/>
			</g>
		</g>
		<g>
			<g>
				<circle class="st6" cx="177.755" cy="3.377" r="3.377"/>
			</g>
		</g>
		<g>
			<g>
				<path d="M158.5,222c-1.381,0-2.5-1.119-2.5-2.5v-10c0-1.381,1.119-2.5,2.5-2.5s2.5,1.119,2.5,2.5v10
					C161,220.881,159.881,222,158.5,222z"/>
			</g>
		</g>
		<g>
			<g>
				<path d="M97.5,222c-1.381,0-2.5-1.119-2.5-2.5v-10c0-1.381,1.119-2.5,2.5-2.5s2.5,1.119,2.5,2.5v10
					C100,220.881,98.881,222,97.5,222z"/>
			</g>
		</g>
		<g>
			<g>
				<path d="M128,239c-1.381,0-2.5-1.119-2.5-2.5v-3c0-1.381,1.119-2.5,2.5-2.5s2.5,1.119,2.5,2.5v3
					C130.5,237.881,129.381,239,128,239z"/>
			</g>
		</g>
		<g>
			<g>
				<path d="M188.857,180.388c-0.228,0-0.458-0.031-0.688-0.097l-37.713-10.775c-1.328-0.379-2.097-1.763-1.718-3.091
					c0.38-1.328,1.762-2.096,3.091-1.717l37.713,10.775c1.328,0.379,2.097,1.763,1.718,3.091
					C190.946,179.672,189.945,180.388,188.857,180.388z"/>
			</g>
		</g>
		<g>
			<g>
				<path d="M67.143,180.388c-1.088,0-2.089-0.715-2.403-1.813c-0.379-1.328,0.39-2.711,1.718-3.091l37.713-10.775
					c1.325-0.379,2.71,0.389,3.091,1.717c0.379,1.328-0.39,2.711-1.718,3.091L67.83,180.292
					C67.601,180.357,67.37,180.388,67.143,180.388z"/>
			</g>
		</g>
		<g>
			<g>
				<path d="M128,47.789c-0.849,0-1.698-0.173-2.489-0.518c-3.767-1.646-12.565-6.532-12.931-16.35
					c-0.033-0.878,0.235-1.765,0.754-2.497c1.646-2.321,3.215-5.754,2.683-8.421c-0.229-1.156,0.042-2.354,0.746-3.289
					c0.696-0.924,1.759-1.51,2.916-1.606c2.393-0.2,4.405-0.654,5.667-1.279c1.662-0.823,3.646-0.823,5.31,0
					c1.261,0.625,3.273,1.079,5.666,1.279c1.156,0.096,2.22,0.682,2.916,1.606c0.704,0.935,0.976,2.133,0.746,3.289
					c-0.533,2.669,1.036,6.101,2.683,8.422c0.519,0.731,0.787,1.618,0.754,2.496c-0.365,9.817-9.164,14.704-12.931,16.35
					C129.698,47.616,128.849,47.789,128,47.789z M117.593,31.059c0.452,6.776,7.063,10.383,9.92,11.63
					c0.314,0.138,0.66,0.138,0.975,0c2.856-1.248,9.468-4.854,9.92-11.63c-1.374-1.997-3.952-6.44-3.474-11.063
					c-2.013-0.228-4.512-0.702-6.498-1.686c-0.273-0.135-0.599-0.135-0.87,0c-1.987,0.984-4.487,1.458-6.499,1.686
					C121.543,24.616,118.966,29.061,117.593,31.059z M138.588,31.318h0.011H138.588z M138.588,31.318L138.588,31.318L138.588,31.318
					z"/>
			</g>
		</g>
		<g>
			<g>
				<path d="M166.393,223.25h-15.785c-3.229,0-5.857-2.627-5.857-5.857v-13c0-1.381,1.119-2.5,2.5-2.5s2.5,1.119,2.5,2.5v13
					c0,0.473,0.385,0.857,0.857,0.857h15.785c0.473,0,0.857-0.385,0.857-0.857v-13c0-1.381,1.119-2.5,2.5-2.5s2.5,1.119,2.5,2.5v13
					C172.25,220.623,169.622,223.25,166.393,223.25z"/>
			</g>
		</g>
		<g>
			<g>
				<path d="M105.393,223.25H89.607c-3.229,0-5.857-2.627-5.857-5.857v-13c0-1.381,1.119-2.5,2.5-2.5s2.5,1.119,2.5,2.5v13
					c0,0.473,0.385,0.857,0.857,0.857h15.785c0.473,0,0.857-0.385,0.857-0.857v-13c0-1.381,1.119-2.5,2.5-2.5s2.5,1.119,2.5,2.5v13
					C111.25,220.623,108.622,223.25,105.393,223.25z"/>
			</g>
		</g>
		<g>
			<g>
				<path d="M205.831,233h-26.324c-1.381,0-2.5-1.119-2.5-2.5v-12c0-1.381,1.119-2.5,2.5-2.5h26.324
					c2.854,0,5.176,2.322,5.176,5.175v6.649C211.007,230.678,208.685,233,205.831,233z M182.007,228h23.824
					c0.097,0,0.176-0.079,0.176-0.175v-6.649c0-0.097-0.079-0.175-0.176-0.175h-23.824V228z"/>
			</g>
		</g>
		<g>
			<g>
				<path d="M76.493,233H50.169c-2.854,0-5.176-2.322-5.176-5.176v-6.649c0-2.854,2.322-5.175,5.176-5.175h26.324
					c1.381,0,2.5,1.119,2.5,2.5v12C78.993,231.881,77.874,233,76.493,233z M50.169,221c-0.097,0-0.176,0.079-0.176,0.175v6.649
					c0,0.097,0.079,0.176,0.176,0.176h23.824v-7H50.169z"/>
			</g>
		</g>
		<g>
			<g>
				<path d="M166.393,210.25h-15.785c-3.229,0-5.857-2.627-5.857-5.857v-5.785c0-3.23,2.628-5.857,5.857-5.857h15.785
					c3.229,0,5.857,2.627,5.857,5.857v5.785C172.25,207.623,169.622,210.25,166.393,210.25z M150.607,197.75
					c-0.473,0-0.857,0.385-0.857,0.857v5.785c0,0.473,0.385,0.857,0.857,0.857h15.785c0.473,0,0.857-0.385,0.857-0.857v-5.785
					c0-0.473-0.385-0.857-0.857-0.857H150.607z"/>
			</g>
		</g>
		<g>
			<g>
				<path d="M105.393,210.25H89.607c-3.229,0-5.857-2.627-5.857-5.857v-5.785c0-3.23,2.628-5.857,5.857-5.857h15.785
					c3.229,0,5.857,2.627,5.857,5.857v5.785C111.25,207.623,108.622,210.25,105.393,210.25z M89.607,197.75
					c-0.473,0-0.857,0.385-0.857,0.857v5.785c0,0.473,0.385,0.857,0.857,0.857h15.785c0.473,0,0.857-0.385,0.857-0.857v-5.785
					c0-0.473-0.385-0.857-0.857-0.857H89.607z"/>
			</g>
		</g>
		<g>
			<g>
				<path d="M128,179.507c-4.278,0-8.315-1.895-11.077-5.2c-0.886-1.059-0.745-2.636,0.314-3.521
					c1.06-0.886,2.637-0.745,3.521,0.314c1.81,2.165,4.448,3.406,7.241,3.406c2.731,0,5.333-1.197,7.137-3.284
					c0.905-1.044,2.482-1.159,3.526-0.256c1.045,0.903,1.159,2.482,0.257,3.526C136.165,177.68,132.185,179.507,128,179.507z"/>
			</g>
		</g>
		<g>
			<g>
				<path d="M128,255c-0.616,0-1.233-0.227-1.715-0.681l-11.611-10.941c-0.563-0.531-0.85-1.295-0.772-2.066l6.434-64.843
					c0.136-1.374,1.36-2.372,2.734-2.241c1.374,0.136,2.377,1.361,2.24,2.735l-6.312,63.62l9.002,8.483l9.002-8.483l-6.323-63.74
					c-0.137-1.374,0.866-2.598,2.24-2.734c1.389-0.143,2.598,0.867,2.734,2.241l6.445,64.963c0.077,0.771-0.209,1.535-0.772,2.066
					l-11.611,10.941C129.233,254.773,128.616,255,128,255z"/>
			</g>
		</g>
		<g>
			<g>
				<path d="M201.991,210.417c-0.705,0-1.411-0.143-2.069-0.43c-2.828-1.236-9.434-4.914-9.711-12.364
					c-0.028-0.788,0.21-1.579,0.672-2.228c1.046-1.476,2.149-3.804,1.811-5.503c-0.205-1.027,0.037-2.093,0.663-2.924
					c0.621-0.825,1.568-1.347,2.6-1.432c1.608-0.135,3-0.444,3.816-0.848c0.771-0.382,1.639-0.555,2.502-0.505
					c1.33,0.08,2.24,1.188,2.227,2.521c-0.014,1.331-1.19,2.415-2.52,2.47c-1.298,0.64-2.86,0.994-4.228,1.189
					c0.071,3.134-1.526,6.036-2.516,7.522c0.437,4.332,4.786,6.691,6.685,7.521c0.045,0.02,0.092,0.019,0.137,0
					c1.259-0.554,2.738,0.023,3.292,1.29c0.553,1.265-0.024,2.739-1.29,3.292C203.404,210.273,202.698,210.417,201.991,210.417z"/>
			</g>
		</g>
	</g>
</g>
<g id="Layer_36">
</g>
<g id="Layer_37">
</g>
<g id="Layer_38">
</g>
<g id="Layer_39">
</g>
<g id="Layer_40">
</g>
<g id="Layer_41">
</g>
<g id="Layer_42">
</g>
<g id="Layer_43">
</g>
<g id="Layer_44">
</g>
<g id="Layer_45">
</g>
<g id="Layer_46">
</g>
<g id="Layer_47">
</g>
<g id="Layer_48">
</g>
<g id="Layer_49">
</g>
<g id="Layer_50">
</g>
<g id="Layer_51">
</g>
<g id="Layer_52">
</g>
<g id="Layer_53">
</g>
<g id="Layer_54">
</g>
<g id="Layer_55">
</g>
<g id="Layer_56">
</g>
<g id="Layer_57">
</g>
<g id="Layer_58">
</g>
<g id="Layer_59">
</g>
<g id="Layer_60">
</g>
<g id="Layer_61">
</g>
<g id="Layer_62">
</g>
<g id="Layer_63">
</g>
<g id="Layer_64">
</g>
<g id="Layer_65">
</g>
<g id="Layer_66">
</g>
<g id="Layer_67">
</g>
<g id="Layer_68">
</g>
<g id="Layer_69">
</g>
<g id="Layer_70">
</g>
<g id="Layer_71">
</g>
<g id="Layer_72">
</g>
<g id="Layer_73">
</g>
<g id="Layer_74">
</g>
<g id="Layer_75">
</g>
<g id="Layer_76">
</g>
<g id="Layer_77">
</g>
<g id="Layer_78">
</g>
<g id="Layer_79">
</g>
<g id="Layer_80">
</g>
</svg>
