<?xml version="1.0" encoding="utf-8"?>
<!-- Generator: Adobe Illustrator 24.0.0, SVG Export Plug-In . SVG Version: 6.00 Build 0)  -->
<svg version="1.1" xmlns="http://www.w3.org/2000/svg" xmlns:xlink="http://www.w3.org/1999/xlink" x="0px" y="0px"
	 viewBox="0 0 256 256" style="enable-background:new 0 0 256 256;" xml:space="preserve">
<style type="text/css">
	.st0{fill:#3A70BF;}
	.st1{fill:#EDF4FC;}
	.st2{fill:#C7D7E5;}
	.st3{fill:#F9D0B4;}
	.st4{fill:#5B5D60;}
	.st5{fill:#5290DB;}
	.st6{fill:#70D6F9;}
	.st7{fill:#F5C84C;}
	.st8{fill:#FC657E;}
	.st9{fill:#87D147;}
	.st10{fill:#FCDD86;}
	.st11{fill:#9BE5F9;}
	.st12{fill:#B2E26D;}
	.st13{fill:#754E34;}
	.st14{fill:#FCA265;}
	.st15{fill:#818182;}
	.st16{fill:#F94EED;}
	.st17{fill:#FFC197;}
	.st18{fill:#3CAADC;}
	.st19{fill:#DAE6F1;}
	.st20{fill:#57AF12;}
	.st21{fill:#EF4460;}
	.st22{fill:#FFF0CA;}
	.st23{fill:#F98FA6;}
	.st24{fill:#EDB311;}
	.st25{fill:#FC8C48;}
	.st26{fill:#FCB9CB;}
	.st27{fill:#96BC71;}
	.st28{fill:#78A352;}
	.st29{fill:#B8DD90;}
	.st30{fill:#6FAFEF;}
	.st31{fill:#29589F;}
	.st32{fill:#414344;}
	.st33{fill:#9B6B4B;}
	.st34{fill:#73B1EF;}
</style>
<g id="Layer_1">
</g>
<g id="Layer_2">
</g>
<g id="Layer_3">
</g>
<g id="Layer_4">
</g>
<g id="Layer_5">
</g>
<g id="Layer_6">
</g>
<g id="Layer_7">
</g>
<g id="Layer_8">
</g>
<g id="Layer_9">
</g>
<g id="Layer_10">
</g>
<g id="Layer_11">
</g>
<g id="Layer_12">
</g>
<g id="Layer_13">
</g>
<g id="Layer_14">
</g>
<g id="Layer_15">
</g>
<g id="Layer_16">
</g>
<g id="Layer_17">
</g>
<g id="Layer_18">
</g>
<g id="Layer_19">
</g>
<g id="Layer_20">
</g>
<g id="Layer_21">
</g>
<g id="Layer_22">
</g>
<g id="Layer_23">
</g>
<g id="Layer_24">
</g>
<g id="Layer_25">
</g>
<g id="Layer_26">
</g>
<g id="Layer_27">
</g>
<g id="Layer_28">
</g>
<g id="Layer_29">
	<g>
		<g>
			<g>
				<g>
					<path class="st3" d="M68.81,78.122v23.801c0,20.468,16.747,37.215,37.215,37.215h0c20.468,0,37.215-16.747,37.215-37.215
						V78.627C121.341,88.854,90.407,88.693,68.81,78.122z"/>
				</g>
			</g>
		</g>
		<g>
			<g>
				<path class="st3" d="M150.77,74.45c-2.356,1.545-4.875,2.937-7.53,4.177c0,7.068,0,18.803,0,23.296
					c0,0.839-0.038,1.67-0.094,2.496c0.81,0.13,1.635,0.217,2.482,0.217c8.581,0,15.537-6.956,15.537-15.537
					C161.165,82.322,156.82,76.575,150.77,74.45z"/>
			</g>
		</g>
		<g>
			<g>
				<path class="st3" d="M68.81,78.122c-2.399-1.174-4.675-2.482-6.818-3.912c-6.421,1.908-11.108,7.847-11.108,14.888
					c0,8.581,6.956,15.537,15.538,15.537c0.847,0,1.672-0.086,2.482-0.217v-0.001c-0.055-0.826-0.094-1.656-0.094-2.495
					C68.81,98.696,68.81,86.506,68.81,78.122z"/>
			</g>
		</g>
		<g>
			<g>
				<g>
					<path class="st19" d="M105.888,216.654c0.148,0.463,0.263,0.935,0.363,1.409c0.021,0.099,0.04,0.199,0.058,0.299
						c0.089,0.471,0.16,0.945,0.201,1.423c0,0,0,0,0,0.001l0,0c0.035,0.405,0.056,0.812,0.056,1.22c0-0.408,0.021-0.815,0.056-1.22
						l0,0c0,0,0,0,0,0c0.041-0.478,0.112-0.952,0.201-1.423c0.019-0.1,0.038-0.199,0.058-0.299c0.1-0.474,0.215-0.946,0.363-1.409
						l21.039-65.86c-2.856-2.409-4.572-5.982-4.572-9.822v-6.335c-5.268,2.868-11.296,4.501-17.686,4.501h0
						c-5.959,0-11.597-1.427-16.604-3.945v5.778c0,3.84-1.716,7.412-4.572,9.822L105.888,216.654z"/>
				</g>
			</g>
		</g>
		<g>
			<g>
				<path class="st15" d="M58.901,66.248v2.808c0,1.917,0.95,3.706,2.53,4.79c23.99,16.451,66.283,16.448,90.27,0
					c1.581-1.084,2.53-2.873,2.53-4.79v-2.808C127.005,57.714,89.206,56.749,58.901,66.248z"/>
			</g>
		</g>
		<g>
			<g>
				<path class="st0" d="M154.923,50.75c-12.305-5.676-26.443-9.13-41.051-10.015c0.443,1.304,0.694,2.745,0.694,4.265
					c0,5.799-3.582,10.5-8,10.5s-8-4.701-8-10.5c0-1.525,0.253-2.971,0.699-4.279c-14.062,0.813-28.141,4.049-41.058,10.028
					c-1.545,0.715-2.351,2.441-1.965,4.099l2.659,11.4c30.305-9.499,68.105-8.534,95.33,0l2.659-11.397
					C157.277,53.192,156.47,51.464,154.923,50.75z"/>
			</g>
		</g>
		<g>
			<g>
				<path class="st5" d="M167.572,40.3c-5.642-9.874-27.153-33.853-61.007-33.853c-33.853,0-55.364,23.979-61.007,33.853
					c-4.184,7.322,5.591,13.09,10.924,15.584l-0.241-1.036c-0.387-1.658,0.42-3.384,1.965-4.099
					c12.918-5.979,26.996-9.215,41.058-10.028c1.249-3.664,4.045-6.221,7.301-6.221c3.26,0,6.06,2.563,7.306,6.235
					c14.608,0.885,28.746,4.339,41.051,10.015c1.547,0.714,2.354,2.442,1.967,4.101l-0.241,1.032
					C161.983,53.389,171.756,47.622,167.572,40.3z"/>
			</g>
		</g>
		<g>
			<g>
				<ellipse class="st7" cx="106.566" cy="45" rx="8" ry="10.5"/>
			</g>
		</g>
		<g>
			<g>
				<path class="st0" d="M144.082,249.445v-22.72h-10.362c-2.24,0-4.055-1.816-4.055-4.056v-47.053v-0.447
					c0-2.24,1.816-4.055,4.055-4.055h45.034c-1.971-3.06-5.05-5.367-8.755-6.299l-28.902-7.275l-10.215-5.037
					c-0.947-0.467-1.813-1.047-2.599-1.709l-21.039,65.86c-0.449,1.407-0.678,2.875-0.678,4.352V253.5h41.571
					C145.897,253.5,144.082,251.684,144.082,249.445z"/>
			</g>
		</g>
		<g>
			<g>
				<path class="st0" d="M106.566,221.006c0-1.477-0.229-2.945-0.678-4.352l-21.039-65.86c-0.785,0.662-1.652,1.242-2.599,1.709
					l-10.215,5.037l-28.902,7.275c-6.233,1.569-10.721,7.008-11.078,13.425l-4.115,70.951c-0.13,2.34,1.732,4.31,4.076,4.31h74.549
					V221.006z"/>
			</g>
		</g>
		<g>
			<g>
				<path class="st5" d="M129.664,175.615v-0.447c0-2.24,1.816-4.055,4.055-4.055h9.222c0.49-0.417,0.742-1.071,0.621-1.733
					l-2.138-11.759l-0.328-0.083l-10.215-5.037c-0.947-0.467-1.813-1.047-2.599-1.709l-21.039,65.86
					c-0.325,1.018-0.531,2.069-0.622,3.132l23.042-23.042V175.615z"/>
			</g>
		</g>
		<g>
			<g>
				<path class="st5" d="M70.699,171.423l7.319,2.928c1.026,0.411,1.464,1.625,0.934,2.596l-4.733,8.677
					c-0.392,0.718-0.264,1.609,0.315,2.187l31.975,31.975c-0.091-1.063-0.297-2.113-0.622-3.132l-21.039-65.86
					c-0.785,0.662-1.652,1.242-2.599,1.709l-10.215,5.037l-0.328,0.083l-2.138,11.759C69.412,170.243,69.885,171.097,70.699,171.423
					z"/>
			</g>
		</g>
		<g>
			<g>
				<g>
					<path class="st3" d="M110.774,161.422l14.195-14.922c-0.811-1.696-1.258-3.576-1.258-5.528v-6.335
						c-5.268,2.868-11.296,4.501-17.686,4.501h0c-5.959,0-11.597-1.427-16.604-3.945v5.778c0,1.951-0.447,3.832-1.258,5.528
						l14.195,14.922c0.417,0.438,0.603,1.01,0.573,1.573c1.022,0.086,2.051,0.143,3.094,0.143h0c1.411,0,2.796-0.104,4.167-0.26
						C110.193,162.354,110.387,161.83,110.774,161.422z"/>
				</g>
			</g>
		</g>
		<g>
			<g>
				<path class="st1" d="M124.969,146.5l-14.195,14.922c-0.77,0.81-0.78,2.078-0.022,2.899l8.157,8.837
					c0.535,0.58,1.291,0.802,2.006,0.697l7.367-23.061C126.878,149.609,125.753,148.141,124.969,146.5z"/>
			</g>
		</g>
		<g>
			<g>
				<path class="st1" d="M88.163,146.5c-0.785,1.641-1.909,3.109-3.314,4.294l7.367,23.061c0.715,0.105,1.471-0.117,2.006-0.697
					l8.157-8.837c0.758-0.821,0.748-2.089-0.022-2.899L88.163,146.5z"/>
			</g>
		</g>
		<g>
			<g>
				<path class="st8" d="M106.881,218.063c0.1-0.474,0.215-0.946,0.363-1.409l8.2-25.671l-3.858-19.808
					c-1.467,0.886-3.181,1.406-5.021,1.406s-3.553-0.519-5.021-1.406l-3.858,19.808l8.2,25.671c0.148,0.463,0.263,0.935,0.363,1.409
					c0.021,0.099,0.04,0.199,0.058,0.299c0.089,0.471,0.16,0.945,0.201,1.423c0,0,0,0,0,0.001c0.035,0.405,0.056,0.812,0.056,1.22
					c0-0.408,0.021-0.815,0.056-1.22c0,0,0,0,0,0c0.041-0.478,0.112-0.952,0.201-1.423
					C106.842,218.262,106.861,218.162,106.881,218.063z"/>
			</g>
		</g>
		<g>
			<g>
				<g>
					<path class="st8" d="M110.753,164.321c-0.376-0.408-0.562-0.926-0.561-1.443v0c-1.371,0.155-2.756,0.26-4.167,0.26h0
						c-1.043,0-2.072-0.058-3.094-0.143c-0.025,0.478-0.203,0.949-0.551,1.326l-3.784,4.1c1.76,2.513,4.67,4.161,7.971,4.161
						s6.211-1.647,7.971-4.161L110.753,164.321z"/>
				</g>
			</g>
		</g>
		<g>
			<g>
				<path class="st1" d="M224.011,197.889h-75.873c-2.24,0-4.055,1.816-4.055,4.055v47.5c0,2.24,1.816,4.055,4.055,4.055h75.873
					c2.24,0,4.055-1.816,4.055-4.055v-47.5C228.066,199.705,226.25,197.889,224.011,197.889z"/>
			</g>
		</g>
		<g>
			<g>
				<path class="st19" d="M144.082,201.944c0-2.24,1.816-4.055,4.055-4.055h65.511v-22.72c0-2.24-1.816-4.055-4.055-4.055h-75.873
					c-2.24,0-4.055,1.816-4.055,4.055v47.5c0,2.24,1.816,4.055,4.055,4.055h10.362V201.944z"/>
			</g>
		</g>
		<g>
			<g>
				<path class="st8" d="M224.011,197.889h-75.873c-2.24,0-4.055,1.816-4.055,4.055v0.447c0,4.908,3.978,8.886,8.886,8.886h66.212
					c4.908,0,8.886-3.978,8.886-8.886v-0.447C228.066,199.705,226.25,197.889,224.011,197.889z"/>
			</g>
		</g>
		<g>
			<g>
				<path class="st8" d="M209.593,171.113h-75.873c-2.24,0-4.055,1.816-4.055,4.055v0.447c0,4.908,3.978,8.886,8.886,8.886h66.212
					c4.908,0,8.886-3.978,8.886-8.886v-0.447C213.648,172.929,211.833,171.113,209.593,171.113z"/>
			</g>
		</g>
		<g>
			<g>
				<path class="st7" d="M214.978,232.903h-10.437c-1.099,0-1.99,0.891-1.99,1.99v5.288c0,1.099,0.891,1.991,1.99,1.991h10.437
					c1.099,0,1.99-0.891,1.99-1.991v-5.288C216.969,233.794,216.078,232.903,214.978,232.903z"/>
			</g>
		</g>
		<g>
			<g>
				<path d="M106.566,118.573c-4.777,0-9.263-1.95-11.999-5.215c-0.887-1.059-0.748-2.635,0.311-3.522
					c1.058-0.887,2.636-0.748,3.521,0.31c1.798,2.146,4.852,3.427,8.167,3.427s6.368-1.281,8.166-3.426
					c0.888-1.059,2.466-1.196,3.521-0.31c1.059,0.887,1.197,2.464,0.311,3.522C115.828,116.624,111.343,118.573,106.566,118.573z"/>
			</g>
		</g>
		<g>
			<g>
				<circle cx="123.355" cy="90.816" r="5"/>
			</g>
		</g>
		<g>
			<g>
				<circle cx="89.776" cy="90.816" r="5"/>
			</g>
		</g>
		<g>
			<g>
				<g>
					<path d="M106.024,141.638c-21.898,0-39.715-17.816-39.715-39.715V78.123c0-0.863,0.444-1.665,1.177-2.121
						c0.731-0.456,1.647-0.503,2.422-0.125c20.742,10.152,51.137,10.355,72.273,0.485c0.773-0.362,1.679-0.303,2.4,0.156
						c0.721,0.459,1.157,1.254,1.157,2.109v23.296C145.739,123.822,127.923,141.638,106.024,141.638z M71.31,82.004v19.919
						c0,19.142,15.573,34.715,34.715,34.715s34.715-15.573,34.715-34.715V82.438C119.589,90.967,92.151,90.793,71.31,82.004z"/>
				</g>
			</g>
		</g>
		<g>
			<g>
				<path d="M145.628,107.136c-0.572,0-1.148-0.032-1.761-0.098c-1.373-0.147-2.366-1.38-2.219-2.753
					c0.147-1.372,1.378-2.364,2.752-2.219c0.434,0.047,0.836,0.069,1.228,0.069c7.188,0,13.037-5.849,13.037-13.038
					c0-5.301-3.176-10.03-8.092-12.049c-1.276-0.524-1.887-1.985-1.362-3.262s1.984-1.888,3.263-1.363
					c6.799,2.792,11.191,9.337,11.191,16.674C163.665,99.044,155.573,107.136,145.628,107.136z"/>
			</g>
		</g>
		<g>
			<g>
				<path d="M66.422,107.136c-9.946,0-18.038-8.092-18.038-18.038c0-7.504,4.73-14.3,11.771-16.91
					c1.297-0.478,2.734,0.181,3.213,1.476c0.48,1.294-0.181,2.733-1.475,3.213c-5.09,1.886-8.509,6.797-8.509,12.221
					c0,7.189,5.849,13.038,13.038,13.038c0.346,0,0.688-0.018,1.026-0.049c1.371-0.132,2.592,0.886,2.718,2.26
					c0.127,1.375-0.886,2.592-2.261,2.718C67.4,107.112,66.901,107.136,66.422,107.136z"/>
			</g>
		</g>
		<g>
			<g>
				<path d="M55.021,255.04c-1.381,0-2.5-1.119-2.5-2.5v-56.644c0-1.381,1.119-2.5,2.5-2.5s2.5,1.119,2.5,2.5v56.644
					C57.521,253.92,56.402,255.04,55.021,255.04z"/>
			</g>
		</g>
		<g>
			<g>
				<g>
					<path d="M106.565,223.506c-1.381,0-2.5-1.119-2.5-2.5c0-0.336-0.018-0.67-0.046-1.004c-0.031-0.358-0.086-0.742-0.168-1.176
						l-0.045-0.235c-0.101-0.478-0.195-0.847-0.3-1.174c0,0,0-0.001-0.001-0.002l-21.039-65.86c-0.308-0.964-0.004-2.019,0.77-2.671
						c2.342-1.976,3.685-4.859,3.685-7.911v-5.778c0-0.867,0.449-1.673,1.188-2.128c0.739-0.455,1.66-0.494,2.436-0.106
						c4.855,2.441,10.063,3.678,15.48,3.678c5.745,0,11.448-1.451,16.491-4.197c0.775-0.421,1.714-0.403,2.473,0.046
						c0.758,0.451,1.223,1.268,1.223,2.149v6.335c0,3.052,1.343,5.936,3.685,7.911c0.773,0.652,1.077,1.707,0.77,2.671
						l-21.039,65.86c-0.104,0.327-0.2,0.697-0.3,1.167l-0.045,0.236c-0.083,0.442-0.138,0.826-0.168,1.182
						c-0.029,0.336-0.048,0.671-0.048,1.007C109.065,222.387,107.946,223.506,106.565,223.506z M87.708,151.529l18.857,59.033
						l18.858-59.033c-2.695-2.839-4.213-6.602-4.213-10.557v-2.372c-4.798,1.996-9.977,3.038-15.187,3.038
						c-4.876,0-9.604-0.875-14.104-2.606v1.94C91.921,144.927,90.403,148.689,87.708,151.529z"/>
				</g>
			</g>
		</g>
		<g>
			<g>
				<path d="M86.357,214H65.774c-1.381,0-2.5-1.119-2.5-2.5s1.119-2.5,2.5-2.5h20.583c1.381,0,2.5,1.119,2.5,2.5
					S87.738,214,86.357,214z"/>
			</g>
		</g>
		<g>
			<g>
				<path d="M224.011,256h-75.874c-3.614,0-6.555-2.941-6.555-6.556v-47.5c0-3.615,2.94-6.556,6.555-6.556h75.874
					c3.614,0,6.555,2.941,6.555,6.556v47.5C230.565,253.059,227.625,256,224.011,256z M148.137,200.389
					c-0.857,0-1.555,0.698-1.555,1.556v47.5c0,0.858,0.697,1.556,1.555,1.556h75.874c0.857,0,1.555-0.698,1.555-1.556v-47.5
					c0-0.858-0.697-1.556-1.555-1.556H148.137z"/>
			</g>
		</g>
		<g>
			<g>
				<path d="M161.357,227.287h-4.119c-1.381,0-2.5-1.119-2.5-2.5s1.119-2.5,2.5-2.5h4.119c1.381,0,2.5,1.119,2.5,2.5
					S162.738,227.287,161.357,227.287z"/>
			</g>
		</g>
		<g>
			<g>
				<path d="M172.686,235.918h-15.447c-1.381,0-2.5-1.119-2.5-2.5s1.119-2.5,2.5-2.5h15.447c1.381,0,2.5,1.119,2.5,2.5
					S174.066,235.918,172.686,235.918z"/>
			</g>
		</g>
		<g>
			<g>
				<path d="M172.686,244.549h-15.447c-1.381,0-2.5-1.119-2.5-2.5s1.119-2.5,2.5-2.5h15.447c1.381,0,2.5,1.119,2.5,2.5
					S174.066,244.549,172.686,244.549z"/>
			</g>
		</g>
		<g>
			<g>
				<path d="M143.25,229.224h-9.53c-3.615,0-6.556-2.94-6.556-6.555v-47.5c0-3.615,2.94-6.555,6.556-6.555h75.873
					c3.615,0,6.556,2.94,6.556,6.555v21.77c0,1.381-1.119,2.5-2.5,2.5s-2.5-1.119-2.5-2.5v-21.77c0-0.857-0.698-1.555-1.556-1.555
					H133.72c-0.857,0-1.556,0.698-1.556,1.555v47.5c0,0.857,0.698,1.555,1.556,1.555h9.53c1.381,0,2.5,1.119,2.5,2.5
					S144.631,229.224,143.25,229.224z"/>
			</g>
		</g>
		<g>
			<g>
				<path d="M106.565,88.661c-17.077,0.001-34.149-4.25-46.549-12.753c-2.265-1.553-3.616-4.114-3.616-6.852v-2.618
					c0-1.381,1.119-2.5,2.5-2.5s2.5,1.119,2.5,2.5v2.618c0,1.088,0.54,2.108,1.444,2.728c23.29,15.972,64.15,15.972,87.442,0
					c0.904-0.62,1.444-1.64,1.444-2.728v-2.572c0-1.381,1.119-2.5,2.5-2.5s2.5,1.119,2.5,2.5v2.572c0,2.738-1.352,5.299-3.616,6.852
					C140.718,84.409,123.639,88.66,106.565,88.661z"/>
			</g>
		</g>
		<g>
			<g>
				<path d="M58.901,68.748c-0.431,0-0.858-0.111-1.24-0.329c-0.604-0.345-1.036-0.926-1.194-1.603l-2.659-11.4
					c-0.657-2.816,0.751-5.733,3.348-6.936c12.615-5.839,26.494-9.274,41.252-10.212c1.39-0.087,2.566,0.959,2.653,2.336
					c0.087,1.378-0.959,2.566-2.337,2.654c-14.138,0.898-27.416,4.181-39.468,9.759c-0.457,0.212-0.7,0.743-0.579,1.263l2.054,8.804
					c28.16-8.18,63.512-8.18,91.672,0l2.053-8.801c0.121-0.521-0.122-1.052-0.579-1.263c-11.812-5.449-25.464-8.819-39.479-9.747
					c-1.378-0.091-2.421-1.282-2.329-2.66c0.091-1.378,1.271-2.418,2.659-2.33c14.62,0.968,28.882,4.493,41.243,10.196
					c2.602,1.199,4.012,4.118,3.354,6.938l-2.658,11.397c-0.158,0.677-0.591,1.258-1.194,1.603
					c-0.604,0.345-1.323,0.423-1.988,0.215c-28.501-8.935-65.335-8.934-93.834,0C59.404,68.71,59.152,68.748,58.901,68.748z"/>
			</g>
		</g>
		<g>
			<g>
				<path d="M56.26,58.28c-0.358,0-0.723-0.078-1.068-0.241c-4.89-2.317-11.065-6.183-12.72-11.445
					c-0.786-2.502-0.47-5.107,0.917-7.534c5.581-9.767,27.809-35.113,63.178-35.113c35.368,0,57.596,25.346,63.177,35.113
					c1.384,2.422,1.702,5.023,0.921,7.521c-1.638,5.234-7.757,9.088-12.603,11.399c-1.246,0.594-2.739,0.065-3.333-1.18
					c-0.594-1.246-0.065-2.738,1.181-3.333c5.499-2.623,9.138-5.677,9.983-8.38c0.371-1.186,0.215-2.313-0.491-3.548
					c-5.18-9.065-25.848-32.593-58.835-32.593c-32.988,0-53.656,23.528-58.836,32.593c-0.707,1.237-0.862,2.366-0.489,3.554
					c0.856,2.722,4.534,5.793,10.091,8.426c1.248,0.591,1.78,2.082,1.188,3.33C58.094,57.752,57.196,58.28,56.26,58.28z"/>
			</g>
		</g>
		<g>
			<g>
				<path d="M106.565,58c-5.79,0-10.5-5.832-10.5-13s4.71-13,10.5-13s10.5,5.832,10.5,13S112.355,58,106.565,58z M106.565,37
					c-2.981,0-5.5,3.664-5.5,8s2.519,8,5.5,8s5.5-3.664,5.5-8S109.547,37,106.565,37z"/>
			</g>
		</g>
		<g>
			<g>
				<path class="st7" d="M165.547,17.33c4.498-0.838,8.043-4.31,8.898-8.716c0.043-0.221,0.352-0.221,0.395,0
					c0.855,4.406,4.4,7.879,8.898,8.716c0.226,0.042,0.226,0.345,0,0.387c-4.498,0.838-8.043,4.31-8.898,8.717
					c-0.043,0.221-0.352,0.221-0.395,0c-0.855-4.406-4.4-7.879-8.898-8.717C165.321,17.675,165.321,17.373,165.547,17.33z"/>
			</g>
		</g>
		<g>
			<g>
				<path class="st7" d="M35.854,115.101c2.862-0.533,5.118-2.743,5.663-5.547c0.027-0.141,0.224-0.141,0.251,0
					c0.544,2.804,2.8,5.014,5.663,5.547c0.144,0.027,0.144,0.219,0,0.246c-2.862,0.533-5.118,2.743-5.663,5.547
					c-0.027,0.141-0.224,0.141-0.251,0c-0.544-2.804-2.8-5.014-5.663-5.547C35.71,115.32,35.71,115.128,35.854,115.101z"/>
			</g>
		</g>
		<g>
			<g>
				<path class="st6" d="M175.122,123.75h-2.33v-2.33c0-1.744-1.413-3.157-3.157-3.157s-3.157,1.413-3.157,3.157v2.33h-2.329
					c-1.744,0-3.157,1.413-3.157,3.157c0,1.744,1.413,3.157,3.157,3.157h2.329v2.33c0,1.744,1.413,3.157,3.157,3.157
					s3.157-1.413,3.157-3.157v-2.33h2.33c1.744,0,3.157-1.413,3.157-3.157C178.279,125.163,176.866,123.75,175.122,123.75z"/>
			</g>
		</g>
		<g>
			<g>
				<circle class="st9" cx="184.614" cy="155.825" r="3.377"/>
			</g>
		</g>
		<g>
			<g>
				<circle class="st8" cx="56.614" cy="3.377" r="3.377"/>
			</g>
		</g>
		<g>
			<g>
				<path d="M219.18,213.777h-66.212c-6.278,0-11.386-5.107-11.386-11.386c0-1.381,1.119-2.5,2.5-2.5s2.5,1.119,2.5,2.5
					c0,3.521,2.864,6.386,6.386,6.386h66.212c3.521,0,6.386-2.865,6.386-6.386c0-1.381,1.119-2.5,2.5-2.5s2.5,1.119,2.5,2.5
					C230.565,208.669,225.458,213.777,219.18,213.777z"/>
			</g>
		</g>
		<g>
			<g>
				<path d="M204.763,187.001H138.55c-6.278,0-11.386-5.107-11.386-11.386c0-1.381,1.119-2.5,2.5-2.5s2.5,1.119,2.5,2.5
					c0,3.521,2.864,6.386,6.386,6.386h66.213c3.521,0,6.386-2.865,6.386-6.386c0-1.381,1.119-2.5,2.5-2.5s2.5,1.119,2.5,2.5
					C216.148,181.894,211.041,187.001,204.763,187.001z"/>
			</g>
		</g>
		<g>
			<g>
				<path d="M214.979,244.672h-10.437c-2.477,0-4.491-2.015-4.491-4.491v-5.288c0-2.476,2.015-4.49,4.491-4.49h10.437
					c2.476,0,4.49,2.014,4.49,4.49v5.288C219.469,242.657,217.454,244.672,214.979,244.672z M205.051,239.672h9.418v-4.269h-9.418
					V239.672z M214.979,235.403h0.01H214.979z"/>
			</g>
		</g>
		<g>
			<g>
				<path d="M148.137,256h-41.571c-1.381,0-2.5-1.119-2.5-2.5v-32.494c0-1.735,0.269-3.456,0.797-5.112l21.038-65.86
					c0.254-0.795,0.888-1.41,1.689-1.642c0.8-0.23,1.665-0.047,2.304,0.491c0.656,0.554,1.36,1.017,2.094,1.378l9.977,4.92
					l28.645,7.209c4.056,1.021,7.598,3.492,9.973,6.958c0.78,1.139,0.489,2.695-0.649,3.475c-1.138,0.781-2.695,0.49-3.476-0.649
					c-1.686-2.459-4.195-4.212-7.068-4.935l-28.901-7.274c-0.171-0.043-0.337-0.104-0.495-0.182l-10.215-5.037
					c-0.038-0.019-0.076-0.038-0.114-0.057l-20.036,62.726c-0.372,1.164-0.561,2.373-0.561,3.591V251h39.071
					c1.381,0,2.5,1.119,2.5,2.5S149.518,256,148.137,256z"/>
			</g>
		</g>
		<g>
			<g>
				<path d="M143.423,172.974c-0.348,0-0.702-0.073-1.039-0.228c-1.188-0.544-1.745-1.901-1.315-3.108l-1.992-10.956
					c-0.247-1.358,0.654-2.66,2.013-2.907c1.36-0.251,2.66,0.654,2.907,2.012l2.026,11.146c0.159,0.877,0.047,1.77-0.325,2.582
					C145.277,172.433,144.371,172.974,143.423,172.974z"/>
			</g>
		</g>
		<g>
			<g>
				<path d="M106.975,221.933c-0.64,0-1.279-0.244-1.768-0.732c-0.977-0.976-0.977-2.559,0-3.535l22.44-22.44
					c0.977-0.977,2.559-0.977,3.535,0c0.977,0.976,0.977,2.559,0,3.535l-22.44,22.44
					C108.254,221.689,107.614,221.933,106.975,221.933z"/>
			</g>
		</g>
		<g>
			<g>
				<g>
					<path d="M124.971,149c-0.934,0-1.828-0.524-2.258-1.422c-0.996-2.085-1.502-4.308-1.502-6.605v-5.389
						c0-1.381,1.119-2.5,2.5-2.5s2.5,1.119,2.5,2.5v5.389c0,1.545,0.341,3.042,1.014,4.449c0.595,1.246,0.068,2.738-1.178,3.333
						C125.699,148.921,125.332,149,124.971,149z"/>
				</g>
			</g>
			<g>
				<g>
					<path d="M106.024,165.638c-0.896,0-1.851-0.04-2.917-0.121c-1.377-0.105-2.407-1.306-2.303-2.683
						c0.105-1.377,1.32-2.409,2.684-2.302c0.938,0.072,1.768,0.106,2.536,0.106c1.077,0,2.234-0.067,3.54-0.206
						c1.381-0.146,2.604,0.849,2.75,2.222c0.146,1.373-0.85,2.604-2.223,2.75C108.609,165.562,107.279,165.638,106.024,165.638z"/>
				</g>
			</g>
			<g>
				<g>
					<path d="M88.161,149c-0.361,0-0.729-0.079-1.076-0.245c-1.246-0.595-1.772-2.088-1.178-3.333
						c0.673-1.407,1.014-2.904,1.014-4.449v-5.191c0-1.381,1.119-2.5,2.5-2.5s2.5,1.119,2.5,2.5v5.191
						c0,2.297-0.506,4.52-1.502,6.605C89.989,148.476,89.095,149,88.161,149z"/>
				</g>
			</g>
		</g>
		<g>
			<g>
				<path d="M120.195,176.349c-0.135,0-0.272-0.011-0.41-0.034c-1.05-0.173-1.987-0.678-2.711-1.46l-8.158-8.838
					c-1.646-1.785-1.626-4.56,0.048-6.318l14.193-14.922c0.566-0.596,1.388-0.873,2.203-0.746c0.813,0.129,1.51,0.649,1.864,1.391
					c0.612,1.282,1.46,2.402,2.519,3.332c1.038,0.911,1.142,2.49,0.23,3.528c-0.911,1.037-2.49,1.142-3.527,0.23
					c-0.687-0.603-1.313-1.259-1.877-1.965l-11.738,12.34l7.856,8.511c1.313,0.265,2.191,1.525,1.972,2.857
					C122.457,175.48,121.397,176.349,120.195,176.349z"/>
			</g>
		</g>
		<g>
			<g>
				<path d="M93.156,176.302c-1.104,0-2.113-0.736-2.413-1.854c-0.351-1.308,0.404-2.651,1.691-3.04l7.866-8.521l-11.739-12.341
					c-0.497,0.623-1.043,1.207-1.636,1.75c-1.02,0.933-2.602,0.861-3.532-0.157c-0.932-1.019-0.861-2.6,0.157-3.532
					c0.983-0.9,1.776-1.972,2.357-3.186c0.354-0.742,1.052-1.262,1.863-1.391c0.815-0.126,1.637,0.15,2.203,0.746l14.194,14.923
					c1.673,1.758,1.693,4.533,0.047,6.317l-8.157,8.837c-0.605,0.658-1.386,1.13-2.253,1.362
					C93.589,176.274,93.371,176.302,93.156,176.302z"/>
			</g>
		</g>
		<g>
			<g>
				<path d="M115.401,193.276c-1.172,0-2.219-0.829-2.451-2.022l-3.719-19.094c-0.264-1.355,0.621-2.668,1.977-2.932
					c1.356-0.262,2.668,0.621,2.932,1.976l3.719,19.094c0.264,1.355-0.621,2.668-1.977,2.932
					C115.721,193.261,115.56,193.276,115.401,193.276z"/>
			</g>
		</g>
		<g>
			<g>
				<path d="M97.772,193.061c-0.159,0-0.319-0.015-0.48-0.046c-1.355-0.264-2.24-1.577-1.977-2.932l3.683-18.907
					c0.265-1.356,1.587-2.234,2.932-1.976c1.355,0.264,2.24,1.577,1.977,2.932l-3.683,18.907
					C99.991,192.232,98.944,193.061,97.772,193.061z"/>
			</g>
		</g>
		<g>
			<g>
				<g>
					<path d="M106.565,175.081c-3.839,0-7.382-1.755-9.72-4.816c-0.838-1.098-0.627-2.667,0.47-3.504
						c1.099-0.839,2.666-0.627,3.505,0.469c1.384,1.813,3.478,2.852,5.745,2.852c2.229,0,4.3-1.01,5.684-2.771
						c0.853-1.086,2.424-1.275,3.511-0.421c1.085,0.853,1.273,2.425,0.421,3.51C113.843,173.375,110.339,175.081,106.565,175.081z"
						/>
				</g>
			</g>
		</g>
		<g>
			<g>
				<path d="M106.565,256H32.017c-1.801,0-3.544-0.75-4.781-2.059c-1.238-1.309-1.891-3.091-1.791-4.89l4.114-70.957
					c0.421-7.545,5.631-13.859,12.965-15.705l28.645-7.209l9.977-4.919c0.732-0.361,1.437-0.824,2.093-1.378
					c0.637-0.539,1.5-0.721,2.304-0.491c0.802,0.231,1.436,0.847,1.689,1.642l21.039,65.86c0.528,1.655,0.796,3.375,0.796,5.113
					V253.5C109.065,254.881,107.946,256,106.565,256z M83.469,154.689c-0.038,0.019-0.076,0.038-0.113,0.057l-10.215,5.036
					c-0.158,0.078-0.324,0.139-0.495,0.182l-28.901,7.274c-5.2,1.309-8.896,5.786-9.193,11.14l-4.114,70.957
					c-0.024,0.433,0.129,0.851,0.431,1.17c0.302,0.319,0.71,0.495,1.149,0.495h72.049v-29.994c0-1.221-0.188-2.429-0.56-3.592
					L83.469,154.689z"/>
			</g>
		</g>
		<g>
			<g>
				<path d="M106.248,222.023c-0.64,0-1.279-0.244-1.768-0.732l-31.714-31.713c-1.353-1.354-1.657-3.472-0.742-5.152l4.379-8.029
					l-6.633-2.653c-1.91-0.764-3.029-2.788-2.661-4.812l2.009-11.048c0.247-1.358,1.545-2.264,2.907-2.012
					c1.358,0.247,2.26,1.548,2.013,2.907l-1.913,10.521l6.821,2.729c1.152,0.461,2.055,1.396,2.475,2.563
					c0.42,1.167,0.32,2.461-0.274,3.551l-4.497,8.247l31.366,31.366c0.977,0.976,0.977,2.559,0,3.535
					C107.527,221.779,106.888,222.023,106.248,222.023z"/>
			</g>
		</g>
	</g>
</g>
<g id="Layer_30">
</g>
<g id="Layer_31">
</g>
<g id="Layer_32">
</g>
<g id="Layer_33">
</g>
<g id="Layer_34">
</g>
<g id="Layer_35">
</g>
<g id="Layer_36">
</g>
<g id="Layer_37">
</g>
<g id="Layer_38">
</g>
<g id="Layer_39">
</g>
<g id="Layer_40">
</g>
<g id="Layer_41">
</g>
<g id="Layer_42">
</g>
<g id="Layer_43">
</g>
<g id="Layer_44">
</g>
<g id="Layer_45">
</g>
<g id="Layer_46">
</g>
<g id="Layer_47">
</g>
<g id="Layer_48">
</g>
<g id="Layer_49">
</g>
<g id="Layer_50">
</g>
<g id="Layer_51">
</g>
<g id="Layer_52">
</g>
<g id="Layer_53">
</g>
<g id="Layer_54">
</g>
<g id="Layer_55">
</g>
<g id="Layer_56">
</g>
<g id="Layer_57">
</g>
<g id="Layer_58">
</g>
<g id="Layer_59">
</g>
<g id="Layer_60">
</g>
<g id="Layer_61">
</g>
<g id="Layer_62">
</g>
<g id="Layer_63">
</g>
<g id="Layer_64">
</g>
<g id="Layer_65">
</g>
<g id="Layer_66">
</g>
<g id="Layer_67">
</g>
<g id="Layer_68">
</g>
<g id="Layer_69">
</g>
<g id="Layer_70">
</g>
<g id="Layer_71">
</g>
<g id="Layer_72">
</g>
<g id="Layer_73">
</g>
<g id="Layer_74">
</g>
<g id="Layer_75">
</g>
<g id="Layer_76">
</g>
<g id="Layer_77">
</g>
<g id="Layer_78">
</g>
<g id="Layer_79">
</g>
<g id="Layer_80">
</g>
</svg>
