<?xml version="1.0" encoding="utf-8"?>
<!-- Generator: Adobe Illustrator 24.0.0, SVG Export Plug-In . SVG Version: 6.00 Build 0)  -->
<svg version="1.1" xmlns="http://www.w3.org/2000/svg" xmlns:xlink="http://www.w3.org/1999/xlink" x="0px" y="0px"
	 viewBox="0 0 256 256" style="enable-background:new 0 0 256 256;" xml:space="preserve">
<style type="text/css">
	.st0{fill:#3A70BF;}
	.st1{fill:#EDF4FC;}
	.st2{fill:#C7D7E5;}
	.st3{fill:#F9D0B4;}
	.st4{fill:#5B5D60;}
	.st5{fill:#5290DB;}
	.st6{fill:#70D6F9;}
	.st7{fill:#F5C84C;}
	.st8{fill:#FC657E;}
	.st9{fill:#87D147;}
	.st10{fill:#FCDD86;}
	.st11{fill:#9BE5F9;}
	.st12{fill:#B2E26D;}
	.st13{fill:#754E34;}
	.st14{fill:#FCA265;}
	.st15{fill:#818182;}
	.st16{fill:#F94EED;}
	.st17{fill:#FFC197;}
	.st18{fill:#3CAADC;}
	.st19{fill:#DAE6F1;}
	.st20{fill:#57AF12;}
	.st21{fill:#EF4460;}
	.st22{fill:#FFF0CA;}
	.st23{fill:#F98FA6;}
	.st24{fill:#EDB311;}
	.st25{fill:#FC8C48;}
	.st26{fill:#FCB9CB;}
	.st27{fill:#96BC71;}
	.st28{fill:#78A352;}
	.st29{fill:#B8DD90;}
	.st30{fill:#6FAFEF;}
	.st31{fill:#29589F;}
	.st32{fill:#414344;}
	.st33{fill:#9B6B4B;}
	.st34{fill:#73B1EF;}
</style>
<g id="Layer_1">
</g>
<g id="Layer_2">
</g>
<g id="Layer_3">
</g>
<g id="Layer_4">
</g>
<g id="Layer_5">
</g>
<g id="Layer_6">
</g>
<g id="Layer_7">
</g>
<g id="Layer_8">
</g>
<g id="Layer_9">
</g>
<g id="Layer_10">
</g>
<g id="Layer_11">
</g>
<g id="Layer_12">
</g>
<g id="Layer_13">
</g>
<g id="Layer_14">
</g>
<g id="Layer_15">
</g>
<g id="Layer_16">
</g>
<g id="Layer_17">
</g>
<g id="Layer_18">
</g>
<g id="Layer_19">
</g>
<g id="Layer_20">
</g>
<g id="Layer_21">
</g>
<g id="Layer_22">
</g>
<g id="Layer_23">
</g>
<g id="Layer_24">
</g>
<g id="Layer_25">
</g>
<g id="Layer_26">
</g>
<g id="Layer_27">
</g>
<g id="Layer_28">
</g>
<g id="Layer_29">
</g>
<g id="Layer_30">
	<g>
		<g>
			<g>
				<path class="st3" d="M149.277,74.185c-3.035,2.03-6.351,3.802-9.881,5.317c0,6.559,0,15.309,0,18.954l0,0v0
					c0,0.783-0.036,1.558-0.088,2.329c0.756,0.122,1.526,0.202,2.316,0.202c8.009,0,14.501-6.492,14.501-14.501
					C156.125,81.29,153.383,76.745,149.277,74.185z"/>
			</g>
		</g>
		<g>
			<g>
				<g>
					<path class="st3" d="M69.933,79.502v18.953c0,19.102,15.629,34.732,34.732,34.732c19.102,0,34.732-15.629,34.732-34.732V79.502
						C118.665,88.398,90.665,88.399,69.933,79.502z"/>
				</g>
			</g>
		</g>
		<g>
			<g>
				<path class="st3" d="M69.933,79.502c-3.201-1.374-6.224-2.963-9.024-4.761c-1.136-0.025-2.264,0.38-3.125,1.188
					c-2.817,2.641-4.581,6.39-4.581,10.557c0,8.008,6.492,14.501,14.501,14.501c0.79,0,1.56-0.08,2.316-0.202
					c-0.052-0.771-0.087-1.546-0.087-2.329V79.502z"/>
			</g>
		</g>
		<g>
			<g>
				<path class="st13" d="M147.339,121.5c4.1-10.251,3.995-18.131,2.92-23.384c-2.414,1.795-5.395,2.871-8.634,2.871
					c-0.79,0-1.56-0.08-2.316-0.202c-0.816,12.152-7.945,22.647-18.124,28.194v10.533c0,3.677,2.088,7.034,5.386,8.66l8.587,4.234
					c1.919,0.946,3.934,1.687,6.009,2.209l17.511,4.42C160.226,142.809,142.684,133.137,147.339,121.5z"/>
			</g>
		</g>
		<g>
			<g>
				<path class="st13" d="M68.163,154.615c2.075-0.523,4.089-1.263,6.009-2.209l8.587-4.234c3.298-1.626,5.386-4.984,5.386-8.66
					v-10.533c-10.179-5.548-17.308-16.042-18.124-28.194c-0.756,0.122-1.526,0.202-2.316,0.202c-3.239,0-6.22-1.075-8.634-2.87
					c-1.075,5.253-1.18,13.133,2.92,23.384c4.655,11.637-12.887,21.309-11.338,37.536L68.163,154.615z"/>
			</g>
		</g>
		<g>
			<g>
				<path class="st19" d="M142.18,249.445v-22.72h-10.362c-2.24,0-4.055-1.816-4.055-4.056v-47.053v-0.447
					c0-2.24,1.816-4.055,4.055-4.055h44.478c-1.29-4.963-5.182-8.942-10.297-10.229l-24.833-6.269
					c-2.075-0.522-4.089-1.263-6.009-2.209l-8.587-4.234c-3.298-1.626-5.386-4.984-5.386-8.66v-10.533
					c-4.92,2.682-10.551,4.208-16.52,4.208c-5.97,0-11.6-1.526-16.52-4.208v10.533c0,3.677-2.088,7.034-5.386,8.66l-8.587,4.234
					c-1.919,0.946-3.933,1.687-6.009,2.209l-24.833,6.269c-6.044,1.521-10.396,6.796-10.743,13.019l-2.745,75.418
					c-0.126,2.269,1.68,4.179,3.953,4.179h21.99c1.478,0,2.677-1.198,2.677-2.677v-47.143l3.883,12.439
					c2.539,8.133,3.83,16.604,3.83,25.124v9.58c0,1.478,1.198,2.677,2.677,2.677h30.345h10.937h30.345
					c1.127,0,2.087-0.698,2.481-1.683C142.474,251.148,142.18,250.333,142.18,249.445z"/>
			</g>
		</g>
		<g>
			<g>
				<path class="st15" d="M56.999,66.248v2.808c0,1.917,0.95,3.706,2.53,4.79c23.99,16.451,66.283,16.448,90.27,0
					c1.581-1.084,2.53-2.873,2.53-4.79v-2.808C125.104,57.714,87.304,56.749,56.999,66.248z"/>
			</g>
		</g>
		<g>
			<g>
				<path class="st0" d="M153.021,50.75c-12.305-5.676-26.443-9.13-41.051-10.015c0.443,1.304,0.694,2.745,0.694,4.265
					c0,5.799-3.582,10.5-8,10.5s-8-4.701-8-10.5c0-1.525,0.253-2.971,0.699-4.279c-14.062,0.813-28.141,4.049-41.058,10.028
					c-1.545,0.715-2.351,2.441-1.964,4.099l2.659,11.4c30.305-9.499,68.105-8.534,95.33,0l2.659-11.397
					C155.375,53.192,154.568,51.464,153.021,50.75z"/>
			</g>
		</g>
		<g>
			<g>
				<path class="st5" d="M165.671,40.3c-5.642-9.874-27.153-33.853-61.007-33.853C70.811,6.447,49.3,30.426,43.658,40.3
					c-4.184,7.322,5.591,13.09,10.924,15.584l-0.241-1.036c-0.387-1.658,0.42-3.384,1.965-4.099
					c12.918-5.979,26.996-9.215,41.058-10.028c1.249-3.664,4.045-6.221,7.301-6.221c3.26,0,6.06,2.563,7.306,6.235
					c14.608,0.885,28.746,4.339,41.051,10.015c1.547,0.714,2.354,2.442,1.967,4.101l-0.241,1.032
					C160.081,53.389,169.855,47.622,165.671,40.3z"/>
			</g>
		</g>
		<g>
			<g>
				<ellipse class="st7" cx="104.664" cy="45" rx="8" ry="10.5"/>
			</g>
		</g>
		<g>
			<g>
				<path class="st0" d="M142.18,249.445v-22.72h-10.362c-2.24,0-4.055-1.816-4.055-4.056v-47.053v-0.447
					c0-2.24,1.816-4.055,4.055-4.055h44.478c-1.29-4.963-5.182-8.942-10.297-10.229l-24.833-6.269
					c-2.075-0.522-4.089-1.263-6.009-2.209l-8.587-4.234c-0.274-0.135-0.526-0.299-0.782-0.457l-20.446,79.734
					c-0.449,1.75-0.677,3.577-0.677,5.415V253.5h5.468h30.345c1.127,0,2.087-0.698,2.481-1.683
					C142.474,251.148,142.18,250.333,142.18,249.445z"/>
			</g>
		</g>
		<g>
			<g>
				<path class="st0" d="M83.54,147.715c-0.256,0.158-0.508,0.322-0.782,0.457l-8.587,4.234c-1.919,0.946-3.933,1.687-6.009,2.209
					l-24.833,6.269c-6.044,1.521-10.396,6.796-10.743,13.019l-2.744,75.418c-0.127,2.269,1.68,4.179,3.953,4.179h21.99
					c1.478,0,2.677-1.198,2.677-2.677v-47.143l3.883,12.439c2.539,8.133,3.83,16.604,3.83,25.124v9.58
					c0,1.478,1.198,2.677,2.677,2.677h30.345h5.468v-20.636c0-1.838-0.229-3.664-0.677-5.415L83.54,147.715z"/>
			</g>
		</g>
		<g>
			<g>
				<g>
					<path class="st3" d="M84.639,146.928l14.797,12.683c1.727,1.48,2.418,3.762,1.93,5.888h6.596
						c-0.488-2.126,0.203-4.408,1.93-5.888l14.797-12.683c-2.182-1.81-3.505-4.506-3.505-7.416v-10.533
						c-4.92,2.682-10.551,4.208-16.52,4.208c-5.97,0-11.6-1.526-16.52-4.208v10.533C88.144,142.423,86.821,145.118,84.639,146.928
						L84.639,146.928z"/>
				</g>
			</g>
		</g>
		<g>
			<g>
				<path class="st5" d="M127.762,175.615v-0.447c0-2.24,1.816-4.055,4.055-4.055h8.762c0.755-0.438,1.187-1.453,1.037-2.484
					l-2.114-14.487c-1.49-0.467-2.944-1.045-4.346-1.737l-8.587-4.234c-0.274-0.135-0.526-0.299-0.782-0.457l-20.446,79.734
					c-0.325,1.267-0.531,2.574-0.621,3.897l23.042-28.704V175.615z"/>
			</g>
		</g>
		<g>
			<g>
				<path class="st5" d="M103.987,227.449L83.54,147.715c-0.256,0.158-0.508,0.322-0.782,0.457l-8.587,4.234
					c-1.402,0.691-2.856,1.27-4.346,1.737l-2.114,14.487c-0.157,1.074,0.315,2.136,1.128,2.541l7.31,3.643
					c1.025,0.511,1.462,2.022,0.933,3.23l-4.727,10.796c-0.391,0.894-0.263,2.002,0.315,2.722l31.937,39.785
					C104.517,230.023,104.312,228.716,103.987,227.449z"/>
			</g>
		</g>
		<g>
			<g>
				<g>
					<path class="st1" d="M118.373,176.632l7.415-28.914c-0.383-0.243-0.753-0.503-1.099-0.79l-14.797,12.683
						c-2.171,1.861-2.738,4.996-1.331,7.486C110.333,170.233,113.418,174.231,118.373,176.632z"/>
				</g>
			</g>
		</g>
		<g>
			<g>
				<g>
					<path class="st1" d="M90.956,176.632c4.954-2.401,8.04-6.399,9.812-9.535c1.407-2.49,0.841-5.625-1.331-7.486l-14.797-12.683
						c-0.346,0.287-0.715,0.547-1.098,0.79L90.956,176.632z"/>
				</g>
			</g>
		</g>
		<g>
			<g>
				<path class="st8" d="M108.561,167.097c-0.288-0.51-0.473-1.05-0.599-1.597l0,0h-6.596v0c-0.126,0.548-0.311,1.088-0.599,1.598
					c-0.779,1.378-1.829,2.92-3.163,4.423c1.773,1.878,4.272,3.061,7.059,3.061c2.787,0,5.287-1.183,7.059-3.061
					C110.39,170.018,109.34,168.475,108.561,167.097z"/>
			</g>
		</g>
		<g>
			<g>
				<path class="st8" d="M103.987,227.449c0.148,0.576,0.263,1.163,0.362,1.753c0.021,0.124,0.04,0.248,0.059,0.373
					c0.089,0.586,0.16,1.176,0.2,1.771v0l0,0c0.035,0.504,0.056,1.01,0.056,1.518c0-0.508,0.021-1.014,0.056-1.518l0,0v0
					c0.041-0.595,0.112-1.185,0.2-1.771c0.019-0.125,0.038-0.249,0.059-0.373c0.1-0.59,0.214-1.177,0.362-1.753l6.75-26.322
					l-2.406-27.951c-1.467,0.886-3.181,1.406-5.021,1.406s-3.553-0.52-5.021-1.406l-2.406,27.951L103.987,227.449z"/>
			</g>
		</g>
		<g>
			<g>
				<path class="st1" d="M222.109,197.889h-75.873c-2.24,0-4.055,1.816-4.055,4.055v47.5c0,2.24,1.816,4.055,4.055,4.055h75.873
					c2.24,0,4.055-1.816,4.055-4.055v-47.5C226.164,199.705,224.349,197.889,222.109,197.889z"/>
			</g>
		</g>
		<g>
			<g>
				<path class="st19" d="M142.18,201.944c0-2.24,1.816-4.055,4.055-4.055h65.511v-22.72c0-2.24-1.816-4.055-4.055-4.055h-75.873
					c-2.24,0-4.055,1.816-4.055,4.055v47.5c0,2.24,1.816,4.055,4.055,4.055h10.362V201.944z"/>
			</g>
		</g>
		<g>
			<g>
				<path class="st8" d="M222.109,197.889h-75.873c-2.24,0-4.055,1.816-4.055,4.055v0.447c0,4.908,3.978,8.886,8.886,8.886h66.212
					c4.908,0,8.886-3.978,8.886-8.886v-0.447C226.164,199.705,224.349,197.889,222.109,197.889z"/>
			</g>
		</g>
		<g>
			<g>
				<path class="st8" d="M207.691,171.113h-75.873c-2.24,0-4.055,1.816-4.055,4.055v0.447c0,4.908,3.978,8.886,8.886,8.886h66.212
					c4.908,0,8.886-3.978,8.886-8.886v-0.447C211.747,172.929,209.931,171.113,207.691,171.113z"/>
			</g>
		</g>
		<g>
			<g>
				<path class="st7" d="M213.077,232.903H202.64c-1.099,0-1.99,0.891-1.99,1.99v5.288c0,1.099,0.891,1.991,1.99,1.991h10.437
					c1.099,0,1.99-0.891,1.99-1.991v-5.288C215.067,233.794,214.176,232.903,213.077,232.903z"/>
			</g>
		</g>
		<g>
			<g>
				<path d="M141.625,103.487c-0.503,0-1.006-0.026-1.54-0.079c-1.374-0.138-2.376-1.363-2.238-2.736
					c0.137-1.374,1.355-2.38,2.736-2.239c0.343,0.035,0.689,0.055,1.042,0.055c6.617,0,12-5.383,12-12
					c0-3.833-1.777-7.347-4.876-9.639c-1.109-0.821-1.344-2.387-0.522-3.497s2.387-1.344,3.497-0.523
					c4.321,3.198,6.901,8.304,6.901,13.659C158.625,95.86,150.999,103.487,141.625,103.487z"/>
			</g>
		</g>
		<g>
			<g>
				<g>
					<path d="M104.664,135.687c-20.529,0-37.231-16.702-37.231-37.231V80.563c0-1.381,1.119-2.5,2.5-2.5s2.5,1.119,2.5,2.5v17.892
						c0,17.772,14.459,32.231,32.231,32.231s32.231-14.459,32.231-32.231V80.25c0-1.381,1.119-2.5,2.5-2.5s2.5,1.119,2.5,2.5v18.206
						C141.896,118.985,125.193,135.687,104.664,135.687z"/>
				</g>
			</g>
		</g>
		<g>
			<g>
				<path d="M67.704,103.487c-9.374,0-17.001-7.626-17.001-17c0-4.668,1.958-9.181,5.371-12.381c0.989-0.928,2.225-1.54,3.571-1.767
					c1.355-0.23,2.652,0.687,2.882,2.048c0.23,1.361-0.687,2.652-2.048,2.882c-0.374,0.063-0.715,0.231-0.985,0.484
					c-2.444,2.292-3.791,5.395-3.791,8.734c0,6.617,5.384,12,12.001,12c0.422,0,0.86-0.029,1.341-0.088
					c1.376-0.168,2.617,0.807,2.786,2.176c0.168,1.371-0.806,2.618-2.177,2.787C68.97,103.446,68.332,103.487,67.704,103.487z"/>
			</g>
		</g>
		<g>
			<g>
				<path d="M158.755,160.438c-0.037,0-0.074-0.001-0.112-0.002c-1.379-0.061-2.448-1.228-2.388-2.607
					c0.3-6.79-3.145-12.419-6.476-17.863c-3.721-6.083-7.569-12.374-4.762-19.393c3.079-7.697,4.063-14.851,2.924-21.264
					c-0.241-1.359,0.665-2.657,2.024-2.898c1.363-0.24,2.657,0.665,2.899,2.024c1.304,7.346,0.226,15.419-3.205,23.996
					c-1.786,4.465,0.503,8.581,4.385,14.926c3.549,5.801,7.571,12.377,7.206,20.692
					C161.191,159.389,160.085,160.438,158.755,160.438z"/>
			</g>
		</g>
		<g>
			<g>
				<path d="M50.589,160.748c-1.314,0-2.416-1.025-2.494-2.354c-0.496-8.478,3.587-15.15,7.188-21.038
					c3.882-6.346,6.171-10.462,4.385-14.927c-3.409-8.523-4.495-16.553-3.227-23.866c0.235-1.36,1.524-2.271,2.89-2.036
					c1.36,0.236,2.272,1.53,2.036,2.891c-1.107,6.386-0.117,13.503,2.943,21.154c2.808,7.02-1.04,13.311-4.763,19.394
					c-3.375,5.518-6.866,11.224-6.461,18.137c0.08,1.378-0.972,2.561-2.35,2.642C50.688,160.746,50.638,160.748,50.589,160.748z"/>
			</g>
		</g>
		<g>
			<g>
				<path d="M104.664,117.757c-4.775,0-9.262-1.949-11.999-5.215c-0.887-1.058-0.748-2.635,0.31-3.522
					c1.058-0.886,2.633-0.749,3.522,0.31c1.799,2.146,4.852,3.427,8.167,3.427s6.368-1.281,8.167-3.427
					c0.889-1.059,2.464-1.196,3.522-0.31c1.058,0.887,1.196,2.464,0.31,3.522C113.926,115.808,109.439,117.757,104.664,117.757z"/>
			</g>
		</g>
		<g>
			<g>
				<circle cx="119.775" cy="90.5" r="4.5"/>
			</g>
		</g>
		<g>
			<g>
				<circle cx="89.554" cy="90.5" r="4.5"/>
			</g>
		</g>
		<g>
			<g>
				<path d="M222.109,256h-75.874c-3.615,0-6.556-2.941-6.556-6.556v-47.5c0-3.615,2.94-6.556,6.556-6.556h75.874
					c3.614,0,6.555,2.941,6.555,6.556v47.5C228.664,253.059,225.724,256,222.109,256z M146.235,200.389
					c-0.857,0-1.556,0.698-1.556,1.556v47.5c0,0.858,0.698,1.556,1.556,1.556h75.874c0.857,0,1.555-0.698,1.555-1.556v-47.5
					c0-0.858-0.697-1.556-1.555-1.556H146.235z"/>
			</g>
		</g>
		<g>
			<g>
				<path d="M159.456,227.287h-4.119c-1.381,0-2.5-1.119-2.5-2.5s1.119-2.5,2.5-2.5h4.119c1.381,0,2.5,1.119,2.5,2.5
					S160.837,227.287,159.456,227.287z"/>
			</g>
		</g>
		<g>
			<g>
				<path d="M170.784,235.918h-15.447c-1.381,0-2.5-1.119-2.5-2.5s1.119-2.5,2.5-2.5h15.447c1.381,0,2.5,1.119,2.5,2.5
					S172.165,235.918,170.784,235.918z"/>
			</g>
		</g>
		<g>
			<g>
				<path d="M170.784,244.549h-15.447c-1.381,0-2.5-1.119-2.5-2.5s1.119-2.5,2.5-2.5h15.447c1.381,0,2.5,1.119,2.5,2.5
					S172.165,244.549,170.784,244.549z"/>
			</g>
		</g>
		<g>
			<g>
				<path d="M141.292,229.224h-9.475c-3.614,0-6.555-2.94-6.555-6.555v-47.5c0-3.615,2.94-6.555,6.555-6.555h75.874
					c3.614,0,6.555,2.94,6.555,6.555v22.145c0,1.381-1.119,2.5-2.5,2.5s-2.5-1.119-2.5-2.5v-22.145c0-0.857-0.697-1.555-1.555-1.555
					h-75.874c-0.857,0-1.555,0.698-1.555,1.555v47.5c0,0.857,0.697,1.555,1.555,1.555h9.475c1.381,0,2.5,1.119,2.5,2.5
					S142.673,229.224,141.292,229.224z"/>
			</g>
		</g>
		<g>
			<g>
				<path d="M104.664,88.661c-17.077,0.001-34.149-4.25-46.549-12.753c-2.264-1.552-3.616-4.113-3.616-6.852v-2.514
					c0-1.381,1.119-2.5,2.5-2.5s2.5,1.119,2.5,2.5v2.514c0,1.089,0.54,2.108,1.443,2.728c23.291,15.972,64.151,15.972,87.442,0
					c0.904-0.62,1.444-1.639,1.444-2.728v-2.54c0-1.381,1.119-2.5,2.5-2.5s2.5,1.119,2.5,2.5v2.54c0,2.739-1.353,5.3-3.617,6.852
					C138.815,84.409,121.736,88.66,104.664,88.661z"/>
			</g>
		</g>
		<g>
			<g>
				<path d="M152.329,68.748c-0.251,0-0.503-0.038-0.748-0.114c-28.499-8.933-65.331-8.934-93.834,0
					c-0.667,0.207-1.384,0.13-1.988-0.215c-0.604-0.345-1.036-0.926-1.194-1.603l-2.659-11.4c-0.657-2.817,0.752-5.734,3.35-6.936
					c12.614-5.838,26.493-9.274,41.251-10.211c1.396-0.087,2.566,0.959,2.653,2.336c0.087,1.378-0.959,2.566-2.337,2.654
					c-14.138,0.898-27.416,4.181-39.468,9.759c-0.457,0.212-0.701,0.743-0.58,1.263l2.054,8.804c28.161-8.18,63.511-8.18,91.672,0
					l2.054-8.801c0.121-0.521-0.122-1.052-0.579-1.263c-11.812-5.449-25.464-8.819-39.479-9.747
					c-1.378-0.091-2.421-1.282-2.329-2.66c0.091-1.378,1.271-2.418,2.659-2.33c14.62,0.968,28.882,4.493,41.243,10.196
					c2.602,1.199,4.012,4.118,3.354,6.938l-2.659,11.397c-0.158,0.677-0.591,1.258-1.194,1.603
					C153.188,68.637,152.76,68.748,152.329,68.748z"/>
			</g>
		</g>
		<g>
			<g>
				<path d="M54.246,58.227c-0.36,0-0.727-0.078-1.074-0.244c-4.847-2.312-10.967-6.166-12.605-11.401
					c-0.782-2.499-0.464-5.1,0.92-7.522c5.582-9.767,27.812-35.113,63.178-35.113s57.596,25.346,63.178,35.113
					c1.384,2.422,1.702,5.023,0.921,7.521c-1.638,5.233-7.757,9.088-12.603,11.399c-1.246,0.594-2.737,0.065-3.333-1.18
					c-0.594-1.246-0.065-2.738,1.181-3.333c5.499-2.624,9.138-5.678,9.983-8.38c0.37-1.186,0.215-2.313-0.491-3.548
					c-5.181-9.065-25.85-32.593-58.836-32.593S51.009,32.475,45.828,41.54c-0.706,1.235-0.861,2.362-0.49,3.548
					c0.846,2.703,4.486,5.758,9.986,8.382c1.246,0.594,1.774,2.086,1.181,3.333C56.076,57.701,55.18,58.227,54.246,58.227z"/>
			</g>
		</g>
		<g>
			<g>
				<path d="M104.664,58c-5.79,0-10.5-5.832-10.5-13s4.71-13,10.5-13s10.5,5.832,10.5,13S110.454,58,104.664,58z M104.664,37
					c-2.981,0-5.5,3.664-5.5,8s2.519,8,5.5,8s5.5-3.664,5.5-8S107.646,37,104.664,37z"/>
			</g>
		</g>
		<g>
			<g>
				<path class="st8" d="M165.547,17.33c4.498-0.838,8.043-4.31,8.898-8.716c0.043-0.221,0.352-0.221,0.395,0
					c0.855,4.406,4.4,7.879,8.898,8.716c0.226,0.042,0.226,0.345,0,0.387c-4.498,0.838-8.043,4.31-8.898,8.717
					c-0.043,0.221-0.352,0.221-0.395,0c-0.855-4.406-4.4-7.879-8.898-8.717C165.321,17.675,165.321,17.373,165.547,17.33z"/>
			</g>
		</g>
		<g>
			<g>
				<path class="st7" d="M168.854,126.101c2.862-0.533,5.118-2.743,5.663-5.547c0.027-0.141,0.224-0.141,0.251,0
					c0.544,2.804,2.8,5.014,5.663,5.547c0.144,0.027,0.144,0.219,0,0.246c-2.862,0.533-5.118,2.743-5.663,5.547
					c-0.027,0.141-0.224,0.141-0.251,0c-0.544-2.804-2.8-5.014-5.663-5.547C168.71,126.32,168.71,126.128,168.854,126.101z"/>
			</g>
		</g>
		<g>
			<g>
				<path class="st6" d="M42.122,114.75h-2.33v-2.33c0-1.744-1.413-3.157-3.157-3.157c-1.744,0-3.157,1.413-3.157,3.157v2.33h-2.329
					c-1.744,0-3.157,1.413-3.157,3.157s1.413,3.157,3.157,3.157h2.329v2.33c0,1.744,1.413,3.157,3.157,3.157
					c1.744,0,3.157-1.413,3.157-3.157v-2.33h2.33c1.744,0,3.157-1.413,3.157-3.157S43.866,114.75,42.122,114.75z"/>
			</g>
		</g>
		<g>
			<g>
				<circle class="st9" cx="184.614" cy="155.825" r="3.377"/>
			</g>
		</g>
		<g>
			<g>
				<circle class="st7" cx="56.614" cy="3.377" r="3.377"/>
			</g>
		</g>
		<g>
			<g>
				<path d="M217.278,213.777h-66.212c-6.278,0-11.387-5.107-11.387-11.386c0-1.381,1.119-2.5,2.5-2.5s2.5,1.119,2.5,2.5
					c0,3.521,2.865,6.386,6.387,6.386h66.212c3.521,0,6.386-2.865,6.386-6.386c0-1.381,1.119-2.5,2.5-2.5s2.5,1.119,2.5,2.5
					C228.664,208.669,223.557,213.777,217.278,213.777z"/>
			</g>
		</g>
		<g>
			<g>
				<path d="M202.86,187.001h-66.212c-6.278,0-11.386-5.107-11.386-11.386c0-1.381,1.119-2.5,2.5-2.5s2.5,1.119,2.5,2.5
					c0,3.521,2.864,6.386,6.386,6.386h66.212c3.521,0,6.386-2.865,6.386-6.386c0-1.381,1.119-2.5,2.5-2.5s2.5,1.119,2.5,2.5
					C214.246,181.894,209.139,187.001,202.86,187.001z"/>
			</g>
		</g>
		<g>
			<g>
				<path d="M213.077,244.672H202.64c-2.476,0-4.49-2.015-4.49-4.491v-5.288c0-2.476,2.015-4.49,4.49-4.49h10.438
					c2.476,0,4.49,2.014,4.49,4.49v5.288C217.567,242.657,215.553,244.672,213.077,244.672z M203.149,239.672h9.418v-4.269h-9.418
					V239.672z M213.077,235.403h0.01H213.077z"/>
			</g>
		</g>
		<g>
			<g>
				<path d="M140.478,256h-35.813c-1.381,0-2.5-1.119-2.5-2.5v-20.636c0-2.05,0.255-4.081,0.756-6.036l20.446-79.733
					c0.198-0.77,0.75-1.4,1.487-1.698c0.735-0.297,1.571-0.227,2.249,0.192l0.121,0.075c0.148,0.092,0.296,0.188,0.455,0.268
					l8.584,4.232c1.756,0.866,3.611,1.548,5.514,2.027l24.835,6.269c5.565,1.401,9.972,5.495,11.786,10.95
					c0.436,1.31-0.272,2.726-1.583,3.161c-1.313,0.439-2.726-0.274-3.161-1.583c-1.272-3.826-4.362-6.697-8.265-7.68l-24.835-6.269
					c-2.242-0.564-4.431-1.369-6.502-2.391l-6.623-3.266l-19.665,76.688c-0.398,1.549-0.6,3.162-0.6,4.793V251h33.313
					c0.083,0,0.128-0.055,0.147-0.087c0.701-1.19,2.234-1.583,3.424-0.883c1.188,0.702,1.584,2.234,0.883,3.423
					C144.005,255.024,142.298,256,140.478,256z"/>
			</g>
		</g>
		<g>
			<g>
				<g>
					<path d="M124.229,149.022c-0.615,0-1.23-0.225-1.714-0.68c-2.435-2.292-3.831-5.511-3.831-8.831v-9.554
						c0-1.381,1.119-2.5,2.5-2.5s2.5,1.119,2.5,2.5v9.554c0,1.947,0.823,3.839,2.259,5.19c1.005,0.946,1.053,2.528,0.106,3.534
						C125.558,148.758,124.895,149.022,124.229,149.022z"/>
				</g>
			</g>
			<g>
				<g>
					<path d="M107.469,168h-5.614c-1.381,0-2.5-1.119-2.5-2.5s1.119-2.5,2.5-2.5h5.614c1.381,0,2.5,1.119,2.5,2.5
						S108.85,168,107.469,168z"/>
				</g>
			</g>
			<g>
				<g>
					<path d="M85.077,149.043c-0.668,0-1.334-0.266-1.827-0.792c-0.942-1.008-0.89-2.59,0.118-3.534
						c1.446-1.353,2.276-3.25,2.276-5.206v-9.323c0-1.381,1.119-2.5,2.5-2.5s2.5,1.119,2.5,2.5v9.323
						c0,3.334-1.407,6.563-3.86,8.857C86.302,148.82,85.688,149.043,85.077,149.043z"/>
				</g>
			</g>
		</g>
		<g>
			<g>
				<path d="M141.569,172.2c-0.197,0-0.398-0.023-0.599-0.073c-1.341-0.329-2.16-1.683-1.831-3.024
					c0.005-0.02,0.012-0.06,0.004-0.112l-1.989-13.632c-0.199-1.366,0.746-2.635,2.112-2.834c1.37-0.203,2.635,0.746,2.835,2.113
					l1.989,13.631c0.1,0.681,0.067,1.363-0.096,2.027C143.715,171.437,142.693,172.2,141.569,172.2z"/>
			</g>
		</g>
		<g>
			<g>
				<path d="M104.975,233.526c-0.549,0-1.102-0.18-1.563-0.55c-1.076-0.865-1.248-2.438-0.384-3.515l22.547-28.086
					c0.862-1.076,2.436-1.249,3.515-0.385c1.076,0.865,1.248,2.438,0.384,3.515l-22.547,28.086
					C106.433,233.206,105.707,233.526,104.975,233.526z"/>
			</g>
		</g>
		<g>
			<g>
				<path d="M104.438,233.631c-0.732,0-1.458-0.32-1.951-0.935l-31.766-39.571c-1.168-1.454-1.426-3.531-0.655-5.29l4.727-10.795
					c0.012-0.028,0.017-0.066,0.016-0.103l-7.084-3.529c-1.777-0.886-2.8-3-2.486-5.142l1.966-13.469
					c0.199-1.367,1.459-2.317,2.835-2.113c1.366,0.199,2.312,1.468,2.112,2.834l-1.966,13.471c-0.003,0.021-0.004,0.039-0.004,0.056
					l7.084,3.529c2.237,1.115,3.183,4.018,2.106,6.471l-4.726,10.794c-0.021,0.051-0.019,0.151,0,0.192l31.739,39.533
					c0.864,1.077,0.692,2.65-0.384,3.515C105.54,233.451,104.987,233.631,104.438,233.631z M70.197,169.137h0.01H70.197z"/>
			</g>
		</g>
		<g>
			<g>
				<g>
					<path d="M117.693,178.789c-0.396,0-0.798-0.094-1.172-0.293c-5.188-2.76-8.376-7.052-10.137-10.167
						c-1.986-3.515-1.195-7.979,1.88-10.614l14.798-12.684c0.925-0.793,2.287-0.804,3.226-0.024
						c0.186,0.155,0.383,0.299,0.585,0.436c1.144,0.774,1.443,2.328,0.669,3.472c-0.581,0.857-1.603,1.24-2.554,1.052l-13.47,11.544
						c-1.266,1.085-1.595,2.918-0.781,4.358c1.434,2.535,4.009,6.019,8.132,8.213c1.22,0.648,1.682,2.162,1.033,3.381
						C119.453,178.307,118.588,178.789,117.693,178.789z"/>
				</g>
			</g>
		</g>
		<g>
			<g>
				<g>
					<path d="M91.634,178.789c-0.895,0-1.76-0.481-2.209-1.327c-0.648-1.219-0.186-2.733,1.033-3.381
						c4.126-2.194,6.7-5.677,8.133-8.213c0.814-1.44,0.485-3.272-0.781-4.357l-14.57-12.49c-1.049-0.898-1.17-2.477-0.271-3.525
						c0.9-1.049,2.478-1.169,3.525-0.271l14.57,12.49c3.076,2.635,3.867,7.099,1.881,10.614c-1.76,3.115-4.948,7.408-10.139,10.168
						C92.432,178.695,92.03,178.789,91.634,178.789z"/>
				</g>
			</g>
		</g>
		<g>
			<g>
				<path d="M104.664,177.082c-3.14,0-6.127-1.2-8.413-3.379c-1-0.953-1.038-2.535-0.085-3.535c0.953-0.999,2.538-1.036,3.534-0.084
					c1.353,1.289,3.115,1.999,4.964,1.999c1.79,0,3.51-0.67,4.845-1.888c1.021-0.93,2.601-0.857,3.531,0.162
					c0.931,1.02,0.858,2.602-0.162,3.532C110.621,175.947,107.703,177.082,104.664,177.082z"/>
			</g>
		</g>
		<g>
			<g>
				<path d="M112.044,203.112c-1.283,0-2.376-0.983-2.488-2.286l-2.323-26.986c-0.118-1.375,0.901-2.587,2.276-2.705
					c1.371-0.118,2.588,0.901,2.706,2.276l2.323,26.986c0.118,1.375-0.901,2.587-2.276,2.705
					C112.188,203.109,112.116,203.112,112.044,203.112z"/>
			</g>
		</g>
		<g>
			<g>
				<path d="M97.284,203.108c-0.072,0-0.145-0.003-0.218-0.009c-1.375-0.119-2.395-1.33-2.276-2.705l2.333-27.089
					c0.119-1.376,1.336-2.39,2.706-2.276c1.375,0.119,2.395,1.33,2.276,2.705l-2.333,27.089
					C99.66,202.125,98.567,203.108,97.284,203.108z"/>
			</g>
		</g>
		<g>
			<g>
				<path d="M104.664,256H68.852c-2.854,0-5.177-2.322-5.177-5.177v-9.58c0-7.066-0.912-14.079-2.714-20.896v30.476
					c0,2.854-2.322,5.177-5.176,5.177h-21.99c-1.768,0-3.478-0.736-4.692-2.02c-1.215-1.284-1.854-3.033-1.757-4.798l2.743-75.371
					c0.412-7.403,5.487-13.554,12.631-15.352l24.831-6.268c1.902-0.479,3.758-1.161,5.516-2.027l8.587-4.234
					c0.153-0.076,0.298-0.17,0.443-0.262l0.129-0.08c0.678-0.418,1.512-0.489,2.249-0.192c0.737,0.297,1.289,0.928,1.487,1.698
					l20.447,79.733c0.501,1.957,0.755,3.988,0.755,6.036V253.5C107.164,254.881,106.045,256,104.664,256z M58.463,201.181
					c1.078,0,2.055,0.699,2.385,1.755l3.883,12.438c2.617,8.385,3.944,17.088,3.944,25.87v9.58c0,0.098,0.079,0.177,0.177,0.177
					h33.313v-18.136c0-1.63-0.201-3.244-0.599-4.795l-19.666-76.686l-6.622,3.265c-2.074,1.022-4.262,1.827-6.504,2.391
					l-24.831,6.268c-5.013,1.262-8.572,5.575-8.859,10.734l-2.743,75.37c-0.032,0.594,0.233,0.961,0.396,1.132
					c0.161,0.17,0.513,0.456,1.06,0.456h21.99c0.097,0,0.176-0.079,0.176-0.177v-47.143c0-1.235,0.902-2.285,2.123-2.472
					C58.211,201.19,58.338,201.181,58.463,201.181z"/>
			</g>
		</g>
	</g>
</g>
<g id="Layer_31">
</g>
<g id="Layer_32">
</g>
<g id="Layer_33">
</g>
<g id="Layer_34">
</g>
<g id="Layer_35">
</g>
<g id="Layer_36">
</g>
<g id="Layer_37">
</g>
<g id="Layer_38">
</g>
<g id="Layer_39">
</g>
<g id="Layer_40">
</g>
<g id="Layer_41">
</g>
<g id="Layer_42">
</g>
<g id="Layer_43">
</g>
<g id="Layer_44">
</g>
<g id="Layer_45">
</g>
<g id="Layer_46">
</g>
<g id="Layer_47">
</g>
<g id="Layer_48">
</g>
<g id="Layer_49">
</g>
<g id="Layer_50">
</g>
<g id="Layer_51">
</g>
<g id="Layer_52">
</g>
<g id="Layer_53">
</g>
<g id="Layer_54">
</g>
<g id="Layer_55">
</g>
<g id="Layer_56">
</g>
<g id="Layer_57">
</g>
<g id="Layer_58">
</g>
<g id="Layer_59">
</g>
<g id="Layer_60">
</g>
<g id="Layer_61">
</g>
<g id="Layer_62">
</g>
<g id="Layer_63">
</g>
<g id="Layer_64">
</g>
<g id="Layer_65">
</g>
<g id="Layer_66">
</g>
<g id="Layer_67">
</g>
<g id="Layer_68">
</g>
<g id="Layer_69">
</g>
<g id="Layer_70">
</g>
<g id="Layer_71">
</g>
<g id="Layer_72">
</g>
<g id="Layer_73">
</g>
<g id="Layer_74">
</g>
<g id="Layer_75">
</g>
<g id="Layer_76">
</g>
<g id="Layer_77">
</g>
<g id="Layer_78">
</g>
<g id="Layer_79">
</g>
<g id="Layer_80">
</g>
</svg>
