<?xml version="1.0" encoding="utf-8"?>
<!-- Generator: Adobe Illustrator 24.0.0, SVG Export Plug-In . SVG Version: 6.00 Build 0)  -->
<svg version="1.1" xmlns="http://www.w3.org/2000/svg" xmlns:xlink="http://www.w3.org/1999/xlink" x="0px" y="0px"
	 viewBox="0 0 256 256" style="enable-background:new 0 0 256 256;" xml:space="preserve">
<style type="text/css">
	.st0{fill:#3A70BF;}
	.st1{fill:#EDF4FC;}
	.st2{fill:#C7D7E5;}
	.st3{fill:#F9D0B4;}
	.st4{fill:#5B5D60;}
	.st5{fill:#5290DB;}
	.st6{fill:#70D6F9;}
	.st7{fill:#F5C84C;}
	.st8{fill:#FC657E;}
	.st9{fill:#87D147;}
	.st10{fill:#FCDD86;}
	.st11{fill:#9BE5F9;}
	.st12{fill:#B2E26D;}
	.st13{fill:#754E34;}
	.st14{fill:#FCA265;}
	.st15{fill:#818182;}
	.st16{fill:#F94EED;}
	.st17{fill:#FFC197;}
	.st18{fill:#3CAADC;}
	.st19{fill:#DAE6F1;}
	.st20{fill:#57AF12;}
	.st21{fill:#EF4460;}
	.st22{fill:#FFF0CA;}
	.st23{fill:#F98FA6;}
	.st24{fill:#EDB311;}
	.st25{fill:#FC8C48;}
	.st26{fill:#FCB9CB;}
	.st27{fill:#96BC71;}
	.st28{fill:#78A352;}
	.st29{fill:#B8DD90;}
	.st30{fill:#6FAFEF;}
	.st31{fill:#29589F;}
	.st32{fill:#414344;}
	.st33{fill:#9B6B4B;}
	.st34{fill:#73B1EF;}
</style>
<g id="Layer_1">
</g>
<g id="Layer_2">
</g>
<g id="Layer_3">
</g>
<g id="Layer_4">
</g>
<g id="Layer_5">
</g>
<g id="Layer_6">
</g>
<g id="Layer_7">
</g>
<g id="Layer_8">
</g>
<g id="Layer_9">
</g>
<g id="Layer_10">
</g>
<g id="Layer_11">
</g>
<g id="Layer_12">
</g>
<g id="Layer_13">
</g>
<g id="Layer_14">
</g>
<g id="Layer_15">
</g>
<g id="Layer_16">
</g>
<g id="Layer_17">
</g>
<g id="Layer_18">
</g>
<g id="Layer_19">
</g>
<g id="Layer_20">
</g>
<g id="Layer_21">
</g>
<g id="Layer_22">
</g>
<g id="Layer_23">
</g>
<g id="Layer_24">
</g>
<g id="Layer_25">
</g>
<g id="Layer_26">
</g>
<g id="Layer_27">
</g>
<g id="Layer_28">
</g>
<g id="Layer_29">
</g>
<g id="Layer_30">
</g>
<g id="Layer_31">
</g>
<g id="Layer_32">
</g>
<g id="Layer_33">
</g>
<g id="Layer_34">
</g>
<g id="Layer_35">
</g>
<g id="Layer_36">
</g>
<g id="Layer_37">
</g>
<g id="Layer_38">
</g>
<g id="Layer_39">
</g>
<g id="Layer_40">
</g>
<g id="Layer_41">
</g>
<g id="Layer_42">
</g>
<g id="Layer_43">
</g>
<g id="Layer_44">
	<g>
		<g>
			<g>
				<path class="st7" d="M140.053,253.5c14.735-5.029,25.366-19,25.366-35.416c0-20.633-16.787-37.418-37.419-37.418
					c-20.632,0-37.419,16.786-37.419,37.418c0,16.416,10.631,30.386,25.366,35.416C122.022,253.5,133.965,253.5,140.053,253.5z"/>
			</g>
		</g>
		<g>
			<g>
				<path class="st32" d="M121.038,235.286V253.5c1.691,0,12.591,0,13.923,0v-18.214c-2.1,1.048-4.459,1.653-6.962,1.653
					S123.139,236.334,121.038,235.286z"/>
			</g>
		</g>
		<g>
			<g>
				<g>
					<path class="st3" d="M93.268,78.555v19.9c0,19.102,15.629,34.732,34.732,34.732c19.102,0,34.732-15.629,34.732-34.732v-19.9
						C142,87.452,114.001,87.453,93.268,78.555z"/>
				</g>
			</g>
		</g>
		<g>
			<g>
				<path d="M140.053,256h-24.105c-1.381,0-2.5-1.119-2.5-2.5s1.119-2.5,2.5-2.5h24.105c1.381,0,2.5,1.119,2.5,2.5
					S141.434,256,140.053,256z"/>
			</g>
		</g>
		<g>
			<g>
				<path class="st7" d="M179.126,213.5h22.392l-1.441-39.598c-0.347-6.223-4.699-11.497-10.743-13.019l-24.833-6.269
					c-1.806-0.455-3.562-1.084-5.253-1.861c-0.022,0.385-0.155,0.767-0.419,1.086l-13.227,16.012
					C163.894,176.549,177.336,193.375,179.126,213.5z"/>
			</g>
		</g>
		<g>
			<g>
				<path class="st7" d="M110.398,169.852L97.171,153.84c-0.264-0.319-0.397-0.701-0.419-1.086
					c-1.691,0.777-3.447,1.407-5.253,1.861l-24.833,6.269c-6.044,1.521-10.396,6.796-10.743,13.019L54.481,213.5h22.392
					C78.664,193.375,92.106,176.549,110.398,169.852z"/>
			</g>
		</g>
		<g>
			<g>
				<path class="st3" d="M171.858,73.729c-2.829,1.825-5.886,3.436-9.126,4.827c0,6.637,0,16.077,0,19.9l0,0v0
					c0,0.783-0.036,1.558-0.088,2.329c0.756,0.122,1.526,0.202,2.316,0.202c8.009,0,14.501-6.492,14.501-14.501
					C179.461,80.974,176.386,76.182,171.858,73.729z"/>
			</g>
		</g>
		<g>
			<g>
				<path class="st3" d="M93.268,98.455L93.268,98.455c0-3.823,0-13.263,0-19.9c-3.24-1.39-6.297-3.002-9.126-4.827
					c-4.528,2.453-7.603,7.246-7.603,12.758c0,8.009,6.492,14.501,14.501,14.501c0.79,0,1.56-0.081,2.316-0.202
					C93.304,100.014,93.268,99.239,93.268,98.455L93.268,98.455z"/>
			</g>
		</g>
		<g>
			<g>
				<path class="st13" d="M176.649,120.456c6.634-10.404,3.501-20.533,0.574-26.254c-2.568,4.072-7.093,6.786-12.263,6.786
					c-0.79,0-1.56-0.081-2.316-0.202c-0.816,12.152-7.945,22.646-18.124,28.194v10.533c0,2.165,0.736,4.206,2.008,5.856l1.367-1.437
					c0.702-0.739,1.866-0.779,2.619-0.092l8.134,7.427c0.432,0.395,0.631,0.947,0.6,1.492c1.168,0.528,2.505,1.046,3.59,1.386
					c0.263,0.083,0.529,0.154,0.794,0.229c5.111-1.871,9.621-4.841,12.542-9.466c5.356-8.479,2.23-16.696,0.259-20.374
					C175.741,123.241,175.86,121.691,176.649,120.456z"/>
			</g>
		</g>
		<g>
			<g>
				<path class="st13" d="M97.352,151.265l8.134-7.427c0.753-0.687,1.917-0.646,2.619,0.092l1.367,1.437
					c1.272-1.65,2.008-3.691,2.008-5.856v-10.533c-10.179-5.548-17.309-16.042-18.124-28.194c-0.756,0.122-1.526,0.202-2.316,0.202
					c-5.17,0-9.695-2.714-12.262-6.786c-2.926,5.721-6.06,15.851,0.574,26.254c0.788,1.236,0.908,2.785,0.215,4.077
					c-1.971,3.677-5.097,11.894,0.259,20.374c2.921,4.625,7.43,7.595,12.542,9.466c0.265-0.075,0.531-0.147,0.794-0.229
					c1.085-0.34,2.422-0.857,3.59-1.386C96.72,152.212,96.92,151.66,97.352,151.265z"/>
			</g>
		</g>
		<g>
			<g>
				<path class="st4" d="M80.335,65.302v2.808c0,1.917,0.95,3.706,2.53,4.79c23.99,16.451,66.283,16.448,90.27,0
					c1.581-1.084,2.53-2.873,2.53-4.79v-2.808C148.44,56.768,110.64,55.802,80.335,65.302z"/>
			</g>
		</g>
		<g>
			<g>
				<path class="st10" d="M176.292,49.773c-8.193-3.772-17.197-6.56-26.61-8.261c-6.758-1.221-13.626-1.723-20.493-1.73
					l-2.218-0.002c-7.751-0.007-15.504,0.623-23.102,2.158c-8.299,1.677-16.435,4.264-24.157,7.831
					c-1.571,0.726-2.428,2.446-2.035,4.132l2.659,11.4c30.305-9.499,68.105-8.534,95.33,0l2.659-11.397
					C178.717,52.219,177.864,50.497,176.292,49.773z"/>
			</g>
		</g>
		<g>
			<g>
				<path class="st7" d="M189.007,39.353C183.364,29.479,161.853,5.5,128,5.5c-33.853,0-55.364,23.979-61.007,33.853
					c-4.184,7.323,5.591,13.09,10.924,15.584l-0.241-1.035c-0.393-1.686,0.464-3.406,2.035-4.132
					c7.722-3.567,15.858-6.155,24.157-7.831c7.598-1.535,15.351-2.165,23.102-2.158l2.218,0.002
					c6.867,0.006,13.736,0.509,20.493,1.73c9.413,1.701,18.417,4.489,26.61,8.261c1.572,0.723,2.425,2.446,2.032,4.131l-0.241,1.032
					C183.417,52.443,193.191,46.676,189.007,39.353z"/>
			</g>
		</g>
		<g>
			<g>
				<path class="st1" d="M158.648,151.265l-8.134-7.427c-0.753-0.687-1.917-0.646-2.619,0.092l-15.687,16.491
					c-0.77,0.81-0.78,2.078-0.022,2.899l3.728,4.038c3.344,0.521,6.58,1.367,9.679,2.503l13.236-16.022
					C159.465,153.071,159.385,151.938,158.648,151.265z"/>
			</g>
		</g>
		<g>
			<g>
				<path class="st1" d="M120.086,167.359l3.728-4.038c0.758-0.821,0.748-2.089-0.022-2.899l-15.687-16.491
					c-0.702-0.739-1.866-0.779-2.619-0.092l-8.134,7.427c-0.737,0.673-0.817,1.806-0.181,2.575l13.236,16.022
					C113.505,168.726,116.742,167.88,120.086,167.359z"/>
			</g>
		</g>
		<g>
			<g>
				<path class="st3" d="M123.813,163.321l-3.728,4.038c2.581-0.402,5.223-0.617,7.914-0.617s5.334,0.215,7.914,0.617l-3.728-4.038
					c-0.758-0.821-0.748-2.089,0.022-2.899l14.317-15.051c-1.267-1.655-2.005-3.697-2.005-5.86v-10.533
					c-4.92,2.682-10.551,4.208-16.52,4.208c-5.97,0-11.6-1.526-16.52-4.208v10.533c0,2.163-0.738,4.205-2.005,5.86l14.317,15.051
					C124.562,161.232,124.571,162.5,123.813,163.321z"/>
			</g>
		</g>
		<g>
			<g>
				<path class="st1" d="M202.242,213.5h-23.115c0.135,1.512,0.215,3.039,0.215,4.584c0,3.217-0.312,6.361-0.88,9.416h23.781
					c1.635,0,2.961-1.326,2.961-2.961v-8.078C205.203,214.826,203.877,213.5,202.242,213.5z"/>
			</g>
		</g>
		<g>
			<g>
				<path class="st1" d="M76.658,218.084c0-1.546,0.081-3.073,0.215-4.584H53.758c-1.635,0-2.961,1.326-2.961,2.961v8.078
					c0,1.635,1.326,2.961,2.961,2.961h23.781C76.97,224.445,76.658,221.302,76.658,218.084z"/>
			</g>
		</g>
		<g>
			<g>
				<path class="st3" d="M77.539,227.5H53.972l-0.794,21.821c-0.127,2.269,1.68,4.179,3.953,4.179h21.99
					c1.478,0,2.677-1.198,2.677-2.677v-10.366C79.828,236.406,78.387,232.056,77.539,227.5z"/>
			</g>
		</g>
		<g>
			<g>
				<path class="st3" d="M202.028,227.5h-23.567c-0.848,4.556-2.289,8.906-4.259,12.957v10.366c0,1.479,1.198,2.677,2.677,2.677
					h21.99c2.273,0,4.079-1.91,3.953-4.179L202.028,227.5z"/>
			</g>
		</g>
		<g>
			<g>
				<path class="st15" d="M128,166.743c-28.31,0-51.342,23.032-51.342,51.342c0,13.723,5.422,26.195,14.224,35.416h4.647h20.418
					c-14.735-5.029-25.366-19-25.366-35.416c0-20.633,16.786-37.418,37.419-37.418c20.632,0,37.419,16.786,37.419,37.418
					c0,16.416-10.631,30.386-25.366,35.416h20.418h4.647c8.801-9.22,14.224-21.693,14.224-35.416
					C179.342,189.775,156.31,166.743,128,166.743z"/>
			</g>
		</g>
		<g>
			<g>
				<path class="st8" d="M128,166.743c-11.282,0-21.719,3.667-30.201,9.858c2.517,4.449,5.122,8.295,7.792,11.536
					c6.251-4.689,14.011-7.471,22.408-7.471c8.398,0,16.158,2.782,22.409,7.471c2.671-3.241,5.276-7.087,7.792-11.536
					C149.719,170.409,139.282,166.743,128,166.743z"/>
			</g>
		</g>
		<g>
			<g>
				<path class="st15" d="M128,205.612c-8.637,0-15.664,7.027-15.664,15.664s7.026,15.664,15.664,15.664s15.664-7.027,15.664-15.664
					S136.637,205.612,128,205.612z"/>
			</g>
		</g>
		<g>
			<g>
				<path class="st32" d="M143.664,221.275c0,1.473-0.219,2.894-0.601,4.246c7.989-1.671,15.506-4.64,22.324-8.673
					c-0.167-5.108-1.361-9.958-3.384-14.354c-6.388,4.438-13.68,7.658-21.536,9.336C142.464,214.46,143.664,217.727,143.664,221.275
					z"/>
			</g>
		</g>
		<g>
			<g>
				<path class="st32" d="M112.336,221.275c0-3.549,1.2-6.815,3.197-9.444c-7.856-1.678-15.148-4.898-21.536-9.336
					c-2.023,4.396-3.217,9.246-3.384,14.354c6.818,4.033,14.336,7.002,22.324,8.673
					C112.555,224.169,112.336,222.749,112.336,221.275z"/>
			</g>
		</g>
		<g>
			<g>
				<path d="M201.482,215.063c-1.339,0-2.447-1.06-2.496-2.409l-1.406-38.66c-0.286-5.11-3.846-9.424-8.855-10.685l-24.836-6.269
					c-1.84-0.463-3.685-1.109-5.481-1.921c-1.258-0.568-1.817-2.049-1.249-3.307c0.568-1.259,2.051-1.818,3.308-1.25
					c1.527,0.689,3.09,1.238,4.646,1.629l24.836,6.269c7.141,1.797,12.216,7.948,12.627,15.303l1.408,38.709
					c0.051,1.38-1.027,2.539-2.407,2.589C201.544,215.062,201.514,215.063,201.482,215.063z"/>
			</g>
		</g>
		<g>
			<g>
				<path d="M54.504,215.438c-0.031,0-0.062,0-0.093-0.001c-1.38-0.05-2.458-1.209-2.407-2.589l1.42-39.035
					c0.413-7.404,5.488-13.554,12.631-15.352l24.832-6.268c1.479-0.372,2.966-0.886,4.419-1.528c1.26-0.559,2.737,0.013,3.297,1.277
					c0.558,1.263-0.014,2.739-1.277,3.297c-1.711,0.755-3.466,1.362-5.216,1.802l-24.832,6.268
					c-5.012,1.262-8.571,5.575-8.859,10.734L57,213.028C56.951,214.377,55.842,215.438,54.504,215.438z"/>
			</g>
		</g>
		<g>
			<g>
				<path d="M164.961,103.487c-0.611,0-1.228-0.039-1.886-0.118c-1.371-0.165-2.349-1.409-2.185-2.78
					c0.164-1.372,1.419-2.352,2.78-2.184c0.458,0.055,0.881,0.082,1.29,0.082c6.617,0,12-5.383,12-12
					c0-4.247-2.175-8.093-5.817-10.287c-1.183-0.713-1.563-2.249-0.852-3.432c0.713-1.184,2.25-1.564,3.432-0.852
					c5.158,3.108,8.237,8.555,8.237,14.57C181.961,95.86,174.335,103.487,164.961,103.487z"/>
			</g>
		</g>
		<g>
			<g>
				<path d="M91.04,103.487c-9.374,0-17.001-7.626-17.001-17c0-5.964,3.187-11.565,8.317-14.618c1.184-0.705,2.72-0.318,3.427,0.87
					c0.706,1.187,0.316,2.721-0.87,3.427c-3.623,2.156-5.874,6.111-5.874,10.321c0,6.617,5.384,12,12.001,12
					c0.36,0,0.733-0.021,1.14-0.064c1.379-0.149,2.604,0.847,2.752,2.22c0.146,1.373-0.848,2.605-2.221,2.751
					C92.126,103.457,91.58,103.487,91.04,103.487z"/>
			</g>
		</g>
		<g>
			<g>
				<g>
					<path d="M128,135.687c-20.529,0-37.231-16.702-37.231-37.231V79.438c0-1.381,1.119-2.5,2.5-2.5s2.5,1.119,2.5,2.5v19.018
						c0,17.772,14.459,32.231,32.231,32.231s32.231-14.459,32.231-32.231V79.281c0-1.381,1.119-2.5,2.5-2.5s2.5,1.119,2.5,2.5
						v19.174C165.231,118.985,148.529,135.687,128,135.687z"/>
				</g>
			</g>
		</g>
		<g>
			<g>
				<path d="M128,117.757c-4.775,0-9.262-1.949-11.999-5.215c-0.887-1.058-0.748-2.635,0.31-3.522
					c1.058-0.886,2.634-0.75,3.522,0.31c1.799,2.146,4.852,3.427,8.167,3.427s6.368-1.281,8.167-3.427
					c0.889-1.059,2.465-1.196,3.522-0.31c1.058,0.887,1.196,2.464,0.31,3.522C137.262,115.808,132.775,117.757,128,117.757z"/>
			</g>
		</g>
		<g>
			<g>
				<circle cx="143.111" cy="90.5" r="4.5"/>
			</g>
		</g>
		<g>
			<g>
				<circle cx="112.889" cy="90.5" r="4.5"/>
			</g>
		</g>
		<g>
			<g>
				<path d="M164.472,156.554c-0.996,0-1.938-0.599-2.326-1.582c-0.508-1.284,0.122-2.736,1.406-3.244
					c4.738-1.874,8.273-4.618,10.508-8.157c4.585-7.258,2.075-14.304,0.171-17.858c-1.1-2.047-0.98-4.578,0.311-6.602
					c5.54-8.689,3.559-17.208,0.921-22.824c-0.587-1.25-0.05-2.739,1.2-3.326c1.247-0.59,2.737-0.05,3.325,1.2
					c4.483,9.546,4.047,19.362-1.23,27.639c-0.324,0.508-0.369,1.087-0.12,1.551c1.947,3.635,5.811,13.139-0.35,22.891
					c-2.813,4.455-7.152,7.865-12.897,10.137C165.088,156.498,164.777,156.554,164.472,156.554z"/>
			</g>
		</g>
		<g>
			<g>
				<path d="M92.099,156.773c-0.292,0-0.589-0.051-0.878-0.16c-6.052-2.271-10.597-5.76-13.509-10.372
					c-6.159-9.752-2.296-19.256-0.349-22.889c0.248-0.465,0.204-1.045-0.119-1.552c-7.26-11.385-3.739-22.513-0.994-28.133
					c0.605-1.24,2.105-1.754,3.343-1.149c1.241,0.606,1.756,2.103,1.149,3.344c-2.791,5.716-4.933,14.39,0.718,23.25
					c1.289,2.023,1.408,4.553,0.31,6.602c-1.904,3.554-4.414,10.6,0.17,17.858c2.317,3.669,6.03,6.482,11.037,8.36
					c1.293,0.485,1.948,1.926,1.463,3.219C94.062,156.154,93.11,156.773,92.099,156.773z"/>
			</g>
		</g>
		<g>
			<g>
				<path d="M128,87.714c-17.077,0.001-34.148-4.25-46.549-12.753c-2.265-1.553-3.616-4.114-3.616-6.852v-2.505
					c0-1.381,1.119-2.5,2.5-2.5s2.5,1.119,2.5,2.5v2.505c0,1.088,0.54,2.108,1.444,2.728c23.289,15.972,64.15,15.972,87.441,0
					c0.904-0.62,1.444-1.64,1.444-2.728v-2.422c0-1.381,1.119-2.5,2.5-2.5s2.5,1.119,2.5,2.5v2.422c0,2.738-1.352,5.299-3.616,6.852
					C162.151,83.462,145.073,87.713,128,87.714z"/>
			</g>
		</g>
		<g>
			<g>
				<path d="M80.335,67.802c-0.431,0-0.858-0.111-1.24-0.329c-0.604-0.345-1.036-0.926-1.194-1.603l-2.659-11.4
					c-0.657-2.82,0.782-5.75,3.422-6.969c7.712-3.562,16.025-6.258,24.71-8.013c7.251-1.464,15.147-2.207,23.468-2.207
					c0.045,0,0.088,0,0.132,0l2.218,0.002c7.536,0.007,14.384,0.586,20.936,1.77c9.675,1.748,18.83,4.591,27.212,8.45l0,0
					c2.64,1.216,4.079,4.147,3.421,6.969L178.1,65.87c-0.158,0.677-0.591,1.258-1.194,1.603c-0.605,0.345-1.324,0.423-1.988,0.215
					c-28.5-8.934-65.334-8.934-93.834,0C80.838,67.764,80.586,67.802,80.335,67.802z M128,56.002
					c15.877,0,31.756,2.046,45.836,6.136l2.054-8.802c0.121-0.521-0.149-1.064-0.644-1.292c-7.998-3.683-16.749-6.398-26.009-8.072
					c-6.257-1.13-12.815-1.683-20.051-1.69l-2.218-0.002c-8.072,0.008-15.642,0.702-22.605,2.108
					c-8.304,1.678-16.245,4.251-23.604,7.65c-0.497,0.229-0.77,0.774-0.648,1.295l2.054,8.803
					C96.244,58.048,112.123,56.002,128,56.002z"/>
			</g>
		</g>
		<g>
			<g>
				<path d="M77.582,57.28c-0.36,0-0.727-0.078-1.074-0.244c-4.847-2.312-10.969-6.167-12.606-11.401
					c-0.781-2.498-0.463-5.099,0.921-7.521C70.403,28.347,92.633,3,128,3s57.597,25.347,63.178,35.113
					c1.384,2.422,1.702,5.023,0.92,7.521c-1.638,5.234-7.757,9.088-12.602,11.399c-1.245,0.594-2.737,0.065-3.333-1.18
					c-0.594-1.246-0.065-2.738,1.181-3.333c5.498-2.624,9.137-5.678,9.982-8.38c0.371-1.186,0.216-2.313-0.49-3.547
					C181.655,31.528,160.986,8,128,8S74.345,31.528,69.164,40.594c-0.706,1.235-0.861,2.362-0.491,3.547
					c0.846,2.703,4.486,5.758,9.987,8.382c1.246,0.594,1.774,2.086,1.181,3.333C79.412,56.754,78.516,57.28,77.582,57.28z"/>
			</g>
		</g>
		<g>
			<g>
				<path d="M146.067,171.787c-0.562,0-1.125-0.188-1.591-0.573c-1.064-0.879-1.215-2.455-0.336-3.52l12.381-14.987l-7.238-6.609
					l-15.019,15.788l2.917,3.159c0.937,1.014,0.873,2.596-0.141,3.533c-1.017,0.937-2.597,0.873-3.533-0.141l-3.158-3.42
					c-1.646-1.784-1.625-4.559,0.046-6.317l15.688-16.493c1.629-1.712,4.37-1.807,6.116-0.216l8.134,7.427
					c1.724,1.575,1.908,4.216,0.422,6.014l-12.76,15.447C147.501,171.478,146.787,171.787,146.067,171.787z"/>
			</g>
		</g>
		<g>
			<g>
				<path d="M109.83,171.663c-0.72,0-1.434-0.31-1.929-0.908l-12.658-15.323c-1.485-1.797-1.301-4.438,0.422-6.013l8.135-7.427
					c1.745-1.592,4.488-1.496,6.116,0.216l15.688,16.491c1.672,1.759,1.692,4.534,0.047,6.317l-3.445,3.732
					c-0.938,1.014-2.517,1.078-3.533,0.141c-1.014-0.937-1.077-2.518-0.141-3.533l3.204-3.47l-15.019-15.788l-7.238,6.609
					l12.278,14.863c0.879,1.064,0.729,2.64-0.336,3.52C110.955,171.476,110.392,171.663,109.83,171.663z"/>
			</g>
		</g>
		<g>
			<g>
				<path d="M146.164,147.366c-0.806,0-1.596-0.389-2.078-1.108c-1.352-2.015-2.065-4.348-2.065-6.746v-9.699
					c0-1.381,1.119-2.5,2.5-2.5s2.5,1.119,2.5,2.5v9.699c0,1.403,0.421,2.773,1.218,3.962c0.77,1.147,0.463,2.7-0.684,3.469
					C147.127,147.229,146.643,147.366,146.164,147.366z"/>
			</g>
		</g>
		<g>
			<g>
				<path d="M109.755,147.484c-0.491,0-0.986-0.144-1.42-0.444c-1.136-0.786-1.42-2.343-0.634-3.479
					c0.836-1.209,1.278-2.609,1.278-4.05v-9.929c0-1.381,1.119-2.5,2.5-2.5s2.5,1.119,2.5,2.5v9.929
					c0,2.461-0.749,4.846-2.167,6.895C111.327,147.108,110.548,147.484,109.755,147.484z"/>
			</g>
		</g>
		<g>
			<g>
				<path d="M128,206.887c-1.381,0-2.5-1.119-2.5-2.5v-23.241c0-1.381,1.119-2.5,2.5-2.5s2.5,1.119,2.5,2.5v23.241
					C130.5,205.768,129.381,206.887,128,206.887z"/>
			</g>
		</g>
		<g>
			<g>
				<path d="M202.242,230h-23.139c-1.381,0-2.5-1.119-2.5-2.5s1.119-2.5,2.5-2.5h23.139c0.254,0,0.461-0.207,0.461-0.461v-8.078
					c0-0.254-0.207-0.461-0.461-0.461h-22.263c-1.381,0-2.5-1.119-2.5-2.5s1.119-2.5,2.5-2.5h22.263c3.011,0,5.461,2.45,5.461,5.461
					v8.078C207.703,227.55,205.253,230,202.242,230z"/>
			</g>
		</g>
		<g>
			<g>
				<path d="M76.958,230h-23.2c-3.011,0-5.461-2.45-5.461-5.461v-8.078c0-3.011,2.45-5.461,5.461-5.461h22.398
					c1.381,0,2.5,1.119,2.5,2.5s-1.119,2.5-2.5,2.5H53.758c-0.254,0-0.461,0.207-0.461,0.461v8.078c0,0.254,0.207,0.461,0.461,0.461
					h23.2c1.381,0,2.5,1.119,2.5,2.5S78.339,230,76.958,230z"/>
			</g>
		</g>
		<g>
			<g>
				<path d="M79.12,256H57.131c-1.769,0-3.479-0.737-4.693-2.021c-1.215-1.284-1.854-3.033-1.756-4.797l0.77-21.146
					c0.05-1.38,1.212-2.443,2.589-2.408c1.38,0.05,2.458,1.209,2.407,2.589l-0.771,21.195c-0.032,0.594,0.233,0.961,0.395,1.132
					S56.584,251,57.131,251H79.12c0.098,0,0.177-0.079,0.177-0.177v-10.243c0-1.381,1.119-2.5,2.5-2.5s2.5,1.119,2.5,2.5v10.243
					C84.297,253.678,81.975,256,79.12,256z"/>
			</g>
		</g>
		<g>
			<g>
				<path d="M198.869,256H176.88c-2.854,0-5.177-2.322-5.177-5.177v-10.135c0-1.381,1.119-2.5,2.5-2.5s2.5,1.119,2.5,2.5v10.135
					c0,0.098,0.079,0.177,0.177,0.177h21.989c0.547,0,0.899-0.286,1.061-0.457s0.427-0.538,0.396-1.083l-0.769-21.12
					c-0.051-1.38,1.027-2.539,2.407-2.589c1.358-0.045,2.538,1.027,2.589,2.408l0.767,21.071c0.097,1.716-0.543,3.464-1.758,4.749
					C202.348,255.263,200.638,256,198.869,256z"/>
			</g>
		</g>
		<g>
			<g>
				<path d="M165.118,256h-25.065c-1.223,0-2.267-0.884-2.466-2.091c-0.2-1.206,0.501-2.38,1.658-2.775
					c14.16-4.832,23.674-18.114,23.674-33.049c0-19.254-15.665-34.918-34.919-34.918s-34.919,15.665-34.919,34.918
					c0,14.936,9.514,28.217,23.674,33.049c1.157,0.395,1.858,1.569,1.658,2.775c-0.199,1.207-1.243,2.091-2.466,2.091H90.882
					c-0.684,0-1.337-0.28-1.809-0.774c-9.618-10.075-14.915-23.266-14.915-37.142c0-29.688,24.153-53.842,53.842-53.842
					s53.842,24.153,53.842,53.842c0,13.875-5.297,27.066-14.915,37.142C166.455,255.72,165.802,256,165.118,256z M150.567,251
					h13.466c8.269-9.037,12.809-20.684,12.809-32.916c0-26.932-21.91-48.842-48.842-48.842s-48.842,21.91-48.842,48.842
					c0,12.232,4.54,23.878,12.809,32.916h13.466c-10.675-7.319-17.352-19.537-17.352-32.916c0-22.011,17.907-39.918,39.919-39.918
					s39.919,17.907,39.919,39.918C167.919,231.463,161.242,243.681,150.567,251z"/>
			</g>
		</g>
		<g>
			<g>
				<path d="M150.876,190.06c-0.55,0-1.103-0.18-1.564-0.552c-1.076-0.865-1.247-2.438-0.382-3.515
					c2.319-2.885,4.602-6.275,6.783-10.075c0.688-1.198,2.218-1.611,3.412-0.923c1.198,0.687,1.611,2.215,0.924,3.413
					c-2.311,4.025-4.74,7.631-7.223,10.718C152.332,189.741,151.607,190.06,150.876,190.06z"/>
			</g>
		</g>
		<g>
			<g>
				<path d="M105.031,189.944c-0.733,0-1.46-0.321-1.954-0.938c-2.455-3.069-4.858-6.646-7.144-10.63
					c-0.687-1.198-0.272-2.726,0.926-3.413c1.196-0.686,2.726-0.273,3.412,0.925c2.157,3.763,4.415,7.125,6.71,9.994
					c0.862,1.078,0.688,2.651-0.391,3.514C106.13,189.765,105.578,189.944,105.031,189.944z"/>
			</g>
		</g>
		<g>
			<g>
				<path d="M128,239.439c-10.016,0-18.164-8.148-18.164-18.164s8.148-18.164,18.164-18.164s18.164,8.148,18.164,18.164
					S138.016,239.439,128,239.439z M128,208.112c-7.259,0-13.164,5.905-13.164,13.164s5.905,13.164,13.164,13.164
					s13.164-5.905,13.164-13.164S135.259,208.112,128,208.112z"/>
			</g>
		</g>
		<g>
			<g>
				<path d="M141.282,214.151c-1.141,0-2.171-0.785-2.436-1.944c-0.307-1.346,0.535-2.687,1.881-2.994
					c6.898-1.575,13.376-4.388,19.252-8.361c1.143-0.774,2.697-0.474,3.472,0.67c0.773,1.144,0.473,2.698-0.671,3.471
					c-6.391,4.321-13.436,7.381-20.939,9.095C141.653,214.13,141.466,214.151,141.282,214.151z"/>
			</g>
		</g>
		<g>
			<g>
				<path d="M143.635,227.9c-1.151,0-2.187-0.799-2.44-1.969c-0.294-1.349,0.562-2.681,1.911-2.975
					c7.163-1.559,14.027-4.218,20.4-7.904c1.195-0.691,2.725-0.283,3.416,0.913s0.283,2.725-0.912,3.416
					c-6.822,3.945-14.171,6.792-21.842,8.461C143.989,227.881,143.811,227.9,143.635,227.9z"/>
			</g>
		</g>
		<g>
			<g>
				<path d="M115.067,214.23c-0.179,0-0.361-0.02-0.544-0.06c-7.649-1.699-14.824-4.792-21.326-9.192
					c-1.144-0.774-1.443-2.328-0.669-3.472s2.329-1.442,3.472-0.669c5.979,4.046,12.575,6.89,19.607,8.452
					c1.348,0.299,2.198,1.635,1.898,2.982C117.247,213.437,116.214,214.23,115.067,214.23z"/>
			</g>
		</g>
		<g>
			<g>
				<path d="M112.539,227.937c-0.175,0-0.352-0.018-0.528-0.056c-7.826-1.683-15.314-4.589-22.257-8.637
					c-1.193-0.695-1.597-2.226-0.901-3.419c0.696-1.193,2.229-1.595,3.419-0.9c6.487,3.782,13.481,6.497,20.79,8.068
					c1.35,0.291,2.209,1.62,1.919,2.97C114.729,227.135,113.691,227.937,112.539,227.937z"/>
			</g>
		</g>
		<g>
			<g>
				<path d="M134.962,255.188c-1.381,0-2.5-1.119-2.5-2.5v-16.604c0-1.381,1.119-2.5,2.5-2.5s2.5,1.119,2.5,2.5v16.604
					C137.462,254.068,136.343,255.188,134.962,255.188z"/>
			</g>
		</g>
		<g>
			<g>
				<path d="M121.038,255.188c-1.381,0-2.5-1.119-2.5-2.5v-16.646c0-1.381,1.119-2.5,2.5-2.5s2.5,1.119,2.5,2.5v16.646
					C123.538,254.069,122.419,255.188,121.038,255.188z"/>
			</g>
		</g>
		<g>
			<g>
				<path d="M131.48,224.355h-6.961c-1.381,0-2.5-1.119-2.5-2.5s1.119-2.5,2.5-2.5h6.961c1.381,0,2.5,1.119,2.5,2.5
					S132.861,224.355,131.48,224.355z"/>
			</g>
		</g>
		<g>
			<g>
				<path class="st8" d="M61.822,125.33c-4.498-0.838-8.043-4.31-8.898-8.716c-0.043-0.221-0.352-0.221-0.395,0
					c-0.855,4.406-4.4,7.879-8.898,8.716c-0.226,0.042-0.226,0.345,0,0.387c4.498,0.838,8.043,4.31,8.898,8.717
					c0.043,0.221,0.352,0.221,0.395,0c0.855-4.406,4.4-7.879,8.898-8.717C62.047,125.675,62.047,125.373,61.822,125.33z"/>
			</g>
		</g>
		<g>
			<g>
				<path class="st6" d="M198.246,108.75h2.33v-2.33c0-1.744,1.413-3.157,3.157-3.157s3.157,1.413,3.157,3.157v2.33h2.329
					c1.744,0,3.157,1.413,3.157,3.157s-1.413,3.157-3.157,3.157h-2.329v2.33c0,1.744-1.413,3.157-3.157,3.157
					s-3.157-1.413-3.157-3.157v-2.33h-2.33c-1.744,0-3.157-1.413-3.157-3.157S196.502,108.75,198.246,108.75z"/>
			</g>
		</g>
		<g>
			<g>
				<circle class="st7" cx="40.755" cy="154.825" r="3.377"/>
			</g>
		</g>
		<g>
			<g>
				<circle class="st9" cx="181.755" cy="3.377" r="3.377"/>
			</g>
		</g>
		<g>
			<g>
				<path class="st8" d="M203.515,22.101c-2.862-0.533-5.118-2.743-5.663-5.547c-0.027-0.141-0.224-0.141-0.251,0
					c-0.544,2.804-2.8,5.014-5.663,5.547c-0.144,0.027-0.144,0.219,0,0.246c2.862,0.533,5.118,2.743,5.663,5.547
					c0.027,0.141,0.224,0.141,0.251,0c0.544-2.804,2.8-5.014,5.663-5.547C203.658,22.32,203.658,22.128,203.515,22.101z"/>
			</g>
		</g>
	</g>
</g>
<g id="Layer_45">
</g>
<g id="Layer_46">
</g>
<g id="Layer_47">
</g>
<g id="Layer_48">
</g>
<g id="Layer_49">
</g>
<g id="Layer_50">
</g>
<g id="Layer_51">
</g>
<g id="Layer_52">
</g>
<g id="Layer_53">
</g>
<g id="Layer_54">
</g>
<g id="Layer_55">
</g>
<g id="Layer_56">
</g>
<g id="Layer_57">
</g>
<g id="Layer_58">
</g>
<g id="Layer_59">
</g>
<g id="Layer_60">
</g>
<g id="Layer_61">
</g>
<g id="Layer_62">
</g>
<g id="Layer_63">
</g>
<g id="Layer_64">
</g>
<g id="Layer_65">
</g>
<g id="Layer_66">
</g>
<g id="Layer_67">
</g>
<g id="Layer_68">
</g>
<g id="Layer_69">
</g>
<g id="Layer_70">
</g>
<g id="Layer_71">
</g>
<g id="Layer_72">
</g>
<g id="Layer_73">
</g>
<g id="Layer_74">
</g>
<g id="Layer_75">
</g>
<g id="Layer_76">
</g>
<g id="Layer_77">
</g>
<g id="Layer_78">
</g>
<g id="Layer_79">
</g>
<g id="Layer_80">
</g>
</svg>
