<?xml version="1.0" encoding="utf-8"?>
<!-- Generator: Adobe Illustrator 24.0.0, SVG Export Plug-In . SVG Version: 6.00 Build 0)  -->
<svg version="1.1" xmlns="http://www.w3.org/2000/svg" xmlns:xlink="http://www.w3.org/1999/xlink" x="0px" y="0px"
	 viewBox="0 0 256 256" style="enable-background:new 0 0 256 256;" xml:space="preserve">
<style type="text/css">
	.st0{fill:#3A70BF;}
	.st1{fill:#EDF4FC;}
	.st2{fill:#C7D7E5;}
	.st3{fill:#F9D0B4;}
	.st4{fill:#5B5D60;}
	.st5{fill:#5290DB;}
	.st6{fill:#70D6F9;}
	.st7{fill:#F5C84C;}
	.st8{fill:#FC657E;}
	.st9{fill:#87D147;}
	.st10{fill:#FCDD86;}
	.st11{fill:#9BE5F9;}
	.st12{fill:#B2E26D;}
	.st13{fill:#754E34;}
	.st14{fill:#FCA265;}
	.st15{fill:#818182;}
	.st16{fill:#F94EED;}
	.st17{fill:#FFC197;}
	.st18{fill:#3CAADC;}
	.st19{fill:#DAE6F1;}
	.st20{fill:#57AF12;}
	.st21{fill:#EF4460;}
	.st22{fill:#FFF0CA;}
	.st23{fill:#F98FA6;}
	.st24{fill:#EDB311;}
	.st25{fill:#FC8C48;}
	.st26{fill:#FCB9CB;}
	.st27{fill:#96BC71;}
	.st28{fill:#78A352;}
	.st29{fill:#B8DD90;}
	.st30{fill:#6FAFEF;}
	.st31{fill:#29589F;}
	.st32{fill:#414344;}
	.st33{fill:#9B6B4B;}
	.st34{fill:#73B1EF;}
</style>
<g id="Layer_1">
</g>
<g id="Layer_2">
</g>
<g id="Layer_3">
</g>
<g id="Layer_4">
</g>
<g id="Layer_5">
</g>
<g id="Layer_6">
</g>
<g id="Layer_7">
</g>
<g id="Layer_8">
</g>
<g id="Layer_9">
</g>
<g id="Layer_10">
</g>
<g id="Layer_11">
</g>
<g id="Layer_12">
</g>
<g id="Layer_13">
</g>
<g id="Layer_14">
</g>
<g id="Layer_15">
</g>
<g id="Layer_16">
</g>
<g id="Layer_17">
</g>
<g id="Layer_18">
</g>
<g id="Layer_19">
</g>
<g id="Layer_20">
</g>
<g id="Layer_21">
</g>
<g id="Layer_22">
</g>
<g id="Layer_23">
</g>
<g id="Layer_24">
</g>
<g id="Layer_25">
</g>
<g id="Layer_26">
</g>
<g id="Layer_27">
</g>
<g id="Layer_28">
</g>
<g id="Layer_29">
</g>
<g id="Layer_30">
</g>
<g id="Layer_31">
</g>
<g id="Layer_32">
</g>
<g id="Layer_33">
</g>
<g id="Layer_34">
</g>
<g id="Layer_35">
</g>
<g id="Layer_36">
</g>
<g id="Layer_37">
</g>
<g id="Layer_38">
</g>
<g id="Layer_39">
</g>
<g id="Layer_40">
</g>
<g id="Layer_41">
</g>
<g id="Layer_42">
</g>
<g id="Layer_43">
	<g>
		<g>
			<g>
				<path class="st1" d="M48.416,213.5h28.039v14H48.416c-1.635,0-2.961-1.326-2.961-2.961v-8.078
					C45.455,214.826,46.781,213.5,48.416,213.5z"/>
			</g>
		</g>
		<g>
			<g>
				<g>
					<path class="st3" d="M90.244,77.176v24.748c0,20.468,16.747,37.215,37.215,37.215h0c20.468,0,37.215-16.747,37.215-37.215
						V77.681C142.775,87.907,111.841,87.746,90.244,77.176z"/>
				</g>
			</g>
		</g>
		<g>
			<g>
				<path class="st3" d="M171.222,74.141c-2.069,1.295-4.261,2.471-6.548,3.54c0,6.916,0,19.542,0,24.243
					c0,0.839-0.038,1.67-0.094,2.496c0.81,0.13,1.635,0.217,2.482,0.217c8.581,0,15.537-6.957,15.537-15.538
					C182.599,81.96,177.78,75.962,171.222,74.141z"/>
			</g>
		</g>
		<g>
			<g>
				<path class="st3" d="M90.244,77.176c-2.013-0.985-3.937-2.068-5.773-3.234c-6.951,1.547-12.152,7.74-12.152,15.157
					c0,8.581,6.956,15.538,15.538,15.538c0.847,0,1.672-0.086,2.482-0.217v0c-0.055-0.826-0.094-1.656-0.094-2.495
					C90.244,98.572,90.244,85.558,90.244,77.176z"/>
			</g>
		</g>
		<g>
			<g>
				<path class="st1" d="M158.648,154.265l-8.134-7.427c-0.753-0.687-1.917-0.646-2.619,0.092l-15.687,16.491
					c-0.77,0.81-0.78,2.078-0.022,2.899l0.602,0.652c5.151,0.48,10.082,1.723,14.68,3.618l11.36-13.752
					C159.465,156.071,159.385,154.938,158.648,154.265z"/>
			</g>
		</g>
		<g>
			<g>
				<path class="st1" d="M123.211,166.973l0.602-0.652c0.758-0.821,0.748-2.089-0.022-2.899l-15.687-16.491
					c-0.702-0.739-1.866-0.779-2.619-0.092l-8.134,7.427c-0.737,0.673-0.817,1.806-0.181,2.575l11.36,13.752
					C113.129,168.697,118.06,167.453,123.211,166.973z"/>
			</g>
		</g>
		<g>
			<g>
				<path class="st3" d="M123.813,166.321l-0.602,0.652c1.578-0.147,3.173-0.231,4.789-0.231c1.616,0,3.211,0.083,4.789,0.231
					l-0.602-0.652c-0.758-0.821-0.748-2.089,0.022-2.899l14.884-15.648c-1.249-2.003-1.948-4.349-1.948-6.802v-6.335
					c-5.268,2.868-11.296,4.501-17.686,4.501h0c-5.959,0-11.597-1.427-16.604-3.945v5.778c0,2.453-0.699,4.8-1.948,6.802
					l14.884,15.648C124.562,164.232,124.571,165.5,123.813,166.321z"/>
			</g>
		</g>
		<g>
			<g>
				<path class="st1" d="M207.584,213.5h-28.039v14h28.039c1.635,0,2.961-1.326,2.961-2.961v-8.078
					C210.545,214.826,209.219,213.5,207.584,213.5z"/>
			</g>
		</g>
		<g>
			<g>
				<path class="st3" d="M202.549,253.5c2.344,0,4.207-1.969,4.076-4.31l-1.258-21.69h-25.823v26H202.549z"/>
			</g>
		</g>
		<g>
			<g>
				<path class="st7" d="M202.511,178.239c-0.357-6.417-4.846-11.856-11.078-13.425l-28.902-7.274l-3.296-1.625
					c-0.047,0.33-0.179,0.651-0.406,0.925l-11.36,13.752c-6.007-2.475-12.579-3.849-19.469-3.849c-6.89,0-13.462,1.374-19.469,3.849
					l-11.36-13.752c-0.227-0.274-0.358-0.596-0.406-0.925l-3.296,1.625l-28.902,7.274c-6.233,1.569-10.721,7.008-11.078,13.425
					L51.444,213.5h25.011c0,14.904,0,25.104,0,40h103.09c0-13.844,0-26.167,0-40h25.011L202.511,178.239z"/>
			</g>
		</g>
		<g>
			<g>
				<path class="st3" d="M76.455,227.5H50.633l-1.258,21.69c-0.13,2.34,1.732,4.31,4.076,4.31h23.004V227.5z"/>
			</g>
		</g>
		<g>
			<g>
				<path class="st15" d="M128,166.743c-28.31,0-51.342,23.032-51.342,51.342c0,13.723,5.422,26.195,14.224,35.416h25.065
					c-14.735-5.029-25.366-19-25.366-35.416c0-20.633,16.786-37.418,37.419-37.418s37.419,16.786,37.419,37.418
					c0,16.416-10.631,30.386-25.366,35.416h25.065c8.801-9.22,14.224-21.693,14.224-35.416
					C179.342,189.775,156.31,166.743,128,166.743z"/>
			</g>
		</g>
		<g>
			<g>
				<path class="st4" d="M143.664,221.275c0,1.473-0.219,2.894-0.601,4.246c7.989-1.671,15.506-4.64,22.324-8.673
					c-0.167-5.108-1.361-9.958-3.384-14.354c-6.388,4.438-13.68,7.658-21.536,9.336C142.464,214.46,143.664,217.727,143.664,221.275
					z"/>
			</g>
		</g>
		<g>
			<g>
				<path class="st4" d="M112.336,221.275c0-3.549,1.2-6.815,3.197-9.444c-7.856-1.678-15.148-4.898-21.536-9.336
					c-2.023,4.396-3.217,9.246-3.384,14.354c6.818,4.033,14.336,7.002,22.324,8.673
					C112.555,224.169,112.336,222.749,112.336,221.275z"/>
			</g>
		</g>
		<g>
			<g>
				<path class="st4" d="M121.038,235.286V253.5h13.923v-18.214c-2.1,1.048-4.459,1.653-6.962,1.653
					S123.139,236.334,121.038,235.286z"/>
			</g>
		</g>
		<g>
			<g>
				<path class="st15" d="M128,205.612c-8.637,0-15.664,7.027-15.664,15.664s7.026,15.664,15.664,15.664s15.664-7.027,15.664-15.664
					S136.637,205.612,128,205.612z"/>
			</g>
		</g>
		<g>
			<g>
				<path class="st8" d="M128,166.743c-11.282,0-21.719,3.667-30.201,9.858c2.517,4.449,5.122,8.295,7.792,11.536
					c6.251-4.689,14.011-7.471,22.408-7.471c8.398,0,16.158,2.782,22.409,7.471c2.671-3.241,5.276-7.087,7.792-11.536
					C149.719,170.409,139.282,166.743,128,166.743z"/>
			</g>
		</g>
		<g>
			<g>
				<path class="st4" d="M80.335,65.302v2.808c0,1.917,0.95,3.706,2.53,4.79c23.99,16.451,66.283,16.448,90.27,0
					c1.581-1.084,2.53-2.873,2.53-4.79v-2.808C148.44,56.768,110.64,55.802,80.335,65.302z"/>
			</g>
		</g>
		<g>
			<g>
				<path class="st10" d="M176.292,49.773c-8.193-3.772-17.197-6.56-26.61-8.261c-6.758-1.221-13.626-1.723-20.493-1.73
					l-2.218-0.002c-7.751-0.007-15.504,0.623-23.102,2.158c-8.299,1.677-16.435,4.264-24.157,7.831
					c-1.571,0.726-2.428,2.446-2.035,4.132l2.659,11.4c30.305-9.499,68.105-8.534,95.33,0l2.659-11.397
					C178.717,52.219,177.864,50.497,176.292,49.773z"/>
			</g>
		</g>
		<g>
			<g>
				<path class="st7" d="M189.007,39.353C183.364,29.479,161.853,5.5,128,5.5c-33.853,0-55.364,23.979-61.007,33.853
					c-4.184,7.323,5.591,13.09,10.924,15.584l-0.241-1.035c-0.393-1.686,0.464-3.406,2.035-4.132
					c7.722-3.567,15.858-6.155,24.157-7.831c7.598-1.535,15.351-2.165,23.102-2.158l2.218,0.002
					c6.867,0.006,13.736,0.509,20.493,1.73c9.413,1.701,18.417,4.489,26.61,8.261c1.572,0.723,2.425,2.446,2.032,4.131l-0.241,1.032
					C183.417,52.443,193.191,46.676,189.007,39.353z"/>
			</g>
		</g>
		<g>
			<g>
				<g>
					<path d="M127.459,141.638c-21.899,0-39.715-17.816-39.715-39.715V77.938c0-1.381,1.119-2.5,2.5-2.5s2.5,1.119,2.5,2.5v23.985
						c0,19.142,15.573,34.715,34.715,34.715s34.715-15.573,34.715-34.715V78.417c0-1.381,1.119-2.5,2.5-2.5s2.5,1.119,2.5,2.5
						v23.506C167.174,123.822,149.357,141.638,127.459,141.638z"/>
				</g>
			</g>
		</g>
		<g>
			<g>
				<path d="M179.545,255.04c-1.381,0-2.5-1.119-2.5-2.5v-56.644c0-1.381,1.119-2.5,2.5-2.5s2.5,1.119,2.5,2.5v56.644
					C182.045,253.92,180.926,255.04,179.545,255.04z"/>
			</g>
		</g>
		<g>
			<g>
				<path d="M76.455,255.04c-1.381,0-2.5-1.119-2.5-2.5v-56.644c0-1.381,1.119-2.5,2.5-2.5s2.5,1.119,2.5,2.5v56.644
					C78.955,253.92,77.836,255.04,76.455,255.04z"/>
			</g>
		</g>
		<g>
			<g>
				<path d="M167.062,107.136c-0.661,0-1.333-0.043-2.055-0.131c-1.371-0.168-2.346-1.415-2.178-2.785
					c0.168-1.371,1.414-2.345,2.785-2.178c0.519,0.063,0.991,0.094,1.447,0.094c7.189,0,13.038-5.849,13.038-13.038
					c0-5.635-3.601-10.606-8.96-12.371c-1.312-0.432-2.024-1.845-1.593-3.156s1.844-2.026,3.157-1.593
					c7.414,2.441,12.396,9.321,12.396,17.12C185.1,99.044,177.008,107.136,167.062,107.136z"/>
			</g>
		</g>
		<g>
			<g>
				<path d="M87.856,107.136c-9.946,0-18.038-8.092-18.038-18.038c0-7.92,5.303-15.027,12.896-17.283
					c1.321-0.396,2.715,0.361,3.108,1.685c0.393,1.324-0.361,2.715-1.685,3.108c-5.488,1.63-9.32,6.766-9.32,12.49
					c0,7.189,5.849,13.038,13.038,13.038c0.386,0,0.784-0.022,1.216-0.068c1.37-0.145,2.604,0.851,2.749,2.224
					c0.145,1.373-0.851,2.604-2.224,2.749C88.988,107.104,88.419,107.136,87.856,107.136z"/>
			</g>
		</g>
		<g>
			<g>
				<path d="M128,118.573c-4.776,0-9.262-1.95-11.999-5.215c-0.887-1.058-0.748-2.635,0.31-3.522
					c1.059-0.887,2.635-0.747,3.522,0.31c1.798,2.146,4.852,3.427,8.167,3.427s6.368-1.281,8.167-3.427
					c0.89-1.057,2.465-1.195,3.522-0.309c1.058,0.887,1.196,2.464,0.31,3.522C137.261,116.624,132.775,118.573,128,118.573z"/>
			</g>
		</g>
		<g>
			<g>
				<circle cx="144.789" cy="90.816" r="5"/>
			</g>
		</g>
		<g>
			<g>
				<circle cx="111.211" cy="90.816" r="5"/>
			</g>
		</g>
		<g>
			<g>
				<path d="M128,87.714c-17.077,0.001-34.149-4.25-46.549-12.753c-2.264-1.553-3.616-4.114-3.616-6.852v-2.546
					c0-1.381,1.119-2.5,2.5-2.5s2.5,1.119,2.5,2.5v2.546c0,1.088,0.54,2.108,1.444,2.728c23.291,15.972,64.151,15.972,87.442,0
					c0.904-0.62,1.444-1.64,1.444-2.728v-2.655c0-1.381,1.119-2.5,2.5-2.5s2.5,1.119,2.5,2.5v2.655c0,2.738-1.352,5.299-3.616,6.852
					C162.151,83.462,145.073,87.713,128,87.714z"/>
			</g>
		</g>
		<g>
			<g>
				<path d="M80.335,67.802c-0.431,0-0.858-0.111-1.24-0.329c-0.604-0.345-1.037-0.926-1.195-1.603l-2.659-11.4
					c-0.658-2.819,0.782-5.75,3.421-6.969c7.712-3.562,16.026-6.258,24.71-8.013c7.291-1.472,15.267-2.196,23.6-2.207l2.218,0.002
					c7.536,0.007,14.384,0.586,20.936,1.77c9.675,1.748,18.83,4.591,27.212,8.45l0,0c2.64,1.216,4.079,4.147,3.421,6.969
					L178.1,65.87c-0.158,0.677-0.591,1.258-1.194,1.603c-0.604,0.345-1.323,0.423-1.988,0.215c-28.5-8.934-65.332-8.933-93.834,0
					C80.838,67.764,80.586,67.802,80.335,67.802z M128,56.002c15.877,0,31.756,2.046,45.836,6.136l2.054-8.802
					c0.121-0.521-0.149-1.064-0.644-1.292c-7.998-3.683-16.749-6.398-26.009-8.072c-6.257-1.13-12.815-1.683-20.051-1.69
					l-2.218-0.002c-0.042,0-0.086,0-0.128,0c-7.99,0-15.551,0.709-22.477,2.108c-8.304,1.678-16.245,4.251-23.604,7.65
					c-0.498,0.23-0.77,0.774-0.649,1.294l2.054,8.804C96.245,58.048,112.124,56.002,128,56.002z"/>
			</g>
		</g>
		<g>
			<g>
				<path d="M77.582,57.28c-0.361,0-0.727-0.078-1.074-0.244c-4.847-2.312-10.968-6.166-12.606-11.401
					c-0.782-2.499-0.463-5.099,0.921-7.521C70.404,28.347,92.632,3,128,3c35.367,0,57.597,25.347,63.178,35.113
					c1.384,2.422,1.702,5.023,0.92,7.521c-1.638,5.234-7.757,9.088-12.602,11.399c-1.246,0.594-2.738,0.065-3.333-1.18
					c-0.594-1.246-0.065-2.738,1.181-3.333c5.498-2.624,9.137-5.678,9.982-8.38c0.371-1.186,0.216-2.313-0.49-3.547
					C181.655,31.528,160.986,8,128,8C95.013,8,74.345,31.528,69.164,40.594c-0.706,1.235-0.861,2.362-0.49,3.548
					c0.846,2.703,4.486,5.757,9.986,8.381c1.246,0.594,1.775,2.086,1.18,3.333C79.412,56.754,78.516,57.28,77.582,57.28z"/>
			</g>
		</g>
		<g>
			<g>
				<path d="M148.004,172.443c-0.562,0-1.125-0.188-1.591-0.573c-1.064-0.879-1.215-2.455-0.336-3.52l10.444-12.643l-7.238-6.609
					l-15.019,15.789c0.887,1.015,0.81,2.557-0.186,3.478c-1.016,0.938-2.596,0.876-3.533-0.136l-0.194-0.21
					c-1.648-1.786-1.627-4.561,0.044-6.319l15.688-16.493c1.629-1.712,4.37-1.807,6.116-0.216l8.134,7.427
					c1.724,1.575,1.908,4.216,0.422,6.014l-10.823,13.103C149.437,172.133,148.724,172.443,148.004,172.443z"/>
			</g>
		</g>
		<g>
			<g>
				<path d="M108.051,172.51c-0.72,0-1.435-0.31-1.929-0.908l-10.879-13.17c-1.486-1.798-1.301-4.439,0.422-6.013l8.134-7.427
					c1.744-1.593,4.489-1.496,6.116,0.216l15.687,16.491c1.673,1.759,1.694,4.534,0.048,6.317l-0.299,0.324
					c-0.937,1.014-2.519,1.075-3.533,0.137c-1.013-0.938-1.074-2.52-0.137-3.533l0.053-0.057l-15.018-15.788l-7.238,6.609
					l10.499,12.709c0.879,1.064,0.729,2.641-0.335,3.52C109.176,172.322,108.612,172.51,108.051,172.51z"/>
			</g>
		</g>
		<g>
			<g>
				<path d="M146.705,149.605c-0.887,0-1.746-0.473-2.199-1.307c-1.218-2.242-1.861-4.775-1.861-7.326v-5.702
					c0-1.381,1.119-2.5,2.5-2.5s2.5,1.119,2.5,2.5v5.702c0,1.719,0.435,3.428,1.256,4.939c0.658,1.213,0.209,2.731-1.004,3.39
					C147.518,149.508,147.108,149.605,146.705,149.605z"/>
			</g>
		</g>
		<g>
			<g>
				<path d="M109.256,149.675c-0.408,0-0.822-0.1-1.205-0.311c-1.209-0.667-1.649-2.187-0.982-3.396
					c0.841-1.526,1.286-3.253,1.286-4.996v-4.784c0-1.381,1.119-2.5,2.5-2.5s2.5,1.119,2.5,2.5v4.784
					c0,2.584-0.659,5.146-1.907,7.41C110.993,149.208,110.138,149.675,109.256,149.675z"/>
			</g>
		</g>
		<g>
			<g>
				<path d="M128,207.756c-1.381,0-2.5-1.119-2.5-2.5v-23.901c0-1.381,1.119-2.5,2.5-2.5s2.5,1.119,2.5,2.5v23.901
					C130.5,206.637,129.381,207.756,128,207.756z"/>
			</g>
		</g>
		<g>
			<g>
				<path d="M207.584,230h-28.039c-1.381,0-2.5-1.119-2.5-2.5v-14c0-1.381,1.119-2.5,2.5-2.5h28.039c3.011,0,5.461,2.45,5.461,5.461
					v8.078C213.045,227.55,210.595,230,207.584,230z M182.045,225h25.539c0.254,0,0.461-0.207,0.461-0.461v-8.078
					c0-0.254-0.207-0.461-0.461-0.461h-25.539V225z"/>
			</g>
		</g>
		<g>
			<g>
				<path d="M76.455,230H48.416c-3.011,0-5.461-2.45-5.461-5.461v-8.078c0-3.011,2.45-5.461,5.461-5.461h28.039
					c1.381,0,2.5,1.119,2.5,2.5v14C78.955,228.881,77.836,230,76.455,230z M48.416,216c-0.254,0-0.461,0.207-0.461,0.461v8.078
					c0,0.254,0.207,0.461,0.461,0.461h25.539v-9H48.416z"/>
			</g>
		</g>
		<g>
			<g>
				<path d="M202.549,256h-23.004c-1.381,0-2.5-1.119-2.5-2.5s1.119-2.5,2.5-2.5h23.004c0.439,0,0.848-0.176,1.15-0.495
					c0.302-0.319,0.454-0.736,0.43-1.175l-1.214-20.941c-0.08-1.378,0.973-2.561,2.352-2.64c1.356-0.085,2.561,0.972,2.641,2.351
					l1.214,20.946c0.101,1.803-0.552,3.585-1.789,4.894C206.094,255.249,204.351,256,202.549,256z"/>
			</g>
		</g>
		<g>
			<g>
				<path d="M204.485,214.825c-1.314,0-2.417-1.026-2.494-2.355l-1.977-34.086c-0.298-5.359-3.992-9.836-9.192-11.145l-28.902-7.274
					c-0.171-0.043-0.337-0.104-0.495-0.182l-2.857-1.409c-1.238-0.611-1.747-2.11-1.137-3.348c0.611-1.237,2.109-1.747,3.348-1.136
					l2.619,1.292l28.646,7.209c7.333,1.846,12.543,8.159,12.964,15.71l1.977,34.081c0.08,1.378-0.973,2.561-2.352,2.64
					C204.583,214.823,204.533,214.825,204.485,214.825z"/>
			</g>
		</g>
		<g>
			<g>
				<path d="M179.545,256H76.455c-1.381,0-2.5-1.119-2.5-2.5s1.119-2.5,2.5-2.5h103.09c1.381,0,2.5,1.119,2.5,2.5
					S180.926,256,179.545,256z"/>
			</g>
		</g>
		<g>
			<g>
				<path d="M51.476,215.501c-0.049,0-0.098-0.001-0.147-0.004c-1.378-0.08-2.431-1.262-2.351-2.64l2.016-34.762
					c0.42-7.545,5.63-13.859,12.964-15.705l28.644-7.209l2.498-1.232c1.239-0.611,2.737-0.102,3.348,1.137
					c0.611,1.238,0.102,2.737-1.137,3.348l-2.736,1.349c-0.158,0.078-0.324,0.139-0.495,0.182l-28.901,7.274
					c-5.2,1.309-8.895,5.786-9.193,11.14l-2.017,34.768C53.892,214.475,52.79,215.501,51.476,215.501z"/>
			</g>
		</g>
		<g>
			<g>
				<path d="M76.455,256H53.451c-1.802,0-3.545-0.75-4.783-2.06c-1.238-1.309-1.89-3.09-1.79-4.889l1.217-20.986
					c0.079-1.378,1.259-2.43,2.64-2.351c1.378,0.08,2.431,1.262,2.351,2.64l-1.217,20.981c-0.024,0.433,0.129,0.851,0.431,1.17
					c0.302,0.319,0.711,0.495,1.15,0.495h23.004c1.381,0,2.5,1.119,2.5,2.5S77.836,256,76.455,256z"/>
			</g>
		</g>
		<g>
			<g>
				<path d="M140.408,255.877c-1.03,0-1.995-0.642-2.357-1.669c-0.46-1.302,0.224-2.73,1.526-3.189
					c13.961-4.924,23.342-18.159,23.342-32.935c0-19.254-15.665-34.918-34.919-34.918s-34.918,15.665-34.918,34.918
					c0,14.675,9.296,27.88,23.131,32.86c1.299,0.467,1.973,1.899,1.506,3.199c-0.468,1.3-1.9,1.973-3.199,1.506
					c-15.813-5.691-26.438-20.788-26.438-37.564c0-22.011,17.907-39.918,39.918-39.918c22.012,0,39.919,17.907,39.919,39.918
					c0,16.892-10.722,32.022-26.68,37.65C140.965,255.832,140.684,255.877,140.408,255.877z"/>
			</g>
		</g>
		<g>
			<g>
				<path d="M90.38,255.466c-0.671,0-1.34-0.269-1.833-0.799c-9.279-9.999-14.389-22.991-14.389-36.583
					c0-29.688,24.153-53.842,53.842-53.842s53.842,24.153,53.842,53.842c0,13.561-5.09,26.531-14.332,36.521
					c-0.936,1.013-2.52,1.076-3.532,0.137c-1.014-0.938-1.075-2.519-0.138-3.533c8.385-9.063,13.002-20.828,13.002-33.125
					c0-26.932-21.91-48.842-48.842-48.842s-48.842,21.91-48.842,48.842c0,12.326,4.636,24.11,13.054,33.181
					c0.939,1.012,0.88,2.594-0.132,3.533C91.599,255.246,90.989,255.466,90.38,255.466z"/>
			</g>
		</g>
		<g>
			<g>
				<g>
					<path d="M141.021,214.21c-1.146,0-2.178-0.791-2.438-1.955c-0.302-1.347,0.547-2.684,1.894-2.985
						c6.959-1.556,13.492-4.369,19.42-8.362c1.146-0.77,2.699-0.468,3.47,0.677c0.771,1.145,0.469,2.699-0.677,3.47
						c-6.446,4.342-13.553,7.401-21.121,9.094C141.385,214.19,141.201,214.21,141.021,214.21z"/>
				</g>
			</g>
			<g>
				<g>
					<path d="M143.662,227.894c-1.15,0-2.186-0.798-2.44-1.968c-0.294-1.349,0.561-2.681,1.91-2.975
						c7.234-1.578,14.161-4.276,20.587-8.022c1.19-0.694,2.724-0.292,3.419,0.901c0.695,1.193,0.292,2.724-0.901,3.419
						c-6.878,4.009-14.294,6.898-22.04,8.586C144.018,227.875,143.838,227.894,143.662,227.894z"/>
				</g>
			</g>
			<g>
				<g>
					<path d="M114.971,214.208c-0.181,0-0.365-0.02-0.548-0.061c-7.671-1.716-14.862-4.835-21.373-9.269
						c-1.141-0.777-1.437-2.333-0.659-3.474c0.776-1.142,2.332-1.438,3.474-0.659c5.987,4.077,12.598,6.945,19.65,8.523
						c1.348,0.301,2.195,1.638,1.894,2.985C117.147,213.417,116.115,214.208,114.971,214.208z"/>
				</g>
			</g>
			<g>
				<g>
					<path d="M112.338,227.894c-0.176,0-0.355-0.019-0.535-0.058c-7.726-1.684-15.124-4.563-21.987-8.557
						c-1.193-0.694-1.598-2.225-0.903-3.418c0.694-1.193,2.225-1.598,3.418-0.903c6.412,3.73,13.322,6.42,20.538,7.993
						c1.349,0.294,2.204,1.626,1.91,2.975C114.523,227.096,113.488,227.894,112.338,227.894z"/>
				</g>
			</g>
			<g>
				<g>
					<path d="M134.962,255.5c-1.381,0-2.5-1.119-2.5-2.5v-17.094c0-1.381,1.119-2.5,2.5-2.5s2.5,1.119,2.5,2.5V253
						C137.462,254.381,136.343,255.5,134.962,255.5z"/>
				</g>
			</g>
			<g>
				<g>
					<path d="M121.039,255.5c-1.381,0-2.5-1.119-2.5-2.5v-17.063c0-1.381,1.119-2.5,2.5-2.5s2.5,1.119,2.5,2.5V253
						C123.539,254.381,122.419,255.5,121.039,255.5z"/>
				</g>
			</g>
		</g>
		<g>
			<g>
				<path d="M128,239.439c-10.016,0-18.164-8.148-18.164-18.164s8.148-18.164,18.164-18.164s18.164,8.148,18.164,18.164
					S138.016,239.439,128,239.439z M128,208.112c-7.258,0-13.164,5.905-13.164,13.164s5.905,13.164,13.164,13.164
					c7.259,0,13.164-5.905,13.164-13.164S135.259,208.112,128,208.112z"/>
			</g>
		</g>
		<g>
			<g>
				<path d="M131.48,224.355h-6.961c-1.381,0-2.5-1.119-2.5-2.5s1.119-2.5,2.5-2.5h6.961c1.381,0,2.5,1.119,2.5,2.5
					S132.861,224.355,131.48,224.355z"/>
			</g>
		</g>
		<g>
			<g>
				<path class="st8" d="M205.822,112.33c-4.498-0.838-8.043-4.31-8.898-8.716c-0.043-0.221-0.352-0.221-0.395,0
					c-0.855,4.406-4.4,7.879-8.898,8.716c-0.226,0.042-0.226,0.345,0,0.387c4.498,0.838,8.043,4.31,8.898,8.717
					c0.043,0.221,0.352,0.221,0.395,0c0.855-4.406,4.4-7.879,8.898-8.717C206.047,112.675,206.047,112.373,205.822,112.33z"/>
			</g>
		</g>
		<g>
			<g>
				<path class="st6" d="M202.515,22.101c-2.862-0.533-5.118-2.743-5.663-5.547c-0.027-0.141-0.224-0.141-0.251,0
					c-0.544,2.804-2.8,5.014-5.663,5.547c-0.144,0.027-0.144,0.219,0,0.246c2.862,0.533,5.118,2.743,5.663,5.547
					c0.027,0.141,0.224,0.141,0.251,0c0.544-2.804,2.8-5.014,5.663-5.547C202.658,22.32,202.658,22.128,202.515,22.101z"/>
			</g>
		</g>
		<g>
			<g>
				<path class="st6" d="M63.246,120.75h2.33v-2.33c0-1.744,1.413-3.157,3.157-3.157c1.744,0,3.157,1.413,3.157,3.157v2.33h2.329
					c1.744,0,3.157,1.413,3.157,3.157s-1.413,3.157-3.157,3.157h-2.329v2.33c0,1.744-1.413,3.157-3.157,3.157
					c-1.744,0-3.157-1.413-3.157-3.157v-2.33h-2.33c-1.744,0-3.157-1.413-3.157-3.157S61.502,120.75,63.246,120.75z"/>
			</g>
		</g>
		<g>
			<g>
				<circle class="st9" cx="53.755" cy="152.825" r="3.377"/>
			</g>
		</g>
		<g>
			<g>
				<circle class="st7" cx="177.755" cy="3.377" r="3.377"/>
			</g>
		</g>
		<g>
			<g>
				<path d="M150.877,190.059c-0.55,0-1.103-0.18-1.564-0.552c-1.076-0.865-1.247-2.439-0.382-3.515
					c2.308-2.869,4.581-6.244,6.757-10.03c0.689-1.198,2.22-1.609,3.414-0.922c1.196,0.688,1.609,2.216,0.922,3.413
					c-2.306,4.012-4.728,7.602-7.196,10.673C152.333,189.74,151.608,190.059,150.877,190.059z"/>
			</g>
		</g>
		<g>
			<g>
				<path d="M104.997,189.902c-0.734,0-1.461-0.322-1.955-0.939c-2.378-2.977-4.708-6.432-6.927-10.271
					c-0.691-1.195-0.282-2.725,0.914-3.416c1.196-0.691,2.725-0.282,3.416,0.914c2.094,3.623,4.282,6.87,6.504,9.651
					c0.862,1.079,0.686,2.652-0.393,3.514C106.095,189.723,105.544,189.902,104.997,189.902z"/>
			</g>
		</g>
	</g>
</g>
<g id="Layer_44">
</g>
<g id="Layer_45">
</g>
<g id="Layer_46">
</g>
<g id="Layer_47">
</g>
<g id="Layer_48">
</g>
<g id="Layer_49">
</g>
<g id="Layer_50">
</g>
<g id="Layer_51">
</g>
<g id="Layer_52">
</g>
<g id="Layer_53">
</g>
<g id="Layer_54">
</g>
<g id="Layer_55">
</g>
<g id="Layer_56">
</g>
<g id="Layer_57">
</g>
<g id="Layer_58">
</g>
<g id="Layer_59">
</g>
<g id="Layer_60">
</g>
<g id="Layer_61">
</g>
<g id="Layer_62">
</g>
<g id="Layer_63">
</g>
<g id="Layer_64">
</g>
<g id="Layer_65">
</g>
<g id="Layer_66">
</g>
<g id="Layer_67">
</g>
<g id="Layer_68">
</g>
<g id="Layer_69">
</g>
<g id="Layer_70">
</g>
<g id="Layer_71">
</g>
<g id="Layer_72">
</g>
<g id="Layer_73">
</g>
<g id="Layer_74">
</g>
<g id="Layer_75">
</g>
<g id="Layer_76">
</g>
<g id="Layer_77">
</g>
<g id="Layer_78">
</g>
<g id="Layer_79">
</g>
<g id="Layer_80">
</g>
</svg>
