<?xml version="1.0" encoding="utf-8"?>
<!-- Generator: Adobe Illustrator 24.0.0, SVG Export Plug-In . SVG Version: 6.00 Build 0)  -->
<svg version="1.1" xmlns="http://www.w3.org/2000/svg" xmlns:xlink="http://www.w3.org/1999/xlink" x="0px" y="0px"
	 viewBox="0 0 256 256" style="enable-background:new 0 0 256 256;" xml:space="preserve">
<style type="text/css">
	.st0{fill:#3A70BF;}
	.st1{fill:#EDF4FC;}
	.st2{fill:#C7D7E5;}
	.st3{fill:#F9D0B4;}
	.st4{fill:#5B5D60;}
	.st5{fill:#5290DB;}
	.st6{fill:#70D6F9;}
	.st7{fill:#F5C84C;}
	.st8{fill:#FC657E;}
	.st9{fill:#87D147;}
	.st10{fill:#FCDD86;}
	.st11{fill:#9BE5F9;}
	.st12{fill:#B2E26D;}
	.st13{fill:#754E34;}
	.st14{fill:#FCA265;}
	.st15{fill:#818182;}
	.st16{fill:#F94EED;}
	.st17{fill:#FFC197;}
	.st18{fill:#3CAADC;}
	.st19{fill:#DAE6F1;}
	.st20{fill:#57AF12;}
	.st21{fill:#EF4460;}
	.st22{fill:#FFF0CA;}
	.st23{fill:#F98FA6;}
	.st24{fill:#EDB311;}
	.st25{fill:#FC8C48;}
	.st26{fill:#FCB9CB;}
	.st27{fill:#96BC71;}
	.st28{fill:#78A352;}
	.st29{fill:#B8DD90;}
	.st30{fill:#6FAFEF;}
	.st31{fill:#29589F;}
	.st32{fill:#414344;}
	.st33{fill:#9B6B4B;}
	.st34{fill:#73B1EF;}
</style>
<g id="Layer_1">
</g>
<g id="Layer_2">
	<g>
		<g>
			<g>
				<path class="st0" d="M106.06,228.5v-64.37c0-3.045,2.491-5.536,5.536-5.536h47.05l-15.763-3.979
					c-2.075-0.523-4.089-1.263-6.009-2.209l-8.587-4.234c-3.298-1.626-5.386-4.984-5.386-8.66v-10.533
					c-4.92,2.682-10.551,4.208-16.52,4.208c-5.97,0-11.6-1.526-16.52-4.208v10.533c0,3.677-2.088,7.034-5.386,8.66l-8.587,4.234
					c-1.919,0.946-3.933,1.687-6.009,2.209l-24.833,6.269c-6.044,1.521-10.396,6.796-10.743,13.019L32.775,215.9
					c8.75,3.633,17.911,6.637,27.403,8.951v-21.171l3.883,12.439c1.867,5.982,3.054,12.148,3.554,18.381h16.307
					c2.703,0,5.38-0.905,7.352-2.754c2.145-2.01,5.02-3.246,8.174-3.246H106.06z"/>
			</g>
		</g>
		<g>
			<g>
				<path class="st1" d="M211.084,158.594h-99.488c-3.045,0-5.536,2.491-5.536,5.536v72.093c0,3.045,2.491,5.536,5.536,5.536h99.488
					c3.045,0,5.536-2.491,5.536-5.536V164.13C216.62,161.085,214.129,158.594,211.084,158.594z"/>
			</g>
		</g>
		<g>
			<g>
				<path class="st2" d="M221.049,241.759H101.631c-1.877,0-3.398,1.521-3.398,3.398c0,4.607,3.735,8.343,8.343,8.343h109.53
					c4.607,0,8.343-3.735,8.343-8.343C224.447,243.281,222.926,241.759,221.049,241.759z"/>
			</g>
		</g>
		<g>
			<g>
				<path class="st4" d="M128.287,148.172l8.587,4.234c1.919,0.946,3.934,1.687,6.009,2.209l15.762,3.979h1.775
					c1.191-15.959-15.976-25.564-11.364-37.094c4.1-10.251,3.995-18.131,2.92-23.384c-2.414,1.795-5.395,2.871-8.634,2.871
					c-0.79,0-1.56-0.08-2.316-0.202c-0.816,12.152-7.945,22.647-18.124,28.194v10.533
					C122.901,143.188,124.989,146.546,128.287,148.172z"/>
			</g>
		</g>
		<g>
			<g>
				<path class="st4" d="M69.88,154.615c2.075-0.523,4.089-1.263,6.009-2.209l8.587-4.234c3.298-1.626,5.386-4.984,5.386-8.66
					v-10.533c-10.179-5.548-17.308-16.042-18.124-28.194c-0.756,0.122-1.526,0.202-2.316,0.202c-3.239,0-6.22-1.075-8.634-2.87
					c-1.075,5.253-1.18,13.133,2.92,23.384c4.655,11.637-12.887,21.309-11.338,37.536L69.88,154.615z"/>
			</g>
		</g>
		<g>
			<g>
				<path class="st3" d="M143.342,71.985c-0.759,0-1.502,0.064-2.229,0.177c0,3.696,0,20.799,0,26.293v0v0
					c0,0.783-0.036,1.558-0.088,2.329c0.756,0.122,1.526,0.202,2.316,0.202c8.009,0,14.501-6.492,14.501-14.501
					C157.842,78.477,151.35,71.985,143.342,71.985z"/>
			</g>
		</g>
		<g>
			<g>
				<path class="st3" d="M122.994,60.642c-5.29,6.174-24.047,24.906-51.344,17.13v20.684c0,19.102,15.629,34.732,34.732,34.732l0,0
					c19.102,0,34.732-15.629,34.732-34.732v-28.06c0-1.276-0.893-2.358-2.136-2.646c-3.515-0.814-7.782-2.85-12.673-7.294
					C125.336,59.577,123.844,59.649,122.994,60.642z"/>
			</g>
		</g>
		<g>
			<g>
				<path class="st3" d="M71.65,77.771c-2.385-0.679-4.834-1.559-7.346-2.668c-1.619-0.715-3.511-0.386-4.803,0.825
					c-2.817,2.641-4.581,6.39-4.581,10.557c0,8.008,6.492,14.501,14.501,14.501c0.79,0,1.56-0.08,2.316-0.202
					c-0.052-0.771-0.088-1.546-0.088-2.329V77.771z"/>
			</g>
		</g>
		<g>
			<g>
				<g>
					<path class="st4" d="M59.501,75.929c1.291-1.211,3.183-1.54,4.803-0.825c2.512,1.109,4.961,1.988,7.346,2.668
						c27.297,7.776,46.055-10.956,51.344-17.13c0.85-0.992,2.342-1.065,3.309-0.186c4.892,4.445,9.159,6.48,12.673,7.294
						c1.243,0.288,2.136,1.37,2.136,2.646v1.766c0.727-0.113,1.47-0.177,2.229-0.177c4.012,0,7.643,1.63,10.268,4.263v-8.494
						c0-25.976-21.253-47.229-47.229-47.229c-25.976,0-47.229,21.253-47.229,47.229v8.535
						C59.271,76.171,59.379,76.043,59.501,75.929z"/>
				</g>
			</g>
		</g>
		<g>
			<g>
				<circle class="st6" cx="161.34" cy="201" r="23.451"/>
			</g>
		</g>
		<g>
			<g>
				<path class="st3" d="M138.198,153.016c-0.446-0.194-0.888-0.395-1.324-0.61l-8.587-4.234c-3.298-1.626-5.386-4.984-5.386-8.66
					v-10.533c-4.92,2.682-10.551,4.208-16.52,4.208c-5.97,0-11.6-1.526-16.52-4.208v10.533c0,3.677-2.088,7.034-5.386,8.66
					l-8.587,4.234c-0.47,0.232-0.946,0.45-1.426,0.657c5.704,11.771,17.724,19.965,31.597,20.067v-9
					c0-3.045,2.491-5.536,5.536-5.536h23.255C136.131,156.849,137.25,154.981,138.198,153.016z"/>
			</g>
		</g>
		<g>
			<g>
				<path class="st3" d="M98.232,245.157c0-1.877,1.521-3.398,3.398-3.398c0.181,0,10.066,0,9.965,0
					c-3.045,0-5.536-2.491-5.536-5.536V228.5h-6.612c-3.154,0-6.029,1.236-8.174,3.246c-1.972,1.848-4.649,2.754-7.352,2.754
					l-22.222,0c-0.84,0-1.522-0.681-1.522-1.522v-8.127c-9.492-2.315-18.653-5.318-27.403-8.951l-1.216,33.42
					c-0.127,2.269,1.68,4.179,3.953,4.179c13.467,0,54.971,0,71.063,0C101.967,253.5,98.232,249.765,98.232,245.157z"/>
			</g>
		</g>
		<g>
			<g>
				<path d="M67.581,236.624c-1.285,0-2.378-0.985-2.488-2.289c-0.4-4.726-1.21-9.415-2.415-13.982v4.5
					c0,0.767-0.353,1.492-0.956,1.966c-0.604,0.474-1.392,0.645-2.137,0.462c-9.523-2.323-18.866-5.375-27.769-9.071
					c-0.964-0.4-1.578-1.357-1.54-2.4l1.528-41.998c0.412-7.403,5.487-13.554,12.631-15.352l24.832-6.268
					c1.903-0.479,3.758-1.161,5.515-2.027l8.587-4.234c2.462-1.214,3.991-3.673,3.991-6.418v-10.179c0-1.381,1.119-2.5,2.5-2.5
					s2.5,1.119,2.5,2.5v10.179c0,4.663-2.598,8.84-6.78,10.902l-8.587,4.234c-2.073,1.022-4.261,1.827-6.504,2.391l-24.832,6.268
					c-5.012,1.262-8.571,5.575-8.858,10.734l-1.463,40.207c7.211,2.913,14.706,5.392,22.341,7.393v-17.96
					c0-1.235,0.902-2.285,2.123-2.472c1.22-0.187,2.396,0.548,2.763,1.727l3.883,12.438c1.874,6.001,3.094,12.238,3.628,18.539
					c0.116,1.376-0.904,2.585-2.28,2.702C67.723,236.621,67.652,236.624,67.581,236.624z"/>
			</g>
		</g>
		<g>
			<g>
				<path d="M158.403,161.033c-0.203,0-0.408-0.025-0.614-0.077l-15.519-3.917c-2.241-0.564-4.43-1.369-6.502-2.391l-8.587-4.234
					c-4.182-2.062-6.78-6.239-6.78-10.902v-9.918c0-1.381,1.119-2.5,2.5-2.5s2.5,1.119,2.5,2.5v9.918
					c0,2.745,1.529,5.204,3.991,6.418l8.587,4.234c1.757,0.866,3.612,1.548,5.514,2.027l15.52,3.918
					c1.339,0.338,2.15,1.697,1.812,3.036C160.539,160.278,159.521,161.033,158.403,161.033z"/>
			</g>
		</g>
		<g>
			<g>
				<path d="M106.381,117.757c-4.776,0-9.262-1.95-11.999-5.215c-0.887-1.058-0.748-2.635,0.31-3.522
					c1.059-0.888,2.636-0.747,3.522,0.31c1.798,2.146,4.852,3.427,8.167,3.427c3.315,0,6.368-1.281,8.167-3.427
					c0.887-1.058,2.463-1.197,3.522-0.31c1.058,0.887,1.197,2.464,0.31,3.522C115.643,115.808,111.157,117.757,106.381,117.757z"/>
			</g>
		</g>
		<g>
			<g>
				<circle cx="123.671" cy="90.816" r="4"/>
			</g>
		</g>
		<g>
			<g>
				<circle cx="90.092" cy="90.816" r="4"/>
			</g>
		</g>
		<g>
			<g>
				<g>
					<path d="M130.148,106.182h-8.617c-7.05,0-12.785-5.735-12.785-12.785v-5.961c0-5.295,4.308-9.604,9.604-9.604h14.979
						c5.296,0,9.604,4.308,9.604,9.604v5.961C142.933,100.447,137.198,106.182,130.148,106.182z M118.35,82.833
						c-2.539,0-4.604,2.065-4.604,4.604v5.961c0,4.293,3.492,7.785,7.785,7.785h8.617c4.293,0,7.785-3.492,7.785-7.785v-5.961
						c0-2.539-2.065-4.604-4.604-4.604H118.35z"/>
				</g>
			</g>
			<g>
				<g>
					<path d="M91.232,106.182h-8.618c-7.049,0-12.785-5.735-12.785-12.785v-5.961c0-5.295,4.308-9.604,9.604-9.604h14.979
						c5.295,0,9.604,4.308,9.604,9.604v5.961C104.017,100.447,98.281,106.182,91.232,106.182z M79.434,82.833
						c-2.539,0-4.604,2.065-4.604,4.604v5.961c0,4.293,3.492,7.785,7.785,7.785h8.618c4.292,0,7.785-3.492,7.785-7.785v-5.961
						c0-2.539-2.065-4.604-4.604-4.604H79.434z"/>
				</g>
			</g>
		</g>
		<g>
			<g>
				<path d="M110.273,91.171h-7.783c-1.381,0-2.5-1.119-2.5-2.5s1.119-2.5,2.5-2.5h7.783c1.381,0,2.5,1.119,2.5,2.5
					S111.654,91.171,110.273,91.171z"/>
			</g>
		</g>
		<g>
			<g>
				<path d="M211.28,244.255c-1.34,0-2.449-1.062-2.497-2.411c-0.049-1.38,1.03-2.538,2.41-2.587
					c1.614-0.057,2.927-1.418,2.927-3.034V164.13c0-1.674-1.362-3.036-3.036-3.036h-99.488c-1.674,0-3.036,1.362-3.036,3.036v72.093
					c0,1.6,1.3,2.96,2.898,3.033c1.379,0.063,2.447,1.231,2.385,2.61c-0.063,1.379-1.229,2.425-2.61,2.385
					c-4.302-0.194-7.672-3.721-7.672-8.028V164.13c0-4.431,3.605-8.036,8.036-8.036h99.488c4.431,0,8.036,3.605,8.036,8.036v72.093
					c0,4.349-3.404,7.876-7.75,8.031C211.34,244.255,211.31,244.255,211.28,244.255z"/>
			</g>
		</g>
		<g>
			<g>
				<path d="M216.104,256h-109.53c-5.979,0-10.842-4.864-10.842-10.843c0-3.252,2.646-5.898,5.898-5.898h119.418
					c3.252,0,5.898,2.646,5.898,5.898C226.947,251.136,222.083,256,216.104,256z M101.63,244.259c-0.495,0-0.898,0.403-0.898,0.898
					c0,3.222,2.621,5.843,5.842,5.843h109.53c3.222,0,5.843-2.621,5.843-5.843c0-0.495-0.403-0.898-0.898-0.898H101.63z"/>
			</g>
		</g>
		<g>
			<g>
				<g>
					<path d="M151.712,210.271c-0.688,0-1.373-0.282-1.867-0.836l-5.969-6.692c-0.846-0.948-0.846-2.38,0-3.328l5.969-6.692
						c0.918-1.03,2.5-1.121,3.53-0.202c1.03,0.919,1.121,2.5,0.202,3.53l-4.484,5.028l4.484,5.028
						c0.919,1.03,0.829,2.611-0.202,3.53C152.898,210.063,152.304,210.271,151.712,210.271z"/>
				</g>
			</g>
			<g>
				<g>
					<path d="M170.967,210.271c-0.592,0-1.187-0.209-1.663-0.634c-1.03-0.919-1.121-2.5-0.202-3.53l4.484-5.028l-4.484-5.028
						c-0.919-1.03-0.829-2.611,0.202-3.53c1.031-0.92,2.61-0.828,3.53,0.202l5.969,6.692c0.846,0.948,0.846,2.38,0,3.328
						l-5.969,6.692C172.34,209.989,171.655,210.271,170.967,210.271z"/>
				</g>
			</g>
			<g>
				<g>
					<path d="M158.422,210.042c-0.335,0-0.675-0.067-1.002-0.21c-1.265-0.554-1.84-2.029-1.287-3.293l5.833-13.313
						c0.554-1.264,2.027-1.841,3.293-1.287c1.265,0.554,1.84,2.029,1.287,3.293l-5.833,13.313
						C160.302,209.482,159.385,210.042,158.422,210.042z"/>
				</g>
			</g>
		</g>
		<g>
			<g>
				<path class="st7" d="M174.822,28.33c-4.498-0.838-8.043-4.31-8.898-8.716c-0.043-0.221-0.352-0.221-0.395,0
					c-0.855,4.406-4.4,7.879-8.898,8.716c-0.226,0.042-0.226,0.345,0,0.387c4.498,0.838,8.043,4.31,8.898,8.717
					c0.043,0.221,0.352,0.221,0.395,0c0.855-4.406,4.4-7.879,8.898-8.717C175.047,28.675,175.047,28.373,174.822,28.33z"/>
			</g>
		</g>
		<g>
			<g>
				<path class="st8" d="M173.515,112.101c-2.862-0.533-5.118-2.743-5.663-5.547c-0.027-0.141-0.224-0.141-0.251,0
					c-0.544,2.804-2.8,5.014-5.663,5.547c-0.144,0.027-0.144,0.219,0,0.246c2.862,0.533,5.118,2.743,5.663,5.547
					c0.027,0.141,0.224,0.141,0.251,0c0.544-2.804,2.8-5.014,5.663-5.547C173.658,112.32,173.658,112.128,173.515,112.101z"/>
			</g>
		</g>
		<g>
			<g>
				<path class="st6" d="M34.246,120.75h2.33v-2.33c0-1.744,1.413-3.157,3.157-3.157c1.744,0,3.157,1.413,3.157,3.157v2.33h2.329
					c1.744,0,3.157,1.413,3.157,3.157s-1.413,3.157-3.157,3.157h-2.329v2.33c0,1.744-1.413,3.157-3.157,3.157
					c-1.744,0-3.157-1.413-3.157-3.157v-2.33h-2.33c-1.744,0-3.157-1.413-3.157-3.157S32.502,120.75,34.246,120.75z"/>
			</g>
		</g>
		<g>
			<g>
				<circle class="st9" cx="24.755" cy="152.825" r="3.377"/>
			</g>
		</g>
		<g>
			<g>
				<circle class="st8" cx="148.755" cy="3.377" r="3.377"/>
			</g>
		</g>
		<g>
			<g>
				<path d="M160.44,160.846c-0.053,0-0.106-0.001-0.16-0.005c-1.378-0.087-2.425-1.274-2.338-2.652
					c0.438-6.951-3.064-12.681-6.451-18.222c-3.719-6.084-7.564-12.376-4.757-19.396c3.894-9.734,3.712-17.086,2.874-21.539
					c-0.255-1.357,0.638-2.664,1.995-2.919c1.358-0.252,2.664,0.638,2.919,1.995c1.397,7.427,0.339,15.609-3.146,24.321
					c-1.787,4.466,0.501,8.583,4.38,14.931c3.615,5.914,7.712,12.618,7.175,21.144C162.849,159.827,161.749,160.846,160.44,160.846z
					"/>
			</g>
		</g>
		<g>
			<g>
				<path d="M52.332,161.125c-1.295,0-2.39-0.998-2.49-2.31c-0.662-8.676,3.493-15.468,7.159-21.46
					c3.882-6.346,6.171-10.462,4.385-14.927c-4.36-10.902-4.107-19.294-3.127-24.416c0.26-1.356,1.568-2.245,2.926-1.985
					c1.356,0.26,2.245,1.569,1.985,2.926c-0.855,4.465-1.053,11.84,2.858,21.619c2.808,7.019-1.041,13.31-4.762,19.393
					c-3.43,5.607-6.978,11.406-6.439,18.471c0.105,1.376-0.926,2.578-2.303,2.683C52.459,161.123,52.395,161.125,52.332,161.125z"/>
			</g>
		</g>
		<g>
			<g>
				<path d="M143.342,103.487c-0.547,0-1.102-0.031-1.696-0.096c-1.373-0.148-2.365-1.382-2.216-2.754
					c0.148-1.373,1.382-2.375,2.754-2.216c0.414,0.044,0.792,0.066,1.158,0.066c6.617,0,12-5.384,12-12.001s-5.383-12-12-12
					c-0.374,0-0.758,0.02-1.143,0.058c-1.383,0.131-2.598-0.867-2.735-2.241c-0.136-1.374,0.867-2.598,2.241-2.735
					c10.091-1,18.638,7.006,18.638,16.918C160.342,95.86,152.716,103.487,143.342,103.487z"/>
			</g>
		</g>
		<g>
			<g>
				<path d="M106.381,135.687c-20.53,0-37.232-16.702-37.232-37.232V77.771c0-0.784,0.368-1.523,0.994-1.995
					c0.626-0.473,1.438-0.625,2.191-0.409c25.918,7.382,43.875-10.649,48.761-16.352l0,0c0.849-0.991,2.033-1.581,3.333-1.663
					c1.292-0.077,2.591,0.375,3.556,1.253c3.952,3.59,7.84,5.848,11.557,6.709c2.397,0.556,4.072,2.645,4.072,5.081v28.06
					C143.613,118.985,126.911,135.687,106.381,135.687z M74.149,80.979v17.476c0,17.773,14.459,32.232,32.232,32.232
					c17.772,0,32.231-14.459,32.231-32.232v-28.06c0-0.113-0.101-0.187-0.201-0.21c-4.515-1.046-9.109-3.656-13.656-7.759
					C119.398,68.625,100.97,86.858,74.149,80.979z M124.892,62.268C124.892,62.269,124.892,62.269,124.892,62.268L124.892,62.268z"
					/>
			</g>
		</g>
		<g>
			<g>
				<path d="M69.421,103.487c-9.375,0-17.001-7.626-17.001-17.001c0-4.668,1.958-9.181,5.371-12.381
					c2.03-1.904,4.983-2.409,7.523-1.288c2.331,1.029,4.693,1.888,7.02,2.55c1.328,0.378,2.098,1.761,1.72,3.089
					c-0.378,1.329-1.764,2.098-3.089,1.72c-2.548-0.726-5.129-1.663-7.671-2.785c-0.702-0.31-1.519-0.168-2.083,0.361
					c-2.445,2.292-3.791,5.394-3.791,8.733c0,6.617,5.384,12.001,12.001,12.001c0.422,0,0.86-0.029,1.34-0.088
					c1.373-0.167,2.618,0.806,2.787,2.176c0.168,1.37-0.806,2.618-2.176,2.787C70.687,103.446,70.049,103.487,69.421,103.487z"/>
			</g>
		</g>
		<g>
			<g>
				<g>
					<path d="M59.152,78.438c-1.381,0-2.5-1.119-2.5-2.5v-8.183c0-27.421,22.308-49.729,49.729-49.729
						c27.42,0,49.729,22.308,49.729,49.729v7.87c0,1.381-1.119,2.5-2.5,2.5s-2.5-1.119-2.5-2.5v-7.87
						c0-24.664-20.065-44.729-44.729-44.729S61.652,43.091,61.652,67.755v8.183C61.652,77.318,60.533,78.438,59.152,78.438z"/>
				</g>
			</g>
		</g>
		<g>
			<g>
				<path d="M161.34,226.951c-14.31,0-25.951-11.642-25.951-25.951s11.642-25.951,25.951-25.951
					c14.309,0,25.951,11.642,25.951,25.951S175.649,226.951,161.34,226.951z M161.34,180.049c-11.553,0-20.951,9.398-20.951,20.951
					s9.398,20.951,20.951,20.951c11.552,0,20.951-9.398,20.951-20.951S172.892,180.049,161.34,180.049z"/>
			</g>
		</g>
		<g>
			<g>
				<path d="M105.261,175.615c-0.025,0-0.051,0-0.076-0.001c-13.686-0.409-26.139-8.271-32.5-20.519
					c-0.636-1.226-0.159-2.735,1.066-3.371c1.226-0.635,2.734-0.159,3.371,1.066c5.526,10.641,16.335,17.471,28.211,17.825
					c1.38,0.042,2.465,1.193,2.424,2.574C107.718,174.544,106.607,175.615,105.261,175.615z"/>
			</g>
		</g>
		<g>
			<g>
				<path d="M135.192,160.617c-0.5,0-1.003-0.149-1.442-0.459c-1.127-0.797-1.394-2.358-0.596-3.485
					c0.963-1.36,1.833-2.815,2.587-4.324c0.617-1.235,2.119-1.735,3.354-1.119c1.235,0.617,1.736,2.119,1.119,3.354
					c-0.867,1.735-1.869,3.41-2.979,4.977C136.748,160.25,135.976,160.617,135.192,160.617z"/>
			</g>
		</g>
		<g>
			<g>
				<path d="M83.922,237H61.7c-2.218,0-4.022-1.804-4.022-4.021v-8.126c0-1.381,1.119-2.5,2.5-2.5s2.5,1.119,2.5,2.5V232h21.244
					c2.208,0,4.212-0.738,5.642-2.078c2.699-2.529,6.209-3.922,9.883-3.922h6.031c1.381,0,2.5,1.119,2.5,2.5s-1.119,2.5-2.5,2.5
					h-6.031c-2.4,0-4.695,0.913-6.464,2.571C90.623,235.782,87.405,237,83.922,237z"/>
			</g>
		</g>
		<g>
			<g>
				<path d="M106.06,256H35.512c-1.768,0-3.478-0.736-4.692-2.021c-1.214-1.284-1.854-3.033-1.756-4.798l1.214-33.372
					c0.051-1.38,1.233-2.445,2.589-2.408c1.38,0.05,2.458,1.209,2.408,2.589l-1.216,33.42c-0.033,0.594,0.233,0.961,0.395,1.132
					S34.965,251,35.512,251h70.548c1.381,0,2.5,1.119,2.5,2.5S107.44,256,106.06,256z"/>
			</g>
		</g>
	</g>
</g>
<g id="Layer_3">
</g>
<g id="Layer_4">
</g>
<g id="Layer_5">
</g>
<g id="Layer_6">
</g>
<g id="Layer_7">
</g>
<g id="Layer_8">
</g>
<g id="Layer_9">
</g>
<g id="Layer_10">
</g>
<g id="Layer_11">
</g>
<g id="Layer_12">
</g>
<g id="Layer_13">
</g>
<g id="Layer_14">
</g>
<g id="Layer_15">
</g>
<g id="Layer_16">
</g>
<g id="Layer_17">
</g>
<g id="Layer_18">
</g>
<g id="Layer_19">
</g>
<g id="Layer_20">
</g>
<g id="Layer_21">
</g>
<g id="Layer_22">
</g>
<g id="Layer_23">
</g>
<g id="Layer_24">
</g>
<g id="Layer_25">
</g>
<g id="Layer_26">
</g>
<g id="Layer_27">
</g>
<g id="Layer_28">
</g>
<g id="Layer_29">
</g>
<g id="Layer_30">
</g>
<g id="Layer_31">
</g>
<g id="Layer_32">
</g>
<g id="Layer_33">
</g>
<g id="Layer_34">
</g>
<g id="Layer_35">
</g>
<g id="Layer_36">
</g>
<g id="Layer_37">
</g>
<g id="Layer_38">
</g>
<g id="Layer_39">
</g>
<g id="Layer_40">
</g>
<g id="Layer_41">
</g>
<g id="Layer_42">
</g>
<g id="Layer_43">
</g>
<g id="Layer_44">
</g>
<g id="Layer_45">
</g>
<g id="Layer_46">
</g>
<g id="Layer_47">
</g>
<g id="Layer_48">
</g>
<g id="Layer_49">
</g>
<g id="Layer_50">
</g>
<g id="Layer_51">
</g>
<g id="Layer_52">
</g>
<g id="Layer_53">
</g>
<g id="Layer_54">
</g>
<g id="Layer_55">
</g>
<g id="Layer_56">
</g>
<g id="Layer_57">
</g>
<g id="Layer_58">
</g>
<g id="Layer_59">
</g>
<g id="Layer_60">
</g>
<g id="Layer_61">
</g>
<g id="Layer_62">
</g>
<g id="Layer_63">
</g>
<g id="Layer_64">
</g>
<g id="Layer_65">
</g>
<g id="Layer_66">
</g>
<g id="Layer_67">
</g>
<g id="Layer_68">
</g>
<g id="Layer_69">
</g>
<g id="Layer_70">
</g>
<g id="Layer_71">
</g>
<g id="Layer_72">
</g>
<g id="Layer_73">
</g>
<g id="Layer_74">
</g>
<g id="Layer_75">
</g>
<g id="Layer_76">
</g>
<g id="Layer_77">
</g>
<g id="Layer_78">
</g>
<g id="Layer_79">
</g>
<g id="Layer_80">
</g>
</svg>
