<?xml version="1.0" encoding="utf-8"?>
<!-- Generator: Adobe Illustrator 24.0.0, SVG Export Plug-In . SVG Version: 6.00 Build 0)  -->
<svg version="1.1" xmlns="http://www.w3.org/2000/svg" xmlns:xlink="http://www.w3.org/1999/xlink" x="0px" y="0px"
	 viewBox="0 0 256 256" style="enable-background:new 0 0 256 256;" xml:space="preserve">
<style type="text/css">
	.st0{fill:#3A70BF;}
	.st1{fill:#EDF4FC;}
	.st2{fill:#C7D7E5;}
	.st3{fill:#F9D0B4;}
	.st4{fill:#5B5D60;}
	.st5{fill:#5290DB;}
	.st6{fill:#70D6F9;}
	.st7{fill:#F5C84C;}
	.st8{fill:#FC657E;}
	.st9{fill:#87D147;}
	.st10{fill:#FCDD86;}
	.st11{fill:#9BE5F9;}
	.st12{fill:#B2E26D;}
	.st13{fill:#754E34;}
	.st14{fill:#FCA265;}
	.st15{fill:#818182;}
	.st16{fill:#F94EED;}
	.st17{fill:#FFC197;}
	.st18{fill:#3CAADC;}
	.st19{fill:#DAE6F1;}
	.st20{fill:#57AF12;}
	.st21{fill:#EF4460;}
	.st22{fill:#FFF0CA;}
	.st23{fill:#F98FA6;}
	.st24{fill:#EDB311;}
	.st25{fill:#FC8C48;}
	.st26{fill:#FCB9CB;}
	.st27{fill:#96BC71;}
	.st28{fill:#78A352;}
	.st29{fill:#B8DD90;}
	.st30{fill:#6FAFEF;}
	.st31{fill:#29589F;}
	.st32{fill:#414344;}
	.st33{fill:#9B6B4B;}
	.st34{fill:#73B1EF;}
</style>
<g id="Layer_1">
	<g>
		<g>
			<g>
				<g>
					<path class="st0" d="M101.851,245.157c0-1.877,1.521-3.398,3.398-3.398h9.965c-3.045,0-5.536-2.491-5.536-5.536V164.13
						c0-3.045,2.491-5.536,5.536-5.536h4.055l8.164-8.583c-2.343-2.368-3.722-5.597-3.722-9.04v-6.335
						c-5.268,2.868-11.296,4.501-17.686,4.501h0c-5.959,0-11.597-1.427-16.604-3.945v5.778c0,3.443-1.379,6.671-3.722,9.04
						l14.659,15.411c0.77,0.81,0.78,2.078,0.022,2.899l-8.157,8.837c-0.936,1.014-2.552,0.97-3.431-0.094L73.737,158.84
						c-0.484-0.586-0.551-1.382-0.23-2.026l-1.471,0.725l-28.902,7.275c-6.233,1.569-10.721,7.008-11.078,13.425l-4.115,70.951
						c-0.13,2.34,1.732,4.31,4.076,4.31h78.177C105.586,253.5,101.851,249.765,101.851,245.157z"/>
				</g>
			</g>
		</g>
		<g>
			<g>
				<path class="st1" d="M214.703,158.594h-99.488c-3.045,0-5.536,2.491-5.536,5.536v72.093c0,3.045,2.491,5.536,5.536,5.536h99.488
					c3.045,0,5.536-2.491,5.536-5.536V164.13C220.239,161.085,217.747,158.594,214.703,158.594z"/>
			</g>
		</g>
		<g>
			<g>
				<path class="st2" d="M224.668,241.759H105.249c-1.877,0-3.398,1.521-3.398,3.398c0,4.607,3.735,8.343,8.343,8.343h109.53
					c4.607,0,8.343-3.735,8.343-8.343C228.066,243.281,226.544,241.759,224.668,241.759z"/>
			</g>
		</g>
		<g>
			<g>
				<path class="st3" d="M111.598,56.772c-13.593,17.094-33.644,14.681-40.386,13.27c-1.225-0.256-2.401,0.667-2.402,1.919
					c0,0.008,0,0.017,0,0.025v29.936c0,20.468,16.747,37.215,37.215,37.215h0c20.468,0,37.215-16.747,37.215-37.215V68.772
					c0-0.194-0.002-0.388-0.006-0.582c-0.021-1.055-0.866-1.925-1.921-1.956c-15.46-0.453-23.606-6.581-26.736-9.649
					C113.722,55.747,112.343,55.836,111.598,56.772z"/>
			</g>
		</g>
		<g>
			<g>
				<g>
					<path class="st4" d="M66.422,73.561c0.813,0,1.609,0.069,2.388,0.189v-1.763c0-0.008,0-0.017,0-0.025
						c0.001-1.252,1.177-2.175,2.402-1.919c6.742,1.411,26.794,3.823,40.386-13.27c0.745-0.937,2.124-1.025,2.978-0.187
						c3.13,3.068,11.276,9.196,26.736,9.649c1.055,0.031,1.9,0.901,1.921,1.956c0.004,0.194,0.006,0.388,0.006,0.582v4.978
						c0.779-0.121,1.575-0.189,2.388-0.189c4.188,0,7.982,1.665,10.777,4.36V49.973c0-11.692-9.566-21.258-21.258-21.258
						c-3.966,0-7.673,1.121-10.859,3.031c-3.722-6.211-10.502-10.405-18.23-10.405H95.141c-21.127,0-38.413,17.286-38.413,38.413
						v17.212C59.386,74.84,62.752,73.561,66.422,73.561z"/>
				</g>
			</g>
		</g>
		<g>
			<g>
				<path class="st3" d="M145.628,73.561c-0.813,0-1.609,0.069-2.388,0.189c0,3.96,0,22.286,0,28.173
					c0,0.839-0.038,1.67-0.094,2.496c0.81,0.13,1.635,0.217,2.482,0.217c8.581,0,15.537-6.956,15.537-15.537
					S154.209,73.561,145.628,73.561z"/>
			</g>
		</g>
		<g>
			<g>
				<path class="st3" d="M68.81,101.923c0-3.856,0-20.507,0-28.173c-0.779-0.121-1.575-0.189-2.388-0.189
					c-8.581,0-15.538,6.957-15.538,15.538s6.956,15.537,15.538,15.537c0.847,0,1.672-0.086,2.482-0.217v-0.001
					C68.848,103.593,68.81,102.762,68.81,101.923z"/>
			</g>
		</g>
		<g>
			<g>
				<path class="st5" d="M139.561,158.594c0.442-0.75,0.316-1.724-0.347-2.329l-8.134-7.427c-0.753-0.687-1.917-0.646-2.619,0.092
					l-9.192,9.664H139.561z"/>
			</g>
		</g>
		<g>
			<g>
				<path class="st5" d="M73.918,156.265l8.134-7.427c0.753-0.687,1.917-0.646,2.619,0.092l15.687,16.491
					c0.77,0.81,0.78,2.078,0.022,2.899l-8.157,8.837c-0.936,1.014-2.552,0.97-3.431-0.094L73.737,158.84
					C73.101,158.071,73.181,156.938,73.918,156.265z"/>
			</g>
		</g>
		<g>
			<g>
				<path class="st3" d="M100.077,168.648c1.939,0.315,3.923,0.49,5.947,0.49h0c1.233,0,2.451-0.067,3.653-0.188v-4.82
					c0-3.045,2.491-5.536,5.536-5.536h4.055l8.164-8.583c-2.343-2.368-3.722-5.597-3.722-9.04v-6.335
					c-5.268,2.868-11.296,4.501-17.686,4.501h0c-5.959,0-11.597-1.427-16.604-3.945v5.778c0,3.443-1.379,6.671-3.722,9.04
					l14.659,15.411c0.77,0.81,0.78,2.078,0.022,2.899L100.077,168.648z"/>
			</g>
		</g>
		<g>
			<g>
				<path d="M106.025,171.638c-1.921,0-3.893-0.15-5.86-0.446c-1.366-0.205-2.306-1.479-2.101-2.844
					c0.206-1.366,1.478-2.308,2.844-2.101c2.69,0.404,5.292,0.498,8.003,0.263c1.38-0.113,2.587,0.9,2.706,2.275
					s-0.9,2.587-2.275,2.706C108.225,171.589,107.108,171.638,106.025,171.638z"/>
			</g>
		</g>
		<g>
			<g>
				<path d="M86.001,152.194c-0.607,0-1.215-0.22-1.696-0.664c-1.014-0.937-1.076-2.519-0.139-3.533
					c1.776-1.922,2.755-4.417,2.755-7.025v-5.389c0-1.381,1.119-2.5,2.5-2.5s2.5,1.119,2.5,2.5v5.389c0,3.87-1.45,7.57-4.083,10.419
					C87.345,151.924,86.674,152.194,86.001,152.194z"/>
			</g>
		</g>
		<g>
			<g>
				<path d="M127.036,152.09c-0.682,0-1.362-0.277-1.855-0.823c-2.56-2.831-3.969-6.487-3.969-10.295v-5.765
					c0-1.381,1.119-2.5,2.5-2.5s2.5,1.119,2.5,2.5v5.765c0,2.566,0.951,5.031,2.678,6.941c0.926,1.024,0.846,2.605-0.178,3.531
					C128.233,151.877,127.633,152.09,127.036,152.09z"/>
			</g>
		</g>
		<g>
			<g>
				<circle class="st6" cx="164.958" cy="201" r="23.451"/>
			</g>
		</g>
		<g>
			<g>
				<path class="st3" d="M101.851,245.119c0.008-1.86,1.538-3.36,3.398-3.36h9.965c-3.045,0-5.536-2.491-5.536-5.536V228.5h-7.612
					c-3.154,0-6.029,1.237-8.174,3.246c-1.972,1.848-4.649,2.754-7.352,2.754H56.939c-1.059,0-1.918-0.859-1.918-1.918V218.5H29.72
					l-1.78,30.69c-0.13,2.34,1.732,4.31,4.076,4.31c26.09,0,52.129,0,78.177,0C105.573,253.5,101.83,249.744,101.851,245.119z"/>
			</g>
		</g>
		<g>
			<g>
				<path d="M55.021,221.375c-1.381,0-2.5-1.119-2.5-2.5v-22.979c0-1.381,1.119-2.5,2.5-2.5s2.5,1.119,2.5,2.5v22.979
					C57.521,220.255,56.402,221.375,55.021,221.375z"/>
			</g>
		</g>
		<g>
			<g>
				<g>
					<path d="M109.25,256H32.017c-1.802,0-3.545-0.75-4.783-2.06c-1.238-1.309-1.89-3.09-1.79-4.889l4.115-70.957
						c0.42-7.545,5.63-13.859,12.964-15.705l28.644-7.209l0.677-0.334c1.239-0.611,2.738-0.102,3.348,1.137
						c0.611,1.238,0.102,2.737-1.137,3.348l-0.915,0.451c-0.158,0.078-0.324,0.139-0.495,0.182l-28.901,7.274
						c-5.2,1.309-8.895,5.786-9.193,11.14l-4.115,70.957c-0.024,0.433,0.129,0.851,0.431,1.17c0.302,0.319,0.711,0.495,1.15,0.495
						h77.233c1.381,0,2.5,1.119,2.5,2.5S110.631,256,109.25,256z"/>
				</g>
			</g>
		</g>
		<g>
			<g>
				<path d="M106.566,118.573c-4.776,0-9.262-1.95-11.999-5.215c-0.887-1.058-0.748-2.635,0.31-3.522
					c1.06-0.888,2.636-0.747,3.522,0.31c1.798,2.146,4.852,3.427,8.167,3.427s6.369-1.281,8.167-3.426
					c0.887-1.058,2.463-1.198,3.522-0.31c1.058,0.887,1.197,2.464,0.31,3.522C115.828,116.624,111.342,118.573,106.566,118.573z"/>
			</g>
		</g>
		<g>
			<g>
				<circle cx="123.355" cy="90.816" r="4"/>
			</g>
		</g>
		<g>
			<g>
				<circle cx="89.776" cy="90.816" r="4"/>
			</g>
		</g>
		<g>
			<g>
				<path d="M131.542,106.014h-9.237c-7.458,0-13.524-6.067-13.524-13.524V86.1c0-5.577,4.538-10.114,10.115-10.114h16.056
					c5.577,0,10.115,4.537,10.115,10.114v6.39C145.066,99.947,138.999,106.014,131.542,106.014z M118.895,80.986
					c-2.82,0-5.115,2.294-5.115,5.114v6.39c0,4.7,3.824,8.524,8.524,8.524h9.237c4.7,0,8.524-3.824,8.524-8.524V86.1
					c0-2.82-2.294-5.114-5.115-5.114H118.895z"/>
			</g>
		</g>
		<g>
			<g>
				<path d="M89.827,106.014H80.59c-7.458,0-13.524-6.067-13.524-13.524V86.1c0-5.577,4.538-10.114,10.115-10.114h16.056
					c5.577,0,10.115,4.537,10.115,10.114v6.39C103.352,99.947,97.285,106.014,89.827,106.014z M77.181,80.986
					c-2.82,0-5.115,2.294-5.115,5.114v6.39c0,4.7,3.824,8.524,8.524,8.524h9.237c4.7,0,8.524-3.824,8.524-8.524V86.1
					c0-2.82-2.294-5.114-5.115-5.114H77.181z"/>
			</g>
		</g>
		<g>
			<g>
				<path d="M110.237,89.924h-8.343c-1.381,0-2.5-1.119-2.5-2.5s1.119-2.5,2.5-2.5h8.343c1.381,0,2.5,1.119,2.5,2.5
					S111.618,89.924,110.237,89.924z"/>
			</g>
		</g>
		<g>
			<g>
				<path d="M214.869,244.256c-1.346,0-2.457-1.07-2.498-2.425c-0.042-1.38,1.043-2.533,2.424-2.574
					c1.623-0.049,2.943-1.41,2.943-3.034V164.13c0-1.674-1.362-3.036-3.036-3.036h-99.488c-1.674,0-3.036,1.362-3.036,3.036v72.093
					c0,1.625,1.32,2.985,2.943,3.034c1.38,0.042,2.465,1.194,2.424,2.574c-0.042,1.38-1.176,2.455-2.574,2.424
					c-4.297-0.129-7.793-3.733-7.793-8.032V164.13c0-4.431,3.605-8.036,8.036-8.036h99.488c4.431,0,8.036,3.605,8.036,8.036v72.093
					c0,4.299-3.496,7.903-7.793,8.032C214.92,244.256,214.895,244.256,214.869,244.256z"/>
			</g>
		</g>
		<g>
			<g>
				<path d="M219.723,256h-109.53c-5.979,0-10.842-4.864-10.842-10.843c0-3.252,2.646-5.898,5.898-5.898h119.418
					c3.252,0,5.898,2.646,5.898,5.898C230.566,251.136,225.702,256,219.723,256z M105.25,244.259c-0.496,0-0.898,0.403-0.898,0.898
					c0,3.222,2.621,5.843,5.842,5.843h109.53c3.222,0,5.843-2.621,5.843-5.843c0-0.495-0.403-0.898-0.898-0.898H105.25z"/>
			</g>
		</g>
		<g>
			<g>
				<g>
					<path d="M155.331,210.271c-0.688,0-1.373-0.282-1.867-0.836l-5.968-6.692c-0.846-0.948-0.846-2.38,0-3.328l5.968-6.692
						c0.918-1.03,2.5-1.121,3.53-0.202c1.03,0.919,1.121,2.5,0.202,3.53l-4.484,5.028l4.484,5.028
						c0.919,1.03,0.829,2.611-0.202,3.53C156.517,210.063,155.922,210.271,155.331,210.271z"/>
				</g>
			</g>
			<g>
				<g>
					<path d="M174.586,210.271c-0.592,0-1.187-0.209-1.663-0.634c-1.03-0.919-1.121-2.5-0.202-3.53l4.484-5.028l-4.484-5.028
						c-0.919-1.03-0.829-2.611,0.202-3.53c1.03-0.92,2.61-0.828,3.53,0.202l5.969,6.692c0.846,0.948,0.846,2.38,0,3.328
						l-5.969,6.692C175.959,209.989,175.274,210.271,174.586,210.271z"/>
				</g>
			</g>
			<g>
				<g>
					<path d="M162.041,210.042c-0.335,0-0.675-0.067-1.002-0.21c-1.265-0.554-1.84-2.029-1.287-3.293l5.833-13.313
						c0.554-1.264,2.028-1.841,3.293-1.287c1.265,0.554,1.84,2.029,1.287,3.293l-5.833,13.313
						C163.921,209.482,163.003,210.042,162.041,210.042z"/>
				</g>
			</g>
		</g>
		<g>
			<g>
				<path class="st7" d="M63.822,131.331c-4.498-0.838-8.043-4.31-8.898-8.716c-0.043-0.221-0.352-0.221-0.395,0
					c-0.855,4.406-4.4,7.879-8.898,8.716c-0.226,0.042-0.226,0.345,0,0.387c4.498,0.838,8.043,4.31,8.898,8.717
					c0.043,0.221,0.352,0.221,0.395,0c0.855-4.406,4.4-7.879,8.898-8.717C64.047,131.675,64.047,131.373,63.822,131.331z"/>
			</g>
		</g>
		<g>
			<g>
				<path class="st8" d="M173.515,112.101c-2.862-0.533-5.118-2.743-5.663-5.547c-0.027-0.141-0.224-0.141-0.251,0
					c-0.544,2.804-2.8,5.014-5.663,5.547c-0.144,0.027-0.144,0.219,0,0.246c2.862,0.533,5.118,2.743,5.663,5.547
					c0.027,0.141,0.224,0.141,0.251,0c0.544-2.804,2.8-5.014,5.663-5.547C173.658,112.32,173.658,112.128,173.515,112.101z"/>
			</g>
		</g>
		<g>
			<g>
				<path class="st6" d="M169.246,23.75h2.33v-2.33c0-1.744,1.413-3.157,3.157-3.157s3.157,1.413,3.157,3.157v2.33h2.329
					c1.744,0,3.157,1.413,3.157,3.157s-1.413,3.157-3.157,3.157h-2.329v2.33c0,1.744-1.413,3.157-3.157,3.157
					s-3.157-1.413-3.157-3.157v-2.33h-2.33c-1.744,0-3.157-1.413-3.157-3.157S167.502,23.75,169.246,23.75z"/>
			</g>
		</g>
		<g>
			<g>
				<circle class="st8" cx="31.755" cy="152.825" r="3.377"/>
			</g>
		</g>
		<g>
			<g>
				<circle class="st9" cx="155.755" cy="3.377" r="3.377"/>
			</g>
		</g>
		<g>
			<g>
				<path d="M106.025,141.638c-21.899,0-39.715-17.816-39.715-39.715V71.987c0.001-1.371,0.603-2.628,1.65-3.479
					c1.059-0.859,2.433-1.192,3.764-0.912c7.237,1.514,25.418,3.338,37.917-12.38v0c0.796-1,1.982-1.619,3.253-1.698
					c1.273-0.081,2.521,0.389,3.432,1.281c2.593,2.542,10.226,8.501,25.06,8.936c2.391,0.071,4.3,2.006,4.348,4.406
					c0.004,0.209,0.006,0.42,0.006,0.632v33.151C145.74,123.822,127.924,141.638,106.025,141.638z M71.31,72.613v29.311
					c0,19.142,15.573,34.715,34.715,34.715c19.142,0,34.715-15.573,34.715-34.715V68.772c0-0.019,0-0.038,0-0.056
					c-15.154-0.563-23.626-6.308-27.522-9.97C99.03,76.143,78.298,73.963,71.31,72.613z M113.554,58.329
					c0,0.001,0,0.001-0.001,0.002C113.553,58.33,113.554,58.33,113.554,58.329L113.554,58.329z"/>
			</g>
		</g>
		<g>
			<g>
				<g>
					<path d="M156.404,79.5c-1.381,0-2.5-1.119-2.5-2.5V49.973c0-10.343-8.415-18.758-18.758-18.758
						c-3.345,0-6.655,0.925-9.574,2.675c-0.569,0.341-1.251,0.441-1.893,0.281c-0.643-0.161-1.196-0.571-1.537-1.14
						c-3.396-5.668-9.56-9.19-16.086-9.19H95.141c-19.803,0-35.913,16.111-35.913,35.914v16.87c0,1.381-1.119,2.5-2.5,2.5
						s-2.5-1.119-2.5-2.5v-16.87c0-22.56,18.354-40.914,40.913-40.914h10.916c7.481,0,14.582,3.641,19.048,9.638
						c3.15-1.487,6.579-2.264,10.042-2.264c13.1,0,23.758,10.658,23.758,23.758V77C158.904,78.38,157.785,79.5,156.404,79.5z"/>
				</g>
			</g>
		</g>
		<g>
			<g>
				<path d="M145.628,107.136c-0.622,0-1.254-0.038-1.933-0.117c-1.372-0.159-2.354-1.399-2.196-2.771
					c0.159-1.371,1.392-2.356,2.771-2.196c0.485,0.056,0.93,0.083,1.357,0.083c7.189,0,13.038-5.849,13.038-13.038
					s-5.849-13.038-13.038-13.038c-0.41,0-0.835,0.022-1.265,0.065c-1.372,0.134-2.599-0.865-2.737-2.239
					c-0.137-1.374,0.865-2.599,2.239-2.737c0.594-0.059,1.187-0.089,1.763-0.089c9.946,0,18.038,8.092,18.038,18.038
					S155.574,107.136,145.628,107.136z"/>
			</g>
		</g>
		<g>
			<g>
				<path d="M66.422,107.136c-9.946,0-18.038-8.092-18.038-18.038s8.092-18.038,18.038-18.038c0.476,0,0.947,0.02,1.413,0.058
					c1.376,0.113,2.4,1.32,2.288,2.696c-0.113,1.377-1.327,2.402-2.696,2.288c-0.332-0.027-0.667-0.042-1.005-0.042
					c-7.189,0-13.038,5.849-13.038,13.038s5.849,13.038,13.038,13.038c0.346,0,0.688-0.018,1.025-0.049
					c1.381-0.132,2.592,0.885,2.719,2.26c0.127,1.375-0.885,2.592-2.26,2.719C67.401,107.112,66.902,107.136,66.422,107.136z"/>
			</g>
		</g>
		<g>
			<g>
				<path d="M119.63,160.714c-0.619,0-1.239-0.229-1.723-0.688c-1-0.952-1.04-2.534-0.088-3.535l8.831-9.284
					c1.628-1.711,4.372-1.808,6.116-0.215l8.134,7.427c1.179,1.076,1.676,2.711,1.295,4.265c-0.329,1.34-1.682,2.161-3.023,1.833
					c-1.212-0.297-2-1.432-1.897-2.638l-7.426-6.78l-8.406,8.838C120.951,160.454,120.291,160.714,119.63,160.714z"/>
			</g>
		</g>
		<g>
			<g>
				<path d="M90.548,180.391c-0.044,0-0.087,0-0.131-0.002c-1.379-0.038-2.674-0.669-3.553-1.733L71.81,160.432
					c-1.486-1.798-1.301-4.439,0.422-6.013c0,0,0,0,0,0l8.134-7.427c1.745-1.593,4.489-1.497,6.116,0.216l15.687,16.491
					c1.673,1.76,1.693,4.535,0.047,6.318l-8.157,8.836C93.153,179.835,91.879,180.391,90.548,180.391z M76.044,157.708
					l14.512,17.568l7.744-8.39l-15.018-15.788L76.044,157.708z M75.604,158.111c0-0.001,0.001-0.001,0.002-0.002L75.604,158.111
					L75.604,158.111z"/>
			</g>
		</g>
		<g>
			<g>
				<path d="M164.958,226.951c-14.31,0-25.951-11.642-25.951-25.951s11.642-25.951,25.951-25.951
					c14.309,0,25.951,11.642,25.951,25.951S179.268,226.951,164.958,226.951z M164.958,180.049
					c-11.553,0-20.951,9.398-20.951,20.951s9.398,20.951,20.951,20.951c11.552,0,20.951-9.398,20.951-20.951
					S176.511,180.049,164.958,180.049z"/>
			</g>
		</g>
		<g>
			<g>
				<path d="M86.541,237H56.938c-2.436,0-4.417-1.981-4.417-4.417V221H30.156c-1.381,0-2.5-1.119-2.5-2.5s1.119-2.5,2.5-2.5h24.865
					c1.381,0,2.5,1.119,2.5,2.5V232h29.02c2.208,0,4.212-0.738,5.642-2.078c2.699-2.529,6.209-3.922,9.883-3.922h6.81
					c1.381,0,2.5,1.119,2.5,2.5s-1.119,2.5-2.5,2.5h-6.81c-2.4,0-4.695,0.913-6.464,2.571C93.242,235.782,90.024,237,86.541,237z"/>
			</g>
		</g>
	</g>
</g>
<g id="Layer_2">
</g>
<g id="Layer_3">
</g>
<g id="Layer_4">
</g>
<g id="Layer_5">
</g>
<g id="Layer_6">
</g>
<g id="Layer_7">
</g>
<g id="Layer_8">
</g>
<g id="Layer_9">
</g>
<g id="Layer_10">
</g>
<g id="Layer_11">
</g>
<g id="Layer_12">
</g>
<g id="Layer_13">
</g>
<g id="Layer_14">
</g>
<g id="Layer_15">
</g>
<g id="Layer_16">
</g>
<g id="Layer_17">
</g>
<g id="Layer_18">
</g>
<g id="Layer_19">
</g>
<g id="Layer_20">
</g>
<g id="Layer_21">
</g>
<g id="Layer_22">
</g>
<g id="Layer_23">
</g>
<g id="Layer_24">
</g>
<g id="Layer_25">
</g>
<g id="Layer_26">
</g>
<g id="Layer_27">
</g>
<g id="Layer_28">
</g>
<g id="Layer_29">
</g>
<g id="Layer_30">
</g>
<g id="Layer_31">
</g>
<g id="Layer_32">
</g>
<g id="Layer_33">
</g>
<g id="Layer_34">
</g>
<g id="Layer_35">
</g>
<g id="Layer_36">
</g>
<g id="Layer_37">
</g>
<g id="Layer_38">
</g>
<g id="Layer_39">
</g>
<g id="Layer_40">
</g>
<g id="Layer_41">
</g>
<g id="Layer_42">
</g>
<g id="Layer_43">
</g>
<g id="Layer_44">
</g>
<g id="Layer_45">
</g>
<g id="Layer_46">
</g>
<g id="Layer_47">
</g>
<g id="Layer_48">
</g>
<g id="Layer_49">
</g>
<g id="Layer_50">
</g>
<g id="Layer_51">
</g>
<g id="Layer_52">
</g>
<g id="Layer_53">
</g>
<g id="Layer_54">
</g>
<g id="Layer_55">
</g>
<g id="Layer_56">
</g>
<g id="Layer_57">
</g>
<g id="Layer_58">
</g>
<g id="Layer_59">
</g>
<g id="Layer_60">
</g>
<g id="Layer_61">
</g>
<g id="Layer_62">
</g>
<g id="Layer_63">
</g>
<g id="Layer_64">
</g>
<g id="Layer_65">
</g>
<g id="Layer_66">
</g>
<g id="Layer_67">
</g>
<g id="Layer_68">
</g>
<g id="Layer_69">
</g>
<g id="Layer_70">
</g>
<g id="Layer_71">
</g>
<g id="Layer_72">
</g>
<g id="Layer_73">
</g>
<g id="Layer_74">
</g>
<g id="Layer_75">
</g>
<g id="Layer_76">
</g>
<g id="Layer_77">
</g>
<g id="Layer_78">
</g>
<g id="Layer_79">
</g>
<g id="Layer_80">
</g>
</svg>
