<?xml version="1.0" encoding="utf-8"?>
<!-- Generator: Adobe Illustrator 24.0.0, SVG Export Plug-In . SVG Version: 6.00 Build 0)  -->
<svg version="1.1" xmlns="http://www.w3.org/2000/svg" xmlns:xlink="http://www.w3.org/1999/xlink" x="0px" y="0px"
	 viewBox="0 0 256 256" style="enable-background:new 0 0 256 256;" xml:space="preserve">
<style type="text/css">
	.st0{fill:#3A70BF;}
	.st1{fill:#EDF4FC;}
	.st2{fill:#C7D7E5;}
	.st3{fill:#F9D0B4;}
	.st4{fill:#5B5D60;}
	.st5{fill:#5290DB;}
	.st6{fill:#70D6F9;}
	.st7{fill:#F5C84C;}
	.st8{fill:#FC657E;}
	.st9{fill:#87D147;}
	.st10{fill:#FCDD86;}
	.st11{fill:#9BE5F9;}
	.st12{fill:#B2E26D;}
	.st13{fill:#754E34;}
	.st14{fill:#FCA265;}
	.st15{fill:#818182;}
	.st16{fill:#F94EED;}
	.st17{fill:#FFC197;}
	.st18{fill:#3CAADC;}
	.st19{fill:#DAE6F1;}
	.st20{fill:#57AF12;}
	.st21{fill:#EF4460;}
	.st22{fill:#FFF0CA;}
	.st23{fill:#F98FA6;}
	.st24{fill:#EDB311;}
	.st25{fill:#FC8C48;}
	.st26{fill:#FCB9CB;}
	.st27{fill:#96BC71;}
	.st28{fill:#78A352;}
	.st29{fill:#B8DD90;}
	.st30{fill:#6FAFEF;}
	.st31{fill:#29589F;}
	.st32{fill:#414344;}
	.st33{fill:#9B6B4B;}
	.st34{fill:#73B1EF;}
</style>
<g id="Layer_1">
</g>
<g id="Layer_2">
</g>
<g id="Layer_3">
</g>
<g id="Layer_4">
</g>
<g id="Layer_5">
</g>
<g id="Layer_6">
</g>
<g id="Layer_7">
</g>
<g id="Layer_8">
</g>
<g id="Layer_9">
</g>
<g id="Layer_10">
</g>
<g id="Layer_11">
</g>
<g id="Layer_12">
</g>
<g id="Layer_13">
</g>
<g id="Layer_14">
</g>
<g id="Layer_15">
</g>
<g id="Layer_16">
</g>
<g id="Layer_17">
</g>
<g id="Layer_18">
</g>
<g id="Layer_19">
</g>
<g id="Layer_20">
</g>
<g id="Layer_21">
</g>
<g id="Layer_22">
</g>
<g id="Layer_23">
</g>
<g id="Layer_24">
</g>
<g id="Layer_25">
</g>
<g id="Layer_26">
</g>
<g id="Layer_27">
</g>
<g id="Layer_28">
</g>
<g id="Layer_29">
</g>
<g id="Layer_30">
</g>
<g id="Layer_31">
</g>
<g id="Layer_32">
</g>
<g id="Layer_33">
</g>
<g id="Layer_34">
</g>
<g id="Layer_35">
</g>
<g id="Layer_36">
</g>
<g id="Layer_37">
</g>
<g id="Layer_38">
</g>
<g id="Layer_39">
</g>
<g id="Layer_40">
</g>
<g id="Layer_41">
</g>
<g id="Layer_42">
</g>
<g id="Layer_43">
</g>
<g id="Layer_44">
</g>
<g id="Layer_45">
</g>
<g id="Layer_46">
</g>
<g id="Layer_47">
</g>
<g id="Layer_48">
</g>
<g id="Layer_49">
</g>
<g id="Layer_50">
</g>
<g id="Layer_51">
</g>
<g id="Layer_52">
</g>
<g id="Layer_53">
</g>
<g id="Layer_54">
</g>
<g id="Layer_55">
</g>
<g id="Layer_56">
</g>
<g id="Layer_57">
</g>
<g id="Layer_58">
</g>
<g id="Layer_59">
</g>
<g id="Layer_60">
</g>
<g id="Layer_61">
</g>
<g id="Layer_62">
</g>
<g id="Layer_63">
</g>
<g id="Layer_64">
</g>
<g id="Layer_65">
</g>
<g id="Layer_66">
</g>
<g id="Layer_67">
</g>
<g id="Layer_68">
</g>
<g id="Layer_69">
</g>
<g id="Layer_70">
</g>
<g id="Layer_71">
</g>
<g id="Layer_72">
</g>
<g id="Layer_73">
	<g>
		<g>
			<g>
				<path class="st3" d="M114.893,134.916c-5.14,2.69-10.97,4.223-17.145,4.223h0c-6.174,0-12.005-1.533-17.145-4.223v6.057
					c0,2.204-0.568,4.32-1.589,6.18l14.525,15.27c0.417,0.438,0.603,1.01,0.573,1.573c1.022,0.085,2.051,0.143,3.094,0.143h0
					c1.411,0,2.796-0.104,4.167-0.26l0,0c0,0.001,0,0.003,0,0.004c0-0.526,0.194-1.052,0.583-1.461l14.525-15.27
					c-1.021-1.86-1.589-3.976-1.589-6.18V134.916z"/>
			</g>
		</g>
		<g>
			<g>
				<path class="st3" d="M129.646,57.412c-2.433-2.552-6.39-2.787-9.164-0.61c-4.386,3.443-11.975,7.698-22.693,7.698
					c-10.745,0-18.374-4.276-22.778-7.723c-2.771-2.169-6.72-1.926-9.149,0.621l-0.013,0.013c-3.413,3.579-5.316,8.334-5.316,13.279
					v31.233c0,20.468,16.747,37.215,37.215,37.215h0c20.468,0,37.215-16.747,37.215-37.215V70.691
					C134.963,65.746,133.059,60.99,129.646,57.412z"/>
			</g>
		</g>
		<g>
			<g>
				<path class="st3" d="M137.351,73.561c-0.813,0-1.609,0.069-2.388,0.189c0,3.96,0,22.286,0,28.173
					c0,0.839-0.038,1.67-0.094,2.496c0.81,0.13,1.635,0.217,2.482,0.217c8.581,0,15.537-6.956,15.537-15.537
					S145.932,73.561,137.351,73.561z"/>
			</g>
		</g>
		<g>
			<g>
				<path class="st3" d="M60.533,101.923c0-3.856,0-20.507,0-28.173c-0.779-0.121-1.575-0.189-2.388-0.189
					c-8.581,0-15.538,6.957-15.538,15.538s6.956,15.537,15.538,15.537c0.847,0,1.672-0.086,2.482-0.217v-0.001
					C60.571,103.593,60.533,102.762,60.533,101.923z"/>
			</g>
		</g>
		<g>
			<g>
				<path class="st4" d="M134.824,41.816c-1.246,0-2.327-0.961-2.344-2.207c-0.285-20.737-23.966-24.633-47.549-20.56
					c-19.994,3.453-34.608,20.791-34.608,41.081v15.559c2.299-1.344,4.966-2.128,7.821-2.128c0.813,0,1.609,0.068,2.388,0.189
					v-3.059c0-4.945,1.904-9.7,5.316-13.279l0.013-0.013c2.429-2.547,6.377-2.79,9.149-0.621c4.404,3.447,12.034,7.723,22.778,7.723
					c10.719,0,18.308-4.255,22.693-7.698c2.774-2.177,6.73-1.943,9.164,0.61c3.413,3.579,5.316,8.334,5.316,13.279v3.059
					c0.779-0.121,1.575-0.189,2.388-0.189c2.89,0,5.586,0.803,7.903,2.178c0-4.342,0-8.802,0-12.775
					C145.254,44.395,138.549,41.816,134.824,41.816z"/>
			</g>
		</g>
		<g>
			<g>
				<path d="M97.748,141.639c-21.899,0-39.715-17.816-39.715-39.716V70.69c0-5.613,2.133-10.942,6.007-15.004
					c3.326-3.489,8.701-3.86,12.511-0.878C80.743,58.089,87.83,62,97.789,62c9.938,0,16.986-3.896,21.149-7.165
					c3.818-2.993,9.199-2.628,12.518,0.853v-0.001c3.873,4.063,6.007,9.391,6.007,15.004v31.232
					C137.463,123.822,119.647,141.639,97.748,141.639z M70.759,57.803c-1.134,0-2.254,0.446-3.088,1.321
					c-2.996,3.141-4.638,7.244-4.638,11.566v31.232c0,19.143,15.573,34.716,34.715,34.716c19.142,0,34.715-15.573,34.715-34.716
					V70.69c0-4.322-1.643-8.425-4.625-11.553c0,0,0,0,0-0.001c-1.532-1.607-4.031-1.766-5.811-0.368
					C117.243,62.523,109.156,67,97.789,67c-11.384,0-19.508-4.488-24.319-8.254C72.662,58.114,71.706,57.803,70.759,57.803z"/>
			</g>
		</g>
		<g>
			<g>
				<path d="M137.351,107.136c-0.585,0-1.18-0.034-1.816-0.104c-1.372-0.15-2.363-1.386-2.213-2.758
					c0.15-1.373,1.379-2.358,2.758-2.213c0.454,0.05,0.87,0.074,1.271,0.074c7.189,0,13.038-5.849,13.038-13.037
					c0-7.189-5.849-13.038-13.038-13.038c-0.426,0-0.867,0.023-1.312,0.069c-1.382,0.157-2.602-0.855-2.745-2.228
					c-0.143-1.374,0.854-2.603,2.228-2.745c0.615-0.064,1.23-0.097,1.829-0.097c9.946,0,18.038,8.092,18.038,18.038
					C155.389,99.044,147.297,107.136,137.351,107.136z"/>
			</g>
		</g>
		<g>
			<g>
				<path d="M58.145,107.136c-9.946,0-18.037-8.092-18.037-18.037c0-9.946,8.091-18.038,18.037-18.038
					c0.596,0,1.205,0.031,1.81,0.095c1.374,0.142,2.372,1.37,2.23,2.743c-0.142,1.374-1.367,2.378-2.744,2.229
					c-0.436-0.045-0.872-0.067-1.296-0.067c-7.188,0-13.037,5.849-13.037,13.038c0,7.188,5.849,13.037,13.037,13.037
					c0.438,0,0.892-0.028,1.385-0.087c1.37-0.166,2.614,0.816,2.777,2.188c0.163,1.371-0.817,2.615-2.188,2.777
					C59.428,107.096,58.782,107.136,58.145,107.136z"/>
			</g>
		</g>
		<g>
			<g>
				<path d="M98.289,118.573c-4.777,0-9.262-1.95-11.999-5.216c-0.887-1.058-0.748-2.635,0.31-3.521
					c1.06-0.887,2.635-0.748,3.522,0.311c1.798,2.146,4.852,3.427,8.167,3.427c3.315,0,6.368-1.281,8.167-3.428
					c0.887-1.058,2.463-1.196,3.522-0.31c1.058,0.887,1.197,2.464,0.31,3.521C107.551,116.624,103.065,118.573,98.289,118.573z"/>
			</g>
		</g>
		<g>
			<g>
				<circle cx="115.078" cy="90.816" r="5"/>
			</g>
		</g>
		<g>
			<g>
				<circle cx="81.499" cy="90.816" r="5"/>
			</g>
		</g>
		<g>
			<g>
				<path d="M50.324,77.563c-1.381,0-2.5-1.119-2.5-2.5V60.129c0-21.561,15.427-39.874,36.682-43.545
					c18.711-3.227,34.289-1.058,42.742,5.96c4.972,4.129,7.571,9.771,7.728,16.772c4.845,0.064,12.779,3.285,12.779,23.646v11.829
					c0,1.381-1.119,2.5-2.5,2.5s-2.5-1.119-2.5-2.5V62.963c0-11.851-2.891-18.647-7.931-18.647c-2.637,0-4.81-2.097-4.844-4.674
					c-0.077-5.59-2.071-10.049-5.927-13.251c-7.325-6.082-21.43-7.861-38.697-4.879c-18.851,3.255-32.533,19.496-32.533,38.617
					v14.935C52.824,76.444,51.705,77.563,50.324,77.563z"/>
			</g>
		</g>
		<g>
			<g>
				<path class="st13" d="M18.71,247.747l4.847-67.923c0.455-6.642,4.6-12.466,10.726-15.073l33.676-14.33
					c1.751-0.745,3.754,0.255,4.209,2.103L97.748,253.5H24.067C20.95,253.5,18.488,250.856,18.71,247.747z"/>
			</g>
		</g>
		<g>
			<g>
				<path class="st13" d="M173.24,198.068h-4.023c-1.416,0-2.564-1.148-2.564-2.564v-5.978c0-1.126-0.75-2.117-1.837-2.412
					c-2.958-0.801-5.762-1.976-8.36-3.468c-0.978-0.562-2.211-0.394-3.008,0.405l-4.231,4.23c-1.001,1.001-2.625,1.001-3.627,0
					l-6.937-6.937c-1.002-1.001-1.002-2.625,0-3.627l4.231-4.231c0.798-0.798,0.966-2.03,0.404-3.008
					c-1.493-2.598-2.667-5.402-3.468-8.359c-0.294-1.087-1.286-1.837-2.412-1.837h-5.977c-1.416,0-2.564-1.148-2.564-2.564v-6.729
					l-1.331-0.566c-1.751-0.745-3.754,0.255-4.209,2.103L97.748,253.5h73.681c3.117,0,5.579-2.644,5.357-5.753L173.24,198.068z"/>
			</g>
		</g>
		<g>
			<g>
				<path class="st33" d="M173.24,198.068h-4.023c-1.416,0-2.564-1.148-2.564-2.564v-5.978c0-1.126-0.75-2.117-1.837-2.412
					c-2.958-0.801-5.762-1.976-8.36-3.468c-0.416-0.239-0.878-0.338-1.334-0.32c-3.744,4.59-5.83,10.354-5.83,16.347V253.5h22.136
					c3.117,0,5.579-2.644,5.357-5.753L173.24,198.068z"/>
			</g>
		</g>
		<g>
			<g>
				<path class="st33" d="M46.203,199.673c0-7.154-2.962-13.988-8.183-18.879l-11.005-10.31c-1.985,2.671-3.222,5.893-3.458,9.34
					l-4.847,67.923c-0.222,3.109,2.24,5.753,5.357,5.753h22.136V199.673z"/>
			</g>
		</g>
		<g>
			<g>
				<path class="st33" d="M72.168,152.525c-0.456-1.848-2.458-2.849-4.209-2.103l-7.211,3.069v40.542
					c0,0.859,0.593,1.605,1.43,1.798l9.42,2.174c1.12,0.259,1.734,1.468,1.281,2.525l-4.271,9.965
					c-0.547,1.277-0.525,2.726,0.061,3.986L86.818,253.5h10.93L72.168,152.525z"/>
			</g>
		</g>
		<g>
			<g>
				<path class="st33" d="M131.431,160.282c-1.416,0-2.564-1.148-2.564-2.564v-6.729l-1.331-0.566
					c-1.751-0.745-3.754,0.255-4.209,2.103L97.748,253.5h10.93l18.149-39.021c0.586-1.26,0.608-2.709,0.061-3.986l-4.271-9.965
					c-0.453-1.057,0.161-2.266,1.281-2.524l9.42-2.174c0.837-0.193,1.43-0.938,1.43-1.798v-33.75H131.431z"/>
			</g>
		</g>
		<g>
			<g>
				<path class="st1" d="M72.168,152.525l3.533,13.948l6.271,7.591c0.879,1.064,2.495,1.109,3.431,0.094l8.157-8.837
					c0.758-0.821,0.748-2.089-0.022-2.899l-15.687-16.492c-0.702-0.738-1.866-0.779-2.619-0.092l-4.983,4.55
					C71.163,150.732,71.913,151.487,72.168,152.525z"/>
			</g>
		</g>
		<g>
			<g>
				<path class="st1" d="M110.092,174.158c0.936,1.014,2.552,0.97,3.431-0.094l6.271-7.591l3.533-13.948
					c0.256-1.038,1.005-1.792,1.918-2.136l-4.983-4.55c-0.753-0.687-1.917-0.646-2.619,0.092l-15.687,16.492
					c-0.77,0.81-0.78,2.078-0.022,2.899L110.092,174.158z"/>
			</g>
		</g>
		<g>
			<g>
				<g>
					<path class="st19" d="M113.523,174.063c-0.879,1.064-2.495,1.109-3.431,0.094l-4.373-4.737c-1.76,2.513-4.67,4.161-7.971,4.161
						s-6.211-1.647-7.971-4.161l-4.373,4.737c-0.936,1.014-2.552,0.97-3.431-0.094l-6.271-7.591L97.748,253.5l22.046-87.028
						L113.523,174.063z"/>
				</g>
			</g>
		</g>
		<g>
			<g>
				<path class="st8" d="M97.622,253.001l0.382-0.509l9.356-36.934l-4.591-43.383c-1.467,0.886-3.181,1.406-5.021,1.406
					s-3.553-0.519-5.021-1.406l-4.591,43.383L97.622,253.001z"/>
			</g>
		</g>
		<g>
			<g>
				<g>
					<path class="st8" d="M101.935,165.321c-0.376-0.408-0.562-0.926-0.561-1.443v0c-1.371,0.155-2.756,0.26-4.167,0.26h0
						c-1.043,0-2.072-0.058-3.094-0.143c-0.025,0.478-0.203,0.949-0.551,1.326l-3.784,4.1c1.76,2.513,4.67,4.161,7.971,4.161
						s6.211-1.647,7.971-4.161L101.935,165.321z"/>
				</g>
			</g>
		</g>
		<g>
			<g>
				<path d="M97.748,256H24.067c-2.177,0-4.276-0.914-5.76-2.507s-2.246-3.752-2.091-5.924l0,0l4.847-67.923
					c0.522-7.613,5.212-14.204,12.24-17.195L66.98,148.12c1.51-0.641,3.218-0.59,4.687,0.144c1.468,0.734,2.536,2.068,2.929,3.662
					l25.575,100.96c0.189,0.748,0.023,1.541-0.45,2.149C99.247,255.645,98.519,256,97.748,256z M21.204,247.925
					c-0.057,0.804,0.213,1.571,0.763,2.161S23.261,251,24.067,251h70.468l-24.79-97.861c-0.058-0.234-0.202-0.347-0.313-0.402
					c-0.112-0.056-0.288-0.103-0.495-0.015l-33.676,14.331c-5.288,2.25-8.817,7.209-9.21,12.942L21.204,247.925z"/>
			</g>
		</g>
		<g>
			<g>
				<path d="M116.211,149.129c-0.924,0-1.812-0.515-2.246-1.399c-1.029-2.097-1.572-4.433-1.572-6.757v-5.441
					c0-1.381,1.119-2.5,2.5-2.5s2.5,1.119,2.5,2.5v5.441c0,1.565,0.367,3.14,1.061,4.554c0.608,1.24,0.097,2.737-1.143,3.346
					C116.956,149.046,116.581,149.129,116.211,149.129z"/>
			</g>
		</g>
		<g>
			<g>
				<path d="M97.207,166.639c-0.901,0-1.868-0.041-2.958-0.125c-1.376-0.105-2.407-1.308-2.301-2.684
					c0.105-1.377,1.3-2.427,2.685-2.301c0.96,0.073,1.803,0.109,2.574,0.109c1.085,0,2.26-0.069,3.591-0.211
					c1.37-0.144,2.605,0.847,2.751,2.22c0.147,1.373-0.847,2.604-2.22,2.751C99.82,166.561,98.472,166.639,97.207,166.639z"/>
			</g>
		</g>
		<g>
			<g>
				<path d="M79.417,148.854c-0.351,0-0.708-0.074-1.047-0.231c-1.253-0.579-1.8-2.064-1.221-3.318
					c0.633-1.371,0.955-2.828,0.955-4.331v-5.368c0-1.381,1.119-2.5,2.5-2.5s2.5,1.119,2.5,2.5v5.368
					c0,2.232-0.476,4.396-1.416,6.429C81.265,148.314,80.361,148.854,79.417,148.854z"/>
			</g>
		</g>
		<g>
			<g>
				<path d="M171.429,256H97.748c-0.771,0-1.499-0.355-1.973-0.965c-0.474-0.608-0.64-1.401-0.45-2.149l25.579-100.976
					c0.389-1.578,1.457-2.913,2.926-3.646c1.468-0.734,3.176-0.784,4.687-0.142l1.33,0.565c0.923,0.393,1.521,1.299,1.521,2.301
					v6.729l6.042,0.064c2.254,0,4.238,1.516,4.824,3.686c0.735,2.711,1.82,5.324,3.223,7.766c1.121,1.953,0.79,4.428-0.804,6.021
					l-4.23,4.231l6.937,7.028l4.322-4.23c1.594-1.596,4.068-1.928,6.022-0.804c2.445,1.404,5.059,2.488,7.767,3.222
					c2.169,0.589,3.684,2.572,3.684,4.825v5.978l4.087,0.064c1.312,0,2.4,1.014,2.494,2.322l3.545,49.679
					c0.155,2.17-0.606,4.329-2.09,5.923S173.605,256,171.429,256z M100.96,251h70.468c0.806,0,1.552-0.325,2.101-0.915
					c0.549-0.589,0.819-1.356,0.763-2.159l-3.38-47.357h-1.694c-2.793,0-5.064-2.271-5.064-5.064v-5.978
					c-3.112-0.844-6.124-2.094-8.941-3.712l-4.228,4.234c-0.955,0.957-2.228,1.483-3.58,1.483c-1.354,0-2.626-0.526-3.582-1.484
					l-6.936-6.936c-0.957-0.955-1.484-2.228-1.484-3.581s0.527-2.626,1.485-3.582l4.229-4.23c-1.612-2.807-2.862-5.818-3.71-8.945
					l-5.976,0.008c-2.792,0-5.064-2.271-5.064-5.064v-5.042c-0.126-0.014-0.229,0.024-0.304,0.062
					c-0.111,0.056-0.255,0.168-0.309,0.387L100.96,251z"/>
			</g>
		</g>
		<g>
			<g>
				<path d="M149.293,254.875c-1.381,0-2.5-1.119-2.5-2.5v-52.702c0-6.328,2.16-12.559,6.084-17.542
					c0.854-1.084,2.424-1.272,3.511-0.417c1.084,0.854,1.271,2.426,0.417,3.511c-3.231,4.105-5.012,9.236-5.012,14.448v52.702
					C151.793,253.756,150.674,254.875,149.293,254.875z"/>
			</g>
		</g>
		<g>
			<g>
				<path d="M46.203,255.288c-1.381,0-2.5-1.119-2.5-2.5v-53.115c0-6.437-2.694-12.652-7.392-17.054l-10.358-9.704
					c-1.007-0.944-1.059-2.526-0.115-3.533c0.944-1.008,2.527-1.06,3.534-0.115l10.357,9.704c5.703,5.342,8.974,12.888,8.974,20.702
					v53.115C48.703,254.169,47.584,255.288,46.203,255.288z"/>
			</g>
		</g>
		<g>
			<g>
				<path d="M86.488,255.29c-0.942,0-1.845-0.536-2.268-1.446l-17.818-38.31c-0.884-1.901-0.918-4.097-0.093-6.025l3.963-9.245
					l-8.656-1.998c-1.983-0.458-3.368-2.199-3.368-4.233V154.5c0-1.381,1.119-2.5,2.5-2.5s2.5,1.119,2.5,2.5v39.012l8.912,2.057
					c1.258,0.29,2.314,1.117,2.898,2.269c0.583,1.15,0.626,2.491,0.118,3.677l-4.271,9.964c-0.267,0.623-0.256,1.333,0.03,1.947
					l17.818,38.31c0.583,1.252,0.04,2.739-1.212,3.321C87.2,255.215,86.841,255.29,86.488,255.29z"/>
			</g>
		</g>
		<g>
			<g>
				<path d="M109.101,255.09c-0.353,0-0.712-0.075-1.053-0.234c-1.252-0.582-1.795-2.069-1.212-3.321l17.725-38.109
					c0.286-0.614,0.296-1.323,0.029-1.945l-4.271-9.967c-0.509-1.186-0.465-2.526,0.119-3.678s1.641-1.978,2.899-2.268l8.911-2.057
					v-32.636c0-1.381,1.119-2.5,2.5-2.5s2.5,1.119,2.5,2.5v33.157c0,2.034-1.385,3.775-3.368,4.233l-8.656,1.998l3.962,9.246
					c0.826,1.926,0.793,4.122-0.092,6.024l-17.725,38.109C110.945,254.554,110.043,255.09,109.101,255.09z"/>
			</g>
		</g>
		<g>
			<g>
				<path d="M83.729,177.391c-0.044,0-0.088,0-0.132-0.002c-1.379-0.038-2.674-0.67-3.552-1.733l-6.208-7.517
					c-0.879-1.064-0.729-2.64,0.335-3.52c1.065-0.88,2.641-0.729,3.52,0.336l6.048,7.321l7.744-8.39L76.465,148.1l-4.254,3.884
					c-1.019,0.931-2.601,0.859-3.532-0.161c-0.931-1.02-0.859-2.601,0.161-3.532l4.708-4.298c1.743-1.592,4.487-1.495,6.116,0.215
					l15.688,16.492c1.673,1.759,1.693,4.533,0.047,6.317l-8.158,8.837C86.334,176.835,85.062,177.391,83.729,177.391z"/>
			</g>
		</g>
		<g>
			<g>
				<path d="M111.766,177.391c-1.332,0-2.604-0.555-3.511-1.536l-8.157-8.838c-1.646-1.784-1.626-4.559,0.047-6.317l15.687-16.491
					c1.63-1.713,4.374-1.808,6.117-0.215l4.745,4.332c1.02,0.932,1.092,2.513,0.161,3.532c-0.931,1.021-2.512,1.092-3.532,0.161
					l-4.292-3.919l-15.018,15.787l7.744,8.39l6.007-7.271c0.879-1.064,2.455-1.215,3.52-0.336c1.064,0.88,1.214,2.455,0.335,3.52
					l-6.167,7.466c-0.878,1.063-2.173,1.695-3.552,1.734C111.854,177.391,111.81,177.391,111.766,177.391z"/>
			</g>
		</g>
		<g>
			<g>
				<path d="M107.329,217.796c-1.263,0-2.347-0.953-2.483-2.237l-4.505-42.572c-0.145-1.373,0.85-2.604,2.223-2.749
					c1.377-0.129,2.604,0.85,2.75,2.224l4.505,42.572c0.145,1.373-0.85,2.604-2.223,2.749
					C107.505,217.791,107.417,217.796,107.329,217.796z"/>
			</g>
		</g>
		<g>
			<g>
				<path d="M88.183,217.646c-0.088,0-0.177-0.005-0.266-0.014c-1.373-0.146-2.368-1.376-2.223-2.749l4.501-42.543
					c0.146-1.374,1.38-2.352,2.75-2.224c1.373,0.146,2.368,1.376,2.223,2.749l-4.501,42.543
					C90.53,216.692,89.446,217.646,88.183,217.646z"/>
			</g>
		</g>
		<g>
			<g>
				<g>
					<path d="M97.748,176.081c-3.617,0-7.028-1.592-9.36-4.368c-0.888-1.058-0.751-2.635,0.306-3.522s2.635-0.75,3.522,0.306
						c1.38,1.643,3.396,2.585,5.532,2.585c2.141,0,4.162-0.946,5.542-2.597c0.886-1.06,2.462-1.199,3.522-0.313
						c1.059,0.886,1.199,2.463,0.313,3.521C104.791,174.481,101.373,176.081,97.748,176.081z"/>
				</g>
			</g>
		</g>
		<g>
			<g>
				<path class="st7" d="M45.709,117.33c-4.498-0.838-8.043-4.31-8.898-8.716c-0.043-0.221-0.352-0.221-0.395,0
					c-0.855,4.406-4.4,7.879-8.898,8.716c-0.226,0.042-0.226,0.345,0,0.387c4.498,0.838,8.043,4.31,8.898,8.717
					c0.043,0.221,0.352,0.221,0.395,0c0.855-4.406,4.4-7.879,8.898-8.717C45.935,117.675,45.935,117.373,45.709,117.33z"/>
			</g>
		</g>
		<g>
			<g>
				<path class="st8" d="M180.402,83.101c-2.862-0.533-5.118-2.743-5.663-5.547c-0.027-0.141-0.224-0.141-0.251,0
					c-0.544,2.804-2.8,5.014-5.663,5.547c-0.144,0.027-0.144,0.219,0,0.246c2.862,0.533,5.118,2.743,5.663,5.547
					c0.027,0.141,0.224,0.141,0.251,0c0.544-2.804,2.8-5.014,5.663-5.547C180.546,83.32,180.546,83.128,180.402,83.101z"/>
			</g>
		</g>
		<g>
			<g>
				<path class="st6" d="M153.134,14.75h2.33v-2.33c0-1.744,1.413-3.157,3.157-3.157c1.744,0,3.157,1.413,3.157,3.157v2.33h2.329
					c1.744,0,3.157,1.413,3.157,3.157s-1.413,3.157-3.157,3.157h-2.329v2.33c0,1.744-1.413,3.157-3.157,3.157
					c-1.744,0-3.157-1.413-3.157-3.157v-2.33h-2.33c-1.744,0-3.157-1.413-3.157-3.157S151.39,14.75,153.134,14.75z"/>
			</g>
		</g>
		<g>
			<g>
				<circle class="st9" cx="25.642" cy="148.825" r="3.377"/>
			</g>
		</g>
		<g>
			<g>
				<circle class="st7" cx="135.642" cy="3.377" r="3.377"/>
			</g>
		</g>
		<g>
			<g>
				<circle class="st8" cx="193.368" cy="227.825" r="3.377"/>
			</g>
		</g>
		<g>
			<g>
				<path class="st10" d="M131.431,145.343h5.977c1.126,0,2.117-0.75,2.412-1.837c0.801-2.958,1.975-5.761,3.468-8.359
					c0.562-0.979,0.394-2.21-0.404-3.008l-4.231-4.231c-1.001-1.002-1.001-2.625,0-3.627l6.937-6.936
					c1.001-1.001,2.625-1.001,3.627,0l4.231,4.23c0.798,0.798,2.03,0.966,3.008,0.404c2.598-1.493,5.402-2.667,8.36-3.468
					c1.087-0.295,1.837-1.286,1.837-2.412v-5.978c0-1.416,1.148-2.564,2.564-2.564h9.81c1.416,0,2.564,1.148,2.564,2.564v5.978
					c0,1.126,0.75,2.117,1.837,2.412c2.958,0.801,5.762,1.975,8.36,3.468c0.978,0.562,2.211,0.394,3.008-0.404l4.231-4.23
					c1.002-1.001,2.625-1.001,3.627,0l6.937,6.936c1.002,1.002,1.002,2.626,0,3.627l-4.231,4.231
					c-0.798,0.798-0.966,2.03-0.404,3.008c1.493,2.598,2.667,5.402,3.468,8.359c0.294,1.087,1.286,1.837,2.412,1.837h5.977
					c1.416,0,2.564,1.148,2.564,2.564v9.81c0,1.417-1.148,2.564-2.564,2.564h-4.22c-0.067-0.009-0.133-0.021-0.203-0.021h-6.057
					c-0.874,0-1.583,0.708-1.583,1.583v3.69c0,0.695-0.463,1.308-1.134,1.489c-1.826,0.495-3.557,1.219-5.161,2.141
					c-0.604,0.347-1.365,0.243-1.857-0.25l-2.612-2.612c-0.119-0.119-0.256-0.208-0.398-0.282c2.561-3.766,4.058-8.313,4.058-13.209
					c0-12.991-10.531-23.523-23.523-23.523S150.6,139.821,150.6,152.813s10.531,23.522,23.523,23.522
					c4.824,0,9.307-1.454,13.04-3.945c0.075,0.157,0.172,0.306,0.301,0.436l2.612,2.613c0.493,0.493,0.597,1.253,0.25,1.857
					c-0.922,1.604-1.647,3.335-2.141,5.162c-0.182,0.671-0.794,1.134-1.489,1.134h-3.691c-0.874,0-1.583,0.708-1.583,1.583
					c0,3.444,0,6.586,0,10.33c0,1.416-0.977,2.564-2.394,2.564h-9.81c-1.416,0-2.564-1.148-2.564-2.564v-5.978
					c0-1.126-0.75-2.117-1.837-2.412c-2.958-0.801-5.762-1.976-8.36-3.468c-0.978-0.562-2.211-0.394-3.008,0.405l-4.231,4.23
					c-1.001,1.001-2.625,1.001-3.627,0l-6.937-6.937c-1.002-1.001-1.002-2.625,0-3.627l4.231-4.231
					c0.798-0.798,0.966-2.03,0.404-3.008c-1.493-2.598-2.667-5.402-3.468-8.359c-0.294-1.087-1.286-1.837-2.412-1.837h-5.977
					c-1.416,0-2.564-1.148-2.564-2.564v-9.81C128.867,146.491,130.015,145.343,131.431,145.343z"/>
			</g>
		</g>
		<g>
			<g>
				<path class="st7" d="M174.123,176.335c-12.991,0-23.523-10.531-23.523-23.522s10.531-23.523,23.523-23.523
					s23.523,10.532,23.523,23.523c0,4.897-1.498,9.444-4.058,13.209c-0.596-0.306-1.342-0.217-1.841,0.282l-4.283,4.282
					c-0.489,0.489-0.585,1.215-0.301,1.804C183.43,174.881,178.947,176.335,174.123,176.335z"/>
			</g>
		</g>
		<g>
			<g>
				<path class="st6" d="M235.721,183.591h-3.691c-0.695,0-1.307-0.463-1.489-1.134c-0.495-1.826-1.22-3.557-2.141-5.162
					c-0.347-0.604-0.243-1.364,0.25-1.857l2.612-2.613c0.618-0.618,0.618-1.621,0-2.239l-4.283-4.282
					c-0.618-0.618-1.621-0.618-2.239,0l-2.612,2.612c-0.493,0.493-1.253,0.597-1.857,0.25c-1.604-0.922-3.335-1.646-5.161-2.141
					c-0.671-0.182-1.134-0.794-1.134-1.489v-3.69c0-0.875-0.709-1.583-1.583-1.583h-6.057c-0.874,0-1.583,0.708-1.583,1.583v3.69
					c0,0.695-0.463,1.308-1.134,1.489c-1.826,0.495-3.557,1.219-5.161,2.141c-0.604,0.347-1.365,0.243-1.857-0.25l-2.612-2.612
					c-0.618-0.618-1.621-0.618-2.239,0l-4.283,4.282c-0.618,0.619-0.618,1.621,0,2.239l2.612,2.613
					c0.493,0.493,0.597,1.253,0.25,1.857c-0.922,1.604-1.647,3.335-2.141,5.162c-0.182,0.671-0.794,1.134-1.489,1.134h-3.691
					c-0.874,0-1.583,0.708-1.583,1.583v6.057c0,0.875,0.709,1.583,1.583,1.583h3.691c0.695,0,1.307,0.463,1.489,1.134
					c0.495,1.826,1.22,3.557,2.141,5.161c0.347,0.604,0.243,1.365-0.25,1.857l-2.612,2.612c-0.618,0.618-0.618,1.621,0,2.239
					l4.283,4.283c0.618,0.618,1.621,0.618,2.239,0l2.612-2.612c0.493-0.493,1.253-0.597,1.857-0.25
					c1.604,0.921,3.335,1.646,5.161,2.141c0.671,0.182,1.134,0.794,1.134,1.489v3.69c0,0.875,0.709,1.583,1.583,1.583h6.057
					c0.875,0,1.583-0.709,1.583-1.583v-3.69c0-0.695,0.463-1.307,1.134-1.489c1.826-0.495,3.557-1.22,5.161-2.141
					c0.604-0.347,1.365-0.243,1.857,0.25l2.612,2.612c0.618,0.618,1.621,0.618,2.239,0l4.283-4.283c0.618-0.618,0.618-1.621,0-2.239
					l-2.612-2.612c-0.493-0.493-0.597-1.253-0.25-1.857c0.922-1.604,1.647-3.335,2.141-5.161c0.182-0.671,0.794-1.134,1.489-1.134
					h3.691c0.874,0,1.583-0.709,1.583-1.583v-6.057C237.304,184.299,236.595,183.591,235.721,183.591z"/>
			</g>
		</g>
		<g>
			<g>
				<path class="st18" d="M209.363,200.534c-6.81,0-12.331-5.521-12.331-12.332s5.521-12.331,12.331-12.331
					s12.331,5.521,12.331,12.331S216.173,200.534,209.363,200.534z"/>
			</g>
		</g>
		<g>
			<g>
				<circle class="st3" cx="174.123" cy="146" r="8.5"/>
			</g>
		</g>
		<g>
			<g>
				<path class="st0" d="M166.152,155.5h15.942c4.691,0,8.529,3.838,8.529,8.529v3.398l-3.159,3.159
					c-0.488,0.489-0.585,1.214-0.302,1.803c-3.732,2.492-8.215,3.946-13.039,3.946c-6.43,0-12.254-2.582-16.5-6.763v-5.543
					C157.623,159.338,161.461,155.5,166.152,155.5z"/>
			</g>
		</g>
		<g>
			<g>
				<path d="M212.391,218.644h-6.057c-2.251,0-4.083-1.832-4.083-4.083v-2.972c-1.518-0.462-2.99-1.073-4.395-1.823l-2.103,2.104
					c-1.593,1.589-4.181,1.591-5.773,0.002l-4.284-4.285c-1.593-1.592-1.593-4.183,0-5.774l2.103-2.104
					c-0.751-1.405-1.361-2.877-1.822-4.394h-2.972c-2.251,0-4.083-1.832-4.083-4.084v-6.057c0-2.251,1.832-4.083,4.083-4.083h2.972
					c0.461-1.517,1.071-2.989,1.822-4.395l-2.103-2.104c-1.591-1.591-1.592-4.181-0.002-5.773l4.285-4.283
					c0.771-0.771,1.796-1.196,2.887-1.196s2.116,0.425,2.887,1.196l2.104,2.103c1.402-0.75,2.875-1.361,4.395-1.823v-2.972
					c0-2.251,1.832-4.082,4.083-4.082h6.057c2.252,0,4.084,1.831,4.084,4.082v2.972c1.521,0.462,2.992,1.073,4.395,1.823
					l2.103-2.103c1.595-1.593,4.186-1.591,5.774,0l4.283,4.282c1.592,1.594,1.591,4.184,0,5.774l-2.104,2.104
					c0.75,1.402,1.361,2.875,1.823,4.395h2.972c2.251,0,4.083,1.832,4.083,4.083v6.057c0,2.252-1.832,4.084-4.083,4.084h-2.972
					c-0.462,1.52-1.073,2.992-1.823,4.394l2.104,2.104c0.771,0.771,1.196,1.797,1.196,2.887c0,1.091-0.425,2.117-1.196,2.888
					l-4.283,4.283c-1.591,1.588-4.181,1.591-5.771,0.003l-2.106-2.106c-1.402,0.75-2.875,1.361-4.394,1.823v2.972
					C216.475,216.812,214.643,218.644,212.391,218.644z M207.251,213.644h4.224v-2.774c0-1.822,1.226-3.427,2.98-3.901
					c1.593-0.432,3.13-1.07,4.569-1.896c1.579-0.908,3.582-0.638,4.87,0.649l1.965,1.965l2.986-2.986l-1.964-1.965
					c-1.29-1.287-1.558-3.29-0.65-4.87c0.826-1.437,1.464-2.974,1.896-4.57c0.475-1.754,2.08-2.979,3.902-2.979h2.773v-4.224h-2.773
					c-1.822,0-3.427-1.226-3.902-2.979c-0.433-1.596-1.07-3.134-1.896-4.571c-0.906-1.578-0.639-3.581,0.65-4.87l1.964-1.964
					l-2.986-2.986l-1.965,1.964c-1.289,1.289-3.291,1.554-4.869,0.65c-1.438-0.827-2.975-1.465-4.571-1.897
					c-1.754-0.475-2.979-2.079-2.979-3.901v-2.773h-4.224v2.773c0,1.822-1.226,3.427-2.98,3.901c-1.595,0.433-3.133,1.07-4.57,1.896
					c-1.575,0.907-3.579,0.64-4.868-0.647l-1.966-1.966l-2.986,2.986l1.964,1.964c1.291,1.293,1.556,3.296,0.647,4.873
					c-0.825,1.438-1.463,2.976-1.894,4.567c-0.476,1.755-2.08,2.98-3.902,2.98h-2.773v4.224h2.773c1.822,0,3.428,1.226,3.902,2.98
					c0.431,1.593,1.068,3.13,1.896,4.569c0.907,1.576,0.642,3.58-0.649,4.87l-1.964,1.965l2.986,2.985l1.963-1.964
					c1.292-1.288,3.295-1.557,4.871-0.649c1.439,0.826,2.979,1.465,4.571,1.896c1.754,0.475,2.979,2.079,2.979,3.901V213.644z
					 M188.157,200.354c0.001,0.001,0.001,0.002,0.002,0.003C188.158,200.356,188.158,200.355,188.157,200.354z M235.721,186.091
					h0.01H235.721z M188.157,176.051c-0.001,0.001-0.001,0.002-0.002,0.002C188.156,176.053,188.156,176.052,188.157,176.051z"/>
			</g>
		</g>
		<g>
			<g>
				<path d="M179.027,200.568h-9.81c-2.793,0-5.064-2.271-5.064-5.064v-5.978c-3.112-0.844-6.125-2.094-8.942-3.713l-4.227,4.235
					c-1.975,1.976-5.187,1.974-7.161,0l-6.937-6.937c-0.957-0.957-1.484-2.229-1.484-3.581c0-1.354,0.527-2.626,1.485-3.582
					l4.229-4.23c-1.613-2.81-2.862-5.82-3.71-8.945l-5.976,0.008c-2.792,0-5.064-2.271-5.064-5.064v-9.81
					c0-2.793,2.272-5.064,5.064-5.064h5.978c0.846-3.117,2.095-6.129,3.713-8.942l-4.236-4.226
					c-1.974-1.976-1.974-5.188-0.001-7.162l6.938-6.937c0.955-0.957,2.228-1.484,3.581-1.484c1.353,0,2.625,0.527,3.581,1.485
					l4.23,4.229c2.811-1.614,5.823-2.863,8.947-3.709l-0.01-5.977c0-2.793,2.271-5.064,5.064-5.064h9.811
					c2.792,0,5.063,2.271,5.063,5.064v5.978c3.112,0.844,6.123,2.094,8.942,3.712l4.227-4.234c1.975-1.973,5.188-1.974,7.161-0.001
					l6.938,6.938c0.957,0.957,1.484,2.229,1.484,3.581c0,1.354-0.527,2.626-1.485,3.582l-4.229,4.23
					c1.614,2.814,2.864,5.825,3.709,8.946l5.977-0.009c2.793,0,5.064,2.271,5.064,5.064v9.81c0,2.793-2.271,5.064-5.064,5.064
					h-4.221c-1.381,0-2.5-1.119-2.5-2.5s1.119-2.5,2.5-2.5h4.221l0.064-9.874l-6.042-0.064c-2.255,0-4.239-1.516-4.825-3.686
					c-0.733-2.706-1.817-5.319-3.223-7.767c-1.121-1.951-0.79-4.428,0.806-6.021l4.229-4.23l-6.937-7.028l-4.322,4.23
					c-1.595,1.595-4.07,1.926-6.022,0.804c-2.446-1.404-5.06-2.488-7.767-3.222c-2.17-0.588-3.685-2.572-3.685-4.825v-5.978
					l-9.874-0.064l-0.064,6.042c0,2.253-1.515,4.236-3.683,4.825c-2.711,0.733-5.325,1.818-7.77,3.223
					c-1.949,1.118-4.426,0.79-6.021-0.805l-4.231-4.23l-7.028,6.936l4.231,4.323c1.594,1.594,1.925,4.069,0.805,6.021
					c-1.404,2.443-2.488,5.057-3.224,7.77c-0.586,2.168-2.57,3.683-4.824,3.683h-5.978l-0.064,9.874l6.042,0.064
					c2.254,0,4.238,1.516,4.824,3.686c0.735,2.71,1.819,5.323,3.224,7.767c1.12,1.952,0.789,4.427-0.805,6.021l-4.23,4.231
					l6.937,7.028l4.322-4.23c1.594-1.595,4.069-1.927,6.021-0.806c2.446,1.406,5.061,2.49,7.769,3.224
					c2.169,0.589,3.684,2.572,3.684,4.825v5.978l9.765,0.063c0.002-0.018,0.004-0.039,0.004-0.063v-4.019c0-1.381,1.119-2.5,2.5-2.5
					s2.5,1.119,2.5,2.5v4.019C183.922,198.344,181.771,200.568,179.027,200.568z"/>
			</g>
		</g>
		<g>
			<g>
				<path d="M174.123,178.835c-14.35,0-26.023-11.674-26.023-26.022c0-14.35,11.674-26.023,26.023-26.023
					c14.349,0.001,26.022,11.675,26.022,26.023c0,5.24-1.553,10.295-4.491,14.615c-0.776,1.144-2.334,1.438-3.473,0.662
					c-1.143-0.776-1.438-2.331-0.662-3.473c2.372-3.489,3.626-7.57,3.626-11.805c0-11.592-9.431-21.022-21.022-21.023
					c-11.593,0-21.023,9.431-21.023,21.023c0,11.592,9.431,21.022,21.023,21.022c4.168,0,8.196-1.219,11.651-3.524
					c1.145-0.767,2.7-0.457,3.467,0.691s0.457,2.7-0.691,3.467C184.271,177.325,179.282,178.835,174.123,178.835z"/>
			</g>
		</g>
		<g>
			<g>
				<path d="M209.362,203.033c-8.178,0-14.831-6.653-14.831-14.831s6.653-14.831,14.831-14.831c8.179,0,14.832,6.653,14.832,14.831
					S217.541,203.033,209.362,203.033z M209.362,178.371c-5.421,0-9.831,4.41-9.831,9.831s4.41,9.831,9.831,9.831
					c5.422,0,9.832-4.41,9.832-9.831S214.784,178.371,209.362,178.371z"/>
			</g>
		</g>
		<g>
			<g>
				<path d="M174.123,157c-6.065,0-11-4.935-11-11s4.935-11,11-11s11,4.935,11,11S180.188,157,174.123,157z M174.123,140
					c-3.309,0-6,2.691-6,6s2.691,6,6,6s6-2.691,6-6S177.432,140,174.123,140z"/>
			</g>
		</g>
		<g>
			<g>
				<path d="M157.623,171.292c-1.381,0-2.5-1.119-2.5-2.5v-4.763c0-6.082,4.947-11.029,11.028-11.029h15.942
					c6.082,0,11.029,4.947,11.029,11.029v2.939c0,1.381-1.119,2.5-2.5,2.5s-2.5-1.119-2.5-2.5v-2.939
					c0-3.324-2.705-6.029-6.029-6.029h-15.942c-3.324,0-6.028,2.705-6.028,6.029v4.763
					C160.123,170.173,159.004,171.292,157.623,171.292z"/>
			</g>
		</g>
	</g>
</g>
<g id="Layer_74">
</g>
<g id="Layer_75">
</g>
<g id="Layer_76">
</g>
<g id="Layer_77">
</g>
<g id="Layer_78">
</g>
<g id="Layer_79">
</g>
<g id="Layer_80">
</g>
</svg>
