<?xml version="1.0" encoding="utf-8"?>
<!-- Generator: Adobe Illustrator 24.0.0, SVG Export Plug-In . SVG Version: 6.00 Build 0)  -->
<svg version="1.1" xmlns="http://www.w3.org/2000/svg" xmlns:xlink="http://www.w3.org/1999/xlink" x="0px" y="0px"
	 viewBox="0 0 256 256" style="enable-background:new 0 0 256 256;" xml:space="preserve">
<style type="text/css">
	.st0{fill:#3A70BF;}
	.st1{fill:#EDF4FC;}
	.st2{fill:#C7D7E5;}
	.st3{fill:#F9D0B4;}
	.st4{fill:#5B5D60;}
	.st5{fill:#5290DB;}
	.st6{fill:#70D6F9;}
	.st7{fill:#F5C84C;}
	.st8{fill:#FC657E;}
	.st9{fill:#87D147;}
	.st10{fill:#FCDD86;}
	.st11{fill:#9BE5F9;}
	.st12{fill:#B2E26D;}
	.st13{fill:#754E34;}
	.st14{fill:#FCA265;}
	.st15{fill:#818182;}
	.st16{fill:#F94EED;}
	.st17{fill:#FFC197;}
	.st18{fill:#3CAADC;}
	.st19{fill:#DAE6F1;}
	.st20{fill:#57AF12;}
	.st21{fill:#EF4460;}
	.st22{fill:#FFF0CA;}
	.st23{fill:#F98FA6;}
	.st24{fill:#EDB311;}
	.st25{fill:#FC8C48;}
	.st26{fill:#FCB9CB;}
	.st27{fill:#96BC71;}
	.st28{fill:#78A352;}
	.st29{fill:#B8DD90;}
	.st30{fill:#6FAFEF;}
	.st31{fill:#29589F;}
	.st32{fill:#414344;}
	.st33{fill:#9B6B4B;}
	.st34{fill:#73B1EF;}
</style>
<g id="Layer_1">
</g>
<g id="Layer_2">
</g>
<g id="Layer_3">
</g>
<g id="Layer_4">
</g>
<g id="Layer_5">
</g>
<g id="Layer_6">
</g>
<g id="Layer_7">
</g>
<g id="Layer_8">
</g>
<g id="Layer_9">
</g>
<g id="Layer_10">
</g>
<g id="Layer_11">
</g>
<g id="Layer_12">
</g>
<g id="Layer_13">
</g>
<g id="Layer_14">
</g>
<g id="Layer_15">
</g>
<g id="Layer_16">
</g>
<g id="Layer_17">
</g>
<g id="Layer_18">
</g>
<g id="Layer_19">
</g>
<g id="Layer_20">
</g>
<g id="Layer_21">
</g>
<g id="Layer_22">
</g>
<g id="Layer_23">
</g>
<g id="Layer_24">
</g>
<g id="Layer_25">
</g>
<g id="Layer_26">
</g>
<g id="Layer_27">
</g>
<g id="Layer_28">
</g>
<g id="Layer_29">
</g>
<g id="Layer_30">
</g>
<g id="Layer_31">
</g>
<g id="Layer_32">
</g>
<g id="Layer_33">
</g>
<g id="Layer_34">
</g>
<g id="Layer_35">
</g>
<g id="Layer_36">
</g>
<g id="Layer_37">
</g>
<g id="Layer_38">
</g>
<g id="Layer_39">
</g>
<g id="Layer_40">
</g>
<g id="Layer_41">
</g>
<g id="Layer_42">
</g>
<g id="Layer_43">
</g>
<g id="Layer_44">
</g>
<g id="Layer_45">
</g>
<g id="Layer_46">
</g>
<g id="Layer_47">
</g>
<g id="Layer_48">
</g>
<g id="Layer_49">
</g>
<g id="Layer_50">
</g>
<g id="Layer_51">
</g>
<g id="Layer_52">
</g>
<g id="Layer_53">
</g>
<g id="Layer_54">
</g>
<g id="Layer_55">
</g>
<g id="Layer_56">
</g>
<g id="Layer_57">
</g>
<g id="Layer_58">
</g>
<g id="Layer_59">
</g>
<g id="Layer_60">
</g>
<g id="Layer_61">
</g>
<g id="Layer_62">
</g>
<g id="Layer_63">
</g>
<g id="Layer_64">
</g>
<g id="Layer_65">
</g>
<g id="Layer_66">
</g>
<g id="Layer_67">
</g>
<g id="Layer_68">
</g>
<g id="Layer_69">
</g>
<g id="Layer_70">
</g>
<g id="Layer_71">
</g>
<g id="Layer_72">
</g>
<g id="Layer_73">
</g>
<g id="Layer_74">
	<g>
		<g>
			<g>
				<path class="st10" d="M129.82,145.343h5.977c1.126,0,2.117-0.75,2.412-1.837c0.801-2.958,1.975-5.761,3.468-8.359
					c0.562-0.979,0.394-2.21-0.404-3.008l-4.231-4.231c-1.001-1.002-1.001-2.625,0-3.627l6.937-6.936
					c1.001-1.001,2.625-1.001,3.627,0l4.231,4.23c0.798,0.798,2.03,0.966,3.008,0.404c2.598-1.493,5.402-2.667,8.36-3.468
					c1.087-0.295,1.837-1.286,1.837-2.412v-5.978c0-1.416,1.148-2.564,2.564-2.564h9.81c1.416,0,2.564,1.148,2.564,2.564v5.978
					c0,1.126,0.75,2.117,1.837,2.412c2.958,0.801,5.762,1.975,8.36,3.468c0.978,0.562,2.211,0.394,3.008-0.404l4.231-4.23
					c1.002-1.001,2.625-1.001,3.627,0l6.937,6.936c1.002,1.002,1.002,2.626,0,3.627l-4.231,4.231
					c-0.798,0.798-0.966,2.03-0.404,3.008c1.493,2.598,2.667,5.402,3.468,8.359c0.294,1.087,1.286,1.837,2.412,1.837h5.977
					c1.416,0,2.564,1.148,2.564,2.564v9.81c0,1.417-1.148,2.564-2.564,2.564h-4.22c-0.067-0.009-0.133-0.021-0.203-0.021h-6.057
					c-0.874,0-1.583,0.708-1.583,1.583v3.69c0,0.695-0.463,1.308-1.134,1.489c-1.826,0.495-3.557,1.219-5.161,2.141
					c-0.604,0.347-1.365,0.243-1.857-0.25l-2.612-2.612c-0.119-0.119-0.256-0.208-0.398-0.282c2.561-3.766,4.058-8.313,4.058-13.209
					c0-12.991-10.531-23.523-23.523-23.523s-23.523,10.532-23.523,23.523s10.531,23.522,23.523,23.522
					c4.824,0,9.307-1.454,13.04-3.945c0.075,0.157,0.172,0.306,0.301,0.436l2.612,2.613c0.493,0.493,0.597,1.253,0.25,1.857
					c-0.922,1.604-1.647,3.335-2.141,5.162c-0.182,0.671-0.794,1.134-1.489,1.134h-3.691c-0.874,0-1.583,0.708-1.583,1.583
					c0,3.444,0,6.586,0,10.33c0,1.416-0.977,2.564-2.394,2.564h-9.81c-1.416,0-2.564-1.148-2.564-2.564v-5.978
					c0-1.126-0.75-2.117-1.837-2.412c-2.958-0.801-5.762-1.976-8.36-3.468c-0.978-0.562-2.211-0.394-3.008,0.405l-4.231,4.23
					c-1.001,1.001-2.625,1.001-3.627,0l-6.937-6.937c-1.002-1.001-1.002-2.625,0-3.627l4.231-4.231
					c0.798-0.798,0.966-2.03,0.404-3.008c-1.493-2.598-2.667-5.402-3.468-8.359c-0.294-1.087-1.286-1.837-2.412-1.837h-5.977
					c-1.416,0-2.564-1.148-2.564-2.564v-9.81C127.256,146.491,128.404,145.343,129.82,145.343z"/>
			</g>
		</g>
		<g>
			<g>
				<path class="st3" d="M132.097,71.985c-0.759,0-1.502,0.064-2.229,0.177c0,3.696,0,20.799,0,26.293v0v0
					c0,0.783-0.036,1.558-0.088,2.329c0.756,0.122,1.526,0.202,2.316,0.202c8.009,0,14.501-6.492,14.501-14.501
					C146.597,78.477,140.105,71.985,132.097,71.985z"/>
			</g>
		</g>
		<g>
			<g>
				<path class="st3" d="M111.749,60.642c-5.29,6.174-24.047,24.906-51.344,17.13v20.684c0,19.102,15.629,34.732,34.732,34.732l0,0
					c19.102,0,34.732-15.629,34.732-34.732v-28.06c0-1.276-0.893-2.358-2.136-2.646c-3.515-0.814-7.782-2.85-12.673-7.294
					C114.091,59.577,112.599,59.649,111.749,60.642z"/>
			</g>
		</g>
		<g>
			<g>
				<path class="st3" d="M60.404,77.771c-2.385-0.679-4.834-1.559-7.346-2.668c-1.619-0.715-3.511-0.386-4.803,0.825
					c-2.817,2.641-4.581,6.39-4.581,10.557c0,8.008,6.492,14.501,14.501,14.501c0.79,0,1.56-0.08,2.316-0.202
					c-0.052-0.771-0.088-1.546-0.088-2.329V77.771z"/>
			</g>
		</g>
		<g>
			<g>
				<g>
					<path class="st4" d="M48.256,75.929c1.291-1.211,3.183-1.54,4.803-0.825c2.512,1.109,4.961,1.988,7.346,2.668
						c27.297,7.776,46.055-10.956,51.344-17.13c0.85-0.992,2.342-1.065,3.309-0.186c4.892,4.445,9.159,6.48,12.673,7.294
						c1.243,0.288,2.136,1.37,2.136,2.646v1.766c0.727-0.113,1.47-0.177,2.229-0.177c4.012,0,7.643,1.63,10.268,4.263v-8.494
						c0-25.976-21.253-47.229-47.229-47.229c-25.976,0-47.229,21.253-47.229,47.229v8.535
						C48.025,76.171,48.134,76.043,48.256,75.929z"/>
				</g>
			</g>
		</g>
		<g>
			<g>
				<g>
					<path class="st19" d="M167.606,198.068c-1.416,0-2.564-1.148-2.564-2.564v-5.978c0-1.126-0.75-2.117-1.837-2.412
						c-2.958-0.801-5.762-1.976-8.36-3.468c-0.978-0.562-2.211-0.394-3.009,0.405l-4.231,4.23c-1.001,1.001-2.625,1.001-3.627,0
						l-6.937-6.937c-1.001-1.001-1.001-2.625,0-3.627l4.231-4.231c0.798-0.798,0.966-2.03,0.404-3.008
						c-1.493-2.598-2.667-5.402-3.468-8.359c-0.294-1.087-1.286-1.837-2.412-1.837h-5.977c-1.416,0-2.564-1.148-2.564-2.564v-4.573
						c-0.549-0.231-1.092-0.475-1.627-0.738l-8.587-4.234c-3.298-1.626-5.386-4.983-5.386-8.66v-10.533
						c-4.92,2.682-10.551,4.208-16.52,4.208c-5.97,0-11.6-1.526-16.52-4.208v10.533c0,3.677-2.088,7.034-5.386,8.66l-8.587,4.234
						c-1.919,0.946-3.933,1.687-6.009,2.209l-24.833,6.269c-6.044,1.521-10.396,6.796-10.743,13.019l-2.744,75.418
						c-0.127,2.269,1.68,4.179,3.953,4.179h21.99c1.478,0,2.677-1.198,2.677-2.677v-47.143l3.883,12.438
						c2.539,8.133,3.83,16.604,3.83,25.125v9.58c0,1.479,1.198,2.677,2.677,2.677h30.345h10.936h30.345
						c1.478,0,2.677-1.198,2.677-2.677v-9.58c0-8.521,1.291-16.991,3.83-25.125l3.883-12.438v47.143
						c0,1.479,1.198,2.677,2.677,2.677h21.99c2.273,0,4.079-1.91,3.953-4.179l-1.865-51.252H167.606z"/>
				</g>
			</g>
		</g>
		<g>
			<g>
				<path class="st13" d="M167.606,198.068c-1.416,0-2.564-1.148-2.564-2.564v-5.978c0-1.126-0.75-2.117-1.837-2.412
					c-2.958-0.801-5.762-1.976-8.36-3.468c-0.978-0.562-2.211-0.394-3.009,0.405l-4.231,4.23c-1.001,1.001-2.625,1.001-3.627,0
					l-6.937-6.937c-1.001-1.001-1.001-2.625,0-3.627l4.231-4.231c0.798-0.798,0.966-2.03,0.404-3.008
					c-1.493-2.598-2.667-5.402-3.468-8.359c-0.294-1.087-1.286-1.837-2.412-1.837h-5.977c-1.416,0-2.564-1.148-2.564-2.564v-4.573
					c-0.549-0.231-1.092-0.475-1.627-0.738l-8.587-4.234c-0.274-0.135-0.526-0.298-0.782-0.457l-20.446,79.733
					c-0.449,1.75-0.677,3.577-0.677,5.415V253.5h5.468h30.345c1.478,0,2.677-1.198,2.677-2.677v-9.58
					c0-8.521,1.291-16.991,3.83-25.125l3.883-12.438v47.143c0,1.479,1.198,2.677,2.677,2.677h21.99c2.273,0,4.079-1.91,3.953-4.179
					l-1.865-51.252H167.606z"/>
			</g>
		</g>
		<g>
			<g>
				<path class="st33" d="M130.87,160.282h-1.051c-1.416,0-2.564-1.148-2.564-2.564v-4.587c-0.547-0.23-1.094-0.461-1.627-0.724
					l-8.587-4.234c-0.274-0.135-0.526-0.298-0.782-0.457l-20.446,79.733c-0.325,1.267-0.53,2.575-0.621,3.896l31.937-39.785
					c0.578-0.72,0.706-1.828,0.315-2.722l-4.727-10.796c-0.529-1.207-0.092-2.719,0.933-3.229l7.31-3.643
					c0.813-0.405,1.285-1.468,1.128-2.542L130.87,160.282z"/>
			</g>
		</g>
		<g>
			<g>
				<path class="st13" d="M74.012,147.715c-0.256,0.158-0.508,0.322-0.782,0.457l-8.587,4.234c-1.919,0.946-3.933,1.687-6.009,2.209
					l-24.833,6.269c-6.044,1.521-10.396,6.796-10.743,13.019l-2.744,75.418c-0.127,2.269,1.68,4.179,3.953,4.179h21.99
					c1.478,0,2.677-1.198,2.677-2.677v-47.143l3.883,12.439c2.539,8.133,3.83,16.604,3.83,25.124v9.58
					c0,1.478,1.198,2.677,2.677,2.677h30.345h5.468v-20.636c0-1.838-0.229-3.664-0.677-5.415L74.012,147.715z"/>
			</g>
		</g>
		<g>
			<g>
				<path class="st33" d="M94.459,227.449l-20.446-79.733c-0.256,0.158-0.508,0.322-0.782,0.457l-8.587,4.234
					c-1.402,0.691-2.856,1.27-4.346,1.737l-2.114,14.487c-0.157,1.074,0.315,2.136,1.128,2.541l7.31,3.643
					c1.025,0.511,1.462,2.022,0.933,3.23l-4.727,10.796c-0.391,0.894-0.263,2.002,0.315,2.722l31.937,39.785
					C94.989,230.023,94.784,228.716,94.459,227.449z"/>
			</g>
		</g>
		<g>
			<g>
				<path class="st4" d="M127.255,147.908c0-1.417,1.148-2.564,2.564-2.564h5.977c1.126,0,2.118-0.75,2.412-1.837
					c0.801-2.958,1.975-5.761,3.468-8.359c0.562-0.979,0.394-2.21-0.404-3.008l-4.231-4.231c-1.001-1.002-1.001-2.625,0-3.627
					l6.937-6.936c0.509-0.509,1.179-0.756,1.846-0.748c3.818-8.995,1.097-17.384-1.466-22.395
					c-2.568,4.072-7.093,6.786-12.263,6.786c-0.79,0-1.56-0.081-2.316-0.202c-0.816,12.152-7.945,22.646-18.124,28.194v10.533
					c0,3.372,1.769,6.458,4.604,8.204c1.136,0.7-0.306-0.122,9.369,4.691c0.495,0.244,1.056,0.49,1.627,0.729V147.908z"/>
			</g>
		</g>
		<g>
			<g>
				<path class="st4" d="M46.703,124.533c-1.971,3.678-5.097,11.894,0.259,20.374c2.921,4.625,7.43,7.595,12.542,9.466
					c0.265-0.075,0.531-0.147,0.794-0.229l0,0c1.325-0.415,3.044-1.095,4.346-1.737c10.303-5.125,8.318-4.043,9.369-4.691l0,0
					c2.834-1.746,4.604-4.832,4.604-8.204v-10.533c-10.179-5.548-17.309-16.042-18.124-28.194c-0.756,0.122-1.526,0.202-2.316,0.202
					c-5.17,0-9.695-2.714-12.262-6.786c-2.926,5.721-6.06,15.851,0.574,26.254C47.276,121.692,47.395,123.241,46.703,124.533z"/>
			</g>
		</g>
		<g>
			<g>
				<g>
					<path class="st3" d="M116.26,147.715c-2.834-1.746-4.604-4.832-4.604-8.204v-10.533c-4.92,2.682-10.551,4.208-16.52,4.208
						c-5.97,0-11.6-1.526-16.52-4.208v10.533c0,3.372-1.769,6.458-4.604,8.204l1.447,5.641c5.376,4.403,12.228,7.062,19.677,7.062
						c7.449,0,14.302-2.659,19.677-7.063L116.26,147.715z"/>
				</g>
			</g>
		</g>
		<g>
			<g>
				<g>
					<path class="st1" d="M108.723,174.613c0.166,0.16,0.349,0.293,0.53,0.429l5.559-21.677c-4.838,3.958-10.874,6.497-17.461,6.965
						C100.724,166.372,105.564,171.566,108.723,174.613z"/>
				</g>
			</g>
		</g>
		<g>
			<g>
				<g>
					<path class="st1" d="M81.02,175.042c0.181-0.136,0.364-0.269,0.53-0.429c3.159-3.047,7.999-8.241,11.373-14.283
						c-6.587-0.469-12.623-3.008-17.461-6.965L81.02,175.042z"/>
				</g>
			</g>
		</g>
		<g>
			<g>
				<path d="M132.097,103.486c-0.574,0-1.148-0.033-1.756-0.102c-1.372-0.154-2.358-1.393-2.204-2.765
					c0.154-1.371,1.389-2.352,2.765-2.204c0.419,0.047,0.811,0.07,1.195,0.07c6.617,0,12.001-5.383,12.001-12
					s-5.384-12.001-12.001-12.001c-0.408,0-0.824,0.022-1.237,0.067c-1.384,0.14-2.606-0.843-2.755-2.216
					c-0.149-1.373,0.843-2.606,2.216-2.755c0.591-0.064,1.188-0.097,1.776-0.097c9.374,0,17.001,7.627,17.001,17.001
					S141.471,103.486,132.097,103.486z"/>
			</g>
		</g>
		<g>
			<g>
				<path d="M95.136,135.687c-20.529,0-37.231-16.702-37.231-37.231V77.771c0-0.784,0.368-1.522,0.994-1.995s1.44-0.625,2.19-0.409
					c25.92,7.383,43.876-10.649,48.762-16.353l0,0c0.85-0.991,2.034-1.581,3.335-1.662c1.289-0.085,2.59,0.375,3.555,1.254
					c3.951,3.59,7.839,5.847,11.556,6.708c2.397,0.556,4.072,2.646,4.072,5.081v28.06
					C132.368,118.984,115.666,135.687,95.136,135.687z M62.904,80.979v17.477c0,17.772,14.459,32.231,32.231,32.231
					c17.773,0,32.232-14.459,32.232-32.231v-28.06c0-0.113-0.101-0.187-0.201-0.21c-4.514-1.046-9.108-3.656-13.656-7.759
					C108.153,68.626,89.717,86.862,62.904,80.979z"/>
			</g>
		</g>
		<g>
			<g>
				<path d="M58.176,103.486c-9.374,0-17.001-7.626-17.001-17c0-4.668,1.958-9.181,5.371-12.382c2.03-1.902,4.983-2.409,7.522-1.288
					c2.328,1.028,4.69,1.887,7.021,2.551c1.327,0.379,2.097,1.762,1.719,3.09c-0.379,1.327-1.759,2.098-3.09,1.719
					c-2.552-0.728-5.133-1.665-7.67-2.785c-0.702-0.311-1.518-0.167-2.083,0.361c-2.444,2.293-3.791,5.395-3.791,8.734
					c0,6.617,5.384,12,12.001,12c0.448,0,0.919-0.032,1.44-0.1c1.368-0.177,2.622,0.791,2.799,2.16
					c0.176,1.37-0.791,2.623-2.16,2.799C59.519,103.44,58.839,103.486,58.176,103.486z"/>
			</g>
		</g>
		<g>
			<g>
				<g>
					<path d="M47.907,78.359c-1.381,0-2.5-1.119-2.5-2.5v-8.104c0-27.42,22.309-49.729,49.729-49.729
						c27.421,0,49.729,22.309,49.729,49.729v7.828c0,1.381-1.119,2.5-2.5,2.5s-2.5-1.119-2.5-2.5v-7.828
						c0-24.663-20.065-44.729-44.729-44.729c-24.663,0-44.729,20.065-44.729,44.729v8.104C50.407,77.24,49.288,78.359,47.907,78.359
						z"/>
				</g>
			</g>
		</g>
		<g>
			<g>
				<g>
					<path d="M126.908,155.497c-0.331,0-0.668-0.066-0.99-0.206c-0.471-0.203-0.936-0.416-1.395-0.643l-8.587-4.234
						c-4.183-2.062-6.78-6.239-6.78-10.902v-9.698c0-1.381,1.119-2.5,2.5-2.5s2.5,1.119,2.5,2.5v9.698
						c0,2.745,1.529,5.204,3.991,6.418l8.587,4.234c0.385,0.189,0.773,0.367,1.166,0.537c1.268,0.548,1.852,2.02,1.304,3.286
						C128.796,154.932,127.875,155.497,126.908,155.497z"/>
				</g>
			</g>
			<g>
				<g>
					<path d="M166.006,256h-21.99c-2.854,0-5.177-2.322-5.177-5.177v-30.475c-1.801,6.817-2.713,13.83-2.713,20.896v9.579
						c0,2.854-2.322,5.177-5.177,5.177H59.323c-2.854,0-5.177-2.322-5.177-5.177v-9.579c0-7.065-0.911-14.078-2.713-20.896v30.475
						c0,2.854-2.322,5.177-5.177,5.177h-21.99c-1.768,0-3.478-0.736-4.692-2.021c-1.215-1.284-1.854-3.033-1.756-4.798l2.742-75.369
						c0.412-7.403,5.487-13.554,12.631-15.353l24.831-6.268c1.904-0.479,3.76-1.161,5.516-2.027l8.587-4.234
						c2.462-1.214,3.991-3.673,3.991-6.418V129.47c0-1.381,1.119-2.5,2.5-2.5s2.5,1.119,2.5,2.5v10.042
						c0,4.663-2.598,8.841-6.78,10.902l-8.587,4.234c-2.071,1.021-4.26,1.826-6.504,2.392l-24.831,6.268
						c-5.013,1.262-8.572,5.575-8.859,10.733l-2.742,75.37c-0.032,0.595,0.233,0.962,0.395,1.133c0.161,0.17,0.514,0.456,1.06,0.456
						h21.99c0.098,0,0.177-0.079,0.177-0.177v-47.143c0-1.235,0.902-2.285,2.123-2.472c1.22-0.188,2.395,0.547,2.764,1.727
						l3.883,12.438c2.616,8.386,3.943,17.089,3.943,25.87v9.579c0,0.098,0.079,0.177,0.177,0.177h71.626
						c0.098,0,0.177-0.079,0.177-0.177v-9.579c0-8.781,1.327-17.484,3.943-25.87l3.883-12.438c0.368-1.179,1.547-1.916,2.764-1.727
						c1.221,0.187,2.123,1.236,2.123,2.472v47.143c0,0.098,0.079,0.177,0.177,0.177h21.99c0.546,0,0.898-0.286,1.06-0.456
						c0.161-0.171,0.427-0.538,0.396-1.084l-1.845-50.707c-0.051-1.38,1.027-2.539,2.407-2.589c1.346-0.045,2.539,1.027,2.589,2.407
						l1.843,50.658c0.097,1.716-0.543,3.465-1.758,4.749C169.483,255.264,167.773,256,166.006,256z"/>
				</g>
			</g>
		</g>
		<g>
			<g>
				<path d="M95.136,117.757c-4.776,0-9.262-1.949-11.998-5.215c-0.887-1.058-0.748-2.635,0.311-3.521s2.636-0.749,3.521,0.311
					c1.798,2.145,4.851,3.426,8.166,3.426s6.369-1.281,8.167-3.426c0.888-1.061,2.466-1.196,3.521-0.311
					c1.059,0.887,1.197,2.464,0.311,3.521C104.398,115.808,99.912,117.757,95.136,117.757z"/>
			</g>
		</g>
		<g>
			<g>
				<circle cx="110.247" cy="90.5" r="4.5"/>
			</g>
		</g>
		<g>
			<g>
				<circle cx="80.026" cy="90.5" r="4.5"/>
			</g>
		</g>
		<g>
			<g>
				<path d="M95.136,255.5c-1.381,0-2.5-1.119-2.5-2.5v-20.137c0-2.05,0.255-4.081,0.756-6.036l20.315-79.224
					c0.344-1.338,1.711-2.137,3.043-1.801c1.337,0.343,2.144,1.705,1.801,3.043L98.235,228.07c-0.398,1.55-0.6,3.162-0.6,4.793V253
					C97.636,254.381,96.517,255.5,95.136,255.5z"/>
			</g>
		</g>
		<g>
			<g>
				<path d="M95.267,233.751c-0.549,0-1.102-0.18-1.563-0.551c-1.076-0.864-1.248-2.438-0.384-3.515l31.861-39.69
					c-0.009-0.001-0.005-0.104-0.026-0.152l-4.728-10.797c-1.074-2.454-0.128-5.356,2.109-6.47l7.083-3.529
					c0-0.018-0.001-0.036-0.004-0.056l-1.115-7.644c-0.199-1.366,0.746-2.636,2.112-2.835c1.373-0.204,2.636,0.747,2.835,2.112
					l1.115,7.643c0.313,2.14-0.709,4.254-2.485,5.141l-7.086,3.53c0,0.036,0.004,0.074,0.016,0.102l4.728,10.796
					c0.77,1.757,0.514,3.833-0.654,5.289l-31.862,39.691C96.725,233.432,95.999,233.751,95.267,233.751z"/>
			</g>
		</g>
		<g>
			<g>
				<path d="M95.081,233.846c-0.743,0-1.466-0.331-1.95-0.935l-31.938-39.785c-1.169-1.457-1.425-3.533-0.655-5.291l4.728-10.795
					c0.012-0.027,0.017-0.065,0.016-0.102l-7.085-3.53c-1.777-0.887-2.8-3-2.486-5.141l2.044-14.002
					c0.199-1.365,1.458-2.311,2.835-2.112c1.366,0.199,2.312,1.469,2.112,2.835l-2.044,14.003c-0.003,0.02-0.004,0.038-0.004,0.056
					l7.084,3.529c2.236,1.113,3.183,4.016,2.108,6.469l-4.728,10.797c-0.021,0.05-0.018,0.152,0,0.192l25.221,31.413L71.758,148.99
					c-0.343-1.338,0.464-2.7,1.801-3.043c1.335-0.338,2.699,0.463,3.043,1.801l20.279,79.08c0.357,1.394,0.591,2.856,0.693,4.347
					c0.075,1.09-0.566,2.102-1.584,2.499C95.693,233.79,95.386,233.846,95.081,233.846z M60.669,169.136h0.01H60.669z"/>
			</g>
		</g>
		<g>
			<g>
				<path d="M145.986,118.703c-0.312,0-0.629-0.06-0.936-0.184c-1.28-0.517-1.898-1.975-1.381-3.254
					c3.056-7.563,1.013-14.688-1.24-19.333c-0.603-1.242-0.084-2.738,1.158-3.34c1.243-0.603,2.738-0.084,3.34,1.158
					c2.695,5.557,5.121,14.125,1.377,23.388C147.912,118.112,146.976,118.703,145.986,118.703z"/>
			</g>
		</g>
		<g>
			<g>
				<path d="M58.448,156.468c-0.312,0-0.628-0.059-0.934-0.183c-5.629-2.269-9.891-5.648-12.666-10.044
					c-6.161-9.755-2.297-19.258-0.349-22.891c0.248-0.463,0.203-1.043-0.121-1.552c-7.276-11.41-3.727-22.563-0.963-28.195
					c0.608-1.238,2.104-1.752,3.346-1.143c1.239,0.608,1.751,2.105,1.143,3.346c-2.811,5.729-4.973,14.423,0.69,23.305
					c1.291,2.023,1.41,4.553,0.312,6.602c-1.904,3.554-4.416,10.599,0.169,17.858c2.205,3.49,5.673,6.208,10.309,8.077
					c1.281,0.516,1.9,1.973,1.384,3.253C60.375,155.876,59.438,156.468,58.448,156.468z"/>
			</g>
		</g>
		<g>
			<g>
				<g>
					<path d="M95.136,162.918c-7.596,0-15.062-2.64-21.021-7.434c-1.076-0.865-1.247-2.439-0.382-3.515
						c0.865-1.076,2.438-1.246,3.515-0.382c5.149,4.142,11.335,6.33,17.889,6.33c6.466,0,12.586-2.137,17.699-6.179
						c1.084-0.856,2.656-0.672,3.512,0.41c0.856,1.084,0.673,2.655-0.41,3.512C109.931,160.409,102.738,162.918,95.136,162.918z"/>
				</g>
			</g>
		</g>
		<g>
			<g>
				<g>
					<path d="M108.723,177.113c-0.625,0-1.251-0.232-1.735-0.701c-3.309-3.191-7.976-8.239-11.422-14.165
						c-0.694-1.193-0.289-2.724,0.904-3.418c1.192-0.694,2.724-0.29,3.418,0.904c3.157,5.429,7.491,10.109,10.57,13.081
						c0.994,0.958,1.022,2.541,0.063,3.534C110.031,176.857,109.377,177.113,108.723,177.113z"/>
				</g>
			</g>
		</g>
		<g>
			<g>
				<g>
					<path d="M81.55,177.113c-0.654,0-1.309-0.256-1.8-0.765c-0.958-0.994-0.93-2.576,0.064-3.535
						c3.079-2.969,7.412-7.649,10.572-13.084c0.694-1.193,2.225-1.6,3.418-0.904c1.193,0.694,1.599,2.225,0.904,3.418
						c-3.449,5.933-8.116,10.979-11.424,14.17C82.8,176.881,82.175,177.113,81.55,177.113z"/>
				</g>
			</g>
		</g>
		<g>
			<g>
				<path class="st7" d="M172.511,176.335c-12.991,0-23.523-10.531-23.523-23.522s10.531-23.523,23.523-23.523
					s23.523,10.532,23.523,23.523c0,4.897-1.498,9.444-4.058,13.209c-0.596-0.306-1.342-0.217-1.841,0.282l-4.283,4.282
					c-0.489,0.489-0.585,1.215-0.301,1.804C181.818,174.881,177.335,176.335,172.511,176.335z"/>
			</g>
		</g>
		<g>
			<g>
				<path class="st6" d="M234.109,183.591h-3.691c-0.695,0-1.307-0.463-1.489-1.134c-0.495-1.826-1.22-3.557-2.141-5.162
					c-0.347-0.604-0.243-1.364,0.25-1.857l2.612-2.613c0.618-0.618,0.618-1.621,0-2.239l-4.283-4.282
					c-0.618-0.618-1.621-0.618-2.239,0l-2.612,2.612c-0.493,0.493-1.253,0.597-1.857,0.25c-1.604-0.922-3.335-1.646-5.161-2.141
					c-0.671-0.182-1.134-0.794-1.134-1.489v-3.69c0-0.875-0.709-1.583-1.583-1.583h-6.057c-0.874,0-1.583,0.708-1.583,1.583v3.69
					c0,0.695-0.463,1.308-1.134,1.489c-1.826,0.495-3.557,1.219-5.161,2.141c-0.604,0.347-1.365,0.243-1.857-0.25l-2.612-2.612
					c-0.618-0.618-1.621-0.618-2.239,0l-4.283,4.282c-0.618,0.619-0.618,1.621,0,2.239l2.612,2.613
					c0.493,0.493,0.597,1.253,0.25,1.857c-0.922,1.604-1.647,3.335-2.141,5.162c-0.182,0.671-0.794,1.134-1.489,1.134h-3.691
					c-0.874,0-1.583,0.708-1.583,1.583v6.057c0,0.875,0.709,1.583,1.583,1.583h3.691c0.695,0,1.307,0.463,1.489,1.134
					c0.495,1.826,1.22,3.557,2.141,5.161c0.347,0.604,0.243,1.365-0.25,1.857l-2.612,2.612c-0.618,0.618-0.618,1.621,0,2.239
					l4.283,4.283c0.618,0.618,1.621,0.618,2.239,0l2.612-2.612c0.493-0.493,1.253-0.597,1.857-0.25
					c1.604,0.921,3.335,1.646,5.161,2.141c0.671,0.182,1.134,0.794,1.134,1.489v3.69c0,0.875,0.709,1.583,1.583,1.583h6.057
					c0.875,0,1.583-0.709,1.583-1.583v-3.69c0-0.695,0.463-1.307,1.134-1.489c1.826-0.495,3.557-1.22,5.161-2.141
					c0.604-0.347,1.365-0.243,1.857,0.25l2.612,2.612c0.618,0.618,1.621,0.618,2.239,0l4.283-4.283c0.618-0.618,0.618-1.621,0-2.239
					l-2.612-2.612c-0.493-0.493-0.597-1.253-0.25-1.857c0.922-1.604,1.647-3.335,2.141-5.161c0.182-0.671,0.794-1.134,1.489-1.134
					h3.691c0.874,0,1.583-0.709,1.583-1.583v-6.057C235.692,184.299,234.983,183.591,234.109,183.591z"/>
			</g>
		</g>
		<g>
			<g>
				<path class="st18" d="M207.751,200.534c-6.81,0-12.331-5.521-12.331-12.332s5.521-12.331,12.331-12.331
					s12.331,5.521,12.331,12.331S214.561,200.534,207.751,200.534z"/>
			</g>
		</g>
		<g>
			<g>
				<circle class="st3" cx="172.511" cy="146" r="8.5"/>
			</g>
		</g>
		<g>
			<g>
				<path class="st0" d="M164.54,155.5h15.942c4.691,0,8.529,3.838,8.529,8.529v3.398l-3.159,3.159
					c-0.488,0.489-0.585,1.214-0.302,1.803c-3.732,2.492-8.215,3.946-13.039,3.946c-6.43,0-12.254-2.582-16.5-6.763v-5.543
					C156.011,159.338,159.849,155.5,164.54,155.5z"/>
			</g>
		</g>
		<g>
			<g>
				<path d="M210.779,218.644h-6.057c-2.251,0-4.083-1.832-4.083-4.083v-2.972c-1.518-0.462-2.99-1.073-4.395-1.823l-2.103,2.104
					c-1.593,1.589-4.182,1.591-5.774,0.002l-4.283-4.285c-0.771-0.771-1.196-1.797-1.196-2.888c0-1.09,0.425-2.116,1.196-2.887
					l2.103-2.103c-0.75-1.402-1.361-2.875-1.822-4.395h-2.972c-2.252,0-4.084-1.832-4.084-4.084v-6.057
					c0-2.251,1.832-4.083,4.084-4.083h2.971c0.461-1.518,1.072-2.991,1.823-4.395l-2.103-2.104
					c-1.591-1.591-1.592-4.181-0.002-5.773l4.284-4.283c1.542-1.545,4.233-1.543,5.774,0l2.104,2.103
					c1.402-0.75,2.875-1.361,4.395-1.823v-2.972c0-2.251,1.832-4.082,4.083-4.082h6.057c2.251,0,4.083,1.831,4.083,4.082v2.972
					c1.52,0.462,2.992,1.073,4.395,1.823l2.104-2.103c1.54-1.543,4.232-1.545,5.774,0l4.282,4.282
					c0.771,0.771,1.196,1.797,1.196,2.888s-0.425,2.117-1.197,2.889l-2.102,2.102c0.75,1.402,1.361,2.875,1.823,4.395h2.972
					c2.251,0,4.083,1.832,4.083,4.083v6.057c0,2.252-1.832,4.084-4.083,4.084h-2.972c-0.462,1.52-1.073,2.992-1.823,4.394
					l2.104,2.104c1.593,1.592,1.593,4.183,0,5.774l-4.283,4.283c-1.591,1.589-4.181,1.591-5.773,0.002l-2.104-2.105
					c-1.404,0.751-2.878,1.362-4.395,1.823v2.972C214.862,216.812,213.03,218.644,210.779,218.644z M205.64,213.644h4.223v-2.774
					c0-1.822,1.226-3.426,2.981-3.901c1.591-0.432,3.129-1.069,4.57-1.896c1.58-0.908,3.581-0.64,4.869,0.649l1.965,1.965
					l2.986-2.986l-1.964-1.965c-1.29-1.287-1.558-3.29-0.65-4.87c0.826-1.437,1.464-2.974,1.896-4.57
					c0.475-1.754,2.08-2.979,3.902-2.979h2.773v-4.224h-2.773c-1.822,0-3.427-1.226-3.902-2.979
					c-0.433-1.596-1.07-3.134-1.896-4.571c-0.906-1.578-0.639-3.581,0.65-4.87l1.963-1.964l-2.986-2.986l-1.964,1.964
					c-1.288,1.289-3.291,1.554-4.869,0.65c-1.438-0.827-2.977-1.465-4.571-1.897c-1.755-0.476-2.98-2.079-2.98-3.901v-2.773h-4.223
					v2.773c0,1.822-1.227,3.427-2.982,3.901c-1.593,0.433-3.131,1.07-4.568,1.896c-1.578,0.906-3.582,0.641-4.87-0.649l-1.964-1.964
					l-2.986,2.985l1.964,1.965c1.289,1.291,1.555,3.293,0.649,4.87c-0.826,1.438-1.464,2.976-1.896,4.57
					c-0.479,1.757-2.083,2.98-3.902,2.98h-2.774v4.224h2.774c1.82,0,3.425,1.225,3.901,2.978c0.433,1.599,1.07,3.135,1.896,4.571
					c0.907,1.579,0.641,3.582-0.648,4.871l-1.964,1.965l2.985,2.986l1.964-1.965c1.289-1.29,3.292-1.557,4.871-0.649
					c1.44,0.827,2.979,1.465,4.57,1.896c1.754,0.475,2.98,2.079,2.98,3.901V213.644z M234.109,186.091h0.01H234.109z"/>
			</g>
		</g>
		<g>
			<g>
				<path d="M177.416,200.568h-9.81c-2.793,0-5.064-2.271-5.064-5.064v-5.978c-3.112-0.844-6.125-2.094-8.942-3.713l-4.227,4.235
					c-1.974,1.972-5.186,1.975-7.161,0.001l-6.938-6.938c-1.975-1.976-1.974-5.188,0-7.162l4.231-4.231
					c-1.613-2.81-2.862-5.82-3.71-8.945l-5.976,0.008c-2.793,0-5.064-2.271-5.064-5.064v-9.81c0-2.793,2.271-5.064,5.064-5.064
					h5.977c0.847-3.117,2.096-6.129,3.714-8.942l-4.236-4.226c-1.974-1.976-1.974-5.188-0.001-7.162l6.938-6.937
					c0.957-0.957,2.229-1.484,3.581-1.484c1.354,0,2.626,0.527,3.582,1.485l4.23,4.229c2.811-1.614,5.823-2.863,8.947-3.709
					l-0.01-5.977c0-2.793,2.271-5.064,5.064-5.064h9.81c2.793,0,5.064,2.271,5.064,5.064v5.978c3.111,0.844,6.123,2.093,8.942,3.712
					l4.227-4.234c1.975-1.974,5.187-1.974,7.161-0.001l6.938,6.938c1.975,1.976,1.974,5.188,0,7.162l-4.231,4.231
					c1.613,2.81,2.862,5.82,3.71,8.945l5.976-0.008c2.793,0,5.064,2.271,5.064,5.064v9.81c0,2.793-2.271,5.064-5.064,5.064h-4.22
					c-1.381,0-2.5-1.119-2.5-2.5s1.119-2.5,2.5-2.5h4.22l0.064-9.874l-6.041-0.064c-2.255,0-4.239-1.516-4.825-3.686
					c-0.735-2.71-1.819-5.323-3.224-7.767c-1.12-1.952-0.789-4.427,0.805-6.021l4.231-4.231l-6.937-7.028l-4.323,4.23
					c-1.594,1.595-4.07,1.927-6.021,0.804c-2.446-1.404-5.061-2.488-7.768-3.222c-2.169-0.589-3.684-2.572-3.684-4.825v-5.978
					l-9.874-0.064l-0.064,6.042c0,2.253-1.515,4.236-3.683,4.825c-2.711,0.733-5.325,1.818-7.77,3.223
					c-1.95,1.119-4.428,0.79-6.021-0.805l-4.231-4.23l-7.028,6.936l4.231,4.323c1.594,1.594,1.925,4.069,0.805,6.021
					c-1.404,2.443-2.488,5.057-3.224,7.77c-0.586,2.168-2.57,3.683-4.825,3.683h-5.977l-0.064,9.874l6.041,0.064
					c2.255,0,4.239,1.516,4.825,3.686c0.735,2.71,1.819,5.323,3.224,7.767c1.12,1.952,0.789,4.427-0.805,6.021l-4.231,4.231
					l6.937,7.028l4.323-4.23c1.593-1.595,4.069-1.928,6.02-0.806c2.447,1.406,5.062,2.49,7.77,3.224
					c2.169,0.589,3.684,2.572,3.684,4.825v5.978l9.764,0.063c0.002-0.018,0.004-0.039,0.004-0.063v-4.019c0-1.381,1.119-2.5,2.5-2.5
					s2.5,1.119,2.5,2.5v4.019C182.31,198.344,180.16,200.568,177.416,200.568z"/>
			</g>
		</g>
		<g>
			<g>
				<path d="M172.511,178.835c-14.349,0-26.022-11.674-26.022-26.022c0-14.35,11.674-26.023,26.022-26.023
					c14.35,0.001,26.023,11.675,26.023,26.023c0,5.24-1.553,10.295-4.491,14.615c-0.775,1.144-2.334,1.438-3.473,0.662
					c-1.143-0.776-1.438-2.331-0.662-3.473c2.372-3.489,3.626-7.57,3.626-11.805c0-11.592-9.432-21.022-21.023-21.023
					c-11.592,0-21.022,9.431-21.022,21.023c0,11.592,9.431,21.022,21.022,21.022c4.168,0,8.197-1.219,11.652-3.524
					c1.145-0.767,2.701-0.457,3.467,0.691c0.767,1.148,0.457,2.7-0.691,3.467C182.659,177.325,177.67,178.835,172.511,178.835z"/>
			</g>
		</g>
		<g>
			<g>
				<path d="M207.751,203.033c-8.178,0-14.831-6.653-14.831-14.831s6.653-14.831,14.831-14.831s14.831,6.653,14.831,14.831
					S215.929,203.033,207.751,203.033z M207.751,178.371c-5.421,0-9.831,4.41-9.831,9.831s4.41,9.831,9.831,9.831
					s9.831-4.41,9.831-9.831S213.172,178.371,207.751,178.371z"/>
			</g>
		</g>
		<g>
			<g>
				<path d="M172.511,157c-6.065,0-11-4.935-11-11s4.935-11,11-11s11,4.935,11,11S178.576,157,172.511,157z M172.511,140
					c-3.309,0-6,2.691-6,6s2.691,6,6,6s6-2.691,6-6S175.819,140,172.511,140z"/>
			</g>
		</g>
		<g>
			<g>
				<path d="M156.011,171.292c-1.381,0-2.5-1.119-2.5-2.5v-4.763c0-6.082,4.947-11.029,11.029-11.029h15.942
					c6.081,0,11.028,4.947,11.028,11.029v2.939c0,1.381-1.119,2.5-2.5,2.5s-2.5-1.119-2.5-2.5v-2.939
					c0-3.324-2.704-6.029-6.028-6.029H164.54c-3.324,0-6.029,2.705-6.029,6.029v4.763
					C158.511,170.173,157.392,171.292,156.011,171.292z"/>
			</g>
		</g>
		<g>
			<g>
				<path class="st7" d="M33.822,94.33c-4.498-0.838-8.043-4.31-8.898-8.716c-0.043-0.221-0.352-0.221-0.395,0
					c-0.855,4.406-4.4,7.879-8.898,8.716c-0.226,0.042-0.226,0.345,0,0.387c4.498,0.838,8.043,4.31,8.898,8.717
					c0.043,0.221,0.352,0.221,0.395,0c0.855-4.406,4.4-7.879,8.898-8.717C34.047,94.675,34.047,94.373,33.822,94.33z"/>
			</g>
		</g>
		<g>
			<g>
				<path class="st8" d="M178.515,80.101c-2.862-0.533-5.118-2.743-5.663-5.547c-0.027-0.141-0.224-0.141-0.251,0
					c-0.544,2.804-2.8,5.014-5.663,5.547c-0.144,0.027-0.144,0.219,0,0.246c2.862,0.533,5.118,2.743,5.663,5.547
					c0.027,0.141,0.224,0.141,0.251,0c0.544-2.804,2.8-5.014,5.663-5.547C178.658,80.32,178.658,80.128,178.515,80.101z"/>
			</g>
		</g>
		<g>
			<g>
				<path class="st6" d="M147.246,25.75h2.33v-2.33c0-1.744,1.413-3.157,3.157-3.157s3.157,1.413,3.157,3.157v2.33h2.329
					c1.744,0,3.157,1.413,3.157,3.157s-1.413,3.157-3.157,3.157h-2.329v2.33c0,1.744-1.413,3.157-3.157,3.157
					s-3.157-1.413-3.157-3.157v-2.33h-2.33c-1.744,0-3.157-1.413-3.157-3.157S145.502,25.75,147.246,25.75z"/>
			</g>
		</g>
		<g>
			<g>
				<circle class="st9" cx="18.755" cy="128.825" r="3.377"/>
			</g>
		</g>
		<g>
			<g>
				<circle class="st7" cx="139.755" cy="3.377" r="3.377"/>
			</g>
		</g>
		<g>
			<g>
				<circle class="st8" cx="186.368" cy="227.825" r="3.377"/>
			</g>
		</g>
	</g>
</g>
<g id="Layer_75">
</g>
<g id="Layer_76">
</g>
<g id="Layer_77">
</g>
<g id="Layer_78">
</g>
<g id="Layer_79">
</g>
<g id="Layer_80">
</g>
</svg>
