<?xml version="1.0" encoding="utf-8"?>
<!-- Generator: Adobe Illustrator 24.0.0, SVG Export Plug-In . SVG Version: 6.00 Build 0)  -->
<svg version="1.1" xmlns="http://www.w3.org/2000/svg" xmlns:xlink="http://www.w3.org/1999/xlink" x="0px" y="0px"
	 viewBox="0 0 256 256" style="enable-background:new 0 0 256 256;" xml:space="preserve">
<style type="text/css">
	.st0{fill:#3A70BF;}
	.st1{fill:#EDF4FC;}
	.st2{fill:#C7D7E5;}
	.st3{fill:#F9D0B4;}
	.st4{fill:#5B5D60;}
	.st5{fill:#5290DB;}
	.st6{fill:#70D6F9;}
	.st7{fill:#F5C84C;}
	.st8{fill:#FC657E;}
	.st9{fill:#87D147;}
	.st10{fill:#FCDD86;}
	.st11{fill:#9BE5F9;}
	.st12{fill:#B2E26D;}
	.st13{fill:#754E34;}
	.st14{fill:#FCA265;}
	.st15{fill:#818182;}
	.st16{fill:#F94EED;}
	.st17{fill:#FFC197;}
	.st18{fill:#3CAADC;}
	.st19{fill:#DAE6F1;}
	.st20{fill:#57AF12;}
	.st21{fill:#EF4460;}
	.st22{fill:#FFF0CA;}
	.st23{fill:#F98FA6;}
	.st24{fill:#EDB311;}
	.st25{fill:#FC8C48;}
	.st26{fill:#FCB9CB;}
	.st27{fill:#96BC71;}
	.st28{fill:#78A352;}
	.st29{fill:#B8DD90;}
	.st30{fill:#6FAFEF;}
	.st31{fill:#29589F;}
	.st32{fill:#414344;}
	.st33{fill:#9B6B4B;}
	.st34{fill:#73B1EF;}
</style>
<g id="Layer_1">
</g>
<g id="Layer_2">
</g>
<g id="Layer_3">
</g>
<g id="Layer_4">
</g>
<g id="Layer_5">
</g>
<g id="Layer_6">
</g>
<g id="Layer_7">
</g>
<g id="Layer_8">
</g>
<g id="Layer_9">
</g>
<g id="Layer_10">
</g>
<g id="Layer_11">
</g>
<g id="Layer_12">
</g>
<g id="Layer_13">
</g>
<g id="Layer_14">
</g>
<g id="Layer_15">
</g>
<g id="Layer_16">
</g>
<g id="Layer_17">
</g>
<g id="Layer_18">
</g>
<g id="Layer_19">
</g>
<g id="Layer_20">
</g>
<g id="Layer_21">
</g>
<g id="Layer_22">
</g>
<g id="Layer_23">
</g>
<g id="Layer_24">
</g>
<g id="Layer_25">
</g>
<g id="Layer_26">
</g>
<g id="Layer_27">
</g>
<g id="Layer_28">
</g>
<g id="Layer_29">
</g>
<g id="Layer_30">
</g>
<g id="Layer_31">
</g>
<g id="Layer_32">
</g>
<g id="Layer_33">
</g>
<g id="Layer_34">
</g>
<g id="Layer_35">
</g>
<g id="Layer_36">
</g>
<g id="Layer_37">
</g>
<g id="Layer_38">
</g>
<g id="Layer_39">
</g>
<g id="Layer_40">
</g>
<g id="Layer_41">
</g>
<g id="Layer_42">
</g>
<g id="Layer_43">
</g>
<g id="Layer_44">
</g>
<g id="Layer_45">
</g>
<g id="Layer_46">
</g>
<g id="Layer_47">
</g>
<g id="Layer_48">
</g>
<g id="Layer_49">
</g>
<g id="Layer_50">
</g>
<g id="Layer_51">
</g>
<g id="Layer_52">
</g>
<g id="Layer_53">
</g>
<g id="Layer_54">
</g>
<g id="Layer_55">
</g>
<g id="Layer_56">
</g>
<g id="Layer_57">
</g>
<g id="Layer_58">
</g>
<g id="Layer_59">
</g>
<g id="Layer_60">
</g>
<g id="Layer_61">
</g>
<g id="Layer_62">
</g>
<g id="Layer_63">
</g>
<g id="Layer_64">
</g>
<g id="Layer_65">
</g>
<g id="Layer_66">
</g>
<g id="Layer_67">
</g>
<g id="Layer_68">
</g>
<g id="Layer_69">
</g>
<g id="Layer_70">
</g>
<g id="Layer_71">
</g>
<g id="Layer_72">
</g>
<g id="Layer_73">
</g>
<g id="Layer_74">
</g>
<g id="Layer_75">
</g>
<g id="Layer_76">
</g>
<g id="Layer_77">
</g>
<g id="Layer_78">
	<g>
		<g>
			<g>
				<path class="st1" d="M221.388,80.333h-51.103c-2.722,0-4.949,2.227-4.949,4.949v17.103c0,2.722,2.227,4.949,4.949,4.949h51.103
					c2.722,0,4.949-2.227,4.949-4.949V85.282C226.337,82.56,224.11,80.333,221.388,80.333z"/>
			</g>
		</g>
		<g>
			<g>
				<path class="st1" d="M221.551,144.5h-51.103c-2.722,0-4.949-2.227-4.949-4.949v-17.103c0-2.722,2.227-4.949,4.949-4.949h51.103
					c2.722,0,4.949,2.227,4.949,4.949v17.103C226.5,142.273,224.273,144.5,221.551,144.5z"/>
			</g>
		</g>
		<g>
			<g>
				<path class="st9" d="M192.5,80.333h-22.214c-2.722,0-4.949,2.227-4.949,4.949v17.103c0,2.722,2.227,4.949,4.949,4.949H192.5
					V80.333z"/>
			</g>
		</g>
		<g>
			<g>
				<path class="st8" d="M192.5,144.5h-22.051c-2.722,0-4.949-2.227-4.949-4.949v-17.103c0-2.722,2.227-4.949,4.949-4.949H192.5
					V144.5z"/>
			</g>
		</g>
		<g>
			<g>
				<path class="st3" d="M133.625,71.985c-0.759,0-1.502,0.064-2.229,0.177c0,3.696,0,20.799,0,26.293v0v0
					c0,0.783-0.036,1.558-0.088,2.329c0.756,0.122,1.526,0.202,2.316,0.202c8.009,0,14.501-6.492,14.501-14.501
					C148.125,78.477,141.633,71.985,133.625,71.985z"/>
			</g>
		</g>
		<g>
			<g>
				<path class="st3" d="M113.277,60.642c-5.29,6.174-24.047,24.906-51.344,17.13v20.684c0,19.102,15.629,34.732,34.732,34.732l0,0
					c19.102,0,34.732-15.629,34.732-34.732v-28.06c0-1.276-0.893-2.358-2.136-2.646c-3.515-0.814-7.782-2.85-12.673-7.294
					C115.619,59.577,114.127,59.649,113.277,60.642z"/>
			</g>
		</g>
		<g>
			<g>
				<path class="st3" d="M61.932,77.771c-2.385-0.679-4.834-1.559-7.346-2.668c-1.619-0.715-3.511-0.386-4.803,0.825
					c-2.817,2.641-4.581,6.39-4.581,10.557c0,8.008,6.492,14.501,14.501,14.501c0.79,0,1.56-0.08,2.316-0.202
					c-0.052-0.771-0.088-1.546-0.088-2.329V77.771z"/>
			</g>
		</g>
		<g>
			<g>
				<g>
					<path class="st4" d="M49.784,75.929c1.291-1.211,3.183-1.54,4.803-0.825c2.512,1.109,4.961,1.988,7.346,2.668
						c27.297,7.776,46.055-10.956,51.344-17.13c0.85-0.992,2.342-1.065,3.309-0.186c4.892,4.445,9.159,6.48,12.673,7.294
						c1.243,0.288,2.136,1.37,2.136,2.646v1.766c0.727-0.113,1.47-0.177,2.229-0.177c4.012,0,7.643,1.63,10.268,4.263v-8.494
						c0-25.976-21.253-47.229-47.229-47.229c-25.976,0-47.229,21.253-47.229,47.229v8.535
						C49.553,76.171,49.662,76.043,49.784,75.929z"/>
				</g>
			</g>
		</g>
		<g>
			<g>
				<path class="st34" d="M115.777,161.13c0-3.045,2.491-5.536,5.536-5.536h3.906l2.275-2.754c0.636-0.77,0.556-1.902-0.181-2.575
					l-8.134-7.427c-0.753-0.687-1.917-0.646-2.619,0.092l-15.687,16.491c-0.77,0.81-0.78,2.078-0.022,2.899l8.157,8.836
					c0.936,1.014,2.552,0.97,3.431-0.094l3.337-4.04C115.777,166.877,115.777,160.743,115.777,161.13z"/>
			</g>
		</g>
		<g>
			<g>
				<path class="st3" d="M230.766,241.759H111.348c-1.877,0-3.398,1.521-3.398,3.398c0,4.607,3.735,8.343,8.343,8.343h109.53
					c4.607,0,8.343-3.735,8.343-8.343C234.164,243.281,232.643,241.759,230.766,241.759z"/>
			</g>
		</g>
		<g>
			<g>
				<path class="st34" d="M66.016,150.265l8.134-7.427c0.753-0.687,1.917-0.646,2.619,0.092l15.687,16.491
					c0.77,0.81,0.78,2.078,0.022,2.899l-8.157,8.837c-0.936,1.014-2.552,0.97-3.431-0.094L65.835,152.84
					C65.199,152.071,65.279,150.938,66.016,150.265z"/>
			</g>
		</g>
		<g>
			<g>
				<path class="st4" d="M133.625,100.987c-0.79,0-1.56-0.081-2.316-0.202c-0.816,12.152-7.945,22.646-18.124,28.194v2.521h14.98
					c12.703,0,23-10.297,23-23c0-5.5-1.933-10.546-5.153-14.504C143.468,98.182,138.88,100.987,133.625,100.987z"/>
			</g>
		</g>
		<g>
			<g>
				<path class="st4" d="M65.164,131.5h14.98v-2.521c-10.179-5.548-17.308-16.042-18.124-28.194
					c-0.756,0.122-1.526,0.202-2.316,0.202c-5.255,0-9.844-2.805-12.387-6.99c-3.22,3.958-5.153,9.004-5.153,14.504
					C42.164,121.203,52.462,131.5,65.164,131.5z"/>
			</g>
		</g>
		<g>
			<g>
				<g>
					<path class="st5" d="M107.949,245.157c0-1.877,1.521-3.398,3.398-3.398h9.965c-3.045,0-5.536-2.491-5.536-5.536v-69.199
						l-3.337,4.04c-0.879,1.064-2.495,1.108-3.431,0.094l-8.157-8.836c-0.468-0.508-0.642-1.186-0.526-1.821h-7.323
						c0.116,0.635-0.057,1.313-0.526,1.821l-8.157,8.836c-0.936,1.014-2.552,0.97-3.431-0.094L65.835,152.84
						c-0.056-0.067-0.099-0.14-0.143-0.213c-1.775,0.837-3.624,1.509-5.529,1.988l-24.833,6.269
						c-6.044,1.521-10.396,6.796-10.743,13.019l-2.744,75.418c-0.127,2.269,1.68,4.179,3.953,4.179h21.99
						c1.478,0,2.677-1.198,2.677-2.677v-47.143l3.883,12.438c2.539,8.133,3.83,16.604,3.83,25.125v9.58
						c0,1.479,1.198,2.677,2.677,2.677h30.345h10.936h14.159C111.684,253.5,107.949,249.765,107.949,245.157z"/>
				</g>
			</g>
		</g>
		<g>
			<g>
				<path class="st3" d="M93.003,160.5h7.323c0.072-0.393,0.253-0.769,0.547-1.078l13.906-14.619
					c-1.014-1.545-1.595-3.371-1.595-5.291v-10.533c-4.92,2.682-10.551,4.208-16.52,4.208c-5.97,0-11.6-1.526-16.52-4.208v10.533
					c0,1.92-0.581,3.746-1.595,5.291l13.906,14.619C92.75,159.731,92.931,160.107,93.003,160.5z"/>
			</g>
		</g>
		<g>
			<g>
				<path class="st1" d="M220.801,155.594h-99.488c-3.045,0-5.536,2.491-5.536,5.536v75.093c0,3.045,2.491,5.536,5.536,5.536h99.488
					c3.045,0,5.536-2.491,5.536-5.536V161.13C226.337,158.085,223.846,155.594,220.801,155.594z"/>
			</g>
		</g>
		<g>
			<g>
				<path class="st2" d="M173.255,191.594h-4.396c-3.905,0-7.083,3.178-7.083,7.083s3.178,7.082,7.083,7.082h4.396
					c3.905,0,7.082-3.177,7.082-7.082S177.16,191.594,173.255,191.594z"/>
			</g>
		</g>
		<g>
			<g>
				<path class="st2" d="M230.766,241.759H111.348c-1.877,0-3.398,1.521-3.398,3.398c0,4.607,3.735,8.343,8.343,8.343h109.53
					c4.607,0,8.343-3.735,8.343-8.343C234.164,243.281,232.643,241.759,230.766,241.759z"/>
			</g>
		</g>
		<g>
			<g>
				<path d="M96.664,117.757c-4.776,0-9.261-1.949-11.999-5.214c-0.887-1.059-0.748-2.636,0.31-3.522
					c1.059-0.887,2.635-0.748,3.522,0.31c1.798,2.146,4.852,3.427,8.167,3.427c3.315,0,6.369-1.281,8.167-3.427
					c0.888-1.058,2.464-1.196,3.522-0.31s1.197,2.464,0.31,3.522C105.926,115.808,101.44,117.757,96.664,117.757z"/>
			</g>
		</g>
		<g>
			<g>
				<circle cx="111.775" cy="90.5" r="4.5"/>
			</g>
		</g>
		<g>
			<g>
				<circle cx="81.554" cy="90.5" r="4.5"/>
			</g>
		</g>
		<g>
			<g>
				<path d="M133.625,103.486c-0.505,0-1.016-0.026-1.562-0.081c-1.374-0.136-2.377-1.36-2.24-2.734s1.366-2.374,2.734-2.24
					c0.352,0.034,0.707,0.056,1.067,0.056c6.617,0,12-5.383,12-12s-5.383-12.001-12-12.001c-0.312,0-0.619,0.013-0.924,0.038
					c-1.372,0.099-2.583-0.913-2.695-2.289c-0.111-1.377,0.913-2.583,2.289-2.695c0.439-0.035,0.882-0.054,1.33-0.054
					c9.374,0,17,7.627,17,17.001S142.999,103.486,133.625,103.486z"/>
			</g>
		</g>
		<g>
			<g>
				<path d="M96.664,135.687c-20.529,0-37.231-16.702-37.231-37.231V77.771c0-0.784,0.368-1.522,0.994-1.995
					c0.626-0.471,1.437-0.624,2.191-0.409c25.92,7.384,43.875-10.649,48.761-16.353h0c0.85-0.991,2.034-1.581,3.335-1.662
					c1.282-0.081,2.59,0.377,3.554,1.254c3.951,3.59,7.839,5.847,11.556,6.708c2.397,0.556,4.071,2.645,4.071,5.081v28.06
					C133.896,118.984,117.193,135.687,96.664,135.687z M64.433,80.979v17.477c0,17.772,14.459,32.231,32.231,32.231
					s32.231-14.459,32.231-32.231v-28.06c0-0.113-0.101-0.187-0.2-0.21c-4.515-1.046-9.109-3.656-13.657-7.759
					C109.682,68.626,91.25,86.863,64.433,80.979z M115.175,62.269l-0.001,0.001C115.174,62.27,115.174,62.27,115.175,62.269
					L115.175,62.269z"/>
			</g>
		</g>
		<g>
			<g>
				<path d="M59.704,103.486c-9.374,0-17-7.626-17-17c0-4.668,1.958-9.181,5.371-12.381c2.03-1.904,4.984-2.412,7.522-1.289
					c2.328,1.028,4.69,1.887,7.021,2.551c1.328,0.378,2.098,1.762,1.719,3.09s-1.761,2.1-3.089,1.719
					c-2.553-0.728-5.133-1.665-7.671-2.785c-0.701-0.311-1.518-0.167-2.083,0.362c-2.444,2.292-3.791,5.394-3.791,8.733
					c0,6.617,5.383,12,12,12c0.3,0,0.597-0.015,0.891-0.04c1.374-0.104,2.587,0.902,2.705,2.277
					c0.118,1.376-0.901,2.587-2.277,2.705C60.587,103.466,60.148,103.486,59.704,103.486z"/>
			</g>
		</g>
		<g>
			<g>
				<g>
					<path d="M49.436,78.25c-1.381,0-2.5-1.119-2.5-2.5v-7.995c0-27.42,22.308-49.729,49.729-49.729s49.729,22.309,49.729,49.729
						V75.5c0,1.381-1.119,2.5-2.5,2.5s-2.5-1.119-2.5-2.5v-7.745c0-24.663-20.065-44.729-44.729-44.729S51.936,43.092,51.936,67.755
						v7.995C51.936,77.131,50.816,78.25,49.436,78.25z"/>
				</g>
			</g>
		</g>
		<g>
			<g>
				<path d="M110.682,174.391c-1.332,0-2.604-0.555-3.511-1.536l-8.157-8.838c-1.646-1.784-1.626-4.559,0.047-6.317l15.687-16.491
					c1.628-1.712,4.371-1.806,6.115-0.218l8.135,7.43c1.722,1.57,1.909,4.212,0.423,6.012l-1.973,2.387
					c-0.879,1.064-2.455,1.215-3.52,0.336c-1.064-0.88-1.214-2.455-0.335-3.52l1.591-1.926l-7.238-6.61l-15.018,15.788l7.744,8.39
					l3.036-3.674c0.879-1.064,2.454-1.216,3.52-0.336c1.064,0.88,1.214,2.455,0.335,3.52l-3.196,3.869
					c-0.878,1.063-2.173,1.695-3.552,1.734C110.771,174.391,110.726,174.391,110.682,174.391z"/>
			</g>
		</g>
		<g>
			<g>
				<path d="M225.821,256H116.292c-5.979,0-10.843-4.864-10.843-10.843c0-3.252,2.646-5.898,5.898-5.898h119.418
					c3.252,0,5.898,2.646,5.898,5.898C236.664,251.136,231.8,256,225.821,256z M111.348,244.259c-0.496,0-0.898,0.403-0.898,0.898
					c0,3.222,2.621,5.843,5.843,5.843h109.529c3.222,0,5.843-2.621,5.843-5.843c0-0.495-0.403-0.898-0.898-0.898H111.348z"/>
			</g>
		</g>
		<g>
			<g>
				<path d="M82.646,174.391c-0.044,0-0.088,0-0.132-0.002c-1.379-0.038-2.674-0.67-3.552-1.733l-15.054-18.224
					c-1.486-1.799-1.301-4.44,0.423-6.014l8.134-7.426c1.744-1.593,4.488-1.496,6.116,0.216l15.687,16.491
					c1.673,1.758,1.694,4.533,0.048,6.317l-8.158,8.837C85.251,173.835,83.978,174.391,82.646,174.391z M68.143,151.708
					l14.512,17.568l7.744-8.39L75.381,145.1L68.143,151.708z M67.704,152.109l-0.002,0.002
					C67.701,152.111,67.703,152.109,67.704,152.109z M66.016,150.265h0.01H66.016z"/>
			</g>
		</g>
		<g>
			<g>
				<path d="M96.664,246.829c-1.381,0-2.5-1.119-2.5-2.5v-72.658c0-1.381,1.119-2.5,2.5-2.5s2.5,1.119,2.5,2.5v72.658
					C99.164,245.71,98.045,246.829,96.664,246.829z"/>
			</g>
		</g>
		<g>
			<g>
				<path d="M128.164,134h-14.058c-1.381,0-2.5-1.119-2.5-2.5s1.119-2.5,2.5-2.5h14.058c11.304,0,20.5-9.196,20.5-20.5
					c0-4.487-1.426-8.75-4.123-12.328c-0.831-1.103-0.611-2.67,0.491-3.501c1.102-0.831,2.67-0.612,3.501,0.491
					c3.356,4.451,5.131,9.755,5.131,15.338C153.664,122.561,142.225,134,128.164,134z"/>
			</g>
		</g>
		<g>
			<g>
				<path d="M79.45,134H65.164c-14.061,0-25.5-11.439-25.5-25.5c0-5.7,1.842-11.094,5.328-15.597
					c0.845-1.092,2.414-1.292,3.507-0.446c1.092,0.845,1.292,2.415,0.447,3.507c-2.801,3.619-4.282,7.954-4.282,12.536
					c0,11.304,9.196,20.5,20.5,20.5H79.45c1.381,0,2.5,1.119,2.5,2.5S80.831,134,79.45,134z"/>
			</g>
		</g>
		<g>
			<g>
				<g>
					<path d="M116.292,256H60.851c-2.854,0-5.177-2.322-5.177-5.177v-9.579c0-7.066-0.912-14.079-2.713-20.896v30.475
						c0,2.854-2.322,5.177-5.177,5.177h-21.99c-1.768,0-3.478-0.736-4.692-2.021c-1.215-1.284-1.855-3.033-1.757-4.798l2.742-75.37
						c0.412-7.403,5.487-13.554,12.631-15.353l24.832-6.268c1.508-0.38,3.01-0.9,4.467-1.548c1.262-0.56,2.74,0.01,3.299,1.271
						c0.561,1.262-0.008,2.739-1.27,3.3c-1.716,0.762-3.491,1.376-5.273,1.825l-24.833,6.269c-5.012,1.262-8.571,5.575-8.859,10.733
						l-2.742,75.37c-0.033,0.594,0.233,0.962,0.395,1.132c0.161,0.171,0.514,0.457,1.06,0.457h21.99
						c0.098,0,0.177-0.079,0.177-0.177v-47.143c0-1.235,0.902-2.285,2.123-2.472c1.218-0.188,2.395,0.547,2.763,1.727l3.883,12.438
						c2.617,8.384,3.944,17.088,3.944,25.87v9.579c0,0.098,0.079,0.177,0.177,0.177h55.441c1.381,0,2.5,1.119,2.5,2.5
						S117.673,256,116.292,256z"/>
				</g>
			</g>
		</g>
		<g>
			<g>
				<path d="M99.833,163h-6.5c-1.381,0-2.5-1.119-2.5-2.5s1.119-2.5,2.5-2.5h6.5c1.381,0,2.5,1.119,2.5,2.5S101.214,163,99.833,163z
					"/>
			</g>
		</g>
		<g>
			<g>
				<path d="M78.754,146.974c-0.439,0-0.883-0.115-1.287-0.358c-1.183-0.712-1.565-2.248-0.853-3.431
					c0.674-1.119,1.03-2.39,1.03-3.673v-9.937c0-1.381,1.119-2.5,2.5-2.5s2.5,1.119,2.5,2.5v9.937c0,2.192-0.604,4.354-1.746,6.251
					C80.429,146.542,79.602,146.974,78.754,146.974z"/>
			</g>
		</g>
		<g>
			<g>
				<path d="M114.492,146.833c-0.863,0-1.702-0.446-2.166-1.247c-1.074-1.854-1.642-3.954-1.642-6.074v-9.825
					c0-1.381,1.119-2.5,2.5-2.5s2.5,1.119,2.5,2.5v9.825c0,1.241,0.334,2.476,0.968,3.568c0.692,1.194,0.285,2.724-0.91,3.416
					C115.348,146.725,114.917,146.833,114.492,146.833z"/>
			</g>
		</g>
		<g>
			<g>
				<path d="M220.801,244.259c-1.381,0-2.5-1.119-2.5-2.5s1.119-2.5,2.5-2.5c1.674,0,3.036-1.362,3.036-3.036V161.13
					c0-1.674-1.362-3.036-3.036-3.036h-99.488c-1.674,0-3.036,1.362-3.036,3.036v75.093c0,1.674,1.362,3.036,3.036,3.036
					c1.381,0,2.5,1.119,2.5,2.5s-1.119,2.5-2.5,2.5c-4.431,0-8.036-3.605-8.036-8.036V161.13c0-4.431,3.605-8.036,8.036-8.036
					h99.488c4.431,0,8.036,3.605,8.036,8.036v75.093C228.837,240.653,225.231,244.259,220.801,244.259z"/>
			</g>
		</g>
		<g>
			<g>
				<path d="M173.255,208.259h-4.396c-5.284,0-9.583-4.299-9.583-9.582c0-5.284,4.299-9.583,9.583-9.583h4.396
					c5.283,0,9.582,4.299,9.582,9.583C182.837,203.96,178.538,208.259,173.255,208.259z M168.859,194.094
					c-2.527,0-4.583,2.056-4.583,4.583c0,2.526,2.056,4.582,4.583,4.582h4.396c2.526,0,4.582-2.056,4.582-4.582
					c0-2.527-2.056-4.583-4.582-4.583H168.859z"/>
			</g>
		</g>
		<g>
			<g>
				<path d="M225.821,256H116.292c-5.979,0-10.843-4.864-10.843-10.843c0-3.252,2.646-5.898,5.898-5.898h119.418
					c3.252,0,5.898,2.646,5.898,5.898C236.664,251.136,231.8,256,225.821,256z M111.348,244.259c-0.496,0-0.898,0.403-0.898,0.898
					c0,3.222,2.621,5.843,5.843,5.843h109.529c3.222,0,5.843-2.621,5.843-5.843c0-0.495-0.403-0.898-0.898-0.898H111.348z"/>
			</g>
		</g>
		<g>
			<g>
				<path class="st7" d="M165.822,28.33c-4.498-0.838-8.043-4.31-8.898-8.716c-0.043-0.221-0.352-0.221-0.395,0
					c-0.855,4.406-4.4,7.879-8.898,8.716c-0.226,0.042-0.226,0.345,0,0.387c4.498,0.838,8.043,4.31,8.898,8.717
					c0.043,0.221,0.352,0.221,0.395,0c0.855-4.406,4.4-7.879,8.898-8.717C166.047,28.675,166.047,28.373,165.822,28.33z"/>
			</g>
		</g>
		<g>
			<g>
				<path class="st6" d="M18.246,99.75h2.33v-2.33c0-1.744,1.413-3.157,3.157-3.157s3.157,1.413,3.157,3.157v2.33h2.329
					c1.744,0,3.157,1.413,3.157,3.157s-1.413,3.157-3.157,3.157h-2.329v2.33c0,1.744-1.413,3.157-3.157,3.157
					s-3.157-1.413-3.157-3.157v-2.33h-2.33c-1.744,0-3.157-1.413-3.157-3.157S16.502,99.75,18.246,99.75z"/>
			</g>
		</g>
		<g>
			<g>
				<circle class="st7" cx="21.755" cy="134.825" r="3.377"/>
			</g>
		</g>
		<g>
			<g>
				<circle class="st8" cx="143.755" cy="3.377" r="3.377"/>
			</g>
		</g>
		<g>
			<g>
				<path d="M221.389,109.833h-51.104c-4.107,0-7.448-3.341-7.448-7.448V85.282c0-4.107,3.341-7.449,7.448-7.449h51.104
					c4.107,0,7.448,3.342,7.448,7.449v17.103C228.837,106.492,225.496,109.833,221.389,109.833z M170.285,82.833
					c-1.35,0-2.448,1.099-2.448,2.449v17.103c0,1.35,1.099,2.448,2.448,2.448h51.104c1.35,0,2.448-1.099,2.448-2.448V85.282
					c0-1.351-1.099-2.449-2.448-2.449H170.285z"/>
			</g>
		</g>
		<g>
			<g>
				<path d="M221.552,147h-51.104c-4.107,0-7.448-3.342-7.448-7.449v-17.102c0-4.107,3.341-7.449,7.448-7.449h51.104
					c4.107,0,7.448,3.342,7.448,7.449v17.102C229,143.658,225.659,147,221.552,147z M170.448,120c-1.35,0-2.448,1.099-2.448,2.449
					v17.102c0,1.351,1.099,2.449,2.448,2.449h51.104c1.35,0,2.448-1.099,2.448-2.449v-17.102c0-1.351-1.099-2.449-2.448-2.449
					H170.448z"/>
			</g>
		</g>
		<g>
			<g>
				<path class="st9" d="M245.515,149.101c-2.862-0.533-5.118-2.743-5.663-5.547c-0.027-0.141-0.224-0.141-0.251,0
					c-0.544,2.804-2.8,5.014-5.663,5.547c-0.144,0.027-0.144,0.219,0,0.246c2.862,0.533,5.118,2.743,5.663,5.547
					c0.027,0.141,0.224,0.141,0.251,0c0.544-2.804,2.8-5.014,5.663-5.547C245.658,149.32,245.658,149.128,245.515,149.101z"/>
			</g>
		</g>
		<g>
			<g>
				<path d="M192.5,108.69c-1.381,0-2.5-1.119-2.5-2.5V81.208c0-1.381,1.119-2.5,2.5-2.5s2.5,1.119,2.5,2.5v24.982
					C195,107.571,193.881,108.69,192.5,108.69z"/>
			</g>
		</g>
		<g>
			<g>
				<path d="M192.5,146.132c-1.381,0-2.5-1.119-2.5-2.5v-25.419c0-1.381,1.119-2.5,2.5-2.5s2.5,1.119,2.5,2.5v25.419
					C195,145.013,193.881,146.132,192.5,146.132z"/>
			</g>
		</g>
		<g>
			<g>
				<path d="M175.258,137.742c-0.64,0-1.279-0.244-1.768-0.732c-0.977-0.977-0.977-2.559,0-3.535l8.484-8.484
					c0.977-0.977,2.559-0.977,3.535,0s0.977,2.559,0,3.535l-8.484,8.484C176.537,137.498,175.897,137.742,175.258,137.742z"/>
			</g>
		</g>
		<g>
			<g>
				<path d="M183.742,137.742c-0.64,0-1.279-0.244-1.768-0.732l-8.484-8.484c-0.977-0.977-0.977-2.559,0-3.535s2.559-0.977,3.535,0
					l8.484,8.484c0.977,0.977,0.977,2.559,0,3.535C185.021,137.498,184.382,137.742,183.742,137.742z"/>
			</g>
		</g>
		<g>
			<g>
				<path d="M177.939,100.137c-0.64,0-1.279-0.244-1.768-0.732l-4.243-4.243c-0.977-0.977-0.977-2.559,0-3.535s2.559-0.977,3.535,0
					l2.476,2.476l4.597-4.597c0.977-0.977,2.559-0.977,3.535,0s0.977,2.559,0,3.535l-6.364,6.364
					C179.219,99.893,178.579,100.137,177.939,100.137z"/>
			</g>
		</g>
	</g>
</g>
<g id="Layer_79">
</g>
<g id="Layer_80">
</g>
</svg>
