<?xml version="1.0" encoding="utf-8"?>
<!-- Generator: Adobe Illustrator 24.0.0, SVG Export Plug-In . SVG Version: 6.00 Build 0)  -->
<svg version="1.1" xmlns="http://www.w3.org/2000/svg" xmlns:xlink="http://www.w3.org/1999/xlink" x="0px" y="0px"
	 viewBox="0 0 256 256" style="enable-background:new 0 0 256 256;" xml:space="preserve">
<style type="text/css">
	.st0{fill:#3A70BF;}
	.st1{fill:#EDF4FC;}
	.st2{fill:#C7D7E5;}
	.st3{fill:#F9D0B4;}
	.st4{fill:#5B5D60;}
	.st5{fill:#5290DB;}
	.st6{fill:#70D6F9;}
	.st7{fill:#F5C84C;}
	.st8{fill:#FC657E;}
	.st9{fill:#87D147;}
	.st10{fill:#FCDD86;}
	.st11{fill:#9BE5F9;}
	.st12{fill:#B2E26D;}
	.st13{fill:#754E34;}
	.st14{fill:#FCA265;}
	.st15{fill:#818182;}
	.st16{fill:#F94EED;}
	.st17{fill:#FFC197;}
	.st18{fill:#3CAADC;}
	.st19{fill:#DAE6F1;}
	.st20{fill:#57AF12;}
	.st21{fill:#EF4460;}
	.st22{fill:#FFF0CA;}
	.st23{fill:#F98FA6;}
	.st24{fill:#EDB311;}
	.st25{fill:#FC8C48;}
	.st26{fill:#FCB9CB;}
	.st27{fill:#96BC71;}
	.st28{fill:#78A352;}
	.st29{fill:#B8DD90;}
	.st30{fill:#6FAFEF;}
	.st31{fill:#29589F;}
	.st32{fill:#414344;}
	.st33{fill:#9B6B4B;}
	.st34{fill:#73B1EF;}
</style>
<g id="Layer_1">
</g>
<g id="Layer_2">
</g>
<g id="Layer_3">
</g>
<g id="Layer_4">
</g>
<g id="Layer_5">
</g>
<g id="Layer_6">
</g>
<g id="Layer_7">
</g>
<g id="Layer_8">
</g>
<g id="Layer_9">
</g>
<g id="Layer_10">
</g>
<g id="Layer_11">
</g>
<g id="Layer_12">
</g>
<g id="Layer_13">
</g>
<g id="Layer_14">
</g>
<g id="Layer_15">
</g>
<g id="Layer_16">
</g>
<g id="Layer_17">
</g>
<g id="Layer_18">
</g>
<g id="Layer_19">
</g>
<g id="Layer_20">
</g>
<g id="Layer_21">
</g>
<g id="Layer_22">
</g>
<g id="Layer_23">
</g>
<g id="Layer_24">
</g>
<g id="Layer_25">
</g>
<g id="Layer_26">
</g>
<g id="Layer_27">
</g>
<g id="Layer_28">
</g>
<g id="Layer_29">
</g>
<g id="Layer_30">
</g>
<g id="Layer_31">
</g>
<g id="Layer_32">
</g>
<g id="Layer_33">
</g>
<g id="Layer_34">
</g>
<g id="Layer_35">
</g>
<g id="Layer_36">
</g>
<g id="Layer_37">
</g>
<g id="Layer_38">
</g>
<g id="Layer_39">
</g>
<g id="Layer_40">
</g>
<g id="Layer_41">
</g>
<g id="Layer_42">
</g>
<g id="Layer_43">
</g>
<g id="Layer_44">
</g>
<g id="Layer_45">
</g>
<g id="Layer_46">
</g>
<g id="Layer_47">
</g>
<g id="Layer_48">
</g>
<g id="Layer_49">
</g>
<g id="Layer_50">
</g>
<g id="Layer_51">
</g>
<g id="Layer_52">
</g>
<g id="Layer_53">
</g>
<g id="Layer_54">
</g>
<g id="Layer_55">
</g>
<g id="Layer_56">
</g>
<g id="Layer_57">
</g>
<g id="Layer_58">
</g>
<g id="Layer_59">
</g>
<g id="Layer_60">
</g>
<g id="Layer_61">
</g>
<g id="Layer_62">
</g>
<g id="Layer_63">
</g>
<g id="Layer_64">
</g>
<g id="Layer_65">
</g>
<g id="Layer_66">
</g>
<g id="Layer_67">
</g>
<g id="Layer_68">
</g>
<g id="Layer_69">
</g>
<g id="Layer_70">
</g>
<g id="Layer_71">
</g>
<g id="Layer_72">
</g>
<g id="Layer_73">
</g>
<g id="Layer_74">
</g>
<g id="Layer_75">
</g>
<g id="Layer_76">
</g>
<g id="Layer_77">
	<g>
		<g>
			<g>
				<path class="st3" d="M102.598,56.772c-13.593,17.094-33.644,14.681-40.386,13.27c-1.225-0.256-2.401,0.667-2.402,1.919
					c0,0.008,0,0.017,0,0.025v29.936c0,20.468,16.747,37.215,37.215,37.215h0c20.468,0,37.215-16.747,37.215-37.215V68.772
					c0-0.194-0.002-0.388-0.006-0.582c-0.021-1.055-0.866-1.925-1.921-1.956c-15.46-0.453-23.606-6.581-26.736-9.649
					C104.722,55.747,103.343,55.836,102.598,56.772z"/>
			</g>
		</g>
		<g>
			<g>
				<g>
					<path class="st4" d="M57.422,73.561c0.813,0,1.609,0.069,2.388,0.189v-1.763c0-0.008,0-0.017,0-0.025
						c0.001-1.252,1.177-2.175,2.402-1.919c6.742,1.411,26.794,3.823,40.386-13.27c0.745-0.937,2.124-1.025,2.978-0.187
						c3.13,3.068,11.276,9.196,26.736,9.649c1.055,0.031,1.9,0.901,1.921,1.956c0.004,0.194,0.006,0.388,0.006,0.582v4.978
						c0.779-0.121,1.575-0.189,2.388-0.189c4.188,0,7.982,1.665,10.777,4.36V49.973c0-11.692-9.566-21.258-21.258-21.258
						c-3.966,0-7.673,1.121-10.859,3.031c-3.722-6.211-10.502-10.405-18.23-10.405H86.141c-21.127,0-38.413,17.286-38.413,38.413
						v17.212C50.386,74.84,53.752,73.561,57.422,73.561z"/>
				</g>
			</g>
		</g>
		<g>
			<g>
				<path class="st3" d="M136.628,73.561c-0.813,0-1.609,0.069-2.388,0.189c0,3.96,0,22.286,0,28.173
					c0,0.839-0.038,1.67-0.094,2.496c0.81,0.13,1.635,0.217,2.482,0.217c8.581,0,15.537-6.956,15.537-15.537
					S145.209,73.561,136.628,73.561z"/>
			</g>
		</g>
		<g>
			<g>
				<path class="st3" d="M59.81,101.923c0-3.856,0-20.507,0-28.173c-0.779-0.121-1.575-0.189-2.388-0.189
					c-8.581,0-15.538,6.957-15.538,15.538s6.956,15.537,15.538,15.537c0.847,0,1.672-0.086,2.482-0.217v-0.001
					C59.848,103.593,59.81,102.762,59.81,101.923z"/>
			</g>
		</g>
		<g>
			<g>
				<path class="st3" d="M93.357,162.422c0.294,0.31,0.475,0.686,0.547,1.078l0,0h7.323l0,0c0.072-0.393,0.253-0.769,0.547-1.078
					l14.525-15.27c-1.021-1.86-1.589-3.976-1.589-6.18v-6.335c-5.268,2.868-11.296,4.501-17.686,4.501h0
					c-5.959,0-11.597-1.428-16.604-3.945v5.779c0,2.204-0.568,4.32-1.589,6.18L93.357,162.422z"/>
			</g>
		</g>
		<g>
			<g>
				<path class="st5" d="M110.851,245.157c0-1.877,1.521-3.398,3.398-3.398h9.965c-3.045,0-5.536-2.491-5.536-5.536v-68.621
					l-5.337,6.461c-0.879,1.064-2.495,1.108-3.431,0.094l-2.608-2.826c-2.235,2.947-5.751,4.868-9.735,4.868s-7.5-1.921-9.735-4.868
					l-2.608,2.826c-0.936,1.014-2.552,0.97-3.431-0.094L66.737,155.84c-0.025-0.03-0.041-0.063-0.063-0.094l-3.638,1.794
					l-28.902,7.274c-6.233,1.569-10.721,7.008-11.078,13.425l-4.115,70.951c-0.13,2.34,1.732,4.31,4.076,4.31h96.177
					C114.586,253.5,110.851,249.765,110.851,245.157z"/>
			</g>
		</g>
		<g>
			<g>
				<path class="st34" d="M113.341,174.063l5.337-6.461v-6.472c0-3.045,2.491-5.536,5.536-5.536h4.347
					c0.442-0.75,0.316-1.724-0.347-2.329l-8.134-7.427c-0.753-0.687-1.917-0.646-2.619,0.092l-15.687,16.491
					c-0.77,0.81-0.78,2.078-0.022,2.899l8.157,8.836C110.846,175.172,112.462,175.128,113.341,174.063z"/>
			</g>
		</g>
		<g>
			<g>
				<path class="st34" d="M66.918,153.265l8.134-7.427c0.753-0.687,1.917-0.646,2.619,0.092l15.687,16.491
					c0.77,0.81,0.78,2.078,0.022,2.899l-8.157,8.837c-0.936,1.014-2.552,0.97-3.431-0.094L66.737,155.84
					C66.101,155.071,66.181,153.938,66.918,153.265z"/>
			</g>
		</g>
		<g>
			<g>
				<path class="st8" d="M87.83,171.332c2.235,2.947,5.751,4.868,9.735,4.868s7.5-1.921,9.735-4.868l-5.549-6.011
					c-0.468-0.508-0.642-1.186-0.526-1.821h-7.323c0.116,0.635-0.057,1.313-0.526,1.821L87.83,171.332z"/>
			</g>
		</g>
		<g>
			<g>
				<path class="st8" d="M102.775,175.011c-1.58,0.753-3.34,1.189-5.209,1.189s-3.629-0.437-5.209-1.189l-6.671,67.235l11.88,11.195
					l11.88-11.195L102.775,175.011z"/>
			</g>
		</g>
		<g>
			<g>
				<path class="st1" d="M223.703,155.594h-99.488c-3.045,0-5.536,2.491-5.536,5.536v75.093c0,3.045,2.491,5.536,5.536,5.536h99.488
					c3.045,0,5.536-2.491,5.536-5.536V161.13C229.239,158.085,226.747,155.594,223.703,155.594z"/>
			</g>
		</g>
		<g>
			<g>
				<path class="st2" d="M233.668,241.759H114.249c-1.877,0-3.398,1.521-3.398,3.398c0,4.607,3.735,8.343,8.343,8.343h109.53
					c4.607,0,8.343-3.735,8.343-8.343C237.066,243.281,235.544,241.759,233.668,241.759z"/>
			</g>
		</g>
		<g>
			<g>
				<path class="st2" d="M175.255,191.594h-4.396c-3.905,0-7.083,3.178-7.083,7.083s3.178,7.082,7.083,7.082h4.396
					c3.905,0,7.082-3.177,7.082-7.082S179.16,191.594,175.255,191.594z"/>
			</g>
		</g>
		<g>
			<g>
				<path d="M97.025,141.638c-21.899,0-39.715-17.816-39.715-39.715V71.987c0.001-1.372,0.604-2.63,1.651-3.479
					c1.059-0.859,2.43-1.189,3.764-0.912c7.235,1.516,25.417,3.34,37.917-12.379v-0.001c0.796-1.001,1.982-1.619,3.254-1.698
					c1.268-0.085,2.52,0.39,3.431,1.282c2.592,2.541,10.225,8.5,25.059,8.936c2.39,0.068,4.3,2.004,4.348,4.405
					c0.004,0.209,0.006,0.421,0.006,0.632v33.15C136.74,123.821,118.924,141.638,97.025,141.638z M62.31,72.612v29.311
					c0,19.142,15.573,34.715,34.715,34.715c19.142,0,34.715-15.573,34.715-34.715v-33.15c0-0.019,0-0.037,0-0.056
					c-15.155-0.564-23.626-6.309-27.522-9.971C90.03,76.146,69.297,73.965,62.31,72.612z M104.554,58.328
					c0,0.001,0,0.001-0.001,0.002L104.554,58.328L104.554,58.328z"/>
			</g>
		</g>
		<g>
			<g>
				<g>
					<path d="M147.404,79.906c-1.381,0-2.5-1.119-2.5-2.5V49.974c0-10.343-8.415-18.758-18.758-18.758
						c-3.345,0-6.655,0.925-9.574,2.675c-0.569,0.341-1.25,0.444-1.893,0.28c-0.644-0.161-1.196-0.571-1.537-1.14
						c-3.396-5.668-9.56-9.189-16.086-9.189H86.141c-19.803,0-35.913,16.11-35.913,35.913v16.65c0,1.381-1.119,2.5-2.5,2.5
						s-2.5-1.119-2.5-2.5v-16.65c0-22.56,18.354-40.913,40.913-40.913h10.916c7.481,0,14.582,3.641,19.048,9.638
						c3.15-1.486,6.58-2.264,10.042-2.264c13.1,0,23.758,10.657,23.758,23.758v27.433C149.904,78.787,148.785,79.906,147.404,79.906
						z"/>
				</g>
			</g>
		</g>
		<g>
			<g>
				<path d="M46.021,255.04c-1.381,0-2.5-1.119-2.5-2.5v-56.645c0-1.381,1.119-2.5,2.5-2.5s2.5,1.119,2.5,2.5v56.645
					C48.521,253.921,47.402,255.04,46.021,255.04z"/>
			</g>
		</g>
		<g>
			<g>
				<path d="M136.628,107.136c-0.563,0-1.138-0.031-1.756-0.097c-1.373-0.145-2.369-1.375-2.224-2.748
					c0.145-1.374,1.368-2.377,2.749-2.225c0.442,0.047,0.845,0.069,1.232,0.069c7.189,0,13.038-5.849,13.038-13.037
					c0-7.189-5.849-13.038-13.038-13.038c-0.397,0-0.807,0.021-1.218,0.061c-1.372,0.142-2.597-0.872-2.731-2.245
					c-0.134-1.375,0.872-2.598,2.246-2.731c0.572-0.056,1.145-0.084,1.703-0.084c9.946,0,18.038,8.092,18.038,18.038
					C154.666,99.044,146.574,107.136,136.628,107.136z"/>
			</g>
		</g>
		<g>
			<g>
				<path d="M57.422,107.136c-9.946,0-18.038-8.092-18.038-18.037c0-9.946,8.092-18.038,18.038-18.038
					c0.629,0,1.279,0.036,1.933,0.107c1.373,0.149,2.364,1.384,2.214,2.757c-0.149,1.373-1.382,2.358-2.756,2.214
					c-0.475-0.052-0.942-0.078-1.391-0.078c-7.189,0-13.038,5.849-13.038,13.038c0,7.188,5.849,13.037,13.038,13.037
					c0.346,0,0.688-0.018,1.025-0.049c1.378-0.134,2.592,0.885,2.719,2.26c0.127,1.375-0.885,2.592-2.26,2.719
					C58.401,107.112,57.902,107.136,57.422,107.136z"/>
			</g>
		</g>
		<g>
			<g>
				<path d="M97.566,118.573c-4.777,0-9.262-1.95-11.999-5.216c-0.887-1.058-0.748-2.635,0.31-3.521
					c1.059-0.887,2.636-0.749,3.522,0.311c1.798,2.146,4.852,3.427,8.167,3.427s6.369-1.281,8.167-3.427
					c0.886-1.058,2.464-1.197,3.522-0.311s1.197,2.464,0.31,3.521C106.828,116.623,102.343,118.573,97.566,118.573z"/>
			</g>
		</g>
		<g>
			<g>
				<circle cx="114.355" cy="90.816" r="5"/>
			</g>
		</g>
		<g>
			<g>
				<circle cx="80.776" cy="90.816" r="5"/>
			</g>
		</g>
		<g>
			<g>
				<path d="M100.667,166h-6.084c-1.381,0-2.5-1.119-2.5-2.5s1.119-2.5,2.5-2.5h6.084c1.381,0,2.5,1.119,2.5,2.5
					S102.048,166,100.667,166z"/>
			</g>
		</g>
		<g>
			<g>
				<path d="M79.034,149.269c-0.379,0-0.764-0.087-1.126-0.27c-1.232-0.623-1.726-2.127-1.103-3.359
					c0.73-1.444,1.116-3.059,1.116-4.667v-5.054c0-1.381,1.119-2.5,2.5-2.5s2.5,1.119,2.5,2.5v5.054
					c0,2.389-0.572,4.782-1.654,6.923C80.827,148.766,79.947,149.269,79.034,149.269z"/>
			</g>
		</g>
		<g>
			<g>
				<path d="M115.988,149.045c-0.93,0-1.823-0.521-2.254-1.415c-0.997-2.068-1.523-4.37-1.523-6.657v-5.468
					c0-1.381,1.119-2.5,2.5-2.5s2.5,1.119,2.5,2.5v5.468c0,1.563,0.346,3.071,1.027,4.485c0.6,1.244,0.077,2.738-1.167,3.338
					C116.722,148.965,116.352,149.045,115.988,149.045z"/>
			</g>
		</g>
		<g>
			<g>
				<path d="M119.193,256H23.017c-1.802,0-3.545-0.751-4.783-2.06s-1.89-3.091-1.79-4.889l4.115-70.957
					c0.42-7.546,5.63-13.859,12.964-15.705l28.644-7.21l2.624-1.293c1.236-0.613,2.736-0.102,3.348,1.137
					c0.61,1.239,0.101,2.737-1.138,3.348l-2.861,1.41c-0.158,0.078-0.324,0.139-0.495,0.183l-28.901,7.275
					c-5.2,1.308-8.895,5.785-9.193,11.139l-4.115,70.957c-0.024,0.434,0.129,0.851,0.431,1.17c0.302,0.319,0.71,0.495,1.15,0.495
					h96.176c1.381,0,2.5,1.119,2.5,2.5S120.574,256,119.193,256z"/>
			</g>
		</g>
		<g>
			<g>
				<path d="M111.584,177.391c-1.332,0-2.605-0.556-3.511-1.536l-8.157-8.838c-1.646-1.784-1.625-4.559,0.047-6.317l15.687-16.491
					c1.628-1.711,4.371-1.808,6.115-0.217l8.135,7.429c1.327,1.211,1.774,3.082,1.14,4.766c-0.487,1.291-1.93,1.944-3.221,1.458
					c-1.151-0.434-1.795-1.626-1.578-2.794l-7.392-6.75l-15.018,15.787l7.744,8.39l4.962-6.006c0.878-1.064,2.454-1.215,3.52-0.336
					c1.064,0.88,1.214,2.455,0.335,3.52l-5.123,6.201c-0.878,1.064-2.173,1.696-3.553,1.734
					C111.672,177.391,111.628,177.391,111.584,177.391z"/>
			</g>
		</g>
		<g>
			<g>
				<path d="M83.548,177.391c-0.044,0-0.088,0-0.133-0.001c-1.378-0.039-2.673-0.671-3.552-1.734L64.81,157.432
					c-1.486-1.799-1.301-4.439,0.422-6.013c0,0,0-0.001,0-0.001l8.134-7.426c1.745-1.593,4.488-1.496,6.116,0.216l15.687,16.491
					c1.673,1.759,1.694,4.534,0.047,6.318l-8.157,8.836C86.152,176.836,84.879,177.391,83.548,177.391z M69.044,154.708
					l14.513,17.568l7.744-8.39L76.283,148.1L69.044,154.708z M68.604,155.11c0,0,0.001-0.001,0.002-0.001L68.604,155.11
					L68.604,155.11z"/>
			</g>
		</g>
		<g>
			<g>
				<path d="M97.566,178.7c-4.309,0-8.394-1.898-11.207-5.209c-0.894-1.053-0.766-2.631,0.287-3.524s2.63-0.767,3.524,0.286
					c1.861,2.191,4.557,3.447,7.396,3.447s5.535-1.256,7.396-3.447c0.894-1.051,2.472-1.18,3.524-0.286s1.181,2.472,0.287,3.524
					C105.959,176.802,101.875,178.7,97.566,178.7z"/>
			</g>
		</g>
		<g>
			<g>
				<path d="M97.566,255.94c-0.617,0-1.233-0.227-1.714-0.681l-11.88-11.195c-0.564-0.531-0.85-1.295-0.773-2.066l6.609-66.607
					c0.137-1.374,1.358-2.381,2.735-2.24c1.374,0.136,2.377,1.36,2.241,2.734l-6.487,65.384l9.271,8.736l9.271-8.736l-6.469-65.197
					c-0.136-1.374,0.867-2.599,2.241-2.734c1.381-0.135,2.599,0.867,2.735,2.24l6.59,66.421c0.077,0.771-0.209,1.535-0.773,2.066
					L99.28,255.26C98.799,255.714,98.183,255.94,97.566,255.94z"/>
			</g>
		</g>
		<g>
			<g>
				<path d="M223.703,244.259c-1.381,0-2.5-1.119-2.5-2.5s1.119-2.5,2.5-2.5c1.674,0,3.036-1.362,3.036-3.036V161.13
					c0-1.674-1.362-3.036-3.036-3.036h-99.488c-1.674,0-3.036,1.362-3.036,3.036v75.093c0,1.674,1.362,3.036,3.036,3.036
					c1.381,0,2.5,1.119,2.5,2.5s-1.119,2.5-2.5,2.5c-4.431,0-8.036-3.605-8.036-8.036V161.13c0-4.431,3.605-8.036,8.036-8.036
					h99.488c4.431,0,8.036,3.605,8.036,8.036v75.093C231.739,240.653,228.134,244.259,223.703,244.259z"/>
			</g>
		</g>
		<g>
			<g>
				<path d="M228.723,256h-109.53c-5.979,0-10.842-4.864-10.842-10.843c0-3.252,2.646-5.898,5.898-5.898h119.418
					c3.252,0,5.898,2.646,5.898,5.898C239.566,251.136,234.702,256,228.723,256z M114.25,244.259c-0.496,0-0.898,0.403-0.898,0.898
					c0,3.222,2.621,5.843,5.842,5.843h109.53c3.222,0,5.843-2.621,5.843-5.843c0-0.495-0.403-0.898-0.898-0.898H114.25z"/>
			</g>
		</g>
		<g>
			<g>
				<path d="M175.255,208.259h-4.396c-5.284,0-9.583-4.299-9.583-9.582c0-5.284,4.299-9.583,9.583-9.583h4.396
					c5.284,0,9.582,4.299,9.582,9.583C184.837,203.96,180.539,208.259,175.255,208.259z M170.859,194.094
					c-2.527,0-4.583,2.056-4.583,4.583c0,2.526,2.056,4.582,4.583,4.582h4.396c2.526,0,4.582-2.056,4.582-4.582
					c0-2.527-2.056-4.583-4.582-4.583H170.859z"/>
			</g>
		</g>
		<g>
			<g>
				<path class="st7" d="M173.822,28.33c-4.498-0.838-8.043-4.31-8.898-8.716c-0.043-0.221-0.352-0.221-0.395,0
					c-0.855,4.406-4.4,7.879-8.898,8.716c-0.226,0.042-0.226,0.345,0,0.387c4.498,0.838,8.043,4.31,8.898,8.717
					c0.043,0.221,0.352,0.221,0.395,0c0.855-4.406,4.4-7.879,8.898-8.717C174.047,28.675,174.047,28.373,173.822,28.33z"/>
			</g>
		</g>
		<g>
			<g>
				<path class="st6" d="M32.246,120.75h2.33v-2.33c0-1.744,1.413-3.157,3.157-3.157c1.744,0,3.157,1.413,3.157,3.157v2.33h2.329
					c1.744,0,3.157,1.413,3.157,3.157s-1.413,3.157-3.157,3.157h-2.329v2.33c0,1.744-1.413,3.157-3.157,3.157
					c-1.744,0-3.157-1.413-3.157-3.157v-2.33h-2.33c-1.744,0-3.157-1.413-3.157-3.157S30.502,120.75,32.246,120.75z"/>
			</g>
		</g>
		<g>
			<g>
				<circle class="st7" cx="22.755" cy="152.825" r="3.377"/>
			</g>
		</g>
		<g>
			<g>
				<circle class="st8" cx="151.755" cy="3.377" r="3.377"/>
			</g>
		</g>
		<g>
			<g>
				<path class="st1" d="M221.388,80.333h-51.103c-2.722,0-4.949,2.227-4.949,4.949v17.103c0,2.722,2.227,4.949,4.949,4.949h51.103
					c2.722,0,4.949-2.227,4.949-4.949V85.282C226.337,82.56,224.11,80.333,221.388,80.333z"/>
			</g>
		</g>
		<g>
			<g>
				<path class="st1" d="M221.551,144.5h-51.103c-2.722,0-4.949-2.227-4.949-4.949v-17.103c0-2.722,2.227-4.949,4.949-4.949h51.103
					c2.722,0,4.949,2.227,4.949,4.949v17.103C226.5,142.273,224.273,144.5,221.551,144.5z"/>
			</g>
		</g>
		<g>
			<g>
				<path class="st9" d="M192.5,80.333h-22.214c-2.722,0-4.949,2.227-4.949,4.949v17.103c0,2.722,2.227,4.949,4.949,4.949H192.5
					V80.333z"/>
			</g>
		</g>
		<g>
			<g>
				<path class="st8" d="M192.5,144.5h-22.051c-2.722,0-4.949-2.227-4.949-4.949v-17.103c0-2.722,2.227-4.949,4.949-4.949H192.5
					V144.5z"/>
			</g>
		</g>
		<g>
			<g>
				<path d="M221.388,109.833h-51.103c-4.107,0-7.449-3.341-7.449-7.448V85.282c0-4.107,3.341-7.449,7.449-7.449h51.103
					c4.107,0,7.449,3.342,7.449,7.449v17.103C228.837,106.492,225.496,109.833,221.388,109.833z M170.286,82.833
					c-1.35,0-2.449,1.099-2.449,2.449v17.103c0,1.35,1.099,2.448,2.449,2.448h51.103c1.35,0,2.449-1.099,2.449-2.448V85.282
					c0-1.351-1.099-2.449-2.449-2.449H170.286z"/>
			</g>
		</g>
		<g>
			<g>
				<path d="M221.551,147h-51.103c-4.107,0-7.449-3.342-7.449-7.449v-17.102c0-4.107,3.341-7.449,7.449-7.449h51.103
					c4.107,0,7.449,3.342,7.449,7.449v17.102C229,143.658,225.659,147,221.551,147z M170.449,120c-1.35,0-2.449,1.099-2.449,2.449
					v17.102c0,1.351,1.099,2.449,2.449,2.449h51.103c1.35,0,2.449-1.099,2.449-2.449v-17.102c0-1.351-1.099-2.449-2.449-2.449
					H170.449z"/>
			</g>
		</g>
		<g>
			<g>
				<path d="M192.5,109.206c-1.381,0-2.5-1.119-2.5-2.5V81.25c0-1.381,1.119-2.5,2.5-2.5s2.5,1.119,2.5,2.5v25.456
					C195,108.087,193.881,109.206,192.5,109.206z"/>
			</g>
		</g>
		<g>
			<g>
				<path d="M192.5,146.207c-1.381,0-2.5-1.119-2.5-2.5v-25.416c0-1.381,1.119-2.5,2.5-2.5s2.5,1.119,2.5,2.5v25.416
					C195,145.088,193.881,146.207,192.5,146.207z"/>
			</g>
		</g>
		<g>
			<g>
				<path d="M175.257,137.742c-0.64,0-1.28-0.244-1.768-0.732c-0.976-0.977-0.976-2.56,0-3.535l8.485-8.484
					c0.977-0.977,2.559-0.977,3.536,0c0.976,0.977,0.976,2.56,0,3.535l-8.485,8.484
					C176.537,137.498,175.897,137.742,175.257,137.742z"/>
			</g>
		</g>
		<g>
			<g>
				<path d="M183.743,137.742c-0.64,0-1.279-0.244-1.768-0.732l-8.485-8.484c-0.977-0.976-0.977-2.559,0-3.535
					c0.977-0.977,2.559-0.977,3.536,0l8.485,8.484c0.977,0.976,0.977,2.559,0,3.535
					C185.022,137.498,184.382,137.742,183.743,137.742z"/>
			</g>
		</g>
		<g>
			<g>
				<path d="M177.939,100.137L177.939,100.137c-0.663,0-1.299-0.264-1.768-0.732l-4.243-4.243c-0.976-0.977-0.976-2.56,0-3.535
					c0.976-0.977,2.559-0.977,3.536,0l2.475,2.475l4.596-4.596c0.977-0.977,2.559-0.977,3.536,0c0.977,0.976,0.977,2.559,0,3.535
					l-6.364,6.364C179.238,99.873,178.603,100.137,177.939,100.137z"/>
			</g>
		</g>
		<g>
			<g>
				<path class="st9" d="M245.515,149.101c-2.862-0.533-5.118-2.743-5.663-5.547c-0.027-0.141-0.224-0.141-0.251,0
					c-0.544,2.804-2.8,5.014-5.663,5.547c-0.144,0.027-0.144,0.219,0,0.246c2.862,0.533,5.118,2.743,5.663,5.547
					c0.027,0.141,0.224,0.141,0.251,0c0.544-2.804,2.8-5.014,5.663-5.547C245.658,149.32,245.658,149.128,245.515,149.101z"/>
			</g>
		</g>
	</g>
</g>
<g id="Layer_78">
</g>
<g id="Layer_79">
</g>
<g id="Layer_80">
</g>
</svg>
