<?xml version="1.0" encoding="utf-8"?>
<!-- Generator: Adobe Illustrator 24.0.0, SVG Export Plug-In . SVG Version: 6.00 Build 0)  -->
<svg version="1.1" xmlns="http://www.w3.org/2000/svg" xmlns:xlink="http://www.w3.org/1999/xlink" x="0px" y="0px"
	 viewBox="0 0 256 256" style="enable-background:new 0 0 256 256;" xml:space="preserve">
<style type="text/css">
	.st0{fill:#3A70BF;}
	.st1{fill:#EDF4FC;}
	.st2{fill:#C7D7E5;}
	.st3{fill:#F9D0B4;}
	.st4{fill:#5B5D60;}
	.st5{fill:#5290DB;}
	.st6{fill:#70D6F9;}
	.st7{fill:#F5C84C;}
	.st8{fill:#FC657E;}
	.st9{fill:#87D147;}
	.st10{fill:#FCDD86;}
	.st11{fill:#9BE5F9;}
	.st12{fill:#B2E26D;}
	.st13{fill:#754E34;}
	.st14{fill:#FCA265;}
	.st15{fill:#818182;}
	.st16{fill:#F94EED;}
	.st17{fill:#FFC197;}
	.st18{fill:#3CAADC;}
	.st19{fill:#DAE6F1;}
	.st20{fill:#57AF12;}
	.st21{fill:#EF4460;}
	.st22{fill:#FFF0CA;}
	.st23{fill:#F98FA6;}
	.st24{fill:#EDB311;}
	.st25{fill:#FC8C48;}
	.st26{fill:#FCB9CB;}
	.st27{fill:#96BC71;}
	.st28{fill:#78A352;}
	.st29{fill:#B8DD90;}
	.st30{fill:#6FAFEF;}
	.st31{fill:#29589F;}
	.st32{fill:#414344;}
	.st33{fill:#9B6B4B;}
	.st34{fill:#73B1EF;}
</style>
<g id="Layer_1">
</g>
<g id="Layer_2">
</g>
<g id="Layer_3">
</g>
<g id="Layer_4">
</g>
<g id="Layer_5">
</g>
<g id="Layer_6">
</g>
<g id="Layer_7">
</g>
<g id="Layer_8">
</g>
<g id="Layer_9">
</g>
<g id="Layer_10">
</g>
<g id="Layer_11">
</g>
<g id="Layer_12">
</g>
<g id="Layer_13">
</g>
<g id="Layer_14">
</g>
<g id="Layer_15">
</g>
<g id="Layer_16">
</g>
<g id="Layer_17">
</g>
<g id="Layer_18">
</g>
<g id="Layer_19">
</g>
<g id="Layer_20">
</g>
<g id="Layer_21">
</g>
<g id="Layer_22">
</g>
<g id="Layer_23">
</g>
<g id="Layer_24">
</g>
<g id="Layer_25">
	<g>
		<g>
			<g>
				<path class="st13" d="M216.936,143.5h-21.985c0.165,0.462,0.271,0.951,0.271,1.47v7.142c0,2.427-1.967,4.394-4.394,4.394
					h-18.522c-2.427,0-4.394-1.967-4.394-4.394v-7.142c0-0.518,0.106-1.008,0.271-1.47h-21.985c-4.747,0-8.63,3.884-8.63,8.63
					v92.739c0,4.747,3.884,8.63,8.63,8.63h70.739c4.747,0,8.63-3.884,8.63-8.63V152.13C225.566,147.384,221.682,143.5,216.936,143.5
					z"/>
			</g>
		</g>
		<g>
			<g>
				<path class="st19" d="M215.566,226.941h-15.838c-0.398,0-0.721,0.323-0.721,0.721V243.5L215.566,226.941z"/>
			</g>
		</g>
		<g>
			<g>
				<path class="st3" d="M114.098,56.772c-13.593,17.094-33.644,14.681-40.386,13.27c-1.225-0.256-2.401,0.667-2.402,1.919
					c0,0.008,0,0.017,0,0.025v29.936c0,20.468,16.747,37.215,37.215,37.215h0c20.468,0,37.215-16.747,37.215-37.215V68.772
					c0-0.194-0.002-0.388-0.006-0.582c-0.021-1.055-0.866-1.925-1.921-1.956c-15.46-0.453-23.606-6.581-26.736-9.649
					C116.222,55.747,114.843,55.836,114.098,56.772z"/>
			</g>
		</g>
		<g>
			<g>
				<g>
					<path class="st4" d="M68.922,73.561c0.813,0,1.609,0.069,2.388,0.189v-1.763c0-0.008,0-0.017,0-0.025
						c0.001-1.252,1.177-2.175,2.402-1.919c6.742,1.411,26.794,3.823,40.386-13.27c0.745-0.937,2.124-1.025,2.978-0.187
						c3.13,3.068,11.276,9.196,26.736,9.649c1.055,0.031,1.9,0.901,1.921,1.956c0.004,0.194,0.006,0.388,0.006,0.582v4.978
						c0.779-0.121,1.575-0.189,2.388-0.189c4.188,0,7.982,1.665,10.777,4.36V49.973c0-11.692-9.566-21.258-21.258-21.258
						c-3.966,0-7.673,1.121-10.859,3.031c-3.722-6.211-10.502-10.405-18.23-10.405H97.641c-21.127,0-38.413,17.286-38.413,38.413
						v17.212C61.886,74.84,65.252,73.561,68.922,73.561z"/>
				</g>
			</g>
		</g>
		<g>
			<g>
				<path class="st3" d="M148.128,73.561c-0.813,0-1.609,0.069-2.388,0.189c0,3.96,0,22.286,0,28.173
					c0,0.839-0.038,1.67-0.094,2.496c0.81,0.13,1.635,0.217,2.482,0.217c8.581,0,15.537-6.956,15.537-15.537
					S156.709,73.561,148.128,73.561z"/>
			</g>
		</g>
		<g>
			<g>
				<path class="st3" d="M71.31,101.923c0-3.856,0-20.507,0-28.173c-0.779-0.121-1.575-0.189-2.388-0.189
					c-8.581,0-15.538,6.957-15.538,15.538s6.956,15.537,15.538,15.537c0.847,0,1.672-0.086,2.482-0.217v-0.001
					C71.348,103.593,71.31,102.762,71.31,101.923z"/>
			</g>
		</g>
		<g>
			<g>
				<path class="st19" d="M137.566,244.87v-86.21l-12.725,15.404c-0.879,1.064-2.495,1.109-3.431,0.094l-4.373-4.737
					c-1.76,2.513-4.67,4.161-7.971,4.161s-6.211-1.647-7.971-4.161l-4.373,4.737c-0.936,1.014-2.552,0.97-3.431-0.094L78.237,155.84
					c-0.025-0.03-0.041-0.063-0.063-0.094l-3.638,1.794l-28.902,7.275c-6.233,1.569-10.721,7.008-11.078,13.425l-4.115,70.951
					c-0.13,2.34,1.732,4.31,4.076,4.31h111.679C141.45,253.5,137.566,249.616,137.566,244.87z"/>
			</g>
		</g>
		<g>
			<g>
				<path class="st3" d="M104.857,162.422c0.417,0.438,0.603,1.01,0.573,1.573c1.022,0.086,2.051,0.143,3.094,0.143h0
					c1.411,0,2.796-0.104,4.167-0.26v0c0,0.001,0,0.003,0,0.004c0-0.526,0.194-1.052,0.583-1.461l14.525-15.27
					c-1.021-1.86-1.589-3.976-1.589-6.18v-6.335c-5.268,2.868-11.296,4.501-17.686,4.501h0c-5.959,0-11.597-1.427-16.604-3.945
					v5.778c0,2.204-0.568,4.32-1.589,6.18L104.857,162.422z"/>
			</g>
		</g>
		<g>
			<g>
				<path class="st1" d="M137.566,152.13c0-0.267,0.016-0.53,0.04-0.79l-6.026-5.502c-0.753-0.687-1.917-0.646-2.619,0.092
					l-15.687,16.492c-0.77,0.81-0.78,2.078-0.022,2.899l8.157,8.837c0.936,1.014,2.552,0.97,3.431-0.094l12.725-15.404V152.13z"/>
			</g>
		</g>
		<g>
			<g>
				<path class="st1" d="M78.418,153.265l8.134-7.427c0.753-0.687,1.917-0.646,2.619,0.092l15.687,16.491
					c0.77,0.81,0.78,2.078,0.022,2.899l-8.157,8.837c-0.936,1.014-2.552,0.97-3.431-0.094L78.237,155.84
					C77.601,155.071,77.681,153.938,78.418,153.265z"/>
			</g>
		</g>
		<g>
			<g>
				<path class="st6" d="M120.723,234.89l-6.636-62.715c-1.467,0.886-3.181,1.406-5.021,1.406s-3.553-0.519-5.021-1.406
					l-6.649,62.836c-0.135,1.272,0.19,2.55,0.916,3.604l10.254,14.885l11.116-14.833
					C120.494,237.585,120.865,236.235,120.723,234.89z"/>
			</g>
		</g>
		<g>
			<g>
				<g>
					<path class="st6" d="M113.253,165.321c-0.376-0.408-0.562-0.926-0.561-1.443v0c-1.371,0.155-2.756,0.26-4.167,0.26h0
						c-1.043,0-2.072-0.058-3.094-0.143c-0.025,0.478-0.203,0.949-0.551,1.326l-3.784,4.1c1.76,2.513,4.67,4.161,7.971,4.161
						s6.211-1.647,7.971-4.161L113.253,165.321z"/>
				</g>
			</g>
		</g>
		<g>
			<g>
				<path d="M108.524,141.638c-21.898,0-39.715-17.816-39.715-39.715V71.987c0.001-1.37,0.603-2.627,1.649-3.478
					c1.059-0.859,2.431-1.193,3.765-0.914c7.237,1.515,25.417,3.34,37.917-12.379l0.001,0c0.796-1,1.981-1.619,3.253-1.698
					c1.274-0.084,2.521,0.389,3.432,1.281c2.593,2.542,10.225,8.501,25.06,8.936c2.392,0.071,4.301,2.007,4.348,4.407
					c0.004,0.208,0.007,0.418,0.007,0.63v33.151C148.24,123.822,130.424,141.638,108.524,141.638z M73.81,72.613v29.311
					c0,19.142,15.573,34.715,34.715,34.715c19.143,0,34.716-15.573,34.716-34.715V68.772c0-0.019,0-0.038,0-0.056
					c-15.154-0.563-23.627-6.308-27.522-9.97C101.529,76.144,80.797,73.963,73.81,72.613z M116.055,58.329
					C116.054,58.329,116.054,58.329,116.055,58.329L116.055,58.329z"/>
			</g>
		</g>
		<g>
			<g>
				<g>
					<path d="M158.904,79.667c-1.381,0-2.5-1.119-2.5-2.5V49.973c0-10.343-8.415-18.758-18.758-18.758
						c-3.344,0-6.654,0.925-9.574,2.675c-0.568,0.341-1.251,0.44-1.893,0.281c-0.644-0.161-1.196-0.571-1.537-1.14
						c-3.396-5.668-9.561-9.19-16.086-9.19H97.641c-19.803,0-35.913,16.111-35.913,35.914v16.37c0,1.381-1.119,2.5-2.5,2.5
						s-2.5-1.119-2.5-2.5v-16.37c0-22.56,18.354-40.914,40.913-40.914h10.916c7.481,0,14.581,3.641,19.048,9.638
						c3.15-1.487,6.579-2.264,10.042-2.264c13.101,0,23.758,10.658,23.758,23.758v27.193
						C161.404,78.547,160.285,79.667,158.904,79.667z"/>
				</g>
			</g>
		</g>
		<g>
			<g>
				<path d="M148.128,107.136c-0.611,0-1.229-0.037-1.89-0.112c-1.371-0.156-2.357-1.395-2.201-2.767
					c0.156-1.372,1.39-2.359,2.768-2.201c0.471,0.054,0.903,0.08,1.323,0.08c7.188,0,13.037-5.849,13.037-13.038
					s-5.849-13.038-13.037-13.038c-0.387,0-0.769,0.019-1.146,0.054c-1.392,0.12-2.593-0.887-2.718-2.262
					c-0.126-1.375,0.887-2.592,2.261-2.718c0.539-0.049,1.079-0.074,1.604-0.074c9.945,0,18.037,8.092,18.037,18.038
					S158.073,107.136,148.128,107.136z"/>
			</g>
		</g>
		<g>
			<g>
				<path d="M68.922,107.136c-9.946,0-18.038-8.092-18.038-18.038s8.092-18.038,18.038-18.038c0.564,0,1.145,0.029,1.723,0.086
					c1.374,0.135,2.378,1.358,2.243,2.732c-0.136,1.374-1.346,2.375-2.733,2.243c-0.416-0.041-0.831-0.062-1.232-0.062
					c-7.189,0-13.038,5.849-13.038,13.038s5.849,13.038,13.038,13.038c0.462,0,0.941-0.032,1.466-0.096
					c1.385-0.173,2.619,0.805,2.788,2.174c0.169,1.371-0.805,2.619-2.175,2.788C70.271,107.092,69.591,107.136,68.922,107.136z"/>
			</g>
		</g>
		<g>
			<g>
				<path d="M109.066,118.573c-4.777,0-9.263-1.95-11.999-5.215c-0.887-1.059-0.748-2.635,0.311-3.522s2.636-0.748,3.521,0.31
					c1.798,2.146,4.852,3.427,8.167,3.427s6.368-1.281,8.166-3.426c0.888-1.058,2.466-1.196,3.521-0.31
					c1.059,0.887,1.197,2.464,0.311,3.522C118.328,116.624,113.843,118.573,109.066,118.573z"/>
			</g>
		</g>
		<g>
			<g>
				<circle cx="125.855" cy="90.816" r="5"/>
			</g>
		</g>
		<g>
			<g>
				<circle cx="92.276" cy="90.816" r="5"/>
			</g>
		</g>
		<g>
			<g>
				<path d="M146.196,256H34.517c-1.801,0-3.544-0.75-4.781-2.059c-1.238-1.309-1.891-3.091-1.791-4.89l4.114-70.957
					c0.421-7.545,5.631-13.859,12.965-15.705l28.645-7.209l2.82-1.391c1.239-0.61,2.737-0.103,3.348,1.137
					c0.61,1.238,0.102,2.737-1.137,3.348l-3.059,1.508c-0.158,0.078-0.324,0.139-0.495,0.182l-28.901,7.274
					c-5.2,1.309-8.896,5.786-9.193,11.14l-4.114,70.957c-0.024,0.433,0.129,0.851,0.431,1.17S34.077,251,34.517,251h111.68
					c1.381,0,2.5,1.119,2.5,2.5S147.577,256,146.196,256z"/>
			</g>
		</g>
		<g>
			<g>
				<path d="M57.521,255.04c-1.381,0-2.5-1.119-2.5-2.5v-56.644c0-1.381,1.119-2.5,2.5-2.5s2.5,1.119,2.5,2.5v56.644
					C60.021,253.92,58.902,255.04,57.521,255.04z"/>
			</g>
		</g>
		<g>
			<g>
				<path d="M127.491,149.05c-0.93,0-1.822-0.521-2.253-1.414c-0.999-2.069-1.527-4.374-1.527-6.665v-5.514
					c0-1.381,1.119-2.5,2.5-2.5s2.5,1.119,2.5,2.5v5.514c0,1.564,0.347,3.075,1.029,4.491c0.601,1.244,0.079,2.738-1.164,3.338
					C128.226,148.97,127.855,149.05,127.491,149.05z"/>
			</g>
		</g>
		<g>
			<g>
				<path d="M108.524,166.638c-0.803,0-1.646-0.031-2.574-0.096c-1.378-0.096-2.417-1.29-2.321-2.667
					c0.096-1.378,1.319-2.41,2.667-2.321c0.813,0.057,1.542,0.084,2.229,0.084c1.051,0,2.178-0.064,3.445-0.196
					c1.379-0.142,2.603,0.855,2.745,2.228c0.144,1.373-0.854,2.603-2.228,2.745C111.046,166.565,109.75,166.638,108.524,166.638z"/>
			</g>
		</g>
		<g>
			<g>
				<path d="M90.736,148.848c-0.351,0-0.707-0.074-1.046-0.23c-1.254-0.579-1.801-2.064-1.222-3.318
					c0.632-1.369,0.952-2.825,0.952-4.327v-5.222c0-1.381,1.119-2.5,2.5-2.5s2.5,1.119,2.5,2.5v5.222
					c0,2.231-0.476,4.392-1.413,6.423C92.586,148.309,91.682,148.848,90.736,148.848z"/>
			</g>
		</g>
		<g>
			<g>
				<path class="st5" d="M190.827,140.575h-18.522c-2.427,0-4.394,1.967-4.394,4.394v7.142c0,2.427,1.967,4.394,4.394,4.394h18.522
					c2.427,0,4.394-1.967,4.394-4.394v-7.142C195.221,142.543,193.254,140.575,190.827,140.575z"/>
			</g>
		</g>
		<g>
			<g>
				<path class="st1" d="M215.566,226.941v-72.72c0-0.398-0.323-0.721-0.721-0.721h-19.869c-0.583,1.742-2.21,3.006-4.149,3.006
					h-18.522c-1.939,0-3.566-1.264-4.149-3.006h-19.869c-0.398,0-0.721,0.323-0.721,0.721v88.557c0,0.398,0.323,0.721,0.721,0.721
					h50.72L215.566,226.941z"/>
			</g>
		</g>
		<g>
			<g>
				<path d="M216.936,256h-70.739c-6.138,0-11.131-4.993-11.131-11.13V152.13c0-6.137,4.993-11.13,11.131-11.13h21.554
					c1.381,0,2.5,1.119,2.5,2.5s-1.119,2.5-2.5,2.5h-21.554c-3.381,0-6.131,2.75-6.131,6.13v92.739c0,3.38,2.75,6.13,6.131,6.13
					h70.739c3.38,0,6.13-2.75,6.13-6.13V152.13c0-3.38-2.75-6.13-6.13-6.13H195.5c-1.381,0-2.5-1.119-2.5-2.5s1.119-2.5,2.5-2.5
					h21.436c6.137,0,11.13,4.993,11.13,11.13v92.739C228.065,251.007,223.072,256,216.936,256z"/>
			</g>
		</g>
		<g>
			<g>
				<path d="M190.827,159.006h-18.522c-3.801,0-6.894-3.093-6.894-6.894v-7.143c0-3.802,3.093-6.895,6.894-6.895h18.522
					c3.801,0,6.894,3.093,6.894,6.895v7.143C197.721,155.914,194.628,159.006,190.827,159.006z M172.305,143.075
					c-1.044,0-1.894,0.85-1.894,1.895v7.143c0,1.044,0.85,1.894,1.894,1.894h18.522c1.044,0,1.894-0.85,1.894-1.894v-7.143
					c0-1.044-0.85-1.895-1.894-1.895H172.305z"/>
			</g>
		</g>
		<g>
			<g>
				<path d="M186.658,142.47c-1.381,0-2.5-1.119-2.5-2.5v-3.695c0-1.429-1.163-2.592-2.593-2.592c-1.429,0-2.592,1.163-2.592,2.592
					v3.6c0,1.381-1.119,2.5-2.5,2.5s-2.5-1.119-2.5-2.5v-3.6c0-4.187,3.405-7.592,7.592-7.592s7.593,3.406,7.593,7.592v3.695
					C189.158,141.351,188.039,142.47,186.658,142.47z"/>
			</g>
		</g>
		<g>
			<g>
				<path d="M164.565,168h-5c-1.381,0-2.5-1.119-2.5-2.5s1.119-2.5,2.5-2.5h5c1.381,0,2.5,1.119,2.5,2.5S165.946,168,164.565,168z"
					/>
			</g>
		</g>
		<g>
			<g>
				<path d="M199.007,246h-50.72c-1.776,0-3.222-1.445-3.222-3.221v-88.558c0-1.776,1.445-3.221,3.222-3.221h19.171
					c1.381,0,2.5,1.119,2.5,2.5s-1.119,2.5-2.5,2.5h-17.393v85h47.906l15.094-15.095V156h-17.19c-1.381,0-2.5-1.119-2.5-2.5
					s1.119-2.5,2.5-2.5h18.97c1.776,0,3.221,1.445,3.221,3.221v72.72c0,0.663-0.264,1.299-0.732,1.768l-16.559,16.559
					C200.306,245.737,199.67,246,199.007,246z"/>
			</g>
		</g>
		<g>
			<g>
				<g>
					<path class="st9" d="M162.644,217.66c-2.421,0-4.383-1.963-4.383-4.383V198.23c0-2.421,1.962-4.383,4.383-4.383
						s4.383,1.963,4.383,4.383v15.046C167.027,215.697,165.065,217.66,162.644,217.66z"/>
				</g>
			</g>
		</g>
		<g>
			<g>
				<g>
					<path class="st6" d="M175.092,217.66c-2.421,0-4.383-1.963-4.383-4.383v-9.129c0-2.421,1.962-4.383,4.383-4.383
						s4.383,1.963,4.383,4.383v9.129C179.475,215.697,177.513,217.66,175.092,217.66z"/>
				</g>
			</g>
		</g>
		<g>
			<g>
				<g>
					<path class="st7" d="M187.54,217.66c-2.421,0-4.383-1.963-4.383-4.383v-21.556c0-2.421,1.962-4.383,4.383-4.383
						c2.421,0,4.383,1.963,4.383,4.383v21.556C191.923,215.697,189.961,217.66,187.54,217.66z"/>
				</g>
			</g>
		</g>
		<g>
			<g>
				<g>
					<path class="st8" d="M199.988,217.66c-2.421,0-4.383-1.963-4.383-4.383v-31.191c0-2.421,1.962-4.383,4.383-4.383
						c2.421,0,4.383,1.963,4.383,4.383v31.191C204.372,215.697,202.409,217.66,199.988,217.66z"/>
				</g>
			</g>
		</g>
		<g>
			<g>
				<path d="M199.007,245.438c-1.381,0-2.5-1.119-2.5-2.5v-15.276c0-1.776,1.445-3.221,3.222-3.221h15.375
					c1.381,0,2.5,1.119,2.5,2.5s-1.119,2.5-2.5,2.5h-13.597v13.497C201.507,244.319,200.388,245.438,199.007,245.438z"/>
			</g>
		</g>
		<g>
			<g>
				<g>
					<path d="M162.644,220.16c-3.796,0-6.884-3.088-6.884-6.883V198.23c0-3.795,3.088-6.883,6.884-6.883s6.884,3.088,6.884,6.883
						v15.046C169.527,217.072,166.439,220.16,162.644,220.16z M162.644,196.347c-1.039,0-1.884,0.845-1.884,1.883v15.046
						c0,1.039,0.845,1.883,1.884,1.883s1.884-0.845,1.884-1.883V198.23C164.527,197.192,163.683,196.347,162.644,196.347z"/>
				</g>
			</g>
		</g>
		<g>
			<g>
				<g>
					<path d="M175.092,220.16c-3.796,0-6.884-3.088-6.884-6.883v-9.129c0-3.795,3.088-6.883,6.884-6.883s6.884,3.088,6.884,6.883
						v9.129C181.976,217.072,178.888,220.16,175.092,220.16z M175.092,202.265c-1.039,0-1.884,0.845-1.884,1.883v9.129
						c0,1.039,0.845,1.883,1.884,1.883s1.884-0.845,1.884-1.883v-9.129C176.976,203.109,176.131,202.265,175.092,202.265z"/>
				</g>
			</g>
		</g>
		<g>
			<g>
				<g>
					<path d="M187.54,220.16c-3.796,0-6.884-3.088-6.884-6.883v-21.556c0-3.795,3.088-6.883,6.884-6.883s6.884,3.088,6.884,6.883
						v21.556C194.424,217.072,191.336,220.16,187.54,220.16z M187.54,189.837c-1.039,0-1.884,0.845-1.884,1.883v21.556
						c0,1.039,0.845,1.883,1.884,1.883s1.884-0.845,1.884-1.883v-21.556C189.424,190.682,188.579,189.837,187.54,189.837z"/>
				</g>
			</g>
		</g>
		<g>
			<g>
				<g>
					<path d="M199.988,220.16c-3.796,0-6.884-3.088-6.884-6.883v-31.191c0-3.795,3.088-6.883,6.884-6.883s6.884,3.088,6.884,6.883
						v31.191C206.872,217.072,203.784,220.16,199.988,220.16z M199.988,180.203c-1.039,0-1.884,0.845-1.884,1.883v31.191
						c0,1.039,0.845,1.883,1.884,1.883s1.884-0.845,1.884-1.883v-31.191C201.872,181.047,201.027,180.203,199.988,180.203z"/>
				</g>
			</g>
		</g>
		<g>
			<g>
				<path class="st7" d="M184.822,28.33c-4.498-0.838-8.043-4.31-8.898-8.716c-0.043-0.221-0.352-0.221-0.395,0
					c-0.855,4.406-4.4,7.879-8.898,8.716c-0.226,0.042-0.226,0.345,0,0.387c4.498,0.838,8.043,4.31,8.898,8.717
					c0.043,0.221,0.352,0.221,0.395,0c0.855-4.406,4.4-7.879,8.898-8.717C185.047,28.675,185.047,28.373,184.822,28.33z"/>
			</g>
		</g>
		<g>
			<g>
				<path class="st9" d="M183.515,112.101c-2.862-0.533-5.118-2.743-5.663-5.547c-0.027-0.141-0.224-0.141-0.251,0
					c-0.544,2.804-2.8,5.014-5.663,5.547c-0.144,0.027-0.144,0.219,0,0.246c2.862,0.533,5.118,2.743,5.663,5.547
					c0.027,0.141,0.224,0.141,0.251,0c0.544-2.804,2.8-5.014,5.663-5.547C183.658,112.32,183.658,112.128,183.515,112.101z"/>
			</g>
		</g>
		<g>
			<g>
				<path class="st8" d="M44.246,120.75h2.33v-2.33c0-1.744,1.413-3.157,3.157-3.157c1.744,0,3.157,1.413,3.157,3.157v2.33h2.329
					c1.744,0,3.157,1.413,3.157,3.157s-1.413,3.157-3.157,3.157h-2.329v2.33c0,1.744-1.413,3.157-3.157,3.157
					c-1.744,0-3.157-1.413-3.157-3.157v-2.33h-2.33c-1.744,0-3.157-1.413-3.157-3.157S42.502,120.75,44.246,120.75z"/>
			</g>
		</g>
		<g>
			<g>
				<circle class="st7" cx="34.755" cy="152.825" r="3.377"/>
			</g>
		</g>
		<g>
			<g>
				<circle class="st6" cx="158.755" cy="3.377" r="3.377"/>
			</g>
		</g>
		<g>
			<g>
				<path d="M123.084,177.391c-1.332,0-2.605-0.556-3.512-1.537l-8.156-8.837c-1.647-1.785-1.626-4.561,0.048-6.319l15.686-16.491
					c1.629-1.711,4.372-1.807,6.116-0.216l5.48,5.004c1.02,0.931,1.092,2.512,0.161,3.532c-0.931,1.019-2.513,1.093-3.532,0.161
					l-5.026-4.589l-15.018,15.788l7.743,8.39l11.97-14.49c0.88-1.065,2.456-1.214,3.52-0.335c1.064,0.879,1.215,2.455,0.336,3.52
					l-12.131,14.685c-0.878,1.063-2.173,1.695-3.552,1.733C123.173,177.39,123.128,177.391,123.084,177.391z"/>
			</g>
		</g>
		<g>
			<g>
				<path d="M95.048,177.391c-0.044,0-0.087,0-0.131-0.002c-1.38-0.038-2.675-0.669-3.554-1.734l-15.055-18.223
					c-1.486-1.798-1.3-4.439,0.424-6.013l8.134-7.427c1.741-1.592,4.486-1.497,6.115,0.214l15.688,16.492
					c1.673,1.759,1.693,4.534,0.047,6.318l-8.157,8.837C97.654,176.835,96.38,177.391,95.048,177.391z M80.545,154.708
					l14.512,17.567l7.744-8.389l-15.018-15.788L80.545,154.708z M80.104,155.111L80.104,155.111L80.104,155.111
					C80.104,155.111,80.104,155.111,80.104,155.111z M78.418,153.265h0.01H78.418z"/>
			</g>
		</g>
		<g>
			<g>
				<path d="M108.565,256c-0.017,0-0.033,0-0.05,0c-0.805-0.016-1.553-0.418-2.009-1.081l-10.254-14.885
					c-1.063-1.542-1.54-3.419-1.344-5.284l6.575-62.139c0.146-1.373,1.391-2.363,2.749-2.223c1.373,0.146,2.369,1.376,2.224,2.75
					l-6.575,62.137c-0.071,0.678,0.102,1.361,0.488,1.922l8.281,12.021l9.031-12.049c0.433-0.579,0.63-1.295,0.554-2.014
					l-6.567-62.07c-0.146-1.373,0.851-2.604,2.224-2.75c1.362-0.139,2.604,0.85,2.749,2.223l6.567,62.07
					c0.209,1.978-0.332,3.945-1.524,5.539L110.565,255C110.094,255.63,109.352,256,108.565,256z"/>
			</g>
		</g>
		<g>
			<g>
				<g>
					<path d="M109.065,176.081c-3.638,0-7.063-1.608-9.396-4.412c-0.883-1.062-0.738-2.638,0.322-3.521
						c1.062-0.882,2.637-0.739,3.521,0.323c1.38,1.659,3.404,2.61,5.553,2.61c2.181,0,4.224-0.975,5.606-2.674
						c0.87-1.07,2.444-1.233,3.518-0.362c1.07,0.872,1.232,2.446,0.361,3.517C116.214,174.434,112.757,176.081,109.065,176.081z"/>
				</g>
			</g>
		</g>
	</g>
</g>
<g id="Layer_26">
</g>
<g id="Layer_27">
</g>
<g id="Layer_28">
</g>
<g id="Layer_29">
</g>
<g id="Layer_30">
</g>
<g id="Layer_31">
</g>
<g id="Layer_32">
</g>
<g id="Layer_33">
</g>
<g id="Layer_34">
</g>
<g id="Layer_35">
</g>
<g id="Layer_36">
</g>
<g id="Layer_37">
</g>
<g id="Layer_38">
</g>
<g id="Layer_39">
</g>
<g id="Layer_40">
</g>
<g id="Layer_41">
</g>
<g id="Layer_42">
</g>
<g id="Layer_43">
</g>
<g id="Layer_44">
</g>
<g id="Layer_45">
</g>
<g id="Layer_46">
</g>
<g id="Layer_47">
</g>
<g id="Layer_48">
</g>
<g id="Layer_49">
</g>
<g id="Layer_50">
</g>
<g id="Layer_51">
</g>
<g id="Layer_52">
</g>
<g id="Layer_53">
</g>
<g id="Layer_54">
</g>
<g id="Layer_55">
</g>
<g id="Layer_56">
</g>
<g id="Layer_57">
</g>
<g id="Layer_58">
</g>
<g id="Layer_59">
</g>
<g id="Layer_60">
</g>
<g id="Layer_61">
</g>
<g id="Layer_62">
</g>
<g id="Layer_63">
</g>
<g id="Layer_64">
</g>
<g id="Layer_65">
</g>
<g id="Layer_66">
</g>
<g id="Layer_67">
</g>
<g id="Layer_68">
</g>
<g id="Layer_69">
</g>
<g id="Layer_70">
</g>
<g id="Layer_71">
</g>
<g id="Layer_72">
</g>
<g id="Layer_73">
</g>
<g id="Layer_74">
</g>
<g id="Layer_75">
</g>
<g id="Layer_76">
</g>
<g id="Layer_77">
</g>
<g id="Layer_78">
</g>
<g id="Layer_79">
</g>
<g id="Layer_80">
</g>
</svg>
