<?xml version="1.0" encoding="utf-8"?>
<!-- Generator: Adobe Illustrator 24.0.0, SVG Export Plug-In . SVG Version: 6.00 Build 0)  -->
<svg version="1.1" xmlns="http://www.w3.org/2000/svg" xmlns:xlink="http://www.w3.org/1999/xlink" x="0px" y="0px"
	 viewBox="0 0 256 256" style="enable-background:new 0 0 256 256;" xml:space="preserve">
<style type="text/css">
	.st0{fill:#3A70BF;}
	.st1{fill:#EDF4FC;}
	.st2{fill:#C7D7E5;}
	.st3{fill:#F9D0B4;}
	.st4{fill:#5B5D60;}
	.st5{fill:#5290DB;}
	.st6{fill:#70D6F9;}
	.st7{fill:#F5C84C;}
	.st8{fill:#FC657E;}
	.st9{fill:#87D147;}
	.st10{fill:#FCDD86;}
	.st11{fill:#9BE5F9;}
	.st12{fill:#B2E26D;}
	.st13{fill:#754E34;}
	.st14{fill:#FCA265;}
	.st15{fill:#818182;}
	.st16{fill:#F94EED;}
	.st17{fill:#FFC197;}
	.st18{fill:#3CAADC;}
	.st19{fill:#DAE6F1;}
	.st20{fill:#57AF12;}
	.st21{fill:#EF4460;}
	.st22{fill:#FFF0CA;}
	.st23{fill:#F98FA6;}
	.st24{fill:#EDB311;}
	.st25{fill:#FC8C48;}
	.st26{fill:#FCB9CB;}
	.st27{fill:#96BC71;}
	.st28{fill:#78A352;}
	.st29{fill:#B8DD90;}
	.st30{fill:#6FAFEF;}
	.st31{fill:#29589F;}
	.st32{fill:#414344;}
	.st33{fill:#9B6B4B;}
	.st34{fill:#73B1EF;}
</style>
<g id="Layer_1">
</g>
<g id="Layer_2">
</g>
<g id="Layer_3">
</g>
<g id="Layer_4">
</g>
<g id="Layer_5">
</g>
<g id="Layer_6">
</g>
<g id="Layer_7">
</g>
<g id="Layer_8">
</g>
<g id="Layer_9">
</g>
<g id="Layer_10">
</g>
<g id="Layer_11">
</g>
<g id="Layer_12">
</g>
<g id="Layer_13">
</g>
<g id="Layer_14">
</g>
<g id="Layer_15">
</g>
<g id="Layer_16">
</g>
<g id="Layer_17">
</g>
<g id="Layer_18">
</g>
<g id="Layer_19">
</g>
<g id="Layer_20">
</g>
<g id="Layer_21">
</g>
<g id="Layer_22">
</g>
<g id="Layer_23">
</g>
<g id="Layer_24">
</g>
<g id="Layer_25">
</g>
<g id="Layer_26">
	<g>
		<g>
			<g>
				<path class="st3" d="M145.125,71.985c-0.759,0-1.502,0.064-2.229,0.177c0,3.696,0,20.799,0,26.293v0v0
					c0,0.783-0.036,1.558-0.088,2.329c0.756,0.122,1.526,0.202,2.316,0.202c8.009,0,14.501-6.492,14.501-14.501
					C159.625,78.477,153.133,71.985,145.125,71.985z"/>
			</g>
		</g>
		<g>
			<g>
				<path class="st3" d="M124.777,60.642c-5.29,6.174-24.047,24.906-51.344,17.13v20.684c0,19.102,15.629,34.732,34.732,34.732l0,0
					c19.102,0,34.732-15.629,34.732-34.732v-28.06c0-1.276-0.893-2.358-2.136-2.646c-3.515-0.814-7.782-2.85-12.673-7.294
					C127.119,59.577,125.627,59.649,124.777,60.642z"/>
			</g>
		</g>
		<g>
			<g>
				<path class="st3" d="M73.433,77.771c-2.385-0.679-4.834-1.559-7.346-2.668c-1.619-0.715-3.511-0.386-4.803,0.825
					c-2.817,2.641-4.581,6.39-4.581,10.557c0,8.008,6.492,14.501,14.501,14.501c0.79,0,1.56-0.08,2.316-0.202
					c-0.052-0.771-0.088-1.546-0.088-2.329V77.771z"/>
			</g>
		</g>
		<g>
			<g>
				<g>
					<path class="st4" d="M61.284,75.929c1.291-1.211,3.183-1.54,4.803-0.825c2.512,1.109,4.961,1.988,7.346,2.668
						c27.297,7.776,46.055-10.956,51.344-17.13c0.85-0.992,2.342-1.065,3.309-0.186c4.892,4.445,9.159,6.48,12.673,7.294
						c1.243,0.288,2.136,1.37,2.136,2.646v1.766c0.727-0.113,1.47-0.177,2.229-0.177c4.012,0,7.643,1.63,10.268,4.263v-8.494
						c0-25.976-21.253-47.229-47.229-47.229c-25.976,0-47.229,21.253-47.229,47.229v8.535
						C61.053,76.171,61.162,76.043,61.284,75.929z"/>
				</g>
			</g>
		</g>
		<g>
			<g>
				<path class="st4" d="M143.295,143.5h13.848c4.199-7.97,1.316-15.494-0.545-18.967c-0.693-1.292-0.573-2.841,0.215-4.077
					c6.634-10.404,3.501-20.533,0.574-26.254c-2.568,4.072-7.093,6.786-12.263,6.786c-0.79,0-1.56-0.081-2.316-0.202
					c-0.816,12.152-7.945,22.646-18.124,28.194v10.533c0,3.372,1.769,6.458,4.604,8.204c0.955,0.588,0.091,0.103,5.536,2.791
					C135.59,146.53,139.103,143.5,143.295,143.5z"/>
			</g>
		</g>
		<g>
			<g>
				<path class="st4" d="M59.731,124.533c-1.971,3.678-5.097,11.894,0.259,20.374c2.921,4.625,7.43,7.595,12.542,9.466
					c0.265-0.075,0.531-0.147,0.794-0.229l0,0c1.325-0.415,3.044-1.095,4.346-1.737c10.303-5.125,8.318-4.043,9.369-4.691l0,0
					c2.834-1.746,4.604-4.832,4.604-8.204v-10.533c-10.179-5.548-17.309-16.042-18.124-28.194c-0.756,0.122-1.526,0.202-2.316,0.202
					c-5.17,0-9.695-2.714-12.262-6.786c-2.926,5.721-6.06,15.851,0.574,26.254C60.304,121.692,60.423,123.241,59.731,124.533z"/>
			</g>
		</g>
		<g>
			<g>
				<path class="st1" d="M102.937,159.612l-14.797-12.683c-0.574,0.476-1.194,0.905-1.881,1.244l-8.587,4.234
					c-0.741,0.365-1.499,0.69-2.266,0.993c0.458,9.392,2.685,26.56,12.901,25.101c8.708-1.244,13.547-7.13,15.961-11.403
					C105.674,164.608,105.108,161.473,102.937,159.612z"/>
			</g>
		</g>
		<g>
			<g>
				<path class="st1" d="M134.664,152.13c0-0.552,0.058-1.091,0.158-1.615l-4.752-2.343c-0.687-0.339-1.307-0.768-1.881-1.244
					l-14.797,12.683c-2.171,1.861-2.738,4.996-1.331,7.486c2.414,4.272,7.253,10.159,15.961,11.403
					c2.756,0.394,4.927-0.576,6.642-2.376V152.13z"/>
			</g>
		</g>
		<g>
			<g>
				<path class="st3" d="M88.138,146.929c0,0,0.001-0.001,0.002-0.001l14.797,12.683c1.188,1.019,1.876,2.421,2.043,3.888h6.37
					c0.166-1.467,0.854-2.87,2.043-3.888l14.797-12.683c-2.182-1.81-3.505-4.505-3.505-7.416v-10.533
					c-4.92,2.682-10.551,4.208-16.52,4.208c-5.97,0-11.6-1.526-16.52-4.208v10.533C91.644,142.423,90.32,145.12,88.138,146.929z"/>
			</g>
		</g>
		<g>
			<g>
				<path class="st6" d="M134.664,244.87v-68.746c-1.715,1.8-3.886,2.77-6.642,2.376c-8.708-1.244-13.547-7.13-15.961-11.403
					c-0.637-1.127-0.849-2.384-0.712-3.597h-6.37c0.138,1.213-0.075,2.47-0.712,3.597c-2.414,4.272-7.253,10.159-15.961,11.403
					c-10.216,1.459-12.443-15.709-12.901-25.101l0.001,0c-1.221,0.483-2.469,0.896-3.743,1.216l-24.833,6.269
					c-6.044,1.521-10.396,6.796-10.743,13.019l-2.744,75.418c-0.127,2.269,1.68,4.179,3.953,4.179h21.99
					c1.478,0,2.677-1.198,2.677-2.677v-47.143l3.883,12.439c2.539,8.133,3.83,16.604,3.83,25.124v9.58
					c0,1.478,1.198,2.677,2.677,2.677c11.103,0,59.889,0,70.944,0C138.548,253.5,134.664,249.616,134.664,244.87z"/>
			</g>
		</g>
		<g>
			<g>
				<circle class="st1" cx="108.164" cy="187.5" r="5"/>
			</g>
		</g>
		<g>
			<g>
				<circle class="st1" cx="108.164" cy="211.5" r="5"/>
			</g>
		</g>
		<g>
			<g>
				<circle class="st1" cx="108.164" cy="235.5" r="5"/>
			</g>
		</g>
		<g>
			<g>
				<path d="M145.125,103.487c-0.603,0-1.216-0.038-1.874-0.116c-1.371-0.163-2.351-1.406-2.188-2.777
					c0.163-1.371,1.401-2.355,2.777-2.188c0.461,0.055,0.881,0.081,1.285,0.081c6.617,0,12.001-5.384,12.001-12.001
					c0-6.998-6.016-12.659-13.159-11.941c-1.378,0.142-2.6-0.863-2.739-2.236c-0.139-1.374,0.862-2.6,2.236-2.739
					c0.555-0.056,1.113-0.084,1.661-0.084c9.375,0,17.001,7.626,17.001,17C162.125,95.86,154.499,103.487,145.125,103.487z"/>
			</g>
		</g>
		<g>
			<g>
				<path d="M108.164,135.687c-20.529,0-37.231-16.702-37.231-37.232V77.771c0-0.784,0.368-1.523,0.994-1.995
					c0.626-0.473,1.438-0.624,2.191-0.409c25.919,7.383,43.875-10.65,48.761-16.352l0,0c0.849-0.991,2.033-1.581,3.333-1.663
					c1.292-0.079,2.591,0.376,3.556,1.253c3.952,3.59,7.84,5.848,11.557,6.709c2.397,0.556,4.072,2.645,4.072,5.081v28.06
					C145.396,118.985,128.694,135.687,108.164,135.687z M75.933,80.979v17.476c0,17.773,14.459,32.232,32.231,32.232
					c17.773,0,32.232-14.459,32.232-32.232v-28.06c0-0.113-0.101-0.187-0.201-0.21c-4.515-1.046-9.109-3.656-13.656-7.759
					C121.181,68.626,102.753,86.86,75.933,80.979z M126.675,62.268C126.675,62.269,126.675,62.269,126.675,62.268L126.675,62.268z"
					/>
			</g>
		</g>
		<g>
			<g>
				<path d="M71.204,103.487c-9.374,0-17-7.626-17-17.001c0-4.667,1.958-9.18,5.371-12.381c2.031-1.904,4.983-2.409,7.523-1.288
					c2.331,1.029,4.693,1.888,7.02,2.55c1.328,0.378,2.098,1.761,1.72,3.089c-0.378,1.328-1.762,2.1-3.089,1.72
					c-2.549-0.726-5.129-1.663-7.671-2.785c-0.702-0.311-1.519-0.168-2.083,0.361c-2.444,2.292-3.791,5.394-3.791,8.733
					c0,6.617,5.383,12.001,12,12.001c0.318,0,0.631-0.017,0.941-0.045c1.383-0.127,2.592,0.885,2.719,2.259
					c0.127,1.375-0.885,2.592-2.259,2.719C72.143,103.463,71.677,103.487,71.204,103.487z"/>
			</g>
		</g>
		<g>
			<g>
				<g>
					<path d="M60.936,78.598c-1.381,0-2.5-1.119-2.5-2.5v-8.343c0-27.421,22.308-49.729,49.729-49.729
						c27.421,0,49.729,22.308,49.729,49.729v7.953c0,1.381-1.119,2.5-2.5,2.5s-2.5-1.119-2.5-2.5v-7.953
						c0-24.664-20.065-44.729-44.729-44.729S63.436,43.091,63.436,67.755v8.343C63.436,77.479,62.316,78.598,60.936,78.598z"/>
				</g>
			</g>
		</g>
		<g>
			<g>
				<path d="M108.164,117.757c-4.776,0-9.262-1.95-11.999-5.215c-0.887-1.058-0.748-2.635,0.31-3.522
					c1.059-0.888,2.635-0.747,3.522,0.31c1.798,2.146,4.852,3.427,8.167,3.427c3.315,0,6.369-1.281,8.167-3.427
					c0.887-1.058,2.463-1.198,3.522-0.31c1.058,0.887,1.197,2.464,0.31,3.522C117.426,115.808,112.94,117.757,108.164,117.757z"/>
			</g>
		</g>
		<g>
			<g>
				<circle cx="123.275" cy="90.5" r="4.5"/>
			</g>
		</g>
		<g>
			<g>
				<circle cx="93.054" cy="90.5" r="4.5"/>
			</g>
		</g>
		<g>
			<g>
				<path d="M157.448,145.393c-0.365,0-0.736-0.08-1.087-0.25c-1.243-0.602-1.763-2.096-1.162-3.339
					c3.228-6.671,0.881-12.944-0.805-16.09c-1.099-2.049-0.979-4.58,0.312-6.603c5.614-8.805,3.524-17.43,0.782-23.116
					c-0.6-1.244-0.078-2.738,1.166-3.338c1.244-0.598,2.738-0.078,3.338,1.166c2.697,5.592,6.144,16.662-1.07,27.977
					c-0.324,0.508-0.369,1.087-0.12,1.551c2.136,3.985,5.093,11.963,0.899,20.63C159.269,144.874,158.376,145.393,157.448,145.393z"
					/>
			</g>
		</g>
		<g>
			<g>
				<path d="M71.088,156.308c-0.321,0-0.648-0.062-0.963-0.194c-5.421-2.266-9.542-5.588-12.248-9.873
					c-6.16-9.753-2.296-19.256-0.349-22.89c0.249-0.464,0.204-1.044-0.12-1.552c-7.243-11.359-3.749-22.466-1.022-28.077
					c0.604-1.241,2.1-1.758,3.342-1.155c1.242,0.604,1.759,2.1,1.155,3.342c-2.773,5.705-4.896,14.361,0.741,23.202
					c1.29,2.023,1.409,4.553,0.311,6.602c-1.905,3.554-4.416,10.599,0.169,17.858c2.146,3.399,5.494,6.067,9.949,7.929
					c1.273,0.533,1.875,1.997,1.342,3.271C72.995,155.73,72.066,156.308,71.088,156.308z"/>
			</g>
		</g>
		<g>
			<g>
				<path d="M87.132,181.085c-2.302,0-4.439-0.77-6.25-2.266c-5.804-4.791-7.539-16.402-7.973-25.299
					c-0.052-1.069,0.583-2.054,1.579-2.447c0.791-0.313,1.471-0.61,2.078-0.91l8.587-4.234c0.455-0.225,0.91-0.527,1.391-0.927
					c0.937-0.777,2.298-0.767,3.223,0.027l14.797,12.684v0c3.075,2.636,3.866,7.1,1.881,10.614
					c-2.835,5.016-8.221,11.281-17.784,12.647C88.144,181.048,87.634,181.085,87.132,181.085z M78.003,155.015
					c0.679,10.085,2.862,17.308,6.062,19.949c1.139,0.94,2.376,1.277,3.888,1.061c7.55-1.078,11.855-6.119,14.138-10.157
					c0.813-1.44,0.485-3.272-0.782-4.357v0l-13.329-11.425c-0.204,0.117-0.409,0.227-0.617,0.33l-8.587,4.234
					C78.528,154.771,78.271,154.893,78.003,155.015z"/>
			</g>
		</g>
		<g>
			<g>
				<path d="M129.193,181.085c-0.5,0-1.009-0.037-1.524-0.11c-9.564-1.366-14.95-7.631-17.784-12.647
					c-1.986-3.514-1.195-7.978,1.88-10.614l14.797-12.683c0.925-0.792,2.286-0.803,3.223-0.027c0.482,0.4,0.937,0.703,1.391,0.927
					l4.279,2.11c1.238,0.61,1.748,2.109,1.137,3.348c-0.61,1.238-2.11,1.747-3.348,1.137l-4.279-2.11
					c-0.208-0.103-0.413-0.212-0.617-0.33l-13.329,11.425c-1.267,1.085-1.595,2.918-0.781,4.358
					c2.282,4.039,6.587,9.079,14.138,10.157c1.602,0.229,2.909-0.173,4.111-1.266c1.021-0.929,2.602-0.854,3.532,0.167
					c0.929,1.021,0.854,2.603-0.167,3.532C133.945,180.191,131.667,181.085,129.193,181.085z"/>
			</g>
		</g>
		<g>
			<g>
				<path d="M110.75,166h-5.094c-1.381,0-2.5-1.119-2.5-2.5s1.119-2.5,2.5-2.5h5.094c1.381,0,2.5,1.119,2.5,2.5
					S112.131,166,110.75,166z"/>
			</g>
		</g>
		<g>
			<g>
				<path d="M88.314,149.28c-0.698,0-1.393-0.291-1.887-0.859c-0.906-1.042-0.796-2.621,0.246-3.527
					c1.57-1.366,2.471-3.328,2.471-5.382v-9.449c0-1.381,1.119-2.5,2.5-2.5s2.5,1.119,2.5,2.5v9.449c0,3.502-1.527,6.839-4.19,9.155
					C89.481,149.078,88.896,149.28,88.314,149.28z"/>
			</g>
		</g>
		<g>
			<g>
				<path d="M127.975,149.246c-0.586,0-1.175-0.205-1.649-0.622c-2.632-2.313-4.141-5.635-4.141-9.112v-9.449
					c0-1.381,1.119-2.5,2.5-2.5s2.5,1.119,2.5,2.5v9.449c0,2.04,0.89,3.993,2.442,5.356c1.037,0.912,1.139,2.491,0.228,3.528
					C129.359,148.959,128.669,149.246,127.975,149.246z"/>
			</g>
		</g>
		<g>
			<g>
				<path d="M143.294,256H72.351c-2.854,0-5.177-2.322-5.177-5.177v-9.58c0-7.066-0.912-14.078-2.713-20.895v30.475
					c0,2.854-2.322,5.177-5.177,5.177h-21.99c-1.768,0-3.478-0.736-4.693-2.021c-1.214-1.284-1.854-3.033-1.756-4.797l2.742-75.37
					c0.412-7.403,5.487-13.554,12.631-15.352l24.832-6.268c1.026-0.259,2.087-0.598,3.154-1.008c1.29-0.494,2.736,0.147,3.23,1.437
					c0.496,1.289-0.147,2.735-1.437,3.23c-1.253,0.482-2.507,0.882-3.726,1.189l-24.833,6.268
					c-5.012,1.262-8.571,5.575-8.859,10.734l-2.742,75.37c-0.033,0.594,0.233,0.961,0.395,1.132c0.161,0.17,0.513,0.457,1.06,0.457
					h21.99c0.098,0,0.177-0.079,0.177-0.177v-47.143c0-1.235,0.902-2.285,2.123-2.472c1.221-0.187,2.395,0.548,2.763,1.727
					l3.883,12.439c2.617,8.384,3.944,17.087,3.944,25.869v9.58c0,0.098,0.079,0.177,0.177,0.177h70.943c1.381,0,2.5,1.119,2.5,2.5
					S144.675,256,143.294,256z"/>
			</g>
		</g>
		<g>
			<g>
				<path class="st13" d="M214.034,143.5h-21.985c0.165,0.462,0.271,0.951,0.271,1.47v7.142c0,2.427-1.967,4.394-4.394,4.394
					h-18.522c-2.427,0-4.394-1.967-4.394-4.394v-7.142c0-0.518,0.106-1.008,0.271-1.47h-21.985c-4.747,0-8.63,3.884-8.63,8.63
					v92.739c0,4.747,3.884,8.63,8.63,8.63h70.739c4.747,0,8.63-3.884,8.63-8.63V152.13C222.664,147.384,218.781,143.5,214.034,143.5
					z"/>
			</g>
		</g>
		<g>
			<g>
				<path class="st5" d="M187.925,140.575h-18.522c-2.427,0-4.394,1.967-4.394,4.394v7.142c0,2.427,1.967,4.394,4.394,4.394h18.522
					c2.427,0,4.394-1.967,4.394-4.394v-7.142C192.319,142.543,190.352,140.575,187.925,140.575z"/>
			</g>
		</g>
		<g>
			<g>
				<path class="st1" d="M212.664,226.941v-72.72c0-0.398-0.323-0.721-0.721-0.721h-19.869c-0.583,1.742-2.21,3.006-4.149,3.006
					h-18.522c-1.939,0-3.566-1.264-4.149-3.006h-19.869c-0.398,0-0.721,0.323-0.721,0.721v88.557c0,0.398,0.323,0.721,0.721,0.721
					h50.72L212.664,226.941z"/>
			</g>
		</g>
		<g>
			<g>
				<path class="st19" d="M212.664,226.941h-15.838c-0.398,0-0.721,0.323-0.721,0.721V243.5L212.664,226.941z"/>
			</g>
		</g>
		<g>
			<g>
				<path d="M214.034,256h-70.739c-6.137,0-11.13-4.993-11.13-11.13V152.13c0-6.137,4.993-11.13,11.13-11.13h21.33
					c1.381,0,2.5,1.119,2.5,2.5s-1.119,2.5-2.5,2.5h-21.33c-3.38,0-6.13,2.75-6.13,6.13v92.739c0,3.38,2.75,6.13,6.13,6.13h70.739
					c3.38,0,6.13-2.75,6.13-6.13V152.13c0-3.38-2.75-6.13-6.13-6.13h-21.492c-1.381,0-2.5-1.119-2.5-2.5s1.119-2.5,2.5-2.5h21.492
					c6.137,0,11.13,4.993,11.13,11.13v92.739C225.164,251.007,220.171,256,214.034,256z"/>
			</g>
		</g>
		<g>
			<g>
				<path d="M187.925,159.006h-18.522c-3.801,0-6.894-3.093-6.894-6.894v-7.143c0-3.802,3.093-6.895,6.894-6.895h18.522
					c3.801,0,6.894,3.093,6.894,6.895v7.143C194.819,155.914,191.727,159.006,187.925,159.006z M169.403,143.075
					c-1.044,0-1.894,0.85-1.894,1.895v7.143c0,1.044,0.85,1.894,1.894,1.894h18.522c1.044,0,1.894-0.85,1.894-1.894v-7.143
					c0-1.044-0.85-1.895-1.894-1.895H169.403z"/>
			</g>
		</g>
		<g>
			<g>
				<path d="M173.572,142.313c-1.381,0-2.5-1.119-2.5-2.5v-3.538c0-4.187,3.406-7.592,7.592-7.592s7.592,3.406,7.592,7.592v3.506
					c0,1.381-1.119,2.5-2.5,2.5s-2.5-1.119-2.5-2.5v-3.506c0-1.429-1.163-2.592-2.592-2.592s-2.592,1.163-2.592,2.592v3.538
					C176.072,141.193,174.953,142.313,173.572,142.313z"/>
			</g>
		</g>
		<g>
			<g>
				<path d="M161.664,168h-5c-1.381,0-2.5-1.119-2.5-2.5s1.119-2.5,2.5-2.5h5c1.381,0,2.5,1.119,2.5,2.5S163.045,168,161.664,168z"
					/>
			</g>
		</g>
		<g>
			<g>
				<path d="M196.105,246h-50.719c-1.776,0-3.222-1.445-3.222-3.221v-88.558c0-1.776,1.445-3.221,3.222-3.221h19.385
					c1.381,0,2.5,1.119,2.5,2.5s-1.119,2.5-2.5,2.5h-17.606v85h47.905l15.095-15.095V156h-17.845c-1.381,0-2.5-1.119-2.5-2.5
					s1.119-2.5,2.5-2.5h19.624c1.776,0,3.221,1.445,3.221,3.221v72.72c0,0.663-0.263,1.299-0.732,1.768l-16.559,16.559
					C197.404,245.737,196.768,246,196.105,246z"/>
			</g>
		</g>
		<g>
			<g>
				<g>
					<path class="st9" d="M159.742,217.66c-2.421,0-4.383-1.963-4.383-4.383V198.23c0-2.421,1.962-4.383,4.383-4.383
						s4.383,1.963,4.383,4.383v15.046C164.125,215.697,162.163,217.66,159.742,217.66z"/>
				</g>
			</g>
		</g>
		<g>
			<g>
				<g>
					<path class="st6" d="M172.19,217.66c-2.421,0-4.383-1.963-4.383-4.383v-9.129c0-2.421,1.962-4.383,4.383-4.383
						s4.383,1.963,4.383,4.383v9.129C176.574,215.697,174.611,217.66,172.19,217.66z"/>
				</g>
			</g>
		</g>
		<g>
			<g>
				<g>
					<path class="st7" d="M184.638,217.66c-2.421,0-4.383-1.963-4.383-4.383v-21.556c0-2.421,1.962-4.383,4.383-4.383
						c2.421,0,4.383,1.963,4.383,4.383v21.556C189.022,215.697,187.059,217.66,184.638,217.66z"/>
				</g>
			</g>
		</g>
		<g>
			<g>
				<g>
					<path class="st8" d="M197.087,217.66c-2.421,0-4.383-1.963-4.383-4.383v-31.191c0-2.421,1.962-4.383,4.383-4.383
						c2.421,0,4.383,1.963,4.383,4.383v31.191C201.47,215.697,199.508,217.66,197.087,217.66z"/>
				</g>
			</g>
		</g>
		<g>
			<g>
				<g>
					<path d="M159.742,220.16c-3.795,0-6.883-3.088-6.883-6.883V198.23c0-3.795,3.088-6.883,6.883-6.883
						c3.796,0,6.884,3.088,6.884,6.883v15.046C166.625,217.072,163.538,220.16,159.742,220.16z M159.742,196.347
						c-1.039,0-1.883,0.845-1.883,1.883v15.046c0,1.039,0.845,1.883,1.883,1.883s1.884-0.845,1.884-1.883V198.23
						C161.625,197.192,160.78,196.347,159.742,196.347z"/>
				</g>
			</g>
		</g>
		<g>
			<g>
				<g>
					<path d="M172.19,220.16c-3.795,0-6.883-3.088-6.883-6.883v-9.129c0-3.795,3.088-6.883,6.883-6.883
						c3.796,0,6.884,3.088,6.884,6.883v9.129C179.074,217.072,175.986,220.16,172.19,220.16z M172.19,202.265
						c-1.039,0-1.883,0.845-1.883,1.883v9.129c0,1.039,0.845,1.883,1.883,1.883s1.884-0.845,1.884-1.883v-9.129
						C174.074,203.109,173.229,202.265,172.19,202.265z"/>
				</g>
			</g>
		</g>
		<g>
			<g>
				<g>
					<path d="M184.638,220.16c-3.795,0-6.883-3.088-6.883-6.883v-21.556c0-3.795,3.088-6.883,6.883-6.883
						c3.796,0,6.884,3.088,6.884,6.883v21.556C191.522,217.072,188.434,220.16,184.638,220.16z M184.638,189.837
						c-1.039,0-1.883,0.845-1.883,1.883v21.556c0,1.039,0.845,1.883,1.883,1.883s1.884-0.845,1.884-1.883v-21.556
						C186.522,190.682,185.677,189.837,184.638,189.837z"/>
				</g>
			</g>
		</g>
		<g>
			<g>
				<g>
					<path d="M197.086,220.16c-3.795,0-6.883-3.088-6.883-6.883v-31.191c0-3.795,3.088-6.883,6.883-6.883
						c3.796,0,6.884,3.088,6.884,6.883v31.191C203.97,217.072,200.882,220.16,197.086,220.16z M197.086,180.203
						c-1.039,0-1.883,0.845-1.883,1.883v31.191c0,1.039,0.845,1.883,1.883,1.883s1.884-0.845,1.884-1.883v-31.191
						C198.97,181.047,198.125,180.203,197.086,180.203z"/>
				</g>
			</g>
		</g>
		<g>
			<g>
				<path class="st7" d="M45.822,125.33c-4.498-0.838-8.043-4.31-8.898-8.716c-0.043-0.221-0.352-0.221-0.395,0
					c-0.855,4.406-4.4,7.879-8.898,8.716c-0.226,0.042-0.226,0.345,0,0.387c4.498,0.838,8.043,4.31,8.898,8.717
					c0.043,0.221,0.352,0.221,0.395,0c0.855-4.406,4.4-7.879,8.898-8.717C46.047,125.675,46.047,125.373,45.822,125.33z"/>
			</g>
		</g>
		<g>
			<g>
				<path class="st7" d="M183.515,112.101c-2.862-0.533-5.118-2.743-5.663-5.547c-0.027-0.141-0.224-0.141-0.251,0
					c-0.544,2.804-2.8,5.014-5.663,5.547c-0.144,0.027-0.144,0.219,0,0.246c2.862,0.533,5.118,2.743,5.663,5.547
					c0.027,0.141,0.224,0.141,0.251,0c0.544-2.804,2.8-5.014,5.663-5.547C183.658,112.32,183.658,112.128,183.515,112.101z"/>
			</g>
		</g>
		<g>
			<g>
				<path class="st6" d="M166.246,25.75h2.33v-2.33c0-1.744,1.413-3.157,3.157-3.157s3.157,1.413,3.157,3.157v2.33h2.329
					c1.744,0,3.157,1.413,3.157,3.157s-1.413,3.157-3.157,3.157h-2.329v2.33c0,1.744-1.413,3.157-3.157,3.157
					s-3.157-1.413-3.157-3.157v-2.33h-2.33c-1.744,0-3.157-1.413-3.157-3.157S164.502,25.75,166.246,25.75z"/>
			</g>
		</g>
		<g>
			<g>
				<circle class="st9" cx="24.755" cy="154.825" r="3.377"/>
			</g>
		</g>
		<g>
			<g>
				<circle class="st8" cx="158.755" cy="3.377" r="3.377"/>
			</g>
		</g>
		<g>
			<g>
				<path d="M108.164,195c-4.136,0-7.5-3.364-7.5-7.5s3.364-7.5,7.5-7.5s7.5,3.364,7.5,7.5S112.3,195,108.164,195z M108.164,185
					c-1.378,0-2.5,1.122-2.5,2.5s1.122,2.5,2.5,2.5s2.5-1.122,2.5-2.5S109.542,185,108.164,185z"/>
			</g>
		</g>
		<g>
			<g>
				<path d="M108.164,219c-4.136,0-7.5-3.364-7.5-7.5s3.364-7.5,7.5-7.5s7.5,3.364,7.5,7.5S112.3,219,108.164,219z M108.164,209
					c-1.378,0-2.5,1.122-2.5,2.5s1.122,2.5,2.5,2.5s2.5-1.122,2.5-2.5S109.542,209,108.164,209z"/>
			</g>
		</g>
		<g>
			<g>
				<path d="M108.164,243c-4.136,0-7.5-3.364-7.5-7.5s3.364-7.5,7.5-7.5s7.5,3.364,7.5,7.5S112.3,243,108.164,243z M108.164,233
					c-1.378,0-2.5,1.122-2.5,2.5s1.122,2.5,2.5,2.5s2.5-1.122,2.5-2.5S109.542,233,108.164,233z"/>
			</g>
		</g>
		<g>
			<g>
				<path d="M196.105,245.521c-1.381,0-2.5-1.119-2.5-2.5v-15.358c0-1.776,1.445-3.221,3.222-3.221h15.561
					c1.381,0,2.5,1.119,2.5,2.5s-1.119,2.5-2.5,2.5h-13.783v13.58C198.605,244.401,197.486,245.521,196.105,245.521z"/>
			</g>
		</g>
	</g>
</g>
<g id="Layer_27">
</g>
<g id="Layer_28">
</g>
<g id="Layer_29">
</g>
<g id="Layer_30">
</g>
<g id="Layer_31">
</g>
<g id="Layer_32">
</g>
<g id="Layer_33">
</g>
<g id="Layer_34">
</g>
<g id="Layer_35">
</g>
<g id="Layer_36">
</g>
<g id="Layer_37">
</g>
<g id="Layer_38">
</g>
<g id="Layer_39">
</g>
<g id="Layer_40">
</g>
<g id="Layer_41">
</g>
<g id="Layer_42">
</g>
<g id="Layer_43">
</g>
<g id="Layer_44">
</g>
<g id="Layer_45">
</g>
<g id="Layer_46">
</g>
<g id="Layer_47">
</g>
<g id="Layer_48">
</g>
<g id="Layer_49">
</g>
<g id="Layer_50">
</g>
<g id="Layer_51">
</g>
<g id="Layer_52">
</g>
<g id="Layer_53">
</g>
<g id="Layer_54">
</g>
<g id="Layer_55">
</g>
<g id="Layer_56">
</g>
<g id="Layer_57">
</g>
<g id="Layer_58">
</g>
<g id="Layer_59">
</g>
<g id="Layer_60">
</g>
<g id="Layer_61">
</g>
<g id="Layer_62">
</g>
<g id="Layer_63">
</g>
<g id="Layer_64">
</g>
<g id="Layer_65">
</g>
<g id="Layer_66">
</g>
<g id="Layer_67">
</g>
<g id="Layer_68">
</g>
<g id="Layer_69">
</g>
<g id="Layer_70">
</g>
<g id="Layer_71">
</g>
<g id="Layer_72">
</g>
<g id="Layer_73">
</g>
<g id="Layer_74">
</g>
<g id="Layer_75">
</g>
<g id="Layer_76">
</g>
<g id="Layer_77">
</g>
<g id="Layer_78">
</g>
<g id="Layer_79">
</g>
<g id="Layer_80">
</g>
</svg>
