<?xml version="1.0" encoding="utf-8"?>
<!-- Generator: Adobe Illustrator 24.0.0, SVG Export Plug-In . SVG Version: 6.00 Build 0)  -->
<svg version="1.1" xmlns="http://www.w3.org/2000/svg" xmlns:xlink="http://www.w3.org/1999/xlink" x="0px" y="0px"
	 viewBox="0 0 256 256" style="enable-background:new 0 0 256 256;" xml:space="preserve">
<style type="text/css">
	.st0{fill:#3A70BF;}
	.st1{fill:#EDF4FC;}
	.st2{fill:#C7D7E5;}
	.st3{fill:#F9D0B4;}
	.st4{fill:#5B5D60;}
	.st5{fill:#5290DB;}
	.st6{fill:#70D6F9;}
	.st7{fill:#F5C84C;}
	.st8{fill:#FC657E;}
	.st9{fill:#87D147;}
	.st10{fill:#FCDD86;}
	.st11{fill:#9BE5F9;}
	.st12{fill:#B2E26D;}
	.st13{fill:#754E34;}
	.st14{fill:#FCA265;}
	.st15{fill:#818182;}
	.st16{fill:#F94EED;}
	.st17{fill:#FFC197;}
	.st18{fill:#3CAADC;}
	.st19{fill:#DAE6F1;}
	.st20{fill:#57AF12;}
	.st21{fill:#EF4460;}
	.st22{fill:#FFF0CA;}
	.st23{fill:#F98FA6;}
	.st24{fill:#EDB311;}
	.st25{fill:#FC8C48;}
	.st26{fill:#FCB9CB;}
	.st27{fill:#96BC71;}
	.st28{fill:#78A352;}
	.st29{fill:#B8DD90;}
	.st30{fill:#6FAFEF;}
	.st31{fill:#29589F;}
	.st32{fill:#414344;}
	.st33{fill:#9B6B4B;}
	.st34{fill:#73B1EF;}
</style>
<g id="Layer_1">
</g>
<g id="Layer_2">
</g>
<g id="Layer_3">
</g>
<g id="Layer_4">
</g>
<g id="Layer_5">
</g>
<g id="Layer_6">
</g>
<g id="Layer_7">
</g>
<g id="Layer_8">
</g>
<g id="Layer_9">
</g>
<g id="Layer_10">
</g>
<g id="Layer_11">
</g>
<g id="Layer_12">
</g>
<g id="Layer_13">
</g>
<g id="Layer_14">
</g>
<g id="Layer_15">
</g>
<g id="Layer_16">
</g>
<g id="Layer_17">
</g>
<g id="Layer_18">
</g>
<g id="Layer_19">
</g>
<g id="Layer_20">
</g>
<g id="Layer_21">
</g>
<g id="Layer_22">
</g>
<g id="Layer_23">
</g>
<g id="Layer_24">
</g>
<g id="Layer_25">
</g>
<g id="Layer_26">
</g>
<g id="Layer_27">
</g>
<g id="Layer_28">
</g>
<g id="Layer_29">
</g>
<g id="Layer_30">
</g>
<g id="Layer_31">
</g>
<g id="Layer_32">
</g>
<g id="Layer_33">
</g>
<g id="Layer_34">
</g>
<g id="Layer_35">
</g>
<g id="Layer_36">
</g>
<g id="Layer_37">
</g>
<g id="Layer_38">
</g>
<g id="Layer_39">
	<g>
		<g>
			<g>
				<g>
					<path class="st19" d="M127.638,174.063c-0.879,1.064-2.495,1.109-3.431,0.094l-8.157-8.837
						c-0.375-0.406-0.561-0.923-0.561-1.438v0c0-0.001,0-0.003,0-0.005v0c-1.371,0.155-2.756,0.26-4.167,0.26h0
						c-1.043,0-2.072-0.058-3.094-0.143c-0.025,0.478-0.203,0.949-0.551,1.326l-8.157,8.837c-0.936,1.014-2.552,0.97-3.431-0.094
						l-6.271-7.591l22.046,87.028l22.046-87.028L127.638,174.063z"/>
				</g>
			</g>
		</g>
		<g>
			<g>
				<path class="st18" d="M147.445,156.906h49.999c5.725,0,10.409,4.684,10.409,10.409v37.908c0,5.725-4.684,10.409-10.409,10.409
					h-26.072c-2.584,0-4.678,2.094-4.678,4.678v5.461c0,1.993-2.447,2.949-3.798,1.484l-9.326-10.116
					c-0.886-0.961-2.133-1.507-3.439-1.507h-2.685c-5.725,0-10.409-4.684-10.409-10.409v-37.908
					C137.037,161.59,141.721,156.906,147.445,156.906z"/>
			</g>
		</g>
		<g>
			<g>
				<path class="st8" d="M212.78,135.255h-49.999c-5.725,0-10.409,4.684-10.409,10.409v11.242h45.071
					c5.725,0,10.409,4.684,10.409,10.409v27.266c0.684-0.376,1.446-0.6,2.242-0.6h2.685c5.725,0,10.409-4.684,10.409-10.409v-37.908
					C223.189,139.939,218.505,135.255,212.78,135.255z"/>
			</g>
		</g>
		<g>
			<g>
				<g>
					<path class="st1" d="M169.792,200.418L169.792,200.418c-1.326,0-2.598-0.527-3.535-1.464l-8.454-8.455
						c-1.953-1.953-1.953-5.119,0-7.071c1.951-1.952,5.119-1.952,7.07,0l4.919,4.919l9.992-9.992c1.951-1.952,5.119-1.952,7.07,0
						c1.953,1.953,1.953,5.119,0,7.071l-13.527,13.527C172.389,199.892,171.118,200.418,169.792,200.418z"/>
				</g>
			</g>
		</g>
		<g>
			<g>
				<path class="st4" d="M32.825,247.747l4.847-67.923c0.455-6.642,4.6-12.466,10.726-15.073l33.676-14.33
					c1.751-0.745,3.754,0.255,4.209,2.103L111.863,253.5H38.182C35.065,253.5,32.603,250.856,32.825,247.747z"/>
			</g>
		</g>
		<g>
			<g>
				<path class="st3" d="M107.654,162.422c0.417,0.438,0.603,1.01,0.573,1.573c1.022,0.086,2.051,0.143,3.094,0.143h0
					c1.411,0,2.796-0.104,4.167-0.26v0c0,0.001,0,0.003,0,0.004c0-0.526,0.194-1.052,0.583-1.461l14.525-15.27
					c-1.021-1.86-1.589-3.976-1.589-6.18v-6.335c-5.268,2.868-11.296,4.501-17.686,4.501h0c-5.959,0-11.597-1.427-16.604-3.945
					v5.778c0,2.204-0.568,4.32-1.589,6.18L107.654,162.422z"/>
			</g>
		</g>
		<g>
			<g>
				<path class="st4" d="M190.901,247.747l-2.292-32.116h-17.237c-2.584,0-4.678,2.094-4.678,4.678v5.461
					c0,1.993-2.447,2.949-3.798,1.484l-9.326-10.116c-0.886-0.961-2.133-1.507-3.439-1.507h-2.685
					c-5.725,0-10.409-4.684-10.409-10.409v-37.908c0-5.725,4.684-10.409,10.409-10.409h4.927v-1.922l-10.721-4.562
					c-1.751-0.745-3.754,0.255-4.209,2.103L111.863,253.5h73.681C188.66,253.5,191.122,250.856,190.901,247.747z"/>
			</g>
		</g>
		<g>
			<g>
				<path class="st15" d="M137.037,205.223v-37.908c0-5.725,4.684-10.409,10.409-10.409h1.417v-3.416l-7.211-3.069
					c-1.751-0.745-3.754,0.255-4.209,2.103L111.863,253.5h10.93l18.149-39.021c0.138-0.296,0.238-0.604,0.314-0.917
					C138.704,211.661,137.037,208.631,137.037,205.223z"/>
			</g>
		</g>
		<g>
			<g>
				<path class="st15" d="M86.283,152.525c-0.456-1.848-2.458-2.849-4.209-2.103l-7.211,3.069v40.542
					c0,0.859,0.593,1.605,1.43,1.798l9.42,2.174c1.12,0.259,1.734,1.468,1.281,2.525l-4.271,9.965
					c-0.547,1.277-0.525,2.726,0.061,3.986l18.149,39.021h10.93L86.283,152.525z"/>
			</g>
		</g>
		<g>
			<g>
				<path class="st1" d="M86.283,152.525l3.533,13.948l6.271,7.591c0.879,1.064,2.495,1.109,3.431,0.094l8.157-8.837
					c0.758-0.821,0.748-2.089-0.022-2.899l-15.687-16.492c-0.702-0.738-1.866-0.779-2.619-0.092l-4.983,4.55
					C85.278,150.732,86.028,151.487,86.283,152.525z"/>
			</g>
		</g>
		<g>
			<g>
				<path class="st1" d="M124.207,174.158c0.936,1.014,2.552,0.97,3.431-0.094l6.271-7.591l3.533-13.948
					c0.256-1.038,1.005-1.792,1.918-2.136l-4.983-4.55c-0.753-0.687-1.917-0.646-2.619,0.092l-15.687,16.492
					c-0.77,0.81-0.78,2.078-0.022,2.899L124.207,174.158z"/>
			</g>
		</g>
		<g>
			<g>
				<path d="M111.863,256H38.182c-2.177,0-4.275-0.914-5.759-2.506c-1.484-1.593-2.246-3.753-2.092-5.924l0,0l4.847-67.923
					c0.523-7.613,5.214-14.205,12.242-17.195l33.676-14.33c1.509-0.643,3.218-0.591,4.688,0.144
					c1.468,0.734,2.535,2.068,2.928,3.662l25.576,100.959c0.189,0.748,0.022,1.541-0.451,2.149
					C113.362,255.644,112.635,256,111.863,256z M35.319,247.925c-0.058,0.804,0.213,1.571,0.762,2.161
					c0.55,0.589,1.295,0.914,2.101,0.914h70.47l-24.792-97.862c-0.058-0.234-0.201-0.346-0.312-0.401
					c-0.113-0.056-0.287-0.105-0.495-0.016l-33.676,14.33c-5.288,2.25-8.817,7.21-9.211,12.944L35.319,247.925z"/>
			</g>
		</g>
		<g>
			<g>
				<path d="M130.211,148.887c-0.942,0-1.844-0.535-2.269-1.445c-0.952-2.044-1.435-4.221-1.435-6.47v-5.618
					c0-1.381,1.119-2.5,2.5-2.5s2.5,1.119,2.5,2.5v5.618c0,1.515,0.325,2.981,0.968,4.359c0.583,1.251,0.041,2.739-1.211,3.322
					C130.923,148.812,130.564,148.887,130.211,148.887z"/>
			</g>
		</g>
		<g>
			<g>
				<path d="M111.321,166.638c-0.825,0-1.691-0.033-2.648-0.101c-1.377-0.098-2.414-1.293-2.316-2.671
					c0.098-1.377,1.299-2.409,2.672-2.316c0.837,0.06,1.587,0.088,2.293,0.088c1.024,0,2.112-0.06,3.326-0.184
					c1.383-0.138,2.601,0.86,2.741,2.234c0.14,1.374-0.86,2.601-2.233,2.741C113.771,166.57,112.517,166.638,111.321,166.638z"/>
			</g>
		</g>
		<g>
			<g>
				<path d="M93.515,148.888c-0.354,0-0.712-0.075-1.054-0.234c-1.252-0.583-1.794-2.07-1.211-3.322
					c0.643-1.378,0.968-2.845,0.968-4.359v-5.128c0-1.381,1.119-2.5,2.5-2.5s2.5,1.119,2.5,2.5v5.128
					c0,2.25-0.482,4.427-1.435,6.471C95.358,148.353,94.457,148.888,93.515,148.888z"/>
			</g>
		</g>
		<g>
			<g>
				<path d="M185.544,256h-73.681c-0.771,0-1.499-0.356-1.973-0.964c-0.474-0.609-0.641-1.402-0.451-2.149l25.579-100.975
					c0.389-1.578,1.456-2.913,2.924-3.646c1.47-0.734,3.179-0.787,4.688-0.144l10.114,4.304c1.271,0.541,1.862,2.009,1.322,3.279
					c-0.542,1.271-2.012,1.862-3.279,1.321l-10.114-4.304c-0.208-0.088-0.384-0.04-0.494,0.015
					c-0.111,0.056-0.255,0.167-0.309,0.386L115.075,251h70.469c0.806,0,1.551-0.325,2.101-0.914c0.549-0.59,0.819-1.357,0.762-2.161
					l-2.221-31.124c-0.098-1.377,0.939-2.573,2.316-2.671c1.362-0.099,2.572,0.938,2.672,2.316l2.221,31.124
					c0.154,2.171-0.607,4.331-2.091,5.923C189.82,255.086,187.721,256,185.544,256z"/>
			</g>
		</g>
		<g>
			<g>
				<path d="M163.407,254.703c-1.381,0-2.5-1.119-2.5-2.5v-24.239c0-1.381,1.119-2.5,2.5-2.5s2.5,1.119,2.5,2.5v24.239
					C165.907,253.583,164.788,254.703,163.407,254.703z"/>
			</g>
		</g>
		<g>
			<g>
				<path d="M111.863,222.908c-1.381,0-2.5-1.119-2.5-2.5v-45.577c0-1.381,1.119-2.5,2.5-2.5s2.5,1.119,2.5,2.5v45.577
					C114.363,221.789,113.244,222.908,111.863,222.908z"/>
			</g>
		</g>
		<g>
			<g>
				<path d="M60.318,254.703c-1.381,0-2.5-1.119-2.5-2.5v-58.965c0-1.381,1.119-2.5,2.5-2.5c1.381,0,2.5,1.119,2.5,2.5v58.965
					C62.818,253.583,61.699,254.703,60.318,254.703z"/>
			</g>
		</g>
		<g>
			<g>
				<path d="M100.576,255.23c-0.942,0-1.845-0.535-2.269-1.446l-17.791-38.25c-0.884-1.9-0.918-4.096-0.092-6.024l3.962-9.246
					l-8.656-1.998c-1.982-0.458-3.367-2.199-3.367-4.234v-39.594c0-1.381,1.119-2.5,2.5-2.5s2.5,1.119,2.5,2.5v39.073l8.912,2.057
					c1.257,0.29,2.313,1.116,2.896,2.268c0.585,1.151,0.628,2.492,0.119,3.678l-4.271,9.965c-0.267,0.623-0.256,1.333,0.029,1.947
					l17.791,38.25c0.582,1.252,0.04,2.739-1.212,3.321C101.287,255.155,100.929,255.23,100.576,255.23z"/>
			</g>
		</g>
		<g>
			<g>
				<path d="M123.098,255.341c-0.353,0-0.711-0.075-1.053-0.234c-1.252-0.582-1.794-2.069-1.212-3.321l17.843-38.361
					c0.583-1.251,2.067-1.794,3.321-1.212c1.252,0.582,1.794,2.069,1.212,3.321l-17.843,38.361
					C124.942,254.806,124.04,255.341,123.098,255.341z"/>
			</g>
		</g>
		<g>
			<g>
				<path d="M97.845,177.391c-0.044,0-0.088,0-0.132-0.002c-1.379-0.038-2.674-0.67-3.553-1.734l-5.8-7.02
					c-0.879-1.064-0.729-2.64,0.336-3.52c1.062-0.879,2.638-0.731,3.52,0.335l5.639,6.826l7.743-8.389L90.58,148.099l-4.18,3.816
					c-1.021,0.932-2.6,0.859-3.532-0.161c-0.931-1.02-0.858-2.601,0.161-3.532l4.634-4.231c1.741-1.592,4.486-1.497,6.115,0.214
					l15.688,16.493c1.673,1.758,1.693,4.533,0.047,6.317l-8.156,8.837C100.45,176.835,99.177,177.391,97.845,177.391z"/>
			</g>
		</g>
		<g>
			<g>
				<path d="M125.881,177.391c-1.332,0-2.606-0.556-3.512-1.539l-8.156-8.835c-1.646-1.785-1.626-4.56,0.048-6.318l15.686-16.491
					c1.63-1.71,4.372-1.808,6.117-0.215l4.749,4.336c1.02,0.931,1.092,2.512,0.161,3.532c-0.931,1.019-2.512,1.093-3.532,0.161
					l-4.296-3.922l-15.018,15.788l7.744,8.388l5.97-7.227c0.882-1.066,2.456-1.215,3.52-0.335c1.064,0.879,1.215,2.455,0.336,3.52
					l-6.132,7.422c-0.879,1.064-2.174,1.696-3.554,1.733C125.968,177.391,125.924,177.391,125.881,177.391z"/>
			</g>
		</g>
		<g>
			<g>
				<path class="st3" d="M116.895,56.772c-13.593,17.094-33.644,14.681-40.386,13.27c-1.225-0.256-2.401,0.667-2.402,1.919
					c0,0.008,0,0.017,0,0.025v29.936c0,20.468,16.747,37.215,37.215,37.215h0c20.468,0,37.215-16.747,37.215-37.215V68.772
					c0-0.194-0.002-0.388-0.006-0.582c-0.021-1.055-0.866-1.925-1.921-1.956c-15.46-0.453-23.606-6.581-26.736-9.649
					C119.019,55.747,117.64,55.836,116.895,56.772z"/>
			</g>
		</g>
		<g>
			<g>
				<g>
					<path class="st10" d="M71.719,73.561c0.813,0,1.609,0.069,2.388,0.189v-1.763c0-0.008,0-0.017,0-0.025
						c0.001-1.252,1.177-2.175,2.402-1.919c6.742,1.411,26.794,3.823,40.386-13.27c0.745-0.937,2.124-1.025,2.978-0.187
						c3.13,3.068,11.276,9.196,26.736,9.649c1.055,0.031,1.9,0.901,1.921,1.956c0.004,0.194,0.006,0.388,0.006,0.582v4.978
						c0.779-0.121,1.575-0.189,2.388-0.189c4.188,0,7.982,1.665,10.777,4.36V49.973c0-11.692-9.566-21.258-21.258-21.258
						c-3.966,0-7.673,1.121-10.859,3.031c-3.722-6.211-10.502-10.405-18.23-10.405h-10.916c-21.127,0-38.413,17.286-38.413,38.413
						v17.212C64.683,74.84,68.049,73.561,71.719,73.561z"/>
				</g>
			</g>
		</g>
		<g>
			<g>
				<path class="st3" d="M150.925,73.561c-0.813,0-1.609,0.069-2.388,0.189c0,3.96,0,22.286,0,28.173
					c0,0.839-0.038,1.67-0.094,2.496c0.81,0.13,1.635,0.217,2.482,0.217c8.581,0,15.537-6.956,15.537-15.537
					S159.506,73.561,150.925,73.561z"/>
			</g>
		</g>
		<g>
			<g>
				<path class="st3" d="M74.107,101.923c0-3.856,0-20.507,0-28.173c-0.779-0.121-1.575-0.189-2.388-0.189
					c-8.581,0-15.538,6.957-15.538,15.538s6.956,15.537,15.538,15.537c0.847,0,1.672-0.086,2.482-0.217v-0.001
					C74.145,103.593,74.107,102.762,74.107,101.923z"/>
			</g>
		</g>
		<g>
			<g>
				<path d="M111.321,141.638c-21.898,0-39.715-17.816-39.715-39.715V71.987c0.001-1.37,0.603-2.627,1.649-3.478
					c1.059-0.859,2.433-1.192,3.765-0.914c7.236,1.514,25.417,3.34,37.917-12.379l0.001,0c0.796-1,1.981-1.619,3.253-1.698
					c1.276-0.084,2.521,0.389,3.432,1.281c2.593,2.542,10.225,8.501,25.06,8.936c2.392,0.071,4.301,2.007,4.348,4.407
					c0.004,0.208,0.007,0.418,0.007,0.63v33.151C151.037,123.822,133.221,141.638,111.321,141.638z M76.606,72.613v29.311
					c0,19.142,15.573,34.715,34.715,34.715c19.143,0,34.716-15.573,34.716-34.715V68.772c0-0.019,0-0.038,0-0.056
					c-15.154-0.563-23.627-6.308-27.522-9.97C104.327,76.145,83.595,73.963,76.606,72.613z M118.852,58.329
					C118.851,58.329,118.851,58.329,118.852,58.329L118.852,58.329z"/>
			</g>
		</g>
		<g>
			<g>
				<g>
					<path d="M161.701,79.708c-1.381,0-2.5-1.119-2.5-2.5V49.973c0-10.343-8.415-18.758-18.758-18.758
						c-3.344,0-6.654,0.925-9.574,2.675c-0.569,0.341-1.251,0.441-1.893,0.281c-0.644-0.161-1.196-0.571-1.537-1.14
						c-3.396-5.668-9.561-9.19-16.086-9.19h-10.916c-19.803,0-35.913,16.111-35.913,35.914V76c0,1.381-1.119,2.5-2.5,2.5
						s-2.5-1.119-2.5-2.5V59.755c0-22.56,18.354-40.914,40.913-40.914h10.916c7.481,0,14.581,3.641,19.048,9.638
						c3.15-1.487,6.579-2.264,10.042-2.264c13.101,0,23.758,10.658,23.758,23.758v27.234
						C164.201,78.588,163.082,79.708,161.701,79.708z"/>
				</g>
			</g>
		</g>
		<g>
			<g>
				<path d="M150.925,107.136c-0.514,0-1.029-0.026-1.575-0.079c-1.375-0.133-2.381-1.354-2.248-2.729
					c0.133-1.374,1.357-2.382,2.729-2.248c0.36,0.035,0.725,0.055,1.095,0.055c7.188,0,13.037-5.849,13.037-13.038
					s-5.849-13.038-13.037-13.038c-0.339,0-0.674,0.014-1.006,0.041c-1.377,0.117-2.581-0.914-2.693-2.29
					c-0.111-1.376,0.914-2.582,2.291-2.693c0.465-0.038,0.935-0.058,1.408-0.058c9.945,0,18.037,8.092,18.037,18.038
					S160.87,107.136,150.925,107.136z"/>
			</g>
		</g>
		<g>
			<g>
				<path d="M71.719,107.136c-9.946,0-18.038-8.092-18.038-18.038s8.092-18.038,18.038-18.038c0.706,0,1.431,0.045,2.153,0.133
					c1.37,0.167,2.346,1.415,2.178,2.785s-1.409,2.35-2.785,2.178c-0.521-0.064-1.042-0.096-1.546-0.096
					c-7.189,0-13.038,5.849-13.038,13.038s5.849,13.038,13.038,13.038c0.438,0,0.895-0.029,1.395-0.088
					c1.37-0.166,2.613,0.819,2.775,2.189c0.162,1.371-0.818,2.614-2.189,2.776C73.004,107.096,72.355,107.136,71.719,107.136z"/>
			</g>
		</g>
		<g>
			<g>
				<path d="M111.863,118.573c-4.777,0-9.263-1.95-11.999-5.215c-0.887-1.059-0.748-2.635,0.311-3.522s2.636-0.748,3.521,0.31
					c1.798,2.146,4.852,3.427,8.167,3.427s6.368-1.281,8.166-3.426c0.888-1.058,2.465-1.196,3.521-0.31
					c1.059,0.887,1.197,2.464,0.311,3.522C121.125,116.624,116.64,118.573,111.863,118.573z"/>
			</g>
		</g>
		<g>
			<g>
				<circle cx="128.652" cy="90.816" r="5"/>
			</g>
		</g>
		<g>
			<g>
				<circle cx="95.073" cy="90.816" r="5"/>
			</g>
		</g>
		<g>
			<g>
				<path d="M164.492,230.464c-1.279,0-2.524-0.528-3.435-1.515l-9.326-10.117c-0.411-0.445-0.995-0.701-1.602-0.701h-2.685
					c-7.117,0-12.908-5.791-12.908-12.909v-37.908c0-7.118,5.791-12.909,12.908-12.909h49.999c7.117,0,12.908,5.791,12.908,12.909
					v37.908c0,7.118-5.791,12.909-12.908,12.909h-26.072c-1.201,0-2.179,0.977-2.179,2.178v5.461c0,1.945-1.171,3.66-2.982,4.367
					C165.649,230.358,165.067,230.464,164.492,230.464z M147.445,159.406c-4.36,0-7.908,3.548-7.908,7.909v37.908
					c0,4.361,3.548,7.909,7.908,7.909h2.685c1.999,0,3.922,0.843,5.277,2.312l8.786,9.53v-4.665c0-3.958,3.221-7.178,7.179-7.178
					h26.072c4.36,0,7.908-3.548,7.908-7.909v-37.908c0-4.361-3.548-7.909-7.908-7.909H147.445z"/>
			</g>
		</g>
		<g>
			<g>
				<path d="M208.732,196.7c-1.055,0-2.036-0.674-2.378-1.732c-0.425-1.314,0.297-2.723,1.61-3.147
					c0.697-0.225,1.414-0.339,2.131-0.339h2.685c4.36,0,7.908-3.548,7.908-7.909v-37.908c0-4.361-3.548-7.909-7.908-7.909h-49.999
					c-4.36,0-7.908,3.548-7.908,7.909v10.461c0,1.381-1.119,2.5-2.5,2.5s-2.5-1.119-2.5-2.5v-10.461
					c0-7.118,5.791-12.909,12.908-12.909h49.999c7.117,0,12.908,5.791,12.908,12.909v37.908c0,7.118-5.791,12.909-12.908,12.909
					h-2.685c-0.194,0-0.395,0.033-0.594,0.097C209.246,196.661,208.987,196.7,208.732,196.7z"/>
			</g>
		</g>
		<g>
			<g>
				<g>
					<path d="M169.792,202.918c-2.003,0-3.887-0.78-5.303-2.197l-8.454-8.455c-1.417-1.417-2.197-3.3-2.197-5.303
						c0-2.003,0.78-3.887,2.197-5.304c1.415-1.416,3.299-2.196,5.303-2.196s3.888,0.78,5.304,2.197l3.15,3.15l8.225-8.224
						c1.415-1.417,3.299-2.197,5.303-2.197s3.888,0.78,5.304,2.197c1.416,1.416,2.196,3.299,2.196,5.303s-0.78,3.887-2.197,5.304
						l-13.527,13.527C173.679,202.138,171.795,202.918,169.792,202.918z M161.338,184.464c-0.668,0-1.296,0.26-1.767,0.731
						c-0.474,0.473-0.733,1.101-0.733,1.769c0,0.667,0.26,1.295,0.732,1.768l8.454,8.455c0.945,0.944,2.59,0.944,3.535,0
						l13.527-13.527c0.473-0.473,0.732-1.101,0.732-1.768c0-0.668-0.26-1.295-0.732-1.768c-0.943-0.945-2.593-0.944-3.534-0.001
						l-9.993,9.992c-0.977,0.977-2.559,0.977-3.535,0l-4.919-4.919C162.634,184.724,162.006,184.464,161.338,184.464z"/>
				</g>
			</g>
		</g>
		<g>
			<g>
				<path class="st7" d="M191.822,28.33c-4.498-0.838-8.043-4.31-8.898-8.716c-0.043-0.221-0.352-0.221-0.395,0
					c-0.855,4.406-4.4,7.879-8.898,8.716c-0.226,0.042-0.226,0.345,0,0.387c4.498,0.838,8.043,4.31,8.898,8.717
					c0.043,0.221,0.352,0.221,0.395,0c0.855-4.406,4.4-7.879,8.898-8.717C192.047,28.675,192.047,28.373,191.822,28.33z"/>
			</g>
		</g>
		<g>
			<g>
				<path class="st9" d="M195.515,113.101c-2.862-0.533-5.118-2.743-5.663-5.547c-0.027-0.141-0.224-0.141-0.251,0
					c-0.544,2.804-2.8,5.014-5.663,5.547c-0.144,0.027-0.144,0.219,0,0.246c2.862,0.533,5.118,2.743,5.663,5.547
					c0.027,0.141,0.224,0.141,0.251,0c0.544-2.804,2.8-5.014,5.663-5.547C195.658,113.32,195.658,113.128,195.515,113.101z"/>
			</g>
		</g>
		<g>
			<g>
				<circle class="st7" cx="33.755" cy="154.825" r="3.377"/>
			</g>
		</g>
		<g>
			<g>
				<circle class="st8" cx="168.755" cy="3.377" r="3.377"/>
			</g>
		</g>
		<g>
			<g>
				<path class="st6" d="M40.246,122.75h2.33v-2.33c0-1.744,1.413-3.157,3.157-3.157c1.744,0,3.157,1.413,3.157,3.157v2.33h2.329
					c1.744,0,3.157,1.413,3.157,3.157s-1.413,3.157-3.157,3.157h-2.329v2.33c0,1.744-1.413,3.157-3.157,3.157
					c-1.744,0-3.157-1.413-3.157-3.157v-2.33h-2.33c-1.744,0-3.157-1.413-3.157-3.157S38.502,122.75,40.246,122.75z"/>
			</g>
		</g>
	</g>
</g>
<g id="Layer_40">
</g>
<g id="Layer_41">
</g>
<g id="Layer_42">
</g>
<g id="Layer_43">
</g>
<g id="Layer_44">
</g>
<g id="Layer_45">
</g>
<g id="Layer_46">
</g>
<g id="Layer_47">
</g>
<g id="Layer_48">
</g>
<g id="Layer_49">
</g>
<g id="Layer_50">
</g>
<g id="Layer_51">
</g>
<g id="Layer_52">
</g>
<g id="Layer_53">
</g>
<g id="Layer_54">
</g>
<g id="Layer_55">
</g>
<g id="Layer_56">
</g>
<g id="Layer_57">
</g>
<g id="Layer_58">
</g>
<g id="Layer_59">
</g>
<g id="Layer_60">
</g>
<g id="Layer_61">
</g>
<g id="Layer_62">
</g>
<g id="Layer_63">
</g>
<g id="Layer_64">
</g>
<g id="Layer_65">
</g>
<g id="Layer_66">
</g>
<g id="Layer_67">
</g>
<g id="Layer_68">
</g>
<g id="Layer_69">
</g>
<g id="Layer_70">
</g>
<g id="Layer_71">
</g>
<g id="Layer_72">
</g>
<g id="Layer_73">
</g>
<g id="Layer_74">
</g>
<g id="Layer_75">
</g>
<g id="Layer_76">
</g>
<g id="Layer_77">
</g>
<g id="Layer_78">
</g>
<g id="Layer_79">
</g>
<g id="Layer_80">
</g>
</svg>
