<?xml version="1.0" encoding="utf-8"?>
<!-- Generator: Adobe Illustrator 24.0.0, SVG Export Plug-In . SVG Version: 6.00 Build 0)  -->
<svg version="1.1" xmlns="http://www.w3.org/2000/svg" xmlns:xlink="http://www.w3.org/1999/xlink" x="0px" y="0px"
	 viewBox="0 0 256 256" style="enable-background:new 0 0 256 256;" xml:space="preserve">
<style type="text/css">
	.st0{fill:#3A70BF;}
	.st1{fill:#EDF4FC;}
	.st2{fill:#C7D7E5;}
	.st3{fill:#F9D0B4;}
	.st4{fill:#5B5D60;}
	.st5{fill:#5290DB;}
	.st6{fill:#70D6F9;}
	.st7{fill:#F5C84C;}
	.st8{fill:#FC657E;}
	.st9{fill:#87D147;}
	.st10{fill:#FCDD86;}
	.st11{fill:#9BE5F9;}
	.st12{fill:#B2E26D;}
	.st13{fill:#754E34;}
	.st14{fill:#FCA265;}
	.st15{fill:#818182;}
	.st16{fill:#F94EED;}
	.st17{fill:#FFC197;}
	.st18{fill:#3CAADC;}
	.st19{fill:#DAE6F1;}
	.st20{fill:#57AF12;}
	.st21{fill:#EF4460;}
	.st22{fill:#FFF0CA;}
	.st23{fill:#F98FA6;}
	.st24{fill:#EDB311;}
	.st25{fill:#FC8C48;}
	.st26{fill:#FCB9CB;}
	.st27{fill:#96BC71;}
	.st28{fill:#78A352;}
	.st29{fill:#B8DD90;}
	.st30{fill:#6FAFEF;}
	.st31{fill:#29589F;}
	.st32{fill:#414344;}
	.st33{fill:#9B6B4B;}
	.st34{fill:#73B1EF;}
</style>
<g id="Layer_1">
</g>
<g id="Layer_2">
</g>
<g id="Layer_3">
</g>
<g id="Layer_4">
</g>
<g id="Layer_5">
</g>
<g id="Layer_6">
</g>
<g id="Layer_7">
</g>
<g id="Layer_8">
</g>
<g id="Layer_9">
</g>
<g id="Layer_10">
</g>
<g id="Layer_11">
</g>
<g id="Layer_12">
</g>
<g id="Layer_13">
</g>
<g id="Layer_14">
</g>
<g id="Layer_15">
</g>
<g id="Layer_16">
</g>
<g id="Layer_17">
</g>
<g id="Layer_18">
</g>
<g id="Layer_19">
</g>
<g id="Layer_20">
</g>
<g id="Layer_21">
</g>
<g id="Layer_22">
</g>
<g id="Layer_23">
</g>
<g id="Layer_24">
</g>
<g id="Layer_25">
</g>
<g id="Layer_26">
</g>
<g id="Layer_27">
</g>
<g id="Layer_28">
</g>
<g id="Layer_29">
</g>
<g id="Layer_30">
</g>
<g id="Layer_31">
</g>
<g id="Layer_32">
</g>
<g id="Layer_33">
</g>
<g id="Layer_34">
</g>
<g id="Layer_35">
</g>
<g id="Layer_36">
</g>
<g id="Layer_37">
</g>
<g id="Layer_38">
</g>
<g id="Layer_39">
</g>
<g id="Layer_40">
	<g>
		<g>
			<g>
				<path class="st3" d="M146.712,71.985c-0.759,0-1.502,0.064-2.229,0.177c0,3.696,0,20.799,0,26.293v0v0
					c0,0.783-0.036,1.558-0.088,2.329c0.756,0.122,1.526,0.202,2.316,0.202c8.009,0,14.501-6.492,14.501-14.501
					C161.212,78.477,154.72,71.985,146.712,71.985z"/>
			</g>
		</g>
		<g>
			<g>
				<path class="st3" d="M126.364,60.642c-5.29,6.174-24.047,24.906-51.344,17.13v20.684c0,19.102,15.629,34.732,34.732,34.732l0,0
					c19.102,0,34.732-15.629,34.732-34.732v-28.06c0-1.276-0.893-2.358-2.136-2.646c-3.514-0.814-7.782-2.85-12.673-7.294
					C128.706,59.577,127.214,59.649,126.364,60.642z"/>
			</g>
		</g>
		<g>
			<g>
				<path class="st3" d="M75.02,77.771c-2.385-0.679-4.834-1.559-7.346-2.668c-1.619-0.715-3.511-0.386-4.803,0.825
					c-2.817,2.641-4.581,6.39-4.581,10.557c0,8.008,6.492,14.501,14.501,14.501c0.79,0,1.56-0.08,2.316-0.202
					c-0.052-0.771-0.088-1.546-0.088-2.329V77.771z"/>
			</g>
		</g>
		<g>
			<g>
				<g>
					<path class="st10" d="M62.871,75.929c1.291-1.211,3.183-1.54,4.803-0.825c2.512,1.109,4.961,1.988,7.346,2.668
						c27.297,7.776,46.055-10.956,51.344-17.13c0.85-0.992,2.342-1.065,3.309-0.186c4.892,4.445,9.159,6.48,12.673,7.294
						c1.243,0.288,2.136,1.37,2.136,2.646v1.766c0.727-0.113,1.47-0.177,2.229-0.177c4.012,0,7.643,1.63,10.268,4.263v-8.494
						c0-25.976-21.253-47.229-47.229-47.229c-25.976,0-47.229,21.253-47.229,47.229v8.535C62.64,76.171,62.749,76.043,62.871,75.929
						z"/>
				</g>
			</g>
		</g>
		<g>
			<g>
				<path class="st10" d="M146.712,100.987c-0.79,0-1.56-0.081-2.316-0.202c-0.816,12.152-7.945,22.646-18.124,28.194v2.521h14.98
					c12.703,0,23-10.297,23-23c0-5.5-1.933-10.546-5.153-14.504C156.555,98.182,151.967,100.987,146.712,100.987z"/>
			</g>
		</g>
		<g>
			<g>
				<path class="st10" d="M78.251,131.5h14.98v-2.521c-10.179-5.548-17.308-16.042-18.124-28.194
					c-0.756,0.122-1.526,0.202-2.316,0.202c-5.255,0-9.844-2.805-12.387-6.99c-3.22,3.958-5.153,9.004-5.153,14.504
					C55.251,121.203,65.549,131.5,78.251,131.5z"/>
			</g>
		</g>
		<g>
			<g>
				<g>
					<path class="st3" d="M151.458,217.139c-0.886-0.961-2.133-1.507-3.439-1.507h-2.685c-5.725,0-10.409-4.684-10.409-10.409
						v-37.908c0-5.725,4.684-10.409,10.409-10.409h4.927v-1.279l-4.009-1.012c-2.075-0.522-4.089-1.263-6.009-2.209l-8.587-4.234
						c-3.298-1.626-5.386-4.984-5.386-8.66v-10.533c-4.92,2.682-10.551,4.208-16.52,4.208c-5.97,0-11.6-1.526-16.52-4.208v10.533
						c0,3.677-2.088,7.034-5.386,8.66l-8.587,4.234c-1.919,0.946-3.933,1.687-6.009,2.209l-24.833,6.269
						c-6.044,1.521-10.396,6.796-10.743,13.019l-2.745,75.418c-0.126,2.269,1.68,4.179,3.953,4.179h21.99
						c1.478,0,2.677-1.198,2.677-2.677v-47.143l3.883,12.439c2.539,8.133,3.83,16.604,3.83,25.124v9.58
						c0,1.478,1.198,2.677,2.677,2.677h30.345h10.937h30.345c1.478,0,2.677-1.198,2.677-2.677v-9.58
						c0-8.076,1.174-16.103,3.457-23.844L151.458,217.139z"/>
				</g>
			</g>
		</g>
		<g>
			<g>
				<path class="st4" d="M151.458,217.139c-0.886-0.961-2.133-1.507-3.439-1.507h-2.685c-5.725,0-10.409-4.684-10.409-10.409
					v-37.908c0-5.725,4.684-10.409,10.409-10.409h4.927v-1.279l-4.009-1.012c-2.075-0.522-4.089-1.263-6.009-2.209l-8.587-4.234
					c-0.274-0.135-0.526-0.299-0.782-0.457l-20.446,79.734c-0.449,1.75-0.677,3.577-0.677,5.415V253.5h5.468h30.345
					c1.478,0,2.677-1.198,2.677-2.677v-9.58c0-8.076,1.174-16.103,3.457-23.844L151.458,217.139z"/>
			</g>
		</g>
		<g>
			<g>
				<path class="st4" d="M169.26,215.632c-2.584,0-4.678,2.094-4.678,4.678v5.461c0,1.993-2.447,2.949-3.798,1.484l-4.83-5.239
					v28.808c0,1.478,1.198,2.677,2.677,2.677h21.99c2.273,0,4.079-1.91,3.953-4.179l-1.226-33.689H169.26z"/>
			</g>
		</g>
		<g>
			<g>
				<path class="st4" d="M88.627,147.715c-0.256,0.158-0.508,0.322-0.782,0.457l-8.587,4.234c-1.919,0.946-3.933,1.687-6.009,2.209
					l-24.833,6.269c-6.044,1.521-10.396,6.796-10.743,13.019l-2.744,75.418c-0.127,2.269,1.68,4.179,3.953,4.179h21.99
					c1.478,0,2.677-1.198,2.677-2.677v-47.143l3.883,12.439c2.539,8.133,3.83,16.604,3.83,25.124v9.58
					c0,1.478,1.198,2.677,2.677,2.677h30.345h5.468v-20.636c0-1.838-0.229-3.664-0.677-5.415L88.627,147.715z"/>
			</g>
		</g>
		<g>
			<g>
				<path class="st18" d="M145.334,156.906h49.999c5.725,0,10.409,4.684,10.409,10.409v37.908c0,5.725-4.684,10.409-10.409,10.409
					H169.26c-2.584,0-4.678,2.094-4.678,4.678v5.461c0,1.993-2.447,2.949-3.798,1.484l-9.326-10.116
					c-0.886-0.961-2.133-1.507-3.439-1.507h-2.685c-5.725,0-10.409-4.684-10.409-10.409v-37.908
					C134.925,161.59,139.609,156.906,145.334,156.906z"/>
			</g>
		</g>
		<g>
			<g>
				<path class="st8" d="M210.669,135.255H160.67c-5.725,0-10.409,4.684-10.409,10.409v11.242h45.071
					c5.725,0,10.409,4.684,10.409,10.409v27.266c0.684-0.376,1.446-0.6,2.242-0.6h2.685c5.725,0,10.409-4.684,10.409-10.409v-37.908
					C221.077,139.939,216.393,135.255,210.669,135.255z"/>
			</g>
		</g>
		<g>
			<g>
				<path class="st15" d="M134.925,167.315c0-5.61,4.502-10.21,10.07-10.391l-0.406-2.781c-1.49-0.467-2.944-1.045-4.346-1.737
					l-8.587-4.234c-0.274-0.135-0.526-0.299-0.782-0.457l-20.446,79.734c-0.325,1.267-0.531,2.574-0.621,3.897l25.118-31.29V167.315
					z"/>
			</g>
		</g>
		<g>
			<g>
				<path class="st15" d="M109.074,227.449l-20.446-79.733c-0.256,0.158-0.508,0.322-0.782,0.457l-8.587,4.234
					c-1.402,0.691-2.856,1.27-4.346,1.737l-2.114,14.487c-0.157,1.074,0.315,2.136,1.128,2.541l7.31,3.643
					c1.025,0.511,1.462,2.022,0.933,3.23l-4.727,10.796c-0.391,0.894-0.263,2.002,0.315,2.722l31.937,39.785
					C109.604,230.023,109.399,228.716,109.074,227.449z"/>
			</g>
		</g>
		<g>
			<g>
				<path class="st19" d="M109.074,227.449c0.449,1.75,0.677,3.577,0.677,5.415c0-1.838,0.229-3.664,0.677-5.415l10.609-41.37
					c-1.735-0.307-3.375,0.068-4.693,0.906c-0.938,0.596-2.145,0.607-3.081,0.008c-1.014-0.649-2.22-1.025-3.513-1.025
					s-2.499,0.376-3.513,1.025c-0.936,0.599-2.143,0.588-3.081-0.008c-1.318-0.839-2.958-1.213-4.693-0.906L109.074,227.449z"/>
			</g>
		</g>
		<g>
			<g>
				<g>
					<path class="st1" d="M167.68,200.418L167.68,200.418c-1.326,0-2.598-0.527-3.535-1.464l-8.454-8.455
						c-1.953-1.953-1.953-5.119,0-7.071c1.951-1.952,5.119-1.952,7.07,0l4.919,4.919l9.992-9.992c1.951-1.952,5.119-1.952,7.07,0
						c1.953,1.953,1.953,5.119,0,7.071l-13.527,13.527C170.278,199.892,169.006,200.418,167.68,200.418z"/>
				</g>
			</g>
		</g>
		<g>
			<g>
				<path d="M146.712,103.487c-0.523,0-1.047-0.028-1.602-0.085c-1.373-0.143-2.371-1.372-2.228-2.746
					c0.144-1.373,1.359-2.368,2.745-2.228c0.381,0.04,0.735,0.059,1.084,0.059c6.617,0,12.001-5.384,12.001-12.001
					s-5.384-12-12.001-12c-0.372,0-0.755,0.019-1.137,0.057c-1.365,0.139-2.598-0.868-2.733-2.242s0.869-2.598,2.243-2.733
					c0.544-0.054,1.091-0.081,1.627-0.081c9.374,0,17.001,7.626,17.001,17C163.713,95.86,156.086,103.487,146.712,103.487z"/>
			</g>
		</g>
		<g>
			<g>
				<path d="M109.751,135.687c-20.529,0-37.231-16.702-37.231-37.232V77.771c0-0.784,0.368-1.523,0.994-1.995
					c0.626-0.473,1.44-0.624,2.19-0.409c25.92,7.384,43.876-10.649,48.762-16.352c0.849-0.991,2.031-1.581,3.332-1.662
					c1.291-0.081,2.592,0.375,3.557,1.252c3.952,3.59,7.841,5.848,11.557,6.709c2.397,0.556,4.071,2.645,4.071,5.081v28.06
					C146.982,118.985,130.28,135.687,109.751,135.687z M77.52,80.979v17.476c0,17.773,14.459,32.232,32.231,32.232
					s32.231-14.459,32.231-32.232v-28.06c0-0.113-0.101-0.187-0.2-0.21c-4.514-1.046-9.107-3.656-13.656-7.758
					C122.768,68.626,104.332,86.857,77.52,80.979z M128.264,62.267C128.264,62.268,128.263,62.268,128.264,62.267
					C128.263,62.268,128.264,62.268,128.264,62.267z M126.364,60.642h0.01H126.364z"/>
			</g>
		</g>
		<g>
			<g>
				<path d="M72.791,103.487c-9.374,0-17.001-7.626-17.001-17.001c0-4.668,1.958-9.181,5.371-12.381
					c2.03-1.904,4.982-2.41,7.523-1.288c2.331,1.029,4.692,1.887,7.02,2.55c1.328,0.378,2.098,1.761,1.72,3.089
					s-1.761,2.099-3.089,1.72c-2.548-0.726-5.129-1.663-7.671-2.785c-0.701-0.31-1.519-0.168-2.083,0.361
					c-2.444,2.292-3.791,5.394-3.791,8.734c0,6.617,5.384,12.001,12.001,12.001c0.295,0,0.587-0.015,0.875-0.039
					c1.398-0.125,2.587,0.901,2.705,2.277s-0.901,2.586-2.277,2.705C73.665,103.466,73.23,103.487,72.791,103.487z"/>
			</g>
		</g>
		<g>
			<g>
				<g>
					<path d="M62.522,78.313c-1.381,0-2.5-1.119-2.5-2.5v-8.058c0-27.421,22.309-49.729,49.729-49.729
						c27.421,0,49.729,22.308,49.729,49.729v7.62c0,1.381-1.119,2.5-2.5,2.5s-2.5-1.119-2.5-2.5v-7.62
						c0-24.664-20.065-44.729-44.729-44.729c-24.663,0-44.729,20.065-44.729,44.729v8.058
						C65.022,77.194,63.903,78.313,62.522,78.313z"/>
				</g>
			</g>
		</g>
		<g>
			<g>
				<path d="M109.751,117.757c-4.775,0-9.262-1.949-11.999-5.215c-0.887-1.058-0.748-2.635,0.31-3.522
					c1.058-0.886,2.634-0.749,3.522,0.31c1.799,2.146,4.852,3.427,8.167,3.427s6.369-1.281,8.167-3.427
					c0.888-1.058,2.466-1.196,3.521-0.31c1.059,0.887,1.197,2.463,0.311,3.522C119.014,115.808,114.528,117.757,109.751,117.757z"/>
			</g>
		</g>
		<g>
			<g>
				<circle cx="124.862" cy="90.5" r="4.5"/>
			</g>
		</g>
		<g>
			<g>
				<circle cx="94.641" cy="90.5" r="4.5"/>
			</g>
		</g>
		<g>
			<g>
				<path d="M141.251,134h-14.345c-1.381,0-2.5-1.119-2.5-2.5s1.119-2.5,2.5-2.5h14.345c11.304,0,20.5-9.196,20.5-20.5
					c0-4.616-1.5-8.976-4.338-12.608c-0.851-1.088-0.657-2.659,0.431-3.509c1.088-0.851,2.658-0.658,3.509,0.431
					c3.532,4.52,5.398,9.944,5.398,15.686C166.751,122.561,155.312,134,141.251,134z"/>
			</g>
		</g>
		<g>
			<g>
				<path d="M92.625,134H78.251c-14.061,0-25.5-11.439-25.5-25.5c0-5.729,1.859-11.144,5.377-15.658
					c0.848-1.088,2.421-1.283,3.508-0.436c1.09,0.849,1.284,2.419,0.436,3.509c-2.826,3.628-4.32,7.979-4.32,12.585
					c0,11.304,9.196,20.5,20.5,20.5h14.374c1.381,0,2.5,1.119,2.5,2.5S94.006,134,92.625,134z"/>
			</g>
		</g>
		<g>
			<g>
				<path class="st7" d="M46.822,125.33c-4.498-0.838-8.043-4.31-8.898-8.716c-0.043-0.221-0.352-0.221-0.395,0
					c-0.855,4.406-4.4,7.879-8.898,8.716c-0.226,0.042-0.226,0.345,0,0.387c4.498,0.838,8.043,4.31,8.898,8.717
					c0.043,0.221,0.352,0.221,0.395,0c0.855-4.406,4.4-7.879,8.898-8.717C47.047,125.675,47.047,125.373,46.822,125.33z"/>
			</g>
		</g>
		<g>
			<g>
				<path class="st7" d="M191.515,113.101c-2.862-0.533-5.118-2.743-5.663-5.547c-0.027-0.141-0.224-0.141-0.251,0
					c-0.544,2.804-2.8,5.014-5.663,5.547c-0.144,0.027-0.144,0.219,0,0.246c2.862,0.533,5.118,2.743,5.663,5.547
					c0.027,0.141,0.224,0.141,0.251,0c0.544-2.804,2.8-5.014,5.663-5.547C191.658,113.32,191.658,113.128,191.515,113.101z"/>
			</g>
		</g>
		<g>
			<g>
				<path class="st6" d="M163.246,25.75h2.33v-2.33c0-1.744,1.413-3.157,3.157-3.157s3.157,1.413,3.157,3.157v2.33h2.329
					c1.744,0,3.157,1.413,3.157,3.157s-1.413,3.157-3.157,3.157h-2.329v2.33c0,1.744-1.413,3.157-3.157,3.157
					s-3.157-1.413-3.157-3.157v-2.33h-2.33c-1.744,0-3.157-1.413-3.157-3.157S161.502,25.75,163.246,25.75z"/>
			</g>
		</g>
		<g>
			<g>
				<circle class="st9" cx="25.755" cy="154.825" r="3.377"/>
			</g>
		</g>
		<g>
			<g>
				<circle class="st8" cx="150.755" cy="3.377" r="3.377"/>
			</g>
		</g>
		<g>
			<g>
				<g>
					<path d="M149.756,158c-0.203,0-0.408-0.025-0.614-0.077l-3.501-0.884c-2.242-0.564-4.431-1.369-6.502-2.391l-8.587-4.234
						c-4.183-2.063-6.78-6.24-6.78-10.903V130c0-1.381,1.119-2.5,2.5-2.5s2.5,1.119,2.5,2.5v9.512c0,2.745,1.529,5.204,3.991,6.418
						l8.587,4.234c1.756,0.866,3.611,1.548,5.514,2.027l3.503,0.884c1.338,0.338,2.149,1.697,1.812,3.036
						C151.892,157.244,150.874,158,149.756,158z"/>
				</g>
			</g>
			<g>
				<g>
					<path d="M145.564,256H73.938c-2.854,0-5.177-2.322-5.177-5.177v-9.58c0-7.064-0.911-14.077-2.713-20.895v30.474
						c0,2.854-2.322,5.177-5.177,5.177h-21.99c-1.768,0-3.478-0.736-4.692-2.021c-1.214-1.284-1.854-3.032-1.757-4.797l2.743-75.371
						c0.412-7.403,5.487-13.554,12.631-15.352l24.831-6.268c1.902-0.479,3.758-1.161,5.516-2.027l8.587-4.234
						c2.462-1.214,3.991-3.674,3.991-6.418V130c0-1.381,1.119-2.5,2.5-2.5s2.5,1.119,2.5,2.5v9.512c0,4.663-2.598,8.84-6.78,10.903
						l-8.587,4.234c-2.074,1.022-4.262,1.827-6.504,2.391l-24.831,6.268c-5.013,1.262-8.572,5.575-8.859,10.734l-2.743,75.37
						c-0.032,0.594,0.234,0.961,0.396,1.132S38.336,251,38.882,251h21.99c0.098,0,0.177-0.079,0.177-0.177v-47.143
						c0-1.235,0.902-2.285,2.123-2.472c1.222-0.185,2.396,0.548,2.764,1.727l3.883,12.439c2.616,8.385,3.943,17.089,3.943,25.869
						v9.58c0,0.098,0.079,0.177,0.177,0.177h71.626c0.098,0,0.177-0.079,0.177-0.177v-9.58c0-8.022,1.125-16.035,3.345-23.814
						c0.379-1.327,1.764-2.097,3.09-1.718c1.328,0.378,2.098,1.762,1.719,3.09c-2.093,7.333-3.153,14.883-3.153,22.442v9.58
						C150.741,253.678,148.419,256,145.564,256z"/>
				</g>
			</g>
		</g>
		<g>
			<g>
				<path d="M180.621,256h-21.99c-2.854,0-5.177-2.322-5.177-5.177v-28.115c0-1.381,1.119-2.5,2.5-2.5s2.5,1.119,2.5,2.5v28.115
					c0,0.098,0.079,0.177,0.177,0.177h21.99c0.547,0,0.898-0.286,1.06-0.457s0.427-0.538,0.396-1.083l-1.191-32.742
					c-0.051-1.38,1.027-2.539,2.407-2.589c1.384-0.047,2.539,1.027,2.589,2.408l1.189,32.693c0.097,1.716-0.543,3.465-1.758,4.749
					S182.389,256,180.621,256z"/>
			</g>
		</g>
		<g>
			<g>
				<path d="M109.751,255.313c-1.381,0-2.5-1.119-2.5-2.5v-19.95c0-1.63-0.201-3.244-0.599-4.795l-20.21-78.81
					c-0.343-1.337,0.464-2.7,1.801-3.043c1.334-0.339,2.699,0.463,3.043,1.801l20.21,78.811c0.501,1.957,0.755,3.988,0.755,6.036
					v19.95C112.251,254.194,111.132,255.313,109.751,255.313z"/>
			</g>
		</g>
		<g>
			<g>
				<path d="M162.381,230.464c-1.28,0-2.525-0.528-3.435-1.515l-9.326-10.116c-0.411-0.445-0.995-0.701-1.602-0.701h-2.685
					c-7.118,0-12.909-5.791-12.909-12.909v-37.908c0-7.118,5.791-12.909,12.909-12.909h49.999c7.117,0,12.908,5.791,12.908,12.909
					v37.908c0,7.118-5.791,12.909-12.908,12.909H169.26c-1.201,0-2.178,0.977-2.178,2.178v5.461c0,1.945-1.171,3.66-2.983,4.368
					C163.537,230.358,162.955,230.464,162.381,230.464z M145.334,159.406c-4.361,0-7.909,3.548-7.909,7.909v37.908
					c0,4.361,3.548,7.909,7.909,7.909h2.685c1.999,0,3.922,0.843,5.277,2.312l8.786,9.53v-4.665c0-3.958,3.22-7.178,7.178-7.178
					h26.073c4.36,0,7.908-3.548,7.908-7.909v-37.908c0-4.361-3.548-7.909-7.908-7.909H145.334z"/>
			</g>
		</g>
		<g>
			<g>
				<path d="M206.615,196.702c-1.054,0-2.033-0.671-2.377-1.728c-0.427-1.313,0.293-2.724,1.605-3.15
					c0.7-0.227,1.42-0.342,2.14-0.342h2.686c4.36,0,7.908-3.548,7.908-7.909v-37.908c0-4.361-3.548-7.909-7.908-7.909H160.67
					c-4.36,0-7.908,3.548-7.908,7.909v9.963c0,1.381-1.119,2.5-2.5,2.5s-2.5-1.119-2.5-2.5v-9.963
					c0-7.118,5.791-12.909,12.908-12.909h49.999c7.117,0,12.908,5.791,12.908,12.909v37.908c0,7.118-5.791,12.909-12.908,12.909
					h-2.686c-0.194,0-0.395,0.033-0.595,0.098C207.132,196.662,206.871,196.702,206.615,196.702z"/>
			</g>
		</g>
		<g>
			<g>
				<path d="M109.807,233.846c-0.305,0-0.612-0.056-0.909-0.171c-1.018-0.397-1.659-1.41-1.584-2.5
					c0.103-1.49,0.336-2.952,0.693-4.347l20.248-78.961c0.344-1.337,1.712-2.142,3.043-1.801c1.337,0.343,2.144,1.706,1.801,3.043
					l-18.55,72.338l17.984-22.403c0.862-1.077,2.437-1.249,3.515-0.385c1.076,0.864,1.248,2.438,0.384,3.515l-24.675,30.738
					C111.272,233.515,110.549,233.846,109.807,233.846z"/>
			</g>
		</g>
		<g>
			<g>
				<path d="M109.458,233.548c-0.732,0-1.458-0.32-1.951-0.935l-31.698-39.487c-1.168-1.454-1.426-3.531-0.655-5.29l4.727-10.795
					c0.012-0.028,0.017-0.066,0.016-0.103l-7.084-3.529c-1.777-0.886-2.8-3-2.486-5.142l1.988-13.623
					c0.199-1.367,1.463-2.314,2.835-2.113c1.366,0.199,2.312,1.468,2.112,2.834l-1.988,13.624c-0.003,0.021-0.004,0.039-0.004,0.056
					l7.084,3.529c2.237,1.115,3.183,4.018,2.106,6.471l-4.726,10.794c-0.021,0.051-0.019,0.151,0,0.193l31.672,39.449
					c0.864,1.077,0.692,2.65-0.384,3.515C110.56,233.368,110.007,233.548,109.458,233.548z M75.284,169.137h0.01H75.284z"/>
			</g>
		</g>
		<g>
			<g>
				<path d="M104.711,189.936c-1.006,0-2.014-0.28-2.896-0.841c-0.74-0.47-1.602-0.681-2.501-0.607
					c-1.375,0.12-2.583-0.912-2.695-2.287c-0.113-1.376,0.911-2.583,2.287-2.696c1.988-0.163,3.925,0.312,5.594,1.372
					c0.123,0.079,0.282,0.083,0.391,0.012c2.906-1.856,6.82-1.855,9.721,0c0.111,0.072,0.27,0.066,0.391-0.011
					c1.713-1.09,3.698-1.557,5.747-1.359c1.374,0.135,2.379,1.358,2.244,2.732c-0.135,1.375-1.358,2.374-2.732,2.244
					c-0.927-0.096-1.814,0.117-2.574,0.601c-1.759,1.12-4.022,1.122-5.77,0.005c-1.288-0.825-3.04-0.826-4.332,0
					C106.714,189.657,105.714,189.936,104.711,189.936z"/>
			</g>
		</g>
		<g>
			<g>
				<g>
					<path d="M167.68,202.918c-2.003,0-3.887-0.78-5.303-2.197l-8.454-8.455c-1.417-1.417-2.197-3.3-2.197-5.303
						c0-2.003,0.78-3.887,2.197-5.304c1.415-1.416,3.299-2.196,5.303-2.196s3.888,0.78,5.304,2.197l3.15,3.15l8.225-8.224
						c1.415-1.417,3.299-2.197,5.303-2.197s3.888,0.78,5.304,2.197c1.416,1.416,2.196,3.299,2.196,5.303s-0.78,3.887-2.197,5.304
						l-13.527,13.527C171.566,202.138,169.683,202.918,167.68,202.918z M159.226,184.464c-0.668,0-1.296,0.26-1.767,0.731
						c-0.474,0.473-0.733,1.101-0.733,1.769c0,0.667,0.26,1.295,0.732,1.768l8.454,8.455c0.945,0.944,2.59,0.944,3.535,0
						l13.527-13.527c0.473-0.473,0.732-1.101,0.732-1.768c0-0.668-0.26-1.295-0.732-1.768c-0.943-0.945-2.593-0.944-3.534-0.001
						l-9.993,9.992c-0.977,0.977-2.559,0.977-3.535,0l-4.919-4.919C160.521,184.724,159.894,184.464,159.226,184.464z"/>
				</g>
			</g>
		</g>
	</g>
</g>
<g id="Layer_41">
</g>
<g id="Layer_42">
</g>
<g id="Layer_43">
</g>
<g id="Layer_44">
</g>
<g id="Layer_45">
</g>
<g id="Layer_46">
</g>
<g id="Layer_47">
</g>
<g id="Layer_48">
</g>
<g id="Layer_49">
</g>
<g id="Layer_50">
</g>
<g id="Layer_51">
</g>
<g id="Layer_52">
</g>
<g id="Layer_53">
</g>
<g id="Layer_54">
</g>
<g id="Layer_55">
</g>
<g id="Layer_56">
</g>
<g id="Layer_57">
</g>
<g id="Layer_58">
</g>
<g id="Layer_59">
</g>
<g id="Layer_60">
</g>
<g id="Layer_61">
</g>
<g id="Layer_62">
</g>
<g id="Layer_63">
</g>
<g id="Layer_64">
</g>
<g id="Layer_65">
</g>
<g id="Layer_66">
</g>
<g id="Layer_67">
</g>
<g id="Layer_68">
</g>
<g id="Layer_69">
</g>
<g id="Layer_70">
</g>
<g id="Layer_71">
</g>
<g id="Layer_72">
</g>
<g id="Layer_73">
</g>
<g id="Layer_74">
</g>
<g id="Layer_75">
</g>
<g id="Layer_76">
</g>
<g id="Layer_77">
</g>
<g id="Layer_78">
</g>
<g id="Layer_79">
</g>
<g id="Layer_80">
</g>
</svg>
