<?xml version="1.0" encoding="utf-8"?>
<!-- Generator: Adobe Illustrator 24.0.0, SVG Export Plug-In . SVG Version: 6.00 Build 0)  -->
<svg version="1.1" xmlns="http://www.w3.org/2000/svg" xmlns:xlink="http://www.w3.org/1999/xlink" x="0px" y="0px"
	 viewBox="0 0 256 256" style="enable-background:new 0 0 256 256;" xml:space="preserve">
<style type="text/css">
	.st0{fill:#3A70BF;}
	.st1{fill:#EDF4FC;}
	.st2{fill:#C7D7E5;}
	.st3{fill:#F9D0B4;}
	.st4{fill:#5B5D60;}
	.st5{fill:#5290DB;}
	.st6{fill:#70D6F9;}
	.st7{fill:#F5C84C;}
	.st8{fill:#FC657E;}
	.st9{fill:#87D147;}
	.st10{fill:#FCDD86;}
	.st11{fill:#9BE5F9;}
	.st12{fill:#B2E26D;}
	.st13{fill:#754E34;}
	.st14{fill:#FCA265;}
	.st15{fill:#818182;}
	.st16{fill:#F94EED;}
	.st17{fill:#FFC197;}
	.st18{fill:#3CAADC;}
	.st19{fill:#DAE6F1;}
	.st20{fill:#57AF12;}
	.st21{fill:#EF4460;}
	.st22{fill:#FFF0CA;}
	.st23{fill:#F98FA6;}
	.st24{fill:#EDB311;}
	.st25{fill:#FC8C48;}
	.st26{fill:#FCB9CB;}
	.st27{fill:#96BC71;}
	.st28{fill:#78A352;}
	.st29{fill:#B8DD90;}
	.st30{fill:#6FAFEF;}
	.st31{fill:#29589F;}
	.st32{fill:#414344;}
	.st33{fill:#9B6B4B;}
	.st34{fill:#73B1EF;}
</style>
<g id="Layer_1">
</g>
<g id="Layer_2">
</g>
<g id="Layer_3">
</g>
<g id="Layer_4">
</g>
<g id="Layer_5">
</g>
<g id="Layer_6">
</g>
<g id="Layer_7">
</g>
<g id="Layer_8">
</g>
<g id="Layer_9">
</g>
<g id="Layer_10">
</g>
<g id="Layer_11">
</g>
<g id="Layer_12">
</g>
<g id="Layer_13">
</g>
<g id="Layer_14">
</g>
<g id="Layer_15">
</g>
<g id="Layer_16">
</g>
<g id="Layer_17">
</g>
<g id="Layer_18">
</g>
<g id="Layer_19">
</g>
<g id="Layer_20">
</g>
<g id="Layer_21">
</g>
<g id="Layer_22">
</g>
<g id="Layer_23">
</g>
<g id="Layer_24">
</g>
<g id="Layer_25">
</g>
<g id="Layer_26">
</g>
<g id="Layer_27">
</g>
<g id="Layer_28">
</g>
<g id="Layer_29">
</g>
<g id="Layer_30">
</g>
<g id="Layer_31">
</g>
<g id="Layer_32">
</g>
<g id="Layer_33">
</g>
<g id="Layer_34">
</g>
<g id="Layer_35">
</g>
<g id="Layer_36">
</g>
<g id="Layer_37">
</g>
<g id="Layer_38">
</g>
<g id="Layer_39">
</g>
<g id="Layer_40">
</g>
<g id="Layer_41">
</g>
<g id="Layer_42">
</g>
<g id="Layer_43">
</g>
<g id="Layer_44">
</g>
<g id="Layer_45">
</g>
<g id="Layer_46">
</g>
<g id="Layer_47">
</g>
<g id="Layer_48">
</g>
<g id="Layer_49">
</g>
<g id="Layer_50">
</g>
<g id="Layer_51">
</g>
<g id="Layer_52">
</g>
<g id="Layer_53">
</g>
<g id="Layer_54">
</g>
<g id="Layer_55">
</g>
<g id="Layer_56">
</g>
<g id="Layer_57">
</g>
<g id="Layer_58">
</g>
<g id="Layer_59">
</g>
<g id="Layer_60">
</g>
<g id="Layer_61">
</g>
<g id="Layer_62">
</g>
<g id="Layer_63">
</g>
<g id="Layer_64">
</g>
<g id="Layer_65">
</g>
<g id="Layer_66">
</g>
<g id="Layer_67">
	<g>
		<g>
			<g>
				<path class="st4" d="M180.435,66.6H75.565c-4.096,0-4.989,5.732-1.097,7.006C87.717,77.94,106.793,80.66,128,80.66
					c21.207,0,40.283-2.72,53.532-7.055C185.425,72.332,184.531,66.6,180.435,66.6z"/>
			</g>
		</g>
		<g>
			<g>
				<path class="st3" d="M175.061,75.467c-3.072,0.785-6.361,1.495-9.846,2.119c0,6.895,0,19.615,0,24.337
					c0,0.839-0.038,1.67-0.094,2.496c0.81,0.13,1.635,0.217,2.482,0.217c8.581,0,15.537-6.957,15.537-15.538
					C183.141,83.22,179.875,78.107,175.061,75.467z"/>
			</g>
		</g>
		<g>
			<g>
				<g>
					<path class="st3" d="M128,80.66c-13.613,0-26.336-1.125-37.215-3.074v24.337c0,20.468,16.747,37.215,37.215,37.215h0
						c20.468,0,37.215-16.747,37.215-37.215V77.586C154.336,79.535,141.612,80.66,128,80.66z"/>
				</g>
			</g>
		</g>
		<g>
			<g>
				<path class="st3" d="M90.785,77.586c-3.485-0.624-6.774-1.334-9.846-2.119c-4.814,2.64-8.08,7.753-8.08,13.631
					c0,8.581,6.956,15.538,15.538,15.538c0.847,0,1.672-0.086,2.482-0.217v0c-0.055-0.826-0.094-1.656-0.094-2.495
					C90.785,98.626,90.785,85.977,90.785,77.586z"/>
			</g>
		</g>
		<g>
			<g>
				<g>
					<path class="st4" d="M170.76,66.6l2.227-47.132c0.229-4.842-3.635-8.893-8.482-8.893H91.496c-4.847,0-8.711,4.051-8.482,8.893
						L85.24,66.6H170.76z"/>
				</g>
			</g>
		</g>
		<g>
			<g>
				<polygon class="st15" points="84.622,53.5 85.24,66.6 170.76,66.6 171.378,53.5 				"/>
			</g>
		</g>
		<g>
			<g>
				<path class="st3" d="M205.686,233h-26.142l0,20.5h23.004c2.344,0,4.207-1.969,4.076-4.31L205.686,233z"/>
			</g>
		</g>
		<g>
			<g>
				<path class="st3" d="M50.314,233l-0.939,16.19c-0.13,2.34,1.732,4.31,4.076,4.31h23.004l0-20.5H50.314z"/>
			</g>
		</g>
		<g>
			<g>
				<path class="st0" d="M202.511,178.239c-0.357-6.417-4.846-11.856-11.078-13.425l-28.902-7.274l-3.296-1.625
					c-0.047,0.33-0.179,0.651-0.406,0.925L144,174.792v-3.57c0-6.6-5.4-12-12-12h-8c-6.6,0-12,5.4-12,12v3.57L97.171,156.84
					c-0.227-0.274-0.358-0.596-0.406-0.925l-3.296,1.625l-28.902,7.274c-6.233,1.569-10.721,7.008-11.078,13.425L51.067,220h25.388
					c0,18.595,0,27.935,0,33.5h103.09c0-6.939,0-22.795,0-33.5h25.388L202.511,178.239z"/>
			</g>
		</g>
		<g>
			<g>
				<path class="st5" d="M158.648,154.265l-8.134-7.427c-0.753-0.687-1.917-0.646-2.619,0.092l-12.241,12.868
					c4.826,1.556,8.345,6.096,8.345,11.423v3.57l14.829-17.952C159.465,156.071,159.385,154.938,158.648,154.265z"/>
			</g>
		</g>
		<g>
			<g>
				<path class="st5" d="M112,171.222c0-5.326,3.519-9.867,8.345-11.423l-12.241-12.868c-0.702-0.739-1.866-0.779-2.619-0.092
					l-8.134,7.427c-0.737,0.673-0.817,1.806-0.181,2.575L112,174.792V171.222z"/>
			</g>
		</g>
		<g>
			<g>
				<path class="st3" d="M124,159.222h8c1.274,0,2.501,0.205,3.655,0.577l11.438-12.025c-1.249-2.003-1.948-4.349-1.948-6.802
					v-6.057c-5.14,2.69-10.97,4.223-17.145,4.223h0c-6.174,0-12.005-1.532-17.145-4.223v6.057c0,2.453-0.699,4.8-1.948,6.802
					l11.438,12.025C121.499,159.427,122.726,159.222,124,159.222z"/>
			</g>
		</g>
		<g>
			<g>
				<path class="st5" d="M205.841,220h-26.296v13h26.296c1.217,0,2.204-0.987,2.204-2.204v-8.592
					C208.045,220.987,207.058,220,205.841,220z"/>
			</g>
		</g>
		<g>
			<g>
				<path class="st5" d="M50.159,220h26.296v13H50.159c-1.217,0-2.204-0.987-2.204-2.204v-8.592
					C47.955,220.987,48.942,220,50.159,220z"/>
			</g>
		</g>
		<g>
			<g>
				<path class="st10" d="M132,208.222h-8c-6.6,0-12-5.4-12-12v-25c0-6.6,5.4-12,12-12h8c6.6,0,12,5.4,12,12v25
					C144,202.822,138.6,208.222,132,208.222z"/>
			</g>
		</g>
		<g>
			<g>
				<path class="st2" d="M136.326,253.5v-10.566c0-2.191-1.776-3.967-3.967-3.967h-8.717c-2.191,0-3.967,1.776-3.967,3.967V253.5
					H136.326z"/>
			</g>
		</g>
		<g>
			<g>
				<path class="st1" d="M123.641,238.967h8.717c0.22,0,0.431,0.03,0.641,0.065v-18.533c0-2.762-2.239-5-5-5s-5,2.238-5,5v18.533
					C123.21,238.997,123.422,238.967,123.641,238.967z"/>
			</g>
		</g>
		<g>
			<g>
				<path d="M128.541,118.573c-4.776,0-9.262-1.95-11.999-5.216c-0.887-1.058-0.748-2.635,0.31-3.521
					c1.06-0.887,2.635-0.748,3.522,0.311c1.798,2.146,4.851,3.427,8.167,3.427s6.369-1.281,8.167-3.427
					c0.886-1.058,2.463-1.197,3.522-0.311c1.058,0.887,1.197,2.464,0.31,3.521C137.803,116.623,133.318,118.573,128.541,118.573z"/>
			</g>
		</g>
		<g>
			<g>
				<circle cx="145.331" cy="90.816" r="5"/>
			</g>
		</g>
		<g>
			<g>
				<circle cx="111.752" cy="90.816" r="5"/>
			</g>
		</g>
		<g>
			<g>
				<path d="M128,83.16c-20.571,0-40.366-2.616-54.31-7.179c-2.918-0.954-4.619-3.735-4.137-6.762c0.48-3.015,2.952-5.12,6.011-5.12
					h104.871c3.059,0,5.53,2.105,6.011,5.12c0.482,3.026-1.219,5.808-4.137,6.762C168.366,80.544,148.571,83.16,128,83.16z
					 M75.564,69.1c-0.768,0-1.007,0.493-1.073,0.907c-0.055,0.347-0.031,0.966,0.754,1.223C88.708,75.634,107.936,78.16,128,78.16
					s39.292-2.526,52.755-6.931c0.785-0.257,0.809-0.876,0.754-1.223c-0.066-0.414-0.306-0.907-1.073-0.907H75.564z"/>
			</g>
		</g>
		<g>
			<g>
				<path d="M167.603,107.136c-0.613,0-1.235-0.037-1.901-0.112c-1.372-0.156-2.357-1.396-2.201-2.768
					c0.156-1.371,1.392-2.358,2.767-2.201c0.477,0.055,0.914,0.081,1.336,0.081c7.189,0,13.038-5.849,13.038-13.038
					c0-4.611-2.477-8.925-6.465-11.258c-1.191-0.697-1.592-2.229-0.895-3.421c0.697-1.192,2.228-1.59,3.42-0.896
					c5.514,3.227,8.939,9.194,8.939,15.574C185.641,99.044,177.549,107.136,167.603,107.136z"/>
			</g>
		</g>
		<g>
			<g>
				<g>
					<path d="M128,141.639c-21.899,0-39.715-17.816-39.715-39.715V78.219c0-1.381,1.119-2.5,2.5-2.5s2.5,1.119,2.5,2.5v23.705
						c0,19.142,15.573,34.715,34.715,34.715s34.715-15.573,34.715-34.715V78.25c0-1.381,1.119-2.5,2.5-2.5s2.5,1.119,2.5,2.5v23.674
						C167.715,123.822,149.899,141.639,128,141.639z"/>
				</g>
			</g>
		</g>
		<g>
			<g>
				<path d="M88.397,107.136c-9.946,0-18.038-8.092-18.038-18.038c0-6.474,3.501-12.485,9.138-15.689
					c1.202-0.683,2.727-0.262,3.409,0.938c0.683,1.2,0.262,2.727-0.938,3.409c-4.077,2.316-6.609,6.662-6.609,11.342
					c0,7.189,5.849,13.038,13.038,13.038c0.43,0,0.873-0.027,1.355-0.083c1.378-0.158,2.612,0.824,2.771,2.195
					c0.159,1.372-0.824,2.612-2.196,2.771C89.653,107.098,89.021,107.136,88.397,107.136z"/>
			</g>
		</g>
		<g>
			<g>
				<g>
					<path d="M170.783,68.644c-0.04,0-0.08-0.001-0.12-0.003c-1.379-0.065-2.444-1.236-2.379-2.615l2.205-46.675
						c0.078-1.652-0.508-3.222-1.65-4.419c-1.142-1.196-2.681-1.855-4.335-1.855H91.496c-1.654,0-3.194,0.659-4.335,1.855
						c-1.142,1.197-1.728,2.767-1.65,4.419l2.202,46.615c0.065,1.379-1,2.55-2.379,2.615c-1.402,0.06-2.55-1-2.615-2.379
						l-2.202-46.615c-0.143-3.032,0.932-5.91,3.026-8.106c2.094-2.195,4.919-3.404,7.954-3.404h73.008
						c3.035,0,5.859,1.209,7.954,3.404c2.094,2.196,3.169,5.074,3.026,8.106l-2.205,46.675
						C173.215,67.601,172.109,68.644,170.783,68.644z"/>
				</g>
			</g>
		</g>
		<g>
			<g>
				<path d="M179.545,255.04c-1.381,0-2.5-1.119-2.5-2.5v-56.645c0-1.381,1.119-2.5,2.5-2.5s2.5,1.119,2.5,2.5v56.645
					C182.045,253.921,180.926,255.04,179.545,255.04z"/>
			</g>
		</g>
		<g>
			<g>
				<path d="M76.455,255.04c-1.381,0-2.5-1.119-2.5-2.5v-56.645c0-1.381,1.119-2.5,2.5-2.5s2.5,1.119,2.5,2.5v56.645
					C78.955,253.921,77.836,255.04,76.455,255.04z"/>
			</g>
		</g>
		<g>
			<g>
				<path d="M132.708,220.71c-1.344,0-2.454-1.067-2.497-2.421c-0.044-1.38,1.039-2.534,2.419-2.578
					c10.582-0.336,18.87-8.896,18.87-19.489v-10.5h-7c-1.381,0-2.5-1.119-2.5-2.5s1.119-2.5,2.5-2.5h9.5c1.381,0,2.5,1.119,2.5,2.5
					v13c0,13.309-10.415,24.064-23.711,24.487C132.762,220.71,132.735,220.71,132.708,220.71z"/>
			</g>
		</g>
		<g>
			<g>
				<path d="M123.003,220.699c-0.038,0-0.076-0.001-0.114-0.003c-13.116-0.588-23.39-11.339-23.39-24.475v-13
					c0-1.381,1.119-2.5,2.5-2.5h9.5c1.381,0,2.5,1.119,2.5,2.5s-1.119,2.5-2.5,2.5h-7v10.5c0,10.455,8.176,19.012,18.613,19.48
					c1.379,0.062,2.448,1.229,2.386,2.609C125.439,219.652,124.333,220.699,123.003,220.699z"/>
			</g>
		</g>
		<g>
			<g>
				<path d="M142.5,173h-8c-1.381,0-2.5-1.119-2.5-2.5s1.119-2.5,2.5-2.5h8c1.381,0,2.5,1.119,2.5,2.5S143.881,173,142.5,173z"/>
			</g>
		</g>
		<g>
			<g>
				<path d="M142.5,181.667h-8c-1.381,0-2.5-1.119-2.5-2.5s1.119-2.5,2.5-2.5h8c1.381,0,2.5,1.119,2.5,2.5
					S143.881,181.667,142.5,181.667z"/>
			</g>
		</g>
		<g>
			<g>
				<path d="M142.5,190.333h-8c-1.381,0-2.5-1.119-2.5-2.5s1.119-2.5,2.5-2.5h8c1.381,0,2.5,1.119,2.5,2.5
					S143.881,190.333,142.5,190.333z"/>
			</g>
		</g>
		<g>
			<g>
				<path d="M142.5,199h-8c-1.381,0-2.5-1.119-2.5-2.5s1.119-2.5,2.5-2.5h8c1.381,0,2.5,1.119,2.5,2.5S143.881,199,142.5,199z"/>
			</g>
		</g>
		<g>
			<g>
				<path d="M121.5,173h-8c-1.381,0-2.5-1.119-2.5-2.5s1.119-2.5,2.5-2.5h8c1.381,0,2.5,1.119,2.5,2.5S122.881,173,121.5,173z"/>
			</g>
		</g>
		<g>
			<g>
				<path d="M121.5,181.667h-8c-1.381,0-2.5-1.119-2.5-2.5s1.119-2.5,2.5-2.5h8c1.381,0,2.5,1.119,2.5,2.5
					S122.881,181.667,121.5,181.667z"/>
			</g>
		</g>
		<g>
			<g>
				<path d="M121.5,190.333h-8c-1.381,0-2.5-1.119-2.5-2.5s1.119-2.5,2.5-2.5h8c1.381,0,2.5,1.119,2.5,2.5
					S122.881,190.333,121.5,190.333z"/>
			</g>
		</g>
		<g>
			<g>
				<path d="M121.5,199h-8c-1.381,0-2.5-1.119-2.5-2.5s1.119-2.5,2.5-2.5h8c1.381,0,2.5,1.119,2.5,2.5S122.881,199,121.5,199z"/>
			</g>
		</g>
		<g>
			<g>
				<path class="st7" d="M206.822,28.33c-4.498-0.838-8.043-4.31-8.898-8.716c-0.043-0.221-0.352-0.221-0.395,0
					c-0.855,4.406-4.4,7.879-8.898,8.716c-0.226,0.042-0.226,0.345,0,0.387c4.498,0.838,8.043,4.31,8.898,8.717
					c0.043,0.221,0.352,0.221,0.395,0c0.855-4.406,4.4-7.879,8.898-8.717C207.047,28.675,207.047,28.373,206.822,28.33z"/>
			</g>
		</g>
		<g>
			<g>
				<path class="st9" d="M198.515,112.101c-2.862-0.533-5.118-2.743-5.663-5.547c-0.027-0.141-0.224-0.141-0.251,0
					c-0.544,2.804-2.8,5.014-5.663,5.547c-0.144,0.027-0.144,0.219,0,0.246c2.862,0.533,5.118,2.743,5.663,5.547
					c0.027,0.141,0.224,0.141,0.251,0c0.544-2.804,2.8-5.014,5.663-5.547C198.658,112.32,198.658,112.128,198.515,112.101z"/>
			</g>
		</g>
		<g>
			<g>
				<path class="st6" d="M61.246,120.75h2.33v-2.33c0-1.744,1.413-3.157,3.157-3.157c1.744,0,3.157,1.413,3.157,3.157v2.33h2.329
					c1.744,0,3.157,1.413,3.157,3.157s-1.413,3.157-3.157,3.157h-2.329v2.33c0,1.744-1.413,3.157-3.157,3.157
					c-1.744,0-3.157-1.413-3.157-3.157v-2.33h-2.33c-1.744,0-3.157-1.413-3.157-3.157S59.502,120.75,61.246,120.75z"/>
			</g>
		</g>
		<g>
			<g>
				<circle class="st7" cx="51.755" cy="152.825" r="3.377"/>
			</g>
		</g>
		<g>
			<g>
				<circle class="st8" cx="184.755" cy="3.377" r="3.377"/>
			</g>
		</g>
		<g>
			<g>
				<path d="M170.688,56h-85.25c-1.381,0-2.5-1.119-2.5-2.5s1.119-2.5,2.5-2.5h85.25c1.381,0,2.5,1.119,2.5,2.5
					S172.069,56,170.688,56z"/>
			</g>
		</g>
		<g>
			<g>
				<path d="M202.549,256h-23.004c-1.381,0-2.5-1.119-2.5-2.5s1.119-2.5,2.5-2.5h23.004c0.439,0,0.848-0.176,1.15-0.495
					c0.302-0.319,0.455-0.737,0.431-1.176l-0.895-15.427c-0.08-1.378,0.973-2.561,2.351-2.641c1.357-0.092,2.561,0.973,2.64,2.352
					l0.895,15.433c0.101,1.804-0.552,3.586-1.79,4.895S204.35,256,202.549,256z"/>
			</g>
		</g>
		<g>
			<g>
				<path d="M76.455,256H53.451c-1.801,0-3.545-0.751-4.783-2.06s-1.89-3.091-1.79-4.889l0.894-15.401
					c0.08-1.379,1.261-2.427,2.641-2.352c1.378,0.08,2.431,1.263,2.351,2.641l-0.893,15.396c-0.024,0.433,0.129,0.851,0.431,1.17
					c0.302,0.319,0.71,0.495,1.15,0.495h23.004c1.381,0,2.5,1.119,2.5,2.5S77.836,256,76.455,256z"/>
			</g>
		</g>
		<g>
			<g>
				<path d="M179.545,256H76.455c-1.381,0-2.5-1.119-2.5-2.5s1.119-2.5,2.5-2.5h103.09c1.381,0,2.5,1.119,2.5,2.5
					S180.926,256,179.545,256z"/>
			</g>
		</g>
		<g>
			<g>
				<path d="M51.07,222.5c-0.049,0-0.098-0.001-0.147-0.004c-1.378-0.08-2.431-1.263-2.351-2.641l2.422-41.761
					c0.42-7.546,5.63-13.859,12.964-15.705l28.644-7.21l2.661-1.312c1.237-0.614,2.737-0.102,3.348,1.137
					c0.61,1.238,0.101,2.737-1.138,3.348l-2.899,1.429c-0.158,0.078-0.324,0.139-0.495,0.183l-28.901,7.275
					c-5.2,1.308-8.895,5.785-9.193,11.139l-2.422,41.767C53.486,221.474,52.384,222.5,51.07,222.5z"/>
			</g>
		</g>
		<g>
			<g>
				<path d="M204.93,222.5c-1.314,0-2.417-1.026-2.493-2.355l-2.422-41.762c-0.299-5.359-3.993-9.835-9.192-11.144l-28.902-7.275
					c-0.171-0.044-0.337-0.104-0.495-0.183l-2.831-1.396c-1.238-0.61-1.748-2.109-1.137-3.348c0.61-1.238,2.109-1.75,3.348-1.137
					l2.593,1.278l28.645,7.21c7.333,1.846,12.543,8.159,12.964,15.71l2.421,41.756c0.08,1.378-0.973,2.561-2.351,2.641
					C205.028,222.499,204.979,222.5,204.93,222.5z"/>
			</g>
		</g>
		<g>
			<g>
				<path d="M144.305,176.92c-0.561,0-1.125-0.188-1.591-0.572c-1.064-0.88-1.214-2.455-0.335-3.52l14.142-17.12l-7.238-6.609
					l-11.426,12.012c-0.952,1.001-2.533,1.041-3.535,0.089c-1-0.952-1.04-2.534-0.088-3.534l11.85-12.457
					c1.628-1.712,4.371-1.806,6.115-0.218l8.135,7.429c1.723,1.573,1.909,4.214,0.422,6.013l-14.522,17.58
					C145.74,176.61,145.025,176.92,144.305,176.92z"/>
			</g>
		</g>
		<g>
			<g>
				<path d="M111.809,177.058c-0.72,0-1.435-0.31-1.929-0.908l-14.636-17.718c-1.486-1.799-1.301-4.439,0.422-6.013l8.134-7.427
					c1.745-1.595,4.489-1.496,6.116,0.216l11.95,12.563c0.952,1,0.912,2.582-0.088,3.534c-1.001,0.952-2.583,0.911-3.535-0.089
					l-11.526-12.118l-7.238,6.609l14.256,17.258c0.879,1.064,0.729,2.64-0.335,3.52C112.933,176.87,112.369,177.058,111.809,177.058
					z"/>
			</g>
		</g>
		<g>
			<g>
				<path d="M146.847,149.859c-0.867,0-1.71-0.451-2.172-1.258c-1.328-2.32-2.029-4.958-2.029-7.63v-5.139
					c0-1.381,1.119-2.5,2.5-2.5s2.5,1.119,2.5,2.5v5.139c0,1.802,0.473,3.581,1.369,5.146c0.686,1.198,0.271,2.726-0.928,3.412
					C147.694,149.753,147.268,149.859,146.847,149.859z"/>
			</g>
		</g>
		<g>
			<g>
				<path d="M109.295,149.605c-0.403,0-0.811-0.097-1.19-0.303c-1.214-0.659-1.664-2.177-1.005-3.39
					c0.821-1.513,1.255-3.222,1.255-4.941v-5.347c0-1.381,1.119-2.5,2.5-2.5s2.5,1.119,2.5,2.5v5.347
					c0,2.551-0.644,5.084-1.86,7.326C111.042,149.133,110.182,149.605,109.295,149.605z"/>
			</g>
		</g>
		<g>
			<g>
				<path d="M205.841,235.5h-25.716c-1.381,0-2.5-1.119-2.5-2.5s1.119-2.5,2.5-2.5h25.42v-8h-25.342c-1.381,0-2.5-1.119-2.5-2.5
					s1.119-2.5,2.5-2.5h25.638c2.594,0,4.704,2.11,4.704,4.704v8.592C210.545,233.39,208.435,235.5,205.841,235.5z"/>
			</g>
		</g>
		<g>
			<g>
				<path d="M75.708,235.5H50.159c-2.594,0-4.704-2.11-4.704-4.704v-8.592c0-2.594,2.11-4.704,4.704-4.704h25.758
					c1.381,0,2.5,1.119,2.5,2.5s-1.119,2.5-2.5,2.5H50.455v8h25.253c1.381,0,2.5,1.119,2.5,2.5S77.089,235.5,75.708,235.5z"/>
			</g>
		</g>
		<g>
			<g>
				<path d="M132,210.722h-8c-7.995,0-14.5-6.505-14.5-14.5v-25c0-7.995,6.505-14.5,14.5-14.5h8c7.995,0,14.5,6.505,14.5,14.5v25
					C146.5,204.217,139.995,210.722,132,210.722z M124,161.722c-5.238,0-9.5,4.262-9.5,9.5v25c0,5.238,4.262,9.5,9.5,9.5h8
					c5.238,0,9.5-4.262,9.5-9.5v-25c0-5.238-4.262-9.5-9.5-9.5H124z"/>
			</g>
		</g>
		<g>
			<g>
				<path d="M119.674,255.25c-1.381,0-2.5-1.119-2.5-2.5v-9.816c0-3.565,2.901-6.467,6.467-6.467h8.717
					c3.566,0,6.467,2.901,6.467,6.467v9.774c0,1.381-1.119,2.5-2.5,2.5s-2.5-1.119-2.5-2.5v-9.774c0-0.809-0.658-1.467-1.467-1.467
					h-8.717c-0.809,0-1.467,0.658-1.467,1.467v9.816C122.174,254.131,121.055,255.25,119.674,255.25z"/>
			</g>
		</g>
		<g>
			<g>
				<path d="M123,241.031c-1.381,0-2.5-1.119-2.5-2.5v-18.032c0-4.136,3.364-7.5,7.5-7.5s7.5,3.364,7.5,7.5v17.97
					c0,1.381-1.119,2.5-2.5,2.5s-2.5-1.119-2.5-2.5v-17.97c0-1.379-1.122-2.5-2.5-2.5s-2.5,1.121-2.5,2.5v18.032
					C125.5,239.912,124.381,241.031,123,241.031z"/>
			</g>
		</g>
	</g>
</g>
<g id="Layer_68">
</g>
<g id="Layer_69">
</g>
<g id="Layer_70">
</g>
<g id="Layer_71">
</g>
<g id="Layer_72">
</g>
<g id="Layer_73">
</g>
<g id="Layer_74">
</g>
<g id="Layer_75">
</g>
<g id="Layer_76">
</g>
<g id="Layer_77">
</g>
<g id="Layer_78">
</g>
<g id="Layer_79">
</g>
<g id="Layer_80">
</g>
</svg>
