<?xml version="1.0" encoding="utf-8"?>
<!-- Generator: Adobe Illustrator 24.0.0, SVG Export Plug-In . SVG Version: 6.00 Build 0)  -->
<svg version="1.1" xmlns="http://www.w3.org/2000/svg" xmlns:xlink="http://www.w3.org/1999/xlink" x="0px" y="0px"
	 viewBox="0 0 256 256" style="enable-background:new 0 0 256 256;" xml:space="preserve">
<style type="text/css">
	.st0{fill:#3A70BF;}
	.st1{fill:#EDF4FC;}
	.st2{fill:#C7D7E5;}
	.st3{fill:#F9D0B4;}
	.st4{fill:#5B5D60;}
	.st5{fill:#5290DB;}
	.st6{fill:#70D6F9;}
	.st7{fill:#F5C84C;}
	.st8{fill:#FC657E;}
	.st9{fill:#87D147;}
	.st10{fill:#FCDD86;}
	.st11{fill:#9BE5F9;}
	.st12{fill:#B2E26D;}
	.st13{fill:#754E34;}
	.st14{fill:#FCA265;}
	.st15{fill:#818182;}
	.st16{fill:#F94EED;}
	.st17{fill:#FFC197;}
	.st18{fill:#3CAADC;}
	.st19{fill:#DAE6F1;}
	.st20{fill:#57AF12;}
	.st21{fill:#EF4460;}
	.st22{fill:#FFF0CA;}
	.st23{fill:#F98FA6;}
	.st24{fill:#EDB311;}
	.st25{fill:#FC8C48;}
	.st26{fill:#FCB9CB;}
	.st27{fill:#96BC71;}
	.st28{fill:#78A352;}
	.st29{fill:#B8DD90;}
	.st30{fill:#6FAFEF;}
	.st31{fill:#29589F;}
	.st32{fill:#414344;}
	.st33{fill:#9B6B4B;}
	.st34{fill:#73B1EF;}
</style>
<g id="Layer_1">
</g>
<g id="Layer_2">
</g>
<g id="Layer_3">
</g>
<g id="Layer_4">
</g>
<g id="Layer_5">
</g>
<g id="Layer_6">
</g>
<g id="Layer_7">
</g>
<g id="Layer_8">
</g>
<g id="Layer_9">
</g>
<g id="Layer_10">
</g>
<g id="Layer_11">
</g>
<g id="Layer_12">
</g>
<g id="Layer_13">
</g>
<g id="Layer_14">
</g>
<g id="Layer_15">
</g>
<g id="Layer_16">
</g>
<g id="Layer_17">
</g>
<g id="Layer_18">
</g>
<g id="Layer_19">
</g>
<g id="Layer_20">
</g>
<g id="Layer_21">
</g>
<g id="Layer_22">
</g>
<g id="Layer_23">
</g>
<g id="Layer_24">
</g>
<g id="Layer_25">
</g>
<g id="Layer_26">
</g>
<g id="Layer_27">
</g>
<g id="Layer_28">
</g>
<g id="Layer_29">
</g>
<g id="Layer_30">
</g>
<g id="Layer_31">
</g>
<g id="Layer_32">
</g>
<g id="Layer_33">
</g>
<g id="Layer_34">
</g>
<g id="Layer_35">
</g>
<g id="Layer_36">
</g>
<g id="Layer_37">
</g>
<g id="Layer_38">
</g>
<g id="Layer_39">
</g>
<g id="Layer_40">
</g>
<g id="Layer_41">
</g>
<g id="Layer_42">
</g>
<g id="Layer_43">
</g>
<g id="Layer_44">
</g>
<g id="Layer_45">
</g>
<g id="Layer_46">
</g>
<g id="Layer_47">
</g>
<g id="Layer_48">
</g>
<g id="Layer_49">
</g>
<g id="Layer_50">
</g>
<g id="Layer_51">
</g>
<g id="Layer_52">
</g>
<g id="Layer_53">
</g>
<g id="Layer_54">
</g>
<g id="Layer_55">
</g>
<g id="Layer_56">
</g>
<g id="Layer_57">
</g>
<g id="Layer_58">
</g>
<g id="Layer_59">
</g>
<g id="Layer_60">
</g>
<g id="Layer_61">
</g>
<g id="Layer_62">
</g>
<g id="Layer_63">
</g>
<g id="Layer_64">
</g>
<g id="Layer_65">
</g>
<g id="Layer_66">
</g>
<g id="Layer_67">
</g>
<g id="Layer_68">
	<g>
		<g>
			<g>
				<path class="st3" d="M164.96,71.985c-0.759,0-1.502,0.064-2.229,0.177c0,3.696,0,20.799,0,26.293v0v0
					c0,0.783-0.036,1.558-0.088,2.329c0.756,0.122,1.526,0.202,2.316,0.202c8.009,0,14.501-6.492,14.501-14.501
					C179.461,78.477,172.969,71.985,164.96,71.985z"/>
			</g>
		</g>
		<g>
			<g>
				<path class="st3" d="M144.613,60.642c-5.29,6.174-24.047,24.906-51.344,17.13v20.684c0,19.102,15.629,34.732,34.732,34.732l0,0
					c19.102,0,34.732-15.629,34.732-34.732v-28.06c0-1.276-0.893-2.358-2.136-2.646c-3.515-0.814-7.782-2.85-12.673-7.294
					C146.955,59.577,145.463,59.649,144.613,60.642z"/>
			</g>
		</g>
		<g>
			<g>
				<path class="st3" d="M93.268,77.771c-2.385-0.679-4.834-1.559-7.346-2.668c-1.619-0.715-3.511-0.386-4.803,0.825
					c-2.817,2.641-4.581,6.39-4.581,10.557c0,8.008,6.492,14.501,14.501,14.501c0.79,0,1.56-0.08,2.316-0.202
					c-0.052-0.771-0.088-1.546-0.088-2.329V77.771z"/>
			</g>
		</g>
		<g>
			<g>
				<g>
					<path class="st4" d="M81.12,75.929c1.291-1.211,3.183-1.54,4.803-0.825c2.512,1.109,4.961,1.988,7.346,2.668
						c27.297,7.776,46.055-10.956,51.344-17.13c0.85-0.992,2.342-1.065,3.309-0.186c4.892,4.445,9.159,6.48,12.673,7.294
						c1.243,0.288,2.136,1.37,2.136,2.646v1.766c0.727-0.113,1.47-0.177,2.229-0.177c4.012,0,7.643,1.63,10.268,4.263v-8.494
						c0-25.976-21.253-47.229-47.229-47.229c-25.976,0-47.229,21.253-47.229,47.229v8.535C80.889,76.171,80.998,76.043,81.12,75.929
						z"/>
				</g>
			</g>
		</g>
		<g>
			<g>
				<path class="st3" d="M200.078,173.902c-0.347-6.223-4.699-11.497-10.743-13.019l-24.833-6.269
					c-2.075-0.523-4.089-1.263-6.009-2.209l-8.587-4.234c-3.298-1.626-5.386-4.984-5.386-8.66v-10.533
					c-4.92,2.682-10.551,4.208-16.52,4.208c-5.97,0-11.6-1.526-16.52-4.208v10.533c0,3.677-2.088,7.034-5.386,8.66l-8.587,4.234
					c-1.919,0.946-3.933,1.687-6.009,2.209l-24.833,6.269c-6.044,1.521-10.396,6.796-10.743,13.019l-2.744,75.418
					c-0.127,2.269,1.68,4.179,3.953,4.179h21.99c1.478,0,2.677-1.198,2.677-2.677v-47.143l3.883,12.439
					c2.539,8.133,3.83,16.604,3.83,25.124v9.58c0,1.478,1.198,2.677,2.677,2.677c11.078,0,60.416,0,71.626,0
					c1.478,0,2.677-1.198,2.677-2.677v-9.58c0-8.52,1.291-16.991,3.83-25.124l3.883-12.439v47.143c0,1.478,1.198,2.677,2.677,2.677
					h21.99c2.273,0,4.079-1.91,3.953-4.179L200.078,173.902z"/>
			</g>
		</g>
		<g>
			<g>
				<path class="st4" d="M170.675,121.5c4.1-10.251,3.995-18.131,2.92-23.384c-2.414,1.795-5.395,2.871-8.634,2.871
					c-0.79,0-1.56-0.08-2.316-0.202c-0.816,12.152-7.945,22.647-18.124,28.194v10.533c0,3.677,2.088,7.034,5.386,8.66l8.587,4.234
					c1.919,0.946,3.934,1.687,6.009,2.209l17.511,4.42C183.561,142.809,166.02,133.137,170.675,121.5z"/>
			</g>
		</g>
		<g>
			<g>
				<path class="st4" d="M91.499,154.615c2.075-0.523,4.089-1.263,6.009-2.209l8.587-4.234c3.298-1.626,5.386-4.984,5.386-8.66
					v-10.533c-10.179-5.548-17.308-16.042-18.124-28.194c-0.756,0.122-1.526,0.202-2.316,0.202c-3.239,0-6.22-1.075-8.634-2.87
					c-1.075,5.253-1.18,13.133,2.92,23.384c4.655,11.637-12.887,21.309-11.338,37.536L91.499,154.615z"/>
			</g>
		</g>
		<g>
			<g>
				<path class="st8" d="M175.072,157.283l-10.57-2.668c-3.678-0.926-6.412-2.425-6.722-2.561
					c-3.157,4.928-7.759,11.37-13.837,18.038c0.035,0.372,0.058,0.748,0.058,1.13v25c0,6.6-5.4,12-12,12h-8c-6.6,0-12-5.4-12-12
					v-1.48c-8.875,4.429-18.931,7.71-30.203,8.939c2.327,8.76,7.713,19.695,7.713,37.563v9.58c0,1.479,1.198,2.677,2.677,2.677
					c11.078,0,60.416,0,71.626,0c1.478,0,2.677-1.198,2.677-2.677v-9.58c0-16.022,4.556-26.872,5.254-29.686
					C167.433,206.078,165.5,180.5,175.072,157.283z"/>
			</g>
		</g>
		<g>
			<g>
				<path class="st10" d="M132,208.222h-8c-6.6,0-12-5.4-12-12v-25c0-6.6,5.4-12,12-12h8c6.6,0,12,5.4,12,12v25
					C144,202.822,138.6,208.222,132,208.222z"/>
			</g>
		</g>
		<g>
			<g>
				<path class="st2" d="M136.326,253.5v-10.566c0-2.191-1.776-3.967-3.967-3.967h-8.717c-2.191,0-3.967,1.776-3.967,3.967V253.5
					H136.326z"/>
			</g>
		</g>
		<g>
			<g>
				<path class="st1" d="M123.641,238.967h8.717c0.22,0,0.431,0.03,0.641,0.065v-18.533c0-2.762-2.239-5-5-5s-5,2.238-5,5v18.533
					C123.21,238.997,123.422,238.967,123.641,238.967z"/>
			</g>
		</g>
		<g>
			<g>
				<path d="M164.961,103.486c-0.499,0-1.001-0.025-1.534-0.078c-1.374-0.137-2.378-1.36-2.242-2.734
					c0.136-1.373,1.361-2.371,2.734-2.242c0.343,0.034,0.689,0.055,1.042,0.055c6.617,0,12-5.383,12-12s-5.383-12.001-12-12.001
					c-0.302,0-0.6,0.012-0.896,0.036c-1.385,0.087-2.582-0.915-2.693-2.291s0.914-2.582,2.291-2.693
					c0.429-0.034,0.861-0.052,1.298-0.052c9.374,0,17,7.627,17,17.001S174.335,103.486,164.961,103.486z"/>
			</g>
		</g>
		<g>
			<g>
				<path d="M128,135.687c-20.53,0-37.232-16.702-37.232-37.231V77.771c0-0.784,0.368-1.522,0.994-1.995
					c0.626-0.472,1.438-0.624,2.191-0.409c25.921,7.386,43.876-10.649,48.761-16.353l0,0c0.85-0.991,2.035-1.581,3.337-1.662
					c1.274-0.075,2.589,0.377,3.554,1.255c3.95,3.589,7.839,5.846,11.556,6.707c2.397,0.556,4.071,2.646,4.071,5.081v28.06
					C165.231,118.984,148.529,135.687,128,135.687z M95.768,80.979v17.477c0,17.772,14.459,32.231,32.232,32.231
					c17.772,0,32.231-14.459,32.231-32.231v-28.06c0-0.113-0.101-0.187-0.2-0.21c-4.515-1.046-9.109-3.656-13.657-7.759
					C141.017,68.626,122.584,86.862,95.768,80.979z"/>
			</g>
		</g>
		<g>
			<g>
				<path d="M91.04,103.486c-9.374,0-17-7.626-17-17c0-4.668,1.958-9.182,5.371-12.382c2.031-1.902,4.982-2.41,7.522-1.288
					c2.328,1.028,4.69,1.887,7.021,2.551c1.328,0.379,2.098,1.762,1.719,3.09s-1.761,2.099-3.089,1.719
					c-2.552-0.728-5.133-1.665-7.671-2.785c-0.701-0.309-1.518-0.168-2.083,0.362c-2.444,2.291-3.791,5.394-3.791,8.733
					c0,6.617,5.383,12,12,12c0.369,0,0.746-0.021,1.151-0.065c1.379-0.148,2.606,0.843,2.755,2.215
					c0.149,1.373-0.843,2.606-2.215,2.756C92.144,103.455,91.591,103.486,91.04,103.486z"/>
			</g>
		</g>
		<g>
			<g>
				<g>
					<path d="M80.771,78.354c-1.381,0-2.5-1.119-2.5-2.5v-8.1c0-27.42,22.308-49.729,49.729-49.729
						c27.42,0,49.729,22.309,49.729,49.729V75.5c0,1.381-1.119,2.5-2.5,2.5s-2.5-1.119-2.5-2.5v-7.745
						c0-24.663-20.065-44.729-44.729-44.729c-24.664,0-44.729,20.065-44.729,44.729v8.1C83.271,77.235,82.152,78.354,80.771,78.354z
						"/>
				</g>
			</g>
		</g>
		<g>
			<g>
				<path d="M198.869,256H176.88c-2.854,0-5.177-2.322-5.177-5.177v-30.476c-1.802,6.815-2.713,13.828-2.713,20.896v9.58
					c0,2.854-2.322,5.177-5.177,5.177H92.187c-2.854,0-5.177-2.322-5.177-5.177v-9.58c0-7.066-0.912-14.078-2.713-20.894v30.474
					c0,2.854-2.322,5.177-5.177,5.177h-21.99c-1.768,0-3.478-0.736-4.692-2.021c-1.215-1.284-1.855-3.033-1.757-4.798l2.742-75.37
					c0.412-7.403,5.487-13.554,12.631-15.353l24.832-6.268c1.903-0.479,3.758-1.161,5.515-2.027l8.587-4.234
					c2.462-1.214,3.991-3.673,3.991-6.418v-9.887c0-1.381,1.119-2.5,2.5-2.5s2.5,1.119,2.5,2.5v9.887
					c0,4.663-2.598,8.841-6.78,10.902l-8.587,4.234c-2.073,1.022-4.261,1.826-6.504,2.392l-24.832,6.268
					c-5.012,1.262-8.571,5.575-8.859,10.733l-2.742,75.37c-0.033,0.594,0.233,0.962,0.395,1.132c0.161,0.171,0.514,0.457,1.06,0.457
					h21.99c0.098,0,0.177-0.079,0.177-0.177v-47.143c0-1.235,0.902-2.285,2.123-2.472c1.22-0.189,2.396,0.547,2.763,1.727
					l3.882,12.438c2.617,8.383,3.944,17.087,3.944,25.869v9.58c0,0.098,0.079,0.177,0.177,0.177h71.626
					c0.098,0,0.177-0.079,0.177-0.177v-9.58c0-8.783,1.327-17.487,3.943-25.869l3.883-12.438c0.368-1.179,1.542-1.907,2.764-1.727
					c1.221,0.187,2.123,1.236,2.123,2.472v47.143c0,0.098,0.079,0.177,0.177,0.177h21.989c0.547,0,0.899-0.286,1.061-0.457
					c0.161-0.17,0.427-0.537,0.396-1.083l-2.746-75.467c-0.286-5.11-3.846-9.424-8.855-10.685l-24.836-6.27
					c-2.24-0.563-4.428-1.368-6.502-2.391l-8.586-4.234c-4.183-2.062-6.78-6.239-6.78-10.902v-9.679c0-1.381,1.119-2.5,2.5-2.5
					s2.5,1.119,2.5,2.5v9.679c0,2.745,1.529,5.204,3.991,6.418l8.586,4.234c1.758,0.866,3.613,1.548,5.514,2.026l24.836,6.27
					c7.141,1.798,12.216,7.947,12.627,15.303l2.746,75.467c0.097,1.716-0.543,3.465-1.758,4.749
					C202.348,255.264,200.637,256,198.869,256z"/>
			</g>
		</g>
		<g>
			<g>
				<path d="M182.062,160.969c-0.059,0-0.116-0.002-0.175-0.006c-1.377-0.095-2.417-1.288-2.322-2.666
					c0.482-7.002-3.041-12.762-6.449-18.333c-3.722-6.083-7.569-12.373-4.762-19.393c3.898-9.745,3.712-17.104,2.87-21.563
					c-0.257-1.356,0.635-2.664,1.992-2.92c1.348-0.265,2.664,0.635,2.92,1.992c1.386,7.329,0.3,15.748-3.14,24.348
					c-1.786,4.465,0.502,8.581,4.385,14.927c3.639,5.948,7.764,12.691,7.172,21.285C184.462,159.96,183.363,160.969,182.062,160.969
					z"/>
			</g>
		</g>
		<g>
			<g>
				<path d="M73.932,160.874c-1.308,0-2.407-1.016-2.492-2.339c-0.551-8.545,3.556-15.258,7.179-21.18
					c3.882-6.346,6.171-10.462,4.385-14.927c-3.455-8.637-4.524-16.757-3.179-24.136c0.248-1.358,1.554-2.268,2.908-2.011
					c1.358,0.247,2.259,1.549,2.011,2.907c-0.807,4.427-0.958,11.729,2.903,21.382c2.808,7.02-1.041,13.31-4.763,19.394
					c-3.394,5.548-6.904,11.284-6.455,18.248c0.089,1.378-0.956,2.567-2.334,2.656C74.041,160.872,73.986,160.874,73.932,160.874z"
					/>
			</g>
		</g>
		<g>
			<g>
				<path d="M128,117.757c-4.776,0-9.262-1.949-11.999-5.214c-0.887-1.059-0.748-2.636,0.31-3.522
					c1.059-0.887,2.635-0.748,3.522,0.31c1.798,2.146,4.852,3.427,8.167,3.427s6.368-1.281,8.167-3.427
					c0.89-1.058,2.465-1.195,3.522-0.31c1.058,0.888,1.196,2.464,0.31,3.522C137.261,115.808,132.775,117.757,128,117.757z"/>
			</g>
		</g>
		<g>
			<g>
				<circle cx="143.111" cy="90.5" r="4.5"/>
			</g>
		</g>
		<g>
			<g>
				<circle cx="112.889" cy="90.5" r="4.5"/>
			</g>
		</g>
		<g>
			<g>
				<path d="M132.707,220.71c-1.344,0-2.454-1.067-2.497-2.421c-0.044-1.38,1.04-2.534,2.42-2.578
					c10.581-0.336,18.87-8.896,18.87-19.489v-10.5h-7c-1.381,0-2.5-1.119-2.5-2.5s1.119-2.5,2.5-2.5h9.5c1.381,0,2.5,1.119,2.5,2.5
					v13c0,13.309-10.415,24.064-23.712,24.487C132.762,220.71,132.734,220.71,132.707,220.71z"/>
			</g>
		</g>
		<g>
			<g>
				<path d="M123.003,220.699c-0.038,0-0.076-0.001-0.114-0.003c-13.116-0.588-23.39-11.339-23.39-24.475v-13
					c0-1.381,1.119-2.5,2.5-2.5h9.5c1.381,0,2.5,1.119,2.5,2.5s-1.119,2.5-2.5,2.5h-7v10.5c0,10.455,8.176,19.012,18.613,19.48
					c1.379,0.062,2.448,1.229,2.386,2.609C125.439,219.652,124.333,220.699,123.003,220.699z"/>
			</g>
		</g>
		<g>
			<g>
				<path d="M142.5,173h-8c-1.381,0-2.5-1.119-2.5-2.5s1.119-2.5,2.5-2.5h8c1.381,0,2.5,1.119,2.5,2.5S143.881,173,142.5,173z"/>
			</g>
		</g>
		<g>
			<g>
				<path d="M142.5,181.667h-8c-1.381,0-2.5-1.119-2.5-2.5s1.119-2.5,2.5-2.5h8c1.381,0,2.5,1.119,2.5,2.5
					S143.881,181.667,142.5,181.667z"/>
			</g>
		</g>
		<g>
			<g>
				<path d="M142.5,190.333h-8c-1.381,0-2.5-1.119-2.5-2.5s1.119-2.5,2.5-2.5h8c1.381,0,2.5,1.119,2.5,2.5
					S143.881,190.333,142.5,190.333z"/>
			</g>
		</g>
		<g>
			<g>
				<path d="M142.5,199h-8c-1.381,0-2.5-1.119-2.5-2.5s1.119-2.5,2.5-2.5h8c1.381,0,2.5,1.119,2.5,2.5S143.881,199,142.5,199z"/>
			</g>
		</g>
		<g>
			<g>
				<path d="M121.5,173h-8c-1.381,0-2.5-1.119-2.5-2.5s1.119-2.5,2.5-2.5h8c1.381,0,2.5,1.119,2.5,2.5S122.881,173,121.5,173z"/>
			</g>
		</g>
		<g>
			<g>
				<path d="M121.5,181.667h-8c-1.381,0-2.5-1.119-2.5-2.5s1.119-2.5,2.5-2.5h8c1.381,0,2.5,1.119,2.5,2.5
					S122.881,181.667,121.5,181.667z"/>
			</g>
		</g>
		<g>
			<g>
				<path d="M121.5,190.333h-8c-1.381,0-2.5-1.119-2.5-2.5s1.119-2.5,2.5-2.5h8c1.381,0,2.5,1.119,2.5,2.5
					S122.881,190.333,121.5,190.333z"/>
			</g>
		</g>
		<g>
			<g>
				<path d="M121.5,199h-8c-1.381,0-2.5-1.119-2.5-2.5s1.119-2.5,2.5-2.5h8c1.381,0,2.5,1.119,2.5,2.5S122.881,199,121.5,199z"/>
			</g>
		</g>
		<g>
			<g>
				<path class="st7" d="M63.822,125.33c-4.498-0.838-8.043-4.31-8.898-8.716c-0.043-0.221-0.352-0.221-0.395,0
					c-0.855,4.406-4.4,7.879-8.898,8.716c-0.226,0.042-0.226,0.345,0,0.387c4.498,0.838,8.043,4.31,8.898,8.717
					c0.043,0.221,0.352,0.221,0.395,0c0.855-4.406,4.4-7.879,8.898-8.717C64.047,125.675,64.047,125.373,63.822,125.33z"/>
			</g>
		</g>
		<g>
			<g>
				<path class="st8" d="M201.515,112.101c-2.862-0.533-5.118-2.743-5.663-5.547c-0.027-0.141-0.224-0.141-0.251,0
					c-0.544,2.804-2.8,5.014-5.663,5.547c-0.144,0.027-0.144,0.219,0,0.246c2.862,0.533,5.118,2.743,5.663,5.547
					c0.027,0.141,0.224,0.141,0.251,0c0.544-2.804,2.8-5.014,5.663-5.547C201.658,112.32,201.658,112.128,201.515,112.101z"/>
			</g>
		</g>
		<g>
			<g>
				<path class="st6" d="M184.246,25.75h2.33v-2.33c0-1.744,1.413-3.157,3.157-3.157s3.157,1.413,3.157,3.157v2.33h2.329
					c1.744,0,3.157,1.413,3.157,3.157s-1.413,3.157-3.157,3.157h-2.329v2.33c0,1.744-1.413,3.157-3.157,3.157
					s-3.157-1.413-3.157-3.157v-2.33h-2.33c-1.744,0-3.157-1.413-3.157-3.157S182.502,25.75,184.246,25.75z"/>
			</g>
		</g>
		<g>
			<g>
				<circle class="st9" cx="42.755" cy="154.825" r="3.377"/>
			</g>
		</g>
		<g>
			<g>
				<circle class="st7" cx="176.755" cy="3.377" r="3.377"/>
			</g>
		</g>
		<g>
			<g>
				<path d="M81.794,206.181c-1.259,0-2.343-0.948-2.482-2.229c-0.149-1.373,0.842-2.607,2.214-2.757
					c10.042-1.096,19.828-3.974,29.086-8.556c1.238-0.612,2.738-0.105,3.35,1.131c0.612,1.238,0.105,2.737-1.132,3.35
					c-9.785,4.844-20.135,7.887-30.762,9.046C81.976,206.176,81.884,206.181,81.794,206.181z"/>
			</g>
		</g>
		<g>
			<g>
				<path d="M144.386,172.102c-0.597,0-1.195-0.213-1.674-0.644c-1.025-0.926-1.106-2.506-0.182-3.531
					c4.729-5.241,9.075-10.916,12.916-16.866c0.75-1.161,2.299-1.491,3.456-0.745c1.16,0.749,1.494,2.296,0.745,3.456
					c-3.986,6.176-8.496,12.065-13.404,17.505C145.749,171.823,145.069,172.102,144.386,172.102z"/>
			</g>
		</g>
		<g>
			<g>
				<path d="M171.746,214.058c-0.74,0-1.474-0.327-1.967-0.954c-5.3-6.736-6.489-33.283,2.729-56.151
					c0.516-1.28,1.969-1.903,3.253-1.384c1.28,0.516,1.9,1.973,1.384,3.253c-9.213,22.857-6.909,46.775-3.436,51.19
					c0.854,1.085,0.666,2.657-0.419,3.511C172.832,213.883,172.287,214.058,171.746,214.058z"/>
			</g>
		</g>
		<g>
			<g>
				<path d="M132,210.722h-8c-7.995,0-14.5-6.505-14.5-14.5v-25c0-7.995,6.505-14.5,14.5-14.5h8c7.995,0,14.5,6.505,14.5,14.5v25
					C146.5,204.217,139.995,210.722,132,210.722z M124,161.722c-5.238,0-9.5,4.262-9.5,9.5v25c0,5.238,4.262,9.5,9.5,9.5h8
					c5.238,0,9.5-4.262,9.5-9.5v-25c0-5.238-4.262-9.5-9.5-9.5H124z"/>
			</g>
		</g>
		<g>
			<g>
				<path d="M119.674,255.156c-1.381,0-2.5-1.119-2.5-2.5v-9.723c0-3.565,2.901-6.467,6.467-6.467h8.717
					c3.565,0,6.467,2.901,6.467,6.467v9.691c0,1.381-1.119,2.5-2.5,2.5s-2.5-1.119-2.5-2.5v-9.691c0-0.809-0.658-1.467-1.467-1.467
					h-8.717c-0.809,0-1.467,0.658-1.467,1.467v9.723C122.174,254.037,121.055,255.156,119.674,255.156z"/>
			</g>
		</g>
		<g>
			<g>
				<path d="M133,240.813c-1.381,0-2.5-1.119-2.5-2.5v-17.814c0-1.379-1.121-2.5-2.5-2.5c-1.378,0-2.5,1.121-2.5,2.5v17.751
					c0,1.381-1.119,2.5-2.5,2.5s-2.5-1.119-2.5-2.5v-17.751c0-4.136,3.364-7.5,7.5-7.5s7.5,3.364,7.5,7.5v17.814
					C135.5,239.694,134.381,240.813,133,240.813z"/>
			</g>
		</g>
	</g>
</g>
<g id="Layer_69">
</g>
<g id="Layer_70">
</g>
<g id="Layer_71">
</g>
<g id="Layer_72">
</g>
<g id="Layer_73">
</g>
<g id="Layer_74">
</g>
<g id="Layer_75">
</g>
<g id="Layer_76">
</g>
<g id="Layer_77">
</g>
<g id="Layer_78">
</g>
<g id="Layer_79">
</g>
<g id="Layer_80">
</g>
</svg>
