<?xml version="1.0" encoding="utf-8"?>
<!-- Generator: Adobe Illustrator 24.0.0, SVG Export Plug-In . SVG Version: 6.00 Build 0)  -->
<svg version="1.1" xmlns="http://www.w3.org/2000/svg" xmlns:xlink="http://www.w3.org/1999/xlink" x="0px" y="0px"
	 viewBox="0 0 256 256" style="enable-background:new 0 0 256 256;" xml:space="preserve">
<style type="text/css">
	.st0{fill:#3A70BF;}
	.st1{fill:#EDF4FC;}
	.st2{fill:#C7D7E5;}
	.st3{fill:#F9D0B4;}
	.st4{fill:#5B5D60;}
	.st5{fill:#5290DB;}
	.st6{fill:#70D6F9;}
	.st7{fill:#F5C84C;}
	.st8{fill:#FC657E;}
	.st9{fill:#87D147;}
	.st10{fill:#FCDD86;}
	.st11{fill:#9BE5F9;}
	.st12{fill:#B2E26D;}
	.st13{fill:#754E34;}
	.st14{fill:#FCA265;}
	.st15{fill:#818182;}
	.st16{fill:#F94EED;}
	.st17{fill:#FFC197;}
	.st18{fill:#3CAADC;}
	.st19{fill:#DAE6F1;}
	.st20{fill:#57AF12;}
	.st21{fill:#EF4460;}
	.st22{fill:#FFF0CA;}
	.st23{fill:#F98FA6;}
	.st24{fill:#EDB311;}
	.st25{fill:#FC8C48;}
	.st26{fill:#FCB9CB;}
	.st27{fill:#96BC71;}
	.st28{fill:#78A352;}
	.st29{fill:#B8DD90;}
	.st30{fill:#6FAFEF;}
	.st31{fill:#29589F;}
	.st32{fill:#414344;}
	.st33{fill:#9B6B4B;}
	.st34{fill:#73B1EF;}
</style>
<g id="Layer_1">
</g>
<g id="Layer_2">
</g>
<g id="Layer_3">
</g>
<g id="Layer_4">
</g>
<g id="Layer_5">
</g>
<g id="Layer_6">
</g>
<g id="Layer_7">
</g>
<g id="Layer_8">
</g>
<g id="Layer_9">
</g>
<g id="Layer_10">
</g>
<g id="Layer_11">
</g>
<g id="Layer_12">
</g>
<g id="Layer_13">
</g>
<g id="Layer_14">
</g>
<g id="Layer_15">
</g>
<g id="Layer_16">
</g>
<g id="Layer_17">
</g>
<g id="Layer_18">
</g>
<g id="Layer_19">
</g>
<g id="Layer_20">
</g>
<g id="Layer_21">
</g>
<g id="Layer_22">
</g>
<g id="Layer_23">
</g>
<g id="Layer_24">
</g>
<g id="Layer_25">
</g>
<g id="Layer_26">
</g>
<g id="Layer_27">
</g>
<g id="Layer_28">
</g>
<g id="Layer_29">
</g>
<g id="Layer_30">
</g>
<g id="Layer_31">
</g>
<g id="Layer_32">
</g>
<g id="Layer_33">
	<g>
		<g>
			<g>
				<path class="st27" d="M189.106,159.348l-19.859-5.382c-1.446-0.392-2.936,0.463-3.327,1.909l-0.935,3.451
					c-0.392,1.446,0.463,2.936,1.909,3.327l19.859,5.382c1.446,0.392,2.936-0.463,3.327-1.909l0.935-3.451
					C191.407,161.229,190.552,159.739,189.106,159.348z"/>
			</g>
		</g>
		<g>
			<g>
				<path class="st27" d="M66.894,159.348l19.859-5.382c1.446-0.392,2.936,0.463,3.327,1.909l0.935,3.451
					c0.392,1.446-0.463,2.936-1.909,3.327l-19.859,5.382c-1.446,0.392-2.936-0.463-3.327-1.909l-0.935-3.451
					C64.593,161.229,65.448,159.739,66.894,159.348z"/>
			</g>
		</g>
		<g>
			<g>
				<path class="st3" d="M90.244,78.305v23.618c0,20.468,16.747,37.215,37.215,37.215h0c20.468,0,37.215-16.747,37.215-37.215
					V78.305H90.244z"/>
			</g>
		</g>
		<g>
			<g>
				<path class="st3" d="M178.034,78.098c-0.49,0.131-1.002,0.207-1.533,0.207h-11.827c0,7.028,0,19.056,0,23.618
					c0,0.839-0.038,1.67-0.094,2.496c0.81,0.13,1.635,0.217,2.482,0.217c8.581,0,15.537-6.956,15.537-15.537
					C182.599,84.801,180.854,80.911,178.034,78.098z"/>
			</g>
		</g>
		<g>
			<g>
				<path class="st3" d="M90.244,78.305H79.499c-0.825,0-1.609-0.169-2.323-0.473c-2.986,2.831-4.858,6.826-4.858,11.266
					c0,8.581,6.956,15.537,15.538,15.537c0.847,0,1.672-0.086,2.482-0.217v-0.001c-0.055-0.826-0.094-1.656-0.094-2.495
					C90.244,98.719,90.244,86.683,90.244,78.305z"/>
			</g>
		</g>
		<g>
			<g>
				<path class="st27" d="M158.648,154.265l-8.134-7.427c-0.753-0.687-1.917-0.646-2.619,0.092l-15.687,16.491
					c-0.77,0.81-0.78,2.078-0.022,2.899l8.157,8.837c0.936,1.014,2.552,0.97,3.431-0.094l15.054-18.223
					C159.465,156.071,159.385,154.938,158.648,154.265z"/>
			</g>
		</g>
		<g>
			<g>
				<path class="st27" d="M97.352,154.265l8.134-7.427c0.753-0.687,1.917-0.646,2.619,0.092l15.687,16.491
					c0.77,0.81,0.78,2.078,0.022,2.899l-8.157,8.837c-0.936,1.014-2.552,0.97-3.431-0.094L97.171,156.84
					C96.535,156.071,96.615,154.938,97.352,154.265z"/>
			</g>
		</g>
		<g>
			<g>
				<path class="st3" d="M123.813,166.321l-0.165,0.179h8.704l-0.165-0.179c-0.758-0.821-0.748-2.089,0.022-2.899l14.884-15.648
					c-1.249-2.003-1.948-4.349-1.948-6.803v-6.335c-5.268,2.868-11.296,4.501-17.686,4.501h0c-5.959,0-11.597-1.427-16.604-3.945
					v5.778c0,2.453-0.699,4.8-1.948,6.803l14.884,15.648C124.562,164.232,124.571,165.5,123.813,166.321z"/>
			</g>
		</g>
		<g>
			<g>
				<path class="st28" d="M179.507,230.5v-12h25.339l-2.335-40.261c-0.357-6.417-4.846-11.856-11.078-13.425l-0.933-0.235
					l-0.419,1.547c-0.392,1.446-1.882,2.3-3.327,1.908l-19.859-5.382c-1.446-0.392-2.3-1.881-1.909-3.328l0.296-1.093l-2.751-0.692
					l-3.296-1.625c-0.047,0.33-0.179,0.651-0.406,0.925l-15.054,18.224c-0.879,1.064-2.495,1.109-3.431,0.094l-7.992-8.658h-8.704
					l-7.992,8.658c-0.936,1.014-2.552,0.97-3.431-0.094L97.171,156.84c-0.227-0.275-0.358-0.596-0.406-0.925l-3.296,1.625
					l-2.751,0.692l0.296,1.093c0.392,1.446-0.463,2.936-1.909,3.328l-19.859,5.382c-1.446,0.392-2.936-0.463-3.327-1.908
					l-0.419-1.547l-0.933,0.235c-6.233,1.569-10.721,7.008-11.078,13.425L51.154,218.5h25.339v12H50.458l-1.084,18.69
					c-0.13,2.34,1.732,4.31,4.076,4.31h149.098c2.344,0,4.207-1.969,4.076-4.31l-1.084-18.69H179.507z"/>
			</g>
		</g>
		<g>
			<g>
				<path class="st27" d="M176.501,66.45H79.499c-3.274,0-5.928,2.654-5.928,5.928c0,3.274,2.654,5.928,5.928,5.928h97.002
					c3.274,0,5.928-2.654,5.928-5.928C182.429,69.104,179.775,66.45,176.501,66.45z"/>
			</g>
		</g>
		<g>
			<g>
				<path class="st28" d="M128,13.694L128,13.694c-26.439,0-47.871,21.433-47.871,47.871v4.884h95.742v-4.884
					C175.871,35.127,154.439,13.694,128,13.694z"/>
			</g>
		</g>
		<g>
			<g>
				<path class="st27" d="M204.846,218.5l-2.335-40.261c-0.201-3.604-1.705-6.899-4.089-9.374l-14.523,15.876
					c-2.8,3.061-4.355,7.059-4.357,11.208l-0.013,22.55H204.846z"/>
			</g>
		</g>
		<g>
			<g>
				<path class="st3" d="M179.52,230.5l-0.014,23h23.042c2.344,0,4.207-1.969,4.076-4.31l-1.084-18.69H179.52z"/>
			</g>
		</g>
		<g>
			<g>
				<path class="st27" d="M76.472,218.5l-0.013-22.55c-0.002-4.149-1.557-8.147-4.357-11.208l-14.523-15.876
					c-2.384,2.475-3.888,5.77-4.089,9.374L51.154,218.5H76.472z"/>
			</g>
		</g>
		<g>
			<g>
				<path class="st3" d="M50.458,230.5l-1.084,18.69c-0.13,2.34,1.732,4.31,4.076,4.31h23.042l-0.014-23H50.458z"/>
			</g>
		</g>
		<g>
			<g>
				<path class="st29" d="M205.831,218.5h-26.325v12h26.325c1.478,0,2.675-1.198,2.675-2.676v-6.649
					C208.507,219.698,207.309,218.5,205.831,218.5z"/>
			</g>
		</g>
		<g>
			<g>
				<path class="st29" d="M50.169,218.5h26.325v12H50.169c-1.478,0-2.675-1.198-2.675-2.676v-6.649
					C47.493,219.698,48.691,218.5,50.169,218.5z"/>
			</g>
		</g>
		<g>
			<g>
				<path class="st10" d="M108.788,182.5H92.212c-1.498,0-2.712,1.214-2.712,2.712v3.575c0,1.498,1.214,2.712,2.712,2.712h16.575
					c1.498,0,2.712-1.214,2.712-2.712v-3.575C111.5,183.714,110.286,182.5,108.788,182.5z"/>
			</g>
		</g>
		<g>
			<g>
				<path class="st29" d="M164.393,199.5h-18.785c-1.854,0-3.357,1.503-3.357,3.357v5.785c0,1.854,1.503,3.357,3.357,3.357h18.785
					c1.854,0,3.357-1.503,3.357-3.357v-5.785C167.75,201.003,166.247,199.5,164.393,199.5z"/>
			</g>
		</g>
		<g>
			<g>
				<path class="st27" d="M164.393,212h-18.785c-1.854,0-3.357-1.503-3.357-3.357v13c0,1.854,1.503,3.357,3.357,3.357h18.785
					c1.854,0,3.357-1.503,3.357-3.357v-13C167.75,210.497,166.247,212,164.393,212z"/>
			</g>
		</g>
		<g>
			<g>
				<path class="st29" d="M110.393,199.5H91.607c-1.854,0-3.357,1.503-3.357,3.357v5.785c0,1.854,1.503,3.357,3.357,3.357h18.785
					c1.854,0,3.357-1.503,3.357-3.357v-5.785C113.75,201.003,112.247,199.5,110.393,199.5z"/>
			</g>
		</g>
		<g>
			<g>
				<path class="st27" d="M110.393,212H91.607c-1.854,0-3.357-1.503-3.357-3.357v13c0,1.854,1.503,3.357,3.357,3.357h18.785
					c1.854,0,3.357-1.503,3.357-3.357v-13C113.75,210.497,112.247,212,110.393,212z"/>
			</g>
		</g>
		<g>
			<g>
				<path class="st7" d="M163.855,38.442c-5.319-2.525-16.957-6.689-35.855-6.689s-30.536,4.164-35.855,6.689
					c-2.096,0.995-3.431,3.089-3.431,5.41v8.281c0,2.689,1.797,5.047,4.389,5.761l17.239,4.746c2.083,0.573,4.313-0.022,5.833-1.557
					l7.579-7.656c2.338-2.362,6.155-2.362,8.493,0l7.578,7.656c1.52,1.536,3.75,2.131,5.833,1.557l17.239-4.746
					c2.593-0.714,4.389-3.072,4.389-5.761v-8.281C167.286,41.531,165.951,39.437,163.855,38.442z"/>
			</g>
		</g>
		<g>
			<g>
				<path class="st10" d="M150.862,61.206l10.66-2.935l-12.063-24.455c-3.71-0.774-8.029-1.408-12.976-1.76L150.862,61.206z"/>
			</g>
		</g>
		<g>
			<g>
				<path class="st15" d="M131.088,128.5h-6.177c-4.076,0-7.412,3.335-7.412,7.412v1.854c3.174,0.888,6.512,1.373,9.959,1.373h0
					c3.84,0,7.549-0.59,11.041-1.682v-1.544C138.5,131.835,135.165,128.5,131.088,128.5z"/>
			</g>
		</g>
		<g>
			<g>
				<path d="M187.471,170.631c-0.458,0-0.919-0.061-1.373-0.184l-19.858-5.382c-1.344-0.364-2.465-1.229-3.158-2.438
					c-0.692-1.208-0.873-2.614-0.509-3.958l0.935-3.449c0.364-1.344,1.229-2.466,2.438-3.159c1.207-0.692,2.612-0.875,3.956-0.509
					l19.859,5.382h-0.001c1.345,0.364,2.466,1.229,3.159,2.438c0.692,1.208,0.873,2.614,0.509,3.958l-0.935,3.449
					c-0.364,1.344-1.229,2.466-2.438,3.159C189.255,170.396,188.368,170.631,187.471,170.631z M168.538,156.372
					c-0.094,0-0.18,0.062-0.205,0.156l-0.935,3.451c-0.026,0.098,0.053,0.235,0.148,0.261l19.859,5.382
					c0.02,0.006,0.087,0.022,0.161-0.021c0.076-0.044,0.094-0.107,0.1-0.128l0.935-3.451c0.026-0.098-0.053-0.235-0.148-0.261
					c0,0,0,0-0.001,0l-19.858-5.382C168.575,156.374,168.557,156.372,168.538,156.372z"/>
			</g>
		</g>
		<g>
			<g>
				<path d="M68.529,170.631c-0.898,0-1.785-0.234-2.584-0.693c-1.208-0.693-2.073-1.814-2.438-3.158l-0.935-3.451
					c-0.364-1.344-0.183-2.749,0.51-3.957c0.693-1.208,1.814-2.073,3.158-2.438l19.859-5.382c2.773-0.75,5.643,0.894,6.395,3.667
					l0.935,3.451c0.364,1.344,0.183,2.749-0.51,3.957c-0.693,1.208-1.814,2.073-3.158,2.438l-19.859,5.382
					C69.448,170.57,68.987,170.631,68.529,170.631z M87.461,156.372c-0.018,0-0.037,0.002-0.055,0.007l-19.859,5.382l0,0
					c-0.021,0.006-0.085,0.023-0.128,0.099c-0.044,0.076-0.027,0.14-0.021,0.161l0.935,3.451c0.005,0.021,0.023,0.085,0.1,0.129
					c0.075,0.043,0.14,0.027,0.161,0.021l19.859-5.382c0.021-0.006,0.085-0.023,0.128-0.099c0.044-0.076,0.027-0.14,0.021-0.161
					l-0.935-3.451C87.642,156.434,87.555,156.372,87.461,156.372z M66.894,159.348h0.01H66.894z"/>
			</g>
		</g>
		<g>
			<g>
				<path d="M127.459,141.638c-21.899,0-39.715-17.816-39.715-39.715V78.306c0-1.381,1.119-2.5,2.5-2.5h74.43
					c1.381,0,2.5,1.119,2.5,2.5v23.618C167.174,123.822,149.357,141.638,127.459,141.638z M92.744,80.806v21.118
					c0,19.142,15.573,34.715,34.715,34.715s34.715-15.573,34.715-34.715V80.806H92.744z"/>
			</g>
		</g>
		<g>
			<g>
				<path d="M167.062,107.136c-0.636,0-1.283-0.04-1.979-0.123c-1.371-0.162-2.351-1.405-2.188-2.776s1.4-2.351,2.776-2.189
					c0.498,0.059,0.953,0.088,1.391,0.088c7.189,0,13.038-5.849,13.038-13.038c0-3.28-1.223-6.415-3.443-8.827
					c-0.936-1.016-0.87-2.598,0.146-3.533c1.018-0.937,2.599-0.869,3.532,0.146c3.073,3.338,4.766,7.676,4.766,12.214
					C185.1,99.044,177.008,107.136,167.062,107.136z"/>
			</g>
		</g>
		<g>
			<g>
				<path d="M87.856,107.136c-9.946,0-18.038-8.092-18.038-18.038c0-4.696,1.806-9.146,5.084-12.532
					c0.96-0.991,2.542-1.017,3.535-0.057c0.992,0.96,1.017,2.543,0.057,3.535c-2.371,2.448-3.676,5.664-3.676,9.054
					c0,7.189,5.849,13.038,13.038,13.038c0.403,0,0.818-0.024,1.268-0.073c1.374-0.154,2.607,0.84,2.758,2.212
					c0.151,1.373-0.839,2.607-2.212,2.758C89.037,107.102,88.443,107.136,87.856,107.136z"/>
			</g>
		</g>
		<g>
			<g>
				<path d="M128,118.573c-4.776,0-9.262-1.95-11.999-5.215c-0.887-1.058-0.748-2.635,0.31-3.522
					c1.059-0.887,2.635-0.747,3.522,0.31c1.798,2.146,4.852,3.427,8.167,3.427s6.368-1.281,8.167-3.427
					c0.89-1.058,2.465-1.195,3.522-0.309c1.058,0.887,1.196,2.464,0.31,3.522C137.261,116.624,132.775,118.573,128,118.573z"/>
			</g>
		</g>
		<g>
			<g>
				<circle cx="144.789" cy="90.816" r="5"/>
			</g>
		</g>
		<g>
			<g>
				<circle cx="111.211" cy="90.816" r="5"/>
			</g>
		</g>
		<g>
			<g>
				<path d="M142.019,178.391c-1.332,0-2.605-0.556-3.512-1.538l-8.157-8.836c-1.646-1.783-1.625-4.558,0.046-6.317l15.688-16.493
					c1.629-1.712,4.37-1.807,6.116-0.216l8.134,7.427c1.724,1.573,1.909,4.215,0.422,6.014l-15.053,18.223
					c-0.879,1.063-2.174,1.695-3.553,1.733C142.106,178.391,142.062,178.391,142.019,178.391z M134.265,164.887l7.744,8.39
					l14.513-17.568l-7.238-6.609L134.265,164.887z M156.962,156.111C156.963,156.111,156.963,156.111,156.962,156.111
					L156.962,156.111L156.962,156.111z"/>
			</g>
		</g>
		<g>
			<g>
				<path d="M113.982,178.391c-0.044,0-0.087,0-0.131-0.002c-1.379-0.038-2.674-0.669-3.553-1.733l-15.054-18.224
					c-1.486-1.798-1.301-4.439,0.422-6.013h0l8.134-7.427c1.744-1.593,4.489-1.496,6.116,0.216l15.687,16.491
					c1.673,1.76,1.693,4.535,0.047,6.318l-8.157,8.836C116.587,177.835,115.313,178.391,113.982,178.391z M99.479,155.708
					l14.512,17.568l7.744-8.39l-15.018-15.788L99.479,155.708z M99.038,156.111c0-0.001,0.001-0.001,0.002-0.002L99.038,156.111
					L99.038,156.111z"/>
			</g>
		</g>
		<g>
			<g>
				<path d="M109.187,149.8c-0.417,0-0.839-0.104-1.229-0.324c-1.202-0.68-1.625-2.205-0.945-3.407
					c0.878-1.552,1.342-3.314,1.342-5.097v-5.368c0-1.381,1.119-2.5,2.5-2.5s2.5,1.119,2.5,2.5v5.368
					c0,2.644-0.688,5.257-1.989,7.559C110.906,149.344,110.059,149.8,109.187,149.8z"/>
			</g>
		</g>
		<g>
			<g>
				<path d="M146.731,149.654c-0.883,0-1.739-0.469-2.193-1.298c-1.239-2.257-1.894-4.811-1.894-7.384v-5.534
					c0-1.381,1.119-2.5,2.5-2.5s2.5,1.119,2.5,2.5v5.534c0,1.735,0.441,3.457,1.276,4.979c0.664,1.21,0.222,2.73-0.989,3.395
					C147.551,149.555,147.139,149.654,146.731,149.654z"/>
			</g>
		</g>
		<g>
			<g>
				<path d="M131.896,169h-7.667c-1.381,0-2.5-1.119-2.5-2.5s1.119-2.5,2.5-2.5h7.667c1.381,0,2.5,1.119,2.5,2.5
					S133.277,169,131.896,169z"/>
			</g>
		</g>
		<g>
			<g>
				<path d="M51.2,220.251c-0.049,0-0.098-0.001-0.147-0.004c-1.378-0.08-2.431-1.262-2.351-2.64l2.292-39.512
					c0.42-7.545,5.63-13.859,12.964-15.705c1.34-0.339,2.697,0.475,3.035,1.814c0.337,1.339-0.475,2.698-1.814,3.035
					c-5.2,1.309-8.895,5.786-9.193,11.14l-2.292,39.518C53.617,219.225,52.515,220.251,51.2,220.251z"/>
			</g>
		</g>
		<g>
			<g>
				<path d="M91.108,160.634c-1.119,0-2.137-0.756-2.422-1.89c-0.337-1.339,0.475-2.698,1.814-3.035l2.102-0.529l2.786-1.373
					c1.239-0.61,2.737-0.102,3.348,1.137s0.102,2.737-1.137,3.348l-3.023,1.491c-0.158,0.078-0.324,0.139-0.495,0.182l-2.359,0.594
					C91.515,160.609,91.31,160.634,91.108,160.634z"/>
			</g>
		</g>
		<g>
			<g>
				<path d="M164.9,160.636c-0.202,0-0.407-0.024-0.612-0.076l-2.367-0.596c-0.172-0.043-0.338-0.104-0.496-0.182l-2.878-1.419
					c-1.238-0.611-1.747-2.11-1.137-3.348c0.611-1.238,2.109-1.747,3.348-1.136l2.64,1.302l2.11,0.531
					c1.34,0.336,2.152,1.695,1.815,3.034C167.037,159.879,166.019,160.636,164.9,160.636z"/>
			</g>
		</g>
		<g>
			<g>
				<path d="M204.798,220.208c-1.314,0-2.417-1.026-2.494-2.355l-2.289-39.469c-0.298-5.359-3.992-9.836-9.192-11.145
					c-1.339-0.337-2.151-1.696-1.814-3.035c0.338-1.339,1.696-2.151,3.035-1.814c7.333,1.846,12.543,8.159,12.964,15.71
					l2.289,39.464c0.08,1.378-0.973,2.561-2.352,2.64C204.896,220.207,204.847,220.208,204.798,220.208z"/>
			</g>
		</g>
		<g>
			<g>
				<path d="M202.549,256H53.451c-1.802,0-3.545-0.75-4.783-2.06c-1.238-1.309-1.89-3.09-1.79-4.889l1.054-18.163
					c0.08-1.378,1.272-2.434,2.64-2.351c1.378,0.08,2.431,1.262,2.351,2.64l-1.053,18.158c-0.024,0.433,0.129,0.85,0.431,1.169
					c0.302,0.319,0.711,0.495,1.15,0.495h149.098c0.439,0,0.848-0.176,1.15-0.495c0.302-0.319,0.454-0.736,0.43-1.175l-1.037-17.878
					c-0.08-1.378,0.973-2.561,2.352-2.64c1.386-0.091,2.561,0.973,2.641,2.351l1.037,17.883c0.101,1.803-0.552,3.585-1.789,4.894
					C206.094,255.249,204.351,256,202.549,256z"/>
			</g>
		</g>
		<g>
			<g>
				<path d="M128,255c-1.381,0-2.5-1.119-2.5-2.5v-76c0-1.381,1.119-2.5,2.5-2.5s2.5,1.119,2.5,2.5v76
					C130.5,253.881,129.381,255,128,255z"/>
			</g>
		</g>
		<g>
			<g>
				<path d="M176.501,80.806H79.499c-4.647,0-8.428-3.781-8.428-8.428c0-4.647,3.781-8.428,8.428-8.428h97.002
					c4.647,0,8.428,3.781,8.428,8.428C184.929,77.025,181.148,80.806,176.501,80.806z M79.499,68.95
					c-1.89,0-3.428,1.538-3.428,3.428s1.538,3.428,3.428,3.428h97.002c1.89,0,3.428-1.538,3.428-3.428s-1.538-3.428-3.428-3.428
					H79.499z"/>
			</g>
		</g>
		<g>
			<g>
				<path d="M80.129,68.188c-1.381,0-2.5-1.119-2.5-2.5v-4.123c0-27.775,22.596-50.371,50.371-50.371
					c27.774,0,50.371,22.596,50.371,50.371v4.102c0,1.381-1.119,2.5-2.5,2.5s-2.5-1.119-2.5-2.5v-4.102
					c0-25.018-20.354-45.371-45.371-45.371S82.629,36.548,82.629,61.565v4.123C82.629,67.069,81.51,68.188,80.129,68.188z"/>
			</g>
		</g>
		<g>
			<g>
				<path class="st7" d="M203.822,28.33c-4.498-0.838-8.043-4.31-8.898-8.716c-0.043-0.221-0.352-0.221-0.395,0
					c-0.855,4.406-4.4,7.879-8.898,8.716c-0.226,0.042-0.226,0.345,0,0.387c4.498,0.838,8.043,4.31,8.898,8.717
					c0.043,0.221,0.352,0.221,0.395,0c0.855-4.406,4.4-7.879,8.898-8.717C204.047,28.675,204.047,28.373,203.822,28.33z"/>
			</g>
		</g>
		<g>
			<g>
				<path class="st9" d="M202.515,112.101c-2.862-0.533-5.118-2.743-5.663-5.547c-0.027-0.141-0.224-0.141-0.251,0
					c-0.544,2.804-2.8,5.014-5.663,5.547c-0.144,0.027-0.144,0.219,0,0.246c2.862,0.533,5.118,2.743,5.663,5.547
					c0.027,0.141,0.224,0.141,0.251,0c0.544-2.804,2.8-5.014,5.663-5.547C202.658,112.32,202.658,112.128,202.515,112.101z"/>
			</g>
		</g>
		<g>
			<g>
				<path class="st6" d="M63.246,120.75h2.33v-2.33c0-1.744,1.413-3.157,3.157-3.157c1.744,0,3.157,1.413,3.157,3.157v2.33h2.329
					c1.744,0,3.157,1.413,3.157,3.157s-1.413,3.157-3.157,3.157h-2.329v2.33c0,1.744-1.413,3.157-3.157,3.157
					c-1.744,0-3.157-1.413-3.157-3.157v-2.33h-2.33c-1.744,0-3.157-1.413-3.157-3.157S61.502,120.75,63.246,120.75z"/>
			</g>
		</g>
		<g>
			<g>
				<circle class="st7" cx="53.755" cy="152.825" r="3.377"/>
			</g>
		</g>
		<g>
			<g>
				<circle class="st8" cx="177.755" cy="3.377" r="3.377"/>
			</g>
		</g>
		<g>
			<g>
				<path d="M179.527,221c-0.001,0-0.001,0-0.002,0c-1.38-0.001-2.499-1.121-2.498-2.501l0.014-22.55
					c0.002-4.784,1.782-9.363,5.013-12.895l14.152-15.471c0.932-1.019,2.514-1.09,3.532-0.157c1.019,0.932,1.089,2.513,0.157,3.532
					l-14.152,15.471c-2.386,2.608-3.7,5.989-3.702,9.522l-0.014,22.551C182.026,219.882,180.907,221,179.527,221z"/>
			</g>
		</g>
		<g>
			<g>
				<path d="M179.507,255.083c-0.001,0-0.001,0-0.002,0c-1.38-0.001-2.499-1.121-2.498-2.501l0.014-22.083
					c0.001-1.38,1.12-2.499,2.5-2.499c0,0,0.001,0,0.002,0c1.38,0.001,2.499,1.121,2.498,2.501l-0.014,22.083
					C182.006,253.965,180.887,255.083,179.507,255.083z"/>
			</g>
		</g>
		<g>
			<g>
				<path d="M76.473,221c-1.38,0-2.499-1.118-2.5-2.499l-0.014-22.55c-0.002-3.533-1.317-6.915-3.702-9.522l-13.88-15.173
					c-0.932-1.019-0.861-2.6,0.157-3.532c1.018-0.931,2.601-0.862,3.532,0.157l13.88,15.173c3.229,3.53,5.01,8.11,5.013,12.895
					l0.014,22.55c0.001,1.381-1.118,2.5-2.499,2.501H76.473z"/>
			</g>
		</g>
		<g>
			<g>
				<path d="M76.493,255.042c-1.38,0-2.5-1.119-2.5-2.499l-0.013-35.042c0-1.381,1.118-2.5,2.499-2.501h0.001
					c1.38,0,2.5,1.119,2.5,2.499l0.013,35.042C78.993,253.922,77.875,255.042,76.493,255.042
					C76.493,255.042,76.493,255.042,76.493,255.042z"/>
			</g>
		</g>
		<g>
			<g>
				<path d="M205.831,233h-26.324c-1.381,0-2.5-1.119-2.5-2.5v-12c0-1.381,1.119-2.5,2.5-2.5h26.324
					c2.854,0,5.176,2.322,5.176,5.175v6.649C211.007,230.678,208.685,233,205.831,233z M182.007,228h23.824
					c0.097,0,0.176-0.079,0.176-0.175v-6.649c0-0.097-0.079-0.175-0.176-0.175h-23.824V228z"/>
			</g>
		</g>
		<g>
			<g>
				<path d="M76.493,233H50.169c-2.854,0-5.176-2.322-5.176-5.176v-6.649c0-2.854,2.322-5.175,5.176-5.175h26.324
					c1.381,0,2.5,1.119,2.5,2.5s-1.119,2.5-2.5,2.5H50.169c-0.097,0-0.176,0.079-0.176,0.175v6.649c0,0.097,0.079,0.176,0.176,0.176
					h26.324c1.381,0,2.5,1.119,2.5,2.5S77.874,233,76.493,233z"/>
			</g>
		</g>
		<g>
			<g>
				<path d="M108.788,194H92.212c-2.874,0-5.212-2.338-5.212-5.212v-3.575c0-2.874,2.338-5.212,5.212-5.212h16.575
					c2.874,0,5.212,2.338,5.212,5.212v3.575C114,191.662,111.662,194,108.788,194z M92.212,185c-0.117,0-0.212,0.095-0.212,0.212
					v3.575c0,0.117,0.095,0.212,0.212,0.212h16.575c0.117,0,0.212-0.095,0.212-0.212v-3.575c0-0.117-0.095-0.212-0.212-0.212H92.212
					z"/>
			</g>
		</g>
		<g>
			<g>
				<path d="M164.393,214.5h-18.785c-3.229,0-5.857-2.627-5.857-5.857v-5.785c0-3.23,2.628-5.857,5.857-5.857h18.785
					c3.229,0,5.857,2.627,5.857,5.857v5.785C170.25,211.873,167.622,214.5,164.393,214.5z M145.607,202
					c-0.473,0-0.857,0.385-0.857,0.857v5.785c0,0.473,0.385,0.857,0.857,0.857h18.785c0.473,0,0.857-0.385,0.857-0.857v-5.785
					c0-0.473-0.385-0.857-0.857-0.857H145.607z"/>
			</g>
		</g>
		<g>
			<g>
				<path d="M164.393,227.5h-18.785c-3.229,0-5.857-2.627-5.857-5.857v-13c0-1.381,1.119-2.5,2.5-2.5s2.5,1.119,2.5,2.5
					c0.009,0.122,0.009,0.243,0,0.362v12.638c0,0.473,0.385,0.857,0.857,0.857h18.785c0.473,0,0.857-0.385,0.857-0.857v-12.485
					c0-1.381,1.119-2.5,2.5-2.5s2.5,1.119,2.5,2.5v12.485C170.25,224.873,167.622,227.5,164.393,227.5z"/>
			</g>
		</g>
		<g>
			<g>
				<path d="M110.393,214.5H91.607c-3.23,0-5.857-2.627-5.857-5.857v-5.785c0-3.23,2.627-5.857,5.857-5.857h18.785
					c3.23,0,5.857,2.627,5.857,5.857v5.785C116.25,211.873,113.623,214.5,110.393,214.5z M91.607,202
					c-0.473,0-0.857,0.385-0.857,0.857v5.785c0,0.473,0.385,0.857,0.857,0.857h18.785c0.473,0,0.857-0.385,0.857-0.857v-5.785
					c0-0.473-0.385-0.857-0.857-0.857H91.607z"/>
			</g>
		</g>
		<g>
			<g>
				<path d="M110.393,227.5H91.607c-3.23,0-5.857-2.627-5.857-5.857v-12.361c0-1.381,1.119-2.5,2.5-2.5s2.5,1.119,2.5,2.5v12.361
					c0,0.473,0.385,0.857,0.857,0.857h18.785c0.473,0,0.857-0.385,0.857-0.857v-12.483c0-1.381,1.119-2.5,2.5-2.5s2.5,1.119,2.5,2.5
					v12.483C116.25,224.873,113.623,227.5,110.393,227.5z"/>
			</g>
		</g>
		<g>
			<g>
				<path d="M144.076,65.353c-2.233,0-4.416-0.884-6.027-2.512l-7.578-7.656c-1.316-1.329-3.625-1.33-4.94,0l-7.579,7.656
					c-2.154,2.174-5.323,3.021-8.274,2.208l-17.238-4.746c-3.666-1.01-6.226-4.37-6.226-8.171v-8.281
					c0-3.257,1.907-6.267,4.859-7.668c5.453-2.589,17.501-6.931,36.927-6.931s31.473,4.342,36.926,6.931l0,0
					c2.952,1.4,4.86,4.411,4.86,7.668v8.281c0,3.801-2.561,7.162-6.226,8.171l-17.239,4.746
					C145.581,65.253,144.825,65.353,144.076,65.353z M127.999,49.154c2.28,0,4.42,0.892,6.024,2.513l7.578,7.656
					c0.884,0.893,2.186,1.239,3.393,0.906l17.239-4.746c1.503-0.414,2.553-1.792,2.553-3.351v-8.281
					c0-1.357-0.768-2.565-2.003-3.151l-0.001,0c-5.072-2.408-16.336-6.448-34.782-6.448c-18.446,0-29.71,4.04-34.783,6.448
					c-1.236,0.586-2.003,1.794-2.003,3.151v8.281c0,1.559,1.05,2.937,2.553,3.351l17.238,4.746c1.209,0.333,2.509-0.014,3.393-0.906
					l7.578-7.656C123.58,50.047,125.719,49.154,127.999,49.154z"/>
			</g>
		</g>
		<g>
			<g>
				<path d="M161,59.708c-0.922,0-1.809-0.512-2.244-1.395l-11.161-22.625c-0.61-1.238-0.103-2.737,1.136-3.348
					c1.241-0.61,2.737-0.102,3.349,1.136l11.161,22.625c0.61,1.238,0.103,2.737-1.136,3.348
					C161.748,59.625,161.371,59.708,161,59.708z"/>
			</g>
		</g>
		<g>
			<g>
				<path d="M150.316,62.597c-0.922,0-1.809-0.512-2.244-1.395l-13.531-27.43c-0.61-1.238-0.103-2.737,1.136-3.348
					c1.243-0.611,2.737-0.102,3.349,1.136l13.531,27.43c0.61,1.238,0.103,2.737-1.136,3.348
					C151.064,62.514,150.687,62.597,150.316,62.597z"/>
			</g>
		</g>
		<g>
			<g>
				<path d="M117.5,139.458c-1.381,0-2.5-1.119-2.5-2.5v-1.046c0-5.465,4.446-9.912,9.912-9.912h6.176
					c5.466,0,9.912,4.446,9.912,9.912v0.869c0,1.381-1.119,2.5-2.5,2.5s-2.5-1.119-2.5-2.5v-0.869c0-2.708-2.203-4.912-4.912-4.912
					h-6.176c-2.708,0-4.912,2.203-4.912,4.912v1.046C120,138.338,118.881,139.458,117.5,139.458z"/>
			</g>
		</g>
	</g>
</g>
<g id="Layer_34">
</g>
<g id="Layer_35">
</g>
<g id="Layer_36">
</g>
<g id="Layer_37">
</g>
<g id="Layer_38">
</g>
<g id="Layer_39">
</g>
<g id="Layer_40">
</g>
<g id="Layer_41">
</g>
<g id="Layer_42">
</g>
<g id="Layer_43">
</g>
<g id="Layer_44">
</g>
<g id="Layer_45">
</g>
<g id="Layer_46">
</g>
<g id="Layer_47">
</g>
<g id="Layer_48">
</g>
<g id="Layer_49">
</g>
<g id="Layer_50">
</g>
<g id="Layer_51">
</g>
<g id="Layer_52">
</g>
<g id="Layer_53">
</g>
<g id="Layer_54">
</g>
<g id="Layer_55">
</g>
<g id="Layer_56">
</g>
<g id="Layer_57">
</g>
<g id="Layer_58">
</g>
<g id="Layer_59">
</g>
<g id="Layer_60">
</g>
<g id="Layer_61">
</g>
<g id="Layer_62">
</g>
<g id="Layer_63">
</g>
<g id="Layer_64">
</g>
<g id="Layer_65">
</g>
<g id="Layer_66">
</g>
<g id="Layer_67">
</g>
<g id="Layer_68">
</g>
<g id="Layer_69">
</g>
<g id="Layer_70">
</g>
<g id="Layer_71">
</g>
<g id="Layer_72">
</g>
<g id="Layer_73">
</g>
<g id="Layer_74">
</g>
<g id="Layer_75">
</g>
<g id="Layer_76">
</g>
<g id="Layer_77">
</g>
<g id="Layer_78">
</g>
<g id="Layer_79">
</g>
<g id="Layer_80">
</g>
</svg>
