<?xml version="1.0" encoding="utf-8"?>
<!-- Generator: Adobe Illustrator 24.0.0, SVG Export Plug-In . SVG Version: 6.00 Build 0)  -->
<svg version="1.1" xmlns="http://www.w3.org/2000/svg" xmlns:xlink="http://www.w3.org/1999/xlink" x="0px" y="0px"
	 viewBox="0 0 256 256" style="enable-background:new 0 0 256 256;" xml:space="preserve">
<style type="text/css">
	.st0{fill:#3A70BF;}
	.st1{fill:#EDF4FC;}
	.st2{fill:#C7D7E5;}
	.st3{fill:#F9D0B4;}
	.st4{fill:#5B5D60;}
	.st5{fill:#5290DB;}
	.st6{fill:#70D6F9;}
	.st7{fill:#F5C84C;}
	.st8{fill:#FC657E;}
	.st9{fill:#87D147;}
	.st10{fill:#FCDD86;}
	.st11{fill:#9BE5F9;}
	.st12{fill:#B2E26D;}
	.st13{fill:#754E34;}
	.st14{fill:#FCA265;}
	.st15{fill:#818182;}
	.st16{fill:#F94EED;}
	.st17{fill:#FFC197;}
	.st18{fill:#3CAADC;}
	.st19{fill:#DAE6F1;}
	.st20{fill:#57AF12;}
	.st21{fill:#EF4460;}
	.st22{fill:#FFF0CA;}
	.st23{fill:#F98FA6;}
	.st24{fill:#EDB311;}
	.st25{fill:#FC8C48;}
	.st26{fill:#FCB9CB;}
	.st27{fill:#96BC71;}
	.st28{fill:#78A352;}
	.st29{fill:#B8DD90;}
	.st30{fill:#6FAFEF;}
	.st31{fill:#29589F;}
	.st32{fill:#414344;}
	.st33{fill:#9B6B4B;}
	.st34{fill:#73B1EF;}
</style>
<g id="Layer_1">
</g>
<g id="Layer_2">
</g>
<g id="Layer_3">
</g>
<g id="Layer_4">
</g>
<g id="Layer_5">
</g>
<g id="Layer_6">
</g>
<g id="Layer_7">
</g>
<g id="Layer_8">
</g>
<g id="Layer_9">
</g>
<g id="Layer_10">
</g>
<g id="Layer_11">
</g>
<g id="Layer_12">
</g>
<g id="Layer_13">
</g>
<g id="Layer_14">
</g>
<g id="Layer_15">
</g>
<g id="Layer_16">
</g>
<g id="Layer_17">
</g>
<g id="Layer_18">
</g>
<g id="Layer_19">
</g>
<g id="Layer_20">
</g>
<g id="Layer_21">
</g>
<g id="Layer_22">
</g>
<g id="Layer_23">
</g>
<g id="Layer_24">
</g>
<g id="Layer_25">
</g>
<g id="Layer_26">
</g>
<g id="Layer_27">
</g>
<g id="Layer_28">
</g>
<g id="Layer_29">
</g>
<g id="Layer_30">
</g>
<g id="Layer_31">
</g>
<g id="Layer_32">
</g>
<g id="Layer_33">
</g>
<g id="Layer_34">
	<g>
		<g>
			<g>
				<path class="st3" d="M174.246,75.353c-0.401,0.093-0.817,0.147-1.246,0.147h-10.268c0,6.376,0,18.493,0,22.955l0,0v0
					c0,0.783-0.036,1.558-0.088,2.329c0.756,0.122,1.526,0.202,2.316,0.202c8.009,0,14.501-6.492,14.501-14.501
					C179.461,82.011,177.432,78.013,174.246,75.353z"/>
			</g>
		</g>
		<g>
			<g>
				<path class="st3" d="M81.754,75.353C82.155,75.446,82.571,75.5,83,75.5h10.268c0,6.376,0,18.493,0,22.955l0,0v0
					c0,0.783,0.036,1.558,0.088,2.329c-0.756,0.122-1.526,0.202-2.316,0.202c-8.009,0-14.501-6.492-14.501-14.501
					C76.539,82.011,78.568,78.013,81.754,75.353z"/>
			</g>
		</g>
		<g>
			<g>
				<path class="st27" d="M158.648,151.265l-8.134-7.427c-0.753-0.687-1.917-0.646-2.619,0.092l-15.687,16.491
					c-0.77,0.81-0.78,2.078-0.022,2.899l8.157,8.837c0.936,1.014,2.552,0.97,3.431-0.094l15.054-18.223
					C159.465,153.071,159.385,151.938,158.648,151.265z"/>
			</g>
		</g>
		<g>
			<g>
				<path class="st27" d="M97.352,151.265l8.134-7.427c0.753-0.687,1.917-0.646,2.619,0.092l15.687,16.491
					c0.77,0.81,0.78,2.078,0.022,2.899l-8.157,8.837c-0.936,1.014-2.552,0.97-3.431-0.094L97.171,153.84
					C96.535,153.071,96.615,151.938,97.352,151.265z"/>
			</g>
		</g>
		<g>
			<g>
				<path class="st13" d="M185.633,128.268c-6.1-11.129-9.132-22.635-10.64-31.327c-2.605,2.501-6.135,4.046-10.032,4.046
					c-0.79,0-1.56-0.081-2.316-0.202c-0.816,12.152-7.945,22.646-18.124,28.194v10.533c0,2.163,0.742,4.201,2.012,5.853l1.364-1.434
					c0.702-0.739,1.866-0.779,2.619-0.092l1.974,1.803c17.587-2.815,27.339-8.197,31.841-11.451
					C186.205,132.834,186.745,130.297,185.633,128.268z"/>
			</g>
		</g>
		<g>
			<g>
				<path class="st13" d="M105.486,143.838c0.753-0.687,1.917-0.646,2.619,0.092l1.364,1.434c1.27-1.652,2.012-3.689,2.012-5.853
					v-10.533c-10.179-5.548-17.308-16.042-18.124-28.194c-0.756,0.122-1.526,0.202-2.316,0.202c-3.897,0-7.427-1.545-10.032-4.046
					c-1.508,8.693-4.54,20.198-10.64,31.327c-1.112,2.029-0.572,4.566,1.303,5.922c4.502,3.255,14.253,8.636,31.841,11.451
					L105.486,143.838z"/>
			</g>
		</g>
		<g>
			<g>
				<path class="st3" d="M128,133.187c-5.97,0-11.6-1.526-16.52-4.208v10.533c0,2.163-0.738,4.205-2.005,5.86l14.317,15.051
					c0.294,0.309,0.475,0.685,0.547,1.078h7.323c0.072-0.393,0.253-0.769,0.547-1.078l14.317-15.051
					c-1.267-1.655-2.005-3.696-2.005-5.86v-10.533C139.6,131.661,133.97,133.187,128,133.187z"/>
			</g>
		</g>
		<g>
			<g>
				<path class="st27" d="M173,64.5H83c-3.038,0-5.5,2.462-5.5,5.5s2.462,5.5,5.5,5.5h90c3.038,0,5.5-2.462,5.5-5.5
					S176.038,64.5,173,64.5z"/>
			</g>
		</g>
		<g>
			<g>
				<path class="st28" d="M128,15.553L128,15.553c-24.53,0-44.416,19.886-44.416,44.416V64.5h88.832v-4.532
					C172.416,35.438,152.53,15.553,128,15.553z"/>
			</g>
		</g>
		<g>
			<g>
				<path class="st3" d="M93.268,75.5v22.955c0,19.102,15.629,34.732,34.732,34.732c19.102,0,34.732-15.629,34.732-34.732V75.5
					H93.268z"/>
			</g>
		</g>
		<g>
			<g>
				<path class="st27" d="M189.106,156.348l-19.859-5.382c-1.446-0.392-2.936,0.463-3.327,1.909l-0.935,3.451
					c-0.392,1.446,0.463,2.936,1.909,3.327l19.859,5.382c1.446,0.392,2.936-0.463,3.327-1.909l0.935-3.451
					C191.407,158.229,190.552,156.739,189.106,156.348z"/>
			</g>
		</g>
		<g>
			<g>
				<path class="st27" d="M66.894,156.348l19.859-5.382c1.446-0.392,2.936,0.463,3.327,1.909l0.935,3.451
					c0.392,1.446-0.463,2.936-1.909,3.327l-19.859,5.382c-1.446,0.392-2.936-0.463-3.327-1.909l-0.935-3.451
					C64.593,158.229,65.448,156.739,66.894,156.348z"/>
			</g>
		</g>
		<g>
			<g>
				<path class="st28" d="M200.078,173.902c-0.322-5.785-4.108-10.745-9.494-12.637l-0.504,1.861
					c-0.392,1.446-1.882,2.3-3.327,1.908l-19.859-5.382c-1.446-0.392-2.3-1.881-1.909-3.328l0.403-1.486l-0.886-0.224
					c-1.806-0.455-3.562-1.084-5.253-1.861c-0.022,0.385-0.155,0.767-0.419,1.086l-15.054,18.224
					c-0.879,1.064-2.495,1.109-3.431,0.094l-8.157-8.837c-0.468-0.508-0.642-1.186-0.526-1.821h-7.323
					c0.116,0.635-0.057,1.313-0.526,1.821l-8.157,8.837c-0.936,1.014-2.552,0.97-3.431-0.094L97.171,153.84
					c-0.264-0.319-0.397-0.701-0.419-1.086c-1.691,0.777-3.447,1.406-5.253,1.861l-0.886,0.224l0.403,1.486
					c0.392,1.446-0.463,2.936-1.909,3.328l-19.859,5.382c-1.446,0.392-2.936-0.463-3.327-1.908l-0.504-1.861
					c-5.386,1.893-9.171,6.853-9.494,12.637l-2.744,75.418c-0.127,2.269,1.68,4.179,3.953,4.179h21.99
					c1.478,0,2.677-1.198,2.677-2.677v-47.143l3.883,12.439c2.539,8.133,3.83,16.604,3.83,25.124v9.58
					c0,1.478,1.198,2.677,2.677,2.677h30.345h10.936h30.345c1.478,0,2.677-1.198,2.677-2.677v-9.58c0-8.52,1.291-16.991,3.83-25.124
					l3.883-12.439v47.143c0,1.478,1.198,2.677,2.677,2.677h21.99c2.273,0,4.079-1.91,3.953-4.179L200.078,173.902z"/>
			</g>
		</g>
		<g>
			<g>
				<path class="st7" d="M161.267,38.514c-4.935-2.343-15.733-6.206-33.267-6.206s-28.332,3.864-33.267,6.206
					c-1.945,0.923-3.184,2.866-3.184,5.019v7.683c0,2.495,1.667,4.683,4.073,5.345l15.994,4.403c1.933,0.532,4.002-0.02,5.412-1.445
					l7.032-7.103c2.169-2.192,5.711-2.192,7.88,0l7.031,7.103c1.41,1.425,3.48,1.977,5.412,1.445l15.995-4.403
					c2.406-0.662,4.073-2.85,4.073-5.345v-7.683C164.45,41.38,163.212,39.437,161.267,38.514z"/>
			</g>
		</g>
		<g>
			<g>
				<path class="st10" d="M149.212,59.635l9.891-2.723L147.91,34.223c-3.442-0.718-7.449-1.306-12.039-1.633L149.212,59.635z"/>
			</g>
		</g>
		<g>
			<g>
				<path class="st15" d="M128,133.187c3.656,0,7.183-0.577,10.5-1.637v-0.639c0-4.076-3.335-7.412-7.412-7.412h-6.177
					c-4.076,0-7.412,3.335-7.412,7.412v0.639C120.817,132.61,124.344,133.187,128,133.187z"/>
			</g>
		</g>
		<g>
			<g>
				<path class="st27" d="M197.965,167.21l-6.643,5.435c-7.046,5.765-12.156,13.55-14.642,22.307l-2.478,8.729v47.143
					c0,1.478,1.198,2.677,2.677,2.677h21.99c2.273,0,4.079-1.91,3.953-4.179l-2.745-75.418
					C199.942,171.469,199.187,169.186,197.965,167.21z"/>
			</g>
		</g>
		<g>
			<g>
				<path class="st27" d="M58.035,167.21l6.643,5.435c7.046,5.765,12.156,13.55,14.642,22.307l2.478,8.729v47.143
					c0,1.478-1.198,2.677-2.677,2.677h-21.99c-2.273,0-4.079-1.91-3.953-4.179l2.745-75.418
					C56.058,171.469,56.813,169.186,58.035,167.21z"/>
			</g>
		</g>
		<g>
			<g>
				<path class="st27" d="M161.393,212h-15.785c-1.854,0-3.357-1.503-3.357-3.357v13c0,1.854,1.503,3.357,3.357,3.357h15.785
					c1.854,0,3.357-1.503,3.357-3.357v-13C164.75,210.497,163.247,212,161.393,212z"/>
			</g>
		</g>
		<g>
			<g>
				<path class="st27" d="M110.393,212H94.607c-1.854,0-3.357-1.503-3.357-3.357v13c0,1.854,1.503,3.357,3.357,3.357h15.785
					c1.854,0,3.357-1.503,3.357-3.357v-13C113.75,210.497,112.247,212,110.393,212z"/>
			</g>
		</g>
		<g>
			<g>
				<path class="st10" d="M110.788,181.5H94.212c-1.498,0-2.712,1.214-2.712,2.712v3.575c0,1.498,1.214,2.712,2.712,2.712h16.575
					c1.498,0,2.712-1.214,2.712-2.712v-3.575C113.5,182.714,112.286,181.5,110.788,181.5z"/>
			</g>
		</g>
		<g>
			<g>
				<path class="st29" d="M161.393,199.5h-15.785c-1.854,0-3.357,1.503-3.357,3.357v5.785c0,1.854,1.503,3.357,3.357,3.357h15.785
					c1.854,0,3.357-1.503,3.357-3.357v-5.785C164.75,201.003,163.247,199.5,161.393,199.5z"/>
			</g>
		</g>
		<g>
			<g>
				<path class="st29" d="M110.393,199.5H94.607c-1.854,0-3.357,1.503-3.357,3.357v5.785c0,1.854,1.503,3.357,3.357,3.357h15.785
					c1.854,0,3.357-1.503,3.357-3.357v-5.785C113.75,201.003,112.247,199.5,110.393,199.5z"/>
			</g>
		</g>
		<g>
			<g>
				<path d="M128,117.757c-4.775,0-9.262-1.949-11.999-5.215c-0.887-1.058-0.748-2.635,0.31-3.522
					c1.058-0.886,2.634-0.749,3.522,0.31c1.799,2.146,4.852,3.427,8.167,3.427s6.368-1.281,8.167-3.427
					c0.889-1.059,2.465-1.196,3.522-0.31c1.058,0.887,1.196,2.464,0.31,3.522C137.262,115.808,132.775,117.757,128,117.757z"/>
			</g>
		</g>
		<g>
			<g>
				<circle cx="143.111" cy="90.5" r="4.5"/>
			</g>
		</g>
		<g>
			<g>
				<circle cx="112.889" cy="90.5" r="4.5"/>
			</g>
		</g>
		<g>
			<g>
				<path d="M164.961,103.487c-0.481,0-0.964-0.024-1.476-0.073c-1.375-0.132-2.382-1.353-2.25-2.728s1.354-2.382,2.727-2.25
					c0.329,0.032,0.662,0.05,0.999,0.05c6.617,0,12-5.383,12-12c0-3.248-1.278-6.29-3.6-8.566c-0.986-0.967-1.002-2.55-0.035-3.536
					c0.967-0.985,2.551-1,3.535-0.035c3.289,3.225,5.1,7.535,5.1,12.136C181.961,95.86,174.335,103.487,164.961,103.487z"/>
			</g>
		</g>
		<g>
			<g>
				<path d="M91.04,103.487c-9.374,0-17.001-7.626-17.001-17.001c0-4.701,1.977-9.237,5.423-12.444
					c1.012-0.941,2.594-0.883,3.533,0.127c0.94,1.011,0.884,2.593-0.127,3.533c-2.469,2.298-3.829,5.417-3.829,8.784
					c0,6.617,5.384,12.001,12.001,12.001c0.354,0,0.721-0.021,1.119-0.063c1.368-0.145,2.603,0.852,2.748,2.224
					c0.145,1.374-0.852,2.604-2.225,2.749C92.108,103.458,91.571,103.487,91.04,103.487z"/>
			</g>
		</g>
		<g>
			<g>
				<path d="M128,255c-1.381,0-2.5-1.119-2.5-2.5v-81c0-1.381,1.119-2.5,2.5-2.5s2.5,1.119,2.5,2.5v81
					C130.5,253.881,129.381,255,128,255z"/>
			</g>
		</g>
		<g>
			<g>
				<path d="M142.019,175.391c-1.332,0-2.605-0.556-3.512-1.538l-8.157-8.836c-1.646-1.783-1.625-4.558,0.046-6.317l15.688-16.493
					c1.629-1.712,4.37-1.807,6.116-0.216l8.134,7.427c1.724,1.573,1.909,4.215,0.422,6.014l-15.053,18.223
					c-0.879,1.063-2.174,1.695-3.553,1.733C142.106,175.391,142.063,175.391,142.019,175.391z M134.265,161.887l7.744,8.39
					l14.513-17.568l-7.238-6.609L134.265,161.887z M156.962,153.111C156.963,153.111,156.963,153.111,156.962,153.111
					L156.962,153.111L156.962,153.111z"/>
			</g>
		</g>
		<g>
			<g>
				<path d="M113.981,175.391c-0.044,0-0.088,0-0.132-0.002c-1.379-0.038-2.674-0.67-3.553-1.734l-15.054-18.223
					c-1.486-1.798-1.301-4.44,0.423-6.013l8.134-7.427c1.745-1.592,4.488-1.496,6.116,0.216l15.688,16.491
					c1.672,1.76,1.692,4.535,0.047,6.318l-8.157,8.837C116.587,174.835,115.313,175.391,113.981,175.391z M99.479,152.708
					l14.513,17.568l7.744-8.39l-15.019-15.788L99.479,152.708z M99.038,153.111L99.038,153.111L99.038,153.111
					C99.037,153.111,99.037,153.111,99.038,153.111z M97.352,151.265h0.01H97.352z"/>
			</g>
		</g>
		<g>
			<g>
				<path d="M152.946,148.067c-1.203,0-2.264-0.871-2.464-2.096c-0.224-1.363,0.7-2.648,2.063-2.872
					c17.094-2.801,26.334-8.054,30.32-10.935c0.838-0.605,1.085-1.764,0.575-2.695c-5.089-9.283-8.723-19.874-10.801-31.477
					c-0.243-1.359,0.661-2.658,2.021-2.902c1.352-0.244,2.657,0.661,2.901,2.02c1.954,10.914,5.503,21.272,10.264,29.956
					c1.718,3.137,0.846,7.07-2.03,9.149c-4.344,3.14-14.335,8.851-32.441,11.818C153.217,148.056,153.08,148.067,152.946,148.067z"
					/>
			</g>
		</g>
		<g>
			<g>
				<path d="M102.715,148.011c-0.137,0-0.274-0.011-0.414-0.035c-17.898-2.983-27.791-8.648-32.095-11.76
					c-2.877-2.081-3.75-6.014-2.031-9.149c6.031-11.002,8.919-22.409,10.279-30.041c0.243-1.358,1.543-2.26,2.899-2.022
					c1.359,0.243,2.265,1.541,2.022,2.9c-2.074,11.636-5.713,22.256-10.816,31.566c-0.51,0.93-0.262,2.088,0.576,2.694
					c3.949,2.855,13.096,8.064,29.987,10.88c1.362,0.227,2.282,1.515,2.055,2.877C104.974,147.144,103.915,148.011,102.715,148.011z
					"/>
			</g>
		</g>
		<g>
			<g>
				<path d="M146.15,147.346c-0.808,0-1.601-0.391-2.082-1.113c-1.34-2.009-2.048-4.333-2.048-6.721v-9.719
					c0-1.381,1.119-2.5,2.5-2.5s2.5,1.119,2.5,2.5v9.719c0,1.397,0.418,2.762,1.208,3.946c0.766,1.149,0.456,2.701-0.693,3.467
					C147.109,147.209,146.627,147.346,146.15,147.346z"/>
			</g>
		</g>
		<g>
			<g>
				<path d="M131.219,164h-6.405c-1.381,0-2.5-1.119-2.5-2.5s1.119-2.5,2.5-2.5h6.405c1.381,0,2.5,1.119,2.5,2.5
					S132.6,164,131.219,164z"/>
			</g>
		</g>
		<g>
			<g>
				<path d="M109.784,147.441c-0.486,0-0.978-0.141-1.409-0.436c-1.14-0.779-1.432-2.335-0.652-3.475
					c0.822-1.203,1.257-2.592,1.257-4.019v-9.887c0-1.381,1.119-2.5,2.5-2.5s2.5,1.119,2.5,2.5v9.887
					c0,2.438-0.736,4.803-2.13,6.841C111.366,147.061,110.582,147.441,109.784,147.441z"/>
			</g>
		</g>
		<g>
			<g>
				<path d="M173,78H83c-4.411,0-8-3.589-8-8s3.589-8,8-8h90c4.411,0,8,3.589,8,8S177.411,78,173,78z M83,67c-1.654,0-3,1.346-3,3
					s1.346,3,3,3h90c1.654,0,3-1.346,3-3s-1.346-3-3-3H83z"/>
			</g>
		</g>
		<g>
			<g>
				<path d="M172.416,66.292c-1.381,0-2.5-1.119-2.5-2.5v-3.824c0-23.112-18.804-41.916-41.916-41.916S86.084,36.856,86.084,59.968
					v3.782c0,1.381-1.119,2.5-2.5,2.5s-2.5-1.119-2.5-2.5v-3.782c0-25.869,21.047-46.916,46.916-46.916s46.916,21.046,46.916,46.916
					v3.824C174.916,65.173,173.797,66.292,172.416,66.292z"/>
			</g>
		</g>
		<g>
			<g>
				<path d="M128,135.687c-20.529,0-37.231-16.702-37.231-37.231V75.5c0-1.381,1.119-2.5,2.5-2.5h69.463c1.381,0,2.5,1.119,2.5,2.5
					v22.956C165.231,118.985,148.529,135.687,128,135.687z M95.769,78v20.456c0,17.772,14.459,32.231,32.231,32.231
					s32.231-14.459,32.231-32.231V78H95.769z"/>
			</g>
		</g>
		<g>
			<g>
				<path class="st7" d="M61.822,125.33c-4.498-0.838-8.043-4.31-8.898-8.716c-0.043-0.221-0.352-0.221-0.395,0
					c-0.855,4.406-4.4,7.879-8.898,8.716c-0.226,0.042-0.226,0.345,0,0.387c4.498,0.838,8.043,4.31,8.898,8.717
					c0.043,0.221,0.352,0.221,0.395,0c0.855-4.406,4.4-7.879,8.898-8.717C62.047,125.675,62.047,125.373,61.822,125.33z"/>
			</g>
		</g>
		<g>
			<g>
				<path class="st8" d="M206.515,112.101c-2.862-0.533-5.118-2.743-5.663-5.547c-0.027-0.141-0.224-0.141-0.251,0
					c-0.544,2.804-2.8,5.014-5.663,5.547c-0.144,0.027-0.144,0.219,0,0.246c2.862,0.533,5.118,2.743,5.663,5.547
					c0.027,0.141,0.224,0.141,0.251,0c0.544-2.804,2.8-5.014,5.663-5.547C206.658,112.32,206.658,112.128,206.515,112.101z"/>
			</g>
		</g>
		<g>
			<g>
				<path class="st6" d="M189.246,25.75h2.33v-2.33c0-1.744,1.413-3.157,3.157-3.157s3.157,1.413,3.157,3.157v2.33h2.329
					c1.744,0,3.157,1.413,3.157,3.157s-1.413,3.157-3.157,3.157h-2.329v2.33c0,1.744-1.413,3.157-3.157,3.157
					s-3.157-1.413-3.157-3.157v-2.33h-2.33c-1.744,0-3.157-1.413-3.157-3.157S187.502,25.75,189.246,25.75z"/>
			</g>
		</g>
		<g>
			<g>
				<circle class="st9" cx="40.755" cy="154.825" r="3.377"/>
			</g>
		</g>
		<g>
			<g>
				<circle class="st7" cx="181.755" cy="3.377" r="3.377"/>
			</g>
		</g>
		<g>
			<g>
				<path d="M187.471,167.631c-0.458,0-0.919-0.061-1.373-0.184l-19.858-5.382c-1.344-0.364-2.465-1.229-3.158-2.438
					c-0.692-1.208-0.873-2.614-0.509-3.958l0.935-3.449c0.364-1.344,1.229-2.466,2.438-3.159c1.207-0.691,2.612-0.874,3.956-0.509
					l19.859,5.382h-0.001c1.345,0.364,2.466,1.229,3.159,2.438c0.692,1.208,0.873,2.614,0.509,3.958l-0.935,3.449
					c-0.364,1.344-1.229,2.466-2.438,3.159C189.255,167.396,188.368,167.631,187.471,167.631z M168.538,153.372
					c-0.094,0-0.18,0.062-0.205,0.156l-0.935,3.451c-0.026,0.098,0.053,0.235,0.148,0.261l19.859,5.382
					c0.021,0.006,0.087,0.021,0.161-0.021c0.076-0.044,0.094-0.107,0.1-0.128l0.935-3.451c0.026-0.098-0.053-0.235-0.148-0.261
					c0,0,0,0-0.001,0l-19.858-5.382C168.575,153.374,168.557,153.372,168.538,153.372z"/>
			</g>
		</g>
		<g>
			<g>
				<path d="M68.529,167.631c-0.897,0-1.784-0.234-2.585-0.693c-1.208-0.693-2.073-1.815-2.438-3.159l-0.935-3.451
					c-0.364-1.342-0.184-2.748,0.509-3.956c0.693-1.208,1.814-2.074,3.159-2.438l19.857-5.382c1.346-0.363,2.75-0.182,3.957,0.509
					c1.209,0.693,2.074,1.815,2.438,3.159l0.935,3.451c0.364,1.342,0.184,2.748-0.509,3.956c-0.693,1.208-1.814,2.074-3.159,2.438
					l-19.857,5.382C69.448,167.57,68.987,167.631,68.529,167.631z M87.462,153.372c-0.019,0-0.038,0.002-0.057,0.007l-19.857,5.382
					c-0.001,0-0.001,0-0.001,0c-0.096,0.026-0.175,0.163-0.148,0.259l0.935,3.453c0.006,0.021,0.023,0.084,0.1,0.128
					c0.075,0.042,0.141,0.027,0.161,0.021l19.858-5.382c0.097-0.026,0.176-0.163,0.149-0.259l-0.935-3.453
					C87.642,153.434,87.556,153.372,87.462,153.372z M66.894,156.348h0.01H66.894z"/>
			</g>
		</g>
		<g>
			<g>
				<path d="M91.497,157.116c-1.118,0-2.137-0.756-2.423-1.89c-0.337-1.339,0.476-2.698,1.814-3.035
					c1.453-0.366,2.915-0.869,4.344-1.495c1.263-0.554,2.738,0.022,3.293,1.287c0.554,1.265-0.022,2.739-1.287,3.293
					c-1.682,0.737-3.407,1.33-5.129,1.764C91.904,157.091,91.699,157.116,91.497,157.116z"/>
			</g>
		</g>
		<g>
			<g>
				<path d="M164.503,157.116c-0.202,0-0.407-0.024-0.612-0.076c-1.743-0.439-3.49-1.042-5.192-1.792
					c-1.264-0.557-1.837-2.032-1.28-3.296c0.557-1.265,2.031-1.835,3.296-1.28c1.446,0.637,2.926,1.148,4.397,1.519
					c1.339,0.337,2.151,1.696,1.813,3.035C166.64,156.36,165.621,157.116,164.503,157.116z"/>
			</g>
		</g>
		<g>
			<g>
				<path d="M198.869,256H176.88c-2.854,0-5.177-2.322-5.177-5.177v-30.475c-1.802,6.816-2.713,13.828-2.713,20.896v9.58
					c0,2.854-2.322,5.177-5.177,5.177H92.187c-2.854,0-5.177-2.322-5.177-5.177v-9.58c0-7.068-0.911-14.08-2.713-20.896v30.475
					c0,2.854-2.322,5.177-5.177,5.177H57.131c-1.769,0-3.479-0.737-4.693-2.021c-1.215-1.284-1.854-3.033-1.756-4.797l2.742-75.37
					c0.364-6.538,4.503-12.279,10.545-14.674c1.28-0.508,2.736,0.119,3.245,1.403s-0.119,2.737-1.403,3.246
					c-4.236,1.679-7.139,5.705-7.393,10.256l-2.742,75.37c-0.032,0.594,0.233,0.961,0.395,1.132S56.584,251,57.131,251H79.12
					c0.098,0,0.177-0.079,0.177-0.177v-47.143c0-1.235,0.902-2.285,2.123-2.472c1.222-0.186,2.396,0.548,2.764,1.727l3.883,12.439
					c2.616,8.382,3.943,17.085,3.943,25.869v9.58c0,0.098,0.079,0.177,0.177,0.177h71.627c0.098,0,0.177-0.079,0.177-0.177v-9.58
					c0-8.784,1.327-17.487,3.943-25.869l3.883-12.439c0.368-1.178,1.543-1.908,2.764-1.727c1.221,0.187,2.123,1.236,2.123,2.472
					v47.143c0,0.098,0.079,0.177,0.177,0.177h21.989c0.547,0,0.899-0.286,1.061-0.457s0.427-0.538,0.396-1.083l-2.746-75.467
					c-0.252-4.503-3.155-8.529-7.394-10.208c-1.283-0.508-1.912-1.961-1.403-3.245s1.961-1.91,3.245-1.403
					c6.044,2.395,10.184,8.136,10.546,14.627l2.746,75.467c0.097,1.716-0.543,3.464-1.758,4.749
					C202.348,255.263,200.638,256,198.869,256z"/>
			</g>
		</g>
		<g>
			<g>
				<path d="M142.916,63.663c-2.12,0-4.191-0.839-5.722-2.385l-7.03-7.104c-1.152-1.164-3.176-1.164-4.328,0l-7.031,7.104
					c-2.043,2.064-5.052,2.866-7.853,2.096l-15.994-4.403c-3.479-0.958-5.908-4.146-5.908-7.755v-7.683
					c0-3.091,1.811-5.948,4.611-7.278c5.073-2.408,16.281-6.448,34.339-6.448s29.266,4.04,34.339,6.448l0,0
					c2.801,1.33,4.611,4.187,4.611,7.278v7.683c0,3.609-2.43,6.798-5.909,7.755l-15.995,4.403
					C144.343,63.568,143.627,63.663,142.916,63.663z M128,48.272c2.164,0,4.194,0.847,5.717,2.385l7.031,7.104
					c0.773,0.781,1.911,1.086,2.971,0.793l15.996-4.403c1.316-0.363,2.235-1.569,2.235-2.935v-7.683
					c0-1.189-0.673-2.247-1.756-2.761l0,0c-4.693-2.228-15.116-5.965-32.194-5.965s-27.501,3.737-32.194,5.965
					c-1.083,0.514-1.756,1.572-1.756,2.761v7.683c0,1.366,0.919,2.572,2.235,2.935l15.995,4.403c1.057,0.29,2.198-0.012,2.971-0.793
					l7.032-7.104C123.806,49.119,125.836,48.272,128,48.272z"/>
			</g>
		</g>
		<g>
			<g>
				<path d="M158.898,58.995c-0.922,0-1.809-0.512-2.244-1.395L146.06,36.123c-0.61-1.238-0.103-2.737,1.136-3.348
					c1.242-0.611,2.737-0.102,3.349,1.136l10.595,21.477c0.61,1.238,0.103,2.737-1.136,3.348
					C159.646,58.912,159.27,58.995,158.898,58.995z"/>
			</g>
		</g>
		<g>
			<g>
				<path d="M148.973,61.647c-0.922,0-1.809-0.512-2.244-1.395l-12.689-25.725c-0.61-1.238-0.102-2.737,1.137-3.348
					s2.736-0.102,3.348,1.136l12.689,25.725c0.61,1.238,0.102,2.737-1.137,3.348C149.721,61.564,149.344,61.647,148.973,61.647z"/>
			</g>
		</g>
		<g>
			<g>
				<path d="M138.5,133.412c-1.381,0-2.5-1.119-2.5-2.5c0-2.708-2.203-4.912-4.912-4.912h-6.176c-2.709,0-4.912,2.203-4.912,4.912
					c0,1.381-1.119,2.5-2.5,2.5s-2.5-1.119-2.5-2.5c0-5.465,4.446-9.912,9.912-9.912h6.176c5.466,0,9.912,4.446,9.912,9.912
					C141,132.292,139.881,133.412,138.5,133.412z"/>
			</g>
		</g>
		<g>
			<g>
				<path d="M174.204,206.181c-0.226,0-0.455-0.031-0.684-0.096c-1.328-0.377-2.1-1.759-1.723-3.087l2.478-8.729
					c2.639-9.294,7.986-17.44,15.464-23.559l6.055-4.954c1.067-0.874,2.643-0.718,3.518,0.352c0.875,1.068,0.717,2.644-0.352,3.518
					l-6.055,4.954c-6.683,5.468-11.462,12.749-13.819,21.055l-2.478,8.729C176.296,205.463,175.294,206.181,174.204,206.181z"/>
			</g>
		</g>
		<g>
			<g>
				<path d="M81.796,206.181c-1.09,0-2.092-0.718-2.404-1.818l-2.478-8.729c-2.357-8.306-7.137-15.586-13.819-21.055l-5.976-4.888
					c-1.068-0.875-1.227-2.449-0.352-3.518c0.875-1.069,2.45-1.225,3.518-0.352l5.976,4.889c7.478,6.119,12.825,14.266,15.464,23.56
					l2.478,8.729c0.377,1.328-0.395,2.71-1.723,3.087C82.251,206.15,82.021,206.181,81.796,206.181z"/>
			</g>
		</g>
		<g>
			<g>
				<path d="M161.393,227.5h-15.785c-3.229,0-5.857-2.627-5.857-5.857v-13c0-1.381,1.119-2.5,2.5-2.5s2.5,1.119,2.5,2.5v13
					c0,0.473,0.385,0.857,0.857,0.857h15.785c0.473,0,0.857-0.385,0.857-0.857v-13c0-1.381,1.119-2.5,2.5-2.5s2.5,1.119,2.5,2.5v13
					C167.25,224.873,164.622,227.5,161.393,227.5z"/>
			</g>
		</g>
		<g>
			<g>
				<path d="M110.393,227.5H94.607c-3.229,0-5.857-2.627-5.857-5.857v-13c0-1.381,1.119-2.5,2.5-2.5s2.5,1.119,2.5,2.5v13
					c0,0.473,0.385,0.857,0.857,0.857h15.785c0.473,0,0.857-0.385,0.857-0.857v-13c0-1.381,1.119-2.5,2.5-2.5s2.5,1.119,2.5,2.5v13
					C116.25,224.873,113.622,227.5,110.393,227.5z"/>
			</g>
		</g>
		<g>
			<g>
				<path d="M110.787,193H94.213c-2.874,0-5.213-2.338-5.213-5.212v-3.575c0-2.874,2.339-5.212,5.213-5.212h16.574
					c2.874,0,5.213,2.338,5.213,5.212v3.575C116,190.662,113.661,193,110.787,193z M94.213,184c-0.117,0-0.213,0.095-0.213,0.212
					v3.575c0,0.117,0.096,0.212,0.213,0.212h16.574c0.117,0,0.213-0.095,0.213-0.212v-3.575c0-0.117-0.096-0.212-0.213-0.212H94.213
					z"/>
			</g>
		</g>
		<g>
			<g>
				<path d="M161.393,214.5h-15.785c-3.229,0-5.857-2.627-5.857-5.857v-5.785c0-3.23,2.628-5.857,5.857-5.857h15.785
					c3.229,0,5.857,2.627,5.857,5.857v5.785C167.25,211.873,164.622,214.5,161.393,214.5z M145.607,202
					c-0.473,0-0.857,0.385-0.857,0.857v5.785c0,0.473,0.385,0.857,0.857,0.857h15.785c0.473,0,0.857-0.385,0.857-0.857v-5.785
					c0-0.473-0.385-0.857-0.857-0.857H145.607z"/>
			</g>
		</g>
		<g>
			<g>
				<path d="M110.393,214.5H94.607c-3.229,0-5.857-2.627-5.857-5.857v-5.785c0-3.23,2.628-5.857,5.857-5.857h15.785
					c3.229,0,5.857,2.627,5.857,5.857v5.785C116.25,211.873,113.622,214.5,110.393,214.5z M94.607,202
					c-0.473,0-0.857,0.385-0.857,0.857v5.785c0,0.473,0.385,0.857,0.857,0.857h15.785c0.473,0,0.857-0.385,0.857-0.857v-5.785
					c0-0.473-0.385-0.857-0.857-0.857H94.607z"/>
			</g>
		</g>
	</g>
</g>
<g id="Layer_35">
</g>
<g id="Layer_36">
</g>
<g id="Layer_37">
</g>
<g id="Layer_38">
</g>
<g id="Layer_39">
</g>
<g id="Layer_40">
</g>
<g id="Layer_41">
</g>
<g id="Layer_42">
</g>
<g id="Layer_43">
</g>
<g id="Layer_44">
</g>
<g id="Layer_45">
</g>
<g id="Layer_46">
</g>
<g id="Layer_47">
</g>
<g id="Layer_48">
</g>
<g id="Layer_49">
</g>
<g id="Layer_50">
</g>
<g id="Layer_51">
</g>
<g id="Layer_52">
</g>
<g id="Layer_53">
</g>
<g id="Layer_54">
</g>
<g id="Layer_55">
</g>
<g id="Layer_56">
</g>
<g id="Layer_57">
</g>
<g id="Layer_58">
</g>
<g id="Layer_59">
</g>
<g id="Layer_60">
</g>
<g id="Layer_61">
</g>
<g id="Layer_62">
</g>
<g id="Layer_63">
</g>
<g id="Layer_64">
</g>
<g id="Layer_65">
</g>
<g id="Layer_66">
</g>
<g id="Layer_67">
</g>
<g id="Layer_68">
</g>
<g id="Layer_69">
</g>
<g id="Layer_70">
</g>
<g id="Layer_71">
</g>
<g id="Layer_72">
</g>
<g id="Layer_73">
</g>
<g id="Layer_74">
</g>
<g id="Layer_75">
</g>
<g id="Layer_76">
</g>
<g id="Layer_77">
</g>
<g id="Layer_78">
</g>
<g id="Layer_79">
</g>
<g id="Layer_80">
</g>
</svg>
