<?xml version="1.0" encoding="utf-8"?>
<!-- Generator: Adobe Illustrator 24.0.0, SVG Export Plug-In . SVG Version: 6.00 Build 0)  -->
<svg version="1.1" xmlns="http://www.w3.org/2000/svg" xmlns:xlink="http://www.w3.org/1999/xlink" x="0px" y="0px"
	 viewBox="0 0 256 256" style="enable-background:new 0 0 256 256;" xml:space="preserve">
<style type="text/css">
	.st0{fill:#3A70BF;}
	.st1{fill:#EDF4FC;}
	.st2{fill:#C7D7E5;}
	.st3{fill:#F9D0B4;}
	.st4{fill:#5B5D60;}
	.st5{fill:#5290DB;}
	.st6{fill:#70D6F9;}
	.st7{fill:#F5C84C;}
	.st8{fill:#FC657E;}
	.st9{fill:#87D147;}
	.st10{fill:#FCDD86;}
	.st11{fill:#9BE5F9;}
	.st12{fill:#B2E26D;}
	.st13{fill:#754E34;}
	.st14{fill:#FCA265;}
	.st15{fill:#818182;}
	.st16{fill:#F94EED;}
	.st17{fill:#FFC197;}
	.st18{fill:#3CAADC;}
	.st19{fill:#DAE6F1;}
	.st20{fill:#57AF12;}
	.st21{fill:#EF4460;}
	.st22{fill:#FFF0CA;}
	.st23{fill:#F98FA6;}
	.st24{fill:#EDB311;}
	.st25{fill:#FC8C48;}
	.st26{fill:#FCB9CB;}
	.st27{fill:#96BC71;}
	.st28{fill:#78A352;}
	.st29{fill:#B8DD90;}
	.st30{fill:#6FAFEF;}
	.st31{fill:#29589F;}
	.st32{fill:#414344;}
	.st33{fill:#9B6B4B;}
	.st34{fill:#73B1EF;}
</style>
<g id="Layer_1">
</g>
<g id="Layer_2">
</g>
<g id="Layer_3">
</g>
<g id="Layer_4">
</g>
<g id="Layer_5">
</g>
<g id="Layer_6">
</g>
<g id="Layer_7">
</g>
<g id="Layer_8">
</g>
<g id="Layer_9">
</g>
<g id="Layer_10">
</g>
<g id="Layer_11">
</g>
<g id="Layer_12">
</g>
<g id="Layer_13">
</g>
<g id="Layer_14">
</g>
<g id="Layer_15">
</g>
<g id="Layer_16">
</g>
<g id="Layer_17">
</g>
<g id="Layer_18">
</g>
<g id="Layer_19">
</g>
<g id="Layer_20">
</g>
<g id="Layer_21">
</g>
<g id="Layer_22">
</g>
<g id="Layer_23">
</g>
<g id="Layer_24">
</g>
<g id="Layer_25">
</g>
<g id="Layer_26">
</g>
<g id="Layer_27">
	<g>
		<g>
			<g>
				<path class="st3" d="M53.451,253.5h23.004v-35H51.154l-1.78,30.69C49.244,251.531,51.107,253.5,53.451,253.5z"/>
			</g>
		</g>
		<g>
			<g>
				<path class="st3" d="M179.5,253.5h23.049c2.344,0,4.207-1.969,4.076-4.31l-1.78-30.69H179.5V253.5z"/>
			</g>
		</g>
		<g>
			<g>
				<path class="st3" d="M126.636,172.984c0.868,0.333,1.862,0.333,2.727,0c9.975-3.822,17.753-11.612,21.809-21.129
					c-3.722-2.334-6.028-6.43-6.028-10.884v-6.057c-5.14,2.69-10.97,4.223-17.145,4.223h0c-6.174,0-12.005-1.532-17.145-4.223v6.057
					c0,4.454-2.306,8.55-6.028,10.884C108.884,161.373,116.661,169.162,126.636,172.984z"/>
			</g>
		</g>
		<g>
			<g>
				<path class="st8" d="M202.511,178.239c-0.357-6.417-4.846-11.856-11.078-13.425l-28.902-7.275l-2.413-1.19
					c-5.17,11.697-14.84,21.245-27.176,25.973c-1.593,0.611-3.268,0.916-4.942,0.916s-3.349-0.305-4.942-0.916
					c-12.335-4.727-22.005-14.276-27.175-25.972l-2.413,1.19l-28.902,7.275c-6.233,1.569-10.721,7.008-11.078,13.425L51.154,218.5
					h25.301v35H179.5v-35h25.346L202.511,178.239z"/>
			</g>
		</g>
		<g>
			<g>
				<path class="st1" d="M123.058,182.322c1.594,0.611,3.268,0.916,4.942,0.916s3.349-0.305,4.942-0.916
					c12.336-4.727,22.006-14.276,27.176-25.973l-7.802-3.847c-0.396-0.195-0.774-0.416-1.143-0.647
					c-4.056,9.517-11.834,17.306-21.809,21.129c-0.865,0.333-1.859,0.333-2.727,0c-9.975-3.822-17.753-11.612-21.809-21.129
					c-0.369,0.231-0.747,0.452-1.143,0.647l-7.802,3.847C101.053,168.047,110.722,177.595,123.058,182.322z"/>
			</g>
		</g>
		<g>
			<g>
				<g>
					<path class="st3" d="M90.785,77.5v24.423c0,20.468,16.747,37.215,37.215,37.215h0c20.468,0,37.215-16.747,37.215-37.215V77.5
						H90.785z"/>
				</g>
			</g>
		</g>
		<g>
			<g>
				<g>
					<path class="st4" d="M80.521,61.5h96.04c0.669,0,1.288,0.198,1.818,0.525V49.973c0-11.692-9.566-21.258-21.258-21.258
						c-3.966,0-7.673,1.121-10.859,3.031c-3.722-6.211-10.502-10.405-18.23-10.405h-10.916c-21.127,0-38.413,17.286-38.413,38.414
						v2.27C79.233,61.698,79.852,61.5,80.521,61.5z"/>
				</g>
			</g>
		</g>
		<g>
			<g>
				<path class="st3" d="M177.692,77.296c-0.356,0.123-0.733,0.204-1.131,0.204h-11.346c0,6.875,0,19.682,0,24.423
					c0,0.839-0.038,1.67-0.094,2.496c0.81,0.13,1.635,0.217,2.482,0.217c8.581,0,15.537-6.956,15.537-15.537
					C183.141,84.371,181.023,80.146,177.692,77.296z"/>
			</g>
		</g>
		<g>
			<g>
				<path class="st3" d="M90.785,77.5H80.521c-0.671,0-1.292-0.199-1.824-0.528c-3.555,2.847-5.837,7.218-5.837,12.126
					c0,8.581,6.956,15.537,15.538,15.537c0.847,0,1.672-0.086,2.482-0.217v-0.001c-0.055-0.826-0.094-1.656-0.094-2.495
					C90.785,98.615,90.785,85.89,90.785,77.5z"/>
			</g>
		</g>
		<g>
			<g>
				<path class="st1" d="M176.561,61.5h-96.04c-1.922,0-3.48,1.558-3.48,3.48v9.04c0,1.922,1.558,3.48,3.48,3.48h96.04
					c1.922,0,3.48-1.558,3.48-3.48v-9.04C180.041,63.058,178.483,61.5,176.561,61.5z"/>
			</g>
		</g>
		<g>
			<g>
				<g>
					<path d="M128,141.638c-21.899,0-39.715-17.816-39.715-39.715V78.25c0-1.381,1.119-2.5,2.5-2.5s2.5,1.119,2.5,2.5v23.673
						c0,19.142,15.573,34.715,34.715,34.715s34.715-15.573,34.715-34.715V78.313c0-1.381,1.119-2.5,2.5-2.5s2.5,1.119,2.5,2.5
						v23.611C167.715,123.822,149.899,141.638,128,141.638z"/>
				</g>
			</g>
		</g>
		<g>
			<g>
				<g>
					<path d="M78.703,64c-1.381,0-2.5-1.119-2.5-2.5v-1.745c0-22.56,18.354-40.914,40.914-40.914h10.916
						c7.481,0,14.581,3.641,19.047,9.638c3.15-1.487,6.58-2.264,10.042-2.264c13.101,0,23.758,10.658,23.758,23.758v11.34
						c0,1.381-1.119,2.5-2.5,2.5s-2.5-1.119-2.5-2.5v-11.34c0-10.343-8.415-18.758-18.758-18.758c-3.344,0-6.655,0.925-9.574,2.675
						c-0.569,0.341-1.251,0.441-1.893,0.281c-0.643-0.161-1.196-0.571-1.537-1.14c-3.396-5.668-9.56-9.19-16.085-9.19h-10.916
						c-19.803,0-35.914,16.111-35.914,35.914V61.5C81.203,62.881,80.083,64,78.703,64z"/>
				</g>
			</g>
		</g>
		<g>
			<g>
				<path d="M167.603,107.136c-0.539,0-1.082-0.028-1.66-0.087c-1.374-0.139-2.375-1.365-2.236-2.739
					c0.139-1.373,1.365-2.376,2.739-2.236c0.409,0.042,0.788,0.062,1.157,0.062c7.189,0,13.038-5.849,13.038-13.038
					c0-3.631-1.464-7.004-4.123-9.499c-1.007-0.945-1.058-2.527-0.113-3.534c0.945-1.006,2.527-1.057,3.534-0.113
					c3.624,3.4,5.702,8.191,5.702,13.146C185.641,99.044,177.549,107.136,167.603,107.136z"/>
			</g>
		</g>
		<g>
			<g>
				<path d="M88.397,107.136c-9.946,0-18.038-8.092-18.038-18.038c0-5.26,2.296-10.248,6.3-13.684
					c1.047-0.9,2.626-0.778,3.525,0.269c0.899,1.047,0.779,2.626-0.269,3.525c-2.896,2.485-4.556,6.09-4.556,9.89
					c0,7.189,5.849,13.038,13.038,13.038c0.428,0,0.868-0.027,1.345-0.082c1.368-0.16,2.612,0.824,2.771,2.196
					c0.159,1.372-0.825,2.612-2.196,2.771C89.646,107.098,89.019,107.136,88.397,107.136z"/>
			</g>
		</g>
		<g>
			<g>
				<path d="M128.541,118.573c-4.776,0-9.262-1.95-11.999-5.215c-0.887-1.058-0.748-2.635,0.31-3.522
					c1.06-0.887,2.635-0.747,3.522,0.31c1.798,2.146,4.852,3.427,8.167,3.427c3.315,0,6.369-1.281,8.167-3.426
					c0.887-1.058,2.463-1.197,3.522-0.31c1.058,0.887,1.197,2.464,0.31,3.522C137.803,116.624,133.317,118.573,128.541,118.573z"/>
			</g>
		</g>
		<g>
			<g>
				<circle cx="145.331" cy="90.816" r="5"/>
			</g>
		</g>
		<g>
			<g>
				<circle cx="111.752" cy="90.816" r="5"/>
			</g>
		</g>
		<g>
			<g>
				<path d="M176.562,80H80.521c-3.297,0-5.98-2.683-5.98-5.98v-9.04c0-3.297,2.683-5.98,5.98-5.98h96.041
					c3.297,0,5.979,2.683,5.979,5.98v9.04C182.541,77.317,179.858,80,176.562,80z M80.521,64c-0.541,0-0.98,0.439-0.98,0.98v9.04
					c0,0.541,0.439,0.98,0.98,0.98h96.041c0.54,0,0.979-0.439,0.979-0.98v-9.04c0-0.541-0.439-0.98-0.979-0.98H80.521z"/>
			</g>
		</g>
		<g>
			<g>
				<path d="M76.455,255.04c-1.381,0-2.5-1.119-2.5-2.5v-48.948c0-5.615,2.43-10.948,6.667-14.634l22.238-19.344
					c1.041-0.906,2.621-0.797,3.527,0.246c0.906,1.042,0.796,2.621-0.246,3.527L83.903,192.73
					c-3.145,2.735-4.948,6.694-4.948,10.861v48.948C78.955,253.92,77.836,255.04,76.455,255.04z"/>
			</g>
		</g>
		<g>
			<g>
				<path d="M179.5,255.04c-1.381,0-2.5-1.119-2.5-2.5v-48.948c0-4.167-1.803-8.126-4.948-10.861l-22.238-19.344
					c-1.042-0.906-1.152-2.485-0.246-3.527c0.906-1.042,2.486-1.152,3.527-0.246l22.238,19.344c4.236,3.686,6.666,9.02,6.666,14.634
					v48.948C182,253.92,180.881,255.04,179.5,255.04z"/>
			</g>
		</g>
		<g>
			<g>
				<path d="M76.455,256H53.451c-1.802,0-3.545-0.75-4.783-2.06c-1.238-1.309-1.89-3.09-1.79-4.889l1.78-30.696
					c0.079-1.379,1.261-2.437,2.64-2.351c1.378,0.08,2.431,1.262,2.351,2.64l-1.78,30.69c-0.024,0.433,0.129,0.851,0.431,1.17
					c0.302,0.319,0.711,0.495,1.15,0.495h23.004c1.381,0,2.5,1.119,2.5,2.5S77.836,256,76.455,256z"/>
			</g>
		</g>
		<g>
			<g>
				<path d="M202.549,256H179.5c-1.381,0-2.5-1.119-2.5-2.5s1.119-2.5,2.5-2.5h23.049c0.439,0,0.848-0.176,1.15-0.495
					c0.302-0.319,0.455-0.737,0.43-1.175l-1.779-30.685c-0.08-1.378,0.973-2.561,2.351-2.64c1.355-0.085,2.561,0.972,2.64,2.351
					l1.78,30.69c0.101,1.804-0.552,3.586-1.79,4.895C206.094,255.25,204.351,256,202.549,256z"/>
			</g>
		</g>
		<g>
			<g>
				<path d="M128.001,175.732c-0.77,0-1.541-0.138-2.259-0.413c-10.354-3.967-18.815-12.162-23.215-22.482
					c-0.482-1.131-0.07-2.445,0.972-3.099c3.041-1.907,4.856-5.184,4.856-8.766v-5.264c0-1.381,1.119-2.5,2.5-2.5s2.5,1.119,2.5,2.5
					v5.264c0,4.567-1.987,8.798-5.408,11.692c4.049,8.236,11.093,14.732,19.583,17.985c0.289,0.11,0.648,0.111,0.936,0.001
					c8.493-3.254,15.538-9.75,19.586-17.986c-3.42-2.894-5.408-7.125-5.408-11.692v-5.409c0-1.381,1.119-2.5,2.5-2.5
					s2.5,1.119,2.5,2.5v5.409c0,3.582,1.815,6.859,4.856,8.766c1.042,0.653,1.454,1.967,0.972,3.099
					c-4.399,10.32-12.861,18.515-23.215,22.482C129.542,175.594,128.772,175.731,128.001,175.732z"/>
			</g>
		</g>
		<g>
			<g>
				<path d="M179.5,256H76.455c-1.381,0-2.5-1.119-2.5-2.5V221H51.154c-0.688,0-1.346-0.284-1.818-0.784
					c-0.472-0.5-0.717-1.173-0.677-1.86l2.335-40.261c0.42-7.545,5.63-13.859,12.964-15.705l28.645-7.21l2.175-1.072
					c0.612-0.302,1.319-0.34,1.959-0.108c0.64,0.233,1.158,0.716,1.433,1.339c4.995,11.299,14.392,20.283,25.783,24.648
					c2.599,0.996,5.498,0.996,8.095,0c11.392-4.365,20.79-13.35,25.785-24.649c0.275-0.623,0.793-1.107,1.434-1.339
					s1.347-0.194,1.959,0.108l2.174,1.073l28.645,7.209c7.333,1.846,12.542,8.158,12.964,15.707l2.334,40.259
					c0.04,0.687-0.205,1.36-0.677,1.86c-0.473,0.5-1.13,0.784-1.818,0.784H182v32.5C182,254.881,180.881,256,179.5,256z M78.955,251
					H177v-32.5c0-1.381,1.119-2.5,2.5-2.5h22.696l-2.181-37.617c0-0.001,0-0.003,0-0.005c-0.298-5.354-3.992-9.831-9.192-11.14
					l-28.902-7.274c-0.171-0.043-0.337-0.104-0.496-0.182l-0.134-0.066c-5.75,11.398-15.632,20.41-27.455,24.941
					c-3.743,1.436-7.928,1.436-11.673,0c-11.823-4.531-21.705-13.542-27.454-24.941l-0.134,0.066
					c-0.158,0.078-0.324,0.139-0.495,0.182l-28.901,7.274c-5.2,1.309-8.895,5.786-9.193,11.14L53.804,216h22.651
					c1.381,0,2.5,1.119,2.5,2.5V251z"/>
			</g>
		</g>
		<g>
			<g>
				<path d="M160.116,158.85c-0.371,0-0.748-0.083-1.104-0.258l-7.802-3.847c-0.431-0.212-0.878-0.465-1.367-0.772
					c-1.169-0.734-1.522-2.277-0.788-3.446c0.733-1.169,2.275-1.522,3.446-0.788c0.348,0.218,0.64,0.384,0.92,0.522l7.802,3.847
					c1.238,0.61,1.748,2.109,1.137,3.348C161.925,158.338,161.038,158.85,160.116,158.85z"/>
			</g>
		</g>
		<g>
			<g>
				<path d="M95.884,158.851c-0.922,0-1.809-0.512-2.244-1.395c-0.611-1.238-0.102-2.737,1.137-3.348l7.802-3.847
					c0.279-0.138,0.572-0.304,0.919-0.522c1.169-0.733,2.713-0.381,3.446,0.788c0.734,1.169,0.381,2.712-0.788,3.446
					c-0.489,0.307-0.936,0.56-1.366,0.772l-7.802,3.847C96.632,158.768,96.255,158.851,95.884,158.851z"/>
			</g>
		</g>
		<g>
			<g>
				<path d="M106.5,212h-8c-1.381,0-2.5-1.119-2.5-2.5s1.119-2.5,2.5-2.5h8c1.381,0,2.5,1.119,2.5,2.5S107.881,212,106.5,212z"/>
			</g>
		</g>
		<g>
			<g>
				<path class="st7" d="M183.547,28.33c4.498-0.838,8.043-4.31,8.898-8.716c0.043-0.221,0.352-0.221,0.395,0
					c0.855,4.406,4.4,7.879,8.898,8.716c0.226,0.042,0.226,0.345,0,0.387c-4.498,0.838-8.043,4.31-8.898,8.717
					c-0.043,0.221-0.352,0.221-0.395,0c-0.855-4.406-4.4-7.879-8.898-8.717C183.321,28.675,183.321,28.373,183.547,28.33z"/>
			</g>
		</g>
		<g>
			<g>
				<path class="st7" d="M64.854,121.101c2.862-0.533,5.118-2.743,5.663-5.547c0.027-0.141,0.224-0.141,0.251,0
					c0.544,2.804,2.8,5.014,5.663,5.547c0.144,0.027,0.144,0.219,0,0.246c-2.862,0.533-5.118,2.743-5.663,5.547
					c-0.027,0.141-0.224,0.141-0.251,0c-0.544-2.804-2.8-5.014-5.663-5.547C64.71,121.32,64.71,121.128,64.854,121.101z"/>
			</g>
		</g>
		<g>
			<g>
				<path class="st6" d="M205.122,128.75h-2.33v-2.33c0-1.744-1.413-3.157-3.157-3.157s-3.157,1.413-3.157,3.157v2.33h-2.329
					c-1.744,0-3.157,1.413-3.157,3.157c0,1.744,1.413,3.157,3.157,3.157h2.329v2.33c0,1.744,1.413,3.157,3.157,3.157
					s3.157-1.413,3.157-3.157v-2.33h2.33c1.744,0,3.157-1.413,3.157-3.157C208.279,130.163,206.866,128.75,205.122,128.75z"/>
			</g>
		</g>
		<g>
			<g>
				<circle class="st8" cx="214.614" cy="160.825" r="3.377"/>
			</g>
		</g>
		<g>
			<g>
				<circle class="st9" cx="171.614" cy="3.377" r="3.377"/>
			</g>
		</g>
		<g>
			<g>
				<circle class="st8" cx="52.614" cy="99.377" r="3.377"/>
			</g>
		</g>
	</g>
</g>
<g id="Layer_28">
</g>
<g id="Layer_29">
</g>
<g id="Layer_30">
</g>
<g id="Layer_31">
</g>
<g id="Layer_32">
</g>
<g id="Layer_33">
</g>
<g id="Layer_34">
</g>
<g id="Layer_35">
</g>
<g id="Layer_36">
</g>
<g id="Layer_37">
</g>
<g id="Layer_38">
</g>
<g id="Layer_39">
</g>
<g id="Layer_40">
</g>
<g id="Layer_41">
</g>
<g id="Layer_42">
</g>
<g id="Layer_43">
</g>
<g id="Layer_44">
</g>
<g id="Layer_45">
</g>
<g id="Layer_46">
</g>
<g id="Layer_47">
</g>
<g id="Layer_48">
</g>
<g id="Layer_49">
</g>
<g id="Layer_50">
</g>
<g id="Layer_51">
</g>
<g id="Layer_52">
</g>
<g id="Layer_53">
</g>
<g id="Layer_54">
</g>
<g id="Layer_55">
</g>
<g id="Layer_56">
</g>
<g id="Layer_57">
</g>
<g id="Layer_58">
</g>
<g id="Layer_59">
</g>
<g id="Layer_60">
</g>
<g id="Layer_61">
</g>
<g id="Layer_62">
</g>
<g id="Layer_63">
</g>
<g id="Layer_64">
</g>
<g id="Layer_65">
</g>
<g id="Layer_66">
</g>
<g id="Layer_67">
</g>
<g id="Layer_68">
</g>
<g id="Layer_69">
</g>
<g id="Layer_70">
</g>
<g id="Layer_71">
</g>
<g id="Layer_72">
</g>
<g id="Layer_73">
</g>
<g id="Layer_74">
</g>
<g id="Layer_75">
</g>
<g id="Layer_76">
</g>
<g id="Layer_77">
</g>
<g id="Layer_78">
</g>
<g id="Layer_79">
</g>
<g id="Layer_80">
</g>
</svg>
