<?xml version="1.0" encoding="utf-8"?>
<!-- Generator: Adobe Illustrator 24.0.0, SVG Export Plug-In . SVG Version: 6.00 Build 0)  -->
<svg version="1.1" xmlns="http://www.w3.org/2000/svg" xmlns:xlink="http://www.w3.org/1999/xlink" x="0px" y="0px"
	 viewBox="0 0 256 256" style="enable-background:new 0 0 256 256;" xml:space="preserve">
<style type="text/css">
	.st0{fill:#3A70BF;}
	.st1{fill:#EDF4FC;}
	.st2{fill:#C7D7E5;}
	.st3{fill:#F9D0B4;}
	.st4{fill:#5B5D60;}
	.st5{fill:#5290DB;}
	.st6{fill:#70D6F9;}
	.st7{fill:#F5C84C;}
	.st8{fill:#FC657E;}
	.st9{fill:#87D147;}
	.st10{fill:#FCDD86;}
	.st11{fill:#9BE5F9;}
	.st12{fill:#B2E26D;}
	.st13{fill:#754E34;}
	.st14{fill:#FCA265;}
	.st15{fill:#818182;}
	.st16{fill:#F94EED;}
	.st17{fill:#FFC197;}
	.st18{fill:#3CAADC;}
	.st19{fill:#DAE6F1;}
	.st20{fill:#57AF12;}
	.st21{fill:#EF4460;}
	.st22{fill:#FFF0CA;}
	.st23{fill:#F98FA6;}
	.st24{fill:#EDB311;}
	.st25{fill:#FC8C48;}
	.st26{fill:#FCB9CB;}
	.st27{fill:#96BC71;}
	.st28{fill:#78A352;}
	.st29{fill:#B8DD90;}
	.st30{fill:#6FAFEF;}
	.st31{fill:#29589F;}
	.st32{fill:#414344;}
	.st33{fill:#9B6B4B;}
	.st34{fill:#73B1EF;}
</style>
<g id="Layer_1">
</g>
<g id="Layer_2">
</g>
<g id="Layer_3">
</g>
<g id="Layer_4">
</g>
<g id="Layer_5">
</g>
<g id="Layer_6">
</g>
<g id="Layer_7">
</g>
<g id="Layer_8">
</g>
<g id="Layer_9">
</g>
<g id="Layer_10">
</g>
<g id="Layer_11">
</g>
<g id="Layer_12">
</g>
<g id="Layer_13">
</g>
<g id="Layer_14">
</g>
<g id="Layer_15">
</g>
<g id="Layer_16">
</g>
<g id="Layer_17">
</g>
<g id="Layer_18">
</g>
<g id="Layer_19">
</g>
<g id="Layer_20">
</g>
<g id="Layer_21">
</g>
<g id="Layer_22">
</g>
<g id="Layer_23">
</g>
<g id="Layer_24">
</g>
<g id="Layer_25">
</g>
<g id="Layer_26">
</g>
<g id="Layer_27">
</g>
<g id="Layer_28">
	<g>
		<g>
			<g>
				<path class="st3" d="M174.203,250.213c0,1.815,1.472,3.287,3.287,3.287h21.674c1.862,0,3.353-1.546,3.285-3.406l-1.041-28.594
					h-27.206V250.213z"/>
			</g>
		</g>
		<g>
			<g>
				<path class="st3" d="M56.836,253.5H78.51c1.815,0,3.287-1.472,3.287-3.287V221.5H54.591l-1.041,28.594
					C53.483,251.954,54.974,253.5,56.836,253.5z"/>
			</g>
		</g>
		<g>
			<g>
				<path class="st3" d="M126.307,183.166c1.092,0.419,2.295,0.419,3.387,0c10.658-4.084,19.072-12.22,23.756-22.221l-3.543-1.747
					c-3.298-1.626-5.386-4.984-5.386-8.66v-10.681c-4.982,2.771-10.702,4.356-16.777,4.356c-5.867,0-11.403-1.479-16.263-4.076
					v10.401c0,3.677-2.088,7.034-5.386,8.66l-3.543,1.747C107.235,170.946,115.648,179.082,126.307,183.166z"/>
			</g>
		</g>
		<g>
			<g>
				<path class="st6" d="M201.409,221.5l-1.331-36.571c-0.347-6.223-4.699-11.497-10.743-13.019l-24.833-6.269
					c-0.659-0.166-1.309-0.362-1.955-0.571c-5.755,12.347-16.128,22.396-29.275,27.434c-1.699,0.651-3.486,0.977-5.271,0.977
					c-1.787,0-3.572-0.326-5.272-0.977c-13.147-5.038-23.519-15.087-29.274-27.434c-0.646,0.21-1.296,0.405-1.955,0.571
					l-24.833,6.269c-6.044,1.521-10.396,6.796-10.743,13.019L54.591,221.5h27.206v-6.793l3.883,12.439
					c3.049,9.768,3.679,18.625,3.802,23.171c0.048,1.776,1.508,3.184,3.285,3.184h70.425c1.796,0,3.267-1.439,3.286-3.235
					c0.048-4.332,0.552-12.58,3.842-23.119l3.883-12.439v6.793H201.409z"/>
			</g>
		</g>
		<g>
			<g>
				<path class="st1" d="M158.493,163.432l-5.044-2.487c-4.683,10-13.097,18.136-23.756,22.221c-1.092,0.419-2.295,0.419-3.387,0
					c-10.658-4.084-19.072-12.22-23.755-22.221l-5.044,2.487c-1.31,0.646-2.666,1.188-4.053,1.638
					c5.755,12.347,16.127,22.396,29.274,27.434c1.7,0.651,3.485,0.977,5.272,0.977c1.785,0,3.572-0.326,5.271-0.977
					c13.147-5.038,23.52-15.087,29.275-27.434C161.159,164.62,159.802,164.078,158.493,163.432z"/>
			</g>
		</g>
		<g>
			<g>
				<path class="st3" d="M164.703,83.011c-0.759,0-1.502,0.064-2.229,0.177c0,3.696,0,20.799,0,26.293v0v0
					c0,0.783-0.036,1.558-0.088,2.329c0.756,0.122,1.526,0.202,2.316,0.202c8.009,0,14.501-6.492,14.501-14.501
					C179.204,89.504,172.712,83.011,164.703,83.011z"/>
			</g>
		</g>
		<g>
			<g>
				<path class="st3" d="M144.355,71.668c-5.29,6.174-24.047,24.906-51.344,17.13v20.684c0,19.102,15.629,34.732,34.732,34.732l0,0
					c19.102,0,34.732-15.629,34.732-34.732v-28.06c0-1.276-0.893-2.358-2.136-2.646c-3.514-0.814-7.782-2.85-12.673-7.294
					C146.697,70.603,145.206,70.675,144.355,71.668z"/>
			</g>
		</g>
		<g>
			<g>
				<path class="st3" d="M93.011,88.798c-2.385-0.679-4.834-1.559-7.346-2.668c-1.619-0.715-3.511-0.386-4.803,0.825
					c-2.817,2.641-4.581,6.39-4.581,10.557c0,8.008,6.492,14.501,14.501,14.501c0.79,0,1.56-0.08,2.316-0.202
					c-0.052-0.771-0.088-1.546-0.088-2.329V88.798z"/>
			</g>
		</g>
		<g>
			<g>
				<g>
					<path class="st4" d="M80.862,86.955c1.291-1.211,3.183-1.54,4.803-0.825c2.512,1.109,4.961,1.988,7.346,2.668
						c27.297,7.776,46.055-10.956,51.344-17.13c0.85-0.992,2.342-1.065,3.309-0.186c4.892,4.445,9.159,6.48,12.673,7.294
						c1.243,0.288,2.136,1.37,2.136,2.646v1.766c0.727-0.113,1.47-0.177,2.229-0.177c4.012,0,7.643,1.63,10.268,4.263v-8.494
						c0-25.976-21.253-47.229-47.229-47.229c-25.976,0-47.229,21.253-47.229,47.229v8.535C80.632,87.197,80.74,87.069,80.862,86.955
						z"/>
				</g>
			</g>
		</g>
		<g>
			<g>
				<path class="st8" d="M127.743,31.552c4.434,0,8.726,0.633,12.802,1.789c-1.041-6.137-6.369-10.815-12.802-10.815
					s-11.761,4.678-12.802,10.815C119.017,32.185,123.308,31.552,127.743,31.552z"/>
			</g>
		</g>
		<g>
			<g>
				<g>
					<path class="st4" d="M195.276,98.922c-25.649-19.074-2.609-85.37-49.054-90.211c-19.744-2.058-26.165,11.495-28.112,18.116
						c2.375-2.635,5.804-4.301,9.633-4.301c6.434,0,11.761,4.678,12.802,10.815l-0.001,0c19.805,5.618,34.427,23.898,34.427,45.44
						v8.494c2.615,2.623,4.232,6.241,4.232,10.238c0,2.072-0.442,4.039-1.225,5.822c6.611,0.596,12.264,0.126,16.171-0.466
						C196.178,102.561,196.887,100.12,195.276,98.922z"/>
				</g>
			</g>
		</g>
		<g>
			<g>
				<path d="M127.743,128.783c-4.776,0-9.261-1.949-11.999-5.215c-0.887-1.058-0.748-2.635,0.31-3.522
					c1.059-0.886,2.635-0.748,3.522,0.31c1.799,2.146,4.852,3.427,8.167,3.427c3.316,0,6.369-1.281,8.167-3.427
					c0.888-1.058,2.466-1.196,3.521-0.31c1.059,0.887,1.197,2.463,0.311,3.522C137.005,126.833,132.52,128.783,127.743,128.783z"/>
			</g>
		</g>
		<g>
			<g>
				<circle cx="142.853" cy="101.526" r="4.5"/>
			</g>
		</g>
		<g>
			<g>
				<circle cx="112.632" cy="101.526" r="4.5"/>
			</g>
		</g>
		<g>
			<g>
				<path d="M164.703,114.513c-0.613,0-1.233-0.039-1.896-0.119c-1.371-0.165-2.349-1.409-2.185-2.78s1.421-2.352,2.78-2.184
					c0.464,0.056,0.89,0.083,1.301,0.083c6.617,0,12.001-5.383,12.001-12s-5.384-12.001-12.001-12.001
					c-0.359,0-0.715,0.018-1.065,0.051c-1.383,0.131-2.595-0.882-2.723-2.256c-0.129-1.375,0.882-2.593,2.256-2.722
					c10.086-0.936,18.533,7.051,18.533,16.929C181.704,106.886,174.077,114.513,164.703,114.513z"/>
			</g>
		</g>
		<g>
			<g>
				<path d="M127.743,146.713c-20.53,0-37.232-16.702-37.232-37.231V88.797c0-0.784,0.368-1.523,0.994-1.995
					c0.626-0.472,1.437-0.625,2.191-0.409c25.92,7.383,43.875-10.649,48.761-16.352v0c0.85-0.991,2.033-1.581,3.334-1.662
					c1.29-0.083,2.59,0.376,3.556,1.253c3.952,3.591,7.84,5.848,11.556,6.708c2.397,0.556,4.072,2.646,4.072,5.082v28.06
					C164.975,130.011,148.272,146.713,127.743,146.713z M95.511,92.005v17.477c0,17.772,14.459,32.231,32.232,32.231
					s32.232-14.459,32.232-32.231v-28.06c0-0.113-0.101-0.188-0.201-0.21c-4.513-1.045-9.107-3.655-13.656-7.758
					C140.76,79.652,122.326,97.884,95.511,92.005z"/>
			</g>
		</g>
		<g>
			<g>
				<path d="M90.782,114.513c-9.374,0-17-7.626-17-17c0-4.668,1.958-9.181,5.371-12.381c2.03-1.903,4.983-2.41,7.522-1.289
					c2.329,1.029,4.691,1.887,7.021,2.55c1.328,0.378,2.098,1.761,1.72,3.089c-0.378,1.329-1.764,2.098-3.089,1.72
					c-2.551-0.727-5.132-1.664-7.671-2.785c-0.701-0.309-1.518-0.167-2.083,0.362c-2.444,2.292-3.791,5.393-3.791,8.733
					c0,6.617,5.383,12,12,12c0.295,0,0.587-0.014,0.875-0.039c1.371-0.119,2.587,0.899,2.707,2.274
					c0.119,1.375-0.899,2.587-2.274,2.707C91.659,114.492,91.223,114.513,90.782,114.513z"/>
			</g>
		</g>
		<g>
			<g>
				<g>
					<path d="M80.514,89.328c-1.381,0-2.5-1.119-2.5-2.5v-8.046c0-27.421,22.308-49.729,49.729-49.729
						c27.42,0,49.729,22.308,49.729,49.729V86.5c0,1.381-1.119,2.5-2.5,2.5s-2.5-1.119-2.5-2.5v-7.718
						c0-24.664-20.065-44.729-44.729-44.729S83.014,54.118,83.014,78.781v8.046C83.014,88.208,81.895,89.328,80.514,89.328z"/>
				</g>
			</g>
		</g>
		<g>
			<g>
				<path d="M140.491,35.56c-1.175,0-2.222-0.832-2.452-2.028c-0.948-4.928-5.278-8.505-10.296-8.505
					c-4.946,0-9.264,3.516-10.267,8.361c-0.28,1.352-1.602,2.221-2.955,1.941c-1.352-0.28-2.221-1.603-1.941-2.955
					c1.481-7.154,7.858-12.347,15.164-12.347c7.411,0,13.806,5.282,15.207,12.56c0.261,1.356-0.627,2.667-1.982,2.928
					C140.807,35.545,140.648,35.56,140.491,35.56z"/>
			</g>
		</g>
		<g>
			<g>
				<g>
					<path d="M184.097,106.108c-1.798,0-3.714-0.067-5.72-0.23c-1.377-0.112-2.401-1.318-2.29-2.694
						c0.112-1.376,1.336-2.4,2.694-2.289c5.95,0.482,11.038,0.063,14.42-0.413c-10.971-8.669-13.332-25.375-15.617-41.54
						c-3.278-23.199-6.375-45.112-31.621-47.744c-17.352-1.808-23.364,9.365-25.41,16.186c-0.396,1.323-1.79,2.072-3.113,1.676
						c-1.323-0.397-2.073-1.791-1.676-3.113c2.005-6.683,9.024-21.986,30.716-19.722c29.132,3.037,32.81,29.059,36.055,52.017
						c2.281,16.142,4.437,31.389,14.233,38.675c1.542,1.147,2.214,3.002,1.755,4.843c-0.469,1.878-2.038,3.284-3.999,3.581
						C191.971,105.727,188.369,106.108,184.097,106.108z"/>
				</g>
			</g>
		</g>
		<g>
			<g>
				<path d="M199.164,256H177.49c-3.191,0-5.787-2.596-5.787-5.787V221.5c0-1.381,1.119-2.5,2.5-2.5s2.5,1.119,2.5,2.5v28.713
					c0,0.434,0.354,0.787,0.787,0.787h21.674c0.291,0,0.48-0.151,0.566-0.241c0.087-0.09,0.23-0.284,0.221-0.575l-1.041-28.593
					c-0.051-1.38,1.027-2.539,2.407-2.589c1.364-0.039,2.539,1.027,2.589,2.408l1.041,28.594c0.058,1.585-0.517,3.086-1.617,4.228
					C202.229,255.372,200.75,256,199.164,256z"/>
			</g>
		</g>
		<g>
			<g>
				<path d="M78.51,256H56.836c-1.585,0-3.065-0.628-4.166-1.77c-1.101-1.142-1.675-2.643-1.618-4.227l1.041-28.594
					c0.051-1.38,1.238-2.445,2.589-2.408c1.38,0.05,2.458,1.209,2.408,2.589l-1.041,28.594c-0.011,0.291,0.133,0.485,0.22,0.575
					c0.087,0.09,0.276,0.241,0.567,0.241H78.51c0.434,0,0.787-0.353,0.787-0.787V221.5c0-1.381,1.119-2.5,2.5-2.5s2.5,1.119,2.5,2.5
					v28.713C84.297,253.404,81.701,256,78.51,256z"/>
			</g>
		</g>
		<g>
			<g>
				<path d="M128,185.98c-0.877,0-1.754-0.16-2.589-0.48c-11.098-4.252-20.021-12.596-25.124-23.495
					c-0.577-1.232-0.062-2.7,1.159-3.302l3.543-1.747c2.462-1.214,3.991-3.673,3.991-6.418V141c0-1.381,1.119-2.5,2.5-2.5
					s2.5,1.119,2.5,2.5v9.539c0,4.663-2.598,8.84-6.78,10.902l-1.282,0.632c4.676,8.648,12.155,15.261,21.284,18.759
					c0.515,0.198,1.081,0.197,1.597,0c9.129-3.498,16.608-10.111,21.285-18.759l-1.282-0.632c-4.183-2.062-6.78-6.239-6.78-10.902
					v-9.788c0-1.381,1.119-2.5,2.5-2.5s2.5,1.119,2.5,2.5v9.788c0,2.745,1.529,5.204,3.991,6.418l3.543,1.747
					c1.221,0.602,1.735,2.07,1.158,3.303c-5.104,10.898-14.026,19.242-25.125,23.495C129.754,185.82,128.877,185.98,128,185.98z"/>
			</g>
		</g>
		<g>
			<g>
				<path d="M163.191,256H92.767c-3.158,0-5.699-2.467-5.784-5.616c-0.145-5.332-0.902-13.563-3.689-22.494l-1.219-3.906
					c-0.091,0.01-0.184,0.015-0.277,0.015H54.591c-0.679,0-1.329-0.276-1.8-0.765s-0.723-1.148-0.699-1.826l1.331-36.571
					c0.412-7.403,5.487-13.554,12.631-15.352l24.832-6.268c0.541-0.136,1.11-0.303,1.794-0.525c1.201-0.39,2.505,0.176,3.039,1.321
					c5.658,12.14,15.567,21.429,27.902,26.156c2.812,1.078,5.945,1.077,8.754,0c12.335-4.727,22.245-14.016,27.904-26.155
					c0.532-1.144,1.837-1.714,3.037-1.322c0.688,0.224,1.259,0.39,1.793,0.525l24.836,6.269c7.141,1.797,12.216,7.948,12.627,15.303
					l1.332,36.62c0.025,0.678-0.228,1.337-0.698,1.826c-0.472,0.489-1.121,0.765-1.8,0.765h-27.205
					c-0.094,0-0.187-0.005-0.277-0.015l-1.219,3.906c-2.361,7.564-3.651,15.311-3.729,22.402
					C168.943,253.439,166.348,256,163.191,256z M81.799,212.207c1.078,0,2.055,0.699,2.384,1.755l3.883,12.438
					c2.959,9.478,3.762,18.2,3.915,23.848c0.012,0.421,0.357,0.751,0.786,0.751h70.424c0.429,0,0.781-0.342,0.786-0.762
					c0.084-7.572,1.452-15.814,3.956-23.837l3.883-12.438c0.368-1.178,1.542-1.91,2.764-1.727c1.221,0.187,2.123,1.236,2.123,2.472
					V219h22.112l-1.235-33.98c-0.286-5.11-3.846-9.424-8.855-10.685l-24.836-6.269c-0.007-0.001-0.014-0.003-0.021-0.005
					c-6.337,12.375-16.812,21.839-29.701,26.778c-3.955,1.517-8.375,1.517-12.333,0c-12.89-4.939-23.364-14.404-29.7-26.779
					c-0.008,0.002-0.016,0.004-0.024,0.006l-24.832,6.268c-5.012,1.262-8.571,5.575-8.859,10.734L57.184,219h22.113v-4.293
					c0-1.235,0.902-2.285,2.123-2.472C81.547,212.216,81.674,212.207,81.799,212.207z"/>
			</g>
		</g>
		<g>
			<g>
				<path d="M93.454,167.57c-1.054,0-2.034-0.672-2.377-1.729c-0.426-1.313,0.293-2.723,1.606-3.149
					c1.308-0.424,2.559-0.93,3.719-1.502l5.044-2.487c1.238-0.611,2.737-0.102,3.348,1.137c0.611,1.238,0.102,2.737-1.137,3.348
					l-5.044,2.487c-1.375,0.678-2.851,1.275-4.387,1.773C93.969,167.531,93.709,167.57,93.454,167.57z"/>
			</g>
		</g>
		<g>
			<g>
				<path d="M162.548,167.571c-0.256,0-0.516-0.04-0.772-0.123c-1.533-0.498-3.01-1.094-4.389-1.774l-5.043-2.487
					c-1.238-0.611-1.747-2.109-1.137-3.348c0.611-1.238,2.109-1.748,3.348-1.137l5.043,2.487c1.163,0.573,2.415,1.079,3.721,1.502
					c1.313,0.426,2.032,1.836,1.606,3.149C164.582,166.899,163.602,167.571,162.548,167.571z"/>
			</g>
		</g>
		<g>
			<g>
				<path d="M106.5,212h-8c-1.381,0-2.5-1.119-2.5-2.5s1.119-2.5,2.5-2.5h8c1.381,0,2.5,1.119,2.5,2.5S107.881,212,106.5,212z"/>
			</g>
		</g>
		<g>
			<g>
				<path d="M174.203,217c-1.381,0-2.5-1.119-2.5-2.5v-10.571c0-5.503-3.022-10.521-7.889-13.092l-13.482-7.126
					c-1.221-0.646-1.688-2.158-1.042-3.379c0.646-1.221,2.161-1.686,3.378-1.042l13.482,7.126
					c6.51,3.441,10.553,10.151,10.553,17.513V214.5C176.703,215.881,175.584,217,174.203,217z"/>
			</g>
		</g>
		<g>
			<g>
				<path d="M81.797,217c-1.381,0-2.5-1.119-2.5-2.5v-10.571c0-7.459,3.93-14.17,10.255-17.513l13.483-7.126
					c1.219-0.645,2.733-0.18,3.379,1.042c0.645,1.221,0.179,2.733-1.042,3.379l-13.483,7.126c-4.753,2.512-7.591,7.407-7.592,13.092
					V214.5C84.297,215.881,83.178,217,81.797,217z"/>
			</g>
		</g>
		<g>
			<g>
				<path class="st7" d="M191.178,139.331c4.498-0.838,8.043-4.31,8.898-8.716c0.043-0.221,0.352-0.221,0.395,0
					c0.855,4.406,4.4,7.879,8.898,8.716c0.226,0.042,0.226,0.345,0,0.387c-4.498,0.838-8.043,4.31-8.898,8.717
					c-0.043,0.221-0.352,0.221-0.395,0c-0.855-4.406-4.4-7.879-8.898-8.717C190.953,139.675,190.953,139.373,191.178,139.331z"/>
			</g>
		</g>
		<g>
			<g>
				<path class="st8" d="M53.485,112.101c2.862-0.533,5.118-2.743,5.663-5.547c0.027-0.141,0.224-0.141,0.251,0
					c0.544,2.804,2.8,5.014,5.663,5.547c0.144,0.027,0.144,0.219,0,0.246c-2.862,0.533-5.118,2.743-5.663,5.547
					c-0.027,0.141-0.224,0.141-0.251,0c-0.544-2.804-2.8-5.014-5.663-5.547C53.342,112.32,53.342,112.128,53.485,112.101z"/>
			</g>
		</g>
		<g>
			<g>
				<path class="st6" d="M70.754,25.75h-2.33v-2.33c0-1.744-1.413-3.157-3.157-3.157c-1.744,0-3.157,1.413-3.157,3.157v2.33H59.78
					c-1.744,0-3.157,1.413-3.157,3.157s1.413,3.157,3.157,3.157h2.329v2.33c0,1.744,1.413,3.157,3.157,3.157
					c1.744,0,3.157-1.413,3.157-3.157v-2.33h2.33c1.744,0,3.157-1.413,3.157-3.157S72.498,25.75,70.754,25.75z"/>
			</g>
		</g>
		<g>
			<g>
				<circle class="st9" cx="212.245" cy="168.825" r="3.377"/>
			</g>
		</g>
		<g>
			<g>
				<circle class="st7" cx="78.245" cy="3.377" r="3.377"/>
			</g>
		</g>
	</g>
</g>
<g id="Layer_29">
</g>
<g id="Layer_30">
</g>
<g id="Layer_31">
</g>
<g id="Layer_32">
</g>
<g id="Layer_33">
</g>
<g id="Layer_34">
</g>
<g id="Layer_35">
</g>
<g id="Layer_36">
</g>
<g id="Layer_37">
</g>
<g id="Layer_38">
</g>
<g id="Layer_39">
</g>
<g id="Layer_40">
</g>
<g id="Layer_41">
</g>
<g id="Layer_42">
</g>
<g id="Layer_43">
</g>
<g id="Layer_44">
</g>
<g id="Layer_45">
</g>
<g id="Layer_46">
</g>
<g id="Layer_47">
</g>
<g id="Layer_48">
</g>
<g id="Layer_49">
</g>
<g id="Layer_50">
</g>
<g id="Layer_51">
</g>
<g id="Layer_52">
</g>
<g id="Layer_53">
</g>
<g id="Layer_54">
</g>
<g id="Layer_55">
</g>
<g id="Layer_56">
</g>
<g id="Layer_57">
</g>
<g id="Layer_58">
</g>
<g id="Layer_59">
</g>
<g id="Layer_60">
</g>
<g id="Layer_61">
</g>
<g id="Layer_62">
</g>
<g id="Layer_63">
</g>
<g id="Layer_64">
</g>
<g id="Layer_65">
</g>
<g id="Layer_66">
</g>
<g id="Layer_67">
</g>
<g id="Layer_68">
</g>
<g id="Layer_69">
</g>
<g id="Layer_70">
</g>
<g id="Layer_71">
</g>
<g id="Layer_72">
</g>
<g id="Layer_73">
</g>
<g id="Layer_74">
</g>
<g id="Layer_75">
</g>
<g id="Layer_76">
</g>
<g id="Layer_77">
</g>
<g id="Layer_78">
</g>
<g id="Layer_79">
</g>
<g id="Layer_80">
</g>
</svg>
