<?xml version="1.0" encoding="utf-8"?>
<!-- Generator: Adobe Illustrator 24.0.0, SVG Export Plug-In . SVG Version: 6.00 Build 0)  -->
<svg version="1.1" xmlns="http://www.w3.org/2000/svg" xmlns:xlink="http://www.w3.org/1999/xlink" x="0px" y="0px"
	 viewBox="0 0 256 256" style="enable-background:new 0 0 256 256;" xml:space="preserve">
<style type="text/css">
	.st0{fill:#3A70BF;}
	.st1{fill:#EDF4FC;}
	.st2{fill:#C7D7E5;}
	.st3{fill:#F9D0B4;}
	.st4{fill:#5B5D60;}
	.st5{fill:#5290DB;}
	.st6{fill:#70D6F9;}
	.st7{fill:#F5C84C;}
	.st8{fill:#FC657E;}
	.st9{fill:#87D147;}
	.st10{fill:#FCDD86;}
	.st11{fill:#9BE5F9;}
	.st12{fill:#B2E26D;}
	.st13{fill:#754E34;}
	.st14{fill:#FCA265;}
	.st15{fill:#818182;}
	.st16{fill:#F94EED;}
	.st17{fill:#FFC197;}
	.st18{fill:#3CAADC;}
	.st19{fill:#DAE6F1;}
	.st20{fill:#57AF12;}
	.st21{fill:#EF4460;}
	.st22{fill:#FFF0CA;}
	.st23{fill:#F98FA6;}
	.st24{fill:#EDB311;}
	.st25{fill:#FC8C48;}
	.st26{fill:#FCB9CB;}
	.st27{fill:#96BC71;}
	.st28{fill:#78A352;}
	.st29{fill:#B8DD90;}
	.st30{fill:#6FAFEF;}
	.st31{fill:#29589F;}
	.st32{fill:#414344;}
	.st33{fill:#9B6B4B;}
	.st34{fill:#73B1EF;}
</style>
<g id="Layer_1">
</g>
<g id="Layer_2">
</g>
<g id="Layer_3">
</g>
<g id="Layer_4">
</g>
<g id="Layer_5">
</g>
<g id="Layer_6">
</g>
<g id="Layer_7">
</g>
<g id="Layer_8">
</g>
<g id="Layer_9">
</g>
<g id="Layer_10">
	<g>
		<g>
			<g>
				<path class="st6" d="M171.542,238.372c-5.115,0-10.044-0.795-14.675-2.259v14.711c0,1.478,1.198,2.677,2.677,2.677h21.99
					c2.273,0,4.079-1.91,3.953-4.179l-0.468-12.856C180.738,237.698,176.22,238.372,171.542,238.372z"/>
			</g>
		</g>
		<g>
			<g>
				<g>
					<path class="st4" d="M63.784,75.929c1.291-1.211,3.183-1.54,4.803-0.825c2.512,1.109,4.961,1.988,7.346,2.668
						c27.297,7.776,46.055-10.956,51.344-17.13c0.85-0.992,2.342-1.065,3.309-0.186c4.892,4.445,9.159,6.48,12.673,7.294
						c1.243,0.288,2.136,1.37,2.136,2.646v1.766c0.727-0.113,1.47-0.177,2.229-0.177c4.012,0,7.643,1.63,10.268,4.263v-8.494
						c0-25.976-21.253-47.229-47.229-47.229c-25.976,0-47.229,21.253-47.229,47.229v8.535
						C63.553,76.171,63.662,76.043,63.784,75.929z"/>
				</g>
			</g>
		</g>
		<g>
			<g>
				<path class="st3" d="M147.625,71.985c-0.759,0-1.502,0.064-2.229,0.177c0,3.696,0,20.799,0,26.293v0v0
					c0,0.783-0.036,1.558-0.088,2.329c0.756,0.122,1.526,0.202,2.316,0.202c8.009,0,14.501-6.492,14.501-14.501
					C162.125,78.477,155.633,71.985,147.625,71.985z"/>
			</g>
		</g>
		<g>
			<g>
				<path class="st3" d="M127.277,60.642c-5.29,6.174-24.047,24.906-51.344,17.13v20.684c0,19.102,15.629,34.732,34.732,34.732l0,0
					c19.102,0,34.732-15.629,34.732-34.732v-28.06c0-1.276-0.893-2.358-2.136-2.646c-3.514-0.814-7.782-2.85-12.673-7.294
					C129.619,59.577,128.127,59.649,127.277,60.642z"/>
			</g>
		</g>
		<g>
			<g>
				<path class="st3" d="M75.933,77.771c-2.385-0.679-4.834-1.559-7.346-2.668c-1.619-0.715-3.511-0.386-4.803,0.825
					c-2.817,2.641-4.581,6.39-4.581,10.557c0,8.008,6.492,14.501,14.501,14.501c0.79,0,1.56-0.08,2.316-0.202
					c-0.052-0.771-0.088-1.546-0.088-2.329V77.771z"/>
			</g>
		</g>
		<g>
			<g>
				<path class="st6" d="M122.921,189.75c0-15.138,6.919-28.658,17.766-37.576l-8.117-4.002c-3.298-1.626-5.386-4.984-5.386-8.66
					v-10.533c-4.92,2.682-10.551,4.208-16.52,4.208c-5.97,0-11.6-1.526-16.52-4.208v10.533c0,3.677-2.088,7.034-5.386,8.66
					l-8.587,4.234c-1.919,0.946-3.933,1.687-6.009,2.209l-24.833,6.269c-6.044,1.521-10.396,6.796-10.743,13.019l-2.745,75.418
					c-0.126,2.269,1.68,4.179,3.953,4.179h21.99c1.478,0,2.677-1.198,2.677-2.677v-47.143l3.883,12.439
					c2.539,8.133,3.83,16.604,3.83,25.124v9.58c0,1.478,1.198,2.677,2.677,2.677h30.345h10.937h30.345
					c1.478,0,2.677-1.198,2.677-2.677v-9.58c0-2.718,0.146-5.429,0.408-8.128C133.757,225.089,122.921,208.69,122.921,189.75z"/>
			</g>
		</g>
		<g>
			<g>
				<path class="st4" d="M110.664,20.526c7.156,0,13.949,1.62,20.043,4.501c0.089-0.768,0.146-1.546,0.146-2.338
					c0-11.15-9.039-20.189-20.189-20.189s-20.189,9.039-20.189,20.189c0,0.792,0.057,1.57,0.146,2.338
					C96.715,22.146,103.508,20.526,110.664,20.526z"/>
			</g>
		</g>
		<g>
			<g>
				<path class="st6" d="M110.664,133.187c10.595,0,20.116-4.813,26.5-12.355v-12.616c0-2.052-1.664-3.716-3.716-3.716H87.881
					c-2.052,0-3.716,1.664-3.716,3.716v12.616C90.548,128.374,100.069,133.187,110.664,133.187z"/>
			</g>
		</g>
		<g>
			<g>
				<path class="st3" d="M110.664,153.187c7.4,0,14.274-2.353,19.925-6.338c-2.123-1.809-3.405-4.47-3.405-7.337v-10.533
					c-4.92,2.682-10.551,4.208-16.52,4.208c-5.97,0-11.6-1.526-16.52-4.208v10.533c0,2.867-1.282,5.528-3.405,7.337
					C96.391,150.834,103.264,153.187,110.664,153.187z"/>
			</g>
		</g>
		<g>
			<g>
				<circle class="st10" cx="171.542" cy="189.75" r="48.622"/>
			</g>
		</g>
		<g>
			<g>
				<path class="st5" d="M133.349,219.82c2.277,2.889,4.872,5.514,7.737,7.82l26.572-26.572l-7.778-7.778L133.349,219.82z"/>
			</g>
		</g>
		<path class="st1" d="M195.872,166.354l-26.357,7.861c-2.917,0.87-5.184,3.175-6.004,6.107l-3.631,12.969l7.778,7.778
			l30.642-30.642C200.094,168.631,198.304,165.628,195.872,166.354z"/>
		<g>
			<g>
				<circle cx="125.775" cy="90.5" r="4.5"/>
			</g>
		</g>
		<g>
			<g>
				<circle cx="95.554" cy="90.5" r="4.5"/>
			</g>
		</g>
		<g>
			<g>
				<path d="M84.662,108c-0.477,0-0.959-0.136-1.385-0.42l-9-6c-1.148-0.766-1.459-2.318-0.693-3.467
					c0.766-1.149,2.319-1.459,3.467-0.693l9,6c1.148,0.766,1.459,2.318,0.693,3.467C86.263,107.609,85.47,108,84.662,108z"/>
			</g>
		</g>
		<g>
			<g>
				<path d="M136.666,108c-0.808,0-1.601-0.391-2.082-1.114c-0.766-1.149-0.455-2.701,0.693-3.467l9-6
					c1.147-0.765,2.701-0.456,3.467,0.693s0.455,2.701-0.693,3.467l-9,6C137.625,107.864,137.143,108,136.666,108z"/>
			</g>
		</g>
		<g>
			<g>
				<path d="M160.203,210.255c-0.64,0-1.279-0.244-1.768-0.732l-7.041-7.041c-0.977-0.976-0.977-2.559,0-3.535
					c0.977-0.977,2.559-0.977,3.535,0l7.041,7.041c0.977,0.976,0.977,2.559,0,3.535
					C161.482,210.011,160.843,210.255,160.203,210.255z"/>
			</g>
		</g>
		<g>
			<g>
				<path class="st7" d="M56.822,113.33c-4.498-0.838-8.043-4.31-8.898-8.716c-0.043-0.221-0.352-0.221-0.395,0
					c-0.855,4.406-4.4,7.879-8.898,8.716c-0.226,0.042-0.226,0.345,0,0.387c4.498,0.838,8.043,4.31,8.898,8.717
					c0.043,0.221,0.352,0.221,0.395,0c0.855-4.406,4.4-7.879,8.898-8.717C57.047,113.675,57.047,113.373,56.822,113.33z"/>
			</g>
		</g>
		<g>
			<g>
				<path class="st8" d="M179.515,112.101c-2.862-0.533-5.118-2.743-5.663-5.547c-0.027-0.141-0.224-0.141-0.251,0
					c-0.544,2.804-2.8,5.014-5.663,5.547c-0.144,0.027-0.144,0.219,0,0.246c2.862,0.533,5.118,2.743,5.663,5.547
					c0.027,0.141,0.224,0.141,0.251,0c0.544-2.804,2.8-5.014,5.663-5.547C179.658,112.32,179.658,112.128,179.515,112.101z"/>
			</g>
		</g>
		<g>
			<g>
				<path class="st6" d="M162.246,25.75h2.33v-2.33c0-1.744,1.413-3.157,3.157-3.157s3.157,1.413,3.157,3.157v2.33h2.329
					c1.744,0,3.157,1.413,3.157,3.157s-1.413,3.157-3.157,3.157h-2.329v2.33c0,1.744-1.413,3.157-3.157,3.157
					s-3.157-1.413-3.157-3.157v-2.33h-2.33c-1.744,0-3.157-1.413-3.157-3.157S160.502,25.75,162.246,25.75z"/>
			</g>
		</g>
		<g>
			<g>
				<circle class="st8" cx="35.755" cy="142.825" r="3.377"/>
			</g>
		</g>
		<g>
			<g>
				<circle class="st9" cx="154.755" cy="3.377" r="3.377"/>
			</g>
		</g>
		<g>
			<g>
				<path d="M181.533,256h-21.989c-2.854,0-5.177-2.322-5.177-5.177v-13.866c0-1.381,1.119-2.5,2.5-2.5s2.5,1.119,2.5,2.5v13.866
					c0,0.098,0.079,0.177,0.177,0.177h21.989c0.547,0,0.899-0.286,1.061-0.457s0.427-0.538,0.396-1.083l-0.428-11.74
					c-0.051-1.379,1.027-2.539,2.407-2.589c1.334-0.047,2.539,1.027,2.589,2.408l0.426,11.691c0.097,1.716-0.543,3.464-1.758,4.749
					C185.012,255.263,183.301,256,181.533,256z"/>
			</g>
		</g>
		<g>
			<g>
				<g>
					<path d="M63.436,78.229c-1.381,0-2.5-1.119-2.5-2.5v-7.975c0-27.421,22.309-49.729,49.729-49.729s49.729,22.308,49.729,49.729
						v7.433c0,1.381-1.119,2.5-2.5,2.5s-2.5-1.119-2.5-2.5v-7.433c0-24.664-20.065-44.729-44.729-44.729
						S65.936,43.091,65.936,67.755v7.975C65.936,77.11,64.816,78.229,63.436,78.229z"/>
				</g>
			</g>
		</g>
		<g>
			<g>
				<path d="M147.625,103.487c-0.521,0-1.046-0.028-1.605-0.086c-1.373-0.142-2.371-1.371-2.229-2.744
					c0.142-1.374,1.356-2.364,2.744-2.229c0.386,0.04,0.743,0.06,1.09,0.06c6.617,0,12-5.384,12-12.001s-5.383-12-12-12
					c-0.313,0-0.621,0.013-0.928,0.038c-1.364,0.107-2.582-0.916-2.691-2.292c-0.11-1.376,0.916-2.582,2.293-2.692
					c0.438-0.035,0.879-0.054,1.326-0.054c9.374,0,17,7.626,17,17C164.625,95.86,156.999,103.487,147.625,103.487z"/>
			</g>
		</g>
		<g>
			<g>
				<path d="M110.664,135.687c-20.529,0-37.231-16.702-37.231-37.232V77.771c0-0.784,0.368-1.523,0.994-1.995
					c0.626-0.473,1.44-0.625,2.19-0.409c25.922,7.384,43.876-10.649,48.761-16.352l0,0c0.849-0.991,2.033-1.581,3.334-1.663
					c1.309-0.082,2.591,0.376,3.556,1.253c3.951,3.59,7.839,5.848,11.557,6.709c2.397,0.556,4.071,2.645,4.071,5.081v28.06
					C147.896,118.985,131.193,135.687,110.664,135.687z M78.433,80.979v17.476c0,17.773,14.459,32.232,32.231,32.232
					s32.231-14.459,32.231-32.232v-28.06c0-0.113-0.101-0.187-0.2-0.21c-4.516-1.046-9.109-3.656-13.657-7.759
					C123.682,68.626,105.253,86.861,78.433,80.979z"/>
			</g>
		</g>
		<g>
			<g>
				<path d="M73.704,103.487c-9.374,0-17.001-7.626-17.001-17.001c0-4.668,1.958-9.181,5.371-12.381
					c2.03-1.904,4.985-2.41,7.522-1.288c2.332,1.029,4.693,1.888,7.021,2.55c1.328,0.378,2.098,1.761,1.72,3.089
					c-0.377,1.328-1.761,2.101-3.089,1.72c-2.548-0.726-5.129-1.663-7.671-2.785c-0.703-0.31-1.519-0.167-2.083,0.361
					c-2.444,2.292-3.791,5.394-3.791,8.734c0,6.617,5.384,12.001,12.001,12.001c0.364,0,0.738-0.021,1.144-0.065
					c1.36-0.151,2.605,0.844,2.754,2.216c0.148,1.373-0.844,2.606-2.217,2.754C74.8,103.456,74.25,103.487,73.704,103.487z"/>
			</g>
		</g>
		<g>
			<g>
				<path d="M139.95,154.313c-0.371,0-0.748-0.083-1.104-0.258l-7.382-3.64c-4.183-2.062-6.78-6.239-6.78-10.902v-9.49
					c0-1.381,1.119-2.5,2.5-2.5s2.5,1.119,2.5,2.5v9.49c0,2.745,1.529,5.204,3.991,6.418l7.382,3.64
					c1.238,0.611,1.747,2.109,1.137,3.348C141.759,153.8,140.872,154.313,139.95,154.313z"/>
			</g>
		</g>
		<g>
			<g>
				<path d="M146.478,256H74.851c-2.854,0-5.177-2.322-5.177-5.177v-9.58c0-7.067-0.911-14.08-2.713-20.896v30.476
					c0,2.854-2.322,5.177-5.177,5.177H39.795c-1.768,0-3.478-0.736-4.692-2.02c-1.215-1.284-1.854-3.033-1.757-4.798l2.743-75.371
					c0.412-7.403,5.486-13.554,12.63-15.352l24.832-6.268c1.902-0.479,3.758-1.161,5.516-2.027l8.587-4.234
					c2.462-1.214,3.991-3.673,3.991-6.418v-9.887c0-1.381,1.119-2.5,2.5-2.5s2.5,1.119,2.5,2.5v9.887
					c0,4.662-2.598,8.84-6.78,10.902l-8.587,4.234c-2.074,1.022-4.262,1.827-6.504,2.391l-24.832,6.268
					c-5.012,1.262-8.571,5.575-8.858,10.734l-2.743,75.37c-0.032,0.594,0.234,0.961,0.396,1.132S39.248,251,39.795,251h21.989
					c0.098,0,0.177-0.079,0.177-0.177v-47.143c0-1.235,0.902-2.285,2.123-2.472c1.221-0.186,2.396,0.548,2.764,1.727l3.883,12.438
					c2.616,8.382,3.943,17.086,3.943,25.87v9.58c0,0.098,0.079,0.177,0.177,0.177h71.627c0.098,0,0.177-0.079,0.177-0.177v-9.58
					c0-2.399,0.113-4.91,0.336-7.463c0.12-1.375,1.353-2.388,2.707-2.273c1.376,0.12,2.394,1.333,2.273,2.708
					c-0.21,2.409-0.316,4.774-0.316,7.029v9.58C151.654,253.678,149.332,256,146.478,256z"/>
			</g>
		</g>
		<g>
			<g>
				<path d="M90.539,26.724c-1.287,0-2.38-0.988-2.488-2.293c-0.051-0.608-0.075-1.178-0.075-1.742
					C87.976,10.178,98.153,0,110.664,0s22.688,10.178,22.688,22.688c0,0.451-0.016,0.897-0.044,1.341
					c-0.09,1.378-1.295,2.425-2.657,2.332c-1.378-0.09-2.423-1.279-2.333-2.657c0.022-0.336,0.034-0.674,0.034-1.016
					c0-9.753-7.935-17.688-17.688-17.688s-17.688,7.935-17.688,17.688c0,0.448,0.021,0.89,0.058,1.329
					c0.114,1.376-0.908,2.584-2.284,2.698C90.679,26.721,90.608,26.724,90.539,26.724z"/>
			</g>
		</g>
		<g>
			<g>
				<path d="M84.164,123.031c-1.381,0-2.5-1.119-2.5-2.5v-12.315c0-3.428,2.789-6.216,6.217-6.216h45.567
					c3.428,0,6.216,2.789,6.216,6.216v12.19c0,1.381-1.119,2.5-2.5,2.5s-2.5-1.119-2.5-2.5v-12.19c0-0.671-0.546-1.216-1.216-1.216
					H87.881c-0.671,0-1.217,0.545-1.217,1.216v12.315C86.664,121.912,85.545,123.031,84.164,123.031z"/>
			</g>
		</g>
		<g>
			<g>
				<path d="M110.664,155.687c-7.365,0-14.505-2.179-20.647-6.301c-1.147-0.769-1.453-2.322-0.684-3.469
					c0.77-1.147,2.327-1.451,3.469-0.683c5.316,3.567,11.493,5.453,17.862,5.453c6.412,0,12.625-1.91,17.966-5.523
					c1.141-0.773,2.696-0.475,3.471,0.67c0.774,1.144,0.475,2.698-0.67,3.472C125.26,153.48,118.079,155.687,110.664,155.687z"/>
			</g>
		</g>
		<g>
			<g>
				<path d="M171.543,240.872C171.542,240.872,171.543,240.872,171.543,240.872c-28.189,0-51.122-22.933-51.122-51.122
					c0-13.655,5.317-26.493,14.973-36.148s22.493-14.973,36.147-14.973c0.001,0,0,0,0.001,0l0,0l0,0
					c13.655,0,26.493,5.317,36.148,14.973c9.656,9.655,14.974,22.493,14.974,36.148s-5.317,26.493-14.974,36.148
					C198.036,235.554,185.197,240.872,171.543,240.872z M171.542,143.628c-12.319,0-23.901,4.797-32.612,13.508
					c-8.711,8.711-13.509,20.293-13.509,32.613c0,25.432,20.689,46.122,46.121,46.122c12.319,0,23.902-4.797,32.613-13.508
					c8.711-8.711,13.509-20.293,13.509-32.613s-4.798-23.902-13.509-32.613C195.444,148.426,183.861,143.628,171.542,143.628
					L171.542,143.628z"/>
			</g>
		</g>
		<g>
			<g>
				<path d="M141.654,229.571c-0.64,0-1.279-0.244-1.768-0.732c-0.977-0.976-0.977-2.559,0-3.535L165.89,199.3
					c0.977-0.977,2.559-0.977,3.535,0c0.977,0.976,0.977,2.559,0,3.535l-26.003,26.003
					C142.934,229.327,142.294,229.571,141.654,229.571z"/>
			</g>
		</g>
		<g>
			<g>
				<path d="M133.938,221.73c-0.64,0-1.279-0.244-1.768-0.732c-0.977-0.976-0.977-2.559,0-3.535l25.94-25.941
					c0.977-0.977,2.559-0.977,3.535,0c0.977,0.976,0.977,2.559,0,3.535l-25.94,25.941
					C135.218,221.486,134.578,221.73,133.938,221.73z"/>
			</g>
		</g>
		<path d="M200.817,166.164c-1.18-1.977-3.448-2.866-5.66-2.206l-26.357,7.861c-3.762,1.123-6.639,4.049-7.696,7.828l-3.632,12.969
			c-0.244,0.87,0.001,1.803,0.64,2.442l7.778,7.778c0.488,0.488,1.128,0.732,1.768,0.732s1.279-0.244,1.768-0.732l30.643-30.642
			C201.695,170.565,201.997,168.142,200.817,166.164z M167.657,197.532l-4.977-4.977l3.237-11.561
			c0.593-2.117,2.204-3.756,4.312-4.385l26.149-7.799L167.657,197.532z"/>
	</g>
</g>
<g id="Layer_11">
</g>
<g id="Layer_12">
</g>
<g id="Layer_13">
</g>
<g id="Layer_14">
</g>
<g id="Layer_15">
</g>
<g id="Layer_16">
</g>
<g id="Layer_17">
</g>
<g id="Layer_18">
</g>
<g id="Layer_19">
</g>
<g id="Layer_20">
</g>
<g id="Layer_21">
</g>
<g id="Layer_22">
</g>
<g id="Layer_23">
</g>
<g id="Layer_24">
</g>
<g id="Layer_25">
</g>
<g id="Layer_26">
</g>
<g id="Layer_27">
</g>
<g id="Layer_28">
</g>
<g id="Layer_29">
</g>
<g id="Layer_30">
</g>
<g id="Layer_31">
</g>
<g id="Layer_32">
</g>
<g id="Layer_33">
</g>
<g id="Layer_34">
</g>
<g id="Layer_35">
</g>
<g id="Layer_36">
</g>
<g id="Layer_37">
</g>
<g id="Layer_38">
</g>
<g id="Layer_39">
</g>
<g id="Layer_40">
</g>
<g id="Layer_41">
</g>
<g id="Layer_42">
</g>
<g id="Layer_43">
</g>
<g id="Layer_44">
</g>
<g id="Layer_45">
</g>
<g id="Layer_46">
</g>
<g id="Layer_47">
</g>
<g id="Layer_48">
</g>
<g id="Layer_49">
</g>
<g id="Layer_50">
</g>
<g id="Layer_51">
</g>
<g id="Layer_52">
</g>
<g id="Layer_53">
</g>
<g id="Layer_54">
</g>
<g id="Layer_55">
</g>
<g id="Layer_56">
</g>
<g id="Layer_57">
</g>
<g id="Layer_58">
</g>
<g id="Layer_59">
</g>
<g id="Layer_60">
</g>
<g id="Layer_61">
</g>
<g id="Layer_62">
</g>
<g id="Layer_63">
</g>
<g id="Layer_64">
</g>
<g id="Layer_65">
</g>
<g id="Layer_66">
</g>
<g id="Layer_67">
</g>
<g id="Layer_68">
</g>
<g id="Layer_69">
</g>
<g id="Layer_70">
</g>
<g id="Layer_71">
</g>
<g id="Layer_72">
</g>
<g id="Layer_73">
</g>
<g id="Layer_74">
</g>
<g id="Layer_75">
</g>
<g id="Layer_76">
</g>
<g id="Layer_77">
</g>
<g id="Layer_78">
</g>
<g id="Layer_79">
</g>
<g id="Layer_80">
</g>
</svg>
