<?xml version="1.0" encoding="utf-8"?>
<!-- Generator: Adobe Illustrator 24.0.0, SVG Export Plug-In . SVG Version: 6.00 Build 0)  -->
<svg version="1.1" xmlns="http://www.w3.org/2000/svg" xmlns:xlink="http://www.w3.org/1999/xlink" x="0px" y="0px"
	 viewBox="0 0 256 256" style="enable-background:new 0 0 256 256;" xml:space="preserve">
<style type="text/css">
	.st0{fill:#3A70BF;}
	.st1{fill:#EDF4FC;}
	.st2{fill:#C7D7E5;}
	.st3{fill:#F9D0B4;}
	.st4{fill:#5B5D60;}
	.st5{fill:#5290DB;}
	.st6{fill:#70D6F9;}
	.st7{fill:#F5C84C;}
	.st8{fill:#FC657E;}
	.st9{fill:#87D147;}
	.st10{fill:#FCDD86;}
	.st11{fill:#9BE5F9;}
	.st12{fill:#B2E26D;}
	.st13{fill:#754E34;}
	.st14{fill:#FCA265;}
	.st15{fill:#818182;}
	.st16{fill:#F94EED;}
	.st17{fill:#FFC197;}
	.st18{fill:#3CAADC;}
	.st19{fill:#DAE6F1;}
	.st20{fill:#57AF12;}
	.st21{fill:#EF4460;}
	.st22{fill:#FFF0CA;}
	.st23{fill:#F98FA6;}
	.st24{fill:#EDB311;}
	.st25{fill:#FC8C48;}
	.st26{fill:#FCB9CB;}
	.st27{fill:#96BC71;}
	.st28{fill:#78A352;}
	.st29{fill:#B8DD90;}
	.st30{fill:#6FAFEF;}
	.st31{fill:#29589F;}
	.st32{fill:#414344;}
	.st33{fill:#9B6B4B;}
	.st34{fill:#73B1EF;}
</style>
<g id="Layer_1">
</g>
<g id="Layer_2">
</g>
<g id="Layer_3">
</g>
<g id="Layer_4">
</g>
<g id="Layer_5">
</g>
<g id="Layer_6">
</g>
<g id="Layer_7">
</g>
<g id="Layer_8">
</g>
<g id="Layer_9">
	<g>
		<g>
			<g>
				<g>
					<path class="st4" d="M70.922,73.561c0.813,0,1.609,0.069,2.388,0.189v-1.763c0-0.008,0-0.017,0-0.025
						c0.001-1.252,1.177-2.175,2.402-1.919c6.742,1.411,26.794,3.823,40.386-13.27c0.745-0.937,2.124-1.025,2.978-0.187
						c3.13,3.068,11.276,9.196,26.736,9.649c1.055,0.031,1.9,0.901,1.921,1.956c0.004,0.194,0.006,0.388,0.006,0.582v4.978
						c0.779-0.121,1.575-0.189,2.388-0.189c4.188,0,7.982,1.665,10.777,4.36V49.973c0-11.692-9.566-21.258-21.258-21.258
						c-3.966,0-7.673,1.121-10.859,3.031c-3.722-6.211-10.502-10.405-18.23-10.405H99.641c-21.127,0-38.413,17.286-38.413,38.413
						v17.212C63.886,74.84,67.252,73.561,70.922,73.561z"/>
				</g>
			</g>
		</g>
		<g>
			<g>
				<path class="st3" d="M116.098,56.772c-13.593,17.094-33.644,14.681-40.386,13.27c-1.225-0.256-2.401,0.667-2.402,1.919
					c0,0.008,0,0.017,0,0.025v29.936c0,20.468,16.747,37.215,37.215,37.215h0c20.468,0,37.215-16.747,37.215-37.215V68.772
					c0-0.194-0.002-0.388-0.006-0.582c-0.021-1.055-0.866-1.925-1.921-1.956c-15.46-0.453-23.606-6.581-26.736-9.649
					C118.222,55.747,116.843,55.836,116.098,56.772z"/>
			</g>
		</g>
		<g>
			<g>
				<path class="st3" d="M150.128,73.561c-0.813,0-1.609,0.069-2.388,0.189c0,3.96,0,22.286,0,28.173
					c0,0.839-0.038,1.67-0.094,2.496c0.81,0.13,1.635,0.217,2.482,0.217c8.581,0,15.537-6.956,15.537-15.537
					S158.709,73.561,150.128,73.561z"/>
			</g>
		</g>
		<g>
			<g>
				<path class="st3" d="M73.31,101.923c0-3.856,0-20.507,0-28.173c-0.779-0.121-1.575-0.189-2.388-0.189
					c-8.581,0-15.538,6.957-15.538,15.538s6.956,15.537,15.538,15.537c0.847,0,1.672-0.086,2.482-0.217v-0.001
					C73.348,103.593,73.31,102.762,73.31,101.923z"/>
			</g>
		</g>
		<g>
			<g>
				<path class="st6" d="M174.944,238.372c-26.853,0-48.622-21.769-48.622-48.622c0-13.534,5.534-25.771,14.456-34.586l-5.397-2.661
					c-4.391-2.165-7.171-6.635-7.171-11.531v-6.335c-5.268,2.868-11.296,4.501-17.686,4.501h0c-5.959,0-11.597-1.427-16.604-3.945
					v5.778c0,4.895-2.78,9.366-7.171,11.531l-10.215,5.037l-28.902,7.275c-6.233,1.569-10.721,7.008-11.078,13.425l-4.115,70.951
					c-0.13,2.34,1.732,4.31,4.076,4.31h149.098c2.344,0,4.207-1.969,4.076-4.31l-0.747-12.874
					C184.51,237.647,179.812,238.372,174.944,238.372z"/>
			</g>
		</g>
		<g>
			<g>
				<circle class="st10" cx="174.944" cy="189.75" r="48.622"/>
			</g>
		</g>
		<g>
			<g>
				<path class="st5" d="M136.751,219.82c2.277,2.889,4.872,5.514,7.737,7.82l26.572-26.572l-7.778-7.778L136.751,219.82z"/>
			</g>
		</g>
		<path class="st1" d="M199.273,166.354l-26.356,7.861c-2.917,0.87-5.184,3.175-6.004,6.107l-3.631,12.969l7.778,7.778
			l30.642-30.642C203.496,168.631,201.706,165.628,199.273,166.354z"/>
		<g>
			<g>
				<path class="st3" d="M110.525,157.138L110.525,157.138c8.032,0,15.484-2.587,21.582-6.957c-2.448-2.382-3.896-5.683-3.896-9.209
					v-6.335c-5.268,2.868-11.296,4.501-17.686,4.501h0c-5.959,0-11.597-1.427-16.604-3.945v5.778c0,3.747-1.633,7.24-4.365,9.646
					C95.537,154.725,102.762,157.138,110.525,157.138z"/>
			</g>
		</g>
		<g>
			<g>
				<path class="st6" d="M137.566,127.411v-19.195c0-2.052-1.664-3.716-3.716-3.716H88.282c-2.052,0-3.716,1.664-3.716,3.716v20.299
					c6.718,6.56,15.885,10.623,25.959,10.623h0C121.152,139.138,130.768,134.617,137.566,127.411z"/>
			</g>
		</g>
		<g>
			<g>
				<g>
					<path d="M160.904,79.375c-1.381,0-2.5-1.119-2.5-2.5V49.973c0-10.343-8.415-18.758-18.758-18.758
						c-3.344,0-6.654,0.925-9.574,2.675c-0.568,0.341-1.251,0.44-1.893,0.281c-0.644-0.161-1.196-0.571-1.537-1.14
						c-3.396-5.668-9.561-9.19-16.086-9.19H99.641c-19.803,0-35.913,16.111-35.913,35.914v16.37c0,1.381-1.119,2.5-2.5,2.5
						s-2.5-1.119-2.5-2.5v-16.37c0-22.56,18.354-40.914,40.913-40.914h10.916c7.481,0,14.581,3.641,19.048,9.638
						c3.15-1.487,6.579-2.264,10.042-2.264c13.101,0,23.758,10.658,23.758,23.758v26.902
						C163.404,78.256,162.285,79.375,160.904,79.375z"/>
				</g>
			</g>
		</g>
		<g>
			<g>
				<path d="M110.524,141.638c-21.898,0-39.715-17.816-39.715-39.715V71.987c0.001-1.37,0.603-2.627,1.649-3.478
					c1.059-0.859,2.432-1.191,3.765-0.914c7.237,1.515,25.417,3.339,37.917-12.379l0.001,0c0.796-1,1.981-1.619,3.253-1.698
					c1.278-0.083,2.521,0.389,3.432,1.281c2.593,2.542,10.225,8.501,25.06,8.936c2.392,0.071,4.301,2.007,4.348,4.407
					c0.004,0.208,0.007,0.418,0.007,0.63v33.151C150.24,123.822,132.424,141.638,110.524,141.638z M75.81,72.613v29.311
					c0,19.142,15.573,34.715,34.715,34.715c19.143,0,34.716-15.573,34.716-34.715V68.772c0-0.019,0-0.038,0-0.056
					c-15.154-0.563-23.627-6.308-27.522-9.97C103.53,76.144,82.797,73.963,75.81,72.613z M118.055,58.329
					C118.054,58.329,118.054,58.329,118.055,58.329L118.055,58.329z"/>
			</g>
		</g>
		<g>
			<g>
				<path d="M59.521,255.04c-1.381,0-2.5-1.119-2.5-2.5v-56.644c0-1.381,1.119-2.5,2.5-2.5s2.5,1.119,2.5,2.5v56.644
					C62.021,253.92,60.902,255.04,59.521,255.04z"/>
			</g>
		</g>
		<g>
			<g>
				<path d="M150.128,107.136c-0.547,0-1.099-0.029-1.688-0.09c-1.373-0.141-2.373-1.368-2.232-2.742
					c0.141-1.373,1.36-2.381,2.742-2.232c0.418,0.042,0.803,0.063,1.178,0.063c7.188,0,13.037-5.849,13.037-13.038
					s-5.849-13.038-13.037-13.038c-0.398,0-0.791,0.02-1.18,0.056c-1.372,0.138-2.594-0.879-2.724-2.254
					c-0.129-1.375,0.88-2.594,2.255-2.724c0.551-0.052,1.106-0.079,1.648-0.079c9.945,0,18.037,8.092,18.037,18.038
					S160.073,107.136,150.128,107.136z"/>
			</g>
		</g>
		<g>
			<g>
				<path d="M70.922,107.136c-9.946,0-18.038-8.092-18.038-18.038s8.092-18.038,18.038-18.038c0.668,0,1.353,0.04,2.035,0.119
					c1.371,0.159,2.354,1.399,2.195,2.771c-0.159,1.371-1.388,2.351-2.771,2.196c-0.492-0.057-0.982-0.086-1.459-0.086
					c-7.189,0-13.038,5.849-13.038,13.038s5.849,13.038,13.038,13.038c0.479,0,0.98-0.034,1.531-0.105
					c1.37-0.175,2.622,0.793,2.797,2.163c0.176,1.37-0.793,2.622-2.162,2.797C72.324,107.088,71.616,107.136,70.922,107.136z"/>
			</g>
		</g>
		<g>
			<g>
				<path d="M140.071,157.316c-0.371,0-0.748-0.083-1.104-0.258l-4.691-2.313c-5.283-2.605-8.565-7.883-8.565-13.773v-5.223
					c0-1.381,1.119-2.5,2.5-2.5s2.5,1.119,2.5,2.5v5.223c0,3.972,2.214,7.532,5.776,9.289l4.691,2.313
					c1.238,0.61,1.747,2.109,1.137,3.348C141.88,156.804,140.993,157.316,140.071,157.316z"/>
			</g>
		</g>
		<g>
			<g>
				<path d="M185.615,256H36.517c-1.801,0-3.544-0.75-4.781-2.059c-1.238-1.309-1.891-3.091-1.791-4.89l4.114-70.957
					c0.421-7.545,5.631-13.859,12.965-15.705l28.645-7.209l9.977-4.919c3.563-1.757,5.776-5.316,5.776-9.289v-4.889
					c0-1.381,1.119-2.5,2.5-2.5s2.5,1.119,2.5,2.5v4.889c0,5.89-3.282,11.168-8.565,13.773l-10.215,5.037
					c-0.158,0.078-0.324,0.139-0.495,0.182l-28.901,7.274c-5.2,1.309-8.896,5.786-9.193,11.14l-4.114,70.957
					c-0.024,0.433,0.129,0.851,0.431,1.17c0.302,0.319,0.71,0.495,1.149,0.495h149.099c0.439,0,0.848-0.176,1.149-0.495
					c0.302-0.32,0.455-0.737,0.431-1.176l-0.706-12.174c-0.08-1.378,0.973-2.561,2.352-2.64c1.38-0.08,2.561,0.974,2.641,2.351
					l0.706,12.18c0.1,1.805-0.553,3.587-1.791,4.896C189.159,255.25,187.416,256,185.615,256z"/>
			</g>
		</g>
		<g>
			<g>
				<circle cx="127.855" cy="90.816" r="5"/>
			</g>
		</g>
		<g>
			<g>
				<circle cx="94.276" cy="90.816" r="5"/>
			</g>
		</g>
		<g>
			<g>
				<path d="M85.063,108c-0.438,0-0.882-0.115-1.284-0.357l-10-6c-1.184-0.71-1.568-2.246-0.857-3.43
					c0.711-1.185,2.249-1.567,3.43-0.857l10,6c1.184,0.71,1.568,2.246,0.857,3.43C86.74,107.567,85.912,108,85.063,108z"/>
			</g>
		</g>
		<g>
			<g>
				<path d="M137.067,108c-0.849,0-1.677-0.433-2.146-1.214c-0.711-1.184-0.326-2.72,0.857-3.43l10-6
					c1.182-0.709,2.719-0.328,3.43,0.857c0.711,1.184,0.326,2.72-0.857,3.43l-10,6C137.949,107.885,137.506,108,137.067,108z"/>
			</g>
		</g>
		<g>
			<g>
				<path d="M174.945,240.872C174.944,240.872,174.945,240.872,174.945,240.872c-28.189,0-51.123-22.933-51.123-51.122
					c0-13.655,5.317-26.493,14.974-36.148c9.654-9.655,22.493-14.973,36.147-14.973c0.001,0,0,0,0.001,0l0,0l0,0
					c13.655,0,26.492,5.317,36.148,14.973c9.655,9.655,14.973,22.493,14.973,36.148s-5.317,26.493-14.973,36.148
					S188.6,240.872,174.945,240.872z M174.944,143.628c-12.319,0-23.902,4.797-32.613,13.508
					c-8.711,8.711-13.509,20.293-13.509,32.613c0,25.432,20.69,46.122,46.122,46.122c12.319,0,23.901-4.797,32.612-13.508
					c8.711-8.711,13.509-20.293,13.509-32.613s-4.798-23.902-13.509-32.613C198.846,148.426,187.264,143.628,174.944,143.628
					L174.944,143.628z"/>
			</g>
		</g>
		<g>
			<g>
				<path d="M163.604,210.255c-0.64,0-1.279-0.244-1.768-0.732l-7.041-7.041c-0.977-0.976-0.977-2.559,0-3.535
					c0.977-0.977,2.559-0.977,3.535,0l7.041,7.041c0.977,0.976,0.977,2.559,0,3.535
					C164.884,210.011,164.244,210.255,163.604,210.255z"/>
			</g>
		</g>
		<g>
			<g>
				<path d="M162.61,255.04c-1.381,0-2.5-1.119-2.5-2.5v-15.415c0-1.381,1.119-2.5,2.5-2.5s2.5,1.119,2.5,2.5v15.415
					C165.11,253.92,163.991,255.04,162.61,255.04z"/>
			</g>
		</g>
		<g>
			<g>
				<path class="st7" d="M184.822,28.33c-4.498-0.838-8.043-4.31-8.898-8.716c-0.043-0.221-0.352-0.221-0.395,0
					c-0.855,4.406-4.4,7.879-8.898,8.716c-0.226,0.042-0.226,0.345,0,0.387c4.498,0.838,8.043,4.31,8.898,8.717
					c0.043,0.221,0.352,0.221,0.395,0c0.855-4.406,4.4-7.879,8.898-8.717C185.047,28.675,185.047,28.373,184.822,28.33z"/>
			</g>
		</g>
		<g>
			<g>
				<path class="st8" d="M183.515,112.101c-2.862-0.533-5.118-2.743-5.663-5.547c-0.027-0.141-0.224-0.141-0.251,0
					c-0.544,2.804-2.8,5.014-5.663,5.547c-0.144,0.027-0.144,0.219,0,0.246c2.862,0.533,5.118,2.743,5.663,5.547
					c0.027,0.141,0.224,0.141,0.251,0c0.544-2.804,2.8-5.014,5.663-5.547C183.658,112.32,183.658,112.128,183.515,112.101z"/>
			</g>
		</g>
		<g>
			<g>
				<path class="st9" d="M44.246,120.75h2.33v-2.33c0-1.744,1.413-3.157,3.157-3.157c1.744,0,3.157,1.413,3.157,3.157v2.33h2.329
					c1.744,0,3.157,1.413,3.157,3.157s-1.413,3.157-3.157,3.157h-2.329v2.33c0,1.744-1.413,3.157-3.157,3.157
					c-1.744,0-3.157-1.413-3.157-3.157v-2.33h-2.33c-1.744,0-3.157-1.413-3.157-3.157S42.502,120.75,44.246,120.75z"/>
			</g>
		</g>
		<g>
			<g>
				<circle class="st6" cx="34.755" cy="152.825" r="3.377"/>
			</g>
		</g>
		<g>
			<g>
				<circle class="st8" cx="158.755" cy="3.377" r="3.377"/>
			</g>
		</g>
		<g>
			<g>
				<path d="M144.97,229.657c-0.64,0-1.279-0.244-1.768-0.732c-0.977-0.976-0.977-2.559,0-3.535l26.09-26.089
					c0.977-0.977,2.559-0.977,3.535,0c0.977,0.976,0.977,2.559,0,3.535l-26.09,26.089
					C146.249,229.413,145.609,229.657,144.97,229.657z"/>
			</g>
		</g>
		<g>
			<g>
				<path d="M137.301,221.77c-0.64,0-1.279-0.244-1.768-0.732c-0.977-0.976-0.977-2.559,0-3.535l25.98-25.98
					c0.977-0.977,2.559-0.977,3.535,0c0.977,0.976,0.977,2.559,0,3.535l-25.98,25.98C138.58,221.526,137.94,221.77,137.301,221.77z"
					/>
			</g>
		</g>
		<g>
			<g>
				<path d="M171.06,203.568c-0.663,0-1.299-0.263-1.768-0.732l-7.778-7.778c-0.639-0.639-0.884-1.572-0.64-2.441l3.631-12.969
					c1.059-3.78,3.937-6.707,7.697-7.828l26.356-7.861l0,0c2.207-0.659,4.48,0.228,5.661,2.207c1.18,1.978,0.877,4.401-0.751,6.029
					l-30.642,30.642C172.358,203.305,171.723,203.568,171.06,203.568z M166.083,192.556l4.977,4.977l28.721-28.721l-26.148,7.799
					c-2.107,0.628-3.719,2.268-4.313,4.385L166.083,192.556z"/>
			</g>
		</g>
		<g>
			<g>
				<path d="M110.524,159.638c-7.789,0-15.347-2.284-21.857-6.604c-1.151-0.763-1.465-2.315-0.701-3.465
					c0.765-1.151,2.317-1.463,3.465-0.701c5.689,3.775,12.291,5.77,19.094,5.77c7.055,0,13.864-2.138,19.693-6.184
					c1.134-0.787,2.692-0.506,3.479,0.628s0.506,2.692-0.628,3.479C126.398,157.191,118.603,159.638,110.524,159.638z"/>
			</g>
		</g>
		<g>
			<g>
				<path d="M84.565,130.583c-1.381,0-2.5-1.119-2.5-2.5v-19.867c0-3.428,2.789-6.216,6.217-6.216h45.567
					c3.428,0,6.216,2.789,6.216,6.216v18.534c0,1.381-1.119,2.5-2.5,2.5s-2.5-1.119-2.5-2.5v-18.534
					c0-0.671-0.546-1.216-1.216-1.216H88.282c-0.671,0-1.217,0.545-1.217,1.216v19.867
					C87.065,129.464,85.946,130.583,84.565,130.583z"/>
			</g>
		</g>
	</g>
</g>
<g id="Layer_10">
</g>
<g id="Layer_11">
</g>
<g id="Layer_12">
</g>
<g id="Layer_13">
</g>
<g id="Layer_14">
</g>
<g id="Layer_15">
</g>
<g id="Layer_16">
</g>
<g id="Layer_17">
</g>
<g id="Layer_18">
</g>
<g id="Layer_19">
</g>
<g id="Layer_20">
</g>
<g id="Layer_21">
</g>
<g id="Layer_22">
</g>
<g id="Layer_23">
</g>
<g id="Layer_24">
</g>
<g id="Layer_25">
</g>
<g id="Layer_26">
</g>
<g id="Layer_27">
</g>
<g id="Layer_28">
</g>
<g id="Layer_29">
</g>
<g id="Layer_30">
</g>
<g id="Layer_31">
</g>
<g id="Layer_32">
</g>
<g id="Layer_33">
</g>
<g id="Layer_34">
</g>
<g id="Layer_35">
</g>
<g id="Layer_36">
</g>
<g id="Layer_37">
</g>
<g id="Layer_38">
</g>
<g id="Layer_39">
</g>
<g id="Layer_40">
</g>
<g id="Layer_41">
</g>
<g id="Layer_42">
</g>
<g id="Layer_43">
</g>
<g id="Layer_44">
</g>
<g id="Layer_45">
</g>
<g id="Layer_46">
</g>
<g id="Layer_47">
</g>
<g id="Layer_48">
</g>
<g id="Layer_49">
</g>
<g id="Layer_50">
</g>
<g id="Layer_51">
</g>
<g id="Layer_52">
</g>
<g id="Layer_53">
</g>
<g id="Layer_54">
</g>
<g id="Layer_55">
</g>
<g id="Layer_56">
</g>
<g id="Layer_57">
</g>
<g id="Layer_58">
</g>
<g id="Layer_59">
</g>
<g id="Layer_60">
</g>
<g id="Layer_61">
</g>
<g id="Layer_62">
</g>
<g id="Layer_63">
</g>
<g id="Layer_64">
</g>
<g id="Layer_65">
</g>
<g id="Layer_66">
</g>
<g id="Layer_67">
</g>
<g id="Layer_68">
</g>
<g id="Layer_69">
</g>
<g id="Layer_70">
</g>
<g id="Layer_71">
</g>
<g id="Layer_72">
</g>
<g id="Layer_73">
</g>
<g id="Layer_74">
</g>
<g id="Layer_75">
</g>
<g id="Layer_76">
</g>
<g id="Layer_77">
</g>
<g id="Layer_78">
</g>
<g id="Layer_79">
</g>
<g id="Layer_80">
</g>
</svg>
