<?xml version="1.0" encoding="utf-8"?>
<!-- Generator: Adobe Illustrator 24.0.0, SVG Export Plug-In . SVG Version: 6.00 Build 0)  -->
<svg version="1.1" xmlns="http://www.w3.org/2000/svg" xmlns:xlink="http://www.w3.org/1999/xlink" x="0px" y="0px"
	 viewBox="0 0 256 256" style="enable-background:new 0 0 256 256;" xml:space="preserve">
<style type="text/css">
	.st0{fill:#3A70BF;}
	.st1{fill:#EDF4FC;}
	.st2{fill:#C7D7E5;}
	.st3{fill:#F9D0B4;}
	.st4{fill:#5B5D60;}
	.st5{fill:#5290DB;}
	.st6{fill:#70D6F9;}
	.st7{fill:#F5C84C;}
	.st8{fill:#FC657E;}
	.st9{fill:#87D147;}
	.st10{fill:#FCDD86;}
	.st11{fill:#9BE5F9;}
	.st12{fill:#B2E26D;}
	.st13{fill:#754E34;}
	.st14{fill:#FCA265;}
	.st15{fill:#818182;}
	.st16{fill:#F94EED;}
	.st17{fill:#FFC197;}
	.st18{fill:#3CAADC;}
	.st19{fill:#DAE6F1;}
	.st20{fill:#57AF12;}
	.st21{fill:#EF4460;}
	.st22{fill:#FFF0CA;}
	.st23{fill:#F98FA6;}
	.st24{fill:#EDB311;}
	.st25{fill:#FC8C48;}
	.st26{fill:#FCB9CB;}
	.st27{fill:#96BC71;}
	.st28{fill:#78A352;}
	.st29{fill:#B8DD90;}
	.st30{fill:#6FAFEF;}
	.st31{fill:#29589F;}
	.st32{fill:#414344;}
	.st33{fill:#9B6B4B;}
	.st34{fill:#73B1EF;}
</style>
<g id="Layer_1">
</g>
<g id="Layer_2">
</g>
<g id="Layer_3">
</g>
<g id="Layer_4">
</g>
<g id="Layer_5">
</g>
<g id="Layer_6">
</g>
<g id="Layer_7">
</g>
<g id="Layer_8">
</g>
<g id="Layer_9">
</g>
<g id="Layer_10">
</g>
<g id="Layer_11">
</g>
<g id="Layer_12">
</g>
<g id="Layer_13">
</g>
<g id="Layer_14">
</g>
<g id="Layer_15">
	<g>
		<g>
			<g>
				<path class="st7" d="M123.813,166.321l-8.157,8.837c-0.936,1.014-2.552,0.97-3.431-0.094l-1.484-1.796
					c3.722,7.08,9.202,14.168,17.259,18.981c8.06-4.813,13.54-11.903,17.262-18.985l-1.487,1.8
					c-0.879,1.064-2.495,1.109-3.431,0.094l-8.157-8.837c-0.758-0.821-0.748-2.089,0.022-2.899l14.884-15.648
					c-1.249-2.003-1.948-4.349-1.948-6.803v-6.335c-5.268,2.868-11.296,4.501-17.686,4.501h0c-5.959,0-11.597-1.427-16.604-3.945
					v5.778c0,2.453-0.699,4.799-1.948,6.803l14.884,15.648C124.562,164.232,124.571,165.5,123.813,166.321z"/>
			</g>
		</g>
		<g>
			<g>
				<path class="st0" d="M202.511,178.239c-0.357-6.417-4.846-11.856-11.078-13.425l-27.924-7.029
					c-2.597,11.953-9.954,33.641-30.143,45.226c-3.308,1.897-7.418,1.9-10.729,0.001c-20.191-11.586-27.548-33.274-30.145-45.227
					l-27.924,7.029c-6.233,1.569-10.721,7.008-11.078,13.425l-4.115,70.951c-0.13,2.34,1.732,4.31,4.076,4.31h149.098
					c2.344,0,4.207-1.969,4.076-4.31L202.511,178.239z"/>
			</g>
		</g>
		<g>
			<g>
				<path class="st16" d="M167.062,73.561c-0.813,0-1.609,0.069-2.388,0.189c0,3.96,0,22.286,0,28.173
					c0,0.839-0.038,1.67-0.094,2.496c0.81,0.13,1.635,0.217,2.482,0.217c8.581,0,15.537-6.956,15.537-15.537
					S175.643,73.561,167.062,73.561z"/>
			</g>
		</g>
		<g>
			<g>
				<path class="st16" d="M90.244,101.923c0-3.856,0-20.507,0-28.173c-0.779-0.121-1.575-0.189-2.388-0.189
					c-8.581,0-15.538,6.957-15.538,15.538s6.956,15.537,15.538,15.537c0.847,0,1.672-0.086,2.482-0.217v-0.001
					C90.282,103.593,90.244,102.762,90.244,101.923z"/>
			</g>
		</g>
		<g>
			<g>
				<path class="st3" d="M139.757,53.198c3.463-1.493,7.382-1.76,10.937-0.502c8.145,2.882,13.979,10.651,13.979,19.782v29.445
					c0,20.468-16.747,37.215-37.215,37.215h0c-20.468,0-37.215-16.747-37.215-37.215V72.478c0-9.132,5.835-16.901,13.979-19.782
					c3.555-1.258,7.474-0.991,10.937,0.502l0,0C123.01,56.582,131.908,56.582,139.757,53.198L139.757,53.198z"/>
			</g>
		</g>
		<g>
			<g>
				<path class="st3" d="M167.062,73.561c-0.813,0-1.609,0.069-2.388,0.189c0,3.96,0,22.286,0,28.173
					c0,0.839-0.038,1.67-0.094,2.496c0.81,0.13,1.635,0.217,2.482,0.217c8.581,0,15.537-6.956,15.537-15.537
					S175.643,73.561,167.062,73.561z"/>
			</g>
		</g>
		<g>
			<g>
				<path class="st3" d="M90.244,101.923c0-3.856,0-20.507,0-28.173c-0.779-0.121-1.575-0.189-2.388-0.189
					c-8.581,0-15.538,6.957-15.538,15.538s6.956,15.537,15.538,15.537c0.847,0,1.672-0.086,2.482-0.217v-0.001
					C90.282,103.593,90.244,102.762,90.244,101.923z"/>
			</g>
		</g>
		<g>
			<g>
				<path class="st13" d="M128,14.383L128,14.383c-26.222,0-47.479,21.257-47.479,47.479v13.539
					c2.185-1.173,4.681-1.841,7.335-1.841c0.813,0,1.609,0.068,2.388,0.189v-1.272c0-9.132,5.835-16.901,13.979-19.782
					c3.555-1.258,7.474-0.991,10.937,0.502c7.85,3.384,16.747,3.384,24.597,0c3.463-1.493,7.382-1.76,10.937-0.502
					c8.145,2.882,13.979,10.651,13.979,19.782l0,1.272c0.779-0.121,1.575-0.189,2.388-0.189c3.105,0,5.99,0.921,8.417,2.49V61.862
					C175.479,35.641,154.222,14.383,128,14.383z"/>
			</g>
		</g>
		<g>
			<g>
				<path class="st5" d="M202.549,253.5c2.344,0,4.207-1.969,4.076-4.31l-4.115-70.951c-0.172-3.083-1.304-5.934-3.118-8.244
					l-16.942,22.108c-1.885,2.46-2.906,5.472-2.906,8.571V253.5H202.549z"/>
			</g>
		</g>
		<g>
			<g>
				<path class="st5" d="M76.455,200.674c0-3.099-1.021-6.111-2.906-8.571l-16.941-22.108c-1.814,2.311-2.947,5.162-3.118,8.244
					l-4.115,70.951c-0.13,2.34,1.732,4.31,4.076,4.31h23.004V200.674z"/>
			</g>
		</g>
		<g>
			<g>
				<path class="st3" d="M124.339,164.5h7.323c0.072-0.393,0.253-0.769,0.547-1.078l14.884-15.648
					c-1.249-2.003-1.948-4.349-1.948-6.803v-6.335c-5.268,2.868-11.296,4.501-17.686,4.501h0c-5.959,0-11.597-1.427-16.604-3.945
					v5.778c0,2.453-0.699,4.799-1.948,6.803l14.884,15.648C124.086,163.731,124.267,164.107,124.339,164.5z"/>
			</g>
		</g>
		<g>
			<g>
				<path class="st5" d="M92.492,157.786c2.597,11.953,9.954,33.641,30.145,45.227c3.311,1.899,7.421,1.896,10.729-0.001
					c20.189-11.585,27.546-33.273,30.143-45.226l-0.978-0.246l-3.296-1.625c-0.047,0.33-0.179,0.651-0.406,0.925l-13.567,16.423
					c-3.722,7.081-9.203,14.172-17.262,18.985c-8.057-4.812-13.537-11.901-17.259-18.981l-13.57-16.427
					c-0.227-0.275-0.358-0.596-0.406-0.925l-3.296,1.625L92.492,157.786z"/>
			</g>
		</g>
		<g>
			<g>
				<path class="st10" d="M158.648,154.265l-8.134-7.427c-0.753-0.687-1.917-0.646-2.619,0.092l-15.687,16.491
					c-0.77,0.81-0.78,2.078-0.022,2.899l8.157,8.837c0.936,1.014,2.552,0.97,3.431-0.094l15.054-18.223
					C159.465,156.071,159.385,154.938,158.648,154.265z"/>
			</g>
		</g>
		<g>
			<g>
				<path class="st10" d="M97.352,154.265l8.134-7.427c0.753-0.687,1.917-0.646,2.619,0.092l15.687,16.491
					c0.77,0.81,0.78,2.078,0.022,2.899l-8.157,8.837c-0.936,1.014-2.552,0.97-3.431-0.094L97.171,156.84
					C96.535,156.071,96.615,154.938,97.352,154.265z"/>
			</g>
		</g>
		<g>
			<g>
				<g>
					<path class="st8" d="M132.187,166.321c-0.469-0.508-0.642-1.186-0.526-1.821l0,0h-7.323l0,0
						c0.116,0.635-0.057,1.314-0.526,1.821l-3.784,4.1l0,0c1.76,2.513,4.67,4.161,7.971,4.161s6.211-1.647,7.971-4.161l0,0
						L132.187,166.321z"/>
				</g>
			</g>
		</g>
		<g>
			<g>
				<g>
					<path class="st21" d="M128,192.248c2.843-1.698,5.359-3.683,7.597-5.848l-2.576-13.225c-1.467,0.886-3.181,1.406-5.021,1.406
						s-3.553-0.519-5.021-1.406l-2.576,13.224C122.641,188.564,125.157,190.55,128,192.248z"/>
				</g>
			</g>
		</g>
		<g>
			<g>
				<path d="M146.722,149.636c-0.884,0-1.741-0.47-2.195-1.301c-1.231-2.251-1.882-4.798-1.882-7.363v-5.68
					c0-1.381,1.119-2.5,2.5-2.5s2.5,1.119,2.5,2.5v5.68c0,1.729,0.438,3.446,1.269,4.964c0.662,1.211,0.218,2.73-0.994,3.393
					C147.538,149.538,147.127,149.636,146.722,149.636z"/>
			</g>
		</g>
		<g>
			<g>
				<path d="M109.269,149.655c-0.407,0-0.819-0.099-1.2-0.309c-1.211-0.664-1.653-2.184-0.989-3.394
					c0.835-1.523,1.276-3.245,1.276-4.98v-5.014c0-1.381,1.119-2.5,2.5-2.5s2.5,1.119,2.5,2.5v5.014
					c0,2.574-0.654,5.127-1.894,7.385C111.008,149.186,110.151,149.655,109.269,149.655z"/>
			</g>
		</g>
		<g>
			<g>
				<path d="M202.549,256H53.451c-1.802,0-3.545-0.751-4.783-2.06c-1.237-1.309-1.89-3.091-1.789-4.889l4.114-70.956
					c0.421-7.545,5.63-13.859,12.964-15.705l27.925-7.028c0.656-0.166,1.354-0.057,1.928,0.3c0.576,0.357,0.981,0.932,1.126,1.594
					c2.5,11.511,9.586,32.48,28.945,43.589c2.539,1.457,5.697,1.457,8.24-0.001c19.359-11.109,26.444-32.078,28.943-43.588
					c0.144-0.662,0.55-1.237,1.126-1.594c0.574-0.357,1.271-0.466,1.928-0.3l27.925,7.028c7.332,1.846,12.541,8.156,12.964,15.705
					l4.114,70.952c0.101,1.803-0.552,3.585-1.789,4.894C206.094,255.249,204.351,256,202.549,256z M90.634,160.832l-25.456,6.407
					c-5.2,1.309-8.895,5.786-9.192,11.14l-4.114,70.957c-0.024,0.434,0.128,0.851,0.43,1.17c0.303,0.319,0.711,0.495,1.15,0.495
					h149.098c0.439,0,0.848-0.176,1.15-0.495c0.302-0.319,0.454-0.736,0.43-1.175l-4.114-70.947c0-0.001,0-0.003,0-0.005
					c-0.298-5.354-3.992-9.831-9.192-11.14l-25.456-6.407c-3.136,12.672-11.083,33.06-30.757,44.349
					c-4.076,2.338-9.142,2.338-13.216,0.001C101.72,193.892,93.771,173.504,90.634,160.832z"/>
			</g>
		</g>
		<g>
			<g>
				<path d="M167.062,107.136c-0.897,0-1.839-0.081-2.879-0.249c-1.274-0.205-2.184-1.348-2.097-2.636
					c0.06-0.892,0.088-1.631,0.088-2.328V73.75c0-1.232,0.898-2.281,2.116-2.47c0.936-0.146,1.868-0.219,2.771-0.219
					c9.946,0,18.038,8.092,18.038,18.038S177.008,107.136,167.062,107.136z M167.174,76.061v25.862c0,0.07,0,0.141-0.001,0.212
					c7.139-0.06,12.927-5.885,12.927-13.037S174.312,76.121,167.174,76.061z"/>
			</g>
		</g>
		<g>
			<g>
				<path d="M87.855,107.136c-9.945,0-18.037-8.092-18.037-18.038s8.092-18.038,18.037-18.038c0.904,0,1.837,0.074,2.772,0.219
					c1.218,0.189,2.116,1.238,2.116,2.47v28.173c0,0.696,0.028,1.436,0.088,2.327c0.087,1.288-0.821,2.43-2.096,2.636
					C89.697,107.054,88.755,107.136,87.855,107.136z M87.744,76.061c-7.138,0.06-12.926,5.885-12.926,13.037
					c0,7.152,5.788,12.978,12.927,13.037c-0.001-0.071-0.001-0.142-0.001-0.212V76.061z"/>
			</g>
		</g>
		<g>
			<g>
				<path d="M128,118.573c-4.775,0-9.262-1.949-11.999-5.215c-0.887-1.058-0.748-2.635,0.31-3.522
					c1.058-0.886,2.633-0.749,3.522,0.31c1.799,2.146,4.852,3.427,8.167,3.427s6.368-1.281,8.167-3.427
					c0.889-1.057,2.464-1.195,3.522-0.309c1.058,0.887,1.196,2.464,0.31,3.522C137.261,116.624,132.775,118.573,128,118.573z"/>
			</g>
		</g>
		<g>
			<g>
				<circle cx="144.789" cy="90.816" r="5"/>
			</g>
		</g>
		<g>
			<g>
				<circle cx="111.211" cy="90.816" r="5"/>
			</g>
		</g>
		<g>
			<g>
				<path d="M127.459,141.638c-21.898,0-39.715-17.816-39.715-39.715V72.478c0-9.931,6.287-18.829,15.646-22.139
					c4.057-1.435,8.588-1.234,12.76,0.563c7.187,3.098,15.431,3.099,22.619,0l0,0c4.172-1.798,8.704-1.998,12.76-0.563
					c9.358,3.311,15.646,12.208,15.646,22.139v29.445C167.174,123.822,149.357,141.638,127.459,141.638z M108.962,54.392
					c-1.339,0-2.656,0.22-3.904,0.661c-7.365,2.605-12.313,9.608-12.313,17.425v29.445c0,19.142,15.573,34.715,34.715,34.715
					s34.715-15.573,34.715-34.715V72.478c0-7.817-4.948-14.82-12.313-17.425c-2.865-1.014-6.103-0.857-9.113,0.441
					c-8.445,3.64-18.132,3.64-26.577,0C112.471,54.761,110.698,54.392,108.962,54.392z"/>
			</g>
		</g>
		<g>
			<g>
				<path d="M167.062,107.136c-0.616,0-1.244-0.038-1.918-0.115c-1.371-0.158-2.355-1.397-2.198-2.769
					c0.156-1.372,1.392-2.352,2.769-2.199c0.482,0.056,0.924,0.083,1.348,0.083c7.189,0,13.038-5.849,13.038-13.038
					s-5.849-13.038-13.038-13.038c-0.442,0-0.897,0.025-1.354,0.074c-1.358,0.154-2.605-0.844-2.754-2.217
					c-0.148-1.373,0.844-2.606,2.217-2.754c0.635-0.069,1.271-0.104,1.892-0.104c9.946,0,18.038,8.092,18.038,18.038
					S177.008,107.136,167.062,107.136z"/>
			</g>
		</g>
		<g>
			<g>
				<path d="M87.855,107.136c-9.945,0-18.037-8.092-18.037-18.038s8.092-18.038,18.037-18.038c0.528,0,1.072,0.025,1.617,0.075
					c1.375,0.126,2.388,1.344,2.261,2.718c-0.126,1.375-1.341,2.38-2.718,2.261c-0.382-0.035-0.769-0.055-1.16-0.055
					c-7.188,0-13.037,5.849-13.037,13.038s5.849,13.038,13.037,13.038c0.394,0,0.796-0.022,1.23-0.069
					c1.385-0.145,2.605,0.847,2.752,2.22c0.147,1.373-0.846,2.605-2.219,2.752C89.005,107.104,88.429,107.136,87.855,107.136z"/>
			</g>
		</g>
		<g>
			<g>
				<path d="M175.479,77.625c-1.381,0-2.5-1.119-2.5-2.5V61.862c0-24.801-20.178-44.979-44.979-44.979S83.021,37.061,83.021,61.862
					V75c0,1.381-1.119,2.5-2.5,2.5s-2.5-1.119-2.5-2.5V61.862c0-27.559,22.421-49.979,49.979-49.979s49.979,22.42,49.979,49.979
					v13.262C177.979,76.505,176.86,77.625,175.479,77.625z"/>
			</g>
		</g>
		<g>
			<g>
				<path d="M153.476,106.014h-9.237c-7.457,0-13.524-6.067-13.524-13.524V86.1c0-5.577,4.538-10.114,10.115-10.114h16.057
					c5.577,0,10.114,4.537,10.114,10.114v6.39C167,99.947,160.933,106.014,153.476,106.014z M140.829,80.986
					c-2.82,0-5.115,2.294-5.115,5.114v6.39c0,4.7,3.824,8.524,8.524,8.524h9.237c4.7,0,8.524-3.824,8.524-8.524V86.1
					c0-2.82-2.294-5.114-5.114-5.114H140.829z"/>
			</g>
		</g>
		<g>
			<g>
				<path d="M111.762,106.014h-9.237C95.067,106.014,89,99.947,89,92.49V86.1c0-5.577,4.537-10.114,10.114-10.114h16.057
					c5.577,0,10.115,4.537,10.115,10.114v6.39C125.286,99.947,119.219,106.014,111.762,106.014z M99.114,80.986
					C96.294,80.986,94,83.28,94,86.1v6.39c0,4.7,3.824,8.524,8.524,8.524h9.237c4.7,0,8.524-3.824,8.524-8.524V86.1
					c0-2.82-2.295-5.114-5.115-5.114H99.114z"/>
			</g>
		</g>
		<g>
			<g>
				<path d="M132.172,89.924h-8.344c-1.381,0-2.5-1.119-2.5-2.5s1.119-2.5,2.5-2.5h8.344c1.381,0,2.5,1.119,2.5,2.5
					S133.553,89.924,132.172,89.924z"/>
			</g>
		</g>
		<g>
			<g>
				<path class="st7" d="M201.822,28.33c-4.498-0.838-8.043-4.31-8.898-8.716c-0.043-0.221-0.352-0.221-0.395,0
					c-0.855,4.406-4.4,7.879-8.898,8.716c-0.226,0.042-0.226,0.345,0,0.387c4.498,0.838,8.043,4.31,8.898,8.717
					c0.043,0.221,0.352,0.221,0.395,0c0.855-4.406,4.4-7.879,8.898-8.717C202.047,28.675,202.047,28.373,201.822,28.33z"/>
			</g>
		</g>
		<g>
			<g>
				<path class="st9" d="M200.515,112.101c-2.862-0.533-5.118-2.743-5.663-5.547c-0.027-0.141-0.224-0.141-0.251,0
					c-0.544,2.804-2.8,5.014-5.663,5.547c-0.144,0.027-0.144,0.219,0,0.246c2.862,0.533,5.118,2.743,5.663,5.547
					c0.027,0.141,0.224,0.141,0.251,0c0.544-2.804,2.8-5.014,5.663-5.547C200.658,112.32,200.658,112.128,200.515,112.101z"/>
			</g>
		</g>
		<g>
			<g>
				<path class="st6" d="M61.246,120.75h2.33v-2.33c0-1.744,1.413-3.157,3.157-3.157c1.744,0,3.157,1.413,3.157,3.157v2.33h2.329
					c1.744,0,3.157,1.413,3.157,3.157s-1.413,3.157-3.157,3.157h-2.329v2.33c0,1.744-1.413,3.157-3.157,3.157
					c-1.744,0-3.157-1.413-3.157-3.157v-2.33h-2.33c-1.744,0-3.157-1.413-3.157-3.157S59.502,120.75,61.246,120.75z"/>
			</g>
		</g>
		<g>
			<g>
				<circle class="st7" cx="51.755" cy="152.825" r="3.377"/>
			</g>
		</g>
		<g>
			<g>
				<circle class="st8" cx="175.755" cy="3.377" r="3.377"/>
			</g>
		</g>
		<g>
			<g>
				<path d="M179.545,254.958c-1.381,0-2.5-1.119-2.5-2.5v-51.784c0-3.628,1.215-7.212,3.422-10.092l16.792-21.913
					c0.84-1.096,2.409-1.304,3.505-0.464s1.304,2.409,0.464,3.505l-16.792,21.913c-1.542,2.012-2.391,4.516-2.391,7.051v51.784
					C182.045,253.839,180.926,254.958,179.545,254.958z"/>
			</g>
		</g>
		<g>
			<g>
				<path d="M76.455,255.042c-1.381,0-2.5-1.119-2.5-2.5v-51.869c0-2.535-0.849-5.039-2.391-7.051l-16.531-21.572
					c-0.84-1.096-0.632-2.665,0.464-3.505c1.095-0.84,2.665-0.632,3.505,0.464l16.531,21.572c2.207,2.88,3.422,6.464,3.422,10.092
					v51.869C78.955,253.923,77.836,255.042,76.455,255.042z"/>
			</g>
		</g>
		<g>
			<g>
				<path d="M128,194.748c-0.443,0-0.887-0.118-1.282-0.354c-7.37-4.402-13.445-11.035-18.059-19.715
					c-0.647-1.219-0.185-2.733,1.035-3.381c1.217-0.648,2.732-0.185,3.381,1.034c3.903,7.347,8.92,13.048,14.925,16.968
					c5.985-3.907,10.989-9.583,14.887-16.894c0.65-1.219,2.168-1.678,3.382-1.03c1.219,0.649,1.68,2.164,1.03,3.382
					c-4.607,8.641-10.669,15.247-18.018,19.635C128.887,194.63,128.443,194.748,128,194.748z"/>
			</g>
		</g>
		<g>
			<g>
				<path d="M128,206.934c-2.285,0-4.569-0.584-6.607-1.752c-21.035-12.071-28.667-34.544-31.344-46.865
					c-0.286-1.318,0.525-2.626,1.833-2.955l0.72-0.181l2.636-1.3c1.238-0.61,2.737-0.102,3.348,1.136s0.102,2.737-1.137,3.348
					l-2.026,1c2.884,11.817,10.23,31.02,28.459,41.48c2.539,1.457,5.697,1.457,8.24-0.001c18.229-10.46,25.575-29.663,28.457-41.479
					l-1.904-0.939c-1.238-0.61-1.747-2.109-1.137-3.348s2.109-1.748,3.348-1.137l2.515,1.24l0.72,0.181
					c1.308,0.33,2.118,1.637,1.832,2.955c-2.676,12.321-10.306,34.793-31.342,46.864C132.571,206.349,130.285,206.934,128,206.934z"
					/>
			</g>
		</g>
		<g>
			<g>
				<path d="M142.019,178.391c-1.332,0-2.605-0.556-3.512-1.538l-8.157-8.836c-1.646-1.783-1.625-4.558,0.046-6.317l15.688-16.493
					c1.628-1.712,4.37-1.807,6.116-0.216l8.134,7.427c1.724,1.573,1.909,4.215,0.422,6.014l-15.053,18.223
					c-0.879,1.063-2.174,1.695-3.553,1.733C142.106,178.391,142.063,178.391,142.019,178.391z M134.265,164.887l7.744,8.39
					l14.513-17.568l-7.238-6.609L134.265,164.887z M156.962,156.111C156.963,156.111,156.963,156.111,156.962,156.111
					L156.962,156.111L156.962,156.111z"/>
			</g>
		</g>
		<g>
			<g>
				<path d="M113.981,178.391c-0.044,0-0.088,0-0.132-0.002c-1.379-0.038-2.674-0.67-3.553-1.734l-15.054-18.223
					c-1.486-1.798-1.301-4.44,0.423-6.013l8.134-7.427c1.745-1.592,4.488-1.496,6.116,0.216l15.688,16.491
					c1.672,1.76,1.692,4.535,0.047,6.318l-8.157,8.837C116.587,177.835,115.313,178.391,113.981,178.391z M99.479,155.708
					l14.513,17.568l7.744-8.39l-15.019-15.788L99.479,155.708z M99.038,156.111L99.038,156.111L99.038,156.111
					C99.037,156.111,99.037,156.111,99.038,156.111z M97.352,154.265h0.01H97.352z"/>
			</g>
		</g>
		<g>
			<g>
				<g>
					<path d="M130.917,167h-5.792c-1.381,0-2.5-1.119-2.5-2.5s1.119-2.5,2.5-2.5h5.792c1.381,0,2.5,1.119,2.5,2.5
						S132.298,167,130.917,167z"/>
				</g>
			</g>
			<g>
				<g>
					<path d="M128,177.081c-3.643,0-7.07-1.611-9.403-4.421c-0.883-1.062-0.736-2.638,0.325-3.52
						c1.063-0.882,2.639-0.737,3.521,0.326c1.381,1.662,3.406,2.615,5.558,2.615s4.178-0.954,5.559-2.616
						c0.883-1.063,2.461-1.207,3.521-0.326c1.062,0.882,1.208,2.458,0.325,3.52C135.07,175.47,131.643,177.081,128,177.081z"/>
				</g>
			</g>
		</g>
		<g>
			<g>
				<g>
					<path d="M135.476,188.296c-1.172,0-2.219-0.829-2.451-2.022l-2.328-11.957c-0.264-1.355,0.621-2.668,1.977-2.932
						c1.354-0.263,2.668,0.621,2.932,1.976l2.328,11.957c0.264,1.355-0.621,2.668-1.977,2.932
						C135.795,188.281,135.634,188.296,135.476,188.296z"/>
				</g>
			</g>
			<g>
				<g>
					<path d="M120.524,188.296c-0.158,0-0.319-0.015-0.48-0.046c-1.355-0.264-2.24-1.577-1.977-2.932l2.322-11.927
						c0.264-1.354,1.576-2.239,2.932-1.976c1.355,0.264,2.24,1.577,1.977,2.932l-2.322,11.927
						C122.743,187.467,121.696,188.296,120.524,188.296z"/>
				</g>
			</g>
		</g>
	</g>
</g>
<g id="Layer_16">
</g>
<g id="Layer_17">
</g>
<g id="Layer_18">
</g>
<g id="Layer_19">
</g>
<g id="Layer_20">
</g>
<g id="Layer_21">
</g>
<g id="Layer_22">
</g>
<g id="Layer_23">
</g>
<g id="Layer_24">
</g>
<g id="Layer_25">
</g>
<g id="Layer_26">
</g>
<g id="Layer_27">
</g>
<g id="Layer_28">
</g>
<g id="Layer_29">
</g>
<g id="Layer_30">
</g>
<g id="Layer_31">
</g>
<g id="Layer_32">
</g>
<g id="Layer_33">
</g>
<g id="Layer_34">
</g>
<g id="Layer_35">
</g>
<g id="Layer_36">
</g>
<g id="Layer_37">
</g>
<g id="Layer_38">
</g>
<g id="Layer_39">
</g>
<g id="Layer_40">
</g>
<g id="Layer_41">
</g>
<g id="Layer_42">
</g>
<g id="Layer_43">
</g>
<g id="Layer_44">
</g>
<g id="Layer_45">
</g>
<g id="Layer_46">
</g>
<g id="Layer_47">
</g>
<g id="Layer_48">
</g>
<g id="Layer_49">
</g>
<g id="Layer_50">
</g>
<g id="Layer_51">
</g>
<g id="Layer_52">
</g>
<g id="Layer_53">
</g>
<g id="Layer_54">
</g>
<g id="Layer_55">
</g>
<g id="Layer_56">
</g>
<g id="Layer_57">
</g>
<g id="Layer_58">
</g>
<g id="Layer_59">
</g>
<g id="Layer_60">
</g>
<g id="Layer_61">
</g>
<g id="Layer_62">
</g>
<g id="Layer_63">
</g>
<g id="Layer_64">
</g>
<g id="Layer_65">
</g>
<g id="Layer_66">
</g>
<g id="Layer_67">
</g>
<g id="Layer_68">
</g>
<g id="Layer_69">
</g>
<g id="Layer_70">
</g>
<g id="Layer_71">
</g>
<g id="Layer_72">
</g>
<g id="Layer_73">
</g>
<g id="Layer_74">
</g>
<g id="Layer_75">
</g>
<g id="Layer_76">
</g>
<g id="Layer_77">
</g>
<g id="Layer_78">
</g>
<g id="Layer_79">
</g>
<g id="Layer_80">
</g>
</svg>
