<?xml version="1.0" encoding="utf-8"?>
<!-- Generator: Adobe Illustrator 24.0.0, SVG Export Plug-In . SVG Version: 6.00 Build 0)  -->
<svg version="1.1" xmlns="http://www.w3.org/2000/svg" xmlns:xlink="http://www.w3.org/1999/xlink" x="0px" y="0px"
	 viewBox="0 0 256 256" style="enable-background:new 0 0 256 256;" xml:space="preserve">
<style type="text/css">
	.st0{fill:#3A70BF;}
	.st1{fill:#EDF4FC;}
	.st2{fill:#C7D7E5;}
	.st3{fill:#F9D0B4;}
	.st4{fill:#5B5D60;}
	.st5{fill:#5290DB;}
	.st6{fill:#70D6F9;}
	.st7{fill:#F5C84C;}
	.st8{fill:#FC657E;}
	.st9{fill:#87D147;}
	.st10{fill:#FCDD86;}
	.st11{fill:#9BE5F9;}
	.st12{fill:#B2E26D;}
	.st13{fill:#754E34;}
	.st14{fill:#FCA265;}
	.st15{fill:#818182;}
	.st16{fill:#F94EED;}
	.st17{fill:#FFC197;}
	.st18{fill:#3CAADC;}
	.st19{fill:#DAE6F1;}
	.st20{fill:#57AF12;}
	.st21{fill:#EF4460;}
	.st22{fill:#FFF0CA;}
	.st23{fill:#F98FA6;}
	.st24{fill:#EDB311;}
	.st25{fill:#FC8C48;}
	.st26{fill:#FCB9CB;}
	.st27{fill:#96BC71;}
	.st28{fill:#78A352;}
	.st29{fill:#B8DD90;}
	.st30{fill:#6FAFEF;}
	.st31{fill:#29589F;}
	.st32{fill:#414344;}
	.st33{fill:#9B6B4B;}
	.st34{fill:#73B1EF;}
</style>
<g id="Layer_1">
</g>
<g id="Layer_2">
</g>
<g id="Layer_3">
</g>
<g id="Layer_4">
</g>
<g id="Layer_5">
</g>
<g id="Layer_6">
</g>
<g id="Layer_7">
</g>
<g id="Layer_8">
</g>
<g id="Layer_9">
</g>
<g id="Layer_10">
</g>
<g id="Layer_11">
</g>
<g id="Layer_12">
</g>
<g id="Layer_13">
</g>
<g id="Layer_14">
</g>
<g id="Layer_15">
</g>
<g id="Layer_16">
	<g>
		<g>
			<g>
				<path class="st13" d="M185.633,128.268c-6.1-11.129-9.132-22.635-10.64-31.327c-2.606,2.501-6.136,4.046-10.032,4.046
					c-0.79,0-1.56-0.08-2.316-0.202c-0.816,12.152-7.945,22.647-18.124,28.194v10.533c0,2.163,0.742,4.201,2.012,5.853l1.364-1.434
					c0.702-0.738,1.866-0.779,2.619-0.092l1.974,1.803c17.587-2.815,27.339-8.197,31.841-11.451
					C186.205,132.834,186.745,130.297,185.633,128.268z"/>
			</g>
		</g>
		<g>
			<g>
				<path class="st13" d="M105.486,143.838c0.753-0.687,1.917-0.646,2.619,0.092l1.364,1.434c1.27-1.652,2.012-3.689,2.012-5.853
					v-10.533c-10.179-5.548-17.308-16.042-18.124-28.194c-0.756,0.122-1.526,0.202-2.316,0.202c-3.897,0-7.427-1.545-10.032-4.046
					c-1.508,8.692-4.54,20.198-10.64,31.327c-1.112,2.029-0.572,4.566,1.303,5.922c4.502,3.255,14.253,8.637,31.841,11.451
					L105.486,143.838z"/>
			</g>
		</g>
		<g>
			<g>
				<path class="st3" d="M164.96,71.985c-0.759,0-1.502,0.064-2.229,0.177c0,3.696,0,20.799,0,26.293v0v0
					c0,0.783-0.036,1.558-0.088,2.329c0.756,0.122,1.526,0.202,2.316,0.202c8.009,0,14.501-6.492,14.501-14.501
					C179.461,78.477,172.969,71.985,164.96,71.985z"/>
			</g>
		</g>
		<g>
			<g>
				<path class="st3" d="M144.613,60.642c-5.29,6.174-24.047,24.906-51.344,17.13v20.684c0,19.102,15.629,34.732,34.732,34.732l0,0
					c19.102,0,34.732-15.629,34.732-34.732v-28.06c0-1.276-0.893-2.358-2.136-2.646c-3.515-0.814-7.782-2.85-12.673-7.294
					C146.955,59.577,145.463,59.649,144.613,60.642z"/>
			</g>
		</g>
		<g>
			<g>
				<path class="st3" d="M93.268,77.771c-2.385-0.679-4.834-1.559-7.346-2.668c-1.619-0.715-3.511-0.386-4.803,0.825
					c-2.817,2.641-4.581,6.39-4.581,10.557c0,8.008,6.492,14.501,14.501,14.501c0.79,0,1.56-0.08,2.316-0.202
					c-0.052-0.771-0.088-1.546-0.088-2.329V77.771z"/>
			</g>
		</g>
		<g>
			<g>
				<g>
					<path class="st13" d="M81.12,75.929c1.291-1.211,3.183-1.54,4.803-0.825c2.512,1.109,4.961,1.988,7.346,2.668
						c27.297,7.776,46.055-10.956,51.344-17.13c0.85-0.992,2.342-1.065,3.309-0.186c4.892,4.445,9.159,6.48,12.673,7.294
						c1.243,0.288,2.136,1.37,2.136,2.646v1.766c0.727-0.113,1.47-0.177,2.229-0.177c4.012,0,7.643,1.63,10.268,4.263v-8.494
						c0-25.976-21.253-47.229-47.229-47.229c-25.976,0-47.229,21.253-47.229,47.229v8.535C80.889,76.171,80.998,76.043,81.12,75.929
						z"/>
				</g>
			</g>
		</g>
		<g>
			<g>
				<path class="st0" d="M200.078,173.902c-0.347-6.223-4.699-11.497-10.743-13.019l-24.833-6.269
					c-0.6-0.151-1.193-0.326-1.782-0.513c-3.182,12.323-10.917,31.329-29.354,41.909c-3.309,1.898-7.42,1.899-10.729,0
					c-18.438-10.58-26.173-29.587-29.355-41.91c-0.589,0.187-1.182,0.362-1.782,0.513l-24.833,6.269
					c-6.044,1.521-10.396,6.796-10.743,13.019l-2.744,75.418c-0.127,2.269,1.68,4.179,3.953,4.179h21.99
					c1.478,0,2.677-1.198,2.677-2.677v-47.143l3.883,12.439c2.539,8.133,3.83,16.604,3.83,25.124v9.58
					c0,1.478,1.198,2.677,2.677,2.677h30.345h10.936h30.345c1.478,0,2.677-1.198,2.677-2.677v-9.58c0-8.52,1.291-16.991,3.83-25.124
					l3.883-12.439v47.143c0,1.478,1.198,2.677,2.677,2.677h21.99c2.273,0,4.079-1.91,3.953-4.179L200.078,173.902z"/>
			</g>
		</g>
		<g>
			<g>
				<path class="st5" d="M159.248,152.743c-0.02,0.389-0.153,0.775-0.419,1.097l-15.054,18.224c-0.628,0.761-1.631,0.99-2.495,0.695
					c-3.379,4.746-7.711,9.164-13.281,12.49c-5.569-3.326-9.9-7.744-13.279-12.49c-0.864,0.296-1.867,0.067-2.496-0.694
					L97.171,153.84c-0.266-0.322-0.399-0.708-0.419-1.097c-1.131,0.518-2.286,0.983-3.471,1.36
					c3.182,12.323,10.917,31.33,29.355,41.91c3.31,1.898,7.421,1.898,10.729,0c18.438-10.58,26.173-29.586,29.354-41.909
					C161.534,153.726,160.38,153.261,159.248,152.743z"/>
			</g>
		</g>
		<g>
			<g>
				<path class="st10" d="M158.648,151.265l-8.134-7.427c-0.753-0.687-1.917-0.646-2.619,0.092l-15.687,16.491
					c-0.77,0.81-0.78,2.078-0.022,2.899l8.157,8.837c0.936,1.014,2.552,0.97,3.431-0.094l15.054-18.223
					C159.465,153.071,159.385,151.938,158.648,151.265z"/>
			</g>
		</g>
		<g>
			<g>
				<path class="st10" d="M97.352,151.265l8.134-7.427c0.753-0.687,1.917-0.646,2.619,0.092l15.687,16.491
					c0.77,0.81,0.78,2.078,0.022,2.899l-8.157,8.837c-0.936,1.014-2.552,0.97-3.431-0.094L97.171,153.84
					C96.535,153.071,96.615,151.938,97.352,151.265z"/>
			</g>
		</g>
		<g>
			<g>
				<path class="st7" d="M140.344,172.158l-8.157-8.837c-0.758-0.821-0.748-2.089,0.022-2.899l14.317-15.051
					c-1.267-1.655-2.005-3.696-2.005-5.86v-10.533c-4.92,2.682-10.551,4.208-16.52,4.208c-5.97,0-11.6-1.526-16.52-4.208v10.533
					c0,2.163-0.738,4.205-2.005,5.86l14.317,15.051c0.77,0.81,0.78,2.078,0.022,2.899l-8.157,8.837
					c-0.267,0.289-0.591,0.482-0.935,0.6c3.379,4.746,7.71,9.164,13.279,12.49c5.57-3.326,9.901-7.743,13.281-12.49
					C140.936,172.64,140.611,172.447,140.344,172.158z"/>
			</g>
		</g>
		<g>
			<g>
				<path class="st3" d="M146.525,145.371c-1.267-1.655-2.005-3.696-2.005-5.86v-10.533c-4.92,2.682-10.551,4.208-16.52,4.208
					c-5.97,0-11.6-1.526-16.52-4.208v10.533c0,2.163-0.738,4.205-2.005,5.86l14.317,15.051c0.77,0.81,0.78,2.078,0.022,2.899
					l-0.165,0.179h8.704l-0.165-0.179c-0.758-0.821-0.748-2.089,0.022-2.899L146.525,145.371z"/>
			</g>
		</g>
		<g>
			<g>
				<path d="M152.877,148.078c-1.204,0-2.264-0.871-2.464-2.098c-0.223-1.363,0.702-2.647,2.064-2.87
					c17.135-2.798,26.394-8.06,30.387-10.947c0.838-0.606,1.085-1.764,0.576-2.694c-5.065-9.24-8.689-19.779-10.773-31.322
					c-0.245-1.358,0.658-2.659,2.017-2.904c1.355-0.246,2.659,0.657,2.904,2.017c1.987,11.012,5.431,21.04,10.237,29.807
					c1.719,3.136,0.846,7.07-2.031,9.149c-4.352,3.146-14.361,8.866-32.511,11.83C153.147,148.067,153.011,148.078,152.877,148.078z
					"/>
			</g>
		</g>
		<g>
			<g>
				<path d="M103.041,148.065c-0.134,0-0.271-0.011-0.407-0.033c-18.102-2.968-28.087-8.677-32.428-11.816
					c-2.876-2.08-3.75-6.013-2.03-9.149c6.078-11.089,8.968-22.591,10.322-30.287c0.24-1.36,1.538-2.263,2.896-2.029
					c1.36,0.24,2.269,1.536,2.029,2.896c-1.42,8.067-4.457,20.137-10.862,31.824c-0.51,0.93-0.263,2.088,0.575,2.694
					c3.984,2.881,13.219,8.132,30.307,10.934c1.363,0.224,2.286,1.509,2.063,2.872C105.304,147.194,104.244,148.065,103.041,148.065
					z"/>
			</g>
		</g>
		<g>
			<g>
				<path d="M164.96,103.487c-0.483,0-0.969-0.024-1.485-0.074c-1.375-0.132-2.381-1.354-2.249-2.728
					c0.132-1.374,1.348-2.378,2.728-2.249c0.332,0.032,0.667,0.051,1.006,0.051c6.617,0,12.001-5.384,12.001-12.001
					s-5.384-12-12.001-12c-0.405,0-0.823,0.023-1.241,0.068c-1.383,0.148-2.605-0.846-2.753-2.219
					c-0.147-1.373,0.846-2.605,2.219-2.753c10.16-1.09,18.776,6.947,18.776,16.904C181.961,95.86,174.335,103.487,164.96,103.487z"
					/>
			</g>
		</g>
		<g>
			<g>
				<path d="M128,135.687c-20.53,0-37.232-16.702-37.232-37.232V77.771c0-0.784,0.368-1.523,0.994-1.995
					c0.626-0.473,1.437-0.625,2.191-0.409c25.917,7.385,43.875-10.649,48.761-16.352c0.849-0.991,2.032-1.581,3.333-1.662
					c1.298-0.083,2.591,0.375,3.556,1.252c3.952,3.59,7.84,5.848,11.557,6.709c2.397,0.556,4.072,2.645,4.072,5.081v28.06
					C165.231,118.985,148.529,135.687,128,135.687z M95.768,80.979v17.476c0,17.773,14.459,32.232,32.232,32.232
					c17.772,0,32.231-14.459,32.231-32.232v-28.06c0-0.113-0.101-0.187-0.201-0.21c-4.514-1.046-9.108-3.656-13.656-7.758
					C141.017,68.626,122.582,86.858,95.768,80.979z M144.613,60.642h0.01H144.613z"/>
			</g>
		</g>
		<g>
			<g>
				<path d="M91.04,103.487c-9.374,0-17-7.626-17-17.001c0-4.668,1.958-9.181,5.371-12.381c2.031-1.904,4.982-2.408,7.523-1.288
					c2.331,1.029,4.693,1.888,7.02,2.55c1.328,0.378,2.098,1.761,1.72,3.089c-0.378,1.329-1.765,2.099-3.089,1.72
					c-2.548-0.726-5.129-1.663-7.671-2.785c-0.701-0.31-1.52-0.168-2.083,0.361c-2.444,2.292-3.791,5.394-3.791,8.733
					c0,6.617,5.383,12.001,12,12.001c0.374,0,0.761-0.023,1.184-0.07c1.377-0.151,2.608,0.837,2.761,2.209
					c0.152,1.373-0.837,2.608-2.209,2.761C92.167,103.454,91.6,103.487,91.04,103.487z"/>
			</g>
		</g>
		<g>
			<g>
				<g>
					<path d="M80.771,78.441c-1.381,0-2.5-1.119-2.5-2.5v-8.186c0-27.421,22.308-49.729,49.729-49.729s49.729,22.308,49.729,49.729
						v7.87c0,1.381-1.119,2.5-2.5,2.5s-2.5-1.119-2.5-2.5v-7.87c0-24.664-20.065-44.729-44.729-44.729S83.271,43.091,83.271,67.755
						v8.186C83.271,77.322,82.152,78.441,80.771,78.441z"/>
				</g>
			</g>
		</g>
		<g>
			<g>
				<path d="M198.869,256H176.88c-2.854,0-5.177-2.322-5.177-5.177v-30.476c-1.802,6.816-2.713,13.829-2.713,20.896v9.58
					c0,2.854-2.322,5.177-5.177,5.177H92.187c-2.854,0-5.177-2.322-5.177-5.177v-9.58c0-7.066-0.912-14.079-2.713-20.896v30.476
					c0,2.854-2.322,5.177-5.176,5.177h-21.99c-1.768,0-3.478-0.736-4.693-2.021c-1.214-1.284-1.855-3.033-1.756-4.797l2.742-75.37
					c0.412-7.403,5.487-13.554,12.631-15.352l24.832-6.268c0.488-0.123,0.968-0.263,1.446-0.411c1.316-0.411,2.719,0.324,3.13,1.643
					c0.411,1.318-0.325,2.72-1.643,3.13c-0.566,0.177-1.136,0.342-1.712,0.486l-24.83,6.268c-5.012,1.262-8.571,5.575-8.859,10.734
					l-2.742,75.37c-0.033,0.594,0.233,0.961,0.395,1.132c0.161,0.17,0.513,0.457,1.06,0.457h21.99c0.097,0,0.176-0.079,0.176-0.177
					v-47.143c0-1.235,0.902-2.285,2.123-2.472c1.219-0.184,2.395,0.548,2.763,1.727l3.883,12.438
					c2.617,8.384,3.944,17.087,3.944,25.87v9.58c0,0.098,0.079,0.177,0.177,0.177h71.626c0.098,0,0.177-0.079,0.177-0.177v-9.58
					c0-8.783,1.327-17.487,3.944-25.87l3.883-12.438c0.368-1.18,1.544-1.908,2.763-1.727c1.221,0.187,2.123,1.236,2.123,2.472
					v47.143c0,0.098,0.079,0.177,0.177,0.177h21.989c0.547,0,0.899-0.286,1.06-0.457c0.162-0.17,0.427-0.538,0.397-1.083
					l-2.747-75.467c-0.285-5.11-3.844-9.424-8.854-10.685l-24.835-6.269c-0.571-0.144-1.138-0.307-1.701-0.483
					c-1.318-0.41-2.054-1.812-1.644-3.13c0.411-1.318,1.815-2.052,3.13-1.644c0.475,0.147,0.954,0.287,1.437,0.408l24.835,6.269
					c7.142,1.798,12.217,7.948,12.627,15.303l2.747,75.467c0.096,1.716-0.544,3.465-1.759,4.749
					C202.347,255.264,200.637,256,198.869,256z"/>
			</g>
		</g>
		<g>
			<g>
				<path d="M128,117.757c-4.776,0-9.262-1.95-11.999-5.215c-0.887-1.058-0.748-2.635,0.31-3.522c1.06-0.887,2.636-0.747,3.522,0.31
					c1.798,2.146,4.852,3.427,8.167,3.427s6.369-1.281,8.167-3.427c0.887-1.058,2.464-1.197,3.522-0.31
					c1.058,0.887,1.197,2.464,0.31,3.522C137.262,115.808,132.776,117.757,128,117.757z"/>
			</g>
		</g>
		<g>
			<g>
				<circle cx="143.111" cy="90.5" r="4.5"/>
			</g>
		</g>
		<g>
			<g>
				<circle cx="112.889" cy="90.5" r="4.5"/>
			</g>
		</g>
		<g>
			<g>
				<path d="M151.767,106.182h-8.617c-7.049,0-12.785-5.735-12.785-12.785v-5.961c0-5.295,4.308-9.604,9.604-9.604h14.979
					c5.296,0,9.604,4.308,9.604,9.604v5.961C164.552,100.447,158.816,106.182,151.767,106.182z M139.968,82.833
					c-2.539,0-4.604,2.065-4.604,4.604v5.961c0,4.293,3.492,7.785,7.785,7.785h8.617c4.293,0,7.785-3.492,7.785-7.785v-5.961
					c0-2.539-2.065-4.604-4.604-4.604H139.968z"/>
			</g>
		</g>
		<g>
			<g>
				<path d="M112.851,106.182h-8.617c-7.05,0-12.785-5.735-12.785-12.785v-5.961c0-5.295,4.308-9.604,9.604-9.604h14.979
					c5.295,0,9.604,4.308,9.604,9.604v5.961C125.635,100.447,119.9,106.182,112.851,106.182z M101.052,82.833
					c-2.539,0-4.604,2.065-4.604,4.604v5.961c0,4.293,3.492,7.785,7.785,7.785h8.617c4.292,0,7.785-3.492,7.785-7.785v-5.961
					c0-2.539-2.065-4.604-4.604-4.604H101.052z"/>
			</g>
		</g>
		<g>
			<g>
				<path d="M132.171,89.924h-8.343c-1.381,0-2.5-1.119-2.5-2.5s1.119-2.5,2.5-2.5h8.343c1.381,0,2.5,1.119,2.5,2.5
					S133.552,89.924,132.171,89.924z"/>
			</g>
		</g>
		<g>
			<g>
				<path class="st8" d="M61.822,125.33c-4.498-0.838-8.043-4.31-8.898-8.716c-0.043-0.221-0.352-0.221-0.395,0
					c-0.855,4.406-4.4,7.879-8.898,8.716c-0.226,0.042-0.226,0.345,0,0.387c4.498,0.838,8.043,4.31,8.898,8.717
					c0.043,0.221,0.352,0.221,0.395,0c0.855-4.406,4.4-7.879,8.898-8.717C62.047,125.675,62.047,125.373,61.822,125.33z"/>
			</g>
		</g>
		<g>
			<g>
				<path class="st7" d="M206.515,112.101c-2.862-0.533-5.118-2.743-5.663-5.547c-0.027-0.141-0.224-0.141-0.251,0
					c-0.544,2.804-2.8,5.014-5.663,5.547c-0.144,0.027-0.144,0.219,0,0.246c2.862,0.533,5.118,2.743,5.663,5.547
					c0.027,0.141,0.224,0.141,0.251,0c0.544-2.804,2.8-5.014,5.663-5.547C206.658,112.32,206.658,112.128,206.515,112.101z"/>
			</g>
		</g>
		<g>
			<g>
				<path class="st6" d="M189.246,25.75h2.33v-2.33c0-1.744,1.413-3.157,3.157-3.157s3.157,1.413,3.157,3.157v2.33h2.329
					c1.744,0,3.157,1.413,3.157,3.157s-1.413,3.157-3.157,3.157h-2.329v2.33c0,1.744-1.413,3.157-3.157,3.157
					s-3.157-1.413-3.157-3.157v-2.33h-2.33c-1.744,0-3.157-1.413-3.157-3.157S187.502,25.75,189.246,25.75z"/>
			</g>
		</g>
		<g>
			<g>
				<circle class="st6" cx="40.755" cy="154.825" r="3.377"/>
			</g>
		</g>
		<g>
			<g>
				<circle class="st9" cx="181.755" cy="3.377" r="3.377"/>
			</g>
		</g>
		<g>
			<g>
				<path d="M128,199.934c-2.285,0-4.57-0.584-6.608-1.753c-18.738-10.752-26.946-29.564-30.532-43.453
					c-0.332-1.285,0.398-2.605,1.663-3.007c1.011-0.321,2.053-0.73,3.188-1.25c0.752-0.345,1.628-0.295,2.337,0.135
					c0.648,0.393,1.08,1.057,1.181,1.8l14.823,17.944c1.009-0.28,2.094,0.098,2.707,0.959c3.224,4.528,7,8.22,11.242,10.992
					c4.243-2.772,8.02-6.464,11.244-10.992c0.613-0.861,1.697-1.238,2.705-0.959l14.823-17.944c0.102-0.744,0.533-1.407,1.181-1.8
					c0.709-0.429,1.584-0.479,2.337-0.135c1.134,0.52,2.177,0.929,3.188,1.25c1.265,0.402,1.995,1.722,1.663,3.007
					c-3.585,13.888-11.792,32.7-30.53,43.453C132.571,199.349,130.285,199.934,128,199.934z M96.776,157.287
					c3.804,12.412,11.514,27.611,27.104,36.557c2.542,1.457,5.699,1.458,8.242,0c15.59-8.946,23.299-24.146,27.103-36.557
					l-13.522,16.369c-0.816,0.988-1.99,1.583-3.227,1.702c-3.772,5.013-8.206,9.058-13.194,12.037c-0.79,0.472-1.774,0.471-2.564,0
					c-4.987-2.979-9.419-7.024-13.191-12.037c-1.237-0.119-2.413-0.713-3.229-1.702L96.776,157.287z"/>
			</g>
		</g>
		<g>
			<g>
				<path d="M142.018,175.391c-1.332,0-2.605-0.556-3.511-1.538l-8.157-8.836c-1.646-1.783-1.626-4.558,0.046-6.318l15.688-16.492
					c1.627-1.711,4.372-1.808,6.116-0.216l8.134,7.427h0c1.723,1.574,1.908,4.215,0.421,6.014l-15.053,18.223
					c-0.879,1.064-2.174,1.696-3.553,1.733C142.105,175.391,142.062,175.391,142.018,175.391z M134.265,161.887l7.744,8.39
					l14.512-17.568l-7.238-6.609L134.265,161.887z M156.96,153.109c0.001,0,0.001,0.001,0.002,0.002L156.96,153.109z"/>
			</g>
		</g>
		<g>
			<g>
				<path d="M113.982,175.391c-0.044,0-0.087,0-0.131-0.002c-1.379-0.038-2.674-0.669-3.553-1.733l-15.054-18.224
					c-1.486-1.798-1.301-4.439,0.422-6.013h0l8.134-7.427c1.745-1.592,4.489-1.497,6.116,0.216l15.687,16.491
					c1.673,1.76,1.693,4.535,0.047,6.318l-8.157,8.836C116.587,174.835,115.313,175.391,113.982,175.391z M99.479,152.708
					l14.512,17.568l7.744-8.39l-15.018-15.788L99.479,152.708z M99.038,153.111c0-0.001,0.001-0.001,0.002-0.002L99.038,153.111
					L99.038,153.111z"/>
			</g>
		</g>
		<g>
			<g>
				<path d="M109.687,147.582c-0.5,0-1.006-0.149-1.445-0.461c-1.126-0.799-1.391-2.36-0.592-3.486
					c0.871-1.227,1.331-2.652,1.331-4.123v-9.887c0-1.381,1.119-2.5,2.5-2.5s2.5,1.119,2.5,2.5v9.887
					c0,2.513-0.779,4.94-2.252,7.017C111.24,147.215,110.469,147.582,109.687,147.582z"/>
			</g>
		</g>
		<g>
			<g>
				<path d="M146.334,147.611c-0.78,0-1.548-0.363-2.036-1.046c-1.491-2.085-2.279-4.524-2.279-7.054v-9.887
					c0-1.381,1.119-2.5,2.5-2.5s2.5,1.119,2.5,2.5v9.887c0,1.48,0.465,2.914,1.346,4.146c0.803,1.124,0.543,2.685-0.58,3.488
					C147.346,147.46,146.838,147.611,146.334,147.611z"/>
			</g>
		</g>
		<g>
			<g>
				<path d="M128,187.748c-0.444,0-0.887-0.118-1.282-0.354c-5.249-3.136-9.886-7.455-13.782-12.837
					c-0.81-1.118-0.56-2.681,0.559-3.491c1.117-0.81,2.681-0.56,3.491,0.559c3.173,4.382,6.873,7.967,11.015,10.675
					c4.177-2.729,7.904-6.351,11.095-10.784c0.807-1.121,2.369-1.376,3.489-0.568c1.121,0.806,1.375,2.369,0.568,3.489
					c-3.915,5.439-8.582,9.799-13.871,12.957C128.887,187.63,128.443,187.748,128,187.748z"/>
			</g>
		</g>
		<g>
			<g>
				<path d="M131.896,166h-7.521c-1.381,0-2.5-1.119-2.5-2.5s1.119-2.5,2.5-2.5h7.521c1.381,0,2.5,1.119,2.5,2.5
					S133.277,166,131.896,166z"/>
			</g>
		</g>
	</g>
</g>
<g id="Layer_17">
</g>
<g id="Layer_18">
</g>
<g id="Layer_19">
</g>
<g id="Layer_20">
</g>
<g id="Layer_21">
</g>
<g id="Layer_22">
</g>
<g id="Layer_23">
</g>
<g id="Layer_24">
</g>
<g id="Layer_25">
</g>
<g id="Layer_26">
</g>
<g id="Layer_27">
</g>
<g id="Layer_28">
</g>
<g id="Layer_29">
</g>
<g id="Layer_30">
</g>
<g id="Layer_31">
</g>
<g id="Layer_32">
</g>
<g id="Layer_33">
</g>
<g id="Layer_34">
</g>
<g id="Layer_35">
</g>
<g id="Layer_36">
</g>
<g id="Layer_37">
</g>
<g id="Layer_38">
</g>
<g id="Layer_39">
</g>
<g id="Layer_40">
</g>
<g id="Layer_41">
</g>
<g id="Layer_42">
</g>
<g id="Layer_43">
</g>
<g id="Layer_44">
</g>
<g id="Layer_45">
</g>
<g id="Layer_46">
</g>
<g id="Layer_47">
</g>
<g id="Layer_48">
</g>
<g id="Layer_49">
</g>
<g id="Layer_50">
</g>
<g id="Layer_51">
</g>
<g id="Layer_52">
</g>
<g id="Layer_53">
</g>
<g id="Layer_54">
</g>
<g id="Layer_55">
</g>
<g id="Layer_56">
</g>
<g id="Layer_57">
</g>
<g id="Layer_58">
</g>
<g id="Layer_59">
</g>
<g id="Layer_60">
</g>
<g id="Layer_61">
</g>
<g id="Layer_62">
</g>
<g id="Layer_63">
</g>
<g id="Layer_64">
</g>
<g id="Layer_65">
</g>
<g id="Layer_66">
</g>
<g id="Layer_67">
</g>
<g id="Layer_68">
</g>
<g id="Layer_69">
</g>
<g id="Layer_70">
</g>
<g id="Layer_71">
</g>
<g id="Layer_72">
</g>
<g id="Layer_73">
</g>
<g id="Layer_74">
</g>
<g id="Layer_75">
</g>
<g id="Layer_76">
</g>
<g id="Layer_77">
</g>
<g id="Layer_78">
</g>
<g id="Layer_79">
</g>
<g id="Layer_80">
</g>
</svg>
