<?xml version="1.0" encoding="utf-8"?>
<!-- Generator: Adobe Illustrator 24.0.0, SVG Export Plug-In . SVG Version: 6.00 Build 0)  -->
<svg version="1.1" xmlns="http://www.w3.org/2000/svg" xmlns:xlink="http://www.w3.org/1999/xlink" x="0px" y="0px"
	 viewBox="0 0 256 256" style="enable-background:new 0 0 256 256;" xml:space="preserve">
<style type="text/css">
	.st0{fill:#3A70BF;}
	.st1{fill:#EDF4FC;}
	.st2{fill:#C7D7E5;}
	.st3{fill:#F9D0B4;}
	.st4{fill:#5B5D60;}
	.st5{fill:#5290DB;}
	.st6{fill:#70D6F9;}
	.st7{fill:#F5C84C;}
	.st8{fill:#FC657E;}
	.st9{fill:#87D147;}
	.st10{fill:#FCDD86;}
	.st11{fill:#9BE5F9;}
	.st12{fill:#B2E26D;}
	.st13{fill:#754E34;}
	.st14{fill:#FCA265;}
	.st15{fill:#818182;}
	.st16{fill:#F94EED;}
	.st17{fill:#FFC197;}
	.st18{fill:#3CAADC;}
	.st19{fill:#DAE6F1;}
	.st20{fill:#57AF12;}
	.st21{fill:#EF4460;}
	.st22{fill:#FFF0CA;}
	.st23{fill:#F98FA6;}
	.st24{fill:#EDB311;}
	.st25{fill:#FC8C48;}
	.st26{fill:#FCB9CB;}
	.st27{fill:#96BC71;}
	.st28{fill:#78A352;}
	.st29{fill:#B8DD90;}
	.st30{fill:#6FAFEF;}
	.st31{fill:#29589F;}
	.st32{fill:#414344;}
	.st33{fill:#9B6B4B;}
	.st34{fill:#73B1EF;}
</style>
<g id="Layer_1">
</g>
<g id="Layer_2">
</g>
<g id="Layer_3">
</g>
<g id="Layer_4">
</g>
<g id="Layer_5">
</g>
<g id="Layer_6">
</g>
<g id="Layer_7">
</g>
<g id="Layer_8">
</g>
<g id="Layer_9">
</g>
<g id="Layer_10">
</g>
<g id="Layer_11">
</g>
<g id="Layer_12">
</g>
<g id="Layer_13">
</g>
<g id="Layer_14">
</g>
<g id="Layer_15">
</g>
<g id="Layer_16">
</g>
<g id="Layer_17">
</g>
<g id="Layer_18">
</g>
<g id="Layer_19">
</g>
<g id="Layer_20">
</g>
<g id="Layer_21">
</g>
<g id="Layer_22">
</g>
<g id="Layer_23">
</g>
<g id="Layer_24">
</g>
<g id="Layer_25">
</g>
<g id="Layer_26">
</g>
<g id="Layer_27">
</g>
<g id="Layer_28">
</g>
<g id="Layer_29">
</g>
<g id="Layer_30">
</g>
<g id="Layer_31">
</g>
<g id="Layer_32">
</g>
<g id="Layer_33">
</g>
<g id="Layer_34">
</g>
<g id="Layer_35">
</g>
<g id="Layer_36">
</g>
<g id="Layer_37">
</g>
<g id="Layer_38">
</g>
<g id="Layer_39">
</g>
<g id="Layer_40">
</g>
<g id="Layer_41">
</g>
<g id="Layer_42">
</g>
<g id="Layer_43">
</g>
<g id="Layer_44">
</g>
<g id="Layer_45">
</g>
<g id="Layer_46">
</g>
<g id="Layer_47">
</g>
<g id="Layer_48">
</g>
<g id="Layer_49">
</g>
<g id="Layer_50">
</g>
<g id="Layer_51">
</g>
<g id="Layer_52">
</g>
<g id="Layer_53">
</g>
<g id="Layer_54">
</g>
<g id="Layer_55">
</g>
<g id="Layer_56">
</g>
<g id="Layer_57">
	<g>
		<g>
			<g>
				<path class="st3" d="M110.464,56.772C96.871,73.866,76.82,71.454,70.078,70.043c-1.225-0.256-2.401,0.667-2.402,1.919
					c0,0.008,0,0.017,0,0.025v29.936c0,20.468,16.747,37.215,37.215,37.215h0c20.468,0,37.215-16.747,37.215-37.215V68.772
					c0-0.194-0.002-0.388-0.006-0.582c-0.021-1.055-0.866-1.925-1.921-1.956c-15.46-0.453-23.606-6.581-26.736-9.649
					C112.588,55.747,111.209,55.836,110.464,56.772z"/>
			</g>
		</g>
		<g>
			<g>
				<g>
					<path class="st4" d="M65.288,73.561c0.813,0,1.609,0.069,2.388,0.189v-1.763c0-0.008,0-0.017,0-0.025
						c0.001-1.252,1.177-2.175,2.402-1.919c6.742,1.411,26.794,3.823,40.386-13.27c0.745-0.937,2.124-1.025,2.978-0.187
						c3.13,3.068,11.276,9.196,26.736,9.649c1.055,0.031,1.9,0.901,1.921,1.956c0.004,0.194,0.006,0.388,0.006,0.582v4.978
						c0.779-0.121,1.575-0.189,2.388-0.189c4.188,0,7.982,1.665,10.777,4.36V49.973c0-11.692-9.566-21.258-21.258-21.258
						c-3.966,0-7.673,1.121-10.859,3.031c-3.722-6.211-10.502-10.405-18.23-10.405H94.007c-21.127,0-38.413,17.286-38.413,38.413
						v17.212C58.252,74.84,61.618,73.561,65.288,73.561z"/>
				</g>
			</g>
		</g>
		<g>
			<g>
				<path class="st3" d="M144.494,73.561c-0.813,0-1.609,0.069-2.388,0.189c0,3.96,0,22.286,0,28.173
					c0,0.839-0.038,1.67-0.094,2.496c0.81,0.13,1.635,0.217,2.482,0.217c8.581,0,15.537-6.956,15.537-15.537
					S153.075,73.561,144.494,73.561z"/>
			</g>
		</g>
		<g>
			<g>
				<path class="st3" d="M67.676,101.923c0-3.856,0-20.507,0-28.173c-0.779-0.121-1.575-0.189-2.388-0.189
					c-8.581,0-15.538,6.957-15.538,15.538s6.956,15.537,15.538,15.537c0.847,0,1.672-0.086,2.482-0.217v-0.001
					C67.714,103.593,67.676,102.762,67.676,101.923z"/>
			</g>
		</g>
		<g>
			<g>
				<g>
					<path class="st19" d="M104.754,216.654c0.148,0.463,0.263,0.935,0.363,1.409c0.021,0.099,0.04,0.199,0.058,0.299
						c0.089,0.471,0.16,0.945,0.201,1.423c0,0,0,0,0,0.001l0,0c0.035,0.405,0.056,0.812,0.056,1.22c0-0.408,0.021-0.815,0.056-1.22
						l0,0c0,0,0,0,0,0c0.041-0.478,0.112-0.952,0.201-1.423c0.019-0.1,0.038-0.199,0.058-0.299c0.1-0.474,0.215-0.946,0.363-1.409
						l21.039-65.86c-2.856-2.409-4.572-5.982-4.572-9.822v-6.335c-5.268,2.868-11.296,4.501-17.686,4.501h0
						c-5.959,0-11.597-1.427-16.604-3.945v5.778c0,3.84-1.716,7.412-4.572,9.822L104.754,216.654z"/>
				</g>
			</g>
		</g>
		<g>
			<g>
				<circle class="st10" cx="180.578" cy="183.75" r="48.622"/>
			</g>
		</g>
		<g>
			<g>
				<g>
					<path class="st3" d="M109.641,161.422l14.195-14.922c-0.811-1.696-1.258-3.576-1.258-5.528v-6.335
						c-5.268,2.868-11.296,4.501-17.686,4.501h0c-5.959,0-11.597-1.427-16.604-3.945v5.778c0,1.951-0.447,3.832-1.258,5.528
						l14.195,14.922c0.417,0.438,0.603,1.01,0.573,1.573c1.022,0.086,2.051,0.143,3.094,0.143h0c1.411,0,2.796-0.104,4.167-0.26
						C109.059,162.354,109.253,161.83,109.641,161.422z"/>
				</g>
			</g>
		</g>
		<g>
			<g>
				<path class="st1" d="M123.835,146.5l-14.195,14.922c-0.77,0.81-0.78,2.078-0.022,2.899l8.157,8.837
					c0.535,0.58,1.291,0.802,2.006,0.697l7.367-23.061C125.744,149.609,124.62,148.141,123.835,146.5z"/>
			</g>
		</g>
		<g>
			<g>
				<path class="st1" d="M87.029,146.5c-0.785,1.641-1.909,3.109-3.314,4.294l7.367,23.061c0.715,0.105,1.471-0.117,2.006-0.697
					l8.157-8.837c0.758-0.821,0.748-2.089-0.022-2.899L87.029,146.5z"/>
			</g>
		</g>
		<g>
			<g>
				<path class="st5" d="M105.748,218.063c0.1-0.474,0.215-0.946,0.363-1.409l8.2-25.671l-3.858-19.808
					c-1.467,0.886-3.181,1.406-5.021,1.406s-3.553-0.519-5.021-1.406l-3.858,19.808l8.2,25.671c0.148,0.463,0.263,0.935,0.363,1.409
					c0.021,0.099,0.04,0.199,0.058,0.299c0.089,0.471,0.16,0.945,0.201,1.423c0,0,0,0,0,0.001c0.035,0.405,0.056,0.812,0.056,1.22
					c0-0.408,0.021-0.815,0.056-1.22c0,0,0,0,0,0c0.041-0.478,0.112-0.952,0.201-1.423
					C105.708,218.262,105.727,218.162,105.748,218.063z"/>
			</g>
		</g>
		<g>
			<g>
				<g>
					<path class="st5" d="M109.619,164.321c-0.376-0.408-0.562-0.926-0.561-1.443v0c-1.371,0.155-2.756,0.26-4.167,0.26h0
						c-1.043,0-2.072-0.058-3.094-0.143c-0.025,0.478-0.203,0.949-0.551,1.326l-3.784,4.1c1.76,2.513,4.67,4.161,7.971,4.161
						s6.211-1.647,7.971-4.161L109.619,164.321z"/>
				</g>
			</g>
		</g>
		<g>
			<g>
				<path class="st6" d="M146.197,218.131c-16.494-16.494-18.651-41.885-6.491-60.718l-9.959-4.91
					c-0.947-0.467-1.813-1.047-2.599-1.709l-21.039,65.86c-0.449,1.407-0.678,2.875-0.678,4.352V253.5h74.549
					c2.344,0,4.207-1.969,4.076-4.31l-0.979-16.886C169.815,232.983,156.327,228.261,146.197,218.131z"/>
			</g>
		</g>
		<g>
			<g>
				<path class="st6" d="M105.432,221.006c0-1.477-0.229-2.945-0.678-4.352l-21.039-65.86c-0.785,0.662-1.652,1.242-2.599,1.709
					l-10.215,5.037L42,164.814c-6.233,1.569-10.721,7.008-11.078,13.425l-4.115,70.951c-0.13,2.34,1.732,4.31,4.076,4.31h74.549
					V221.006z"/>
			</g>
		</g>
		<g>
			<g>
				<path class="st11" d="M139.706,157.413l-9.959-4.91c-0.947-0.467-1.814-1.047-2.599-1.709l-21.039,65.86
					c-0.325,1.019-0.531,2.069-0.622,3.132l27.27-27.27C130.579,180.566,132.894,167.962,139.706,157.413z"/>
			</g>
		</g>
		<g>
			<g>
				<path class="st11" d="M69.565,171.423l7.319,2.928c1.026,0.411,1.464,1.625,0.934,2.596l-4.733,8.677
					c-0.392,0.718-0.264,1.609,0.315,2.187l31.975,31.975c-0.091-1.063-0.297-2.113-0.622-3.132l-21.039-65.86
					c-0.785,0.662-1.652,1.242-2.599,1.709l-10.215,5.037l-0.328,0.083l-2.138,11.759C68.279,170.243,68.751,171.097,69.565,171.423
					z"/>
			</g>
		</g>
		<g>
			<g>
				<path class="st13" d="M196.024,191.791c-1.589-1.086-3.149-2.434-4.318-4.055c-5.558-7.713-16.697-7.714-22.256,0
					c-1.168,1.622-2.729,2.969-4.318,4.055c-3.718,2.541-4.947,7.458-2.849,11.443h0c2.283,4.338,7.655,5.998,11.987,3.704
					c3.946-2.089,8.67-2.089,12.615,0c4.333,2.293,9.704,0.634,11.987-3.704h0C200.97,199.249,199.742,194.332,196.024,191.791z"/>
			</g>
		</g>
		<g>
			<g>
				
					<ellipse transform="matrix(0.9804 -0.197 0.197 0.9804 -29.7102 36.8714)" class="st13" cx="170.497" cy="167.789" rx="6.268" ry="8.328"/>
			</g>
		</g>
		<g>
			<g>
				
					<ellipse transform="matrix(0.197 -0.9804 0.9804 0.197 -11.3981 321.6613)" class="st13" cx="190.659" cy="167.789" rx="8.328" ry="6.268"/>
			</g>
		</g>
		<g>
			<g>
				
					<ellipse transform="matrix(0.6265 -0.7794 0.7794 0.6265 -62.9747 228.3149)" class="st13" cx="206.755" cy="179.87" rx="8.328" ry="6.268"/>
			</g>
		</g>
		<g>
			<g>
				
					<ellipse transform="matrix(0.7794 -0.6265 0.6265 0.7794 -78.634 136.4215)" class="st13" cx="154.401" cy="179.87" rx="6.268" ry="8.328"/>
			</g>
		</g>
		<g>
			<g>
				<path d="M104.891,141.638c-21.899,0-39.715-17.816-39.715-39.715V71.987c0.001-1.372,0.604-2.63,1.651-3.479
					c1.059-0.859,2.43-1.19,3.764-0.912c7.236,1.517,25.416,3.34,37.917-12.379v-0.001c0.796-1.001,1.982-1.619,3.254-1.698
					c1.27-0.086,2.52,0.39,3.431,1.282c2.592,2.541,10.225,8.5,25.059,8.936c2.39,0.068,4.3,2.004,4.348,4.405
					c0.004,0.209,0.006,0.421,0.006,0.632v33.15C144.606,123.821,126.79,141.638,104.891,141.638z M70.176,72.612v29.311
					c0,19.142,15.573,34.715,34.715,34.715c19.142,0,34.715-15.573,34.715-34.715v-33.15c0-0.019,0-0.037,0-0.056
					c-15.155-0.564-23.626-6.309-27.522-9.971C97.896,76.146,77.165,73.964,70.176,72.612z M112.42,58.328
					c0,0.001,0,0.001-0.001,0.002L112.42,58.328L112.42,58.328z"/>
			</g>
		</g>
		<g>
			<g>
				<g>
					<path d="M155.271,79.583c-1.381,0-2.5-1.119-2.5-2.5V49.974c0-10.343-8.415-18.758-18.758-18.758
						c-3.345,0-6.656,0.925-9.574,2.675c-0.569,0.34-1.25,0.443-1.893,0.28c-0.643-0.161-1.196-0.571-1.537-1.14
						c-3.396-5.668-9.56-9.189-16.086-9.189H94.007c-19.803,0-35.913,16.11-35.913,35.913v16.65c0,1.381-1.119,2.5-2.5,2.5
						s-2.5-1.119-2.5-2.5v-16.65c0-22.56,18.354-40.913,40.913-40.913h10.916c7.481,0,14.582,3.641,19.048,9.638
						c3.15-1.486,6.579-2.264,10.042-2.264c13.1,0,23.758,10.657,23.758,23.758v27.109
						C157.771,78.464,156.651,79.583,155.271,79.583z"/>
				</g>
			</g>
		</g>
		<g>
			<g>
				<path d="M156.977,255.04c-1.381,0-2.5-1.119-2.5-2.5v-25.582c0-1.381,1.119-2.5,2.5-2.5s2.5,1.119,2.5,2.5v25.582
					C159.477,253.921,158.358,255.04,156.977,255.04z"/>
			</g>
		</g>
		<g>
			<g>
				<path d="M53.887,255.04c-1.381,0-2.5-1.119-2.5-2.5v-56.645c0-1.381,1.119-2.5,2.5-2.5s2.5,1.119,2.5,2.5v56.645
					C56.387,253.921,55.268,255.04,53.887,255.04z"/>
			</g>
		</g>
		<g>
			<g>
				<path d="M144.494,107.136c-0.567,0-1.14-0.031-1.749-0.096c-1.373-0.146-2.368-1.377-2.223-2.75
					c0.146-1.372,1.375-2.358,2.75-2.223c0.433,0.046,0.833,0.068,1.223,0.068c7.189,0,13.038-5.849,13.038-13.037
					c0-7.189-5.849-13.038-13.038-13.038c-0.397,0-0.808,0.021-1.22,0.061c-1.368,0.132-2.596-0.871-2.73-2.246
					c-0.134-1.374,0.872-2.597,2.246-2.73c0.573-0.056,1.146-0.084,1.705-0.084c9.946,0,18.038,8.092,18.038,18.038
					C162.532,99.044,154.44,107.136,144.494,107.136z"/>
			</g>
		</g>
		<g>
			<g>
				<path d="M65.288,107.136c-9.946,0-18.038-8.092-18.038-18.037c0-9.946,8.092-18.038,18.038-18.038
					c0.558,0,1.13,0.028,1.702,0.084c1.374,0.135,2.379,1.357,2.245,2.731c-0.135,1.374-1.343,2.376-2.731,2.245
					c-0.411-0.04-0.819-0.061-1.216-0.061c-7.189,0-13.038,5.849-13.038,13.038c0,7.188,5.849,13.037,13.038,13.037
					c0.417,0,0.846-0.025,1.313-0.079c1.371-0.149,2.61,0.83,2.766,2.202s-0.83,2.61-2.202,2.767
					C66.51,107.1,65.896,107.136,65.288,107.136z"/>
			</g>
		</g>
		<g>
			<g>
				<path d="M105.432,118.573c-4.777,0-9.262-1.95-11.999-5.216c-0.887-1.058-0.748-2.635,0.31-3.521
					c1.06-0.888,2.636-0.748,3.522,0.311c1.798,2.146,4.852,3.427,8.167,3.427c3.315,0,6.368-1.281,8.167-3.428
					c0.887-1.058,2.463-1.196,3.522-0.31c1.058,0.887,1.197,2.464,0.31,3.521C114.694,116.624,110.208,118.573,105.432,118.573z"/>
			</g>
		</g>
		<g>
			<g>
				<g>
					<path d="M127.147,153.294c-0.569,0-1.141-0.193-1.61-0.589c-3.47-2.927-5.46-7.203-5.46-11.733v-5.347
						c0-1.381,1.119-2.5,2.5-2.5s2.5,1.119,2.5,2.5v5.347c0,3.054,1.343,5.937,3.684,7.911c1.056,0.891,1.189,2.468,0.299,3.522
						C128.565,152.992,127.859,153.294,127.147,153.294z"/>
				</g>
			</g>
			<g>
				<g>
					<path d="M83.717,153.294c-0.711,0-1.418-0.302-1.913-0.888c-0.89-1.056-0.756-2.633,0.299-3.523
						c2.341-1.975,3.684-4.858,3.684-7.911v-4.908c0-1.381,1.119-2.5,2.5-2.5s2.5,1.119,2.5,2.5v4.908
						c0,4.529-1.99,8.807-5.46,11.733C84.858,153.101,84.286,153.294,83.717,153.294z"/>
				</g>
			</g>
		</g>
		<g>
			<g>
				<circle cx="122.222" cy="90.816" r="5"/>
			</g>
		</g>
		<g>
			<g>
				<circle cx="88.643" cy="90.816" r="5"/>
			</g>
		</g>
		<g>
			<g>
				<path d="M130.908,106.015h-9.237c-7.458,0-13.524-6.067-13.524-13.524v-6.39c0-5.577,4.538-10.115,10.115-10.115h16.056
					c5.577,0,10.115,4.538,10.115,10.115v6.39C144.432,99.947,138.365,106.015,130.908,106.015z M118.261,80.985
					c-2.82,0-5.115,2.295-5.115,5.115v6.39c0,4.7,3.824,8.524,8.524,8.524h9.237c4.7,0,8.524-3.824,8.524-8.524v-6.39
					c0-2.82-2.294-5.115-5.115-5.115H118.261z"/>
			</g>
		</g>
		<g>
			<g>
				<path d="M89.193,106.015h-9.237c-7.458,0-13.524-6.067-13.524-13.524v-6.39c0-5.577,4.538-10.115,10.115-10.115h16.056
					c5.577,0,10.115,4.538,10.115,10.115v6.39C102.718,99.947,96.651,106.015,89.193,106.015z M76.547,80.985
					c-2.82,0-5.115,2.295-5.115,5.115v6.39c0,4.7,3.824,8.524,8.524,8.524h9.237c4.7,0,8.524-3.824,8.524-8.524v-6.39
					c0-2.82-2.294-5.115-5.115-5.115H76.547z"/>
			</g>
		</g>
		<g>
			<g>
				<path d="M109.604,89.925h-8.343c-1.381,0-2.5-1.119-2.5-2.5s1.119-2.5,2.5-2.5h8.343c1.381,0,2.5,1.119,2.5,2.5
					S110.984,89.925,109.604,89.925z"/>
			</g>
		</g>
		<g>
			<g>
				<path d="M180.578,234.872c-13.655,0-26.493-5.317-36.148-14.974c-19.933-19.933-19.933-52.364,0-72.297
					c9.655-9.656,22.493-14.974,36.148-14.974c13.655,0,26.493,5.317,36.148,14.974l0,0l0,0c19.933,19.933,19.933,52.364,0,72.297
					C207.071,229.555,194.233,234.872,180.578,234.872z M180.578,137.628c-12.32,0-23.902,4.798-32.613,13.509
					c-17.983,17.983-17.983,47.243,0,65.227c8.711,8.711,20.293,13.509,32.613,13.509c12.319,0,23.901-4.798,32.613-13.509
					c17.983-17.983,17.983-47.243,0-65.227l0,0C204.479,142.426,192.897,137.628,180.578,137.628z"/>
			</g>
		</g>
		<g>
			<g>
				<path class="st7" d="M182.822,28.33c-4.498-0.838-8.043-4.31-8.898-8.716c-0.043-0.221-0.352-0.221-0.395,0
					c-0.855,4.406-4.4,7.879-8.898,8.716c-0.226,0.042-0.226,0.345,0,0.387c4.498,0.838,8.043,4.31,8.898,8.717
					c0.043,0.221,0.352,0.221,0.395,0c0.855-4.406,4.4-7.879,8.898-8.717C183.047,28.675,183.047,28.373,182.822,28.33z"/>
			</g>
		</g>
		<g>
			<g>
				<path class="st9" d="M181.515,112.101c-2.862-0.533-5.118-2.743-5.663-5.547c-0.027-0.141-0.224-0.141-0.251,0
					c-0.544,2.804-2.8,5.014-5.663,5.547c-0.144,0.027-0.144,0.219,0,0.246c2.862,0.533,5.118,2.743,5.663,5.547
					c0.027,0.141,0.224,0.141,0.251,0c0.544-2.804,2.8-5.014,5.663-5.547C181.658,112.32,181.658,112.128,181.515,112.101z"/>
			</g>
		</g>
		<g>
			<g>
				<path class="st6" d="M42.246,120.75h2.33v-2.33c0-1.744,1.413-3.157,3.157-3.157c1.744,0,3.157,1.413,3.157,3.157v2.33h2.329
					c1.744,0,3.157,1.413,3.157,3.157s-1.413,3.157-3.157,3.157h-2.329v2.33c0,1.744-1.413,3.157-3.157,3.157
					c-1.744,0-3.157-1.413-3.157-3.157v-2.33h-2.33c-1.744,0-3.157-1.413-3.157-3.157S40.502,120.75,42.246,120.75z"/>
			</g>
		</g>
		<g>
			<g>
				<circle class="st7" cx="32.755" cy="152.825" r="3.377"/>
			</g>
		</g>
		<g>
			<g>
				<circle class="st8" cx="156.755" cy="3.377" r="3.377"/>
			</g>
		</g>
		<g>
			<g>
				<path d="M118.971,176.333c-0.167,0-0.336-0.018-0.507-0.053c-0.975-0.2-1.848-0.693-2.524-1.426l-8.158-8.838
					c-1.646-1.784-1.625-4.559,0.047-6.317l14.194-14.922c0.567-0.596,1.392-0.879,2.203-0.746c0.813,0.128,1.509,0.648,1.864,1.39
					c0.644,1.346,1.542,2.511,2.67,3.462c1.055,0.89,1.189,2.467,0.299,3.522c-0.891,1.057-2.466,1.19-3.523,0.3
					c-0.775-0.653-1.477-1.375-2.102-2.158l-11.738,12.341l7.86,8.515c1.304,0.315,2.132,1.61,1.859,2.934
					C121.173,175.519,120.132,176.332,118.971,176.333z"/>
			</g>
		</g>
		<g>
			<g>
				<path d="M92.01,176.306c-1.109,0-2.122-0.743-2.417-1.866c-0.344-1.311,0.418-2.651,1.708-3.032l7.865-8.521l-11.738-12.34
					c-0.625,0.783-1.326,1.504-2.102,2.158c-1.057,0.889-2.633,0.755-3.523-0.299c-0.89-1.056-0.756-2.633,0.299-3.523
					c1.129-0.952,2.027-2.117,2.67-3.462c0.355-0.741,1.052-1.262,1.864-1.39c0.813-0.132,1.636,0.149,2.203,0.746l14.194,14.922
					c1.673,1.759,1.694,4.534,0.047,6.318l-8.157,8.836c-0.614,0.666-1.402,1.139-2.279,1.369
					C92.434,176.278,92.22,176.306,92.01,176.306z"/>
			</g>
		</g>
		<g>
			<g>
				<path d="M114.219,193.026c-1.172,0-2.218-0.828-2.451-2.022l-3.655-18.769c-0.264-1.354,0.621-2.668,1.976-2.932
					c1.354-0.265,2.667,0.62,2.932,1.977l3.655,18.769c0.264,1.354-0.621,2.668-1.976,2.932
					C114.538,193.012,114.377,193.026,114.219,193.026z"/>
			</g>
		</g>
		<g>
			<g>
				<path d="M96.616,193.179c-0.159,0-0.319-0.015-0.481-0.046c-1.355-0.265-2.24-1.577-1.976-2.932l3.693-18.96
					c0.264-1.356,1.577-2.241,2.932-1.977c1.355,0.265,2.24,1.577,1.976,2.932l-3.693,18.96
					C98.834,192.351,97.788,193.179,96.616,193.179z"/>
			</g>
		</g>
		<g>
			<g>
				<g>
					<path d="M104.891,165.639c-0.867,0-1.793-0.038-2.829-0.115c-1.377-0.104-2.41-1.303-2.307-2.68
						c0.104-1.376,1.305-2.407,2.68-2.307c0.911,0.068,1.714,0.102,2.456,0.102c1.063,0,2.206-0.065,3.494-0.201
						c1.374-0.147,2.604,0.852,2.748,2.226c0.144,1.373-0.852,2.603-2.225,2.747C107.444,165.563,106.13,165.639,104.891,165.639z"
						/>
				</g>
			</g>
			<g>
				<g>
					<path d="M105.432,175.081c-3.619,0-7.032-1.594-9.364-4.373c-0.888-1.058-0.75-2.635,0.308-3.522
						c1.058-0.887,2.634-0.749,3.522,0.308c1.38,1.645,3.397,2.588,5.534,2.588c2.141,0,4.161-0.946,5.542-2.596
						c0.884-1.06,2.463-1.199,3.521-0.313c1.059,0.886,1.199,2.463,0.313,3.521C112.475,173.482,109.057,175.081,105.432,175.081z"
						/>
				</g>
			</g>
		</g>
		<g>
			<g>
				<path d="M179.981,256h-74.549c-1.381,0-2.5-1.119-2.5-2.5s1.119-2.5,2.5-2.5h74.549c0.44,0,0.848-0.176,1.15-0.495
					c0.302-0.319,0.455-0.736,0.43-1.176l-0.924-15.927c-0.08-1.378,0.973-2.561,2.351-2.641c1.378-0.071,2.561,0.973,2.641,2.352
					l0.924,15.933c0.101,1.804-0.552,3.586-1.79,4.895S181.783,256,179.981,256z"/>
			</g>
		</g>
		<g>
			<g>
				<path d="M105.432,256H30.883c-1.801,0-3.545-0.751-4.783-2.06s-1.89-3.091-1.79-4.889l4.115-70.957
					c0.42-7.546,5.63-13.859,12.964-15.705l28.644-7.21l9.977-4.919c0.732-0.36,1.436-0.824,2.094-1.379
					c0.637-0.538,1.501-0.721,2.303-0.49c0.802,0.231,1.435,0.847,1.689,1.642l21.039,65.86c0.529,1.655,0.797,3.375,0.797,5.112
					V253.5C107.932,254.881,106.813,256,105.432,256z M82.335,154.688c-0.038,0.02-0.076,0.038-0.114,0.057l-10.214,5.036
					c-0.158,0.078-0.324,0.139-0.495,0.183l-28.901,7.275c-5.2,1.309-8.895,5.785-9.193,11.139l-4.115,70.957
					c-0.024,0.433,0.129,0.851,0.431,1.17c0.302,0.319,0.71,0.495,1.15,0.495h72.049v-29.994c0-1.22-0.188-2.429-0.56-3.591
					L82.335,154.688z"/>
			</g>
		</g>
		<g>
			<g>
				<g>
					<path d="M105.488,222.285c-0.357,0-0.716-0.076-1.054-0.233c-0.952-0.442-1.526-1.434-1.437-2.479
						c0.107-1.259,0.354-2.496,0.731-3.679l21.039-65.86c0.254-0.795,0.888-1.41,1.689-1.642c0.801-0.23,1.666-0.046,2.304,0.491
						c0.656,0.553,1.36,1.017,2.092,1.378l9.351,4.61c1.238,0.61,1.748,2.109,1.137,3.348c-0.61,1.238-2.109,1.749-3.348,1.137
						l-9.351-4.61c-0.038-0.019-0.076-0.037-0.113-0.057l-18.081,56.601l20.379-20.379c0.976-0.977,2.56-0.977,3.535,0
						c0.977,0.977,0.977,2.559,0,3.535l-27.107,27.107C106.777,222.032,106.137,222.285,105.488,222.285z"/>
				</g>
			</g>
		</g>
		<g>
			<g>
				<path d="M105.085,221.994c-0.64,0-1.28-0.244-1.768-0.732l-31.684-31.684c-1.354-1.354-1.658-3.473-0.742-5.152l4.379-8.028
					l-6.634-2.653c-1.909-0.763-3.028-2.786-2.66-4.811l2.01-11.058c0.247-1.358,1.548-2.259,2.907-2.013
					c1.358,0.247,2.259,1.549,2.012,2.907l-1.914,10.53l6.822,2.729c1.151,0.46,2.053,1.394,2.474,2.562s0.321,2.462-0.273,3.553
					l-4.498,8.246l31.337,31.337c0.977,0.977,0.977,2.559,0,3.535C106.365,221.75,105.725,221.994,105.085,221.994z"/>
			</g>
		</g>
		<g>
			<g>
				<path d="M170.139,210.474c-1.127,0-2.26-0.169-3.368-0.512c-2.904-0.897-5.284-2.873-6.7-5.563
					c-2.688-5.105-1.118-11.413,3.651-14.672c1.584-1.082,2.829-2.244,3.7-3.452c3.125-4.336,7.921-6.823,13.157-6.823c0,0,0,0,0,0
					c5.236,0,10.031,2.487,13.156,6.823c0.871,1.208,2.116,2.37,3.7,3.452c0,0,0,0,0,0c4.768,3.259,6.337,9.566,3.65,14.672
					c-1.416,2.69-3.795,4.666-6.7,5.563c-2.905,0.899-5.982,0.608-8.67-0.814c-3.218-1.704-7.059-1.702-10.275,0
					C173.779,210.027,171.966,210.474,170.139,210.474z M180.578,184.451c-3.609,0-6.926,1.729-9.1,4.747
					c-1.211,1.68-2.871,3.246-4.935,4.657c-2.671,1.825-3.552,5.356-2.047,8.215c0.792,1.506,2.125,2.612,3.751,3.114
					c1.626,0.504,3.35,0.34,4.854-0.455c4.683-2.479,10.272-2.479,14.955,0c1.503,0.795,3.227,0.959,4.854,0.455
					c1.626-0.502,2.958-1.608,3.751-3.114c1.504-2.858,0.625-6.39-2.047-8.215c-2.064-1.411-3.725-2.978-4.936-4.657
					C187.504,186.182,184.187,184.451,180.578,184.451z"/>
			</g>
		</g>
		<g>
			<g>
				<path d="M171.209,178.545c-1.952,0-3.918-0.781-5.56-2.242c-1.873-1.668-3.204-4.078-3.749-6.787s-0.247-5.446,0.836-7.708
					c1.181-2.465,3.232-4.153,5.627-4.635c2.394-0.484,4.938,0.284,6.98,2.102c1.873,1.668,3.204,4.077,3.749,6.787l0,0
					c0.544,2.709,0.247,5.446-0.837,7.708c-1.181,2.465-3.232,4.153-5.627,4.635C172.161,178.499,171.686,178.545,171.209,178.545z
					 M169.802,162.03c-0.147,0-0.298,0.014-0.452,0.045c-1.152,0.231-1.813,1.285-2.104,1.894c-0.609,1.271-0.771,2.934-0.443,4.563
					c0.327,1.628,1.118,3.1,2.171,4.036c0.503,0.448,1.518,1.169,2.67,0.935c1.151-0.231,1.812-1.285,2.104-1.894
					c0.609-1.271,0.771-2.934,0.443-4.563l0,0c-0.327-1.628-1.119-3.1-2.171-4.036C171.584,162.621,170.762,162.03,169.802,162.03z"
					/>
			</g>
		</g>
		<g>
			<g>
				<path d="M189.946,178.545c-0.477,0-0.952-0.047-1.421-0.141c-2.394-0.481-4.445-2.171-5.626-4.635
					c-1.083-2.262-1.381-4.999-0.836-7.708c0.544-2.709,1.876-5.119,3.749-6.787c2.042-1.817,4.587-2.579,6.981-2.102
					c2.394,0.481,4.445,2.171,5.626,4.635c1.083,2.262,1.381,4.999,0.836,7.708s-1.875,5.119-3.749,6.787
					C193.865,177.764,191.898,178.545,189.946,178.545z M191.354,162.03c-0.96,0-1.782,0.591-2.219,0.979
					c-1.053,0.937-1.844,2.408-2.171,4.036l0,0c-0.328,1.629-0.166,3.292,0.443,4.563c0.292,0.608,0.952,1.662,2.103,1.894
					c1.153,0.236,2.168-0.486,2.671-0.935c1.053-0.937,1.844-2.408,2.171-4.036c0.328-1.629,0.166-3.292-0.443-4.563
					c-0.292-0.608-0.952-1.662-2.103-1.894C191.653,162.044,191.502,162.03,191.354,162.03z M184.514,166.554h0.01H184.514z"/>
			</g>
		</g>
		<g>
			<g>
				<path d="M204.784,189.938c-1.763,0-3.442-0.526-4.813-1.628c-3.768-3.029-3.79-9.279-0.049-13.933
					c1.731-2.153,4.023-3.68,6.454-4.296c2.648-0.673,5.26-0.181,7.164,1.351c1.904,1.53,2.946,3.975,2.858,6.706
					c-0.08,2.506-1.078,5.072-2.809,7.227C211.208,188.325,207.869,189.938,204.784,189.938z M208.7,174.784
					c-0.425,0-0.813,0.071-1.095,0.143c-1.366,0.347-2.746,1.288-3.787,2.583c-1.945,2.42-2.28,5.646-0.715,6.903
					c1.566,1.257,4.643,0.238,6.588-2.182c1.041-1.295,1.664-2.845,1.709-4.253c0.021-0.675-0.079-1.915-0.994-2.65
					C209.886,174.909,209.262,174.784,208.7,174.784z"/>
			</g>
		</g>
		<g>
			<g>
				<path d="M156.372,189.938c-3.085,0-6.425-1.611-8.805-4.573c-3.741-4.654-3.718-10.904,0.049-13.933
					c1.903-1.531,4.515-2.024,7.164-1.351c2.431,0.616,4.723,2.143,6.454,4.296c3.741,4.653,3.719,10.903-0.049,13.933
					C159.815,189.411,158.135,189.938,156.372,189.938z M152.456,174.784c-0.562,0-1.186,0.125-1.707,0.544
					c-1.564,1.258-1.23,4.483,0.715,6.903s5.025,3.439,6.588,2.182c1.564-1.258,1.23-4.483-0.715-6.903
					c-1.041-1.295-2.421-2.236-3.787-2.583C153.269,174.855,152.88,174.784,152.456,174.784z"/>
			</g>
		</g>
	</g>
</g>
<g id="Layer_58">
</g>
<g id="Layer_59">
</g>
<g id="Layer_60">
</g>
<g id="Layer_61">
</g>
<g id="Layer_62">
</g>
<g id="Layer_63">
</g>
<g id="Layer_64">
</g>
<g id="Layer_65">
</g>
<g id="Layer_66">
</g>
<g id="Layer_67">
</g>
<g id="Layer_68">
</g>
<g id="Layer_69">
</g>
<g id="Layer_70">
</g>
<g id="Layer_71">
</g>
<g id="Layer_72">
</g>
<g id="Layer_73">
</g>
<g id="Layer_74">
</g>
<g id="Layer_75">
</g>
<g id="Layer_76">
</g>
<g id="Layer_77">
</g>
<g id="Layer_78">
</g>
<g id="Layer_79">
</g>
<g id="Layer_80">
</g>
</svg>
