<?xml version="1.0" encoding="utf-8"?>
<!-- Generator: Adobe Illustrator 24.0.0, SVG Export Plug-In . SVG Version: 6.00 Build 0)  -->
<svg version="1.1" xmlns="http://www.w3.org/2000/svg" xmlns:xlink="http://www.w3.org/1999/xlink" x="0px" y="0px"
	 viewBox="0 0 256 256" style="enable-background:new 0 0 256 256;" xml:space="preserve">
<style type="text/css">
	.st0{fill:#3A70BF;}
	.st1{fill:#EDF4FC;}
	.st2{fill:#C7D7E5;}
	.st3{fill:#F9D0B4;}
	.st4{fill:#5B5D60;}
	.st5{fill:#5290DB;}
	.st6{fill:#70D6F9;}
	.st7{fill:#F5C84C;}
	.st8{fill:#FC657E;}
	.st9{fill:#87D147;}
	.st10{fill:#FCDD86;}
	.st11{fill:#9BE5F9;}
	.st12{fill:#B2E26D;}
	.st13{fill:#754E34;}
	.st14{fill:#FCA265;}
	.st15{fill:#818182;}
	.st16{fill:#F94EED;}
	.st17{fill:#FFC197;}
	.st18{fill:#3CAADC;}
	.st19{fill:#DAE6F1;}
	.st20{fill:#57AF12;}
	.st21{fill:#EF4460;}
	.st22{fill:#FFF0CA;}
	.st23{fill:#F98FA6;}
	.st24{fill:#EDB311;}
	.st25{fill:#FC8C48;}
	.st26{fill:#FCB9CB;}
	.st27{fill:#96BC71;}
	.st28{fill:#78A352;}
	.st29{fill:#B8DD90;}
	.st30{fill:#6FAFEF;}
	.st31{fill:#29589F;}
	.st32{fill:#414344;}
	.st33{fill:#9B6B4B;}
	.st34{fill:#73B1EF;}
</style>
<g id="Layer_1">
</g>
<g id="Layer_2">
</g>
<g id="Layer_3">
</g>
<g id="Layer_4">
</g>
<g id="Layer_5">
</g>
<g id="Layer_6">
</g>
<g id="Layer_7">
</g>
<g id="Layer_8">
</g>
<g id="Layer_9">
</g>
<g id="Layer_10">
</g>
<g id="Layer_11">
</g>
<g id="Layer_12">
</g>
<g id="Layer_13">
</g>
<g id="Layer_14">
</g>
<g id="Layer_15">
</g>
<g id="Layer_16">
</g>
<g id="Layer_17">
</g>
<g id="Layer_18">
</g>
<g id="Layer_19">
</g>
<g id="Layer_20">
</g>
<g id="Layer_21">
</g>
<g id="Layer_22">
</g>
<g id="Layer_23">
</g>
<g id="Layer_24">
</g>
<g id="Layer_25">
</g>
<g id="Layer_26">
</g>
<g id="Layer_27">
</g>
<g id="Layer_28">
</g>
<g id="Layer_29">
</g>
<g id="Layer_30">
</g>
<g id="Layer_31">
</g>
<g id="Layer_32">
</g>
<g id="Layer_33">
</g>
<g id="Layer_34">
</g>
<g id="Layer_35">
</g>
<g id="Layer_36">
</g>
<g id="Layer_37">
</g>
<g id="Layer_38">
</g>
<g id="Layer_39">
</g>
<g id="Layer_40">
</g>
<g id="Layer_41">
</g>
<g id="Layer_42">
</g>
<g id="Layer_43">
</g>
<g id="Layer_44">
</g>
<g id="Layer_45">
</g>
<g id="Layer_46">
</g>
<g id="Layer_47">
</g>
<g id="Layer_48">
</g>
<g id="Layer_49">
</g>
<g id="Layer_50">
</g>
<g id="Layer_51">
</g>
<g id="Layer_52">
</g>
<g id="Layer_53">
</g>
<g id="Layer_54">
</g>
<g id="Layer_55">
</g>
<g id="Layer_56">
</g>
<g id="Layer_57">
</g>
<g id="Layer_58">
	<g>
		<g>
			<g>
				<path class="st4" d="M60.936,124.533c-1.971,3.678-5.097,11.894,0.259,20.374c2.921,4.625,7.43,7.595,12.542,9.466
					c0.265-0.075,0.531-0.147,0.794-0.229l0,0c1.325-0.415,3.044-1.095,4.346-1.737c10.303-5.125,8.318-4.043,9.369-4.691l0,0
					c2.834-1.746,4.604-4.832,4.604-8.204v-10.533c-10.179-5.548-17.309-16.042-18.124-28.194c-0.756,0.122-1.526,0.202-2.316,0.202
					c-5.17,0-9.695-2.714-12.262-6.786c-2.926,5.721-6.06,15.851,0.574,26.254C61.509,121.692,61.628,123.241,60.936,124.533z"/>
			</g>
		</g>
		<g>
			<g>
				<path class="st4" d="M144.089,154.103c1.267-1.642,2.639-3.228,4.144-4.733c3.4-3.4,7.182-6.18,11.203-8.362
					c2.503-7.012,0.033-13.366-1.633-16.474c-0.693-1.292-0.573-2.841,0.215-4.077c6.634-10.404,3.501-20.533,0.574-26.254
					c-2.568,4.072-7.093,6.786-12.263,6.786c-0.79,0-1.56-0.081-2.316-0.202c-0.816,12.152-7.945,22.646-18.124,28.194v10.533
					c0,3.372,1.769,6.458,4.604,8.204c1.136,0.7-0.306-0.122,9.369,4.691C141.127,153.03,142.78,153.685,144.089,154.103z"/>
			</g>
		</g>
		<g>
			<g>
				<path d="M159.647,142.883c-0.251,0-0.506-0.038-0.757-0.118c-1.316-0.417-2.045-1.822-1.627-3.139
					c1.874-5.908-0.239-11.252-1.665-13.911c-1.099-2.051-0.979-4.58,0.311-6.604c5.683-8.911,3.493-17.631,0.656-23.377
					c-0.611-1.237-0.104-2.736,1.135-3.348c1.235-0.612,2.736-0.104,3.348,1.135c2.789,5.647,6.377,16.83-0.922,28.277
					c-0.324,0.509-0.369,1.09-0.12,1.554c1.798,3.354,4.453,10.126,2.023,17.785C161.691,142.202,160.707,142.883,159.647,142.883z"
					/>
			</g>
		</g>
		<g>
			<g>
				<path d="M73.311,156.714c-0.295,0-0.596-0.053-0.889-0.164c-5.966-2.271-10.454-5.738-13.341-10.309
					c-6.161-9.753-2.296-19.257-0.349-22.89c0.249-0.465,0.204-1.045-0.12-1.552c-7.367-11.554-3.667-22.824-0.805-28.515
					c0.62-1.232,2.123-1.733,3.356-1.11c1.234,0.62,1.731,2.123,1.11,3.356c-2.913,5.793-5.182,14.586,0.554,23.58
					c1.29,2.022,1.409,4.552,0.311,6.602c-1.905,3.554-4.416,10.6,0.169,17.858c2.295,3.635,5.96,6.429,10.892,8.305
					c1.291,0.491,1.938,1.936,1.447,3.226C75.268,156.1,74.318,156.714,73.311,156.714z"/>
			</g>
		</g>
		<g>
			<g>
				<path class="st3" d="M146.329,71.985c-0.759,0-1.502,0.064-2.229,0.177c0,3.696,0,20.799,0,26.293v0v0
					c0,0.783-0.036,1.558-0.088,2.329c0.756,0.122,1.526,0.202,2.316,0.202c8.009,0,14.501-6.492,14.501-14.501
					C160.83,78.477,154.338,71.985,146.329,71.985z"/>
			</g>
		</g>
		<g>
			<g>
				<path class="st3" d="M125.982,60.642c-5.29,6.174-24.047,24.906-51.344,17.13v20.684c0,19.102,15.629,34.732,34.732,34.732l0,0
					c19.102,0,34.732-15.629,34.732-34.732v-28.06c0-1.276-0.893-2.358-2.136-2.646c-3.515-0.814-7.782-2.85-12.673-7.294
					C128.324,59.577,126.832,59.649,125.982,60.642z"/>
			</g>
		</g>
		<g>
			<g>
				<path class="st3" d="M74.637,77.771c-2.385-0.679-4.834-1.559-7.346-2.668c-1.619-0.715-3.511-0.386-4.803,0.825
					c-2.817,2.641-4.581,6.39-4.581,10.557c0,8.008,6.492,14.501,14.501,14.501c0.79,0,1.56-0.08,2.316-0.202
					c-0.052-0.771-0.088-1.546-0.088-2.329V77.771z"/>
			</g>
		</g>
		<g>
			<g>
				<g>
					<path class="st4" d="M62.489,75.929c1.291-1.211,3.183-1.54,4.803-0.825c2.512,1.109,4.961,1.988,7.346,2.668
						c27.297,7.776,46.055-10.956,51.344-17.13c0.85-0.992,2.342-1.065,3.309-0.186c4.892,4.445,9.159,6.48,12.673,7.294
						c1.243,0.288,2.136,1.37,2.136,2.646v1.766c0.727-0.113,1.47-0.177,2.229-0.177c4.012,0,7.643,1.63,10.268,4.263v-8.494
						c0-25.976-21.253-47.229-47.229-47.229c-25.976,0-47.229,21.253-47.229,47.229v8.535
						C62.258,76.171,62.366,76.043,62.489,75.929z"/>
				</g>
			</g>
		</g>
		<g>
			<g>
				<g>
					<path class="st3" d="M148.232,218.131c-17.483-17.483-18.855-44.96-4.144-64.028c-1.448-0.46-2.862-1.024-4.227-1.697
						l-8.587-4.234c-3.298-1.626-5.386-4.984-5.386-8.66v-10.533c-4.92,2.682-10.551,4.208-16.52,4.208
						c-5.97,0-11.6-1.526-16.52-4.208v10.533c0,3.677-2.088,7.034-5.386,8.66l-8.587,4.234c-1.919,0.946-3.933,1.687-6.009,2.209
						l-24.833,6.269c-6.044,1.521-10.396,6.796-10.743,13.019l-2.744,75.418c-0.127,2.269,1.68,4.179,3.953,4.179h21.99
						c1.478,0,2.677-1.198,2.677-2.677v-47.143l3.883,12.439c2.539,8.133,3.83,16.604,3.83,25.124v9.58
						c0,1.479,1.198,2.677,2.677,2.677h30.345h10.936h30.345c1.478,0,2.677-1.198,2.677-2.677v-9.58
						c0-7.083,0.906-14.129,2.665-20.978C149.745,219.58,148.977,218.875,148.232,218.131z"/>
				</g>
			</g>
		</g>
		<g>
			<g>
				<path class="st6" d="M148.232,218.131c-17.483-17.483-18.855-44.96-4.144-64.028c-1.448-0.46-2.862-1.024-4.227-1.697
					l-8.587-4.234c-0.274-0.135-0.526-0.299-0.782-0.457l-20.446,79.734c-0.449,1.75-0.677,3.577-0.677,5.415V253.5h5.468h30.345
					c1.478,0,2.677-1.198,2.677-2.677v-9.58c0-7.083,0.906-14.129,2.665-20.978C149.745,219.58,148.977,218.875,148.232,218.131z"/>
			</g>
		</g>
		<g>
			<g>
				<path class="st6" d="M155.572,224.161v26.663c0,1.479,1.198,2.677,2.677,2.677h21.99c2.273,0,4.079-1.91,3.953-4.179
					l-0.618-16.972C173.81,232.541,164.003,229.816,155.572,224.161z"/>
			</g>
		</g>
		<g>
			<g>
				<path class="st6" d="M88.245,147.715c-0.256,0.158-0.508,0.322-0.782,0.457l-8.587,4.234c-1.919,0.946-3.933,1.687-6.009,2.209
					l-24.833,6.269c-6.044,1.521-10.396,6.796-10.743,13.019l-2.744,75.418c-0.127,2.269,1.68,4.179,3.953,4.179h21.99
					c1.478,0,2.677-1.198,2.677-2.677v-47.143l3.883,12.439c2.539,8.133,3.83,16.604,3.83,25.124v9.58
					c0,1.478,1.198,2.677,2.677,2.677h30.345h5.468v-20.636c0-1.838-0.229-3.664-0.677-5.415L88.245,147.715z"/>
			</g>
		</g>
		<g>
			<g>
				<circle class="st10" cx="182.613" cy="183.75" r="48.622"/>
			</g>
		</g>
		<g>
			<g>
				<path class="st13" d="M198.059,191.791c-1.589-1.086-3.149-2.434-4.318-4.055c-5.558-7.713-16.697-7.714-22.256,0
					c-1.168,1.622-2.729,2.969-4.318,4.055c-3.718,2.541-4.947,7.458-2.849,11.443h0c2.283,4.338,7.655,5.998,11.987,3.704
					c3.946-2.089,8.669-2.089,12.615,0c4.333,2.293,9.704,0.634,11.987-3.704h0C203.005,199.249,201.777,194.332,198.059,191.791z"
					/>
			</g>
		</g>
		<g>
			<g>
				
					<ellipse transform="matrix(0.9804 -0.197 0.197 0.9804 -29.6703 37.2723)" class="st13" cx="172.532" cy="167.789" rx="6.268" ry="8.328"/>
			</g>
		</g>
		<g>
			<g>
				
					<ellipse transform="matrix(0.197 -0.9804 0.9804 0.197 -9.7638 323.6566)" class="st13" cx="192.694" cy="167.789" rx="8.328" ry="6.268"/>
			</g>
		</g>
		<g>
			<g>
				
					<ellipse transform="matrix(0.6265 -0.7794 0.7794 0.6265 -62.2146 229.9011)" class="st13" cx="208.79" cy="179.87" rx="8.328" ry="6.268"/>
			</g>
		</g>
		<g>
			<g>
				
					<ellipse transform="matrix(0.7794 -0.6265 0.6265 0.7794 -78.185 137.6966)" class="st13" cx="156.436" cy="179.87" rx="6.268" ry="8.328"/>
			</g>
		</g>
		<g>
			<g>
				<path class="st1" d="M108.692,227.449c0.148,0.576,0.263,1.163,0.362,1.753c0.021,0.124,0.04,0.248,0.059,0.373
					c0.089,0.586,0.16,1.176,0.201,1.771v0l0,0c0.035,0.504,0.056,1.011,0.056,1.518c0-0.508,0.021-1.014,0.056-1.518l0,0v0
					c0.041-0.595,0.112-1.185,0.201-1.771c0.019-0.125,0.038-0.248,0.059-0.373c0.1-0.59,0.215-1.177,0.362-1.753l15.02-58.572
					c-4.525,2.921-9.91,4.623-15.697,4.623c-5.787,0-11.172-1.703-15.697-4.623L108.692,227.449z"/>
			</g>
		</g>
		<g>
			<g>
				<path class="st11" d="M144.09,154.101c-1.449-0.46-2.864-1.022-4.228-1.695l-8.587-4.234c-0.274-0.135-0.526-0.299-0.782-0.457
					l-20.446,79.733c-0.325,1.267-0.53,2.575-0.621,3.897l26.72-33.285C131.615,183.307,134.267,166.833,144.09,154.101z"/>
			</g>
		</g>
		<g>
			<g>
				<path class="st11" d="M108.692,227.449l-20.446-79.733c-0.256,0.158-0.508,0.322-0.782,0.457l-8.587,4.234
					c-1.402,0.691-2.856,1.27-4.346,1.737l-2.114,14.487c-0.157,1.074,0.315,2.136,1.128,2.541l7.31,3.643
					c1.025,0.511,1.462,2.022,0.933,3.23l-4.727,10.796c-0.391,0.894-0.263,2.002,0.315,2.722l31.937,39.785
					C109.222,230.023,109.016,228.716,108.692,227.449z"/>
			</g>
		</g>
		<g>
			<g>
				<path d="M146.329,103.486c-0.574,0-1.148-0.033-1.756-0.102c-1.372-0.154-2.358-1.393-2.204-2.765
					c0.154-1.371,1.387-2.355,2.765-2.204c0.419,0.047,0.811,0.07,1.195,0.07c6.617,0,12.001-5.383,12.001-12
					s-5.384-12.001-12.001-12.001c-0.372,0-0.739,0.019-1.104,0.053c-1.367,0.133-2.594-0.877-2.725-2.252
					c-0.131-1.374,0.877-2.595,2.252-2.725c10.063-0.965,18.577,7.032,18.577,16.925C163.33,95.86,155.703,103.486,146.329,103.486z
					"/>
			</g>
		</g>
		<g>
			<g>
				<path d="M109.369,135.687c-20.53,0-37.232-16.702-37.232-37.231V77.771c0-0.784,0.368-1.522,0.994-1.995
					c0.626-0.472,1.437-0.623,2.191-0.409c25.918,7.384,43.875-10.649,48.761-16.353h0c0.85-0.991,2.034-1.581,3.335-1.662
					c1.281-0.083,2.589,0.377,3.555,1.254c3.95,3.59,7.838,5.847,11.555,6.708c2.397,0.556,4.072,2.646,4.072,5.081v28.06
					C146.601,118.984,129.898,135.687,109.369,135.687z M77.137,80.979v17.477c0,17.772,14.459,32.231,32.232,32.231
					c17.772,0,32.231-14.459,32.231-32.231v-28.06c0-0.113-0.101-0.187-0.201-0.21c-4.515-1.047-9.108-3.656-13.656-7.759
					C122.386,68.626,103.954,86.86,77.137,80.979z"/>
			</g>
		</g>
		<g>
			<g>
				<path d="M72.408,103.486c-9.374,0-17-7.626-17-17c0-4.668,1.958-9.181,5.371-12.381c2.03-1.903,4.984-2.411,7.522-1.289
					c2.328,1.028,4.69,1.887,7.021,2.551c1.328,0.379,2.098,1.762,1.719,3.09s-1.761,2.099-3.089,1.719
					c-2.552-0.728-5.133-1.665-7.671-2.785c-0.7-0.311-1.519-0.167-2.083,0.362c-2.444,2.292-3.791,5.394-3.791,8.733
					c0,6.617,5.383,12,12,12c0.319,0,0.633-0.016,0.944-0.044c1.375-0.14,2.591,0.888,2.717,2.263s-0.888,2.591-2.263,2.716
					C73.346,103.463,72.88,103.486,72.408,103.486z"/>
			</g>
		</g>
		<g>
			<g>
				<g>
					<path d="M62.14,78.313c-1.381,0-2.5-1.119-2.5-2.5v-8.059c0-27.42,22.308-49.729,49.729-49.729
						c27.42,0,49.729,22.309,49.729,49.729v7.87c0,1.381-1.119,2.5-2.5,2.5s-2.5-1.119-2.5-2.5v-7.87
						c0-24.663-20.065-44.729-44.729-44.729c-24.664,0-44.729,20.065-44.729,44.729v8.059C64.64,77.194,63.521,78.313,62.14,78.313z
						"/>
				</g>
			</g>
		</g>
		<g>
			<g>
				<g>
					<path d="M143.631,156.454c-0.263,0-0.53-0.042-0.794-0.13c-1.411-0.473-2.784-1.037-4.081-1.676l-8.587-4.234
						c-4.182-2.063-6.78-6.239-6.78-10.902v-9.637c0-1.381,1.119-2.5,2.5-2.5s2.5,1.119,2.5,2.5v9.637
						c0,2.745,1.529,5.204,3.991,6.418l8.587,4.234c1.095,0.539,2.259,1.017,3.458,1.418c1.31,0.438,2.015,1.855,1.577,3.165
						C145.651,155.793,144.677,156.454,143.631,156.454z"/>
				</g>
			</g>
			<g>
				<g>
					<path d="M145.183,256H73.556c-2.854,0-5.177-2.322-5.177-5.177v-9.58c0-7.066-0.912-14.078-2.713-20.896v30.476
						c0,2.854-2.322,5.177-5.177,5.177H38.5c-1.768,0-3.478-0.736-4.692-2.021c-1.215-1.284-1.855-3.033-1.757-4.798l2.742-75.37
						c0.413-7.403,5.488-13.554,12.631-15.353l24.832-6.268c1.903-0.479,3.758-1.161,5.515-2.027l8.587-4.234
						c2.461-1.214,3.991-3.673,3.991-6.418v-9.918c0-1.381,1.119-2.5,2.5-2.5s2.5,1.119,2.5,2.5v9.918
						c0,4.663-2.598,8.84-6.78,10.902l-8.587,4.234c-2.073,1.022-4.261,1.826-6.504,2.392l-24.832,6.268
						c-5.012,1.262-8.571,5.575-8.859,10.734l-2.742,75.369c-0.033,0.595,0.233,0.962,0.395,1.133
						c0.161,0.17,0.513,0.456,1.06,0.456h21.99c0.098,0,0.177-0.079,0.177-0.177v-47.143c0-1.235,0.902-2.285,2.123-2.472
						c1.222-0.191,2.395,0.547,2.763,1.727l3.883,12.438c2.617,8.384,3.944,17.087,3.944,25.869v9.58
						c0,0.098,0.079,0.177,0.177,0.177h71.627c0.098,0,0.177-0.079,0.177-0.177v-9.58c0-7.068,0.879-14.161,2.612-21.081
						c0.335-1.34,1.693-2.154,3.032-1.817c1.339,0.335,2.153,1.693,1.817,3.032c-1.634,6.522-2.462,13.207-2.462,19.866v9.58
						C150.359,253.678,148.037,256,145.183,256z"/>
				</g>
			</g>
		</g>
		<g>
			<g>
				<path d="M109.369,117.757c-4.776,0-9.262-1.949-11.999-5.214c-0.887-1.059-0.748-2.636,0.31-3.522
					c1.059-0.887,2.635-0.748,3.522,0.31c1.798,2.146,4.852,3.427,8.167,3.427c3.315,0,6.368-1.281,8.167-3.427
					c0.888-1.058,2.464-1.197,3.522-0.31c1.058,0.887,1.197,2.464,0.31,3.522C118.63,115.808,114.145,117.757,109.369,117.757z"/>
			</g>
		</g>
		<g>
			<g>
				<path d="M143.767,156.499c-0.259,0-0.522-0.041-0.783-0.127c-1.465-0.482-2.888-1.063-4.228-1.724l-8.587-4.234
					c-1.239-0.61-1.748-2.109-1.137-3.348c0.61-1.238,2.109-1.749,3.348-1.137l8.587,4.234c1.132,0.558,2.337,1.049,3.583,1.46
					c1.311,0.432,2.023,1.846,1.591,3.157C145.794,155.832,144.816,156.499,143.767,156.499z"/>
			</g>
		</g>
		<g>
			<g>
				<path d="M180.238,256h-21.989c-2.854,0-5.177-2.322-5.177-5.177V224.75c0-1.381,1.119-2.5,2.5-2.5s2.5,1.119,2.5,2.5v26.073
					c0,0.098,0.079,0.177,0.177,0.177h21.989c0.547,0,0.898-0.286,1.06-0.456c0.161-0.171,0.428-0.539,0.397-1.085l-0.59-16.199
					c-0.051-1.38,1.027-2.539,2.407-2.589c1.357-0.063,2.538,1.026,2.589,2.407l0.588,16.151c0.096,1.718-0.545,3.466-1.76,4.75
					C183.716,255.264,182.006,256,180.238,256z"/>
			</g>
		</g>
		<g>
			<g>
				<path d="M109.369,255c-1.381,0-2.5-1.119-2.5-2.5v-19.637c0-1.631-0.202-3.243-0.599-4.792l-20.203-78.784
					c-0.343-1.338,0.463-2.7,1.801-3.043c1.341-0.338,2.7,0.464,3.043,1.801l20.202,78.783c0.501,1.954,0.756,3.985,0.756,6.035
					V252.5C111.869,253.881,110.75,255,109.369,255z"/>
			</g>
		</g>
		<g>
			<g>
				<circle cx="126.658" cy="90.816" r="4"/>
			</g>
		</g>
		<g>
			<g>
				<circle cx="93.079" cy="90.816" r="4"/>
			</g>
		</g>
		<g>
			<g>
				<path d="M113.261,91.172h-7.783c-1.381,0-2.5-1.119-2.5-2.5s1.119-2.5,2.5-2.5h7.783c1.381,0,2.5,1.119,2.5,2.5
					S114.642,91.172,113.261,91.172z"/>
			</g>
		</g>
		<g>
			<g>
				<path d="M133.136,106.182h-8.618c-7.049,0-12.785-5.735-12.785-12.784v-5.961c0-5.296,4.308-9.604,9.604-9.604h14.979
					c5.296,0,9.604,4.309,9.604,9.604v5.961C145.921,100.446,140.186,106.182,133.136,106.182z M121.337,82.832
					c-2.539,0-4.604,2.065-4.604,4.604v5.961c0,4.292,3.492,7.784,7.785,7.784h8.618c4.293,0,7.785-3.492,7.785-7.784v-5.961
					c0-2.539-2.065-4.604-4.604-4.604H121.337z"/>
			</g>
		</g>
		<g>
			<g>
				<path d="M94.22,106.182h-8.618c-7.049,0-12.785-5.735-12.785-12.784v-5.961c0-5.296,4.308-9.604,9.604-9.604H97.4
					c5.296,0,9.604,4.309,9.604,9.604v5.961C107.004,100.446,101.269,106.182,94.22,106.182z M82.421,82.832
					c-2.539,0-4.604,2.065-4.604,4.604v5.961c0,4.292,3.492,7.784,7.785,7.784h8.618c4.292,0,7.785-3.492,7.785-7.784v-5.961
					c0-2.539-2.065-4.604-4.604-4.604H82.421z"/>
			</g>
		</g>
		<g>
			<g>
				<path d="M182.613,234.848c-13.091,0-26.183-4.982-36.148-14.949c-19.933-19.933-19.933-52.364,0-72.297
					c19.932-19.934,52.365-19.934,72.297,0l0,0c19.932,19.933,19.932,52.364,0,72.297
					C208.796,229.865,195.704,234.848,182.613,234.848z M182.613,137.649c-11.811,0-23.622,4.496-32.613,13.487
					c-17.982,17.983-17.982,47.243,0,65.227c17.982,17.982,47.244,17.982,65.227,0c17.981-17.983,17.981-47.243,0-65.227
					C206.235,142.146,194.424,137.649,182.613,137.649z"/>
			</g>
		</g>
		<g>
			<g>
				<path d="M193.053,210.474c-1.828,0-3.64-0.446-5.302-1.326c-3.218-1.702-7.06-1.702-10.275,0
					c-2.688,1.423-5.769,1.713-8.67,0.814c-2.904-0.897-5.284-2.873-6.699-5.563c-2.688-5.105-1.118-11.412,3.649-14.672
					c1.585-1.082,2.83-2.243,3.702-3.452c3.124-4.336,7.919-6.823,13.155-6.823s10.031,2.487,13.156,6.823
					c0.87,1.208,2.114,2.369,3.7,3.452c4.769,3.259,6.338,9.566,3.65,14.672c-1.416,2.69-3.795,4.666-6.7,5.563
					C195.312,210.305,194.18,210.474,193.053,210.474z M182.613,202.87c2.567,0,5.136,0.619,7.478,1.858
					c1.503,0.797,3.227,0.96,4.854,0.456c1.627-0.502,2.959-1.608,3.752-3.114c1.504-2.858,0.623-6.39-2.048-8.215c0,0,0,0-0.001,0
					c-2.064-1.412-3.725-2.979-4.935-4.658c-2.174-3.017-5.49-4.746-9.1-4.746s-6.926,1.729-9.1,4.747
					c-1.212,1.681-2.873,3.248-4.937,4.657c-2.671,1.825-3.551,5.356-2.047,8.215c0.793,1.506,2.125,2.612,3.751,3.114
					c1.627,0.504,3.35,0.34,4.854-0.455C177.477,203.489,180.045,202.87,182.613,202.87z"/>
			</g>
		</g>
		<g>
			<g>
				<path d="M173.245,178.545c-1.952,0-3.919-0.781-5.561-2.242c-1.873-1.668-3.204-4.077-3.749-6.787
					c-1.175-5.854,1.725-11.391,6.464-12.343c2.395-0.485,4.939,0.285,6.98,2.102c1.873,1.667,3.204,4.077,3.749,6.787l0,0
					c0.544,2.709,0.247,5.446-0.837,7.708c-1.181,2.465-3.232,4.153-5.627,4.635C174.196,178.499,173.721,178.545,173.245,178.545z
					 M171.837,162.03c-0.148,0-0.299,0.014-0.452,0.045c-1.968,0.396-3.158,3.412-2.547,6.456c0.327,1.628,1.118,3.1,2.171,4.036
					c0.505,0.449,1.526,1.167,2.671,0.935c1.151-0.231,1.813-1.285,2.104-1.894c0.609-1.271,0.771-2.934,0.443-4.563l0,0
					c-0.327-1.628-1.118-3.1-2.171-4.036C173.619,162.621,172.797,162.03,171.837,162.03z"/>
			</g>
		</g>
		<g>
			<g>
				<path d="M191.981,178.545c-0.476,0-0.951-0.047-1.421-0.141c-2.395-0.481-4.445-2.17-5.627-4.635
					c-1.083-2.262-1.38-4.999-0.836-7.708l0,0c0.545-2.709,1.876-5.119,3.749-6.787c2.04-1.816,4.584-2.58,6.98-2.102
					c2.395,0.481,4.445,2.17,5.627,4.635c1.083,2.262,1.38,4.999,0.836,7.708c-0.545,2.71-1.876,5.119-3.749,6.787
					C195.9,177.764,193.934,178.545,191.981,178.545z M189,167.046c-0.327,1.629-0.166,3.292,0.443,4.563
					c0.291,0.608,0.951,1.662,2.103,1.894c1.155,0.237,2.168-0.486,2.671-0.935c1.053-0.937,1.844-2.408,2.171-4.036
					c0.327-1.629,0.166-3.292-0.443-4.563c-0.291-0.608-0.951-1.662-2.103-1.894c-1.152-0.235-2.167,0.486-2.671,0.935
					C190.118,163.946,189.327,165.418,189,167.046L189,167.046z"/>
			</g>
		</g>
		<g>
			<g>
				<path d="M206.818,189.938c-1.763,0-3.442-0.526-4.813-1.628c-1.904-1.53-2.945-3.975-2.858-6.706
					c0.08-2.506,1.078-5.072,2.81-7.227c3.739-4.653,9.85-5.976,13.618-2.945c3.768,3.029,3.789,9.279,0.049,13.933
					C213.244,188.325,209.904,189.938,206.818,189.938z M210.746,174.787c-1.573,0-3.517,1.011-4.893,2.723
					c-1.041,1.295-1.663,2.845-1.709,4.254c-0.021,0.674,0.079,1.914,0.994,2.649c1.566,1.26,4.644,0.238,6.589-2.182
					s2.279-5.646,0.715-6.903C211.984,174.96,211.396,174.787,210.746,174.787z"/>
			</g>
		</g>
		<g>
			<g>
				<path d="M158.36,189.954c-0.754,0-1.527-0.097-2.304-0.294c-2.431-0.616-4.723-2.143-6.454-4.296
					c-1.731-2.154-2.729-4.721-2.81-7.227c-0.087-2.731,0.954-5.176,2.858-6.706c3.77-3.03,9.877-1.707,13.618,2.945
					c1.731,2.154,2.729,4.721,2.809,7.227c0.088,2.731-0.955,5.176-2.858,6.706C161.875,189.392,160.176,189.954,158.36,189.954z
					 M154.48,174.787c-0.651,0-1.238,0.173-1.696,0.541c-0.915,0.735-1.016,1.976-0.994,2.649c0.046,1.409,0.668,2.959,1.709,4.254
					s2.421,2.236,3.787,2.583c0.653,0.167,1.887,0.335,2.801-0.401c0.915-0.735,1.016-1.977,0.994-2.65
					c-0.045-1.408-0.667-2.958-1.708-4.253C157.997,175.798,156.054,174.787,154.48,174.787z"/>
			</g>
		</g>
		<g>
			<g>
				<path d="M109.369,176c-5.709,0-11.309-1.552-16.194-4.488c-1.184-0.711-1.566-2.247-0.855-3.431s2.248-1.564,3.43-0.854
					c4.108,2.469,8.817,3.773,13.619,3.773c4.813,0,9.53-1.31,13.641-3.786c1.182-0.713,2.718-0.332,3.432,0.852
					c0.712,1.183,0.331,2.719-0.852,3.432C120.701,174.442,115.091,176,109.369,176z"/>
			</g>
		</g>
		<g>
			<g>
				<path d="M109.424,233.846c-0.305,0-0.613-0.056-0.91-0.172c-1.018-0.397-1.659-1.41-1.584-2.5
					c0.103-1.491,0.336-2.953,0.694-4.347l20.209-78.811c0.343-1.338,1.712-2.136,3.043-1.801c1.337,0.343,2.144,1.705,1.801,3.043
					l-18.511,72.186l19.665-24.497c0.862-1.074,2.436-1.25,3.515-0.384c1.076,0.864,1.248,2.438,0.384,3.515l-26.356,32.833
					C110.89,233.515,110.167,233.846,109.424,233.846z"/>
			</g>
		</g>
		<g>
			<g>
				<path d="M109.089,233.564c-0.732,0-1.457-0.319-1.951-0.935l-31.712-39.504c-1.168-1.456-1.425-3.532-0.654-5.291l4.727-10.795
					c0.012-0.027,0.016-0.065,0.015-0.102l-7.083-3.53c-1.777-0.886-2.8-2.999-2.487-5.14l2.022-13.854
					c0.199-1.366,1.467-2.311,2.834-2.112c1.366,0.199,2.313,1.469,2.113,2.835l-2.022,13.854c-0.003,0.02-0.004,0.038-0.003,0.055
					l7.083,3.53c2.237,1.114,3.183,4.017,2.108,6.47l-4.727,10.796c-0.021,0.05-0.018,0.151,0,0.192l31.686,39.465
					c0.864,1.077,0.692,2.65-0.385,3.515C110.191,233.385,109.638,233.564,109.089,233.564z M74.901,169.136h0.01H74.901z"/>
			</g>
		</g>
		<g>
			<g>
				<path class="st7" d="M45.709,104.33c-4.498-0.838-8.043-4.31-8.898-8.716c-0.043-0.221-0.352-0.221-0.395,0
					c-0.855,4.406-4.4,7.879-8.898,8.716c-0.226,0.042-0.226,0.345,0,0.387c4.498,0.838,8.043,4.31,8.898,8.717
					c0.043,0.221,0.352,0.221,0.395,0c0.855-4.406,4.4-7.879,8.898-8.717C45.935,104.675,45.935,104.373,45.709,104.33z"/>
			</g>
		</g>
		<g>
			<g>
				<path class="st8" d="M185.402,112.101c-2.862-0.533-5.118-2.743-5.663-5.547c-0.027-0.141-0.224-0.141-0.251,0
					c-0.544,2.804-2.8,5.014-5.663,5.547c-0.144,0.027-0.144,0.219,0,0.246c2.862,0.533,5.118,2.743,5.663,5.547
					c0.027,0.141,0.224,0.141,0.251,0c0.544-2.804,2.8-5.014,5.663-5.547C185.546,112.32,185.546,112.128,185.402,112.101z"/>
			</g>
		</g>
		<g>
			<g>
				<path class="st6" d="M159.134,25.75h2.33v-2.33c0-1.744,1.413-3.157,3.157-3.157c1.744,0,3.157,1.413,3.157,3.157v2.33h2.329
					c1.744,0,3.157,1.413,3.157,3.157s-1.413,3.157-3.157,3.157h-2.329v2.33c0,1.744-1.413,3.157-3.157,3.157
					c-1.744,0-3.157-1.413-3.157-3.157v-2.33h-2.33c-1.744,0-3.157-1.413-3.157-3.157S157.39,25.75,159.134,25.75z"/>
			</g>
		</g>
		<g>
			<g>
				<circle class="st9" cx="25.642" cy="140.825" r="3.377"/>
			</g>
		</g>
		<g>
			<g>
				<circle class="st7" cx="139.642" cy="3.377" r="3.377"/>
			</g>
		</g>
	</g>
</g>
<g id="Layer_59">
</g>
<g id="Layer_60">
</g>
<g id="Layer_61">
</g>
<g id="Layer_62">
</g>
<g id="Layer_63">
</g>
<g id="Layer_64">
</g>
<g id="Layer_65">
</g>
<g id="Layer_66">
</g>
<g id="Layer_67">
</g>
<g id="Layer_68">
</g>
<g id="Layer_69">
</g>
<g id="Layer_70">
</g>
<g id="Layer_71">
</g>
<g id="Layer_72">
</g>
<g id="Layer_73">
</g>
<g id="Layer_74">
</g>
<g id="Layer_75">
</g>
<g id="Layer_76">
</g>
<g id="Layer_77">
</g>
<g id="Layer_78">
</g>
<g id="Layer_79">
</g>
<g id="Layer_80">
</g>
</svg>
