<?xml version="1.0" encoding="utf-8"?>
<!-- Generator: Adobe Illustrator 24.0.0, SVG Export Plug-In . SVG Version: 6.00 Build 0)  -->
<svg version="1.1" xmlns="http://www.w3.org/2000/svg" xmlns:xlink="http://www.w3.org/1999/xlink" x="0px" y="0px"
	 viewBox="0 0 256 256" style="enable-background:new 0 0 256 256;" xml:space="preserve">
<style type="text/css">
	.st0{fill:#3A70BF;}
	.st1{fill:#EDF4FC;}
	.st2{fill:#C7D7E5;}
	.st3{fill:#F9D0B4;}
	.st4{fill:#5B5D60;}
	.st5{fill:#5290DB;}
	.st6{fill:#70D6F9;}
	.st7{fill:#F5C84C;}
	.st8{fill:#FC657E;}
	.st9{fill:#87D147;}
	.st10{fill:#FCDD86;}
	.st11{fill:#9BE5F9;}
	.st12{fill:#B2E26D;}
	.st13{fill:#754E34;}
	.st14{fill:#FCA265;}
	.st15{fill:#818182;}
	.st16{fill:#F94EED;}
	.st17{fill:#FFC197;}
	.st18{fill:#3CAADC;}
	.st19{fill:#DAE6F1;}
	.st20{fill:#57AF12;}
	.st21{fill:#EF4460;}
	.st22{fill:#FFF0CA;}
	.st23{fill:#F98FA6;}
	.st24{fill:#EDB311;}
	.st25{fill:#FC8C48;}
	.st26{fill:#FCB9CB;}
	.st27{fill:#96BC71;}
	.st28{fill:#78A352;}
	.st29{fill:#B8DD90;}
	.st30{fill:#6FAFEF;}
	.st31{fill:#29589F;}
	.st32{fill:#414344;}
	.st33{fill:#9B6B4B;}
	.st34{fill:#73B1EF;}
</style>
<g id="Layer_1">
</g>
<g id="Layer_2">
</g>
<g id="Layer_3">
</g>
<g id="Layer_4">
	<g>
		<g>
			<g>
				<path class="st1" d="M214.291,130.661h-90.292c-4.124,0-7.499,3.375-7.499,7.499v107.841c0,4.124,3.375,7.499,7.499,7.499
					h90.292c4.124,0,7.499-3.375,7.499-7.499V138.16C221.79,134.036,218.415,130.661,214.291,130.661z"/>
			</g>
		</g>
		<g>
			<g>
				<path class="st0" d="M214.291,130.661h-90.292c-4.124,0-7.499,3.375-7.499,7.499v12.34h105.29v-12.34
					C221.79,134.036,218.415,130.661,214.291,130.661z"/>
			</g>
		</g>
		<g>
			<g>
				<path class="st6" d="M116.5,246.001V150.5v-12.34c0-4.124,3.375-7.499,7.499-7.499h1.56v-1.682
					c-4.92,2.682-10.551,4.208-16.52,4.208c-5.97,0-11.6-1.526-16.52-4.208v10.533c0,3.677-2.088,7.034-5.386,8.66l-8.587,4.234
					c-1.919,0.946-3.933,1.687-6.009,2.209l-24.833,6.269c-6.044,1.521-10.396,6.796-10.743,13.019l-2.744,75.418
					c-0.127,2.269,1.68,4.179,3.953,4.179h21.99c1.478,0,2.677-1.198,2.677-2.677v-47.143l3.883,12.439
					c2.539,8.133,3.83,16.604,3.83,25.124v9.58c0,1.478,1.198,2.677,2.677,2.677h30.345h10.936h9.492
					C119.874,253.5,116.5,250.125,116.5,246.001z"/>
			</g>
		</g>
		<g>
			<g>
				<path class="st7" d="M205.293,180.434h-3.814c-0.198,0-0.37-0.13-0.43-0.319c-0.297-0.942-0.672-1.85-1.122-2.714
					c-0.092-0.176-0.061-0.388,0.079-0.529l2.695-2.695c0.893-0.893,0.893-2.341,0-3.234l-3.544-3.544
					c-0.893-0.893-2.341-0.893-3.234,0l-2.695,2.695c-0.14,0.14-0.353,0.17-0.529,0.079c-0.863-0.449-1.771-0.825-2.714-1.122
					c-0.189-0.06-0.319-0.232-0.319-0.43v-3.814c0-1.263-1.024-2.287-2.287-2.287h-5.012c-1.263,0-2.287,1.024-2.287,2.287v3.814
					c0,0.198-0.13,0.37-0.319,0.43c-0.942,0.297-1.85,0.672-2.714,1.122c-0.176,0.092-0.388,0.061-0.529-0.079l-2.695-2.695
					c-0.893-0.893-2.341-0.893-3.234,0l-3.544,3.544c-0.893,0.893-0.893,2.341,0,3.234l2.695,2.695
					c0.14,0.14,0.17,0.353,0.079,0.529c-0.449,0.863-0.824,1.771-1.122,2.714c-0.06,0.189-0.232,0.319-0.43,0.319h-3.814
					c-1.263,0-2.287,1.024-2.287,2.287v5.012c0,1.263,1.024,2.287,2.287,2.287h3.814c0.198,0,0.37,0.13,0.43,0.319
					c0.297,0.942,0.672,1.85,1.122,2.714c0.092,0.176,0.061,0.388-0.079,0.529l-2.695,2.695c-0.893,0.893-0.893,2.341,0,3.234
					l3.544,3.544c0.893,0.893,2.341,0.893,3.234,0l2.695-2.695c0.14-0.14,0.353-0.17,0.529-0.079
					c0.863,0.449,1.771,0.824,2.714,1.122c0.189,0.06,0.319,0.232,0.319,0.43v3.814c0,1.263,1.024,2.287,2.287,2.287h5.012
					c1.263,0,2.287-1.024,2.287-2.287v-3.814c0-0.198,0.13-0.37,0.319-0.43c0.942-0.297,1.85-0.672,2.714-1.122
					c0.176-0.092,0.388-0.061,0.529,0.079l2.695,2.695c0.893,0.893,2.341,0.893,3.234,0l3.544-3.544
					c0.893-0.893,0.893-2.341,0-3.234l-2.695-2.695c-0.14-0.14-0.17-0.353-0.079-0.529c0.449-0.863,0.825-1.771,1.122-2.714
					c0.06-0.189,0.232-0.319,0.43-0.319h3.814c1.263,0,2.287-1.024,2.287-2.287v-5.012
					C207.58,181.458,206.556,180.434,205.293,180.434z M184.875,193.796c-4.733,0-8.57-3.837-8.57-8.57
					c0-4.733,3.837-8.57,8.57-8.57c4.733,0,8.57,3.837,8.57,8.57C193.445,189.96,189.608,193.796,184.875,193.796z"/>
			</g>
		</g>
		<g>
			<g>
				<g>
					<path class="st8" d="M195.924,203.054l-2.695-2.695c-0.14-0.14-0.353-0.17-0.529-0.079c-0.863,0.449-1.771,0.824-2.714,1.122
						c-0.189,0.06-0.319,0.232-0.319,0.43v3.814c0,1.263-1.024,2.287-2.287,2.287h-5.012c-1.263,0-2.287-1.024-2.287-2.287v-3.814
						c0-0.198-0.13-0.37-0.319-0.43c-0.943-0.297-1.85-0.672-2.714-1.122c-0.176-0.092-0.388-0.061-0.529,0.079l-0.321,0.321
						c0.646,1.525,1.003,3.203,1.003,4.963c0,7.038-5.706,12.744-12.744,12.744c-7.038,0-12.744-5.706-12.744-12.744
						c0-7.038,5.706-12.744,12.744-12.744c1.761,0,3.438,0.357,4.963,1.003l0.321-0.321c0.14-0.14,0.171-0.353,0.079-0.529
						c-0.449-0.863-0.825-1.771-1.122-2.714c-0.06-0.189-0.232-0.319-0.43-0.319h-3.814c-1.263,0-2.287-1.024-2.287-2.287v-5.012
						c0-1.263,1.024-2.287,2.287-2.287h3.814c0.198,0,0.37-0.13,0.43-0.319c0.297-0.942,0.672-1.85,1.122-2.714
						c0.092-0.176,0.061-0.388-0.079-0.529l-2.695-2.695c-0.623-0.623-0.801-1.513-0.555-2.299h-5.761
						c-1.878,0-3.401,1.523-3.401,3.401v5.671c0,0.295-0.193,0.551-0.474,0.64c-1.402,0.442-2.751,1-4.035,1.668
						c-0.262,0.136-0.578,0.091-0.786-0.117l-4.008-4.008c-1.328-1.328-3.481-1.328-4.809,0l-5.27,5.27
						c-1.328,1.328-1.328,3.481,0,4.809l4.008,4.008c0.209,0.209,0.253,0.525,0.117,0.786c-0.668,1.284-1.226,2.634-1.668,4.035
						c-0.089,0.281-0.344,0.474-0.64,0.474h-5.671c-1.878,0-3.401,1.523-3.401,3.401v7.453c0,1.878,1.523,3.401,3.401,3.401h5.671
						c0.295,0,0.551,0.193,0.64,0.474c0.442,1.402,1,2.751,1.668,4.035c0.136,0.262,0.091,0.578-0.117,0.786l-4.008,4.008
						c-1.328,1.328-1.328,3.481,0,4.809l5.27,5.27c1.328,1.328,3.481,1.328,4.809,0l4.008-4.008
						c0.209-0.209,0.525-0.254,0.786-0.117c1.284,0.668,2.634,1.226,4.035,1.668c0.281,0.089,0.474,0.344,0.474,0.64v5.671
						c0,1.878,1.523,3.401,3.401,3.401h7.453c1.878,0,3.401-1.523,3.401-3.401v-5.671c0-0.295,0.193-0.551,0.474-0.64
						c1.401-0.442,2.751-1,4.035-1.668c0.262-0.136,0.578-0.091,0.786,0.117l4.008,4.008c1.328,1.328,3.481,1.328,4.809,0l5.27-5.27
						c1.328-1.328,1.328-3.481,0-4.809l-4.008-4.008c-0.209-0.209-0.253-0.525-0.117-0.786c0.668-1.284,1.226-2.634,1.668-4.035
						c0.089-0.281,0.344-0.474,0.64-0.474h5.671c1.878,0,3.401-1.523,3.401-3.401v-5.761
						C197.437,203.855,196.546,203.676,195.924,203.054z"/>
				</g>
			</g>
		</g>
		<g>
			<g>
				<path class="st3" d="M35.433,215.9l-1.216,33.42c-0.127,2.269,1.68,4.179,3.953,4.179h21.99c1.478,0,2.677-1.198,2.677-2.677
					v-25.971C53.344,222.537,44.183,219.534,35.433,215.9z"/>
			</g>
		</g>
		<g>
			<g>
				<path class="st3" d="M145.999,71.985c-0.759,0-1.502,0.064-2.229,0.177c0,3.696,0,20.799,0,26.293v0v0
					c0,0.783-0.036,1.558-0.088,2.329c0.756,0.122,1.526,0.202,2.316,0.202c8.009,0,14.501-6.492,14.501-14.501
					C160.5,78.477,154.008,71.985,145.999,71.985z"/>
			</g>
		</g>
		<g>
			<g>
				<path class="st3" d="M125.651,60.642c-5.29,6.174-24.047,24.906-51.344,17.13v20.684c0,19.102,15.629,34.732,34.732,34.732l0,0
					c19.102,0,34.732-15.629,34.732-34.732v-28.06c0-1.276-0.893-2.358-2.136-2.646c-3.515-0.814-7.782-2.85-12.673-7.294
					C127.993,59.577,126.502,59.649,125.651,60.642z"/>
			</g>
		</g>
		<g>
			<g>
				<path class="st3" d="M74.307,77.771c-2.385-0.679-4.834-1.559-7.346-2.668c-1.619-0.715-3.511-0.386-4.803,0.825
					c-2.817,2.641-4.581,6.39-4.581,10.557c0,8.008,6.492,14.501,14.501,14.501c0.79,0,1.56-0.08,2.316-0.202
					c-0.052-0.771-0.088-1.546-0.088-2.329V77.771z"/>
			</g>
		</g>
		<g>
			<g>
				<g>
					<path class="st10" d="M62.158,75.929c1.291-1.211,3.183-1.54,4.803-0.825c2.512,1.109,4.961,1.988,7.346,2.668
						c27.297,7.776,46.055-10.956,51.344-17.13c0.85-0.992,2.342-1.065,3.309-0.186c4.892,4.445,9.159,6.48,12.673,7.294
						c1.243,0.288,2.136,1.37,2.136,2.646v1.766c0.727-0.113,1.47-0.177,2.229-0.177c4.012,0,7.643,1.63,10.268,4.263v-8.494
						c0-25.976-21.253-47.229-47.229-47.229c-25.976,0-47.229,21.253-47.229,47.229v8.535
						C61.928,76.171,62.036,76.043,62.158,75.929z"/>
				</g>
			</g>
		</g>
		<g>
			<g>
				<path class="st10" d="M151.991,130.661c-1.166-3.022-1.534-6.02-0.278-9.161c4.101-10.251,3.995-18.131,2.92-23.384
					c-2.414,1.795-5.395,2.871-8.634,2.871c-0.79,0-1.56-0.08-2.316-0.202c-0.816,12.152-7.945,22.647-18.124,28.194v1.682H151.991z
					"/>
			</g>
		</g>
		<g>
			<g>
				<path class="st10" d="M72.537,154.615c2.075-0.523,4.089-1.263,6.009-2.209l8.587-4.234c3.298-1.626,5.386-4.984,5.386-8.66
					v-10.533c-10.179-5.548-17.308-16.042-18.124-28.194c-0.756,0.122-1.526,0.202-2.316,0.202c-3.239,0-6.22-1.075-8.634-2.87
					c-1.075,5.253-1.18,13.133,2.92,23.384c4.655,11.637-12.887,21.309-11.338,37.536L72.537,154.615z"/>
			</g>
		</g>
		<g>
			<g>
				<path class="st3" d="M116.5,150.5v-12.34c0-4.124,3.375-7.499,7.499-7.499h1.56v-1.682c-4.92,2.682-10.551,4.208-16.52,4.208
					c-5.97,0-11.6-1.526-16.52-4.208v10.533c0,3.677-2.088,7.034-5.386,8.66l-8.587,4.234c-0.351,0.173-0.708,0.331-1.065,0.49
					c5.508,11.944,17.602,20.291,31.557,20.291c2.56,0,5.056-0.286,7.461-0.819V150.5z"/>
			</g>
		</g>
		<g>
			<g>
				<path d="M109.038,117.757c-4.776,0-9.262-1.95-11.998-5.215c-0.887-1.059-0.748-2.635,0.311-3.522
					c1.058-0.887,2.636-0.748,3.521,0.31c1.798,2.146,4.851,3.427,8.166,3.427s6.369-1.281,8.167-3.427
					c0.887-1.059,2.466-1.196,3.521-0.31c1.059,0.887,1.197,2.463,0.311,3.522C118.301,115.808,113.815,117.757,109.038,117.757z"/>
			</g>
		</g>
		<g>
			<g>
				<circle cx="126.328" cy="90.816" r="4"/>
			</g>
		</g>
		<g>
			<g>
				<circle cx="92.749" cy="90.816" r="4"/>
			</g>
		</g>
		<g>
			<g>
				<path d="M112.93,91.171h-7.783c-1.381,0-2.5-1.119-2.5-2.5s1.119-2.5,2.5-2.5h7.783c1.381,0,2.5,1.119,2.5,2.5
					S114.311,91.171,112.93,91.171z"/>
			</g>
		</g>
		<g>
			<g>
				<circle cx="130.709" cy="140.816" r="4"/>
			</g>
		</g>
		<g>
			<g>
				<circle cx="142.709" cy="140.816" r="4"/>
			</g>
		</g>
		<g>
			<g>
				<circle cx="154.709" cy="140.816" r="4"/>
			</g>
		</g>
		<g>
			<g>
				<path d="M214.291,256h-90.292c-5.514,0-9.999-4.485-9.999-9.999V138.16c0-5.514,4.485-9.999,9.999-9.999h90.292
					c5.514,0,9.999,4.485,9.999,9.999v107.841C224.29,251.515,219.805,256,214.291,256z M123.999,133.161
					c-2.757,0-4.999,2.243-4.999,4.999v107.841c0,2.756,2.242,4.999,4.999,4.999h90.292c2.757,0,4.999-2.243,4.999-4.999V138.16
					c0-2.756-2.242-4.999-4.999-4.999H123.999z"/>
			</g>
		</g>
		<g>
			<g>
				<path d="M208.919,143.5h-15.5c-1.381,0-2.5-1.119-2.5-2.5s1.119-2.5,2.5-2.5h15.5c1.381,0,2.5,1.119,2.5,2.5
					S210.3,143.5,208.919,143.5z"/>
			</g>
		</g>
		<g>
			<g>
				<path class="st7" d="M50.822,123.33c-4.498-0.838-8.043-4.31-8.898-8.716c-0.043-0.221-0.352-0.221-0.395,0
					c-0.855,4.406-4.4,7.879-8.898,8.716c-0.226,0.042-0.226,0.345,0,0.387c4.498,0.838,8.043,4.31,8.898,8.717
					c0.043,0.221,0.352,0.221,0.395,0c0.855-4.406,4.4-7.879,8.898-8.717C51.047,123.675,51.047,123.373,50.822,123.33z"/>
			</g>
		</g>
		<g>
			<g>
				<path class="st6" d="M184.515,112.101c-2.862-0.533-5.118-2.743-5.663-5.547c-0.027-0.141-0.224-0.141-0.251,0
					c-0.544,2.804-2.8,5.014-5.663,5.547c-0.144,0.027-0.144,0.219,0,0.246c2.862,0.533,5.118,2.743,5.663,5.547
					c0.027,0.141,0.224,0.141,0.251,0c0.544-2.804,2.8-5.014,5.663-5.547C184.658,112.32,184.658,112.128,184.515,112.101z"/>
			</g>
		</g>
		<g>
			<g>
				<path class="st8" d="M167.246,25.75h2.33v-2.33c0-1.744,1.413-3.157,3.157-3.157s3.157,1.413,3.157,3.157v2.33h2.329
					c1.744,0,3.157,1.413,3.157,3.157s-1.413,3.157-3.157,3.157h-2.329v2.33c0,1.744-1.413,3.157-3.157,3.157
					s-3.157-1.413-3.157-3.157v-2.33h-2.33c-1.744,0-3.157-1.413-3.157-3.157S165.502,25.75,167.246,25.75z"/>
			</g>
		</g>
		<g>
			<g>
				<circle class="st9" cx="28.755" cy="152.825" r="3.377"/>
			</g>
		</g>
		<g>
			<g>
				<circle class="st7" cx="159.755" cy="3.377" r="3.377"/>
			</g>
		</g>
		<g>
			<g>
				<path d="M221.063,153H117.625c-1.381,0-2.5-1.119-2.5-2.5s1.119-2.5,2.5-2.5h103.438c1.381,0,2.5,1.119,2.5,2.5
					S222.443,153,221.063,153z"/>
			</g>
		</g>
		<g>
			<g>
				<path d="M123.999,256H73.226c-2.854,0-5.177-2.322-5.177-5.177v-9.58c0-7.064-0.911-14.077-2.713-20.895v30.474
					c0,2.854-2.322,5.177-5.177,5.177h-21.99c-1.768,0-3.478-0.737-4.692-2.021c-1.215-1.285-1.854-3.033-1.756-4.798l2.742-75.37
					c0.412-7.403,5.487-13.554,12.631-15.352l24.831-6.268c1.904-0.479,3.76-1.162,5.516-2.027l8.587-4.234
					c2.462-1.214,3.991-3.673,3.991-6.418v-9.866c0-1.381,1.119-2.5,2.5-2.5s2.5,1.119,2.5,2.5v9.866
					c0,4.663-2.598,8.84-6.78,10.902l-8.587,4.234c-2.071,1.021-4.26,1.826-6.504,2.391l-24.831,6.268
					c-5.013,1.262-8.572,5.575-8.859,10.734l-2.742,75.37c-0.032,0.594,0.233,0.961,0.395,1.132S37.623,251,38.169,251h21.99
					c0.098,0,0.177-0.079,0.177-0.177v-47.143c0-1.235,0.902-2.285,2.123-2.472c1.219-0.187,2.395,0.548,2.764,1.727l3.883,12.438
					c2.616,8.386,3.943,17.089,3.943,25.87v9.58c0,0.098,0.079,0.177,0.177,0.177h50.773c1.381,0,2.5,1.119,2.5,2.5
					S125.38,256,123.999,256z"/>
			</g>
		</g>
		<g>
			<g>
				<path d="M187.381,210.432h-5.012c-2.64,0-4.787-2.147-4.787-4.787v-2.372c-0.104-0.042-0.208-0.085-0.312-0.128l-1.678,1.677
					c-0.903,0.904-2.105,1.402-3.385,1.402c-1.278,0-2.48-0.498-3.385-1.403l-3.543-3.543c-0.904-0.903-1.402-2.106-1.402-3.385
					s0.498-2.481,1.402-3.385l1.677-1.677c-0.044-0.103-0.087-0.207-0.129-0.311h-2.372c-2.64,0-4.787-2.147-4.787-4.787v-5.012
					c0-2.639,2.147-4.787,4.787-4.787h2.372c0.042-0.104,0.085-0.208,0.129-0.312l-1.677-1.677
					c-0.904-0.903-1.402-2.106-1.402-3.385s0.498-2.481,1.402-3.385l3.544-3.543c0.903-0.904,2.105-1.402,3.384-1.402
					c1.279,0,2.481,0.498,3.386,1.403l1.677,1.676c0.104-0.043,0.207-0.086,0.312-0.129v-2.372c0-2.639,2.147-4.787,4.787-4.787
					h5.012c2.639,0,4.786,2.147,4.786,4.787v2.372c0.104,0.042,0.209,0.085,0.313,0.129l1.677-1.677
					c0.903-0.904,2.105-1.402,3.385-1.402c1.278,0,2.48,0.498,3.385,1.403l3.543,3.543c0.904,0.903,1.402,2.106,1.402,3.385
					s-0.498,2.481-1.402,3.385l-1.677,1.676c0.044,0.104,0.087,0.208,0.129,0.312h2.372c2.64,0,4.787,2.147,4.787,4.787v5.012
					c0,2.64-2.147,4.787-4.787,4.787h-2.372c-0.042,0.104-0.085,0.208-0.129,0.312l1.677,1.677c0.904,0.903,1.402,2.106,1.402,3.385
					s-0.498,2.481-1.402,3.385l-3.544,3.543c-0.903,0.904-2.105,1.402-3.384,1.402c-1.279,0-2.481-0.498-3.386-1.403l-1.676-1.676
					c-0.104,0.044-0.208,0.087-0.313,0.129v2.372C192.167,208.284,190.02,210.432,187.381,210.432z M182.582,205.432h4.585v-3.6
					c0-1.294,0.832-2.426,2.069-2.815c0.801-0.253,1.579-0.574,2.31-0.955c1.146-0.597,2.531-0.387,3.447,0.525l2.548,2.547
					l3.242-3.242l-2.544-2.544c-0.915-0.911-1.129-2.299-0.529-3.451c0.381-0.73,0.702-1.508,0.956-2.312
					c0.388-1.234,1.52-2.065,2.813-2.065h3.601v-4.585h-3.601c-1.294,0-2.426-0.832-2.814-2.069c-0.253-0.8-0.574-1.579-0.955-2.31
					c-0.6-1.151-0.386-2.539,0.532-3.454l2.541-2.541l-3.243-3.242l-2.544,2.544c-0.913,0.916-2.303,1.129-3.453,0.527
					c-0.728-0.378-1.506-0.7-2.309-0.953c-1.235-0.389-2.067-1.52-2.067-2.814v-3.601h-4.585v3.601c0,1.294-0.832,2.425-2.069,2.814
					c-0.8,0.252-1.577,0.574-2.309,0.955c-1.15,0.597-2.535,0.384-3.448-0.525l-2.548-2.547l-3.242,3.242l2.544,2.544
					c0.915,0.911,1.129,2.299,0.529,3.451c-0.381,0.731-0.702,1.508-0.954,2.31c-0.389,1.237-1.521,2.068-2.815,2.068h-3.601v4.585
					h3.601c1.295,0,2.427,0.832,2.815,2.069c0.252,0.8,0.573,1.578,0.954,2.31c0.6,1.151,0.386,2.539-0.532,3.454l-2.541,2.541
					l3.243,3.242l2.544-2.544c0.917-0.915,2.3-1.126,3.449-0.53c0.733,0.382,1.511,0.703,2.313,0.956
					c1.235,0.389,2.067,1.52,2.067,2.814V205.432z M179.008,203.785c0.002,0,0.003,0.001,0.005,0.001
					C179.011,203.786,179.01,203.785,179.008,203.785z M190.744,203.784c-0.002,0-0.004,0.001-0.006,0.002
					C190.74,203.785,190.742,203.784,190.744,203.784z M193.857,202.496c-0.002,0.001-0.004,0.002-0.007,0.003
					C193.854,202.498,193.855,202.497,193.857,202.496z M167.603,194.204c0.001,0.001,0.001,0.001,0.001,0.002
					C167.604,194.206,167.604,194.205,167.603,194.204z M202.146,194.204c0,0-0.001,0.001-0.001,0.002
					C202.146,194.205,202.146,194.204,202.146,194.204z M167.975,191.813c-0.002,0.002-0.004,0.003-0.006,0.005L167.975,191.813z
					 M201.771,191.81l0.006,0.005C201.775,191.813,201.773,191.812,201.771,191.81z M203.435,191.088
					c-0.001,0.002-0.001,0.004-0.002,0.007C203.434,191.093,203.434,191.091,203.435,191.088z M166.315,191.089
					c0.001,0.001,0.001,0.002,0.001,0.003C166.316,191.092,166.316,191.091,166.315,191.089z M205.293,182.934h0.01H205.293z
					 M166.316,179.362c0,0.001-0.001,0.002-0.001,0.003C166.315,179.364,166.316,179.363,166.316,179.362z M203.432,179.354
					c0,0.002,0.001,0.005,0.002,0.007C203.433,179.359,203.432,179.356,203.432,179.354z M167.972,178.638
					c0.002,0.001,0.004,0.003,0.006,0.005L167.972,178.638z M201.78,178.635l-0.006,0.005
					C201.776,178.638,201.778,178.637,201.78,178.635z M167.604,176.248c0,0-0.001,0.001-0.001,0.002
					C167.603,176.249,167.604,176.248,167.604,176.248z M202.146,176.247c0,0.001,0,0.001,0.001,0.002
					C202.146,176.248,202.146,176.248,202.146,176.247z M191.463,168.325c-0.002,0.001-0.004,0.003-0.005,0.005L191.463,168.325z
					 M193.848,167.952c0.002,0.001,0.005,0.002,0.007,0.003C193.853,167.955,193.85,167.954,193.848,167.952z M179.011,166.667
					c-0.002,0-0.004,0.001-0.006,0.002C179.007,166.669,179.009,166.668,179.011,166.667z M190.736,166.667
					c0.002,0,0.003,0.001,0.005,0.001C190.739,166.668,190.738,166.667,190.736,166.667z M184.875,196.296
					c-6.104,0-11.07-4.966-11.07-11.07s4.966-11.07,11.07-11.07c6.104,0,11.069,4.966,11.069,11.07S190.979,196.296,184.875,196.296
					z M184.875,179.157c-3.348,0-6.07,2.723-6.07,6.07s2.723,6.07,6.07,6.07c3.347,0,6.069-2.723,6.069-6.07
					S188.222,179.157,184.875,179.157z"/>
			</g>
		</g>
		<g>
			<g>
				<g>
					<path d="M164.458,220.887c-8.405,0-15.244-6.838-15.244-15.244s6.839-15.244,15.244-15.244c1.802,0,3.566,0.312,5.245,0.927
						c1.296,0.475,1.962,1.911,1.487,3.208c-0.476,1.296-1.914,1.96-3.208,1.487c-1.126-0.413-2.312-0.622-3.524-0.622
						c-5.648,0-10.244,4.596-10.244,10.244s4.596,10.244,10.244,10.244s10.244-4.596,10.244-10.244c0-1.208-0.208-2.39-0.617-3.513
						c-0.473-1.297,0.195-2.732,1.492-3.205c1.295-0.472,2.732,0.195,3.205,1.492c0.61,1.673,0.92,3.432,0.92,5.226
						C179.702,214.049,172.863,220.887,164.458,220.887z"/>
				</g>
			</g>
			<g>
				<g>
					<path d="M168.185,241.908h-7.453c-3.254,0-5.9-2.647-5.9-5.901v-4.362c-0.663-0.245-1.314-0.514-1.953-0.807l-3.083,3.083
						c-1.114,1.115-2.596,1.729-4.172,1.729c-1.577,0-3.059-0.614-4.173-1.729l-5.27-5.271c-1.114-1.114-1.729-2.596-1.729-4.172
						s0.614-3.058,1.729-4.172l3.083-3.083c-0.293-0.638-0.563-1.291-0.808-1.953h-4.361c-3.254,0-5.901-2.647-5.901-5.9v-7.453
						c0-3.254,2.647-5.901,5.901-5.901h4.361c0.245-0.662,0.515-1.314,0.808-1.953l-3.083-3.083
						c-1.114-1.115-1.729-2.597-1.729-4.173s0.614-3.058,1.729-4.172l5.27-5.27c1.114-1.115,2.596-1.729,4.173-1.729
						c1.576,0,3.058,0.614,4.172,1.729l3.083,3.083c0.639-0.293,1.291-0.563,1.953-0.807v-4.362c0-3.253,2.646-5.9,5.9-5.9h5.102
						c1.381,0,2.5,1.119,2.5,2.5s-1.119,2.5-2.5,2.5h-5.102c-0.496,0-0.9,0.404-0.9,0.9v5.671c0,1.389-0.893,2.604-2.222,3.023
						c-1.259,0.397-2.481,0.902-3.635,1.502c-1.233,0.643-2.724,0.415-3.705-0.565l-4.01-4.01c-0.229-0.229-0.498-0.264-0.637-0.264
						c-0.14,0-0.408,0.034-0.638,0.264l-5.27,5.27c-0.351,0.352-0.351,0.923,0,1.274l4.008,4.007
						c0.981,0.986,1.208,2.473,0.569,3.705c-0.603,1.158-1.107,2.38-1.503,3.636c-0.421,1.331-1.636,2.223-3.024,2.223h-5.671
						c-0.497,0-0.901,0.404-0.901,0.901v7.453c0,0.497,0.404,0.9,0.901,0.9h5.671c1.389,0,2.604,0.893,3.023,2.221
						c0.396,1.259,0.901,2.481,1.502,3.635c0.642,1.236,0.414,2.725-0.565,3.706l-4.01,4.01c-0.229,0.23-0.264,0.498-0.264,0.637
						c0,0.139,0.034,0.407,0.264,0.636l5.27,5.271c0.229,0.229,0.498,0.264,0.638,0.264c0.139,0,0.407-0.034,0.637-0.264
						l4.008-4.008c0.985-0.983,2.476-1.208,3.708-0.567c1.152,0.6,2.375,1.105,3.633,1.501c1.328,0.417,2.223,1.633,2.223,3.023
						v5.671c0,0.497,0.404,0.901,0.9,0.901h7.453c0.497,0,0.901-0.404,0.901-0.901v-5.671c0-1.391,0.894-2.606,2.225-3.024
						c1.256-0.396,2.479-0.901,3.63-1.5c1.234-0.641,2.724-0.416,3.707,0.565l4.009,4.01c0.229,0.229,0.498,0.264,0.637,0.264
						c0.14,0,0.408-0.034,0.638-0.264l5.271-5.271c0.229-0.229,0.264-0.498,0.264-0.637c0-0.14-0.034-0.407-0.264-0.637
						l-4.008-4.008c-0.984-0.981-1.212-2.474-0.565-3.711c0.597-1.146,1.102-2.368,1.5-3.63c0.42-1.33,1.635-2.222,3.023-2.222
						h5.671c0.496,0,0.9-0.404,0.9-0.9v-5.214c0-1.381,1.119-2.5,2.5-2.5s2.5,1.119,2.5,2.5v5.214c0,3.253-2.646,5.9-5.9,5.9h-4.362
						c-0.245,0.663-0.514,1.315-0.807,1.953l3.083,3.083c1.114,1.114,1.729,2.596,1.729,4.172s-0.614,3.058-1.729,4.172l-5.271,5.27
						c-1.114,1.115-2.596,1.729-4.173,1.729c-1.576,0-3.058-0.614-4.172-1.729l-3.083-3.083c-0.638,0.293-1.29,0.562-1.952,0.807
						v4.362C174.086,239.261,171.438,241.908,168.185,241.908z M156.103,232.08c0.001,0,0.003,0.001,0.005,0.001
						C156.105,232.081,156.104,232.081,156.103,232.08z M189.064,218.428c-0.001,0.002-0.002,0.004-0.003,0.005
						C189.063,218.432,189.063,218.43,189.064,218.428z"/>
				</g>
			</g>
		</g>
		<g>
			<g>
				<path d="M62.144,227.182c-0.199,0-0.401-0.024-0.604-0.074c-9.056-2.244-17.957-5.153-26.457-8.647
					c-1.277-0.525-1.887-1.986-1.362-3.263c0.525-1.276,1.988-1.885,3.263-1.362c8.273,3.401,16.94,6.233,25.76,8.418
					c1.34,0.332,2.157,1.688,1.825,3.028C64.286,226.42,63.266,227.182,62.144,227.182z"/>
			</g>
		</g>
		<g>
			<g>
				<path d="M145.999,103.487c-0.509,0-1.018-0.026-1.558-0.081c-1.373-0.139-2.374-1.365-2.235-2.739s1.361-2.38,2.739-2.236
					c0.347,0.035,0.697,0.056,1.054,0.056c6.617,0,12.001-5.384,12.001-12.001s-5.384-12-12.001-12
					c-0.313,0-0.621,0.013-0.926,0.038c-1.374,0.106-2.581-0.916-2.692-2.292c-0.11-1.376,0.916-2.582,2.292-2.692
					c0.438-0.035,0.879-0.054,1.326-0.054c9.374,0,17.001,7.626,17.001,17C163,95.86,155.373,103.487,145.999,103.487z"/>
			</g>
		</g>
		<g>
			<g>
				<path d="M109.038,135.687c-20.529,0-37.231-16.702-37.231-37.232V77.771c0-0.784,0.368-1.523,0.994-1.995
					c0.626-0.474,1.44-0.624,2.19-0.409c25.921,7.383,43.876-10.65,48.762-16.352l0,0c0.849-0.991,2.032-1.581,3.333-1.662
					c1.293-0.081,2.591,0.375,3.556,1.252c3.952,3.591,7.84,5.848,11.557,6.709c2.397,0.556,4.072,2.645,4.072,5.081v28.06
					C146.271,118.985,129.568,135.687,109.038,135.687z M76.807,80.979v17.476c0,17.773,14.459,32.232,32.231,32.232
					c17.773,0,32.232-14.459,32.232-32.232v-28.06c0-0.113-0.101-0.187-0.201-0.21c-4.515-1.046-9.108-3.656-13.656-7.759
					C122.056,68.626,103.619,86.859,76.807,80.979z"/>
			</g>
		</g>
		<g>
			<g>
				<path d="M72.078,103.487c-9.374,0-17.001-7.626-17.001-17.001c0-4.668,1.958-9.181,5.371-12.381
					c2.03-1.904,4.982-2.41,7.523-1.288c2.331,1.029,4.692,1.887,7.02,2.55c1.328,0.378,2.098,1.761,1.72,3.089
					c-0.377,1.328-1.761,2.099-3.089,1.72c-2.548-0.726-5.129-1.663-7.671-2.785c-0.701-0.31-1.518-0.168-2.083,0.361
					c-2.444,2.292-3.791,5.394-3.791,8.734c0,6.617,5.384,12.001,12.001,12.001c0.317,0,0.631-0.017,0.94-0.045
					c1.394-0.127,2.593,0.884,2.72,2.259s-0.885,2.592-2.259,2.719C73.018,103.463,72.552,103.487,72.078,103.487z"/>
			</g>
		</g>
		<g>
			<g>
				<g>
					<path d="M61.81,78.5c-1.381,0-2.5-1.119-2.5-2.5v-8.245c0-27.421,22.309-49.729,49.729-49.729
						c27.421,0,49.729,22.308,49.729,49.729v7.787c0,1.381-1.119,2.5-2.5,2.5s-2.5-1.119-2.5-2.5v-7.787
						c0-24.664-20.065-44.729-44.729-44.729c-24.663,0-44.729,20.065-44.729,44.729V76C64.31,77.381,63.19,78.5,61.81,78.5z"/>
				</g>
			</g>
		</g>
		<g>
			<g>
				<path d="M151.629,132.146c-1.055,0-2.035-0.673-2.378-1.731c-1.142-3.531-1.096-6.751,0.141-9.844
					c3.063-7.659,4.053-14.781,2.94-21.171c-0.237-1.36,0.674-2.655,2.034-2.892c1.356-0.238,2.654,0.674,2.892,2.034
					c1.274,7.316,0.189,15.353-3.224,23.885c-0.796,1.991-0.805,4.04-0.025,6.448c0.425,1.314-0.296,2.723-1.609,3.148
					C152.144,132.107,151.885,132.146,151.629,132.146z"/>
			</g>
		</g>
		<g>
			<g>
				<path d="M54.968,160.811c-1.311,0-2.412-1.021-2.493-2.347c-0.523-8.511,3.571-15.204,7.184-21.109
					c3.882-6.346,6.171-10.461,4.385-14.926c-3.462-8.655-4.529-16.792-3.171-24.184c0.25-1.359,1.551-2.254,2.911-2.007
					c1.357,0.25,2.256,1.553,2.007,2.911c-0.814,4.434-0.974,11.75,2.896,21.423c2.808,7.02-1.041,13.31-4.763,19.393
					c-3.385,5.533-6.885,11.254-6.458,18.193c0.085,1.378-0.964,2.564-2.342,2.648C55.071,160.809,55.019,160.811,54.968,160.811z"
					/>
			</g>
		</g>
		<g>
			<g>
				<path d="M132.806,106.182h-8.618c-7.049,0-12.784-5.735-12.784-12.785v-5.961c0-5.295,4.309-9.604,9.604-9.604h14.979
					c5.295,0,9.604,4.308,9.604,9.604v5.961C145.59,100.447,139.854,106.182,132.806,106.182z M121.007,82.833
					c-2.538,0-4.604,2.065-4.604,4.604v5.961c0,4.293,3.492,7.785,7.784,7.785h8.618c4.292,0,7.784-3.492,7.784-7.785v-5.961
					c0-2.539-2.065-4.604-4.604-4.604H121.007z"/>
			</g>
		</g>
		<g>
			<g>
				<path d="M93.89,106.182h-8.618c-7.049,0-12.784-5.735-12.784-12.785v-5.961c0-5.295,4.309-9.604,9.604-9.604H97.07
					c5.295,0,9.604,4.308,9.604,9.604v5.961C106.674,100.447,100.938,106.182,93.89,106.182z M82.091,82.833
					c-2.538,0-4.604,2.065-4.604,4.604v5.961c0,4.293,3.492,7.785,7.784,7.785h8.618c4.292,0,7.784-3.492,7.784-7.785v-5.961
					c0-2.539-2.065-4.604-4.604-4.604H82.091z"/>
			</g>
		</g>
		<g>
			<g>
				<path d="M109.038,175.687c-14.112,0-27.254-8.248-33.48-21.013c-0.605-1.241-0.09-2.738,1.151-3.343
					c1.242-0.604,2.737-0.089,3.343,1.151c5.394,11.059,16.771,18.205,28.986,18.205c2.037,0,4.088-0.198,6.096-0.588
					c1.358-0.263,2.668,0.622,2.932,1.977c0.264,1.355-0.622,2.667-1.977,2.931C113.767,175.458,111.395,175.687,109.038,175.687z"
					/>
			</g>
		</g>
	</g>
</g>
<g id="Layer_5">
</g>
<g id="Layer_6">
</g>
<g id="Layer_7">
</g>
<g id="Layer_8">
</g>
<g id="Layer_9">
</g>
<g id="Layer_10">
</g>
<g id="Layer_11">
</g>
<g id="Layer_12">
</g>
<g id="Layer_13">
</g>
<g id="Layer_14">
</g>
<g id="Layer_15">
</g>
<g id="Layer_16">
</g>
<g id="Layer_17">
</g>
<g id="Layer_18">
</g>
<g id="Layer_19">
</g>
<g id="Layer_20">
</g>
<g id="Layer_21">
</g>
<g id="Layer_22">
</g>
<g id="Layer_23">
</g>
<g id="Layer_24">
</g>
<g id="Layer_25">
</g>
<g id="Layer_26">
</g>
<g id="Layer_27">
</g>
<g id="Layer_28">
</g>
<g id="Layer_29">
</g>
<g id="Layer_30">
</g>
<g id="Layer_31">
</g>
<g id="Layer_32">
</g>
<g id="Layer_33">
</g>
<g id="Layer_34">
</g>
<g id="Layer_35">
</g>
<g id="Layer_36">
</g>
<g id="Layer_37">
</g>
<g id="Layer_38">
</g>
<g id="Layer_39">
</g>
<g id="Layer_40">
</g>
<g id="Layer_41">
</g>
<g id="Layer_42">
</g>
<g id="Layer_43">
</g>
<g id="Layer_44">
</g>
<g id="Layer_45">
</g>
<g id="Layer_46">
</g>
<g id="Layer_47">
</g>
<g id="Layer_48">
</g>
<g id="Layer_49">
</g>
<g id="Layer_50">
</g>
<g id="Layer_51">
</g>
<g id="Layer_52">
</g>
<g id="Layer_53">
</g>
<g id="Layer_54">
</g>
<g id="Layer_55">
</g>
<g id="Layer_56">
</g>
<g id="Layer_57">
</g>
<g id="Layer_58">
</g>
<g id="Layer_59">
</g>
<g id="Layer_60">
</g>
<g id="Layer_61">
</g>
<g id="Layer_62">
</g>
<g id="Layer_63">
</g>
<g id="Layer_64">
</g>
<g id="Layer_65">
</g>
<g id="Layer_66">
</g>
<g id="Layer_67">
</g>
<g id="Layer_68">
</g>
<g id="Layer_69">
</g>
<g id="Layer_70">
</g>
<g id="Layer_71">
</g>
<g id="Layer_72">
</g>
<g id="Layer_73">
</g>
<g id="Layer_74">
</g>
<g id="Layer_75">
</g>
<g id="Layer_76">
</g>
<g id="Layer_77">
</g>
<g id="Layer_78">
</g>
<g id="Layer_79">
</g>
<g id="Layer_80">
</g>
</svg>
