<?xml version="1.0" encoding="utf-8"?>
<!-- Generator: Adobe Illustrator 24.0.0, SVG Export Plug-In . SVG Version: 6.00 Build 0)  -->
<svg version="1.1" xmlns="http://www.w3.org/2000/svg" xmlns:xlink="http://www.w3.org/1999/xlink" x="0px" y="0px"
	 viewBox="0 0 256 256" style="enable-background:new 0 0 256 256;" xml:space="preserve">
<style type="text/css">
	.st0{fill:#3A70BF;}
	.st1{fill:#EDF4FC;}
	.st2{fill:#C7D7E5;}
	.st3{fill:#F9D0B4;}
	.st4{fill:#5B5D60;}
	.st5{fill:#5290DB;}
	.st6{fill:#70D6F9;}
	.st7{fill:#F5C84C;}
	.st8{fill:#FC657E;}
	.st9{fill:#87D147;}
	.st10{fill:#FCDD86;}
	.st11{fill:#9BE5F9;}
	.st12{fill:#B2E26D;}
	.st13{fill:#754E34;}
	.st14{fill:#FCA265;}
	.st15{fill:#818182;}
	.st16{fill:#F94EED;}
	.st17{fill:#FFC197;}
	.st18{fill:#3CAADC;}
	.st19{fill:#DAE6F1;}
	.st20{fill:#57AF12;}
	.st21{fill:#EF4460;}
	.st22{fill:#FFF0CA;}
	.st23{fill:#F98FA6;}
	.st24{fill:#EDB311;}
	.st25{fill:#FC8C48;}
	.st26{fill:#FCB9CB;}
	.st27{fill:#96BC71;}
	.st28{fill:#78A352;}
	.st29{fill:#B8DD90;}
	.st30{fill:#6FAFEF;}
	.st31{fill:#29589F;}
	.st32{fill:#414344;}
	.st33{fill:#9B6B4B;}
	.st34{fill:#73B1EF;}
</style>
<g id="Layer_1">
</g>
<g id="Layer_2">
</g>
<g id="Layer_3">
	<g>
		<g>
			<g>
				<path class="st3" d="M117.461,138.16c0-4.124,3.375-7.499,7.499-7.499h9.954c8.314-6.84,13.64-17.197,13.64-28.738V68.772
					c0-0.194-0.002-0.388-0.006-0.582c-0.021-1.055-0.866-1.925-1.921-1.956c-15.46-0.453-23.606-6.581-26.736-9.649
					c-0.854-0.838-2.234-0.749-2.979,0.187c-13.593,17.094-33.644,14.681-40.386,13.27c-1.225-0.256-2.401,0.667-2.402,1.919
					c0,0.008,0,0.017,0,0.025v29.936c0,20.468,16.747,37.215,37.215,37.215h0c2.085,0,4.128-0.182,6.122-0.516V138.16z"/>
			</g>
		</g>
		<g>
			<g>
				<g>
					<path class="st10" d="M71.736,73.561c0.813,0,1.609,0.069,2.388,0.189v-1.763c0-0.008,0-0.017,0-0.025
						c0.001-1.252,1.177-2.175,2.402-1.919c6.742,1.411,26.794,3.823,40.386-13.27c0.745-0.937,2.124-1.025,2.978-0.187
						c3.13,3.068,11.276,9.196,26.736,9.649c1.055,0.031,1.9,0.901,1.921,1.956c0.004,0.194,0.006,0.388,0.006,0.582v4.978
						c0.779-0.121,1.575-0.189,2.388-0.189c4.188,0,7.982,1.665,10.777,4.36V49.973c0-11.692-9.566-21.258-21.258-21.258
						c-3.966,0-7.673,1.121-10.859,3.031c-3.722-6.211-10.502-10.405-18.23-10.405h-10.916c-21.127,0-38.413,17.286-38.413,38.413
						v17.212C64.7,74.84,68.067,73.561,71.736,73.561z"/>
				</g>
			</g>
		</g>
		<g>
			<g>
				<path class="st3" d="M150.942,73.561c-0.813,0-1.609,0.069-2.388,0.189c0,3.96,0,22.286,0,28.173
					c0,0.839-0.038,1.67-0.094,2.496c0.81,0.13,1.635,0.217,2.482,0.217c8.581,0,15.537-6.956,15.537-15.537
					S159.523,73.561,150.942,73.561z"/>
			</g>
		</g>
		<g>
			<g>
				<path class="st3" d="M74.124,101.923c0-3.856,0-20.507,0-28.173c-0.779-0.121-1.575-0.189-2.388-0.189
					c-8.581,0-15.538,6.957-15.538,15.538s6.956,15.537,15.538,15.537c0.847,0,1.672-0.086,2.482-0.217v-0.001
					C74.163,103.593,74.124,102.762,74.124,101.923z"/>
			</g>
		</g>
		<g>
			<g>
				<path class="st1" d="M215.252,130.661H124.96c-4.124,0-7.499,3.375-7.499,7.499v107.841c0,4.124,3.375,7.499,7.499,7.499h90.292
					c4.124,0,7.499-3.375,7.499-7.499V138.16C222.751,134.036,219.377,130.661,215.252,130.661z"/>
			</g>
		</g>
		<g>
			<g>
				<path class="st6" d="M117.461,246.001V138.613c-1.995,0.334-4.036,0.525-6.122,0.525h0c-5.959,0-11.597-1.427-16.604-3.945
					v5.778c0,3.443-1.379,6.671-3.722,9.04l14.659,15.411c0.77,0.81,0.78,2.078,0.022,2.899l-8.157,8.837
					c-0.936,1.014-2.552,0.97-3.431-0.094L79.051,158.84c-0.484-0.586-0.551-1.382-0.23-2.026l-1.471,0.725l-28.902,7.275
					c-6.233,1.569-10.721,7.008-11.078,13.425l-4.115,70.951c-0.13,2.34,1.732,4.31,4.076,4.31h87.629
					C120.836,253.5,117.461,250.125,117.461,246.001z"/>
			</g>
		</g>
		<g>
			<g>
				<path class="st0" d="M215.252,130.661H124.96c-4.124,0-7.499,3.375-7.499,7.499v12.34h105.29v-12.34
					C222.751,134.036,219.377,130.661,215.252,130.661z"/>
			</g>
		</g>
		<g>
			<g>
				<path class="st7" d="M206.255,180.434h-3.814c-0.198,0-0.37-0.13-0.43-0.319c-0.297-0.942-0.672-1.85-1.122-2.714
					c-0.092-0.176-0.061-0.388,0.079-0.529l2.695-2.695c0.893-0.893,0.893-2.341,0-3.234l-3.544-3.544
					c-0.893-0.893-2.341-0.893-3.234,0l-2.695,2.695c-0.14,0.14-0.353,0.17-0.529,0.079c-0.863-0.449-1.771-0.825-2.714-1.122
					c-0.189-0.06-0.319-0.232-0.319-0.43v-3.814c0-1.263-1.024-2.287-2.287-2.287h-5.012c-1.263,0-2.287,1.024-2.287,2.287v3.814
					c0,0.198-0.13,0.37-0.319,0.43c-0.942,0.297-1.85,0.672-2.714,1.122c-0.176,0.092-0.388,0.061-0.529-0.079l-2.695-2.695
					c-0.893-0.893-2.341-0.893-3.234,0l-3.544,3.544c-0.893,0.893-0.893,2.341,0,3.234l2.695,2.695
					c0.14,0.14,0.17,0.353,0.079,0.529c-0.449,0.863-0.824,1.771-1.122,2.714c-0.06,0.189-0.232,0.319-0.43,0.319h-3.814
					c-1.263,0-2.287,1.024-2.287,2.287v5.012c0,1.263,1.024,2.287,2.287,2.287h3.814c0.198,0,0.37,0.13,0.43,0.319
					c0.297,0.942,0.672,1.85,1.122,2.714c0.092,0.176,0.061,0.388-0.079,0.529l-2.695,2.695c-0.893,0.893-0.893,2.341,0,3.234
					l3.544,3.544c0.893,0.893,2.341,0.893,3.234,0l2.695-2.695c0.14-0.14,0.353-0.17,0.529-0.079
					c0.863,0.449,1.771,0.824,2.714,1.122c0.189,0.06,0.319,0.232,0.319,0.43v3.814c0,1.263,1.024,2.287,2.287,2.287h5.012
					c1.263,0,2.287-1.024,2.287-2.287v-3.814c0-0.198,0.13-0.37,0.319-0.43c0.942-0.297,1.85-0.672,2.714-1.122
					c0.176-0.092,0.388-0.061,0.529,0.079l2.695,2.695c0.893,0.893,2.341,0.893,3.234,0l3.544-3.544
					c0.893-0.893,0.893-2.341,0-3.234l-2.695-2.695c-0.14-0.14-0.17-0.353-0.079-0.529c0.449-0.863,0.825-1.771,1.122-2.714
					c0.06-0.189,0.232-0.319,0.43-0.319h3.814c1.263,0,2.287-1.024,2.287-2.287v-5.012
					C208.541,181.458,207.517,180.434,206.255,180.434z M185.836,193.796c-4.733,0-8.57-3.837-8.57-8.57
					c0-4.733,3.837-8.57,8.57-8.57c4.733,0,8.57,3.837,8.57,8.57C194.406,189.96,190.569,193.796,185.836,193.796z"/>
			</g>
		</g>
		<g>
			<g>
				<g>
					<path class="st8" d="M196.885,203.054l-2.695-2.695c-0.14-0.14-0.353-0.17-0.529-0.079c-0.863,0.449-1.771,0.824-2.714,1.122
						c-0.189,0.06-0.319,0.232-0.319,0.43v3.814c0,1.263-1.024,2.287-2.287,2.287h-5.012c-1.263,0-2.287-1.024-2.287-2.287v-3.814
						c0-0.198-0.13-0.37-0.319-0.43c-0.943-0.297-1.85-0.672-2.714-1.122c-0.176-0.092-0.388-0.061-0.529,0.079l-0.321,0.321
						c0.646,1.525,1.003,3.203,1.003,4.963c0,7.038-5.706,12.744-12.744,12.744c-7.038,0-12.744-5.706-12.744-12.744
						c0-7.038,5.706-12.744,12.744-12.744c1.761,0,3.438,0.357,4.963,1.003l0.321-0.321c0.14-0.14,0.171-0.353,0.079-0.529
						c-0.449-0.863-0.825-1.771-1.122-2.714c-0.06-0.189-0.232-0.319-0.43-0.319h-3.814c-1.263,0-2.287-1.024-2.287-2.287v-5.012
						c0-1.263,1.024-2.287,2.287-2.287h3.814c0.198,0,0.37-0.13,0.43-0.319c0.297-0.942,0.672-1.85,1.122-2.714
						c0.092-0.176,0.061-0.388-0.079-0.529l-2.695-2.695c-0.623-0.623-0.801-1.513-0.555-2.299h-5.761
						c-1.878,0-3.401,1.523-3.401,3.401v5.671c0,0.295-0.193,0.551-0.474,0.64c-1.402,0.442-2.751,1-4.035,1.668
						c-0.262,0.136-0.578,0.091-0.786-0.117l-4.008-4.008c-1.328-1.328-3.481-1.328-4.809,0l-5.27,5.27
						c-1.328,1.328-1.328,3.481,0,4.809l4.008,4.008c0.209,0.209,0.253,0.525,0.117,0.786c-0.668,1.284-1.226,2.634-1.668,4.035
						c-0.089,0.281-0.344,0.474-0.64,0.474h-5.671c-1.878,0-3.401,1.523-3.401,3.401v7.453c0,1.878,1.523,3.401,3.401,3.401h5.671
						c0.295,0,0.551,0.193,0.64,0.474c0.442,1.402,1,2.751,1.668,4.035c0.136,0.262,0.091,0.578-0.117,0.786l-4.008,4.008
						c-1.328,1.328-1.328,3.481,0,4.809l5.27,5.27c1.328,1.328,3.481,1.328,4.809,0l4.008-4.008
						c0.209-0.209,0.525-0.254,0.786-0.117c1.284,0.668,2.634,1.226,4.035,1.668c0.281,0.089,0.474,0.344,0.474,0.64v5.671
						c0,1.878,1.523,3.401,3.401,3.401h7.453c1.878,0,3.401-1.523,3.401-3.401v-5.671c0-0.295,0.193-0.551,0.474-0.64
						c1.401-0.442,2.751-1,4.035-1.668c0.262-0.136,0.578-0.091,0.786,0.117l4.008,4.008c1.328,1.328,3.481,1.328,4.809,0l5.27-5.27
						c1.328-1.328,1.328-3.481,0-4.809l-4.008-4.008c-0.209-0.209-0.253-0.525-0.117-0.786c0.668-1.284,1.226-2.634,1.668-4.035
						c0.089-0.281,0.344-0.474,0.64-0.474h5.671c1.878,0,3.401-1.523,3.401-3.401v-5.761
						C198.398,203.855,197.508,203.676,196.885,203.054z"/>
				</g>
			</g>
		</g>
		<g>
			<g>
				<path class="st3" d="M60.336,218.5H35.035l-1.78,30.69c-0.13,2.34,1.732,4.31,4.076,4.31h23.004V218.5z"/>
			</g>
		</g>
		<g>
			<g>
				<path class="st11" d="M79.232,156.265l8.134-7.427c0.753-0.687,1.917-0.646,2.619,0.092l15.687,16.491
					c0.77,0.81,0.78,2.078,0.022,2.899l-8.157,8.837c-0.936,1.014-2.552,0.97-3.431-0.094L79.051,158.84
					C78.416,158.071,78.495,156.938,79.232,156.265z"/>
			</g>
		</g>
		<g>
			<g>
				<path class="st3" d="M117.461,138.613c-1.995,0.334-4.036,0.525-6.122,0.525h0c-5.959,0-11.597-1.427-16.604-3.945v5.778
					c0,3.443-1.379,6.671-3.722,9.04l14.659,15.411c0.77,0.81,0.78,2.078,0.022,2.899l-0.302,0.327
					c1.939,0.315,3.923,0.49,5.947,0.49h0c2.086,0,4.128-0.19,6.122-0.526V138.613z"/>
			</g>
		</g>
		<g>
			<g>
				<path d="M60.335,255.04c-1.381,0-2.5-1.119-2.5-2.5v-56.644c0-1.381,1.119-2.5,2.5-2.5s2.5,1.119,2.5,2.5v56.644
					C62.835,253.92,61.716,255.04,60.335,255.04z"/>
			</g>
		</g>
		<g>
			<g>
				<path d="M111.88,118.573c-4.776,0-9.261-1.949-11.999-5.215c-0.887-1.058-0.748-2.635,0.31-3.522
					c1.059-0.886,2.635-0.748,3.522,0.31c1.799,2.146,4.852,3.427,8.167,3.427c3.315,0,6.369-1.281,8.167-3.426
					c0.887-1.058,2.464-1.198,3.522-0.31c1.058,0.887,1.197,2.464,0.31,3.522C121.142,116.624,116.657,118.573,111.88,118.573z"/>
			</g>
		</g>
		<g>
			<g>
				<circle cx="128.67" cy="90.816" r="4"/>
			</g>
		</g>
		<g>
			<g>
				<circle cx="131.67" cy="140.816" r="4"/>
			</g>
		</g>
		<g>
			<g>
				<circle cx="143.67" cy="140.816" r="4"/>
			</g>
		</g>
		<g>
			<g>
				<circle cx="155.67" cy="140.816" r="4"/>
			</g>
		</g>
		<g>
			<g>
				<circle cx="95.091" cy="90.816" r="4"/>
			</g>
		</g>
		<g>
			<g>
				<g>
					<path d="M136.856,106.014h-9.237c-7.458,0-13.524-6.067-13.524-13.524V86.1c0-5.577,4.538-10.114,10.115-10.114h16.056
						c5.577,0,10.115,4.537,10.115,10.114v6.39C150.381,99.947,144.313,106.014,136.856,106.014z M124.209,80.986
						c-2.82,0-5.115,2.294-5.115,5.114v6.39c0,4.7,3.824,8.524,8.524,8.524h9.237c4.7,0,8.524-3.824,8.524-8.524V86.1
						c0-2.82-2.295-5.114-5.115-5.114H124.209z"/>
				</g>
			</g>
			<g>
				<g>
					<path d="M95.142,106.014h-9.237c-7.458,0-13.524-6.067-13.524-13.524V86.1c0-5.577,4.538-10.114,10.115-10.114h16.057
						c5.577,0,10.114,4.537,10.114,10.114v6.39C108.666,99.947,102.599,106.014,95.142,106.014z M82.495,80.986
						c-2.82,0-5.115,2.294-5.115,5.114v6.39c0,4.7,3.824,8.524,8.524,8.524h9.237c4.7,0,8.524-3.824,8.524-8.524V86.1
						c0-2.82-2.294-5.114-5.114-5.114H82.495z"/>
				</g>
			</g>
		</g>
		<g>
			<g>
				<path d="M115.552,89.924h-8.343c-1.381,0-2.5-1.119-2.5-2.5s1.119-2.5,2.5-2.5h8.343c1.381,0,2.5,1.119,2.5,2.5
					S116.933,89.924,115.552,89.924z"/>
			</g>
		</g>
		<g>
			<g>
				<path d="M209.881,143.5h-15.5c-1.381,0-2.5-1.119-2.5-2.5s1.119-2.5,2.5-2.5h15.5c1.381,0,2.5,1.119,2.5,2.5
					S211.262,143.5,209.881,143.5z"/>
			</g>
		</g>
		<g>
			<g>
				<path class="st8" d="M185.822,28.33c-4.498-0.838-8.043-4.31-8.898-8.716c-0.043-0.221-0.352-0.221-0.395,0
					c-0.855,4.406-4.4,7.879-8.898,8.716c-0.226,0.042-0.226,0.345,0,0.387c4.498,0.838,8.043,4.31,8.898,8.717
					c0.043,0.221,0.352,0.221,0.395,0c0.855-4.406,4.4-7.879,8.898-8.717C186.047,28.675,186.047,28.373,185.822,28.33z"/>
			</g>
		</g>
		<g>
			<g>
				<path class="st7" d="M184.515,112.101c-2.862-0.533-5.118-2.743-5.663-5.547c-0.027-0.141-0.224-0.141-0.251,0
					c-0.544,2.804-2.8,5.014-5.663,5.547c-0.144,0.027-0.144,0.219,0,0.246c2.862,0.533,5.118,2.743,5.663,5.547
					c0.027,0.141,0.224,0.141,0.251,0c0.544-2.804,2.8-5.014,5.663-5.547C184.658,112.32,184.658,112.128,184.515,112.101z"/>
			</g>
		</g>
		<g>
			<g>
				<path class="st12" d="M45.246,120.75h2.33v-2.33c0-1.744,1.413-3.157,3.157-3.157c1.744,0,3.157,1.413,3.157,3.157v2.33h2.329
					c1.744,0,3.157,1.413,3.157,3.157s-1.413,3.157-3.157,3.157h-2.329v2.33c0,1.744-1.413,3.157-3.157,3.157
					c-1.744,0-3.157-1.413-3.157-3.157v-2.33h-2.33c-1.744,0-3.157-1.413-3.157-3.157S43.502,120.75,45.246,120.75z"/>
			</g>
		</g>
		<g>
			<g>
				<circle class="st6" cx="35.755" cy="152.825" r="3.377"/>
			</g>
		</g>
		<g>
			<g>
				<circle class="st7" cx="159.755" cy="3.377" r="3.377"/>
			</g>
		</g>
		<g>
			<g>
				<path d="M111.339,141.638c-21.899,0-39.715-17.816-39.715-39.715V71.987c0.001-1.371,0.603-2.628,1.65-3.479
					c1.059-0.859,2.431-1.192,3.764-0.912c7.235,1.513,25.417,3.339,37.917-12.38c0.796-1.001,1.982-1.62,3.253-1.698
					c1.271-0.081,2.521,0.389,3.432,1.281c2.593,2.542,10.226,8.501,25.06,8.936c2.391,0.07,4.301,2.005,4.348,4.407
					c0.004,0.208,0.007,0.418,0.007,0.63v33.151c0,11.778-5.229,22.893-14.344,30.496c-1.062,0.884-2.638,0.742-3.521-0.319
					c-0.885-1.06-0.741-2.637,0.318-3.521c7.974-6.65,12.547-16.366,12.547-26.656V68.772c0-0.019,0-0.038,0-0.056
					c-15.155-0.563-23.626-6.308-27.522-9.97c-14.186,17.397-34.918,15.218-41.908,13.867v29.311
					c0,19.142,15.573,34.715,34.715,34.715c1.724,0,3.486-0.137,5.236-0.406c1.363-0.21,2.641,0.726,2.851,2.09
					c0.21,1.365-0.726,2.641-2.09,2.851C115.335,141.482,113.317,141.638,111.339,141.638z"/>
			</g>
		</g>
		<g>
			<g>
				<g>
					<path d="M161.719,80.042c-1.381,0-2.5-1.119-2.5-2.5V49.973c0-10.343-8.415-18.758-18.758-18.758
						c-3.344,0-6.654,0.925-9.574,2.675c-0.568,0.341-1.251,0.441-1.893,0.281c-0.644-0.161-1.196-0.571-1.537-1.14
						c-3.396-5.668-9.56-9.19-16.085-9.19h-10.917c-19.803,0-35.913,16.111-35.913,35.914v16.827c0,1.381-1.119,2.5-2.5,2.5
						s-2.5-1.119-2.5-2.5V59.755c0-22.56,18.354-40.914,40.913-40.914h10.917c7.481,0,14.581,3.641,19.047,9.638
						c3.15-1.487,6.579-2.264,10.042-2.264c13.101,0,23.758,10.658,23.758,23.758v27.569
						C164.219,78.923,163.1,80.042,161.719,80.042z"/>
				</g>
			</g>
		</g>
		<g>
			<g>
				<path d="M150.942,107.136c-0.58,0-1.165-0.033-1.787-0.101c-1.373-0.149-2.364-1.383-2.215-2.756
					c0.149-1.372,1.377-2.365,2.756-2.215c0.44,0.048,0.849,0.071,1.246,0.071c7.188,0,13.037-5.849,13.037-13.038
					s-5.849-13.038-13.037-13.038c-0.416,0-0.844,0.022-1.271,0.065c-1.379,0.143-2.6-0.862-2.739-2.235s0.861-2.6,2.235-2.739
					c10.742-1.08,19.813,7.418,19.813,17.947C168.979,99.044,160.888,107.136,150.942,107.136z"/>
			</g>
		</g>
		<g>
			<g>
				<path d="M71.736,107.136c-9.946,0-18.038-8.092-18.038-18.038c0-10.468,8.952-18.932,19.628-17.964
					c1.375,0.126,2.388,1.342,2.262,2.717s-1.339,2.384-2.717,2.262c-0.374-0.034-0.752-0.053-1.135-0.053
					c-7.189,0-13.038,5.849-13.038,13.038s5.849,13.038,13.038,13.038c0.346,0,0.688-0.018,1.025-0.049
					c1.379-0.132,2.593,0.885,2.719,2.26c0.127,1.375-0.885,2.592-2.26,2.719C72.715,107.112,72.216,107.136,71.736,107.136z"/>
			</g>
		</g>
		<g>
			<g>
				<path d="M215.252,256H124.96c-5.514,0-9.999-4.485-9.999-9.999V138.16c0-5.514,4.485-9.999,9.999-9.999h90.292
					c5.514,0,9.999,4.485,9.999,9.999v107.841C225.251,251.515,220.766,256,215.252,256z M124.96,133.161
					c-2.756,0-4.999,2.243-4.999,4.999v107.841c0,2.756,2.243,4.999,4.999,4.999h90.292c2.757,0,4.999-2.243,4.999-4.999V138.16
					c0-2.756-2.242-4.999-4.999-4.999H124.96z"/>
			</g>
		</g>
		<g>
			<g>
				<path d="M91.191,152.327c-0.619,0-1.238-0.228-1.722-0.688c-1-0.952-1.041-2.534-0.089-3.535
					c1.841-1.937,2.855-4.47,2.855-7.132v-5.253c0-1.381,1.119-2.5,2.5-2.5s2.5,1.119,2.5,2.5v5.253
					c0,3.951-1.503,7.708-4.231,10.578C92.512,152.066,91.853,152.327,91.191,152.327z"/>
			</g>
		</g>
		<g>
			<g>
				<path d="M124.96,256H37.332c-1.802,0-3.545-0.75-4.783-2.06c-1.238-1.309-1.89-3.09-1.79-4.889l4.115-70.957
					c0.42-7.545,5.63-13.859,12.964-15.705l28.645-7.21l1.035-0.51c1.238-0.612,2.738-0.101,3.348,1.137
					c0.611,1.239,0.102,2.737-1.137,3.348l-1.273,0.627c-0.158,0.078-0.324,0.139-0.495,0.182l-28.901,7.274
					c-5.2,1.309-8.895,5.786-9.193,11.14l-4.115,70.957c-0.024,0.433,0.129,0.851,0.431,1.17c0.302,0.319,0.711,0.495,1.15,0.495
					h87.628c1.381,0,2.5,1.119,2.5,2.5S126.341,256,124.96,256z"/>
			</g>
		</g>
		<g>
			<g>
				<path d="M222.219,153H118.125c-1.381,0-2.5-1.119-2.5-2.5s1.119-2.5,2.5-2.5h104.094c1.381,0,2.5,1.119,2.5,2.5
					S223.6,153,222.219,153z"/>
			</g>
		</g>
		<g>
			<g>
				<path d="M188.342,210.432h-5.012c-2.64,0-4.787-2.147-4.787-4.787v-2.372c-0.104-0.042-0.208-0.085-0.312-0.128l-1.677,1.677
					c-1.867,1.866-4.902,1.866-6.77,0l-3.544-3.544c-1.866-1.867-1.866-4.903-0.001-6.769l1.678-1.678
					c-0.043-0.103-0.086-0.207-0.128-0.311h-2.372c-2.64,0-4.787-2.147-4.787-4.787v-5.012c0-2.639,2.147-4.787,4.787-4.787h2.372
					c0.042-0.104,0.085-0.208,0.128-0.312l-1.677-1.677c-1.866-1.867-1.866-4.903-0.001-6.77l3.545-3.544
					c1.867-1.866,4.902-1.866,6.77,0l1.677,1.677c0.104-0.043,0.207-0.086,0.312-0.128v-2.372c0-2.639,2.147-4.787,4.787-4.787
					h5.012c2.64,0,4.787,2.147,4.787,4.787v2.372c0.104,0.042,0.208,0.085,0.312,0.128l1.676-1.677c1.867-1.867,4.903-1.865,6.771,0
					l3.544,3.544c1.866,1.867,1.866,4.903,0.001,6.769l-1.678,1.677c0.044,0.104,0.087,0.208,0.129,0.312h2.372
					c2.639,0,4.786,2.147,4.786,4.787v5.012c0,2.64-2.147,4.787-4.786,4.787h-2.372c-0.042,0.104-0.085,0.208-0.129,0.312
					l1.677,1.676c1.866,1.867,1.866,4.903,0.001,6.77l-3.545,3.544c-1.867,1.866-4.902,1.866-6.77,0l-1.677-1.677
					c-0.104,0.043-0.207,0.086-0.312,0.128v2.372C193.129,208.284,190.981,210.432,188.342,210.432z M183.543,205.432h4.586v-3.6
					c0-1.294,0.832-2.426,2.069-2.815c0.8-0.252,1.577-0.574,2.309-0.955c1.146-0.598,2.532-0.387,3.448,0.525l2.547,2.548
					l3.243-3.243l-2.545-2.544c-0.915-0.918-1.126-2.304-0.528-3.452c0.381-0.731,0.702-1.508,0.954-2.31
					c0.389-1.236,1.521-2.068,2.814-2.068h3.601v-4.585h-3.601c-1.294,0-2.426-0.832-2.814-2.069
					c-0.251-0.796-0.572-1.574-0.955-2.312c-0.597-1.145-0.386-2.531,0.526-3.445l2.548-2.547l-3.243-3.243l-2.543,2.544
					c-0.918,0.914-2.303,1.124-3.45,0.53c-0.733-0.382-1.511-0.703-2.313-0.956c-1.235-0.389-2.067-1.52-2.067-2.814v-3.601h-4.586
					v3.601c0,1.294-0.831,2.426-2.068,2.814c-0.801,0.253-1.579,0.574-2.31,0.955c-1.147,0.601-2.539,0.387-3.453-0.532
					l-2.542-2.542l-3.243,3.243l2.545,2.544c0.915,0.912,1.129,2.3,0.529,3.452c-0.381,0.73-0.702,1.508-0.956,2.312
					c-0.388,1.234-1.52,2.066-2.813,2.066h-3.601v4.585h3.601c1.294,0,2.426,0.832,2.814,2.069c0.253,0.8,0.574,1.579,0.955,2.31
					c0.6,1.151,0.386,2.539-0.532,3.454l-2.542,2.541l3.243,3.243l2.545-2.544c0.913-0.917,2.303-1.129,3.453-0.527
					c0.728,0.378,1.506,0.7,2.309,0.953c1.235,0.388,2.066,1.52,2.066,2.814V205.432z M179.97,203.785
					c0.002,0,0.003,0.001,0.005,0.001C179.973,203.786,179.972,203.785,179.97,203.785z M191.706,203.784
					c-0.002,0-0.004,0.001-0.006,0.002C191.702,203.785,191.704,203.784,191.706,203.784z M176.856,202.498
					c0.002,0.001,0.005,0.002,0.007,0.003C176.861,202.5,176.858,202.499,176.856,202.498z M194.818,202.496
					c-0.002,0.001-0.004,0.002-0.007,0.003C194.814,202.498,194.816,202.497,194.818,202.496z M179.253,202.123l-0.005,0.005
					C179.25,202.126,179.252,202.125,179.253,202.123z M168.564,194.204c0.001,0.001,0.001,0.001,0.001,0.002
					C168.565,194.206,168.565,194.205,168.564,194.204z M203.108,194.204c0,0-0.001,0.001-0.001,0.002
					C203.107,194.205,203.108,194.204,203.108,194.204z M168.937,191.813c-0.002,0.001-0.003,0.003-0.005,0.005L168.937,191.813z
					 M167.277,191.092c0.001,0.002,0.002,0.005,0.002,0.007C167.279,191.097,167.278,191.094,167.277,191.092z M204.396,191.088
					c0,0.001-0.001,0.002-0.001,0.003C204.395,191.09,204.396,191.089,204.396,191.088z M206.255,182.934h0.01H206.255z
					 M167.278,179.358c-0.001,0.002-0.001,0.004-0.002,0.007C167.277,179.362,167.277,179.36,167.278,179.358z M204.395,179.36
					c0,0.001,0,0.002,0.001,0.003C204.395,179.362,204.395,179.361,204.395,179.36z M168.935,178.639
					c0.002,0.001,0.003,0.003,0.005,0.005L168.935,178.639z M203.107,176.247c0.001,0.002,0.002,0.004,0.002,0.005
					C203.109,176.25,203.108,176.249,203.107,176.247z M168.565,176.248c0,0-0.001,0.001-0.001,0.002
					C168.564,176.249,168.565,176.248,168.565,176.248z M179.245,168.322l0.005,0.005
					C179.248,168.325,179.247,168.324,179.245,168.322z M176.859,167.954c-0.002,0.001-0.004,0.002-0.006,0.003
					C176.855,167.956,176.857,167.955,176.859,167.954z M179.973,166.667c-0.002,0-0.004,0.001-0.006,0.002
					C179.969,166.669,179.971,166.668,179.973,166.667z M191.698,166.667c0.002,0,0.003,0.001,0.005,0.001
					C191.701,166.668,191.7,166.667,191.698,166.667z M185.836,196.296c-6.104,0-11.069-4.966-11.069-11.07
					s4.966-11.07,11.069-11.07c6.104,0,11.07,4.966,11.07,11.07S191.94,196.296,185.836,196.296z M185.836,179.157
					c-3.347,0-6.069,2.723-6.069,6.07s2.723,6.07,6.069,6.07c3.348,0,6.07-2.723,6.07-6.07S189.184,179.157,185.836,179.157z"/>
			</g>
		</g>
		<g>
			<g>
				<g>
					<path d="M165.42,220.887c-8.405,0-15.244-6.838-15.244-15.244s6.839-15.244,15.244-15.244c1.84,0,3.64,0.325,5.349,0.966
						c1.293,0.485,1.947,1.926,1.463,3.219s-1.929,1.947-3.219,1.463c-1.146-0.43-2.354-0.647-3.593-0.647
						c-5.648,0-10.244,4.596-10.244,10.244s4.596,10.244,10.244,10.244s10.244-4.596,10.244-10.244c0-1.128-0.182-2.237-0.541-3.295
						c-0.444-1.308,0.256-2.728,1.563-3.171c1.31-0.443,2.728,0.256,3.171,1.563c0.535,1.577,0.807,3.226,0.807,4.902
						C180.664,214.049,173.825,220.887,165.42,220.887z"/>
				</g>
			</g>
			<g>
				<g>
					<path d="M169.146,241.908h-7.453c-3.254,0-5.9-2.647-5.9-5.901v-4.362c-0.663-0.245-1.315-0.515-1.953-0.807l-3.083,3.083
						c-1.114,1.115-2.596,1.729-4.172,1.729c-1.577,0-3.059-0.614-4.173-1.729l-5.271-5.271c-1.114-1.114-1.729-2.596-1.729-4.172
						s0.614-3.058,1.729-4.172l3.083-3.083c-0.293-0.638-0.563-1.29-0.807-1.953h-4.362c-3.254,0-5.9-2.647-5.9-5.9v-7.453
						c0-3.254,2.646-5.901,5.9-5.901h4.362c0.245-0.664,0.515-1.315,0.807-1.953l-3.083-3.083c-1.114-1.115-1.729-2.597-1.729-4.173
						s0.614-3.058,1.729-4.172l5.271-5.271c1.114-1.114,2.596-1.728,4.173-1.728c1.576,0,3.058,0.614,4.172,1.729l3.083,3.083
						c0.638-0.293,1.29-0.562,1.953-0.807v-4.362c0-3.253,2.646-5.9,5.9-5.9h5.015c1.381,0,2.5,1.119,2.5,2.5s-1.119,2.5-2.5,2.5
						h-5.015c-0.496,0-0.9,0.404-0.9,0.9v5.671c0,1.389-0.893,2.604-2.222,3.023c-1.262,0.398-2.483,0.903-3.634,1.502
						c-1.233,0.642-2.724,0.416-3.707-0.565l-4.009-4.01c-0.229-0.229-0.498-0.264-0.637-0.264c-0.14,0-0.408,0.034-0.638,0.264
						l-5.271,5.271c-0.229,0.229-0.264,0.498-0.264,0.637s0.034,0.407,0.264,0.637l4.008,4.007c0.984,0.984,1.211,2.476,0.565,3.712
						c-0.597,1.147-1.102,2.37-1.5,3.63c-0.414,1.326-1.63,2.222-3.022,2.222h-5.672c-0.496,0-0.9,0.404-0.9,0.901v7.453
						c0,0.497,0.404,0.9,0.9,0.9h5.672c1.393,0,2.608,0.896,3.024,2.229c0.396,1.255,0.901,2.477,1.5,3.627
						c0.645,1.234,0.417,2.726-0.569,3.71l-4.006,4.005c-0.229,0.23-0.264,0.498-0.264,0.637c0,0.139,0.034,0.407,0.264,0.636
						l5.271,5.271c0.229,0.229,0.498,0.264,0.638,0.264c0.139,0,0.407-0.034,0.637-0.264l4.007-4.008
						c0.984-0.983,2.475-1.209,3.709-0.567c1.15,0.599,2.372,1.104,3.633,1.501c1.328,0.417,2.223,1.633,2.223,3.023v5.671
						c0,0.497,0.404,0.901,0.9,0.901h7.453c0.496,0,0.9-0.404,0.9-0.901v-5.671c0-1.391,0.895-2.606,2.226-3.024
						c1.255-0.396,2.478-0.901,3.631-1.5c1.232-0.644,2.722-0.416,3.705,0.565l4.01,4.01c0.229,0.229,0.498,0.264,0.637,0.264
						c0.14,0,0.408-0.034,0.638-0.264l5.27-5.271c0.229-0.229,0.264-0.498,0.264-0.637c0-0.14-0.034-0.407-0.264-0.637l-4.008-4.008
						c-0.981-0.983-1.209-2.471-0.569-3.705c0.603-1.157,1.107-2.379,1.503-3.635c0.421-1.331,1.636-2.224,3.024-2.224h5.671
						c0.497,0,0.901-0.404,0.901-0.9v-4.744c0-1.381,1.119-2.5,2.5-2.5s2.5,1.119,2.5,2.5v4.744c0,3.253-2.647,5.9-5.901,5.9h-4.361
						c-0.245,0.662-0.515,1.314-0.808,1.953l3.083,3.083c1.114,1.114,1.729,2.596,1.729,4.172s-0.614,3.058-1.729,4.172l-5.27,5.27
						c-1.114,1.115-2.596,1.729-4.173,1.729c-1.576,0-3.058-0.614-4.172-1.729L177,230.838c-0.639,0.293-1.291,0.563-1.953,0.807
						v4.362C175.047,239.261,172.4,241.908,169.146,241.908z M157.064,232.08c0.001,0,0.003,0.001,0.005,0.001
						C157.067,232.081,157.065,232.081,157.064,232.08z M173.778,232.079c-0.002,0-0.004,0.001-0.005,0.001
						C173.774,232.08,173.776,232.08,173.778,232.079z M140.815,218.432c0.001,0.002,0.002,0.004,0.003,0.006
						C140.817,218.436,140.816,218.434,140.815,218.432z M138.982,213.997c0.001,0.004,0.002,0.007,0.003,0.011
						C138.984,214.004,138.983,214.001,138.982,213.997z M138.983,197.285c-0.001,0.003-0.002,0.007-0.003,0.011
						C138.981,197.292,138.982,197.289,138.983,197.285z M140.816,192.852c-0.001,0.002-0.002,0.004-0.003,0.006
						C140.814,192.856,140.815,192.854,140.816,192.852z"/>
				</g>
			</g>
		</g>
		<g>
			<g>
				<path d="M59.976,221H35.75c-1.381,0-2.5-1.119-2.5-2.5s1.119-2.5,2.5-2.5h24.227c1.381,0,2.5,1.119,2.5,2.5
					S61.357,221,59.976,221z"/>
			</g>
		</g>
		<g>
			<g>
				<path d="M95.862,180.391c-0.043,0-0.087,0-0.131-0.002c-1.379-0.038-2.675-0.669-3.554-1.733l-15.054-18.224
					c-1.486-1.798-1.301-4.439,0.422-6.013h0l8.134-7.427c1.744-1.593,4.488-1.496,6.116,0.216l15.687,16.491
					c1.672,1.76,1.693,4.535,0.048,6.318l-8.158,8.837C98.468,179.835,97.194,180.391,95.862,180.391z M81.359,157.708
					l14.512,17.568l7.744-8.389L88.598,151.1L81.359,157.708z M80.918,158.111l0.001-0.001L80.918,158.111L80.918,158.111z"/>
			</g>
		</g>
		<g>
			<g>
				<path d="M111.339,171.638c-1.782,0-3.608-0.129-5.429-0.383c-1.367-0.191-2.321-1.455-2.13-2.822s1.453-2.319,2.822-2.13
					c3.272,0.458,6.456,0.448,9.773-0.049c1.368-0.2,2.638,0.738,2.842,2.103c0.204,1.365-0.737,2.638-2.103,2.842
					C115.168,171.49,113.224,171.638,111.339,171.638z"/>
			</g>
		</g>
	</g>
</g>
<g id="Layer_4">
</g>
<g id="Layer_5">
</g>
<g id="Layer_6">
</g>
<g id="Layer_7">
</g>
<g id="Layer_8">
</g>
<g id="Layer_9">
</g>
<g id="Layer_10">
</g>
<g id="Layer_11">
</g>
<g id="Layer_12">
</g>
<g id="Layer_13">
</g>
<g id="Layer_14">
</g>
<g id="Layer_15">
</g>
<g id="Layer_16">
</g>
<g id="Layer_17">
</g>
<g id="Layer_18">
</g>
<g id="Layer_19">
</g>
<g id="Layer_20">
</g>
<g id="Layer_21">
</g>
<g id="Layer_22">
</g>
<g id="Layer_23">
</g>
<g id="Layer_24">
</g>
<g id="Layer_25">
</g>
<g id="Layer_26">
</g>
<g id="Layer_27">
</g>
<g id="Layer_28">
</g>
<g id="Layer_29">
</g>
<g id="Layer_30">
</g>
<g id="Layer_31">
</g>
<g id="Layer_32">
</g>
<g id="Layer_33">
</g>
<g id="Layer_34">
</g>
<g id="Layer_35">
</g>
<g id="Layer_36">
</g>
<g id="Layer_37">
</g>
<g id="Layer_38">
</g>
<g id="Layer_39">
</g>
<g id="Layer_40">
</g>
<g id="Layer_41">
</g>
<g id="Layer_42">
</g>
<g id="Layer_43">
</g>
<g id="Layer_44">
</g>
<g id="Layer_45">
</g>
<g id="Layer_46">
</g>
<g id="Layer_47">
</g>
<g id="Layer_48">
</g>
<g id="Layer_49">
</g>
<g id="Layer_50">
</g>
<g id="Layer_51">
</g>
<g id="Layer_52">
</g>
<g id="Layer_53">
</g>
<g id="Layer_54">
</g>
<g id="Layer_55">
</g>
<g id="Layer_56">
</g>
<g id="Layer_57">
</g>
<g id="Layer_58">
</g>
<g id="Layer_59">
</g>
<g id="Layer_60">
</g>
<g id="Layer_61">
</g>
<g id="Layer_62">
</g>
<g id="Layer_63">
</g>
<g id="Layer_64">
</g>
<g id="Layer_65">
</g>
<g id="Layer_66">
</g>
<g id="Layer_67">
</g>
<g id="Layer_68">
</g>
<g id="Layer_69">
</g>
<g id="Layer_70">
</g>
<g id="Layer_71">
</g>
<g id="Layer_72">
</g>
<g id="Layer_73">
</g>
<g id="Layer_74">
</g>
<g id="Layer_75">
</g>
<g id="Layer_76">
</g>
<g id="Layer_77">
</g>
<g id="Layer_78">
</g>
<g id="Layer_79">
</g>
<g id="Layer_80">
</g>
</svg>
