<?xml version="1.0" encoding="utf-8"?>
<!-- Generator: Adobe Illustrator 24.0.0, SVG Export Plug-In . SVG Version: 6.00 Build 0)  -->
<svg version="1.1" xmlns="http://www.w3.org/2000/svg" xmlns:xlink="http://www.w3.org/1999/xlink" x="0px" y="0px"
	 viewBox="0 0 256 256" style="enable-background:new 0 0 256 256;" xml:space="preserve">
<style type="text/css">
	.st0{fill:#3A70BF;}
	.st1{fill:#EDF4FC;}
	.st2{fill:#C7D7E5;}
	.st3{fill:#F9D0B4;}
	.st4{fill:#5B5D60;}
	.st5{fill:#5290DB;}
	.st6{fill:#70D6F9;}
	.st7{fill:#F5C84C;}
	.st8{fill:#FC657E;}
	.st9{fill:#87D147;}
	.st10{fill:#FCDD86;}
	.st11{fill:#9BE5F9;}
	.st12{fill:#B2E26D;}
	.st13{fill:#754E34;}
	.st14{fill:#FCA265;}
	.st15{fill:#818182;}
	.st16{fill:#F94EED;}
	.st17{fill:#FFC197;}
	.st18{fill:#3CAADC;}
	.st19{fill:#DAE6F1;}
	.st20{fill:#57AF12;}
	.st21{fill:#EF4460;}
	.st22{fill:#FFF0CA;}
	.st23{fill:#F98FA6;}
	.st24{fill:#EDB311;}
	.st25{fill:#FC8C48;}
	.st26{fill:#FCB9CB;}
	.st27{fill:#96BC71;}
	.st28{fill:#78A352;}
	.st29{fill:#B8DD90;}
	.st30{fill:#6FAFEF;}
	.st31{fill:#29589F;}
	.st32{fill:#414344;}
	.st33{fill:#9B6B4B;}
	.st34{fill:#73B1EF;}
</style>
<g id="Layer_1">
</g>
<g id="Layer_2">
</g>
<g id="Layer_3">
</g>
<g id="Layer_4">
</g>
<g id="Layer_5">
</g>
<g id="Layer_6">
</g>
<g id="Layer_7">
</g>
<g id="Layer_8">
</g>
<g id="Layer_9">
</g>
<g id="Layer_10">
</g>
<g id="Layer_11">
</g>
<g id="Layer_12">
</g>
<g id="Layer_13">
</g>
<g id="Layer_14">
</g>
<g id="Layer_15">
</g>
<g id="Layer_16">
</g>
<g id="Layer_17">
</g>
<g id="Layer_18">
</g>
<g id="Layer_19">
</g>
<g id="Layer_20">
</g>
<g id="Layer_21">
</g>
<g id="Layer_22">
</g>
<g id="Layer_23">
</g>
<g id="Layer_24">
</g>
<g id="Layer_25">
</g>
<g id="Layer_26">
</g>
<g id="Layer_27">
</g>
<g id="Layer_28">
</g>
<g id="Layer_29">
</g>
<g id="Layer_30">
</g>
<g id="Layer_31">
</g>
<g id="Layer_32">
</g>
<g id="Layer_33">
</g>
<g id="Layer_34">
</g>
<g id="Layer_35">
</g>
<g id="Layer_36">
</g>
<g id="Layer_37">
</g>
<g id="Layer_38">
</g>
<g id="Layer_39">
</g>
<g id="Layer_40">
</g>
<g id="Layer_41">
</g>
<g id="Layer_42">
</g>
<g id="Layer_43">
</g>
<g id="Layer_44">
</g>
<g id="Layer_45">
</g>
<g id="Layer_46">
</g>
<g id="Layer_47">
</g>
<g id="Layer_48">
</g>
<g id="Layer_49">
</g>
<g id="Layer_50">
</g>
<g id="Layer_51">
</g>
<g id="Layer_52">
</g>
<g id="Layer_53">
</g>
<g id="Layer_54">
</g>
<g id="Layer_55">
</g>
<g id="Layer_56">
</g>
<g id="Layer_57">
</g>
<g id="Layer_58">
</g>
<g id="Layer_59">
</g>
<g id="Layer_60">
</g>
<g id="Layer_61">
</g>
<g id="Layer_62">
	<g>
		<g>
			<g>
				<path class="st13" d="M161.387,94.201c-2.568,4.072-7.093,6.786-12.263,6.786c-0.79,0-1.56-0.08-2.316-0.202
					c-0.816,12.152-7.945,22.647-18.124,28.194v10.533c0,3.372,1.769,6.458,4.604,8.204l0,0c1.136,0.7-0.306-0.122,9.369,4.691
					c1.302,0.642,3.02,1.321,4.346,1.737l0,0c0.263,0.082,0.529,0.154,0.794,0.229c5.111-1.87,9.621-4.841,12.542-9.466
					c5.356-8.48,2.23-16.696,0.259-20.374c-0.693-1.292-0.573-2.841,0.215-4.077C167.447,110.052,164.314,99.923,161.387,94.201z"/>
			</g>
		</g>
		<g>
			<g>
				<path class="st13" d="M63.731,124.533c-1.971,3.678-5.097,11.894,0.259,20.374c2.921,4.625,7.43,7.595,12.542,9.466
					c0.265-0.075,0.531-0.147,0.794-0.229l0,0c1.325-0.415,3.044-1.095,4.346-1.737c10.303-5.125,8.318-4.043,9.369-4.691l0,0
					c2.834-1.746,4.604-4.832,4.604-8.204v-10.533c-10.179-5.548-17.309-16.042-18.124-28.194c-0.756,0.122-1.526,0.202-2.316,0.202
					c-5.17,0-9.695-2.714-12.262-6.786c-2.926,5.721-6.06,15.851,0.574,26.254C64.304,121.692,64.423,123.241,63.731,124.533z"/>
			</g>
		</g>
		<g>
			<g>
				<path class="st3" d="M149.125,71.985c-0.759,0-1.502,0.064-2.229,0.177c0,3.696,0,20.799,0,26.293v0v0
					c0,0.783-0.036,1.558-0.088,2.329c0.756,0.122,1.526,0.202,2.316,0.202c8.009,0,14.501-6.492,14.501-14.501
					C163.625,78.477,157.133,71.985,149.125,71.985z"/>
			</g>
		</g>
		<g>
			<g>
				<path class="st3" d="M144.76,67.75c-3.514-0.814-7.782-2.85-12.673-7.294c-0.967-0.879-2.459-0.807-3.31,0.186
					c-3.62,4.225-13.55,14.328-28.206,17.795c-2.173-1.299-4.705-2.06-7.421-2.06c-3.234,0-6.211,1.072-8.622,2.862
					c-2.296-0.299-4.66-0.774-7.095-1.467v20.684c0,19.102,15.629,34.732,34.732,34.732c19.102,0,34.732-15.629,34.732-34.732
					v-28.06C146.896,69.12,146.003,68.038,144.76,67.75z"/>
			</g>
		</g>
		<g>
			<g>
				<path class="st3" d="M77.433,77.771c-2.385-0.679-4.834-1.559-7.346-2.668c-1.619-0.715-3.511-0.386-4.803,0.825
					c-2.817,2.641-4.581,6.39-4.581,10.557c0,8.008,6.492,14.501,14.501,14.501c0.79,0,1.56-0.08,2.316-0.202
					c-0.052-0.771-0.088-1.546-0.088-2.329V77.771z"/>
			</g>
		</g>
		<g>
			<g>
				<path class="st13" d="M112.164,20.526c-25.976,0-47.229,21.253-47.229,47.229v8.535c0.118-0.119,0.226-0.246,0.348-0.361
					c1.291-1.211,3.183-1.54,4.803-0.825c2.512,1.109,4.961,1.988,7.346,2.668c2.435,0.694,4.799,1.168,7.095,1.467
					c2.412-1.79,5.388-2.862,8.622-2.862c2.716,0,5.248,0.76,7.421,2.06c14.656-3.467,24.586-13.57,28.206-17.795
					c0.85-0.993,2.342-1.065,3.309-0.186c4.892,4.445,9.159,6.48,12.673,7.294c1.243,0.288,2.136,1.37,2.136,2.646v1.767
					c0.727-0.113,1.47-0.177,2.229-0.177c4.012,0,7.643,1.63,10.268,4.263v-8.494C159.393,41.779,138.14,20.526,112.164,20.526z"/>
			</g>
		</g>
		<g>
			<g>
				<path class="st11" d="M78.425,153.771c5.85,12.803,18.768,21.727,33.739,21.727s27.889-8.924,33.739-21.727
					c-1.106-0.394-2.192-0.845-3.246-1.365l-7.606-3.75c-3.924,8.738-12.703,14.842-22.886,14.842s-18.962-6.104-22.886-14.842
					l-7.606,3.75C80.617,152.926,79.532,153.377,78.425,153.771z"/>
			</g>
		</g>
		<g>
			<g>
				<circle class="st3" cx="93.15" cy="90.875" r="14.498"/>
			</g>
		</g>
		<g>
			<g>
				<circle class="st3" cx="131.178" cy="90.875" r="14.498"/>
			</g>
		</g>
		<g>
			<g>
				<path class="st3" d="M112.164,163.498c10.183,0,18.962-6.104,22.886-14.842l-0.981-0.484c-3.298-1.626-5.386-4.984-5.386-8.66
					v-10.533c-4.92,2.682-10.551,4.208-16.52,4.208c-5.97,0-11.6-1.526-16.52-4.208v10.533c0,3.677-2.088,7.034-5.386,8.66
					l-0.981,0.484C93.202,157.394,101.981,163.498,112.164,163.498z"/>
			</g>
		</g>
		<g>
			<g>
				<path class="st8" d="M189.835,167.5h-52.341c-3.219,0-5.829,2.61-5.829,5.829v74.341c0,3.22,2.61,5.83,5.829,5.83h52.341
					c3.219,0,5.829-2.61,5.829-5.83v-74.341C195.664,170.11,193.054,167.5,189.835,167.5z"/>
			</g>
		</g>
		<g>
			<g>
				<path class="st6" d="M131.664,247.67v-74.341c0-3.219,2.61-5.829,5.829-5.829h44.818c-1.888-3.223-5.015-5.66-8.812-6.616
					l-24.833-6.269c-0.935-0.235-1.855-0.521-2.763-0.844c-5.85,12.803-18.768,21.727-33.739,21.727s-27.889-8.924-33.739-21.727
					c-0.907,0.323-1.828,0.609-2.763,0.844l-24.833,6.269c-6.044,1.521-10.396,6.796-10.743,13.019l-2.744,75.418
					c-0.127,2.269,1.68,4.179,3.953,4.179h21.99c1.478,0,2.677-1.198,2.677-2.677v-47.143l3.883,12.439
					c2.539,8.133,3.83,16.604,3.83,25.124v9.58c0,1.479,1.198,2.677,2.677,2.677c19.755,0,39.586,0,61.143,0
					C134.274,253.5,131.664,250.89,131.664,247.67z"/>
			</g>
		</g>
		<g>
			<g>
				<path class="st23" d="M144.664,167.5h-7.171c-3.219,0-5.829,2.61-5.829,5.829v74.341c0,3.22,2.61,5.83,5.829,5.83h7.171V167.5z"
					/>
			</g>
		</g>
		<g>
			<g>
				<path class="st8" d="M206.664,241.5v6c0,3.314,2.686,6,6,6s6-2.686,6-6v-6H206.664z"/>
			</g>
		</g>
		<g>
			<g>
				<rect x="206.664" y="180.5" class="st7" width="12" height="51"/>
			</g>
		</g>
		<g>
			<g>
				<rect x="206.664" y="231.5" class="st1" width="12" height="10"/>
			</g>
		</g>
		<g>
			<g>
				<path class="st3" d="M214.448,169.961c-0.644-1.611-2.924-1.611-3.568,0l-4.216,10.539h12L214.448,169.961z"/>
			</g>
		</g>
		<g>
			<g>
				<path d="M148.392,156.649c-1.003,0-1.949-0.608-2.333-1.6c-0.498-1.288,0.143-2.735,1.431-3.233
					c4.853-1.876,8.464-4.649,10.735-8.245c4.584-7.258,2.074-14.304,0.169-17.858c-1.099-2.049-0.979-4.579,0.311-6.603
					c5.708-8.951,3.48-17.707,0.605-23.476c-0.616-1.236-0.113-2.737,1.123-3.353c1.237-0.616,2.737-0.113,3.353,1.122
					c2.824,5.669,6.467,16.896-0.865,28.395c-0.324,0.508-0.369,1.088-0.12,1.552c1.947,3.635,5.811,13.139-0.349,22.891
					c-2.856,4.522-7.284,7.968-13.16,10.239C148.996,156.595,148.691,156.649,148.392,156.649z"/>
			</g>
		</g>
		<g>
			<g>
				<path d="M75.665,156.543c-0.307,0-0.618-0.057-0.921-0.177c-5.729-2.271-10.059-5.678-12.868-10.125
					c-6.161-9.753-2.296-19.257-0.349-22.89c0.249-0.464,0.204-1.045-0.12-1.553c-7.304-11.453-3.709-22.641-0.917-28.29
					c0.612-1.238,2.109-1.746,3.349-1.134c1.238,0.612,1.745,2.111,1.133,3.349c-2.842,5.748-5.036,14.472,0.65,23.388
					c1.29,2.023,1.409,4.553,0.311,6.602c-1.905,3.554-4.416,10.6,0.169,17.858c2.231,3.533,5.758,6.274,10.483,8.146
					c1.283,0.509,1.912,1.962,1.403,3.245C77.601,155.944,76.66,156.543,75.665,156.543z"/>
			</g>
		</g>
		<g>
			<g>
				<path d="M149.125,103.486c-0.476,0-0.975-0.024-1.481-0.073c-1.374-0.131-2.382-1.352-2.251-2.726
					c0.132-1.375,1.349-2.385,2.727-2.251c0.331,0.031,0.666,0.05,1.005,0.05c6.617,0,12.001-5.383,12.001-12
					s-5.384-12.001-12.001-12.001c-0.373,0-0.758,0.02-1.146,0.058c-1.379,0.125-2.598-0.871-2.732-2.244
					c-0.135-1.374,0.87-2.598,2.244-2.732c0.549-0.054,1.099-0.081,1.634-0.081c9.375,0,17.001,7.627,17.001,17.001
					S158.499,103.486,149.125,103.486z"/>
			</g>
		</g>
		<g>
			<g>
				<path d="M112.164,135.688c-20.529,0-37.231-16.702-37.231-37.232V77.771c0-0.784,0.368-1.522,0.994-1.995
					c0.626-0.473,1.439-0.625,2.191-0.409c2.089,0.596,4.232,1.048,6.369,1.344c1.367,0.19,2.322,1.452,2.132,2.82
					c-0.189,1.366-1.448,2.312-2.82,2.133c-1.291-0.18-2.583-0.409-3.867-0.688v17.479c0,17.773,14.459,32.232,32.231,32.232
					c17.773,0,32.232-14.459,32.232-32.232v-28.06c0-0.113-0.101-0.187-0.201-0.21c-4.515-1.047-9.108-3.656-13.656-7.759
					c-3.808,4.406-13.976,14.639-28.939,18.333c-1.341,0.329-2.695-0.487-3.026-1.827c-0.331-1.341,0.487-2.695,1.828-3.026
					c13.743-3.394,23.094-12.943,26.477-16.892c0.848-0.99,2.032-1.581,3.333-1.662c1.299-0.079,2.591,0.375,3.556,1.252
					c3.952,3.591,7.84,5.849,11.557,6.71c2.397,0.556,4.072,2.646,4.072,5.081v28.06
					C149.396,118.985,132.694,135.688,112.164,135.688z"/>
			</g>
		</g>
		<g>
			<g>
				<path d="M75.204,103.486c-9.374,0-17-7.626-17-17c0-4.668,1.958-9.181,5.371-12.381c2.031-1.904,4.984-2.412,7.522-1.289
					c2.328,1.028,4.69,1.887,7.021,2.551c1.328,0.378,2.098,1.762,1.719,3.09s-1.762,2.099-3.089,1.719
					c-2.553-0.728-5.133-1.665-7.671-2.785c-0.7-0.312-1.519-0.167-2.083,0.362c-2.444,2.292-3.791,5.394-3.791,8.733
					c0,6.617,5.383,12,12,12c0.424,0,0.865-0.028,1.347-0.088c1.368-0.177,2.618,0.807,2.786,2.177
					c0.168,1.371-0.807,2.618-2.177,2.786C76.473,103.445,75.833,103.486,75.204,103.486z"/>
			</g>
		</g>
		<g>
			<g>
				<path d="M64.936,78.425c-1.381,0-2.5-1.119-2.5-2.5v-8.17c0-27.42,22.308-49.729,49.729-49.729
					c27.421,0,49.729,22.309,49.729,49.729v7.839c0,1.381-1.119,2.5-2.5,2.5s-2.5-1.119-2.5-2.5v-7.839
					c0-24.663-20.065-44.729-44.729-44.729S67.436,43.092,67.436,67.755v8.17C67.436,77.306,66.316,78.425,64.936,78.425z"/>
			</g>
		</g>
		<g>
			<g>
				<path d="M145.903,156.272c-0.279,0-0.563-0.047-0.84-0.146c-1.232-0.439-2.413-0.937-3.511-1.477l-7.607-3.751
					c-1.238-0.61-1.748-2.109-1.137-3.348c0.61-1.238,2.108-1.75,3.348-1.137l7.606,3.75c0.926,0.456,1.929,0.878,2.98,1.253
					c1.301,0.464,1.979,1.894,1.515,3.194C147.893,155.634,146.93,156.272,145.903,156.272z"/>
			</g>
		</g>
		<g>
			<g>
				<path d="M78.425,156.272c-1.027,0-1.99-0.639-2.355-1.661c-0.463-1.301,0.215-2.73,1.515-3.194
					c1.052-0.375,2.055-0.797,2.981-1.253l7.606-3.75c1.237-0.613,2.737-0.102,3.348,1.137c0.611,1.238,0.102,2.737-1.137,3.348
					l-7.606,3.75c-1.098,0.541-2.28,1.038-3.512,1.478C78.987,156.226,78.704,156.272,78.425,156.272z"/>
			</g>
		</g>
		<g>
			<g>
				<path d="M112.164,117.757c-4.776,0-9.261-1.949-11.999-5.214c-0.887-1.059-0.748-2.636,0.31-3.522
					c1.059-0.887,2.635-0.748,3.522,0.31c1.798,2.146,4.852,3.427,8.167,3.427c3.315,0,6.369-1.281,8.167-3.427
					c0.887-1.059,2.464-1.196,3.522-0.31s1.197,2.464,0.31,3.522C121.426,115.808,116.94,117.757,112.164,117.757z"/>
			</g>
		</g>
		<g>
			<g>
				<circle cx="127.275" cy="90.5" r="4.5"/>
			</g>
		</g>
		<g>
			<g>
				<circle cx="97.054" cy="90.5" r="4.5"/>
			</g>
		</g>
		<g>
			<g>
				<path d="M119.261,94.577c-0.714,0-1.423-0.304-1.917-0.894c-1.126-1.344-3.063-2.146-5.18-2.146s-4.053,0.803-5.179,2.146
					c-0.887,1.059-2.463,1.196-3.522,0.31c-1.058-0.888-1.197-2.464-0.31-3.522c2.065-2.463,5.434-3.934,9.011-3.934
					c3.578,0,6.946,1.471,9.012,3.934c0.887,1.059,0.748,2.635-0.31,3.522C120.397,94.386,119.828,94.577,119.261,94.577z"/>
			</g>
		</g>
		<g>
			<g>
				<path d="M93.15,107.873c-9.373,0-16.999-7.625-16.999-16.998s7.625-16.998,16.999-16.998c9.373,0,16.998,7.625,16.998,16.998
					S102.523,107.873,93.15,107.873z M93.15,78.877c-6.616,0-11.999,5.382-11.999,11.998s5.382,11.998,11.999,11.998
					c6.616,0,11.998-5.382,11.998-11.998S99.766,78.877,93.15,78.877z"/>
			</g>
		</g>
		<g>
			<g>
				<path d="M131.178,107.873c-9.373,0-16.998-7.625-16.998-16.998s7.625-16.998,16.998-16.998c9.373,0,16.999,7.625,16.999,16.998
					S140.551,107.873,131.178,107.873z M131.178,78.877c-6.616,0-11.998,5.382-11.998,11.998s5.382,11.998,11.998,11.998
					c6.616,0,11.999-5.382,11.999-11.998S137.794,78.877,131.178,78.877z"/>
			</g>
		</g>
		<g>
			<g>
				<path d="M112.164,165.998c-10.836,0-20.715-6.405-25.167-16.317c-0.551-1.228-0.032-2.67,1.173-3.266l0.98-0.484
					c2.464-1.215,3.993-3.674,3.993-6.419v-9.907c0-1.381,1.119-2.5,2.5-2.5s2.5,1.119,2.5,2.5v9.907
					c0,4.177-2.085,7.964-5.525,10.19c4.012,6.931,11.453,11.296,19.545,11.296s15.533-4.365,19.545-11.296
					c-3.44-2.226-5.525-6.014-5.525-10.19v-9.73c0-1.381,1.119-2.5,2.5-2.5s2.5,1.119,2.5,2.5v9.73c0,2.745,1.529,5.204,3.991,6.418
					l0.982,0.485c1.206,0.595,1.725,2.038,1.174,3.266C132.879,159.593,123,165.998,112.164,165.998z"/>
			</g>
		</g>
		<g>
			<g>
				<path d="M189.835,256h-52.341c-4.593,0-8.33-3.737-8.33-8.33v-74.341c0-4.593,3.737-8.329,8.33-8.329h52.341
					c4.593,0,8.329,3.736,8.329,8.329v74.341C198.164,252.263,194.428,256,189.835,256z M137.494,170
					c-1.836,0-3.33,1.493-3.33,3.329v74.341c0,1.836,1.494,3.33,3.33,3.33h52.341c1.835,0,3.329-1.494,3.329-3.33v-74.341
					c0-1.836-1.494-3.329-3.329-3.329H137.494z"/>
			</g>
		</g>
		<g>
			<g>
				<path d="M137.494,256H76.351c-2.854,0-5.177-2.322-5.177-5.177v-9.58c0-7.066-0.912-14.078-2.713-20.896v30.476
					c0,2.854-2.322,5.177-5.177,5.177h-21.99c-1.768,0-3.478-0.736-4.692-2.021c-1.215-1.284-1.855-3.033-1.757-4.798l2.742-75.37
					c0.412-7.403,5.487-13.554,12.631-15.353l24.832-6.268c0.819-0.206,1.648-0.46,2.537-0.775c1.22-0.437,2.573,0.137,3.111,1.316
					c5.625,12.311,17.976,20.266,31.465,20.266s25.84-7.955,31.465-20.266c0.539-1.179,1.89-1.753,3.111-1.316
					c0.889,0.315,1.719,0.569,2.536,0.774l24.835,6.27c4.271,1.075,7.891,3.739,10.192,7.501c0.72,1.178,0.35,2.717-0.828,3.438
					c-1.177,0.721-2.717,0.35-3.438-0.828c-1.614-2.639-4.153-4.508-7.149-5.262l-24.835-6.27c-0.285-0.071-0.571-0.148-0.859-0.229
					c-6.818,12.941-20.333,21.188-35.031,21.188s-28.213-8.247-35.03-21.188c-0.289,0.081-0.575,0.158-0.86,0.23l-24.832,6.268
					c-5.012,1.262-8.571,5.575-8.859,10.733l-2.742,75.37c-0.033,0.594,0.233,0.962,0.395,1.132c0.161,0.171,0.514,0.457,1.06,0.457
					h21.99c0.098,0,0.177-0.079,0.177-0.177v-47.143c0-1.235,0.902-2.285,2.123-2.472c1.222-0.19,2.395,0.547,2.763,1.727
					l3.883,12.438c2.617,8.384,3.944,17.087,3.944,25.869v9.58c0,0.098,0.079,0.177,0.177,0.177h61.143c1.381,0,2.5,1.119,2.5,2.5
					S138.875,256,137.494,256z"/>
			</g>
		</g>
		<g>
			<g>
				<path d="M144.664,255.345c-1.381,0-2.5-1.119-2.5-2.5v-84.47c0-1.381,1.119-2.5,2.5-2.5s2.5,1.119,2.5,2.5v84.47
					C147.164,254.226,146.045,255.345,144.664,255.345z"/>
			</g>
		</g>
		<g>
			<g>
				<path d="M179.209,186.341h-20.091c-1.381,0-2.5-1.119-2.5-2.5s1.119-2.5,2.5-2.5h20.091c1.381,0,2.5,1.119,2.5,2.5
					S180.59,186.341,179.209,186.341z"/>
			</g>
		</g>
		<g>
			<g>
				<path d="M179.209,196h-20.091c-1.381,0-2.5-1.119-2.5-2.5s1.119-2.5,2.5-2.5h20.091c1.381,0,2.5,1.119,2.5,2.5
					S180.59,196,179.209,196z"/>
			</g>
		</g>
		<g>
			<g>
				<path d="M179.209,205.659h-20.091c-1.381,0-2.5-1.119-2.5-2.5s1.119-2.5,2.5-2.5h20.091c1.381,0,2.5,1.119,2.5,2.5
					S180.59,205.659,179.209,205.659z"/>
			</g>
		</g>
		<g>
			<g>
				<path d="M212.664,256c-4.687,0-8.5-3.813-8.5-8.5v-6c0-1.381,1.119-2.5,2.5-2.5h12c1.381,0,2.5,1.119,2.5,2.5v6
					C221.164,252.187,217.351,256,212.664,256z M209.164,244v3.5c0,1.93,1.57,3.5,3.5,3.5s3.5-1.57,3.5-3.5V244H209.164z"/>
			</g>
		</g>
		<g>
			<g>
				<path d="M218.664,234h-12c-1.381,0-2.5-1.119-2.5-2.5v-51c0-1.381,1.119-2.5,2.5-2.5h12c1.381,0,2.5,1.119,2.5,2.5v51
					C221.164,232.881,220.045,234,218.664,234z M209.164,229h7v-46h-7V229z"/>
			</g>
		</g>
		<g>
			<g>
				<path d="M218.664,244h-12c-1.381,0-2.5-1.119-2.5-2.5v-10c0-1.381,1.119-2.5,2.5-2.5h12c1.381,0,2.5,1.119,2.5,2.5v10
					C221.164,242.881,220.045,244,218.664,244z M209.164,239h7v-5h-7V239z"/>
			</g>
		</g>
		<g>
			<g>
				<path d="M218.664,183h-12c-0.83,0-1.605-0.411-2.07-1.099c-0.465-0.687-0.559-1.56-0.251-2.33l4.216-10.539
					c0.676-1.688,2.287-2.779,4.105-2.779c0,0,0,0,0,0c1.818,0,3.43,1.091,4.105,2.779l4.216,10.539
					c0.308,0.771,0.214,1.644-0.251,2.33C220.269,182.589,219.494,183,218.664,183z M210.357,178h4.614l-2.307-5.769L210.357,178z"
					/>
			</g>
		</g>
		<g>
			<g>
				<path class="st7" d="M46.822,125.33c-4.498-0.838-8.043-4.31-8.898-8.716c-0.043-0.221-0.352-0.221-0.395,0
					c-0.855,4.406-4.4,7.879-8.898,8.716c-0.226,0.042-0.226,0.345,0,0.387c4.498,0.838,8.043,4.31,8.898,8.717
					c0.043,0.221,0.352,0.221,0.395,0c0.855-4.406,4.4-7.879,8.898-8.717C47.047,125.675,47.047,125.373,46.822,125.33z"/>
			</g>
		</g>
		<g>
			<g>
				<path class="st9" d="M195.515,113.101c-2.862-0.533-5.118-2.743-5.663-5.547c-0.027-0.141-0.224-0.141-0.251,0
					c-0.544,2.804-2.8,5.014-5.663,5.547c-0.144,0.027-0.144,0.219,0,0.246c2.862,0.533,5.118,2.743,5.663,5.547
					c0.027,0.141,0.224,0.141,0.251,0c0.544-2.804,2.8-5.014,5.663-5.547C195.658,113.32,195.658,113.128,195.515,113.101z"/>
			</g>
		</g>
		<g>
			<g>
				<path class="st6" d="M162.246,25.75h2.33v-2.33c0-1.744,1.413-3.157,3.157-3.157s3.157,1.413,3.157,3.157v2.33h2.329
					c1.744,0,3.157,1.413,3.157,3.157s-1.413,3.157-3.157,3.157h-2.329v2.33c0,1.744-1.413,3.157-3.157,3.157
					s-3.157-1.413-3.157-3.157v-2.33h-2.33c-1.744,0-3.157-1.413-3.157-3.157S160.502,25.75,162.246,25.75z"/>
			</g>
		</g>
		<g>
			<g>
				<circle class="st6" cx="25.755" cy="154.825" r="3.377"/>
			</g>
		</g>
		<g>
			<g>
				<circle class="st8" cx="154.755" cy="3.377" r="3.377"/>
			</g>
		</g>
	</g>
</g>
<g id="Layer_63">
</g>
<g id="Layer_64">
</g>
<g id="Layer_65">
</g>
<g id="Layer_66">
</g>
<g id="Layer_67">
</g>
<g id="Layer_68">
</g>
<g id="Layer_69">
</g>
<g id="Layer_70">
</g>
<g id="Layer_71">
</g>
<g id="Layer_72">
</g>
<g id="Layer_73">
</g>
<g id="Layer_74">
</g>
<g id="Layer_75">
</g>
<g id="Layer_76">
</g>
<g id="Layer_77">
</g>
<g id="Layer_78">
</g>
<g id="Layer_79">
</g>
<g id="Layer_80">
</g>
</svg>
