<?xml version="1.0" encoding="utf-8"?>
<!-- Generator: Adobe Illustrator 24.0.0, SVG Export Plug-In . SVG Version: 6.00 Build 0)  -->
<svg version="1.1" xmlns="http://www.w3.org/2000/svg" xmlns:xlink="http://www.w3.org/1999/xlink" x="0px" y="0px"
	 viewBox="0 0 256 256" style="enable-background:new 0 0 256 256;" xml:space="preserve">
<style type="text/css">
	.st0{fill:#3A70BF;}
	.st1{fill:#EDF4FC;}
	.st2{fill:#C7D7E5;}
	.st3{fill:#F9D0B4;}
	.st4{fill:#5B5D60;}
	.st5{fill:#5290DB;}
	.st6{fill:#70D6F9;}
	.st7{fill:#F5C84C;}
	.st8{fill:#FC657E;}
	.st9{fill:#87D147;}
	.st10{fill:#FCDD86;}
	.st11{fill:#9BE5F9;}
	.st12{fill:#B2E26D;}
	.st13{fill:#754E34;}
	.st14{fill:#FCA265;}
	.st15{fill:#818182;}
	.st16{fill:#F94EED;}
	.st17{fill:#FFC197;}
	.st18{fill:#3CAADC;}
	.st19{fill:#DAE6F1;}
	.st20{fill:#57AF12;}
	.st21{fill:#EF4460;}
	.st22{fill:#FFF0CA;}
	.st23{fill:#F98FA6;}
	.st24{fill:#EDB311;}
	.st25{fill:#FC8C48;}
	.st26{fill:#FCB9CB;}
	.st27{fill:#96BC71;}
	.st28{fill:#78A352;}
	.st29{fill:#B8DD90;}
	.st30{fill:#6FAFEF;}
	.st31{fill:#29589F;}
	.st32{fill:#414344;}
	.st33{fill:#9B6B4B;}
	.st34{fill:#73B1EF;}
</style>
<g id="Layer_1">
</g>
<g id="Layer_2">
</g>
<g id="Layer_3">
</g>
<g id="Layer_4">
</g>
<g id="Layer_5">
</g>
<g id="Layer_6">
</g>
<g id="Layer_7">
</g>
<g id="Layer_8">
</g>
<g id="Layer_9">
</g>
<g id="Layer_10">
</g>
<g id="Layer_11">
</g>
<g id="Layer_12">
</g>
<g id="Layer_13">
</g>
<g id="Layer_14">
</g>
<g id="Layer_15">
</g>
<g id="Layer_16">
</g>
<g id="Layer_17">
</g>
<g id="Layer_18">
</g>
<g id="Layer_19">
</g>
<g id="Layer_20">
</g>
<g id="Layer_21">
</g>
<g id="Layer_22">
</g>
<g id="Layer_23">
</g>
<g id="Layer_24">
</g>
<g id="Layer_25">
</g>
<g id="Layer_26">
</g>
<g id="Layer_27">
</g>
<g id="Layer_28">
</g>
<g id="Layer_29">
</g>
<g id="Layer_30">
</g>
<g id="Layer_31">
</g>
<g id="Layer_32">
</g>
<g id="Layer_33">
</g>
<g id="Layer_34">
</g>
<g id="Layer_35">
</g>
<g id="Layer_36">
</g>
<g id="Layer_37">
</g>
<g id="Layer_38">
</g>
<g id="Layer_39">
</g>
<g id="Layer_40">
</g>
<g id="Layer_41">
</g>
<g id="Layer_42">
</g>
<g id="Layer_43">
</g>
<g id="Layer_44">
</g>
<g id="Layer_45">
</g>
<g id="Layer_46">
</g>
<g id="Layer_47">
</g>
<g id="Layer_48">
</g>
<g id="Layer_49">
</g>
<g id="Layer_50">
</g>
<g id="Layer_51">
</g>
<g id="Layer_52">
</g>
<g id="Layer_53">
</g>
<g id="Layer_54">
</g>
<g id="Layer_55">
</g>
<g id="Layer_56">
</g>
<g id="Layer_57">
</g>
<g id="Layer_58">
</g>
<g id="Layer_59">
</g>
<g id="Layer_60">
</g>
<g id="Layer_61">
	<g>
		<g>
			<g>
				<path class="st3" d="M119.098,56.772c-13.593,17.094-33.644,14.681-40.386,13.27c-1.225-0.256-2.401,0.667-2.402,1.919
					c0,0.008,0,0.017,0,0.025v29.936c0,20.468,16.747,37.215,37.215,37.215h0c20.468,0,37.215-16.747,37.215-37.215V68.772
					c0-0.194-0.002-0.388-0.006-0.582c-0.021-1.055-0.866-1.925-1.921-1.956c-15.46-0.453-23.606-6.581-26.736-9.649
					C121.222,55.747,119.843,55.836,119.098,56.772z"/>
			</g>
		</g>
		<g>
			<g>
				<g>
					<path class="st13" d="M73.922,73.561c0.813,0,1.609,0.069,2.388,0.189v-1.763c0-0.008,0-0.017,0-0.025
						c0.001-1.252,1.177-2.175,2.402-1.919c6.742,1.411,26.794,3.823,40.386-13.27c0.745-0.937,2.124-1.025,2.978-0.187
						c3.13,3.068,11.276,9.196,26.736,9.649c1.055,0.031,1.9,0.901,1.921,1.956c0.004,0.194,0.006,0.388,0.006,0.582v4.978
						c0.779-0.121,1.575-0.189,2.388-0.189c4.188,0,7.982,1.665,10.777,4.36V49.973c0-11.692-9.566-21.258-21.258-21.258
						c-3.966,0-7.673,1.121-10.859,3.031c-3.722-6.211-10.502-10.405-18.23-10.405h-10.916c-21.127,0-38.413,17.286-38.413,38.413
						v17.212C66.886,74.84,70.252,73.561,73.922,73.561z"/>
				</g>
			</g>
		</g>
		<g>
			<g>
				<path class="st3" d="M153.128,73.561c-0.813,0-1.609,0.069-2.388,0.189c0,3.96,0,22.286,0,28.173
					c0,0.839-0.038,1.67-0.094,2.496c0.81,0.13,1.635,0.217,2.482,0.217c8.581,0,15.537-6.956,15.537-15.537
					S161.709,73.561,153.128,73.561z"/>
			</g>
		</g>
		<g>
			<g>
				<path class="st3" d="M76.31,101.923c0-3.856,0-20.507,0-28.173c-0.779-0.121-1.575-0.189-2.388-0.189
					c-8.581,0-15.538,6.957-15.538,15.538s6.956,15.537,15.538,15.537c0.847,0,1.672-0.086,2.482-0.217v-0.001
					C76.348,103.593,76.31,102.762,76.31,101.923z"/>
			</g>
		</g>
		<g>
			<g>
				<path class="st11" d="M133.566,173.329c0-3.219,2.61-5.829,5.829-5.829h4.606c2.772-2.765,5.182-5.894,7.128-9.323l-2.533-0.637
					l-8.533-4.208c-5.51,8.878-15.343,14.806-26.538,14.806c-11.023,0-20.723-5.749-26.279-14.4l-7.711,3.802l-3.478,0.875
					c7.467,12.967,21.46,21.723,37.468,21.723c7.233,0,14.047-1.799,20.041-4.955V173.329z"/>
			</g>
		</g>
		<g>
			<g>
				<path class="st3" d="M113.525,168.138c11.195,0,21.029-5.927,26.538-14.806l-1.682-0.829c-4.391-2.165-7.171-6.635-7.171-11.531
					v-6.335c-5.268,2.868-11.296,4.501-17.686,4.501h0c-5.959,0-11.597-1.427-16.604-3.945v5.778c0,4.896-2.78,9.366-7.171,11.531
					l-2.504,1.234C92.802,162.389,102.501,168.138,113.525,168.138z"/>
			</g>
		</g>
		<g>
			<g>
				<path class="st6" d="M182.965,167.5c-1.582-1.24-3.428-2.173-5.466-2.686l-26.369-6.637c-1.946,3.429-4.356,6.558-7.128,9.323
					H182.965z"/>
			</g>
		</g>
		<g>
			<g>
				<path class="st6" d="M133.566,247.67v-72.488c-5.994,3.156-12.808,4.955-20.041,4.955c-16.008,0-30-8.756-37.468-21.723
					l-25.423,6.399c-6.233,1.569-10.721,7.008-11.078,13.425l-4.115,70.951c-0.13,2.34,1.732,4.31,4.076,4.31h99.878
					C136.176,253.5,133.566,250.89,133.566,247.67z"/>
			</g>
		</g>
		<g>
			<g>
				<path class="st8" d="M191.736,167.5h-52.341c-3.219,0-5.829,2.61-5.829,5.829v74.341c0,3.22,2.61,5.83,5.829,5.83h52.341
					c3.219,0,5.829-2.61,5.829-5.83v-74.341C197.566,170.11,194.956,167.5,191.736,167.5z"/>
			</g>
		</g>
		<g>
			<g>
				<path class="st23" d="M146.566,167.5h-7.171c-3.219,0-5.829,2.61-5.829,5.829v74.341c0,3.22,2.61,5.83,5.829,5.83h7.171V167.5z"
					/>
			</g>
		</g>
		<g>
			<g>
				<path class="st8" d="M208.566,241.5v6c0,3.314,2.686,6,6,6s6-2.686,6-6v-6H208.566z"/>
			</g>
		</g>
		<g>
			<g>
				<rect x="208.566" y="180.5" class="st7" width="12" height="51"/>
			</g>
		</g>
		<g>
			<g>
				<rect x="208.566" y="231.5" class="st1" width="12" height="10"/>
			</g>
		</g>
		<g>
			<g>
				<path class="st3" d="M216.35,169.961c-0.644-1.611-2.924-1.611-3.568,0l-4.216,10.539h12L216.35,169.961z"/>
			</g>
		</g>
		<g>
			<g>
				<path d="M113.525,141.638c-21.899,0-39.715-17.816-39.715-39.715V71.987c0.001-1.372,0.604-2.63,1.651-3.479
					c1.059-0.859,2.43-1.19,3.764-0.912c7.235,1.516,25.417,3.34,37.917-12.379v-0.001c0.796-1.001,1.982-1.619,3.254-1.698
					c1.27-0.081,2.52,0.389,3.431,1.282c2.592,2.541,10.225,8.5,25.059,8.936c2.39,0.068,4.3,2.004,4.348,4.405
					c0.004,0.209,0.006,0.421,0.006,0.632v33.15C153.24,123.821,135.424,141.638,113.525,141.638z M78.81,72.612v29.311
					c0,19.142,15.573,34.715,34.715,34.715c19.142,0,34.715-15.573,34.715-34.715v-33.15c0-0.019,0-0.037,0-0.056
					c-15.155-0.564-23.626-6.309-27.522-9.971C106.529,76.146,85.798,73.965,78.81,72.612z M121.054,58.328
					c0,0.001,0,0.001-0.001,0.002L121.054,58.328L121.054,58.328z"/>
			</g>
		</g>
		<g>
			<g>
				<g>
					<path d="M163.904,79.312c-1.381,0-2.5-1.119-2.5-2.5V49.974c0-10.343-8.415-18.758-18.758-18.758
						c-3.345,0-6.656,0.925-9.574,2.675c-0.569,0.341-1.251,0.442-1.893,0.28c-0.643-0.161-1.196-0.571-1.537-1.14
						c-3.396-5.668-9.56-9.189-16.086-9.189h-10.916c-19.803,0-35.913,16.11-35.913,35.913v16.453c0,1.381-1.119,2.5-2.5,2.5
						s-2.5-1.119-2.5-2.5V59.755c0-22.56,18.354-40.913,40.913-40.913h10.916c7.481,0,14.582,3.641,19.048,9.638
						c3.15-1.486,6.579-2.264,10.042-2.264c13.1,0,23.758,10.658,23.758,23.758v26.838
						C166.404,78.192,165.285,79.312,163.904,79.312z"/>
				</g>
			</g>
		</g>
		<g>
			<g>
				<path d="M62.521,255.04c-1.381,0-2.5-1.119-2.5-2.5v-56.645c0-1.381,1.119-2.5,2.5-2.5s2.5,1.119,2.5,2.5v56.645
					C65.021,253.921,63.902,255.04,62.521,255.04z"/>
			</g>
		</g>
		<g>
			<g>
				<path d="M153.128,107.136c-0.58,0-1.162-0.032-1.781-0.1c-1.373-0.148-2.365-1.381-2.217-2.754
					c0.148-1.373,1.376-2.365,2.754-2.217c0.439,0.047,0.846,0.07,1.244,0.07c7.189,0,13.038-5.849,13.038-13.037
					c0-7.189-5.849-13.038-13.038-13.038c-0.37,0-0.736,0.018-1.098,0.049c-1.372,0.129-2.588-0.896-2.709-2.271
					s0.896-2.588,2.271-2.709c0.515-0.046,1.032-0.068,1.535-0.068c9.946,0,18.038,8.092,18.038,18.038
					C171.166,99.044,163.074,107.136,153.128,107.136z"/>
			</g>
		</g>
		<g>
			<g>
				<path d="M73.922,107.136c-9.946,0-18.038-8.092-18.038-18.037c0-9.946,8.092-18.038,18.038-18.038
					c0.531,0,1.074,0.025,1.614,0.075c1.375,0.126,2.387,1.344,2.26,2.719c-0.126,1.375-1.343,2.4-2.718,2.26
					c-0.381-0.035-0.766-0.054-1.156-0.054c-7.189,0-13.038,5.849-13.038,13.038c0,7.188,5.849,13.037,13.038,13.037
					c0.346,0,0.688-0.018,1.025-0.049c1.376-0.133,2.592,0.885,2.719,2.26c0.127,1.375-0.885,2.592-2.26,2.719
					C74.901,107.112,74.402,107.136,73.922,107.136z"/>
			</g>
		</g>
		<g>
			<g>
				<path d="M151.131,160.678c-0.202,0-0.408-0.025-0.612-0.076l-2.533-0.638c-0.171-0.044-0.337-0.104-0.495-0.183l-8.534-4.207
					c-1.238-0.61-1.748-2.109-1.137-3.348c0.61-1.238,2.11-1.749,3.348-1.137l8.296,4.09l2.275,0.572
					c1.339,0.338,2.151,1.696,1.814,3.035C153.268,159.921,152.25,160.678,151.131,160.678z"/>
			</g>
		</g>
		<g>
			<g>
				<path d="M76.055,160.916c-1.119,0-2.137-0.757-2.422-1.891c-0.337-1.339,0.475-2.697,1.814-3.034l3.221-0.812l7.473-3.685
					c1.238-0.613,2.737-0.102,3.348,1.137s0.102,2.737-1.137,3.348l-7.711,3.802c-0.158,0.078-0.324,0.139-0.495,0.182l-3.478,0.876
					C76.463,160.891,76.257,160.916,76.055,160.916z"/>
			</g>
		</g>
		<g>
			<g>
				<path d="M114.066,118.573c-4.777,0-9.262-1.95-11.999-5.216c-0.887-1.058-0.748-2.635,0.31-3.521
					c1.059-0.888,2.635-0.748,3.522,0.311c1.798,2.146,4.852,3.427,8.167,3.427s6.369-1.281,8.167-3.427
					c0.887-1.058,2.463-1.198,3.522-0.311c1.058,0.887,1.197,2.464,0.31,3.521C123.328,116.623,118.843,118.573,114.066,118.573z"/>
			</g>
		</g>
		<g>
			<g>
				<path d="M121.531,93.765c-0.714,0-1.423-0.304-1.917-0.895c-1.209-1.442-3.283-2.304-5.547-2.304s-4.338,0.861-5.547,2.304
					c-0.887,1.061-2.462,1.198-3.522,0.311c-1.058-0.887-1.197-2.464-0.31-3.521c2.147-2.563,5.654-4.093,9.379-4.093
					s7.232,1.53,9.379,4.093c0.887,1.058,0.748,2.635-0.31,3.521C122.667,93.573,122.097,93.765,121.531,93.765z"/>
			</g>
		</g>
		<g>
			<g>
				<circle cx="130.855" cy="90.816" r="5"/>
			</g>
		</g>
		<g>
			<g>
				<circle cx="97.276" cy="90.816" r="5"/>
			</g>
		</g>
		<g>
			<g>
				<path d="M94.066,107.75c-9.788,0-17.75-7.963-17.75-17.75s7.962-17.75,17.75-17.75s17.75,7.963,17.75,17.75
					S103.854,107.75,94.066,107.75z M94.066,77.25c-7.03,0-12.75,5.72-12.75,12.75s5.72,12.75,12.75,12.75s12.75-5.72,12.75-12.75
					S101.096,77.25,94.066,77.25z"/>
			</g>
		</g>
		<g>
			<g>
				<path d="M134.066,107.75c-9.788,0-17.75-7.963-17.75-17.75s7.962-17.75,17.75-17.75s17.75,7.963,17.75,17.75
					S143.854,107.75,134.066,107.75z M134.066,77.25c-7.03,0-12.75,5.72-12.75,12.75s5.72,12.75,12.75,12.75s12.75-5.72,12.75-12.75
					S141.096,77.25,134.066,77.25z"/>
			</g>
		</g>
		<g>
			<g>
				<path d="M113.525,170.638c-11.52,0-22.13-5.813-28.382-15.55c-0.385-0.599-0.496-1.334-0.305-2.02
					c0.19-0.687,0.665-1.259,1.303-1.573l2.504-1.234c3.563-1.757,5.776-5.316,5.776-9.289v-5.778c0-0.867,0.45-1.673,1.188-2.128
					c0.738-0.456,1.661-0.496,2.435-0.105c4.855,2.441,10.063,3.679,15.481,3.679c5.746,0,11.448-1.451,16.49-4.197
					c0.775-0.421,1.714-0.403,2.473,0.046c0.758,0.45,1.223,1.268,1.223,2.149v6.335c0,3.973,2.213,7.532,5.776,9.289l1.682,0.829
					c0.632,0.312,1.104,0.877,1.298,1.555c0.194,0.678,0.092,1.406-0.28,2.006C135.975,164.661,125.26,170.638,113.525,170.638z
					 M90.983,154.682c5.437,6.907,13.673,10.956,22.542,10.956c9.077,0,17.439-4.202,22.864-11.366
					c-4.761-2.737-7.678-7.746-7.678-13.3v-2.371c-4.797,1.996-9.976,3.038-15.186,3.038c-4.876,0-9.605-0.875-14.104-2.607v1.94
					C99.421,146.814,96.191,152.055,90.983,154.682z"/>
			</g>
		</g>
		<g>
			<g>
				<path d="M182.781,169.859c-0.527,0-1.058-0.166-1.51-0.509c-1.318-1.002-2.792-1.712-4.382-2.111l-24.565-6.184
					c-1.777,2.842-3.881,5.503-6.274,7.931c-0.969,0.983-2.551,0.996-3.536,0.025c-0.983-0.969-0.995-2.552-0.026-3.535
					c2.542-2.579,4.718-5.45,6.467-8.533c0.554-0.979,1.694-1.463,2.785-1.191l26.369,6.638c2.246,0.565,4.328,1.567,6.186,2.979
					c1.099,0.835,1.314,2.403,0.479,3.503C184.282,169.519,183.536,169.859,182.781,169.859z"/>
			</g>
		</g>
		<g>
			<g>
				<path d="M139.396,256H39.517c-1.802,0-3.545-0.751-4.783-2.06s-1.89-3.091-1.79-4.889l4.115-70.957
					c0.42-7.546,5.63-13.859,12.964-15.705l25.423-6.399c1.083-0.271,2.219,0.209,2.777,1.177
					c7.271,12.627,20.798,20.471,35.301,20.471c6.57,0,12.859-1.538,18.692-4.57c1.225-0.637,2.734-0.16,3.372,1.064
					c0.637,1.225,0.16,2.734-1.065,3.371c-6.552,3.407-13.617,5.135-20.999,5.135c-15.653,0-30.291-8.133-38.651-21.347
					l-23.63,5.948c-5.2,1.308-8.895,5.785-9.193,11.139l-4.115,70.957c-0.024,0.434,0.129,0.851,0.431,1.17
					c0.302,0.319,0.71,0.495,1.15,0.495h99.878c1.381,0,2.5,1.119,2.5,2.5S140.776,256,139.396,256z"/>
			</g>
		</g>
		<g>
			<g>
				<path d="M191.736,256h-52.341c-4.593,0-8.33-3.737-8.33-8.33v-74.341c0-4.593,3.737-8.329,8.33-8.329h52.341
					c4.593,0,8.33,3.736,8.33,8.329v74.341C200.066,252.263,196.329,256,191.736,256z M139.396,170c-1.836,0-3.33,1.493-3.33,3.329
					v74.341c0,1.836,1.494,3.33,3.33,3.33h52.341c1.836,0,3.33-1.494,3.33-3.33v-74.341c0-1.836-1.494-3.329-3.33-3.329H139.396z"/>
			</g>
		</g>
		<g>
			<g>
				<path d="M146.566,255.438c-1.381,0-2.5-1.119-2.5-2.5v-84.521c0-1.381,1.119-2.5,2.5-2.5s2.5,1.119,2.5,2.5v84.521
					C149.066,254.319,147.947,255.438,146.566,255.438z"/>
			</g>
		</g>
		<g>
			<g>
				<path d="M181.111,186.341h-20.091c-1.381,0-2.5-1.119-2.5-2.5s1.119-2.5,2.5-2.5h20.091c1.381,0,2.5,1.119,2.5,2.5
					S182.492,186.341,181.111,186.341z"/>
			</g>
		</g>
		<g>
			<g>
				<path d="M181.111,196h-20.091c-1.381,0-2.5-1.119-2.5-2.5s1.119-2.5,2.5-2.5h20.091c1.381,0,2.5,1.119,2.5,2.5
					S182.492,196,181.111,196z"/>
			</g>
		</g>
		<g>
			<g>
				<path d="M181.111,205.659h-20.091c-1.381,0-2.5-1.119-2.5-2.5s1.119-2.5,2.5-2.5h20.091c1.381,0,2.5,1.119,2.5,2.5
					S182.492,205.659,181.111,205.659z"/>
			</g>
		</g>
		<g>
			<g>
				<path d="M214.566,256c-4.687,0-8.5-3.813-8.5-8.5v-6c0-1.381,1.119-2.5,2.5-2.5h12c1.381,0,2.5,1.119,2.5,2.5v6
					C223.066,252.187,219.253,256,214.566,256z M211.066,244v3.5c0,1.93,1.57,3.5,3.5,3.5s3.5-1.57,3.5-3.5V244H211.066z"/>
			</g>
		</g>
		<g>
			<g>
				<path d="M220.566,234h-12c-1.381,0-2.5-1.119-2.5-2.5v-51c0-1.381,1.119-2.5,2.5-2.5h12c1.381,0,2.5,1.119,2.5,2.5v51
					C223.066,232.881,221.947,234,220.566,234z M211.066,229h7v-46h-7V229z"/>
			</g>
		</g>
		<g>
			<g>
				<path d="M220.566,244c-1.381,0-2.5-1.119-2.5-2.5v-10c0-1.381,1.119-2.5,2.5-2.5s2.5,1.119,2.5,2.5v10
					C223.066,242.881,221.947,244,220.566,244z"/>
			</g>
		</g>
		<g>
			<g>
				<path d="M208.566,244c-1.381,0-2.5-1.119-2.5-2.5v-10c0-1.381,1.119-2.5,2.5-2.5s2.5,1.119,2.5,2.5v10
					C211.066,242.881,209.947,244,208.566,244z"/>
			</g>
		</g>
		<g>
			<g>
				<path d="M220.567,183.001c-0.992,0-1.931-0.595-2.322-1.572l-3.679-9.197l-3.679,9.197c-0.513,1.282-1.968,1.906-3.25,1.393
					c-1.282-0.513-1.905-1.968-1.393-3.25l4.216-10.539c0.675-1.688,2.287-2.779,4.105-2.779s3.431,1.091,4.105,2.78l4.216,10.538
					c0.513,1.282-0.111,2.737-1.393,3.25C221.19,182.943,220.875,183.001,220.567,183.001z"/>
			</g>
		</g>
		<g>
			<g>
				<path class="st8" d="M191.822,28.33c-4.498-0.838-8.043-4.31-8.898-8.716c-0.043-0.221-0.352-0.221-0.395,0
					c-0.855,4.406-4.4,7.879-8.898,8.716c-0.226,0.042-0.226,0.345,0,0.387c4.498,0.838,8.043,4.31,8.898,8.717
					c0.043,0.221,0.352,0.221,0.395,0c0.855-4.406,4.4-7.879,8.898-8.717C192.047,28.675,192.047,28.373,191.822,28.33z"/>
			</g>
		</g>
		<g>
			<g>
				<path class="st7" d="M195.515,113.101c-2.862-0.533-5.118-2.743-5.663-5.547c-0.027-0.141-0.224-0.141-0.251,0
					c-0.544,2.804-2.8,5.014-5.663,5.547c-0.144,0.027-0.144,0.219,0,0.246c2.862,0.533,5.118,2.743,5.663,5.547
					c0.027,0.141,0.224,0.141,0.251,0c0.544-2.804,2.8-5.014,5.663-5.547C195.658,113.32,195.658,113.128,195.515,113.101z"/>
			</g>
		</g>
		<g>
			<g>
				<circle class="st8" cx="33.755" cy="154.825" r="3.377"/>
			</g>
		</g>
		<g>
			<g>
				<circle class="st9" cx="168.755" cy="3.377" r="3.377"/>
			</g>
		</g>
		<g>
			<g>
				<path class="st6" d="M40.246,122.75h2.33v-2.33c0-1.744,1.413-3.157,3.157-3.157c1.744,0,3.157,1.413,3.157,3.157v2.33h2.329
					c1.744,0,3.157,1.413,3.157,3.157s-1.413,3.157-3.157,3.157h-2.329v2.33c0,1.744-1.413,3.157-3.157,3.157
					c-1.744,0-3.157-1.413-3.157-3.157v-2.33h-2.33c-1.744,0-3.157-1.413-3.157-3.157S38.502,122.75,40.246,122.75z"/>
			</g>
		</g>
	</g>
</g>
<g id="Layer_62">
</g>
<g id="Layer_63">
</g>
<g id="Layer_64">
</g>
<g id="Layer_65">
</g>
<g id="Layer_66">
</g>
<g id="Layer_67">
</g>
<g id="Layer_68">
</g>
<g id="Layer_69">
</g>
<g id="Layer_70">
</g>
<g id="Layer_71">
</g>
<g id="Layer_72">
</g>
<g id="Layer_73">
</g>
<g id="Layer_74">
</g>
<g id="Layer_75">
</g>
<g id="Layer_76">
</g>
<g id="Layer_77">
</g>
<g id="Layer_78">
</g>
<g id="Layer_79">
</g>
<g id="Layer_80">
</g>
</svg>
